<svg width="220" height="240" viewBox="0 0 220 240" fill="none" xmlns="http://www.w3.org/2000/svg">
<g clip-path="url(#clip0)">
<path fill-rule="evenodd" clip-rule="evenodd" d="M123.773 117.099V125.139L119.983 120.682L119.107 116.259L123.773 117.099Z" fill="#FFB685"/>
<path fill-rule="evenodd" clip-rule="evenodd" d="M130.167 194.502C130.167 194.502 126.546 177.576 124.095 164.886C123.508 161.844 115.018 153.302 115.018 153.302C114.726 158.648 118.382 170.383 120.369 178.149C122.357 185.915 125.209 198.149 125.209 198.149L128.338 203.128L130.167 194.502Z" fill="#FFB685"/>
<path fill-rule="evenodd" clip-rule="evenodd" d="M126.199 175.465C125.695 172.986 125.188 170.462 124.707 168.022C123.872 163.784 115.31 147.955 115.018 153.302C114.725 158.647 118.381 170.383 120.369 178.149C120.488 178.614 120.611 179.096 120.735 179.591C122.449 178.418 124.274 177.054 126.199 175.465Z" fill="#FAA66E"/>
<path fill-rule="evenodd" clip-rule="evenodd" d="M102.036 177.957C99.9673 181.509 97.9858 184.96 96.4864 187.583C95.0403 190.111 94.0463 191.873 93.8557 192.213C93.8464 192.229 93.8415 192.237 93.8415 192.237L93.8366 192.236C93.8268 192.26 93.8224 192.267 93.8224 192.267L88.5713 193.013L89.8356 185.962C89.8356 185.962 89.8404 185.955 89.8502 185.93C89.992 185.661 91.1541 183.484 92.6638 180.6C94.2473 177.581 96.2126 173.794 97.7937 170.627C97.7296 170.77 97.6568 170.905 97.5879 171.048C98.9206 173.262 100.397 175.576 102.036 177.957Z" fill="#FFB685"/>
<path fill-rule="evenodd" clip-rule="evenodd" d="M106.108 156.404L105.79 171.58C105.79 171.58 103.11 176.109 102.035 177.956C100.396 175.576 98.9206 173.263 97.5879 171.048C97.6558 170.906 97.7292 170.77 97.7937 170.628C97.9257 170.366 98.0572 170.113 98.1804 169.857L98.8404 168.622L100.206 156.027L106.108 156.404Z" fill="#FAA66E"/>
<path fill-rule="evenodd" clip-rule="evenodd" d="M110.768 112.961C110.768 112.961 112.565 119.621 116.747 125.098C120.928 130.577 128.203 135.426 128.203 135.426C128.203 135.426 130.536 141.847 131.866 143.696C132.79 144.981 133.426 144.697 132.852 143.268C132.608 142.662 131.859 141.4 131.62 140.571C132.027 141.253 133.992 144.377 134.481 143.426C134.97 142.474 133.897 141.915 132.521 138.771C133.623 140.556 135.086 142.596 135.621 141.771C136.157 140.945 133.79 138.385 133.366 137.334C134.081 138.169 135.973 139.878 136.168 138.545C136.363 137.213 134.402 135.822 133.911 134.757L132.597 131.58C132.79 131.376 134.278 131.298 134.5 130.973C134.716 130.656 134.735 130.09 134.011 129.408C132.815 128.31 130.489 129.1 130.489 129.1C123.192 125.12 120.07 119.831 116.784 109.317C116.229 107.542 114.148 104.648 112.243 106.205C110.337 107.761 110.043 110.73 110.768 112.961Z" fill="#FFB685"/>
<path fill-rule="evenodd" clip-rule="evenodd" d="M108.756 88.946L113.463 90.3799L113.86 98.5419L111.301 99.4581L108.622 99.3374L108.756 88.946Z" fill="#E8935A"/>
<path fill-rule="evenodd" clip-rule="evenodd" d="M97.8404 77.8608C94.6998 77.3513 94.5203 69.5945 97.1393 68.7991C95.8174 56.1229 100.924 43.896 110.178 43.0128C116.582 42.403 123.336 48.8232 124.378 62.2086C125.077 71.1929 124.615 79.977 122.461 85.4812C117.217 98.8958 100.206 93.8469 97.8404 77.8608Z" fill="#FFB685"/>
<path fill-rule="evenodd" clip-rule="evenodd" d="M97.8411 77.8607C97.0076 77.9787 96.4326 77.0173 96.0215 76.3083C96.8971 76.9179 97.7957 77.0646 98.8042 76.0847C100.385 91.1739 114.791 96.7 120.735 88.7224C114.209 97.8726 99.9898 92.3745 97.8411 77.8607Z" fill="#FAA66E"/>
<path fill-rule="evenodd" clip-rule="evenodd" d="M99.8506 70.44C99.8506 70.44 100.405 66.4756 100.608 62.8668C100.812 59.2578 102.046 56.2278 102.046 56.2278C102.046 56.2278 109.62 60.2526 111.492 59.301C113.365 58.3485 105.625 48.1782 105.625 48.1782L111.954 56.1297L112.64 57.2572C112.64 57.2572 116.097 60.9408 116.987 60.3297C117.876 59.7183 113.826 49.8513 113.826 49.8513C113.826 49.8513 117.716 60.7419 123.055 61.6281C125.056 61.9599 124.242 59.5317 123.578 56.8053C122.469 52.251 119.648 46.0365 115.485 44.4177C108.829 41.8296 102.191 44.7672 100.774 47.4909C99.3573 50.2161 97.2605 63.3057 99.8506 70.44Z" fill="#F29F68"/>
<path fill-rule="evenodd" clip-rule="evenodd" d="M114.652 126.219C116.855 127.144 117.891 126.391 117.854 127.667C117.821 128.943 115.168 128.69 114.605 128.608C115.088 128.992 116.128 129.14 116.537 129.344C117.497 129.819 117.109 130.735 115.927 130.76C114.225 130.793 110.095 128.387 110.095 128.387C110.095 128.387 103.176 132.372 97.9959 132.97C97.8175 132.986 97.6444 133.002 97.4757 133.01C97.3599 133.018 97.245 133.024 97.1311 133.029C95.4023 133.098 94.1273 130.255 94.5654 127.335C94.7839 125.877 95.0279 124.381 95.2958 122.914C95.6707 120.859 96.0927 118.855 96.5571 117.088C99.2807 115.107 101.277 118.348 101.943 119.731C101.203 121.236 100.561 122.759 100.002 124.386C102.89 124.624 105.853 123.568 109.575 120.966C109.575 120.966 111.094 117.784 112.421 117.317C113.227 117.047 113.419 117.514 113.363 117.996C113.311 118.487 112.186 120.189 112.111 120.565L114.277 121.579C115.041 121.858 117.066 120.778 117.399 122.03C117.727 123.274 115.646 124.035 114.788 124.174C115.496 124.526 118.257 123.895 118.14 125.131C118.023 126.358 116.152 126.391 114.652 126.219Z" fill="#FFB685"/>
<path fill-rule="evenodd" clip-rule="evenodd" d="M105.404 113.831C105.019 114.412 104.649 114.984 104.293 115.557C104.264 115.598 104.236 115.647 104.208 115.696C103.847 116.269 103.505 116.85 103.177 117.431C103.041 117.668 102.905 117.905 102.778 118.142C102.708 118.257 102.647 118.371 102.586 118.494C102.389 118.846 102.207 119.206 102.028 119.566C102 119.624 101.972 119.673 101.944 119.73C101.278 118.347 99.2812 115.107 96.5576 117.087C96.9981 115.426 97.4811 113.912 97.9783 112.562C98.3997 111.408 98.8309 110.377 99.2436 109.461C99.267 109.42 99.2861 109.379 99.2998 109.338C100.805 106.048 102.094 104.33 102.094 104.33C103.191 102.621 104.916 102.498 106.191 105.427C107.466 108.348 106.28 112.513 105.404 113.831Z" fill="#FAA66E"/>
<path fill-rule="evenodd" clip-rule="evenodd" d="M106.751 99.6912C107.797 98.3623 110.267 97.5011 112.003 97.3914C113.45 97.2988 115.312 97.5271 116.121 98.5495C115.345 100.306 113.275 101.712 111.436 101.712C109.597 101.712 107.71 100.282 106.751 99.6912Z" fill="#E8935A"/>
<path d="M113.908 143.532C113.97 143.951 113.826 144.38 113.586 144.489C113.346 144.599 113.1 144.347 113.038 143.928C112.975 143.51 113.119 143.082 113.359 142.972C113.599 142.863 113.844 143.113 113.908 143.532Z" fill="#FEFFFE"/>
<path fill-rule="evenodd" clip-rule="evenodd" d="M130.161 194.464C130.161 194.464 129.8 191.77 129.067 188.184C127.314 189.241 125.191 190.498 123.485 191.486C124.458 195.324 125.173 198.135 125.173 198.135L128.339 203.128L130.161 194.464Z" fill="#F2FAFF"/>
<path fill-rule="evenodd" clip-rule="evenodd" d="M125.934 206.808L137.282 200.115C137.56 199.951 137.865 200.215 137.959 200.702C138.053 201.188 137.902 201.72 137.624 201.885L126.276 208.577C125.998 208.74 125.693 208.478 125.599 207.992C125.504 207.505 125.655 206.973 125.934 206.808Z" fill="#364B70"/>
<path fill-rule="evenodd" clip-rule="evenodd" d="M93.8396 192.239C93.8396 192.239 95.0862 190.53 96.6394 187.856C95.3507 185.53 93.8009 182.701 92.568 180.419C90.9854 183.578 89.8277 185.897 89.8277 185.897L88.5703 193.011L93.8396 192.239Z" fill="#F2FAFF"/>
<path fill-rule="evenodd" clip-rule="evenodd" d="M125.202 198.111C125.202 198.111 124.555 199.67 124.873 202.458C125.192 205.245 125.994 207.123 125.994 207.123L136.415 201.74L137.412 200.121C136.83 195.247 131.808 195.055 130.159 194.464C130.006 195.769 127.008 201.216 125.202 198.111Z" fill="#546C96"/>
<path fill-rule="evenodd" clip-rule="evenodd" d="M89.8516 185.933C89.8516 185.933 88.7687 185.568 87.4556 187.249C86.1419 188.929 85.5049 190.992 85.5049 190.992L92.6999 205.21L93.9612 206.103C96.2477 203.124 94.2276 195.099 93.8385 192.239C93.0959 192.549 89.0019 190.104 89.8516 185.933Z" fill="#546C96"/>
<path fill-rule="evenodd" clip-rule="evenodd" d="M134.916 196.085C134.76 195.987 134.601 195.896 134.439 195.812C134.128 196.356 133.878 196.957 133.735 197.436C133.674 197.637 133.724 197.859 133.845 197.934C133.967 198.008 134.114 197.903 134.174 197.702C134.316 197.229 134.584 196.612 134.916 196.085Z" fill="#E0F4FF"/>
<path fill-rule="evenodd" clip-rule="evenodd" d="M352.832 222.865C315.717 213.015 278.526 203.636 241.411 195.328C197.257 253.144 161.563 311.428 138.602 360.679C125.063 389.458 136.181 421.321 163.258 432.028C190.45 442.392 223.449 427.53 236.91 398.837C261.064 347.274 301.871 283.593 352.832 222.865Z" fill="#E0F4FF"/>
<path fill-rule="evenodd" clip-rule="evenodd" d="M94.8336 198.47C94.7994 198.178 94.7628 197.887 94.7241 197.601C94.4298 197.46 94.1502 197.38 93.9277 197.362C93.7977 197.352 93.7019 197.525 93.7151 197.748C93.7283 197.97 93.8446 198.16 93.9747 198.169C94.2079 198.188 94.5164 198.288 94.8336 198.47Z" fill="#E0F4FF"/>
<path fill-rule="evenodd" clip-rule="evenodd" d="M95.0038 200.447C94.9886 200.159 94.9686 199.869 94.9451 199.578C94.531 199.316 94.113 199.172 93.8041 199.148C93.674 199.138 93.5797 199.31 93.5919 199.533C93.6051 199.756 93.7214 199.945 93.8515 199.956C94.1565 199.98 94.5907 200.144 95.0038 200.447Z" fill="#E0F4FF"/>
<path fill-rule="evenodd" clip-rule="evenodd" d="M85.6435 190.762L93.9087 205.892C94.112 206.265 94.1037 206.858 93.8906 207.212C93.6784 207.566 93.3372 207.552 93.1347 207.181L84.8696 192.051C84.6672 191.68 84.6745 191.085 84.8877 190.73C85.1003 190.375 85.4406 190.389 85.6435 190.762Z" fill="#364B70"/>
<path fill-rule="evenodd" clip-rule="evenodd" d="M110.768 112.961C110.768 112.961 112.565 119.621 116.747 125.098C116.211 120.035 118.447 117.308 119.362 116.462C118.465 114.382 117.63 112.022 116.784 109.316C116.229 107.542 114.149 104.647 112.243 106.204C110.337 107.761 110.043 110.73 110.768 112.961Z" fill="#FAA66E"/>
<path fill-rule="evenodd" clip-rule="evenodd" d="M102.652 140.162C102.31 150.603 97.0665 164.765 96.9814 168.302L106.751 168.308L111.367 151.1C111.913 151.094 112.411 151.027 112.957 151.022L116.43 168.13L125.533 167.547C125.594 158.554 122.275 149.782 122.095 140.154C122.095 140.154 105.646 130.65 102.652 140.162Z" fill="#546C96"/>
<path fill-rule="evenodd" clip-rule="evenodd" d="M115.926 76.6066C115.621 80.0296 112.544 79.3138 112.53 76.7883C112.874 77.0639 113.279 77.4692 113.954 77.5412C114.535 77.6029 115.368 77.4246 115.926 76.6066Z" fill="#F09B63"/>
<path fill-rule="evenodd" clip-rule="evenodd" d="M97.2991 73.6764C97.2991 73.6764 97.0116 72.4641 97.6486 72.3407C97.9796 72.2769 98.1351 72.8083 98.2025 73.3267C98.2646 73.8047 98.2529 74.273 98.2363 74.249C98.2363 74.249 98.1644 74.0152 98.0564 73.7676C97.854 73.3103 97.5259 72.8083 97.2991 73.6764Z" fill="#FAA66E"/>
<path fill-rule="evenodd" clip-rule="evenodd" d="M104.668 63.3173C105.678 61.9941 107.503 61.7075 108.37 61.7855C110.014 61.9319 109.353 60.1751 108.568 59.9822C107.088 59.6189 105.317 60.7232 104.345 62.2754C103.577 63.5013 103.463 64.8957 104.668 63.3173Z" fill="black"/>
<path fill-rule="evenodd" clip-rule="evenodd" d="M123.235 66.2025C122.479 64.656 120.825 63.9285 120.01 63.7935C118.466 63.5367 119.318 61.9704 120.072 61.973C121.494 61.9773 122.987 63.4941 123.676 65.2572C124.222 66.6501 124.138 68.0475 123.235 66.2025Z" fill="black"/>
<path fill-rule="evenodd" clip-rule="evenodd" d="M99.0948 72.6973C99.3466 72.7515 99.9147 72.6507 99.9655 67.5839C100.008 63.4232 99.9235 59.5913 101.75 54.8561C103.122 56.8439 116.138 62.8527 112.854 56.396C112.854 56.396 115.803 60.1193 116.987 60.3294C118.172 60.5399 116.827 54.6383 116.827 54.6383C119.588 61.0461 127.697 65.7584 124.715 57.4926C126.577 61.2324 125.798 46.0764 118.013 41.0859C113.882 38.439 104.19 38.6984 100.922 45.3948C100.922 45.3948 101.09 40.7898 100.352 41.121C99.614 41.4525 99.7441 45.7563 99.7441 45.7563C99.7441 45.7563 98.8753 43.6101 98.6783 44.5919C98.4813 45.5739 99.3275 46.6016 99.3275 46.6016C99.3275 46.6016 95.4301 50.4857 95.0326 57.9276C94.6352 65.3696 96.251 69.4436 96.251 69.4436C98.6123 67.2468 98.6392 72.5993 99.0948 72.6973Z" fill="black"/>
<path fill-rule="evenodd" clip-rule="evenodd" d="M124.415 50.5304C123.91 48.959 123.226 47.3195 122.332 45.8015C117.608 51.2486 102.916 42.6791 95.1638 56.4353C95.1051 56.9153 95.0606 57.413 95.0328 57.9278C95.0147 58.2708 95.0005 58.6085 94.9902 58.9367C96.6554 56.7692 99.0979 52.9928 102.986 51.7745C108.691 49.9877 120.019 54.9473 124.415 50.5304Z" fill="#2D2D2D"/>
<path fill-rule="evenodd" clip-rule="evenodd" d="M116.789 84.4374C116.488 85.3247 115.446 86.8676 113.508 86.6845C111.819 86.5261 110.706 84.9277 110.303 83.7551C110.057 83.0399 110.121 82.3727 110.39 82.8815C112.721 87.3051 115.841 85.1067 116.516 84.1199C116.772 83.7476 116.972 83.8971 116.789 84.4374Z" fill="#B13B32"/>
<path d="M110.211 72.3497C110.211 72.3497 106.812 75.3215 105.153 72.4052C103.133 68.8511 105.392 64.991 107.096 65.1578C108.674 65.3135 110.267 67.2434 110.211 72.3497Z" fill="#F9FEFF"/>
<path d="M104.427 67.3631C104.959 65.7267 105.809 65.0246 106.791 64.9293C107.796 64.8317 108.906 65.7818 109.302 66.9671C108.643 65.6897 107.68 65.4197 107.091 65.3624C106.151 65.2679 105.024 66.306 104.616 67.8852C104.255 69.2914 104.467 71.1922 105.208 72.4964C104.398 71.6934 103.872 69.0685 104.427 67.3631Z" fill="black"/>
<path d="M109.689 68.3365C110.237 69.9552 109.93 72.0419 109.003 72.9991C108.076 73.9557 106.88 73.4208 106.331 71.8026C105.783 70.1836 106.09 68.0968 107.017 67.1392C107.944 66.1819 109.14 66.718 109.689 68.3365Z" fill="black"/>
<path d="M109.497 69.3215C109.624 69.6966 109.553 70.1793 109.338 70.4008C109.123 70.6223 108.846 70.4982 108.719 70.1245C108.592 69.7487 108.664 69.2659 108.878 69.0445C109.092 68.8223 109.37 68.9471 109.497 69.3215Z" fill="#FEFFFE"/>
<path d="M117.026 73.1519C117.026 73.1519 120.459 75.9181 122.054 72.9284C123.998 69.2838 121.683 65.5725 119.991 65.8334C118.426 66.0746 116.878 68.081 117.026 73.1519Z" fill="#F9FEFF"/>
<path d="M122.686 67.8767C122.127 66.2796 121.269 65.6288 120.291 65.5887C119.292 65.547 118.205 66.5526 117.832 67.7528C118.464 66.447 119.417 66.1256 120.001 66.0357C120.934 65.8899 122.073 66.8589 122.506 68.406C122.892 69.783 122.716 71.6845 122.002 73.0217C122.793 72.1789 123.268 69.541 122.686 67.8767Z" fill="black"/>
<path d="M122.3 69.6047C122.564 71.3704 121.959 73.1745 120.947 73.636C119.936 74.0968 118.902 73.0394 118.638 71.2744C118.374 69.5087 118.98 67.7039 119.991 67.2431C121.002 66.7816 122.037 67.8389 122.3 69.6047Z" fill="black"/>
<path d="M122.017 69.8716C122.079 70.2899 121.936 70.7184 121.695 70.8282C121.455 70.9372 121.211 70.6862 121.147 70.2672C121.085 69.8483 121.229 69.4204 121.469 69.3107C121.709 69.2009 121.954 69.4519 122.017 69.8716Z" fill="#FEFFFE"/>
<path fill-rule="evenodd" clip-rule="evenodd" d="M105.404 113.831C105.019 114.412 104.649 114.984 104.293 115.557C104.264 115.598 104.236 115.647 104.208 115.696C103.847 116.269 103.505 116.85 103.177 117.431C103.041 117.668 102.91 117.905 102.778 118.142C102.708 118.257 102.647 118.371 102.586 118.494C102.389 118.846 102.207 119.206 102.028 119.566C102 119.624 101.972 119.673 101.944 119.73C101.278 118.347 99.2812 115.107 96.5576 117.087C96.9981 115.426 97.4811 113.912 97.9783 112.562C98.3997 111.408 98.8309 110.377 99.2436 109.461C99.267 109.42 99.2861 109.379 99.2998 109.338C100.805 106.048 102.094 104.33 102.094 104.33C103.191 102.621 104.916 102.498 106.191 105.427C107.466 108.348 106.28 112.513 105.404 113.831Z" fill="#FFB685"/>
<path fill-rule="evenodd" clip-rule="evenodd" d="M123.293 113.419C121.956 115.537 118.313 116.784 115.9 116.397C113.607 109.873 113.35 98.8306 117.538 100.001C117.938 100.113 118.035 99.1947 118.406 99.6905C120.414 102.377 122.873 108.196 123.293 113.419Z" fill="#0DA18D"/>
<path fill-rule="evenodd" clip-rule="evenodd" d="M102.651 140.162C102.651 140.162 103.157 112.711 103.521 107.535C103.843 102.954 105.186 100.27 107.268 98.9554C109.12 102.479 114.113 102.578 115.71 97.9919C118.405 98.6317 120.234 100.85 120.506 107.192C120.84 114.994 122.075 140.133 122.075 140.133C122.627 140.375 110.457 144.249 102.651 140.162Z" fill="#0DA18D"/>
<path fill-rule="evenodd" clip-rule="evenodd" d="M98.9297 108.549C99.6968 111.4 102.785 114.998 105.097 116.259C108.651 111.776 111.322 101.754 107.198 100.025C106.804 99.8591 106.917 98.9457 106.465 99.1548C104.019 100.287 100.467 104.008 98.9297 108.549Z" fill="#0DA18D"/>
<path d="M123.279 113.381C123.233 113.4 122.545 114.9 120.657 115.041L121.065 118.942C122.545 118.5 122.373 118.8 123.773 117.055L123.279 113.381Z" fill="#41D1BE"/>
<path d="M98.9303 108.549L97.6758 111.622C98.284 114.435 102.33 118.694 103.65 119.22L104.873 115.879C102.492 114.743 100.48 111.975 98.9303 108.549Z" fill="#41D1BE"/>
<path d="M117.342 98.5934L115.562 97.7089C115.024 99.3491 113.372 100.996 111.447 101.105C110.091 101.18 108.604 100.131 107.454 98.5756C106.481 99.0652 105.798 99.513 105.532 99.6858C108.041 105.646 115.452 105.177 117.342 98.5934Z" fill="#41D1BE"/>
<path fill-rule="evenodd" clip-rule="evenodd" d="M114.652 126.219C116.855 127.144 117.891 126.391 117.854 127.667C117.821 128.943 115.168 128.69 114.605 128.608C115.088 128.992 116.128 129.14 116.537 129.344C117.497 129.819 117.109 130.735 115.927 130.76C114.225 130.793 110.095 128.387 110.095 128.387C110.095 128.387 103.176 132.372 97.9959 132.97C97.8175 132.986 97.6444 133.002 97.4757 133.01C97.3599 133.018 97.245 133.024 97.1311 133.029C95.4023 133.098 94.1273 130.255 94.5654 127.335C94.7839 125.877 95.0279 124.381 95.2958 122.914C95.6707 120.859 96.0927 118.855 96.5571 117.088C99.2807 115.107 101.277 118.348 101.943 119.731C101.203 121.236 100.561 122.759 100.002 124.386C102.89 124.624 105.853 123.568 109.575 120.966C109.575 120.966 111.094 117.784 112.421 117.317C113.227 117.047 113.419 117.514 113.363 117.996C113.311 118.487 112.186 120.189 112.111 120.565L114.277 121.579C115.041 121.858 117.066 120.778 117.399 122.03C117.727 123.274 115.646 124.035 114.788 124.174C115.496 124.526 118.257 123.895 118.14 125.131C118.023 126.358 116.152 126.391 114.652 126.219Z" fill="#FFB685"/>
</g>
<defs>
<clipPath id="clip0">
<rect width="220" height="240" fill="white"/>
</clipPath>
</defs>
</svg>
