<svg width="220" height="240" viewBox="0 0 220 240" fill="none" xmlns="http://www.w3.org/2000/svg">
<path d="M104.161 71.3582C104.161 71.3582 102.41 76.2116 103.588 82.752C103.588 82.752 104.065 85.5147 103.939 87.469C103.939 87.469 105.034 85.8459 105.211 81.3319C105.211 81.3319 105.163 85.0416 104.79 86.6606C104.79 86.6606 108.13 76.9851 105.975 71.3582H104.161Z" fill="#2B1116"/>
<path d="M106.005 27.6073C106.005 27.6073 106.483 34.2438 105.052 38.2595C105.052 38.2595 105.423 38.4911 105.052 39.8077C105.052 39.8077 106.271 43.018 105.71 45.4873C105.148 47.9564 104.413 48.5629 103.549 47.4376C102.685 46.3115 101.301 41.7871 101.377 37.7938C101.454 33.7978 104.168 26.968 104.168 26.968L106.005 27.6073Z" fill="#2B1116"/>
<path d="M103.775 36.5974C102.961 36.6789 102.62 35.4883 102.62 35.4883L101.451 36.7376C101.41 37.1065 101.385 37.4618 101.377 37.7938C101.37 38.1276 101.376 38.4667 101.389 38.8049L101.413 38.9858C101.413 38.9858 102.24 42.1787 103.47 43.4427C103.47 43.4427 104.36 42.2707 105.086 39.903C105.063 39.8423 105.052 39.8081 105.052 39.8081C105.422 38.4911 105.052 38.2599 105.052 38.2599C105.566 36.8208 105.832 35.0441 105.964 33.3569C105.723 33.8934 104.507 36.5185 103.775 36.5974Z" fill="#1C0C0E"/>
<path d="M108.407 33.8987C108.407 34.2189 108.275 34.477 108.11 34.477C107.945 34.477 107.812 34.2189 107.812 33.8987C107.812 33.5803 107.945 33.322 108.11 33.322C108.275 33.322 108.407 33.5805 108.407 33.8987Z" fill="#B16327"/>
<path d="M106.339 58.8227C106.339 58.8227 107.632 54.0316 106.006 47.9823C106.006 47.9823 106.542 43.2243 105.208 41.9485L105.166 41.968C105.161 42.0489 105.154 42.1292 105.149 42.2094C105.122 42.5296 105.056 42.8614 104.964 43.1252C104.839 43.4861 104.667 43.8936 104.454 44.07C104.22 44.2709 104.005 44.4458 103.739 44.411C103.569 44.3891 103.394 44.346 103.23 44.2587C102.919 44.0925 102.672 43.679 102.528 43.1571L102.474 43.1836C102.474 43.1836 102.456 46.4361 103.072 48.8632C103.072 48.8632 101.976 53.512 103.908 59.7278C103.908 59.7278 102.68 67.1354 103.825 70.593C103.825 70.593 104.129 71.7457 105.148 71.6215C105.148 71.6215 106.357 71.5804 106.591 70.7973C106.823 70.0163 107.643 68.4511 106.339 58.8227Z" fill="#2B1116"/>
<path d="M105.019 61.4978C105.019 61.4978 105.741 60.8418 106.344 58.8626C106.343 58.8465 106.341 58.8358 106.339 58.8227C106.339 58.8227 107.105 55.9769 106.713 51.9037C106.404 53.5826 105.88 55.7036 105.125 56.4345C105.125 56.4345 103.58 54.3236 102.787 51.288C102.694 53.2447 102.823 56.2395 103.908 59.7275C103.908 59.7275 103.903 59.7493 103.898 59.7842C104.137 60.3596 104.491 60.978 105.019 61.4978Z" fill="#1C0C0E"/>
<path d="M106.49 71.1916C106.674 70.5717 107.228 69.4526 106.795 64.1936C106.491 68.216 106.031 70.9749 105.322 70.2878C104.751 69.7358 103.961 65.2816 103.503 62.4163C103.234 64.886 102.985 68.7566 103.724 70.9879C103.724 70.9879 104.028 72.1406 105.047 72.0158C105.046 72.0158 106.256 71.9746 106.49 71.1916Z" fill="#1C0C0E"/>
<path d="M106.023 48.0469C106.016 48.0258 106.012 48.0033 106.005 47.9822C106.005 47.9822 106.305 45.3175 105.898 43.4424C105.634 45.048 105.182 47.026 104.573 46.9279C103.864 46.8142 103.052 45.6204 102.502 44.4053C102.552 45.5547 102.688 47.31 103.05 48.7833C103.497 49.6515 104.163 50.4711 105.147 51.0853C105.147 51.0855 105.691 50.2626 106.023 48.0469Z" fill="#1C0C0E"/>
<path d="M105.705 80.0627C104.854 81.7845 103.898 76.8371 103.478 74.2992C103.159 76.3454 102.969 79.3152 103.589 82.7514C103.589 82.7514 104.065 85.5148 103.939 87.4691C103.939 87.4691 105.034 85.846 105.211 81.3319C105.211 81.3319 105.163 85.0416 104.79 86.6599C104.79 86.6599 107.162 79.787 106.618 74.2567C106.536 76.3372 106.306 78.8462 105.705 80.0627Z" fill="#1C0C0E"/>
<path d="M115.558 217.537C115.985 218.107 116.462 218.562 116.957 218.957C117.328 219.249 117.707 219.515 118.082 219.759C119.025 220.385 119.989 221.017 120.989 221.065C121.374 221.092 121.792 220.997 122.083 220.501C122.293 220.133 122.391 219.596 122.395 219.046C121.347 217.216 120.414 215.149 119.635 212.877C119.747 212.191 119.863 211.504 119.979 210.817C120.109 210.069 120.242 209.315 120.379 208.572C118.983 208.519 117.584 208.336 116.192 208.076C116.375 210.403 116.49 212.756 116.059 214.938C115.884 215.802 115.722 216.672 115.558 217.537Z" fill="#D0836A"/>
<path d="M114.75 223.125C115.02 224.302 115.897 225.234 116.507 225.532C117.65 226.083 118.839 224.921 120.013 225.118C121.156 225.308 122.138 226.742 123.25 227.294C124.364 227.852 125.42 227.429 126.468 226.499C127.019 226.009 127.527 225.335 127.962 224.519C127.972 224.499 127.979 224.486 127.99 224.466C128.042 224.364 128.092 224.254 128.12 224.118C128.127 224.078 128.134 224.056 128.137 224.05C128.13 224.05 128.123 224.037 128.109 224.01C128.018 223.166 127.713 222.479 127.422 221.833C127.373 221.724 127.307 221.622 127.275 221.745C127.163 221.779 127.054 221.84 126.945 221.895C125.248 222.717 123.874 221.209 122.615 219.16C122.461 218.909 122.313 218.637 122.166 218.379C122.162 218.929 122.064 219.466 121.854 219.834C121.563 220.331 121.146 220.425 120.76 220.399C119.761 220.351 118.796 219.719 117.853 219.092C117.478 218.848 117.099 218.582 116.728 218.29C116.233 217.896 115.757 217.441 115.329 216.869C115.245 217.298 115.161 217.732 115.079 218.161C114.824 219.555 114.414 221.657 114.75 223.125Z" fill="#1684AF"/>
<path d="M114.75 223.126C115.02 224.302 115.897 225.235 116.507 225.533C117.65 226.084 118.839 224.921 120.013 225.119C121.156 225.309 122.138 226.743 123.25 227.294C124.364 227.853 125.42 227.43 126.468 226.499C127.019 226.009 127.527 225.335 127.962 224.52C127.972 224.499 127.979 224.486 127.99 224.467C127.783 224.663 127.594 225.152 127.324 225.445C126.85 225.955 126.314 226.248 125.777 226.356C124.852 226.547 123.919 226.24 123.008 225.88C122.383 225.636 121.752 225.357 121.184 224.799C120.897 224.513 120.627 224.159 120.326 223.935C119.817 223.561 119.253 223.596 118.709 223.493C118.169 223.399 117.59 223.119 117.233 222.317C116.893 221.549 116.833 220.468 116.784 219.461C116.767 219.073 116.749 218.679 116.728 218.291C116.686 217.373 116.644 216.462 116.598 215.543C116.798 215.347 117.019 215.251 117.24 215.266C117.079 215.266 117.198 210.308 117.296 209.662C118.116 209.723 118.94 209.886 119.75 210.151C119.88 209.403 120.013 208.649 120.15 207.907C118.754 207.853 117.356 207.669 115.963 207.411C116.146 209.737 116.262 212.09 115.83 214.272C115.655 215.135 115.494 216.006 115.329 216.87C115.245 217.299 115.161 217.733 115.08 218.162C114.824 219.555 114.414 221.658 114.75 223.126Z" fill="#D8BEB9"/>
<path d="M115.328 216.869C115.756 217.441 116.233 217.896 116.727 218.29C117.098 218.582 117.478 218.848 117.852 219.093C118.796 219.719 119.76 220.351 120.759 220.399C121.145 220.425 121.562 220.331 121.853 219.835C122.064 219.466 122.162 218.929 122.166 218.379C121.117 216.549 120.184 214.482 119.406 212.211C119.518 211.524 119.634 210.837 119.749 210.15C119.879 209.403 120.013 208.648 120.149 207.906C118.754 207.852 117.355 207.669 115.963 207.41C116.145 209.737 116.261 212.089 115.83 214.271C115.654 215.135 115.493 216.005 115.328 216.869Z" fill="#C97D69"/>
<path opacity="0.8" d="M116.728 218.289C116.685 217.371 116.643 216.462 116.598 215.544C116.798 215.345 117.019 215.25 117.24 215.266C117.078 215.266 117.198 210.307 117.296 209.661C118.116 209.721 118.94 209.884 119.75 210.152C119.88 209.402 120.013 208.648 120.149 207.907C118.755 207.852 117.356 207.67 115.963 207.411C116.146 209.737 116.261 212.091 115.83 214.272C115.654 215.135 115.494 216.004 115.328 216.87C115.669 217.442 116.598 218.188 116.728 218.289Z" fill="#B56855"/>
<path d="M116.957 218.958C116.967 218.964 116.972 218.969 116.972 218.969" stroke="#D8BEB9" stroke-miterlimit="10"/>
<path d="M102.405 217.317C102.783 218.006 103.219 218.595 103.676 219.128C104.021 219.525 104.374 219.899 104.725 220.249C105.608 221.143 106.511 222.049 107.494 222.389C107.873 222.527 108.292 222.556 108.619 222.151C108.855 221.849 108.993 221.348 109.04 220.805C108.146 218.691 107.386 216.378 106.794 213.908C106.958 213.263 107.125 212.617 107.293 211.973C107.479 211.273 107.669 210.567 107.862 209.874C106.488 209.413 105.121 208.823 103.766 208.161C103.766 210.511 103.697 212.868 103.102 214.897C102.862 215.699 102.635 216.512 102.405 217.317Z" fill="#D0836A"/>
<path d="M101.349 223.325C101.524 224.565 102.318 225.742 102.897 226.215C103.983 227.093 105.247 226.292 106.392 226.83C107.506 227.353 108.363 229.055 109.418 229.925C110.476 230.801 111.551 230.693 112.659 230.08C113.241 229.757 113.795 229.24 114.287 228.561C114.3 228.544 114.307 228.533 114.32 228.517C114.379 228.431 114.436 228.337 114.475 228.212C114.485 228.173 114.493 228.155 114.497 228.15C114.49 228.148 114.484 228.133 114.473 228.101C114.448 227.242 114.2 226.475 113.963 225.751C113.923 225.629 113.865 225.509 113.824 225.621C113.711 225.622 113.599 225.651 113.488 225.673C111.748 225.989 110.507 224.097 109.424 221.708C109.291 221.415 109.166 221.103 109.042 220.805C108.995 221.347 108.856 221.848 108.62 222.151C108.294 222.556 107.875 222.527 107.496 222.389C106.513 222.049 105.61 221.143 104.727 220.249C104.376 219.899 104.022 219.525 103.678 219.128C103.22 218.595 102.785 218.006 102.407 217.317C102.29 217.715 102.174 218.119 102.061 218.519C101.699 219.821 101.131 221.777 101.349 223.325Z" fill="#1688C3"/>
<path d="M101.349 223.326C101.524 224.566 102.318 225.743 102.897 226.215C103.983 227.093 105.247 226.293 106.392 226.831C107.506 227.353 108.363 229.056 109.418 229.926C110.476 230.802 111.551 230.693 112.659 230.08C113.241 229.757 113.795 229.24 114.287 228.562C114.3 228.545 114.307 228.533 114.32 228.517C114.1 228.651 113.875 229.079 113.585 229.289C113.078 229.655 112.526 229.787 111.988 229.736C111.059 229.655 110.162 229.08 109.289 228.458C108.692 228.034 108.091 227.574 107.573 226.858C107.311 226.491 107.072 226.063 106.792 225.754C106.318 225.236 105.759 225.104 105.23 224.844C104.704 224.593 104.155 224.148 103.863 223.252C103.588 222.394 103.612 221.309 103.642 220.301C103.655 219.912 103.668 219.518 103.678 219.129C103.707 218.21 103.737 217.298 103.763 216.378C103.976 216.242 104.201 216.212 104.418 216.291C104.259 216.244 104.761 211.383 104.909 210.774C105.714 211.074 106.515 211.476 107.294 211.974C107.481 211.273 107.671 210.568 107.863 209.875C106.49 209.414 105.123 208.824 103.768 208.162C103.767 210.512 103.699 212.869 103.104 214.898C102.863 215.7 102.637 216.512 102.407 217.317C102.29 217.716 102.173 218.12 102.06 218.52C101.699 219.821 101.131 221.777 101.349 223.326Z" fill="#D8BEB9"/>
<path d="M102.405 217.317C102.783 218.006 103.219 218.595 103.676 219.128C104.021 219.525 104.374 219.899 104.725 220.249C105.608 221.143 106.511 222.049 107.494 222.389C107.873 222.527 108.292 222.556 108.619 222.151C108.855 221.849 108.993 221.348 109.04 220.805C108.146 218.691 107.386 216.378 106.794 213.908C106.958 213.263 107.125 212.617 107.293 211.973C107.479 211.273 107.669 210.567 107.862 209.874C106.488 209.413 105.121 208.823 103.766 208.161C103.766 210.511 103.697 212.868 103.102 214.897C102.862 215.699 102.635 216.512 102.405 217.317Z" fill="#D0836A"/>
<path opacity="0.8" d="M103.678 219.128C103.706 218.209 103.735 217.298 103.762 216.378C103.976 216.241 104.201 216.211 104.417 216.292C104.258 216.245 104.761 211.382 104.908 210.773C105.713 211.072 106.514 211.474 107.294 211.975C107.48 211.273 107.67 210.567 107.862 209.875C106.489 209.414 105.123 208.825 103.767 208.163C103.766 210.513 103.697 212.87 103.102 214.898C102.862 215.7 102.636 216.511 102.405 217.317C102.698 217.982 103.557 218.99 103.678 219.128Z" fill="#B56855"/>
<path d="M103.677 219.13C103.686 219.139 103.691 219.145 103.691 219.145" stroke="#D8BEB9" stroke-miterlimit="10"/>
<path d="M112.786 151.869C113.123 156.868 112.84 160.15 111.936 161.713C111.201 177.126 111.632 193.35 113.23 210.385L113.329 210.741C111.393 211.555 109.37 212.05 107.258 212.226C107.989 202.093 107.578 193.14 106.025 185.366L105.949 184.728C104.428 176.77 104.653 166.688 106.623 154.483C106.965 143.654 106.863 133.216 106.317 123.169L118.282 122.204L112.786 151.869Z" fill="#A01D52"/>
<path d="M105.598 141.996C105.599 146.098 105.532 150.261 105.399 154.482C103.429 166.688 103.204 176.77 104.725 184.728L104.802 185.366C106.351 193.123 106.931 201.76 106.54 211.275L112.09 210.741L112.006 210.385C110.409 193.349 109.977 177.125 110.712 161.714C111.616 160.15 111.899 156.868 111.562 151.869L116.753 120.274L105.093 123.169C105.384 128.517 105.55 133.976 105.591 139.546C105.594 140.36 105.596 141.177 105.598 141.996ZM112.971 140.57L112.886 140.837C112.886 140.797 112.886 140.763 112.886 140.733L112.971 140.57Z" fill="#C71D65"/>
<path d="M112.885 140.837C112.885 140.797 112.885 140.763 112.885 140.733L112.969 140.57L112.885 140.837Z" fill="#FAB99C"/>
<path d="M113.874 131.572C112.879 130.661 111.671 130.607 110.253 131.41C111.687 131.251 112.894 131.305 113.874 131.572ZM110.299 134.29C111.733 134.141 112.942 134.2 113.927 134.468C112.927 133.568 111.718 133.508 110.299 134.29Z" fill="#A01D52"/>
<path d="M107.228 102.265C107.232 102.258 107.236 102.25 107.24 102.243H118.598C118.625 102.921 118.661 103.618 118.705 104.334L119.125 108.121L119.005 114.557C118.901 116.555 118.689 118.599 118.37 120.691C118.21 121.729 118.026 122.774 117.818 123.827V123.084C116.956 123.022 116.201 123.587 115.554 124.779L108.57 129.961L107.563 131.866H107.552C104.916 129.589 103.443 125.105 103.131 118.413C103.083 117.438 103.063 116.415 103.071 115.347C103.087 115.083 103.107 114.819 103.131 114.556L103.179 114.115C103.419 111.73 103.914 109.313 104.664 106.866L107.228 102.265Z" fill="#9FC93B"/>
<path d="M107.395 52.1253C107.97 51.2116 108.301 50.0962 108.389 48.7795L112.702 49.1047L112.367 52.9618L117.938 62.8598C117.954 62.8598 119.164 65.3225 121.568 70.248C122.231 74.2601 121.628 77.1024 119.759 78.7756C119.855 81.4862 119.763 83.6853 119.483 85.3742L118.645 93.0645C118.589 93.8393 118.545 94.6601 118.513 95.5276C118.45 97.5223 118.478 99.7605 118.597 102.243H107.24C108.774 99.4437 109.708 96.1756 110.043 92.437C110.203 90.6562 110.207 88.6889 110.055 86.5358C109.232 83.1902 108.434 80.5954 107.659 78.7522C106.884 76.909 106.437 75.6775 106.317 75.0583L105.79 72.3861C105.095 68.6222 104.823 65.2762 104.976 62.3487C104.983 62.1165 104.995 61.884 105.011 61.6516C105.275 57.9338 106.069 54.7585 107.395 52.1253Z" fill="#FAB99C"/>
<path d="M117.914 76.3125C119.049 76.1891 119.875 75.8017 120.394 75.1509C120.913 74.5125 121.321 73.8769 121.616 73.2453C121.905 72.6165 122.14 72.0433 122.323 71.5262C122.321 71.5605 122.321 71.5914 122.323 71.6188C122.275 73.2453 121.812 75.956 120.933 79.7514C120.869 80.0298 120.802 80.3164 120.73 80.6113C120.686 80.795 120.642 80.9809 120.598 81.1688C120.159 82.0081 119.66 82.6506 119.101 83.097C118.699 83.4104 118.128 83.4488 117.387 83.2129C115.146 81.2942 113.9 78.3745 113.649 74.4536C115.359 75.8181 116.781 76.4373 117.914 76.3125Z" fill="#08233F"/>
<path d="M113.66 59.3514C112.396 59.6002 111.366 59.6389 110.569 59.4673C109.764 59.3151 109.081 59.2376 108.521 59.2352C107.952 59.2465 107.349 59.2698 106.712 59.3049C106.068 59.3543 105.545 59.2689 105.142 59.0493C104.891 60.9536 104.775 62.8976 104.795 64.8813C104.829 68.5642 105.332 72.3826 106.304 76.3358C106.478 77.0352 106.665 77.7401 106.867 78.4505C106.932 78.6247 106.996 78.7954 107.059 78.9614C108.232 82.3248 108.812 85.6622 108.797 88.9755C108.804 89.0379 108.804 89.0997 108.797 89.1614C108.757 93.266 107.794 97.3481 105.909 101.406C104.112 105.278 103.038 109.91 102.687 115.301C106.584 119.994 112.211 121.225 119.567 118.995C119.575 118.995 119.582 118.995 119.591 118.995C119.575 118.267 119.555 117.554 119.531 116.857L119.351 103.312L119.615 90.1371C119.623 89.9205 119.631 89.7189 119.639 89.533C119.735 87.2407 119.87 85.1883 120.046 83.376C120.242 82.6162 120.426 81.8805 120.597 81.1694C120.158 82.0087 119.659 82.6512 119.1 83.0976C118.698 83.411 118.127 83.4494 117.386 83.2135C115.145 81.2949 113.9 78.3751 113.649 74.4542C115.359 75.8187 116.78 76.4379 117.914 76.3131C119.048 76.189 119.874 75.8023 120.394 75.1509C120.912 74.5125 121.32 73.8775 121.616 73.2459C121.904 72.6171 122.14 72.0439 122.323 71.5262C122.295 71.3321 122.239 71.1463 122.155 70.9687C120.933 68.1187 119.255 64.928 117.123 61.3965C116.7 61.8302 116.061 61.7604 115.206 61.1871C114.688 60.6023 114.173 59.9905 113.66 59.3514ZM107.418 50.1736C107.283 50.5298 107.147 50.894 107.011 51.2656C106.758 51.9787 106.527 52.6989 106.317 53.4265C106.677 52.8838 107.128 52.45 107.67 52.1253C107.883 51.9996 108.123 51.8912 108.389 51.8C108.066 51.2674 107.742 50.7254 107.418 50.1736Z" fill="#16355A"/>
<path d="M107.671 52.1253C107.884 51.9995 108.123 51.891 108.389 51.8C108.583 51.7282 108.791 51.6662 109.013 51.6141C109.627 51.5213 110.087 51.4437 110.39 51.3819C111.196 51.1824 111.868 50.8726 112.403 50.4524L112.571 48.7563C113.473 49.2675 114.172 50.2201 114.667 51.6141C115.155 52.9928 115.526 54.4799 115.781 56.0752C115.829 56.5088 115.853 56.811 115.853 56.9813C115.869 57.3377 115.845 57.6397 115.781 57.8875C115.717 58.2128 115.578 58.4761 115.362 58.6775C115.226 58.8015 115.019 58.9253 114.739 59.0493C114.379 59.1771 114.02 59.2777 113.661 59.3515C112.397 59.6004 111.366 59.639 110.57 59.4675C109.764 59.3153 109.081 59.2377 108.521 59.2353C107.953 59.2466 107.349 59.2699 106.712 59.305C106.068 59.3544 105.545 59.269 105.143 59.0495C105.397 57.1339 105.788 55.2597 106.317 53.4268C106.677 52.8837 107.128 52.4499 107.671 52.1253Z" fill="#1688C3"/>
<path d="M114.571 18.714C114.635 19.0705 114.707 19.4498 114.786 19.8524L115.553 24.8711C116.278 31.0845 114.293 39.5495 109.599 50.2664C101.708 43.5711 101.8 30.0718 109.875 9.76868C110.753 10.0628 111.564 11.0153 112.306 12.6265C112.41 12.8434 112.51 13.0836 112.606 13.3469C112.75 13.4706 112.886 13.6411 113.013 13.858C113.468 14.5551 113.896 15.7556 114.295 17.4593L114.344 17.6918C114.415 18.0169 114.491 18.3578 114.571 18.714Z" fill="#2A130C"/>
<path d="M116.452 27.5436C116.437 27.4816 116.42 27.4197 116.404 27.3577L116.476 27.4508C116.468 27.4816 116.461 27.5128 116.452 27.5436Z" fill="#653614"/>
<path d="M116.476 27.4269V27.4501L116.404 27.3569L116.476 27.4269Z" fill="#C87A7A"/>
<path d="M112.739 48.2449C112.739 48.2604 112.735 48.2838 112.727 48.3147C112.607 49.7242 112.531 51.1571 112.499 52.6131C111.577 52.7231 110.655 52.7231 109.732 52.6131C108.809 52.5184 108.011 52.4489 107.336 52.4038C107.392 51.6758 107.511 50.3129 107.695 48.3147C107.703 48.2373 107.707 48.1598 107.707 48.0825C107.875 46.1154 107.887 44.0165 107.743 41.7858C109.117 45.0387 110.782 47.1918 112.739 48.2449Z" fill="#D0836A"/>
<path d="M107.743 41.7858C109.117 45.0387 110.782 47.1919 112.739 48.245C112.739 48.1832 112.743 48.129 112.751 48.0825C112.967 45.7745 113.282 44.2721 113.698 43.5749C113.21 43.2343 112.723 42.847 112.236 42.4132C111.525 41.7319 110.926 41.0036 110.439 40.2292C109.552 36.3876 108.594 34.25 107.563 33.8165C107.651 38.6183 107.711 41.2748 107.743 41.7858ZM109.432 41.2516C109.48 41.267 109.524 41.2903 109.564 41.3212H109.432V41.2516Z" fill="#D0836A"/>
<path d="M108.438 10.2334C107.367 10.3883 106.297 10.884 105.227 11.7203C102.599 14.4 101.713 19.5658 102.568 27.2175C103.174 32.67 105.035 35.2102 108.15 34.8387H108.162C108.162 34.854 108.162 34.8698 108.162 34.8849V34.9082C109.368 41.0576 111.848 44.3958 115.602 44.9222C116.688 45.2167 117.191 44.5427 117.111 42.9009C117.119 42.8854 117.119 42.87 117.111 42.8542C117.111 42.808 117.111 42.7691 117.111 42.738C117.104 42.5522 117.095 42.3816 117.088 42.2269C117.08 42.1031 117.064 41.9791 117.04 41.8552C116.944 41.3749 116.896 41.104 116.896 41.042C116.864 40.8098 116.884 40.5618 116.956 40.2984C116.979 40.2056 117.036 40.0507 117.123 39.8338C116.66 39.586 116.313 38.8811 116.081 37.7193L115.83 37.3475C116.037 37.5027 116.221 37.5411 116.381 37.4638C116.532 37.3862 116.752 37.2936 117.04 37.1851C117.231 37.1078 117.419 37.1078 117.603 37.1851C117.627 37.2005 117.651 37.2162 117.675 37.2316C117.618 36.3178 117.682 35.5742 117.866 35.0012C118.785 34.552 119.112 33.7851 118.848 32.7009C118.848 32.6856 118.848 32.67 118.848 32.6544C118.809 32.5772 118.769 32.4996 118.729 32.422C118.489 31.9576 118.277 31.4696 118.094 30.9583C117.695 29.936 117.419 28.9912 117.267 28.1238C117.075 27.0549 117.044 25.7771 117.171 24.29C117.203 23.9182 117.255 23.5311 117.327 23.1282C117.327 22.1678 117.271 21.1998 117.159 20.224C117.064 19.248 116.915 18.2645 116.716 17.2733C116.5 16.2665 116.225 15.4298 115.889 14.764C115.746 14.454 115.586 14.1907 115.41 13.974C115.13 13.6176 114.847 13.3 114.559 13.0213C112.515 10.8685 110.474 9.93913 108.438 10.2334ZM115.782 26.7531C115.973 26.722 116.145 26.296 116.297 25.4751C116.225 26.4356 116.053 26.9467 115.782 27.0087C115.885 28.0464 115.885 28.9914 115.782 29.8434V30.1685C114.967 30.7727 114.021 30.3156 112.943 28.7976L112.391 28.054C112.567 28.2709 112.727 28.364 112.87 28.3329C113.573 26.3656 114.484 25.4983 115.602 25.7307C115.754 26.0098 115.813 26.3505 115.782 26.7531ZM117.747 34.6529C117.395 34.7149 117.195 34.6376 117.147 34.4207C117.1 34.1882 117.299 34.2656 117.747 34.6529ZM117.147 34.8851C116.532 34.9471 116.428 34.2887 116.836 32.9102C116.628 33.9635 116.732 34.622 117.147 34.8851Z" fill="#D0836A"/>
<path d="M117.147 34.8851C116.532 34.9471 116.428 34.2886 116.835 32.9102C116.628 33.9635 116.732 34.622 117.147 34.8851Z" fill="#D0836A"/>
<path d="M117.146 34.4205C117.099 34.1883 117.299 34.2657 117.746 34.6528C117.394 34.7148 117.195 34.6374 117.146 34.4205Z" fill="#D26C6B"/>
<path d="M119.129 84.0747L105.623 97.6786L105.565 101.325C105.621 104.453 104.929 106.049 105.035 111.168C105.168 111.02 105.293 110.828 105.386 110.586C105.386 110.586 105.737 119.081 106.123 118.752C106.51 118.422 106.828 111.313 107.166 110.586C107.166 110.586 107.309 112.001 107.547 112.824C107.785 113.649 111.732 111.014 112.434 109.696C112.434 109.696 113.067 114.149 113.28 114.228C113.493 114.305 114.92 109.143 115.448 103.643C115.448 103.643 116.045 108.544 116.257 108.544C116.47 108.544 117.253 101.586 117.253 101.586C117.253 101.586 118.335 104.297 118.994 105.212C119.053 99.0507 119.094 91.6333 119.129 84.0747Z" fill="#08233F"/>
<path d="M101.577 152.805C102.794 155.959 104.95 157.666 108.046 157.928L108.154 156.25C108.024 156.246 107.338 156.028 106.094 155.597C104.576 155.07 103.065 153.6 101.562 151.187C101.566 151.721 101.571 152.261 101.577 152.805ZM116.774 156.086C114.627 157.044 112.455 157.302 110.259 156.859V158.744C113.486 160.287 116.566 159.209 119.499 155.507C119.51 155.025 119.52 154.535 119.53 154.038C119.334 154.28 119.125 154.502 118.902 154.705C118.326 155.24 117.616 155.7 116.774 156.086Z" fill="#52B750"/>
<path d="M103.056 111.528H119.47C119.738 127.958 119.759 142.128 119.532 154.037C119.335 154.279 119.126 154.502 118.904 154.705C118.327 155.24 117.618 155.7 116.776 156.086C114.628 157.044 112.457 157.301 110.26 156.858V122.1L108.155 156.22V156.25C108.026 156.245 107.339 156.028 106.095 155.597C104.577 155.069 103.067 153.6 101.563 151.187C101.381 132.128 101.879 118.909 103.056 111.528Z" fill="#52B750"/>
<path d="M121.604 214.004C121.584 214.067 121.564 214.123 121.544 214.179C121.472 214.376 121.387 214.557 121.307 214.73C121.279 214.8 121.247 214.862 121.215 214.933C121.156 215.051 121.094 215.169 121.026 215.279C120.998 215.327 120.97 215.376 120.939 215.418C120.863 215.527 120.788 215.637 120.706 215.733C120.566 215.903 120.418 216.052 120.266 216.178C120.24 216.206 120.212 216.226 120.185 216.245C120.174 216.259 120.162 216.265 120.152 216.272C120.307 216.01 120.462 215.739 120.594 215.418C120.608 215.384 120.625 215.341 120.639 215.299C120.728 215.061 120.775 214.834 120.827 214.544C120.845 214.444 120.862 214.345 120.867 214.238C120.872 214.146 120.865 214.052 120.858 213.966C120.824 213.478 120.767 213.288 120.598 213.084C119.372 211.585 117.994 211.059 116.633 211.035C116.545 211.038 116.457 211.032 116.37 211.04C115.257 211.067 114.146 211.387 113.037 211.701C112.874 211.748 112.714 211.797 112.552 211.835C111.829 212.037 111.104 212.208 110.378 212.342C109.284 212.549 108.187 212.677 107.094 212.669C105.557 212.663 104.029 212.399 102.519 211.764C102.194 211.631 101.848 211.273 101.565 210.776C101.538 210.733 101.509 210.681 101.482 210.636C101.439 210.555 101.4 210.473 101.36 210.385C101.328 209.639 101.313 208.994 101.582 208.701C102.093 208.145 102.464 207.236 102.748 206.144C103.028 205.065 103.227 203.81 103.395 202.553C103.798 199.483 103.903 196.197 103.819 192.998C103.694 188.15 103.167 183.471 102.728 178.764C102.524 176.596 102.342 174.408 102.173 172.214C102.141 171.805 102.11 171.387 102.081 170.977C101.102 157.487 100.922 143.846 101.7 130.196C101.728 129.701 101.743 128.031 101.784 127.539C102.256 128.936 103.285 131.191 103.798 132.089C104.671 133.622 105.636 134.804 106.647 135.573C108.687 137.135 110.933 136.976 112.908 134.624C113.848 133.499 114.724 132.012 115.546 130.35C116.275 128.883 118.767 128.182 119.604 127.201C119.756 127.819 119.617 129.394 119.68 130.097C120.816 142.677 121.47 154.855 121.003 168.825C120.834 173.97 120.501 179.155 120.241 184.287C119.824 192.56 120.256 201.078 121.485 208.712C121.631 209.601 121.786 210.499 121.837 211.469C121.883 212.346 121.83 213.3 121.604 214.004Z" fill="#16355A"/>
<path d="M123.261 126.603L123.251 126.589L123.262 126.552L123.261 126.603Z" fill="#D0836A"/>
<path d="M123.285 126.471C123.278 126.493 123.278 126.509 123.284 126.518C123.295 126.547 123.304 126.565 123.311 126.574C123.336 126.651 123.362 126.723 123.39 126.789L124.022 128.516C123.806 127.777 123.565 127.094 123.301 126.468C123.298 126.479 123.292 126.479 123.285 126.471ZM125.501 128.213C125.417 128.015 125.34 127.825 125.269 127.643C125.192 127.484 125.116 127.319 125.041 127.148C124.968 126.977 124.872 126.796 124.754 126.603L125.501 128.213Z" fill="#D0836A"/>
<path d="M123.886 131.412C123.876 131.383 123.86 131.356 123.838 131.329C123.8 131.233 123.756 131.124 123.706 130.999C123.717 131.028 123.731 131.077 123.749 131.146C123.78 131.233 123.815 131.324 123.854 131.419C123.864 131.51 123.885 131.583 123.917 131.639C123.906 131.579 123.897 131.503 123.886 131.412ZM123.369 124.319C123.358 124.29 123.346 124.266 123.332 124.249C123.325 124.24 123.314 124.211 123.3 124.162C123.286 124.144 123.272 124.127 123.258 124.109L121.507 121.639C121.518 121.637 121.522 121.626 121.519 121.607C121.515 121.587 121.51 121.572 121.503 121.563L121.412 121.426C121.07 120.968 120.735 120.447 120.405 119.862C120.219 119.54 120.018 119.115 119.801 118.588L119.216 117.077L119.17 117.304L117.17 119.199L117.122 119.116L117.104 119.213C117.632 120.564 118.1 122.139 118.507 123.939L119.42 127.323L119.462 127.423C119.483 127.48 119.493 127.541 119.493 127.602L119.503 127.616L119.519 127.659C119.544 127.706 119.612 127.879 119.725 128.176L120.026 128.907C120.206 129.336 120.422 129.865 120.675 130.497C121.274 131.938 122.021 133.312 122.917 134.619C123.138 134.926 123.36 135.228 123.585 135.523C123.599 135.542 123.617 135.564 123.638 135.59L123.649 135.603C123.657 135.581 123.659 135.544 123.655 135.494C123.66 135.42 123.641 135.311 123.599 135.163L123.61 135.13C123.589 135.073 123.567 135.02 123.542 134.973C123.471 134.822 123.393 134.678 123.308 134.54L123.303 134.51C123.235 134.379 123.166 134.237 123.096 134.087C123.018 133.957 122.936 133.808 122.851 133.639C122.837 133.622 122.823 133.604 122.809 133.587C122.731 133.426 122.648 133.251 122.56 133.063C122.549 133.034 122.535 133 122.517 132.963C122.439 132.834 122.368 132.698 122.305 132.555C122.273 132.5 122.241 132.445 122.209 132.389C122.192 132.351 122.167 132.304 122.135 132.249L120.467 128.678L122.135 132.249C122.167 132.304 122.191 132.351 122.209 132.389C122.241 132.445 122.273 132.5 122.305 132.555C122.368 132.698 122.439 132.834 122.517 132.963C122.535 133.001 122.549 133.034 122.56 133.063C122.648 133.251 122.731 133.426 122.809 133.587C122.823 133.604 122.837 133.622 122.851 133.639C122.936 133.808 123.018 133.957 123.096 134.087C123.167 134.237 123.235 134.379 123.303 134.51L123.308 134.54C123.393 134.678 123.471 134.822 123.542 134.973C123.556 134.992 123.57 135.009 123.584 135.027C123.606 135.053 123.629 135.09 123.654 135.136C123.717 135.248 123.774 135.35 123.824 135.444C124.168 136.015 124.413 136.338 124.561 136.411L124.577 136.408C124.584 136.417 124.589 136.416 124.593 136.404C124.597 136.362 124.592 136.332 124.578 136.314C124.572 136.181 124.54 136.007 124.48 135.791C124.477 135.771 124.477 135.756 124.481 135.745C124.446 135.638 124.4 135.503 124.344 135.338C124.284 135.185 124.227 135.026 124.17 134.861C124.153 134.823 124.137 134.78 124.123 134.731C124.052 134.642 123.988 134.531 123.931 134.398C123.911 134.34 123.888 134.272 123.863 134.194C123.821 134.079 123.783 133.936 123.749 133.767C123.674 133.596 123.6 133.425 123.527 133.254C123.498 133.187 123.472 133.115 123.447 133.037C123.268 132.577 123.09 132.111 122.915 131.64C122.858 131.507 122.804 131.368 122.752 131.223C122.744 131.215 122.739 131.2 122.736 131.18C122.669 131.018 122.602 130.84 122.535 130.647C122.307 130.031 122.068 129.402 121.818 128.76L121.609 128.119L121.818 128.76C122.068 129.402 122.307 130.031 122.535 130.647C122.602 130.84 122.669 131.018 122.736 131.18C122.739 131.2 122.744 131.215 122.752 131.223C122.804 131.368 122.858 131.507 122.915 131.64C123.09 132.111 123.268 132.577 123.447 133.037C123.472 133.115 123.498 133.187 123.527 133.254C123.6 133.425 123.674 133.596 123.749 133.767C123.783 133.936 123.821 134.078 123.863 134.194C123.887 134.272 123.91 134.34 123.931 134.398C123.988 134.531 124.052 134.642 124.123 134.731C124.137 134.78 124.153 134.823 124.17 134.861C124.227 135.026 124.284 135.185 124.344 135.338C124.415 135.489 124.485 135.656 124.555 135.838C124.739 136.319 124.932 136.796 125.136 137.272C125.165 137.276 125.192 137.271 125.218 137.255C125.25 137.249 125.272 137.229 125.283 137.196C125.302 137.171 125.313 137.138 125.316 137.095C125.355 136.954 125.337 136.704 125.265 136.346C125.189 135.999 125.102 135.655 125.005 135.313C124.897 134.91 124.78 134.505 124.654 134.096C124.631 133.925 124.589 133.763 124.53 133.609C124.341 132.996 124.138 132.35 123.922 131.669L123.917 131.639C123.884 131.584 123.864 131.51 123.854 131.419C123.815 131.324 123.78 131.233 123.749 131.146C123.731 131.077 123.717 131.028 123.706 130.999L122.614 128.288L123.706 130.999C123.756 131.124 123.8 131.234 123.838 131.329C123.86 131.356 123.876 131.383 123.886 131.413C123.911 131.459 123.929 131.513 123.939 131.573C124.144 132.049 124.329 132.461 124.495 132.81C124.551 132.943 124.6 133.068 124.643 133.183C124.84 133.619 125.017 134.012 125.172 134.364C125.732 135.615 126.038 136.225 126.089 136.194C126.103 136.212 126.116 136.22 126.127 136.218C126.138 136.216 126.144 136.199 126.144 136.168C126.169 136.121 126.186 136.072 126.194 136.018C126.22 135.578 125.935 134.483 125.34 132.732C125.309 132.614 125.268 132.492 125.219 132.368C125.005 131.77 124.779 131.164 124.54 130.551L124.05 129.16L123.419 127.427C123.39 127.36 123.364 127.288 123.339 127.211C123.332 127.202 123.323 127.183 123.313 127.154C123.306 127.145 123.306 127.13 123.313 127.107C123.307 127.098 123.297 127.079 123.287 127.05C123.28 127.042 123.272 127.033 123.265 127.024L123.255 127.011L123.266 126.978L123.256 126.965C123.231 126.824 123.213 126.714 123.199 126.634C123.162 126.383 123.173 126.169 123.233 125.992C123.173 126.169 123.162 126.383 123.199 126.634C123.213 126.714 123.232 126.824 123.256 126.965L123.266 126.978L123.265 127.024C123.273 127.033 123.28 127.042 123.287 127.05C123.297 127.08 123.307 127.098 123.313 127.107C123.32 127.116 123.326 127.115 123.33 127.105C123.649 127.298 124.12 127.988 124.743 129.176C124.775 129.232 124.803 129.282 124.828 129.329C124.895 129.461 124.964 129.601 125.035 129.753C125.442 130.559 125.817 131.084 126.161 131.324C126.203 131.377 126.243 131.411 126.279 131.424C126.297 131.431 126.309 131.439 126.317 131.447C126.521 131.53 126.649 131.54 126.7 131.479C126.726 131.463 126.735 131.42 126.729 131.348C126.729 131.318 126.726 131.298 126.719 131.289C126.323 130.51 125.969 129.801 125.658 129.161L125.531 128.861L124.784 127.244C124.696 127.024 124.608 126.804 124.52 126.583C124.423 126.332 124.312 126.075 124.187 125.813L123.433 124.399L123.369 124.319Z" fill="#D0836A"/>
<path d="M124.525 125.728C124.428 125.482 124.317 125.23 124.191 124.974C124.33 125.245 124.452 125.51 124.558 125.767C124.631 125.965 124.709 126.168 124.79 126.375C124.702 126.159 124.614 125.944 124.525 125.728Z" fill="#D0836A"/>
<path d="M125.199 137.26C125.223 137.25 125.24 137.231 125.249 137.202C125.269 137.177 125.28 137.141 125.285 137.098C125.322 136.956 125.305 136.699 125.232 136.338C125.157 135.989 125.069 135.64 124.972 135.298C124.865 134.897 124.747 134.486 124.622 134.078C124.599 133.906 124.556 133.74 124.496 133.585C124.305 132.961 124.101 132.305 123.889 131.64L123.884 131.611C123.884 131.61 123.884 131.608 123.883 131.607C123.883 131.606 123.882 131.604 123.882 131.604C123.851 131.55 123.831 131.479 123.822 131.392C123.821 131.39 123.821 131.387 123.82 131.386C123.784 131.296 123.751 131.21 123.722 131.13C123.748 131.196 123.772 131.255 123.793 131.308C123.794 131.309 123.795 131.311 123.795 131.312C123.816 131.337 123.831 131.364 123.84 131.391C123.865 131.438 123.882 131.49 123.892 131.547C123.892 131.549 123.893 131.551 123.894 131.553C124.098 132.031 124.285 132.45 124.45 132.796C124.505 132.929 124.555 133.055 124.597 133.17C124.795 133.609 124.973 134.008 125.127 134.358C125.858 135.998 126.009 136.212 126.05 136.206C126.064 136.223 126.078 136.231 126.09 136.228C126.104 136.224 126.111 136.207 126.112 136.172C126.138 136.125 126.155 136.074 126.163 136.02C126.189 135.577 125.902 134.463 125.308 132.708C125.276 132.591 125.236 132.467 125.186 132.343C124.975 131.748 124.746 131.133 124.507 130.517L124.017 129.121L123.386 127.378C123.358 127.312 123.331 127.239 123.307 127.161C123.306 127.159 123.305 127.157 123.304 127.156C123.3 127.151 123.292 127.137 123.28 127.104C123.28 127.103 123.279 127.1 123.278 127.099C123.277 127.096 123.276 127.091 123.279 127.081C123.285 127.084 123.29 127.083 123.294 127.076C123.611 127.273 124.083 127.972 124.699 129.152C124.732 129.21 124.761 129.26 124.785 129.306C124.852 129.439 124.921 129.581 124.991 129.731C125.397 130.541 125.776 131.073 126.121 131.317C126.164 131.371 126.204 131.405 126.241 131.419C126.262 131.427 126.271 131.435 126.275 131.44C126.276 131.442 126.278 131.443 126.279 131.443C126.487 131.528 126.615 131.538 126.668 131.474C126.695 131.458 126.706 131.409 126.699 131.333C126.699 131.299 126.695 131.276 126.686 131.263C126.29 130.481 125.933 129.762 125.626 129.125L125.499 128.825L124.752 127.199C124.672 126.988 124.594 126.778 124.521 126.577C124.417 126.314 124.294 126.039 124.155 125.761C124.154 125.76 124.154 125.76 124.154 125.759L123.4 124.338L123.336 124.257C123.325 124.228 123.312 124.204 123.297 124.186C123.295 124.182 123.287 124.167 123.269 124.105C123.268 124.102 123.267 124.1 123.266 124.098L123.223 124.044L121.472 121.561C121.469 121.556 121.464 121.556 121.462 121.562C121.46 121.567 121.461 121.576 121.464 121.581L123.215 124.065L123.256 124.117C123.275 124.183 123.285 124.2 123.29 124.207C123.303 124.223 123.315 124.245 123.325 124.272C123.325 124.274 123.326 124.276 123.327 124.277L123.392 124.358L124.144 125.777L124.145 125.778C124.268 126.038 124.38 126.298 124.477 126.549L124.741 127.213C124.741 127.214 124.741 127.214 124.741 127.215L125.488 128.839L125.615 129.14C125.923 129.778 126.28 130.498 126.676 131.281C126.677 131.281 126.677 131.282 126.678 131.283C126.679 131.285 126.684 131.294 126.684 131.329C126.69 131.397 126.682 131.436 126.659 131.449C126.609 131.51 126.482 131.499 126.281 131.418C126.272 131.408 126.259 131.4 126.241 131.394C126.207 131.38 126.168 131.347 126.127 131.295C126.126 131.294 126.126 131.294 126.125 131.293C125.783 131.052 125.406 130.522 125.002 129.717C124.933 129.567 124.863 129.424 124.795 129.291C124.77 129.244 124.742 129.193 124.709 129.136C124.088 127.946 123.611 127.243 123.292 127.048C123.289 127.046 123.286 127.047 123.284 127.052C123.283 127.057 123.282 127.057 123.278 127.053C123.274 127.048 123.267 127.035 123.254 127C123.253 126.999 123.252 126.997 123.251 126.996L123.234 126.974L123.235 126.935C123.235 126.93 123.233 126.926 123.231 126.922L123.223 126.912C123.2 126.777 123.182 126.67 123.168 126.592L123.168 126.587C123.131 126.34 123.142 126.126 123.201 125.952C123.203 125.946 123.201 125.937 123.198 125.932C123.194 125.928 123.189 125.929 123.187 125.935C123.127 126.115 123.115 126.335 123.153 126.589L123.154 126.594C123.167 126.675 123.186 126.783 123.209 126.921C123.21 126.924 123.211 126.928 123.213 126.93L123.219 126.938V126.977C123.219 126.982 123.221 126.987 123.223 126.99L123.243 127.015C123.251 127.037 123.258 127.054 123.265 127.066C123.261 127.079 123.26 127.091 123.262 127.101C123.263 127.108 123.266 127.114 123.268 127.119C123.279 127.146 123.287 127.165 123.295 127.176C123.319 127.253 123.346 127.326 123.374 127.392L124.005 129.133L124.494 130.529C124.733 131.146 124.962 131.761 125.174 132.355C125.223 132.479 125.263 132.601 125.294 132.718C125.886 134.468 126.173 135.576 126.147 136.011C126.14 136.061 126.124 136.109 126.099 136.155C126.098 136.157 126.097 136.159 126.097 136.162C126.097 136.199 126.089 136.201 126.085 136.201C126.077 136.203 126.066 136.196 126.054 136.181C126.051 136.178 126.049 136.177 126.046 136.179C126.046 136.179 126.046 136.179 126.046 136.179C126.017 136.191 125.86 135.963 125.138 134.344C124.984 133.995 124.806 133.595 124.609 133.158C124.567 133.044 124.518 132.917 124.461 132.783C124.297 132.437 124.11 132.019 123.906 131.542C123.895 131.48 123.877 131.425 123.852 131.377C123.842 131.35 123.826 131.321 123.804 131.293C123.767 131.202 123.725 131.095 123.673 130.964L122.58 128.239C122.577 128.233 122.572 128.231 122.569 128.234C122.566 128.237 122.565 128.246 122.568 128.252L123.661 130.976C123.671 131.004 123.685 131.052 123.702 131.121C123.733 131.208 123.769 131.3 123.807 131.396C123.817 131.486 123.839 131.562 123.87 131.619L123.875 131.645C123.875 131.646 123.875 131.647 123.875 131.648C124.087 132.315 124.292 132.97 124.483 133.597C124.543 133.751 124.585 133.912 124.608 134.082C124.608 134.083 124.608 134.084 124.609 134.086C124.734 134.494 124.851 134.905 124.959 135.307C125.055 135.648 125.143 135.996 125.218 136.343C125.289 136.697 125.307 136.947 125.27 137.085C125.266 137.128 125.255 137.159 125.238 137.182C125.238 137.183 125.237 137.183 125.237 137.185C125.226 137.215 125.206 137.233 125.176 137.239C125.151 137.254 125.126 137.259 125.1 137.256C124.897 136.783 124.703 136.3 124.522 135.822C124.452 135.64 124.38 135.47 124.31 135.318C124.251 135.167 124.192 135.005 124.137 134.842C124.119 134.802 124.103 134.76 124.09 134.712C124.089 134.709 124.088 134.707 124.087 134.705C124.017 134.617 123.953 134.506 123.897 134.374C123.877 134.318 123.855 134.251 123.83 134.172C123.788 134.056 123.75 133.913 123.716 133.745C123.715 133.744 123.715 133.742 123.714 133.741C123.64 133.569 123.566 133.397 123.492 133.225C123.465 133.159 123.438 133.087 123.414 133.009C123.235 132.547 123.056 132.075 122.881 131.604C122.825 131.469 122.769 131.329 122.717 131.186C122.717 131.184 122.716 131.182 122.715 131.18C122.71 131.174 122.705 131.163 122.703 131.146C122.702 131.145 122.702 131.143 122.701 131.141C122.635 130.98 122.568 130.801 122.501 130.607C122.275 129.994 122.034 129.355 121.784 128.71L121.575 128.068C121.573 128.06 121.568 128.057 121.564 128.06C121.56 128.063 121.559 128.071 121.562 128.077L121.771 128.721C122.022 129.367 122.263 130.004 122.489 130.617C122.555 130.811 122.622 130.991 122.688 131.152C122.692 131.173 122.698 131.189 122.706 131.2C122.758 131.342 122.812 131.483 122.869 131.617C123.043 132.087 123.223 132.559 123.401 133.02C123.425 133.097 123.452 133.171 123.48 133.238C123.554 133.41 123.628 133.58 123.702 133.753C123.736 133.921 123.774 134.066 123.817 134.182C123.842 134.261 123.864 134.329 123.885 134.386C123.942 134.521 124.006 134.634 124.077 134.724C124.091 134.772 124.107 134.816 124.125 134.854C124.179 135.016 124.238 135.178 124.298 135.331C124.351 135.487 124.396 135.622 124.432 135.732C124.429 135.745 124.43 135.762 124.433 135.782C124.492 135.998 124.524 136.173 124.53 136.304C124.53 136.309 124.532 136.314 124.534 136.316C124.538 136.321 124.55 136.337 124.545 136.389C124.545 136.391 124.544 136.392 124.543 136.392C124.543 136.392 124.542 136.391 124.541 136.389C124.539 136.387 124.536 136.386 124.534 136.386L124.52 136.389C124.374 136.314 124.128 135.989 123.788 135.42C123.739 135.327 123.681 135.223 123.618 135.112C123.592 135.064 123.569 135.027 123.547 134.999C123.533 134.982 123.519 134.965 123.505 134.947C123.435 134.797 123.357 134.652 123.273 134.514L123.269 134.489C123.269 134.486 123.268 134.484 123.267 134.482C123.2 134.349 123.13 134.206 123.061 134.057C122.981 133.926 122.9 133.775 122.816 133.607C122.815 133.606 122.815 133.605 122.814 133.604C122.8 133.587 122.786 133.57 122.772 133.552C122.695 133.392 122.611 133.216 122.524 133.028C122.514 133 122.499 132.965 122.482 132.927C122.403 132.797 122.332 132.66 122.27 132.519C122.237 132.461 122.205 132.405 122.173 132.349C122.156 132.313 122.13 132.265 122.099 132.209L120.43 128.62C120.428 128.614 120.423 128.612 120.42 128.616C120.416 128.621 120.416 128.629 120.419 128.635L122.088 132.225C122.121 132.282 122.145 132.328 122.163 132.365C122.195 132.423 122.227 132.479 122.259 132.535C122.321 132.676 122.393 132.815 122.472 132.944C122.488 132.979 122.501 133.012 122.512 133.042C122.601 133.231 122.685 133.408 122.762 133.57C122.762 133.571 122.763 133.572 122.764 133.572C122.778 133.59 122.792 133.607 122.806 133.625C122.89 133.793 122.972 133.944 123.05 134.074C123.118 134.221 123.187 134.363 123.255 134.495L123.259 134.522C123.26 134.525 123.261 134.528 123.263 134.53C123.347 134.667 123.425 134.813 123.495 134.964C123.495 134.964 123.495 134.964 123.495 134.965C123.519 135.009 123.54 135.058 123.56 135.112L123.552 135.139C123.55 135.143 123.55 135.147 123.552 135.151C123.592 135.295 123.611 135.404 123.606 135.475C123.609 135.518 123.608 135.548 123.604 135.569L123.575 135.532C123.564 135.52 123.555 135.507 123.547 135.498C123.324 135.202 123.099 134.895 122.88 134.588C121.989 133.28 121.235 131.887 120.639 130.447C120.387 129.817 120.169 129.28 119.989 128.849L119.688 128.115C119.575 127.813 119.507 127.642 119.482 127.595L119.467 127.553C119.466 127.552 119.466 127.55 119.464 127.549L119.458 127.541C119.458 127.478 119.447 127.417 119.426 127.36L119.383 127.258L118.471 123.863C118.47 123.856 118.466 123.852 118.462 123.853C118.462 123.853 118.462 123.854 118.461 123.854C118.458 123.856 118.456 123.863 118.458 123.87L119.371 127.268L119.414 127.372C119.433 127.426 119.443 127.484 119.442 127.543C119.442 127.548 119.444 127.554 119.447 127.556L119.456 127.568L119.471 127.609C119.496 127.657 119.565 127.831 119.677 128.128L119.978 128.863C120.157 129.293 120.376 129.831 120.627 130.46C121.224 131.903 121.979 133.299 122.872 134.609C123.091 134.916 123.316 135.222 123.54 135.52C123.548 135.53 123.557 135.542 123.568 135.555L123.604 135.601C123.608 135.605 123.613 135.605 123.615 135.598C123.623 135.574 123.625 135.535 123.622 135.481C123.627 135.408 123.609 135.299 123.567 135.151L123.576 135.123C123.578 135.119 123.577 135.114 123.576 135.11C123.565 135.079 123.553 135.051 123.542 135.024C123.562 135.05 123.583 135.084 123.608 135.13C123.671 135.242 123.729 135.346 123.778 135.439C124.122 136.014 124.372 136.343 124.52 136.417C124.521 136.417 124.522 136.418 124.523 136.417L124.536 136.415C124.541 136.419 124.544 136.421 124.548 136.42C124.552 136.419 124.557 136.415 124.56 136.406C124.56 136.405 124.561 136.404 124.561 136.402C124.565 136.358 124.56 136.324 124.545 136.301C124.539 136.167 124.505 135.991 124.447 135.778C124.445 135.764 124.445 135.752 124.448 135.744C124.449 135.74 124.449 135.735 124.447 135.73C124.423 135.657 124.395 135.573 124.364 135.479C124.412 135.59 124.461 135.71 124.509 135.835C124.691 136.315 124.887 136.801 125.091 137.276C125.093 137.281 125.095 137.283 125.097 137.283C125.127 137.288 125.155 137.283 125.181 137.267C125.187 137.263 125.194 137.262 125.199 137.26Z" fill="#D0836A"/>
<path d="M125.855 134.949C125.973 135.288 126.054 135.573 126.099 135.802C126.023 135.963 125.952 135.994 125.886 135.893C125.832 135.79 125.703 135.436 125.498 134.83C125.623 134.558 125.742 134.597 125.855 134.949Z" fill="#D0836A"/>
<path d="M124.991 136.504C125.108 136.845 125.187 137.13 125.231 137.36C125.153 137.52 125.082 137.549 125.017 137.447C124.963 137.343 124.836 136.987 124.634 136.378C124.76 136.109 124.88 136.151 124.991 136.504Z" fill="#D0836A"/>
<path d="M124.152 135.842C124.3 136.143 124.408 136.401 124.475 136.617C124.422 136.809 124.36 136.867 124.288 136.789C124.227 136.705 124.066 136.394 123.808 135.856C123.892 135.533 124.007 135.529 124.152 135.842Z" fill="#D0836A"/>
<path d="M123.224 135.246C123.38 135.491 123.495 135.697 123.57 135.865C123.53 135.992 123.472 136.02 123.4 135.949C123.336 135.876 123.168 135.621 122.895 135.184C122.96 134.971 123.07 134.992 123.224 135.246Z" fill="#D0836A"/>
<path d="M125.918 129.335C125.955 128.834 126.041 128.769 126.174 129.141C126.296 129.514 126.492 130.002 126.76 130.604C126.615 130.629 126.505 130.604 126.431 130.529C126.347 130.435 126.176 130.037 125.918 129.335Z" fill="#D0836A"/>
<path d="M114.479 93.9155C114.622 94.6753 114.757 95.396 114.885 96.0776C113.88 96.2044 112.88 96.6543 111.884 97.4278C111.404 97.7967 111.02 98.2218 110.731 98.7025C110.575 98.0566 110.433 97.423 110.306 96.7996C110.456 96.561 110.628 96.334 110.821 96.1194C111.171 95.7347 111.686 95.3151 112.367 94.8604C112.98 94.4634 113.492 94.1919 113.903 94.0465C114.102 93.9841 114.294 93.9409 114.479 93.9155Z" fill="#C71D65"/>
<path d="M114.886 96.0774C115.387 98.7434 115.797 100.929 116.116 102.634C116.698 105.813 117.227 108.377 117.703 110.325C118.336 112.951 118.965 115.295 119.59 117.356L117.46 120.406C114.339 111.73 112.096 104.495 110.732 98.7016C111.021 98.2216 111.405 97.7965 111.885 97.4276C112.881 96.6541 113.881 96.2042 114.886 96.0774Z" fill="#D0836A"/>
<path d="M107.818 80.7546C106.611 74.3034 105.834 68.3888 105.486 63.0106C107.142 59.7537 108.787 59.4201 110.422 62.0099C111.473 68.3086 112.186 73.7281 112.56 78.2689L113.398 88.2158C113.791 90.2894 114.152 92.1889 114.48 93.9155C114.295 93.9409 114.103 93.9841 113.905 94.0465C113.493 94.1918 112.981 94.4634 112.368 94.8604C111.687 95.315 111.172 95.7347 110.822 96.1201C110.629 96.334 110.457 96.561 110.307 96.8003C109.749 94.222 109.391 91.9626 109.231 90.0227L107.818 80.7546Z" fill="#1688C3"/>
<path d="M108.406 27.7997C108.406 27.7997 108.73 29.5476 109.035 26.7607C109.816 19.6904 115.492 24.0702 117.29 20.0311L116.687 11.9896C116.687 11.9896 116.932 10.3473 115.397 10.3473C111.203 10.3473 107.137 12.8513 108.18 27.3733C108.18 27.3733 108.18 27.3733 108.406 27.7997Z" fill="#2B1116"/>
<path d="M116.831 19.0886L116.428 13.7206C116.166 15.013 115.542 16.1008 114.25 16.3843C111.883 16.9048 108.906 20.1351 108.906 20.1351C109.509 15.3421 111.242 12.0464 112.631 10.0884C109.414 11.1326 106.901 15.0046 107.747 26.7806C107.747 26.7806 107.747 26.7806 107.972 27.207C107.972 27.207 108.297 28.9548 108.602 26.1679C109.354 19.3539 114.653 23.1732 116.646 19.8448C116.713 19.6024 116.774 19.3495 116.831 19.0886Z" fill="#2B1116"/>
<path d="M122.744 70.444C121.318 66.1975 118.129 59.7245 117.957 59.185C117.782 58.6468 114.392 50.8888 114.392 50.8888C113.283 51.5876 111.929 51.8484 110.775 51.9537C109.476 52.0726 108.431 51.9945 108.274 52.1248C108.274 52.1248 108.484 49.8021 107.419 50.1732C106.165 50.6097 104.408 61.5537 104.408 66.905C104.408 72.2536 103.601 89.954 103.05 92.4205C103.05 92.4205 104.069 94.3974 105.724 94.8925C105.724 94.8925 105.214 99.0075 105.511 99.6657C105.809 100.324 116.444 100.761 122.366 92.3656" fill="#1688C3"/>
<path d="M122.334 92.413C122.345 92.3973 122.356 92.3815 122.368 92.3657L122.334 92.413Z" fill="#126A8D"/>
<path d="M122.263 86.7091C115.543 94.2431 109.448 95.3676 105.59 96.1274C105.464 97.396 105.322 99.2426 105.513 99.6657C105.809 100.323 116.405 100.759 122.334 92.4129" fill="#126A8D"/>
<path d="M115.156 80.5187C111.038 71.9376 110.509 61.8248 110.55 56.6533C110.254 56.8962 110.011 57.0966 109.856 57.2279C108.495 78.6713 115.156 80.5187 115.156 80.5187Z" fill="#126A8D"/>
<path d="M112.165 55.048C112.165 55.048 113.9 74.0839 118.059 75.6761C118.059 75.6761 112.866 78.445 112.165 55.048Z" fill="#126A8D"/>
<path d="M114.427 54.7902L111.286 50.1975L112.458 49.9506L112.636 48.6173L114.427 54.7902Z" fill="#D0836A"/>
<path d="M105.651 34.4043C105.651 34.4043 104.042 39.6505 106.549 46.3318C109.055 53.0147 108.424 37.8145 108.424 37.8145" fill="#2B1116"/>
<path d="M103.527 32.6842C103.527 32.6842 104.243 34.6409 104.284 31.0051C104.394 21.7777 113.183 23.6311 115.191 17.5115L113.171 7.95196C113.171 7.95196 113.288 5.76841 111.081 6.7313C105.049 9.36152 99.5599 15.0062 103.142 32.2987C103.142 32.2987 103.142 32.2987 103.527 32.6842Z" fill="#2B1116"/>
<path d="M117.389 19.0045C117.389 19.0045 116.927 20.7938 115.97 18.7992C115.157 17.1054 114.264 15.9621 113.475 13.4337L108.224 9.49917C108.224 9.49917 108.312 7.68339 109.817 7.25921C111.47 6.79297 117.613 5.66652 117.667 18.5009C117.667 18.5007 117.667 18.5007 117.389 19.0045Z" fill="#2B1116"/>
<path d="M115.612 17.1945L114.263 10.8131C114.072 12.5745 113.331 14.31 111.512 15.4711C108.184 17.5982 104.365 23.4576 104.365 23.4576C104.546 17.1562 106.566 11.9962 108.283 8.70532C103.806 12.0133 100.746 18.3749 103.65 32.3973C103.65 32.3973 103.65 32.3973 104.036 32.7829C104.036 32.7829 104.752 34.7396 104.792 31.1038C104.898 22.2111 113.065 23.608 115.455 18.2446C115.516 17.9031 115.568 17.5522 115.612 17.1945Z" fill="#2B1116"/>
<path d="M109.059 38.4443L108.842 36.5926C108.842 36.5926 108.587 36.9877 108.218 36.1234C108.218 36.1234 108.066 35.4814 108.32 34.9877L107.531 33.9752L107.162 32.5925L106.945 30.5926L107.314 28.3703L107.607 28.2221L107.798 27.4319L108.651 29.975L108.906 30.4441C108.906 30.4441 109.122 31.1848 109.135 31.259C109.148 31.333 109.352 31.0861 109.352 31.0861L109.543 30.617C109.543 30.617 109.39 29.5552 109.364 29.4812C109.339 29.4072 109.16 28.7405 109.16 28.7405L108.995 28.543L108.855 27.7776C108.855 27.7776 108.766 27.2592 108.74 27.185C108.715 27.111 108.422 26.2961 108.422 26.2961L108.155 25.6048L108.002 25.1603C108.002 25.1603 107.9 24.7652 107.824 24.6172C107.748 24.4692 107.582 24.0741 107.442 23.9012C107.302 23.7283 107.225 23.679 107.086 23.8519C106.945 24.0248 106.767 24.3703 106.627 24.5926C106.487 24.8147 106.372 25.111 106.207 25.4074C106.041 25.7036 106.016 25.7779 105.748 26.1481C105.481 26.5185 105.341 26.7408 105.163 27.2346C104.985 27.7283 104.947 27.753 104.806 28.3456C104.667 28.9384 104.539 29.5061 104.539 29.5061C104.539 29.5061 104.45 29.9505 104.361 30.395C104.272 30.8394 104.246 30.7408 104.246 31.0864C104.246 31.4319 104.272 31.6543 104.336 32.0739C104.399 32.4936 104.577 33.4565 104.577 33.4565C104.577 33.4565 104.348 33.1357 104.361 33.3083C104.374 33.4812 104.501 34.1725 104.539 34.2712C104.577 34.3699 104.246 33.9008 104.781 35.0365C105.316 36.1723 105.685 37.0366 105.99 37.4563C106.296 37.8761 106.793 38.197 106.793 38.197C106.793 38.197 107.34 38.4192 107.582 38.6414C107.824 38.8637 108.117 39.0119 108.244 39.0859C108.371 39.1599 108.766 39.481 108.766 39.481C108.766 39.481 108.868 39.5057 109.008 39.6292C109.148 39.7528 109.059 38.4443 109.059 38.4443Z" fill="#2B1116"/>
<path d="M104.22 32.716L104.666 32.4445L105.175 33.7531L104.526 34.1729L104.029 32.9136L104.22 32.716Z" fill="#2B1116"/>
<path d="M107.632 26.642L108.09 28.0739L108.306 28.6173L107.658 28.2222L107.632 26.642Z" fill="#2B1116"/>
<path d="M108.866 29.9356C108.866 29.9356 107.992 26.8989 107.002 27.8181C106.448 28.3314 106.995 36.3445 108.893 35.9242C108.893 35.9242 109.23 35.7014 109.249 34.4098L108.866 29.9356Z" fill="#D0836A"/>
<path opacity="0.4" d="M107.451 28.8178C107.451 28.8178 106.926 31.8965 107.662 32.6085C107.662 32.6085 108.053 32.8409 108.032 33.172C108.011 33.5038 108.196 35.7254 108.629 35.0072C108.629 35.0072 108.965 33.99 108.541 33.6189C108.116 33.2489 108.414 33.2292 108.747 32.4189C108.747 32.4189 108.104 28.5818 107.451 28.8178Z" fill="#A56550"/>
<path d="M107.284 31.0823C107.235 30.5181 107.203 29.9436 107.252 29.3483C107.265 29.1998 107.284 29.0465 107.332 28.8907C107.362 28.7292 107.514 28.5717 107.613 28.6437C107.644 28.6448 107.701 28.7014 107.745 28.7427C107.79 28.7901 107.816 28.8339 107.852 28.881C107.915 28.9788 107.973 29.0809 108.025 29.1905C108.24 29.6216 108.407 30.1092 108.555 30.6226C108.629 30.8783 108.692 31.1497 108.744 31.4347C108.793 31.7225 108.847 32.0139 108.817 32.4006L108.81 32.4763L108.779 32.5317C108.668 32.7294 108.556 32.9665 108.482 33.1926C108.465 33.2463 108.449 33.3063 108.445 33.3441C108.437 33.3955 108.442 33.3692 108.438 33.3817C108.447 33.397 108.459 33.4077 108.511 33.4328C108.546 33.4463 108.593 33.4738 108.649 33.5383C108.841 33.7901 108.842 34.237 108.792 34.5483C108.742 34.8697 108.622 35.1737 108.458 35.2539C108.602 35.0947 108.678 34.7968 108.696 34.5072C108.713 34.221 108.67 33.9097 108.566 33.8179C108.554 33.8107 108.545 33.8021 108.534 33.7921L108.473 33.7741C108.446 33.7627 108.375 33.7585 108.317 33.673C108.252 33.5854 108.226 33.3876 108.241 33.2845C108.248 33.1641 108.268 33.0781 108.289 32.9925C108.374 32.6641 108.486 32.4265 108.605 32.1783L108.569 32.3101C108.578 32.1254 108.544 31.8523 108.494 31.609C108.448 31.3585 108.383 31.1146 108.318 30.8712C108.184 30.3892 108.028 29.9177 107.849 29.505C107.805 29.399 107.755 29.3085 107.707 29.2181C107.685 29.1812 107.656 29.1267 107.637 29.1021C107.616 29.0834 107.615 29.0427 107.571 29.0274C107.529 28.9978 107.519 28.9937 107.48 29.087C107.447 29.1681 107.421 29.2908 107.402 29.4183C107.327 29.9374 107.302 30.5146 107.284 31.0823Z" fill="#985339"/>
<path d="M107.595 31.8041C107.595 31.8041 107.525 31.2092 107.576 30.5769C107.601 30.2638 107.666 29.9347 107.771 29.7312C107.824 29.6352 107.874 29.5594 107.915 29.5265C107.954 29.4878 107.977 29.4672 107.977 29.4672L108.052 29.9712C108.054 29.9796 107.997 29.978 107.921 30.0663C107.845 30.154 107.76 30.3765 107.707 30.6445C107.596 31.1843 107.595 31.8041 107.595 31.8041Z" fill="#985339"/>
<path d="M109.034 35.7912C109.019 36.3286 108.782 36.7396 108.505 36.7112C108.228 36.6827 108.016 36.2254 108.031 35.6881C108.046 35.1528 108.281 34.741 108.558 34.7695C108.835 34.7979 109.048 35.2559 109.034 35.7912Z" fill="#EA882B"/>
<path d="M108.827 35.7698C108.819 36.0895 108.68 36.3335 108.515 36.3166C108.351 36.2997 108.225 36.0286 108.234 35.7086C108.243 35.3906 108.383 35.1464 108.547 35.1633C108.711 35.1802 108.836 35.4519 108.827 35.7698Z" fill="#B16327"/>
<path d="M109.08 32.2963L109.47 32.3128C109.47 32.3128 109.754 31.0781 109.432 29.8436C109.432 29.8436 109.165 28.4774 108.97 27.8272C108.97 27.8272 108.957 27.3005 109.097 26.2634L108.248 26.2388L108.235 27.6296L108.528 28.2963L108.766 29.0616L108.88 29.8105L109.012 30.2878L108.982 30.3372L109.106 30.9217L109.08 32.2963Z" fill="#2B1116"/>
<path d="M117.164 39.7099C116.272 38.8374 115.887 37.653 115.887 37.653L117.641 37.7443" fill="#CA406D"/>
<path d="M117.678 37.978C115.785 37.978 115.666 37.4464 115.762 37.4049C115.858 37.3633 116.65 37.3969 116.961 37.2102C117.272 37.0235 117.536 37.1358 117.67 37.2222C117.67 37.2222 117.738 37.7874 117.678 37.978Z" fill="#A42046"/>
<path d="M117.116 39.9441C116.479 39.5776 116.223 38.7885 116.191 38.2748C116.191 38.2748 116.461 39.0554 117.188 39.4736C117.188 39.4736 117.185 39.7877 117.116 39.9319L117.116 39.9441Z" fill="#A42046"/>
<path d="M117.539 37.9771L117.593 38.0026C117.593 38.0026 117.56 38.5574 117.22 39.535C117.22 39.535 117.213 39.5366 117.204 39.5281L117.129 39.4012L117.151 39.2761L117.539 37.9771Z" fill="#CA406D"/>
<path d="M116.104 25.0322C115.914 25.3944 115.466 24.2044 114.639 23.7435C113.812 23.2826 113.107 23.5973 112.704 24.0908C112.704 24.0908 113.199 22.7166 114.432 22.7319C115.666 22.7473 116.353 24.5602 116.104 25.0322Z" fill="#1C0C0E"/>
<path d="M114.42 27.1611C114.946 26.8965 115.4 26.8421 115.78 26.9978C115.885 28.0407 115.885 28.9901 115.78 29.8462C114.922 30.3909 114.024 29.9863 113.085 28.6323C113.457 27.9005 113.902 27.4103 114.42 27.1611Z" fill="white"/>
<path d="M114.664 26.9044C114.801 26.562 114.967 26.3909 115.162 26.3909C115.348 26.3909 115.514 26.562 115.659 26.9044C115.797 27.2624 115.865 27.6904 115.865 28.1884C115.865 28.6709 115.797 29.0755 115.659 29.4024C115.514 29.7604 115.348 29.9393 115.162 29.9393C114.967 29.9393 114.801 29.7602 114.664 29.4024C114.518 29.0755 114.445 28.6709 114.445 28.1884C114.445 27.6904 114.518 27.2624 114.664 26.9044Z" fill="#2B1116"/>
<path d="M115.136 28.9355C115.055 28.7331 115.015 28.4842 115.015 28.1884C115.015 27.8926 115.055 27.6437 115.136 27.4413C115.217 27.2388 115.314 27.1377 115.428 27.1377C115.549 27.1377 115.65 27.2388 115.731 27.4413C115.82 27.6437 115.864 27.8926 115.864 28.1884C115.864 28.4842 115.82 28.7331 115.731 28.9355C115.65 29.1535 115.549 29.2624 115.428 29.2624C115.314 29.2624 115.217 29.1533 115.136 28.9355Z" fill="#1C0C0E"/>
<path d="M115.544 27.6079C115.614 27.6079 115.675 27.6639 115.726 27.7756C115.771 27.9035 115.793 28.0552 115.793 28.231C115.793 28.4068 115.771 28.5506 115.726 28.6623C115.675 28.7901 115.615 28.8541 115.544 28.8541C115.474 28.8541 115.417 28.7901 115.373 28.6623C115.322 28.5506 115.296 28.4068 115.296 28.231C115.296 28.0552 115.321 27.9035 115.373 27.7756C115.417 27.6639 115.474 27.6079 115.544 27.6079Z" fill="#1D1918"/>
<path d="M115.029 28.0018C114.998 27.9418 114.981 27.852 114.981 27.7322C114.981 27.6325 114.998 27.5424 115.029 27.4627C115.053 27.3829 115.089 27.3429 115.137 27.3429C115.177 27.3429 115.212 27.3829 115.244 27.4627C115.276 27.5424 115.292 27.6325 115.292 27.7322C115.292 27.852 115.276 27.942 115.244 28.0018C115.212 28.0815 115.177 28.1216 115.137 28.1216C115.089 28.1216 115.053 28.0815 115.029 28.0018Z" fill="white"/>
<path d="M115.78 26.9977C115.399 26.8422 114.946 26.8967 114.42 27.1611C113.902 27.4102 113.456 27.9004 113.084 28.632C114.023 29.9859 114.922 30.3909 115.78 29.846V30.1729C114.954 30.78 113.995 30.3206 112.903 28.7953L112.344 28.0482C112.522 28.2662 112.684 28.3595 112.829 28.3284C112.935 28.2973 113.036 28.2195 113.133 28.0949C114.023 26.8342 114.906 26.3827 115.78 26.7407C115.974 26.7095 116.148 26.2815 116.302 25.4567C116.229 26.4217 116.055 26.9355 115.78 26.9977Z" fill="#1C0C0E"/>
<path d="M115.597 25.7136C115.751 25.9938 115.812 26.3362 115.78 26.7409C114.905 26.3829 114.023 26.8343 113.133 28.0952C113.035 28.2195 112.934 28.2976 112.829 28.3287C113.541 26.3518 114.464 25.4802 115.597 25.7136Z" fill="#DB8178"/>
<path d="M121.16 26.8124C121.16 26.8124 120.973 24.6012 119.889 24.2571C118.805 23.9134 118.218 25.6914 118.218 25.6914C118.218 25.6914 118.329 27.8129 119.514 28.1933C120.617 28.5478 121.16 26.8124 121.16 26.8124Z" fill="white"/>
<path d="M109.096 119.728L107.059 135.827C107.059 135.827 110.038 138.099 112.609 134.889L110.445 119.432L109.554 116.124L109.096 119.728Z" fill="#52B750"/>
</svg>
