<svg width="220" height="240" viewBox="0 0 220 240" fill="none" xmlns="http://www.w3.org/2000/svg">
<path d="M109.509 215.619C109.509 215.619 109.711 216.083 109.696 216.54C109.673 217.321 109.494 222.71 107.901 222.723C106.308 222.734 105.512 221.226 103.864 219.854C102.214 218.484 100.655 219.068 100.666 216.861L109.509 215.619Z" fill="#6A3514"/>
<path d="M108.48 214.821C108.48 214.821 109.288 214.96 109.51 215.619C109.732 216.274 109.308 221.787 107.713 221.798C106.121 221.81 105.325 220.303 103.677 218.929C102.027 217.561 100.122 218.188 100.823 215.961L108.48 214.821Z" fill="#E2BE81"/>
<path d="M100.185 211.813C100.185 211.813 100.449 213.542 100.421 215.03C100.393 216.518 100.814 217.664 102.162 217.554C102.162 217.554 103.297 217.329 103.915 218.048C104.535 218.769 105.681 220.921 106.539 220.266C106.539 220.266 107.695 221.308 108.057 220.757C108.057 220.757 108.533 220.188 108.36 219.334C108.36 219.334 108.787 218.759 108.592 218.264L108.476 218.102C108.476 218.102 109.072 217.715 108.8 216.959L108.728 216.838C108.728 216.838 109.202 216.377 109.002 215.797L108.914 215.63C108.914 215.63 109.406 215.325 109.129 214.482C109.129 214.482 109.029 214.43 108.82 214.338C108.82 214.338 108.446 214.111 108.113 213.863C107.78 213.619 106.988 213.106 106.477 212.722C105.964 212.337 103.768 210.337 103.265 209.653C102.764 208.97 102.146 205.402 102.146 205.402L99.0537 206.968C99.0537 206.968 99.989 210.219 100.185 211.813Z" fill="#D0846A"/>
<path d="M106.548 212.776C106.524 212.758 106.499 212.738 106.477 212.722C106.331 212.612 106.05 212.374 105.709 212.07C104.826 212.27 103.732 212.715 103.732 212.715L100.423 214.705C100.424 214.814 100.424 214.922 100.421 215.03C100.393 216.517 100.815 217.664 102.163 217.554C102.163 217.554 103.297 217.329 103.916 218.048C104.535 218.769 105.682 220.921 106.54 220.267C106.54 220.267 107.696 221.308 108.058 220.757C108.058 220.757 108.303 220.463 108.376 219.979C108.168 220.27 107.75 220.753 107.482 220.397C107.11 219.907 106.7 219.41 106.593 219.538C106.486 219.667 105.15 219.78 104.938 218.663C104.727 217.545 105.22 214.536 106.548 212.776Z" fill="#AA6650"/>
<path d="M108.227 216.632C108.2 216.937 108.73 216.839 108.73 216.839C108.73 216.839 108.836 216.736 108.926 216.567C108.776 216.674 108.619 216.368 108.516 216.274C108.362 216.132 108.254 216.329 108.227 216.632Z" fill="#AA6650"/>
<path d="M108.508 215.246C108.459 215.514 108.783 215.582 108.917 215.63C108.917 215.63 109.075 215.53 109.16 215.291C109.015 215.311 108.823 215.024 108.75 214.949C108.638 214.834 108.558 214.982 108.508 215.246Z" fill="#AA6650"/>
<path d="M108.477 218.102C108.477 218.102 108.64 217.996 108.757 217.786C108.577 217.803 108.313 217.463 108.182 217.357C107.988 217.205 107.923 217.398 107.976 217.657C108.028 217.917 108.399 218.107 108.477 218.102Z" fill="#AA6650"/>
<path d="M107.394 217.773C107.27 217.779 107.069 218.175 107.067 218.349C107.065 218.525 107.678 219.101 107.865 219C108.052 218.903 108.36 219.334 108.36 219.334C108.36 219.334 108.526 219.109 108.604 218.82C108.256 219.496 107.517 217.762 107.394 217.773Z" fill="#AA6650"/>
<path d="M107.649 218.848C107.649 218.848 104.011 213.966 103.064 212.902L103.099 212.141C103.099 212.141 108.018 218.106 107.649 218.848Z" fill="#7D3E2C"/>
<path d="M99.4102 208.266C99.6966 209.352 100.07 210.871 100.186 211.813C100.186 211.813 100.451 213.542 100.421 215.03C100.393 216.518 100.815 217.664 102.163 217.554C102.163 217.554 103.128 217.33 103.746 218.052C103.793 218.109 104.157 218.488 104.21 218.558C104.655 219.052 104.799 219.245 104.799 219.245C104.278 214.342 106.612 212.822 106.612 212.822C106.566 212.79 106.52 212.754 106.477 212.722C105.964 212.337 103.768 210.337 103.266 209.653C102.959 209.237 102.609 207.736 102.384 206.637C102.384 206.637 101.313 208.194 99.4102 208.266Z" fill="#7D3E2C"/>
<path d="M106.091 212.405C105.445 211.851 104.324 210.813 103.672 210.121L100.194 211.864C100.236 212.152 100.449 213.688 100.422 215.03C100.415 215.394 100.436 215.736 100.49 216.045C102.408 216.753 105.177 213.551 106.091 212.405Z" fill="#662B1D"/>
<path d="M122.991 109.606C122.991 109.606 125.07 112.53 125.76 113.717C126.449 114.905 127.295 115.364 127.639 115.539C127.982 115.714 128.176 115.635 128.187 115.883C128.197 116.132 128 116.703 127.666 116.998C127.333 117.293 126.756 117.213 126.468 116.952C126.18 116.691 122.567 111.013 122.567 111.013L122.991 109.606Z" fill="#B4634E"/>
<path d="M120.458 114.848C120.445 114.897 121.166 116.557 121.22 116.687C121.566 117.516 121.937 118.304 122.312 119.084C122.851 120.205 123.475 121.276 123.935 122.519C124.434 123.866 124.934 125.213 125.434 126.56C125.501 126.74 125.572 126.926 125.671 127.037C125.77 127.147 125.909 127.16 125.991 127.005C126.036 126.92 126.059 126.798 126.073 126.677C126.132 126.156 126.042 125.576 125.873 125.162C125.541 124.35 124.232 120.937 124.228 120.857C124.206 120.428 124.507 121.041 124.558 121.161C124.753 121.618 124.939 122.087 125.135 122.541C125.557 123.52 125.994 124.473 126.447 125.4C126.597 125.708 126.981 126.407 127.225 126.029C127.35 125.835 127.426 125.41 127.371 125.275C127.429 125.416 127.603 125.64 127.697 125.768C127.778 125.878 127.875 125.963 127.973 125.938C128.041 125.92 128.103 125.852 128.161 125.78C128.588 125.251 128.208 123.532 127.957 122.978C127.501 121.968 126.724 119.959 126.405 119.366C126.355 119.276 125.886 117.996 126.135 118.212C126.258 118.319 127.059 119.68 127.354 120.134C127.81 120.834 128.198 121.672 128.626 122.429C128.787 122.715 128.973 123.002 129.191 123.023C129.218 123.025 129.247 123.023 129.27 122.992C129.287 122.969 129.298 122.932 129.309 122.895C129.413 122.491 129.386 121.994 129.286 121.586C129.185 121.178 129.019 120.845 128.847 120.542C128.544 120.006 128.268 119.437 127.978 118.873C127.679 118.289 127.368 117.727 127.074 117.133C126.672 116.322 126.276 115.49 125.852 114.723C125.418 113.937 124.831 112.725 124.075 111.817C123.319 110.909 122.388 109.964 122.388 109.964C122.388 109.964 120.477 114.801 120.458 114.848Z" fill="#D0846A"/>
<path d="M100.088 62.3097C97.6722 61.0859 95.9801 64.9824 96.2104 69.2832C96.3268 71.4589 96.4954 73.5819 97.1276 75.3915C98.7336 79.9913 99.7206 80.6489 101.479 85.034C103.618 90.3661 105.531 96.2687 106.669 98.138C106.746 98.2635 120.484 117.139 120.484 117.139C120.484 117.139 123.574 112.343 123.984 108.939C124.066 108.262 117.586 98.3513 116.24 95.7394C114.895 93.1275 112.791 92.8608 108.661 80.2738C107.904 77.967 106.251 65.4317 100.088 62.3097Z" fill="#DEBC85"/>
<path d="M118.04 114.11C118.04 114.11 120.792 109.926 122.26 105.307C122.26 105.307 124.34 108.961 124.548 109.47C124.756 109.98 121.124 117.363 120.43 117.647L118.04 114.11Z" fill="#E9CD96"/>
<path d="M120.318 105.551L118.811 106.004L117.775 107.606C117.775 107.606 113.906 104.742 113.358 104.248C112.81 103.754 110.973 101.769 110.811 101.213C110.653 100.654 109.944 90.4854 109.925 90.916C109.906 91.3487 109.84 97.4844 109.643 98.1928C109.444 98.9025 108.436 95.9018 108.327 95.1304C108.219 94.3603 108.897 92.3731 108.897 92.3731L108.113 86.478L107.478 92.8922C107.398 93.2186 105.88 81.8844 105.88 81.8844C105.704 81.6204 106.575 90.3304 106.307 91.2109C106.038 92.0899 105.582 89.5871 105.564 89.3923C105.546 89.1962 103.832 77.5418 103.189 77.0611C102.546 76.5811 98.5 69.041 98.5 69.041L101.866 85.9802C103.087 87.8337 104.601 89.8984 104.601 89.8984L106.051 92.8854L107.49 94.7279C107.49 94.7279 108.832 98.463 109.145 99.2303C109.459 99.9983 118.135 110.358 118.135 110.358C118.282 110.301 118.422 110.227 118.556 110.143L119.749 108.297L120.318 105.551Z" fill="#AD8A5D"/>
<path d="M120.581 219.691C120.581 219.691 120.825 220.343 120.783 220.947C120.713 221.977 120.212 229.082 118.102 228.803C115.99 228.525 115.01 226.38 112.894 224.258C110.776 222.137 108.682 222.623 108.804 219.703L120.581 219.691Z" fill="#6A3514"/>
<path d="M119.255 218.445C119.255 218.445 120.319 218.778 120.58 219.691C120.843 220.6 120.009 227.825 117.899 227.543C115.787 227.266 114.807 225.122 112.69 222.998C110.573 220.88 108.02 221.359 109.057 218.538L119.255 218.445Z" fill="#E2BE81"/>
<path d="M114.941 215.088C115.842 215.419 117.871 215.265 118.396 217.291C118.396 217.291 119.948 218.203 120.048 219.314C120.048 219.314 120.248 220.63 119.709 221.152C119.709 221.152 119.862 222.398 119.461 222.546L119.28 222.51C119.28 222.51 119.673 223.849 119.085 224.12L118.963 224.115C118.963 224.115 119.21 225.328 118.765 225.546L118.61 225.563C118.61 225.563 118.941 226.657 118.309 226.997C118.309 226.997 118.192 226.884 117.954 226.631C117.954 226.631 117.501 226.233 117.077 225.92C116.654 225.605 115.68 224.792 115.027 224.314C114.765 224.123 114.132 223.734 113.418 223.324" fill="#D0846A"/>
<path d="M115.162 224.438C115.132 224.416 115.098 224.393 115.071 224.374C114.884 224.244 114.513 224.017 114.057 223.758C113.298 222.145 112.445 219.957 112.445 219.957L110.133 212.716C110.18 212.613 110.227 212.509 110.271 212.402C110.881 210.935 111.775 210.517 113.017 212.796C113.017 212.796 114.007 214.845 114.906 215.154C115.807 215.461 117.825 215.253 118.365 217.263C118.365 217.263 119.918 218.134 120.027 219.241C120.027 219.241 120.135 219.92 119.998 220.5C119.924 219.886 119.731 218.749 119.322 218.654C118.757 218.527 118.152 218.34 118.104 218.043C118.057 217.748 116.828 215.487 116.147 216.214C115.465 216.942 114.646 220.612 115.162 224.438Z" fill="#AA6650"/>
<path d="M118.153 221.469C118.271 221.128 118.739 222.15 118.739 222.15C118.739 222.15 118.795 222.437 118.803 222.76C118.707 222.393 118.412 222.416 118.268 222.327C118.052 222.194 118.039 221.811 118.153 221.469Z" fill="#AA6650"/>
<path d="M117.782 223.309C117.859 222.963 118.206 223.465 118.358 223.654C118.358 223.654 118.466 224.028 118.437 224.41C118.305 224.136 117.985 224.08 117.879 224.026C117.716 223.94 117.706 223.653 117.782 223.309Z" fill="#AA6650"/>
<path d="M119.083 220.482C119.083 220.482 119.192 220.87 119.208 221.279C119.042 220.949 118.626 220.817 118.449 220.688C118.189 220.494 118.217 220.196 118.389 220.036C118.562 219.876 119.011 220.34 119.083 220.482Z" fill="#AA6650"/>
<path d="M117.879 218.902C117.761 218.678 117.751 217.94 117.831 217.768C117.911 217.594 118.775 218.109 118.909 218.532C119.046 218.957 119.546 219.077 119.546 219.077C119.546 219.077 119.604 219.592 119.544 220.007C119.521 218.739 117.993 219.125 117.879 218.902Z" fill="#AA6650"/>
<path d="M118.712 218.831C118.712 218.831 114.135 211.691 112.933 210.106L113.015 209.105C113.014 209.105 119.238 217.916 118.712 218.831Z" fill="#7D3E2C"/>
<path d="M107.563 208.085C107.891 209.575 108.311 211.657 108.418 212.927C108.418 212.927 108.683 215.265 108.572 217.231C108.461 219.197 108.962 220.793 110.753 220.897C110.753 220.897 112.043 220.779 112.828 221.848C112.887 221.933 113.349 222.503 113.416 222.604C113.981 223.343 114.162 223.624 114.162 223.624C113.712 217.033 116.88 215.451 116.88 215.451C116.822 215.398 116.761 215.344 116.706 215.294C116.047 214.688 113.237 211.633 112.604 210.634C112.218 210.026 111.829 207.973 111.584 206.475C111.584 206.475 110.089 208.341 107.563 208.085Z" fill="#7D3E2C"/>
<path d="M116.209 214.801C115.381 213.949 113.947 212.367 113.119 211.328L108.424 212.997C108.466 213.384 108.672 215.458 108.57 217.232C108.544 217.712 108.553 218.17 108.61 218.589C111.116 219.881 114.942 216.152 116.209 214.801Z" fill="#662B1D"/>
<path d="M106.745 43.3052L106.542 45.5822L104.29 46.5283C104.29 46.5283 105.227 44.4083 101.626 40.314C98.0314 36.2276 97.6246 33.747 97.0164 29.1859C95.9839 21.4305 99.0771 12.3538 105.62 11.9874C112.163 11.6207 109.167 29.8531 108.525 33.714L106.745 43.3052Z" fill="#A35D4B"/>
<path d="M103.134 49.2408C102.74 50.6666 107.101 56.1748 107.247 55.2204L109.085 48.5475C109.12 48.3197 109.57 45.7813 109.58 45.5535C109.654 43.867 108.658 43.5919 107.75 43.0723L106.544 42.3844C105.513 41.7955 104.442 42.8655 104.153 44.7739L103.134 49.2408Z" fill="#BB715A"/>
<path d="M103.793 12.3268C104.271 12.111 104.647 11.9812 104.812 11.987C106.755 12.0506 110.151 13.4553 111.341 17.0352C112.242 19.7465 112.846 23.7379 112.906 25.3195C112.952 26.5584 112.56 26.9419 112.489 28.133C112.531 29.5801 112.886 30.4328 113.079 31.1461C113.47 32.5817 114.549 34.5341 114.449 35.7961C114.422 36.1353 114.226 36.3879 114.012 36.5637C113.815 36.7257 112.885 37.1112 112.907 37.5993C112.907 37.5993 112.897 37.8735 112.984 38.3212C113.041 38.6119 113.256 38.9121 113.206 39.2483C113.114 39.8603 112.724 39.9015 112.521 40.3626C112.497 40.3877 112.937 41.3995 112.811 41.927C112.736 42.2448 112.486 42.3528 112.343 42.8228C112.323 43.0591 112.426 46.7557 112.105 47.0226C111.058 47.8935 108.139 46.465 106.995 45.1157C106.556 44.5977 106.527 45.0192 105.599 39.6341L103.793 12.3268Z" fill="#D0846A"/>
<path d="M113.561 36.2931C113.869 36.1645 114.17 36.0565 114.446 35.8093C114.415 36.1409 114.222 36.3898 114.011 36.5638C113.813 36.7258 112.883 37.1114 112.906 37.5993C112.906 37.5993 112.904 37.66 112.91 37.7656C112.743 37.7218 112.572 37.5802 112.446 37.4524C112.41 37.4153 112.372 37.3891 112.338 37.3651C112.726 36.9224 113.115 36.4795 113.561 36.2931Z" fill="#A5644F"/>
<path d="M112.829 39.9392C112.866 39.9348 112.497 40.3145 112.538 40.4388C112.579 40.563 112.697 40.9348 112.697 40.9348C112.697 40.9348 112.139 40.5499 111.74 40.625C111.342 40.6994 112.603 39.9654 112.829 39.9392Z" fill="#661115"/>
<path d="M99.0668 128.859L98.3428 145.105C98.3428 145.105 98.5843 153.028 98.7051 153.904C98.8253 154.779 99.0668 164.301 99.0668 164.301L98.7051 176.469V182.94V188.639C98.7051 188.639 98.9867 191.76 98.7051 192.696C98.4235 193.633 97.9404 197.846 97.9404 198.47C97.9404 199.094 97.9404 205.023 97.9404 205.023V206.584V211.533V214.103V216.542L100.115 217.509C100.115 217.509 111.243 218.679 113.602 212.085C115.963 205.491 113.998 208.31 113.998 208.31L114.26 205.335L113.998 196.093V189.732V184.27V177.405L113.602 174.128V166.17L114.26 160.804L113.998 156.168L113.048 149.474L113.602 144.093V138.426V135.119V130.526L99.0668 128.859Z" fill="#E2BE81"/>
<path d="M113.602 106.774C113.602 106.774 113.288 124.072 113.172 129.454C113.057 134.834 112.317 150.601 112.035 157.776C111.753 164.951 110.596 190.736 110.481 197.462C110.365 204.189 111.291 212.098 111.291 212.098C111.291 212.098 107.251 216.208 105.461 214.373C105.461 214.373 104.206 160.018 104.395 153.515C104.585 147.014 104.811 113.157 105.449 109.794C106.087 106.43 113.602 106.774 113.602 106.774Z" fill="#E2BE81"/>
<path d="M113.603 106.774C113.603 106.774 111.753 119.211 110.25 142.306C108.747 165.399 108.747 193.651 108.747 198.584C108.747 203.516 108.717 215.068 108.717 215.068C108.717 215.068 104.097 217.479 101.9 216.133C101.9 216.133 101.117 184.234 101.117 179.973C101.117 175.713 101.736 168.893 101.889 163.559C102.042 158.224 99.0765 138.752 98.6263 133.36C98.2195 128.491 96.8149 118.751 97.2935 114.054C97.7722 109.356 98.5725 105.534 99.9604 99.7042C101.348 93.8743 113.603 106.774 113.603 106.774Z" fill="#E2BE81"/>
<path d="M107.954 159.148C106.718 156.874 102.233 143.816 101.957 142.345C101.681 140.874 99.7496 125.712 99.7496 125.712C99.9564 127.005 104.163 139.537 104.856 141.543C105.548 143.549 107.707 146.449 107.707 146.449C106.346 143.909 100.647 125.748 100.647 125.748C106.321 127.283 111.947 123.048 114.245 121.007C114.017 118.516 113.843 117.097 113.843 117.097L96.9302 115.262C95.6557 123.789 98.785 151.502 98.785 151.502L99.0608 152.757C98.8598 157.916 100.338 159.997 100.193 170.99C100.719 163.718 100.755 163.696 100.907 160.971C101.149 156.559 101.353 145.589 101.355 143.635C101.356 141.681 98.0253 125.748 98.0253 125.748C98.0253 125.748 98.0307 125.942 98.0405 126.29C98.1246 129.396 102.07 154.927 102.621 157.092C102.976 158.483 103.491 158.503 104.902 162.859C101.898 150.931 99.1209 128.833 99.1209 128.833C99.1209 128.833 100.026 143.282 101.061 145.288C102.095 147.293 107.954 159.148 107.954 159.148Z" fill="#C59F6B"/>
<path d="M97.6507 108.103L97.3809 112.508C97.3809 112.508 105.032 120.098 113.653 117.335L113.997 112.753C113.997 112.753 104.8 115.67 97.6507 108.103Z" fill="#3B2314"/>
<path d="M98.3518 216.647C102.126 217.963 105.485 218.2 108.414 217.792L108.041 207.106C104.105 208.114 99.2479 206.676 97.8008 206.192L98.3518 216.647Z" fill="#C59F6B"/>
<path d="M108.049 112.753C108.049 112.753 108.12 116.976 107.834 118.363H108.525C108.525 118.363 108.977 114.583 108.787 112.753H108.049Z" fill="#042230"/>
<path d="M113.229 118.559C113.224 118.559 113.219 118.559 113.214 118.559L110.99 118.465C110.794 118.457 110.614 118.292 110.483 117.998C110.328 117.654 110.258 117.166 110.29 116.661L110.463 113.885C110.522 112.949 110.883 112.207 111.327 112.246L113.55 112.339C113.746 112.346 113.927 112.513 114.058 112.806C114.212 113.15 114.282 113.638 114.251 114.143L114.078 116.92C114.02 117.845 113.649 118.559 113.229 118.559ZM113.225 117.546C113.38 117.545 113.531 117.246 113.559 116.797L113.732 114.022C113.746 113.803 113.72 113.597 113.663 113.47C113.629 113.394 113.587 113.354 113.539 113.352L111.316 113.259C111.179 113.277 111.01 113.56 110.982 114.008L110.808 116.783C110.795 117.001 110.821 117.207 110.878 117.334C110.912 117.411 110.954 117.451 111.002 117.453L113.225 117.546Z" fill="#5A4A42"/>
<path d="M109.001 50.3589C109.001 50.3589 110.19 50.1309 110.966 51.8407C111.741 53.5504 113.137 59.8768 113.085 60.8458C113.034 61.8147 112.229 60.0593 111.971 59.6604C111.712 59.2616 110.837 57.2551 110.604 56.0013C110.371 54.7473 109.859 54.1564 109.626 53.8713C109.393 53.5862 108.421 53.1984 108.421 53.1984C108.421 53.1984 108.854 51.6086 109.001 50.3589Z" fill="#F0F3F7"/>
<path d="M106.712 49.3179C106.712 49.3179 113.832 63.9955 114.336 74.5123C114.804 84.2941 115.831 95.3944 114.912 110.228C114.245 121.007 109.747 114.892 106.998 114.892C104.249 114.892 98.3812 114.021 98.1426 106.759C97.9392 100.585 99.9637 92.1729 98.7825 86.2936C97.6009 80.4143 95.2381 73.444 96.4198 60.6117C97.6009 47.7796 100.418 47.4501 102.509 47.4501C104.599 47.4499 106.712 49.3179 106.712 49.3179Z" fill="#E9CD96"/>
<g opacity="0.3">
<path opacity="0.3" d="M109.771 51.708C109.771 51.5689 108.555 50.8483 108.465 50.7829C107.68 50.2111 106.893 49.6458 106.121 49.0093C104.526 47.6949 102.984 46.1384 101.514 44.3578C101.406 44.2271 100.901 43.6509 100.785 43.8413C100.436 44.4122 99.82 45.9149 99.7291 48.6469C99.6381 51.3789 110.979 62.6049 110.979 62.6049C110.979 62.6049 109.771 54.1755 109.771 51.708Z" fill="#231F20"/>
</g>
<path d="M109.771 51.2607C109.771 51.1218 108.555 50.4009 108.466 50.3358C107.68 49.7641 106.893 49.199 106.121 48.5625C104.526 47.2476 102.984 45.6914 101.515 43.9109C101.406 43.7802 100.901 43.2036 100.785 43.394C100.436 43.9652 99.82 45.4676 99.7291 48.1996C99.6381 50.9318 110.56 61.1334 110.56 61.1334C110.56 61.1334 109.771 53.7285 109.771 51.2607Z" fill="#F0F3F7"/>
<path d="M112.21 26.7208C112.21 26.7208 110.796 25.5079 110.057 26.162C109.316 26.8165 108.904 28.1459 108.904 28.1459C108.904 28.1459 109.484 27.5248 110.027 27.287C110.57 27.0489 112.266 27.7809 112.266 27.7809C112.266 27.7809 112.622 27.023 112.21 26.7208Z" fill="#090000"/>
<path d="M111.318 28.467C111.26 28.7642 111.211 29.9873 111.354 30.6582C111.35 30.6388 111.21 30.6166 111.192 30.6097C110.969 30.5175 110.765 30.4117 110.577 30.1511C110.495 30.0395 110.421 29.9124 110.351 29.7761C110.291 29.6584 110.209 29.5277 110.187 29.3615C110.169 29.23 110.737 28.5408 111.318 28.467Z" fill="white"/>
<path d="M111.268 29.4551C111.268 29.0662 111.367 28.7239 111.517 28.512C111.465 28.4377 111.405 28.3827 111.342 28.3446C111.096 28.4913 110.916 28.9299 110.916 29.4548C110.916 29.9795 111.095 30.4186 111.342 30.5651C111.405 30.5271 111.465 30.4722 111.517 30.398C111.367 30.186 111.268 29.8442 111.268 29.4551Z" fill="#2C1117"/>
<path d="M111.518 28.5122C111.366 28.7244 111.268 29.0671 111.268 29.4557C111.268 29.8444 111.366 30.1873 111.518 30.3969C111.668 30.1873 111.767 29.8447 111.767 29.4557C111.767 29.0674 111.668 28.7244 111.518 28.5122Z" fill="#090000"/>
<path d="M111.02 29.9067C110.962 29.9067 110.916 29.816 110.916 29.704C110.916 29.5922 110.962 29.5016 111.02 29.5016C111.078 29.5016 111.125 29.5922 111.125 29.704C111.125 29.8158 111.078 29.9067 111.02 29.9067Z" fill="white"/>
<path d="M111.323 29.5481C111.235 29.5481 111.163 29.4086 111.163 29.237C111.163 29.0652 111.235 28.9259 111.323 28.9259C111.412 28.9259 111.484 29.0652 111.484 29.237C111.484 29.4088 111.412 29.5481 111.323 29.5481Z" fill="white"/>
<path d="M110.238 29.5479C110.226 29.598 110.527 29.8867 110.553 29.9127C110.686 30.0429 110.822 30.1651 110.963 30.2614C111.08 30.3416 111.201 30.4033 111.325 30.4338C111.387 30.4492 111.451 30.4563 111.514 30.4534C111.568 30.4509 111.627 30.454 111.68 30.4405C111.68 30.4405 111.505 31.066 111.268 31.1292C111.031 31.1923 110.543 31.0712 110.304 30.6585C110.065 30.246 110.238 29.5483 110.238 29.5479Z" fill="#D0846A"/>
<path d="M109.944 29.9296C110.005 29.498 110.174 29.1565 110.352 28.8847C110.535 28.6214 110.745 28.4272 110.959 28.2991C111.173 28.163 111.398 28.0874 111.621 28.0698C111.847 28.0483 112.06 28.1107 112.28 28.1047C112.074 28.2869 111.849 28.3231 111.644 28.4189C111.436 28.5038 111.236 28.6181 111.038 28.7523C110.84 28.8941 110.651 29.0487 110.467 29.2365C110.285 29.4252 110.108 29.6347 109.944 29.9296Z" fill="black"/>
<path d="M98.1778 103.952C98.0077 108.762 96.4579 113.944 96.5552 115.109C96.5552 115.109 105.159 118.769 113.85 119.253L114.621 113.735" fill="#E9CD96"/>
<path d="M105.529 90.8208C104.819 89.7607 104.928 84.5637 105.035 84.2455C105.141 83.9266 108.046 78.4114 108.267 76.3961C108.49 74.3801 105.475 80.8505 104.873 80.4274C104.272 80.0016 107.333 68.0157 107.281 64.5151C107.227 61.0158 105.092 75.1221 104.653 74.2752C104.216 73.4256 105.694 55.9238 105.201 56.1353C104.71 56.3478 104.056 69.7406 103.342 69.925C102.984 70.0183 102.598 68.723 102.3 67.4026C102.359 67.8613 102.422 68.3142 102.488 68.7593C102.488 68.7593 103.397 74.4796 103.761 81.275C103.94 84.5952 103.732 88.8021 103.715 91.5045C103.715 91.5045 103.306 108.003 103.409 110.126C103.409 110.126 106.274 112.445 109.896 113.501C107.325 111.865 105.912 109.692 105.912 109.692C105.803 108.305 105.419 105.987 104.928 104.822C104.435 103.657 104.71 101.428 104.71 101.428C106.567 99.8455 109.891 93.2373 110.603 91.8048C109.783 93.2448 106.185 96.2304 106.185 96.2304C106.185 96.2304 106.24 91.8816 105.529 90.8208Z" fill="#C8A977"/>
<path d="M104.664 32.9279C104.664 32.9279 105.288 33.5691 105.544 36.0806C105.544 36.0806 105.889 34.9328 106.007 32.5275C106.126 30.1208 106.332 29.4511 106.788 27.7624C106.788 27.7624 107.897 24.265 107.411 20.9788C107.101 18.8835 105.468 17.8628 104.853 20.1766C103.644 24.7292 104.414 32.0933 104.664 32.9279Z" fill="#090000"/>
<path d="M112.085 14.7683C111.618 13.8601 110.839 12.8969 110.261 12.2798C109.068 11.0076 108.051 10.4467 106.699 10.2307C103.919 9.7863 100.318 10.6692 98.6035 14.8818C97.5656 17.4327 97.4757 21.8625 97.2777 25.0892C96.9501 30.4389 98.0814 39.421 100.787 41.7785C101.254 43.7931 101.767 44.2949 102.625 45.2867C103.595 46.4069 104.245 46.3018 104.245 46.3018C103.807 45.0549 103.642 43.5321 103.642 43.5321L104.436 44.2358C104.054 43.6818 104.04 41.9779 104.04 41.9779L104.436 42.3616C104.344 42.107 104.275 41.7583 104.22 41.3705C104.579 41.0367 104.952 40.6149 105.339 40.0925C105.521 39.8472 103.564 30.5521 104.101 30.7772C104.435 30.9176 105.013 32.7767 105.488 35.1227C106.084 38.0598 105.339 24.388 107.175 19.4639C109.01 14.5398 113.326 17.8118 113.327 17.812C113.145 17.3185 112.368 15.3212 112.085 14.7683Z" fill="black"/>
<path d="M101.746 11.3242C101.746 11.3242 98.7034 9.59597 97.3414 19.4573C96.1045 28.4124 97.0764 40.9893 104.305 45.8975C104.305 45.8975 101.203 23.0864 101.791 19.1802C102.38 15.2738 101.746 11.3242 101.746 11.3242Z" fill="#090000"/>
<path d="M101.059 11.5464C101.059 11.5464 101.843 6.80713 108.118 9.87913C113.363 12.4464 114.306 21.0078 114.306 21.0078C114.306 21.0078 111.451 17.5358 106.602 13.3018C103.527 10.6169 101.059 11.5464 101.059 11.5464Z" fill="black"/>
<path d="M110.894 12.2629C109.787 11.9438 109.302 10.8553 108.444 10.9433C108.444 10.9433 104.491 9.96622 104.859 15.0025L106.244 18.0944C106.244 18.0944 107.834 22.4662 109.988 23.3815C109.988 23.3815 108.835 22.0084 108.333 21.1793C108.333 21.1793 110.542 23.5113 112.995 23.9331C112.995 23.9331 111.435 22.9026 110.858 21.4526C110.858 21.4526 112.377 23.568 115.181 23.9331C115.181 23.9331 114.117 23.2678 113.719 22.4662C113.719 22.4662 114.487 22.5849 115.021 22.978" fill="#090000"/>
<path d="M110.979 59.3628C110.979 59.3628 113.991 69.3489 114.273 71.6899C114.273 71.6899 115.942 95.2902 114.69 113.283L114.258 116.095L113.85 119.019L113.453 118.995L114.258 113.114C114.258 113.114 115.25 101.729 113.83 71.7674C113.83 71.7674 112.725 66.1039 110.603 59.8465L110.261 58.1341L110.217 57.663L110.979 59.3628Z" fill="#EBEEC9"/>
<path d="M114.214 203.736C113.27 204.152 113.452 209.087 112.925 208.223C112.351 207.285 111.491 211.64 110.655 211.326C109.817 211.013 108.721 207.597 108.059 207.676C107.537 207.736 108.482 215.424 108.413 217.792C116.907 215.735 114.489 204.917 114.489 204.917L114.214 203.736Z" fill="#E9CD96"/>
<path d="M107.305 207.293C108.637 201.988 110.154 193.445 110.114 192.834C110.114 192.834 103.158 197.426 102.695 198.08L99.4209 206.87L107.305 207.293Z" fill="#E9CD96"/>
<path d="M110.511 184.833C111.002 187.537 113.027 197.859 114.361 204.642L114.765 207.294C114.43 198.479 114.467 180.319 114.513 175.981C114.577 170.029 115.065 158.578 113.685 150.793C113.378 149.061 113.685 136.14 113.685 136.14C113.614 130.344 113.344 125.043 113.023 120.608C112.852 132.436 112.213 153.237 112.213 153.237C112.213 153.237 114.167 163.464 113.685 165.753C113.203 168.043 109.76 180.712 110.511 184.833Z" fill="#C59F6B"/>
<path d="M97.3809 122.382C97.3809 122.382 97.5442 130.932 98.1108 134.261C98.1108 134.261 98.143 138.166 98.3518 139.176C98.561 140.185 98.1406 141.692 98.1406 141.692L98.1108 144.093C98.1108 144.093 97.8996 144.267 98.6539 145.671L99.2572 148.363L99.4381 145.437L99.1966 140.112L99.0886 137.545L99.2543 136.252L98.9316 131.875L98.4095 127.606C98.4095 127.606 98.231 123.728 98.2012 123.553C98.1709 123.377 97.5129 122.382 97.5129 122.382H97.3809Z" fill="#C59F6B"/>
<path d="M107.25 130.527C107.218 130.477 112.335 143.319 113.462 145.443C113.462 145.443 109.064 133.229 107.25 130.527Z" fill="#E9CD96"/>
<path d="M107.882 140.252C107.85 140.203 112.966 153.045 114.094 155.168C114.094 155.168 109.696 142.954 107.882 140.252Z" fill="#E9CD96"/>
<path d="M107.881 167.552C107.848 167.502 112.965 180.344 114.093 182.468C114.093 182.468 109.695 170.254 107.881 167.552Z" fill="#E9CD96"/>
<path d="M96.2759 128.08C96.2759 128.08 95.9953 133.498 95.7964 135.413C95.5969 137.327 95.8379 139.131 95.942 139.858C96.0457 140.585 96.1909 140.899 96.076 141.055C95.9611 141.211 95.5744 141.159 95.2478 140.708C94.9212 140.257 94.643 139.155 94.6113 138.482C94.58 137.81 95.3583 128.072 95.3583 128.072L96.2759 128.08Z" fill="#B4634E"/>
<path d="M92.3334 126.298C92.3026 126.3 91.891 128.532 91.8582 128.701C91.6451 129.791 91.4647 130.904 91.2916 132.019C91.0423 133.623 90.8634 135.352 90.5118 136.878C90.131 138.531 89.7506 140.187 89.3698 141.841C89.3185 142.063 89.2661 142.293 89.2676 142.537C89.2681 142.779 89.3375 143.041 89.4583 143.107C89.5253 143.144 89.5966 143.119 89.6626 143.078C89.9491 142.901 90.1813 142.418 90.2899 141.881C90.503 140.828 91.4451 136.558 91.4808 136.507C91.6778 136.233 91.5449 137.119 91.5145 137.279C91.3997 137.885 91.2735 138.485 91.1601 139.094C90.9157 140.403 90.6922 141.728 90.4898 143.066C90.4229 143.51 90.2938 144.599 90.6111 144.839C90.7739 144.963 91.0227 144.869 91.0584 144.694C91.0208 144.878 91.0081 145.32 90.9978 145.561C90.9885 145.77 91.0007 145.996 91.0667 146.163C91.1127 146.279 91.1801 146.355 91.2466 146.422C91.7385 146.916 92.3657 145.277 92.4977 144.514C92.7387 143.122 93.2897 140.597 93.4021 139.688C93.4193 139.548 93.7845 137.986 93.8153 138.562C93.8309 138.845 93.6094 141.059 93.5508 141.852C93.4598 143.069 93.2662 144.241 93.1323 145.441C93.0824 145.895 93.0443 146.39 93.1538 146.803C93.1675 146.855 93.1851 146.907 93.212 146.931C93.233 146.951 93.2574 146.951 93.2809 146.949C93.5346 146.921 93.7615 146.598 93.9052 146.191C94.0485 145.783 94.1194 145.297 94.1726 144.815C94.267 143.966 94.3922 143.146 94.507 142.308C94.6263 141.438 94.7295 140.56 94.8571 139.695C95.0306 138.514 95.2179 137.331 95.3582 136.133C95.5019 134.906 95.7698 133.166 95.7962 131.281C95.8217 129.396 95.7708 127.17 95.7708 127.17C95.7708 127.17 92.3672 126.306 92.3334 126.298Z" fill="#D0846A"/>
<path d="M106.707 60.1579C105.974 55.0521 103.149 54.077 101.183 56.8521C100.188 58.2565 99.2482 59.7277 98.7144 61.8779C97.3587 67.3425 97.5811 69.5151 96.4142 75.1414C94.9939 81.9862 93.1738 88.7274 92.8898 91.8392C92.8707 92.049 91.2334 127.598 91.2334 127.598C91.2334 127.598 95.2657 130.647 97.147 129.539C97.5215 129.318 98.7828 111.999 99.3147 108.1C99.8466 104.201 98.8205 100.193 102.676 85.7233C103.382 83.0716 108.573 73.1802 106.707 60.1579Z" fill="#DEBC85"/>
<path d="M91.3657 121.455C91.3657 121.455 94.9131 124.219 97.9672 124.389C97.9672 124.389 97.3321 130.206 97.1987 130.865C97.0652 131.526 91.4777 128.897 90.958 127.778L91.3657 121.455Z" fill="#E9CD96"/>
<path d="M96.7813 120.954L95.7331 118.436L94.3842 117.41C94.3842 117.41 93.6519 108.739 93.5913 107.462C93.5301 106.186 93.4866 101.726 93.6685 101.126C93.8538 100.529 98.4122 93.6659 98.1922 93.8668C97.9712 94.0684 94.9489 97.3036 94.4962 97.3283C94.0415 97.3516 94.9479 93.86 95.2633 93.2373C95.5791 92.6181 96.9181 92.7745 96.9181 92.7745L99.3557 88.1109L95.8856 90.454C95.6832 90.4856 100.364 81.4986 100.364 81.4986C100.396 81.0323 96.6365 87.3964 96.0606 87.3848C95.4852 87.3731 96.4522 85.1658 96.5373 85.0259C96.6224 84.8853 101.352 75.3628 101.233 73.9201C101.112 72.4766 102.558 60.9235 102.558 60.9235L96.1657 76.3694C95.9345 79.6245 95.7614 83.5338 95.7614 83.5338L95.1049 87.8305L94.9992 91.4805C94.9992 91.4805 93.9188 95.9871 93.7179 96.982C93.5165 97.9784 93.2432 119.576 93.2432 119.576C93.3512 119.814 93.4641 120.03 93.579 120.23L95.1317 121.411L96.7813 120.954Z" fill="#AD8A5D"/>
<path d="M103.215 29.5852C103.354 29.4006 103.509 29.292 103.669 29.2524C103.971 29.181 104.292 29.357 104.561 29.739C105.201 30.6482 105.571 32.8486 105.669 34.4328C105.716 35.205 105.781 36.2733 105.57 36.9226C105.22 38.0068 104.467 36.3375 104.075 35.7724C103.287 34.6384 102.967 34.4724 102.763 32.9968C102.489 31.0166 102.868 30.0455 103.215 29.5852Z" fill="#D0846A"/>
<path d="M103.814 33.7776C104.015 34.6318 104.441 35.332 104.952 35.2958C105.159 35.2807 105.318 35.1347 105.243 34.6706C105.212 34.4845 105.105 34.2338 105.025 34.1158C104.887 33.9111 104.851 33.3231 104.836 33.0214C104.798 32.2051 104.781 31.1311 104.196 31.1727C103.655 31.2118 103.6 32.2033 103.693 33.0509C103.722 33.3191 103.766 33.5731 103.814 33.7776Z" fill="#975238"/>
<path d="M113.102 37.6791C113.102 37.6791 111.112 37.9873 110.516 39.1126C109.919 40.24 110.089 41.6904 110.089 41.6904C110.089 41.6904 110.396 39.988 110.826 40.2002C111.068 40.3215 113.267 40.7262 113.267 39.0738" fill="black"/>
<path d="M114.245 177.778C114.245 177.778 117.563 203.708 118.594 206.465C119.625 209.222 119.231 214.68 110.404 217.062L112.051 206.465L110.678 202.667V199.111L112.051 194.445L112.864 192.835L113.998 196.093L113.896 188.889L114.245 177.778Z" fill="#E2BE81"/>
<path d="M115.041 197.42C115.041 197.42 116.721 205.263 118.115 206.465C119.51 207.667 116.835 207.348 116.139 205.23L114.699 198.778L113.602 197.42L112.408 196.556C112.408 196.556 115.567 209.853 117.395 208.594C117.395 208.594 114.827 207.419 112.408 200.667C112.408 200.667 115.324 211.247 117.131 210.422C117.131 210.422 112.302 209.889 111.38 199.111L115.041 197.42Z" fill="#C59F6B"/>
</svg>
