<svg width="450" height="350" viewBox="0 0 450 350" fill="none" xmlns="http://www.w3.org/2000/svg">
<path fill-rule="evenodd" clip-rule="evenodd" d="M218.645 59.9727C218.645 59.9727 214.479 48.7425 199.755 52.4429C185.032 56.1424 177.271 74.9663 178.866 93.949C179.937 106.668 184.288 113.094 185.649 121.478C186.627 127.507 185.998 132.967 184.197 137.056C182.614 140.656 180.541 141.32 184.966 141.16C186.24 141.114 187.495 140.899 188.73 140.512C194.226 138.787 203.21 132.185 201.797 130.812C176.133 105.875 218.645 59.9727 218.645 59.9727Z" fill="black"/>
<path fill-rule="evenodd" clip-rule="evenodd" d="M206.656 282.364C206.656 282.364 207.321 245.806 206.794 227.433C206.267 209.06 217.954 208.722 220.607 216.098C223.26 223.473 220.493 243.275 219.524 256.018C218.556 268.76 217.587 282.364 217.587 282.364C218.662 288.89 211.175 290.502 208.352 288.707C205.53 286.912 206.656 282.364 206.656 282.364Z" fill="#FFB685"/>
<path fill-rule="evenodd" clip-rule="evenodd" d="M206.994 249.237C207.011 241.3 206.965 233.406 206.794 227.433C206.266 209.06 217.954 208.722 220.607 216.099C222.938 222.578 221.085 238.65 219.944 251.1C215.194 250.891 210.861 250.195 206.994 249.237Z" fill="#FAA66E"/>
<path fill-rule="evenodd" clip-rule="evenodd" d="M206.475 283.013C206.475 283.013 206.258 277.854 206.342 271.21C209.426 271.283 214.666 271.412 218.865 271.398C218.397 277.786 217.664 282.963 217.664 282.963C218.739 289.488 211.174 290.502 208.352 288.707C205.531 286.912 206.475 283.013 206.475 283.013Z" fill="#FFE0DA"/>
<path fill-rule="evenodd" clip-rule="evenodd" d="M202.215 295.496H221.464C222.085 295.496 222.593 296.128 222.593 296.9V296.902C222.593 297.674 222.085 298.305 221.464 298.305H202.215C201.593 298.305 201.087 297.674 201.087 296.902V296.9C201.087 296.128 201.593 295.496 202.215 295.496Z" fill="#B82C0D"/>
<path fill-rule="evenodd" clip-rule="evenodd" d="M241.784 281.035C241.784 281.035 241.118 245.807 241.646 227.433C242.173 209.061 230.486 208.723 227.833 216.098C225.179 223.473 227.947 243.276 228.915 256.019C229.884 268.761 230.853 282.364 230.853 282.364C233.175 288.074 239.047 289.805 244.645 289.108C248.055 288.684 249.354 287.677 249.425 287.028C248.422 285.406 244.378 282.949 241.784 281.035Z" fill="#FFB685"/>
<path fill-rule="evenodd" clip-rule="evenodd" d="M241.446 248.677C241.431 241.007 241.476 233.347 241.647 227.433C242.173 209.06 230.487 208.722 227.832 216.098C225.512 222.549 227.339 238.511 228.482 250.938C232.574 250.604 236.904 249.885 241.446 248.677Z" fill="#FAA66E"/>
<path fill-rule="evenodd" clip-rule="evenodd" d="M242.265 281.089C242.265 281.089 242.194 277.307 242.116 271.576C238.202 271.611 233.47 271.619 229.678 271.594C230.138 277.881 230.526 282.721 230.526 282.721C232.848 288.43 239.047 289.804 244.645 289.108C248.055 288.684 249.355 287.678 249.425 287.027C248.422 285.406 244.859 283.001 242.265 281.089Z" fill="#FFE0DA"/>
<path fill-rule="evenodd" clip-rule="evenodd" d="M206.656 282.364C205.594 282.636 201.343 290.508 201.839 295.813H221.779C221.779 295.813 222.174 289.748 217.587 282.364C216.421 288.159 209.428 288.592 207.566 287.262C205.704 285.932 206.656 282.364 206.656 282.364Z" fill="#DB4F30"/>
<path fill-rule="evenodd" clip-rule="evenodd" d="M206.476 283.014C206.125 283.25 205.684 283.085 205.496 282.648C205.306 282.209 205.438 281.662 205.789 281.426C206.954 280.648 209.534 280.07 212.288 280.19C214.431 280.283 216.709 280.793 218.559 281.945C218.915 282.165 219.061 282.707 218.882 283.152C218.704 283.596 218.269 283.775 217.912 283.554C216.269 282.531 214.202 282.076 212.244 281.99C209.734 281.88 207.453 282.362 206.476 283.014Z" fill="#DB4F30"/>
<path fill-rule="evenodd" clip-rule="evenodd" d="M230.853 282.364C230.853 282.364 228.955 284.042 228.514 288.284C228.072 292.526 228.949 295.879 228.949 295.879L251.871 296.964L254.49 295.495C254.49 295.495 255.691 293.638 253.766 290.85C251.84 288.062 249.425 287.027 249.425 287.027C249.354 287.677 248.055 288.684 244.644 289.109C239.046 289.804 233.175 288.075 230.853 282.364Z" fill="#DB4F30"/>
<path fill-rule="evenodd" clip-rule="evenodd" d="M230.484 283.285C230.142 283.54 229.696 283.401 229.491 282.975C229.286 282.548 229.398 281.994 229.74 281.739C231.103 280.723 233.772 279.961 236.371 279.607C239.055 279.242 241.73 279.317 242.902 280C243.263 280.21 243.419 280.747 243.251 281.195C243.081 281.647 242.65 281.841 242.289 281.63C241.361 281.089 238.983 281.065 236.525 281.399C234.104 281.728 231.661 282.407 230.484 283.285Z" fill="#DB4F30"/>
<path fill-rule="evenodd" clip-rule="evenodd" d="M228.948 295.496H254.228C254.848 295.496 255.357 296.128 255.357 296.9C255.357 297.674 254.847 298.305 254.228 298.305H228.948C228.328 298.305 227.82 297.674 227.82 296.9C227.82 296.128 228.328 295.496 228.948 295.496Z" fill="#B82C0D"/>
<path fill-rule="evenodd" clip-rule="evenodd" d="M205.408 246.437L206.169 280.174H218.019L221.727 244.244L226.713 245.118L229.387 280.174L242.901 279.999V243.545L229.678 233.764L201.799 238.481L205.408 246.437Z" fill="#ED634C"/>
<path fill-rule="evenodd" clip-rule="evenodd" d="M205.408 246.437L206.169 280.174H218.019L221.727 244.244L226.713 245.118L229.387 280.174L242.901 279.999V243.545L229.678 233.764L201.799 238.481L205.408 246.437Z" fill="#266B14"/>
<path fill-rule="evenodd" clip-rule="evenodd" d="M251.557 160.09C250.51 162.868 246.998 166.565 243.605 168.98C243.598 168.941 243.591 168.906 243.581 168.871C242.663 165.029 241.728 161.56 240.786 158.616C239.246 153.803 237.203 152.132 234.63 151.821C233.589 153.401 232.615 154.249 231.107 155.247C231.093 153.886 231.3 152.626 231.757 151.533C232.45 149.857 233.733 148.575 235.734 147.945C236.043 147.849 236.359 147.779 236.686 147.744C241.443 147.166 248 152.653 251.557 160.09Z" fill="#F7931E"/>
<path fill-rule="evenodd" clip-rule="evenodd" d="M216.471 156.857C213.666 155.886 211.107 154.171 209.208 151.721C209.138 151.791 211.177 153.615 211.11 153.694C209.609 155.409 206.002 161.109 204.118 170.533C204.114 170.564 204.107 170.594 204.1 170.629C200.591 168.184 196.939 164.377 195.859 161.516C198.718 155.536 203.502 150.806 207.753 149.432C209.201 148.964 210.586 148.881 211.813 149.271C213.118 149.686 214.116 150.373 214.851 151.261C216.036 152.696 216.528 154.656 216.471 156.857Z" fill="#F7931E"/>
<path fill-rule="evenodd" clip-rule="evenodd" d="M234.981 151.384C233.94 152.963 232.615 154.25 231.107 155.247C226.92 158.016 221.326 158.546 216.471 156.857C213.666 155.886 211.106 154.171 209.208 151.721C210.706 150.233 212.657 150.548 214.851 151.261C217.326 152.062 220.11 153.361 222.891 153.125C226.255 152.841 229.205 151.94 231.757 151.533C232.914 151.349 233.986 151.261 234.981 151.384Z" fill="#F7931E"/>
<path fill-rule="evenodd" clip-rule="evenodd" d="M255.741 239.746L255.738 239.75C245.447 249.777 202.198 250.827 193.761 240.564C193.799 239.754 193.873 238.691 193.986 237.401C209.23 246.426 241.06 245.122 255.221 235.567L255.291 236.123C255.453 237.409 255.608 238.621 255.741 239.746Z" fill="#F7931E"/>
<path fill-rule="evenodd" clip-rule="evenodd" d="M255.221 235.568C241.061 245.123 209.23 246.426 193.986 237.401C194.999 225.719 198.929 195.816 202.898 174.593C203.183 173.079 203.464 171.605 203.749 170.192C203.756 170.157 203.763 170.126 203.767 170.096C205.651 160.672 207.5 153.659 209.002 151.944C209.068 151.865 209.139 151.791 209.209 151.721C211.107 154.171 213.667 155.886 216.472 156.857C221.327 158.546 226.921 158.016 231.108 155.247C232.616 154.249 233.941 152.963 234.982 151.384C237.555 151.694 239.598 153.366 241.138 158.178C242.08 161.123 243.015 164.592 243.933 168.433C243.943 168.468 243.95 168.503 243.957 168.543C244.291 169.925 244.618 171.36 244.945 172.83C249.319 192.596 253.193 219.573 255.221 235.568Z" fill="#F7931E"/>
<path fill-rule="evenodd" clip-rule="evenodd" d="M217.015 132.881L226.949 135.039L227.788 147.321L222.387 148.7L216.733 148.517L217.015 132.881Z" fill="#E8935A"/>
<path fill-rule="evenodd" clip-rule="evenodd" d="M211.864 147.975C215.802 146.313 219.595 145.752 223.256 145.589C226.31 145.452 233.581 146.713 235.889 148.103C234.253 150.745 224.661 152.687 220.781 152.687C216.9 152.687 213.168 149.563 211.864 147.975Z" fill="#E8935A"/>
<path fill-rule="evenodd" clip-rule="evenodd" d="M194.812 120.12C188.267 120.4 186.729 109.071 192.005 107.047C187.371 88.8688 196.045 69.2465 214.968 64.9248C228.063 61.9328 242.938 69.1493 247.1 88.4597C249.894 101.421 250.265 114.47 246.66 123.254C237.882 144.664 202.092 142.817 194.812 120.12Z" fill="#FFB685"/>
<path fill-rule="evenodd" clip-rule="evenodd" d="M194.812 120.12C193.113 120.567 191.784 119.343 190.83 118.437C192.726 119.046 194.598 118.967 196.527 117.198C202.054 138.833 232.552 142.235 243.59 128.578C231.53 144.146 201.422 140.727 194.812 120.12Z" fill="#FFB685"/>
<path fill-rule="evenodd" clip-rule="evenodd" d="M192.695 85.2256C195.161 77.9775 199.931 71.7449 206.748 67.9233C207.271 68.4873 207.847 68.9287 208.593 68.9532C211.964 69.067 230.569 68.7305 237.949 72.7336C245.327 76.7381 249.962 105.229 247.813 94.5662C245.398 82.5778 226.326 84.8598 218.373 83.221C213.184 82.1513 208.92 79.5766 208.92 79.5766C206.961 88.9505 206.276 90.4327 200.135 96.7935C196.772 100.277 195.496 102.734 195.274 108.581C192.695 104.807 191.483 94.7018 192.695 85.2256Z" fill="#FFB685"/>
<path d="M263.638 178.7C261.282 173.824 257.908 169.769 253.641 164.93C248.743 170.105 246.267 171.858 244.942 173.025C253.267 179.855 251.503 179.023 251.503 179.023C247.14 180.475 228.597 180.072 228.597 180.072C228.597 180.072 227.983 178.137 227.233 176.926C226.483 175.717 226.143 168.137 225.529 166.121C225.435 165.811 225.327 165.545 225.214 165.317C224.595 164.649 224.201 164.751 223.977 164.957C223.977 164.957 223.739 165.319 223.739 165.32C223.646 165.52 223.558 165.744 223.48 166.002C222.867 168.018 222.526 175.598 221.776 176.807C221.026 178.017 220.412 179.952 220.412 179.952C220.412 179.952 201.869 180.355 197.506 178.904C197.506 178.904 195.78 180.439 202.896 174.789C202.101 174.396 199.011 170.777 193.755 166.394C189.489 171.234 187.728 173.705 185.372 178.581C179.373 191 217.004 188.581 223.685 185.517C223.685 185.517 224.072 185.539 224.465 185C224.883 185.662 225.325 185.637 225.325 185.637C232.006 188.7 269.637 191.119 263.638 178.7Z" fill="#FFB685"/>
<path fill-rule="evenodd" clip-rule="evenodd" d="M251.559 160.09C248.379 165.101 248.555 164.937 243.984 168.437L245.039 172.812C249.803 170.121 249.709 170.287 253.644 164.735C253.28 163.544 252.346 161.511 251.559 160.09Z" fill="#DB4F30"/>
<path fill-rule="evenodd" clip-rule="evenodd" d="M195.859 161.517C199.064 166.568 200.04 167.562 204.258 170.625L202.852 174.562C198.05 171.849 197.724 171.794 193.757 166.199C194.124 164.999 195.066 162.949 195.859 161.517Z" fill="#DB4F30"/>
<path fill-rule="evenodd" clip-rule="evenodd" d="M255.819 240.415C244.433 249.378 204.58 250.899 193.6 241.662L193.985 237.401C209.228 246.425 241.059 245.124 255.222 235.566L255.819 240.415Z" fill="#DB4F30"/>
<path fill-rule="evenodd" clip-rule="evenodd" d="M207.596 149.125C209.435 148.119 211.915 147.066 213.842 146.845C215.361 152.955 228.904 154.347 231.453 146.296C232.979 146.503 234.872 146.814 236.75 147.545C232.879 160.75 213.479 161.173 207.596 149.125Z" fill="#DB4F30"/>
<path fill-rule="evenodd" clip-rule="evenodd" d="M199.828 68.6275L198.41 64.2748C201.931 60.7844 214.024 56.3333 217.347 55.814L219.002 60.5954C217.243 61.8633 199.828 68.6275 199.828 68.6275Z" fill="#219487"/>
<path opacity="0.3" fill-rule="evenodd" clip-rule="evenodd" d="M231.865 112.363C231.753 117.489 225.31 117.445 224.9 113.742C225.651 114.033 226.547 114.496 227.946 114.379C229.151 114.28 230.84 113.747 231.865 112.363Z" fill="#020100"/>
<path fill-rule="evenodd" clip-rule="evenodd" d="M193.066 114.155C193.066 114.155 192.291 112.47 193.585 112.08C194.256 111.877 194.656 112.608 194.874 113.347C195.074 114.028 195.12 114.72 195.083 114.69C195.083 114.69 194.9 114.37 194.639 114.043C194.154 113.438 193.402 112.807 193.066 114.155Z" fill="#FAA66E"/>
<path fill-rule="evenodd" clip-rule="evenodd" d="M207.15 74.7605C207.15 74.7605 211.84 80.5062 220.571 81.3729C229.301 82.2414 239.595 83.6939 243.514 86.8719C247.431 90.0499 248.791 98.7898 248.791 98.7898C257.172 73.7674 230.326 47.7112 201.826 65.9467C189.211 74.0177 181.068 95.1909 188.87 113.663C188.465 109.737 192.383 106.394 195.292 108.677C194.835 102.445 195.71 99.7917 199.072 95.8052C202.272 92.0099 207.172 85.9006 207.15 74.7605Z" fill="#020202"/>
<path fill-rule="evenodd" clip-rule="evenodd" d="M228.558 82.3315C234.282 83.1719 239.68 84.3904 242.683 86.2808C244.868 82.4807 246.057 78.6342 246.613 75.002C244.927 71.9662 242.725 69.2362 240.109 66.9595C238.203 73.4227 233.972 78.516 228.558 82.3315ZM186.746 89.5638C186.052 92.8249 185.725 96.223 185.833 99.6609C188.203 102.224 191.273 104.619 195.18 106.156C195.145 101.641 196.202 99.2098 199.07 95.8056C200.151 94.5242 201.426 92.9794 202.638 91.0662C196.688 91.5146 191.085 90.9918 186.746 89.5638Z" fill="#424242"/>
<path fill-rule="evenodd" clip-rule="evenodd" d="M245.35 94.6971C243.559 92.6728 240.044 92.1473 238.344 92.2152C235.127 92.3433 236.643 89.766 238.197 89.5223C241.128 89.0638 244.429 90.8038 246.116 93.1658C247.448 95.0309 247.486 97.1103 245.35 94.6971Z" fill="black"/>
<path fill-rule="evenodd" clip-rule="evenodd" d="M204.738 96.0645C206.617 93.7913 210.333 92.7737 212.131 92.6039C215.537 92.2815 213.912 89.9177 212.266 89.8914C209.163 89.8429 205.682 92.0426 203.915 94.6405C202.52 96.691 202.494 98.7744 204.738 96.0645Z" fill="black"/>
<path fill-rule="evenodd" clip-rule="evenodd" d="M245.599 94.6966C243.808 92.6727 240.293 92.1473 238.593 92.2138C235.376 92.3416 236.892 89.7651 238.446 89.521C241.376 89.0638 244.678 90.8033 246.365 93.1641C247.698 95.0313 247.734 97.1086 245.599 94.6966Z" fill="black"/>
<path fill-rule="evenodd" clip-rule="evenodd" d="M204.987 96.0642C206.866 93.7909 210.581 92.7729 212.38 92.6036C215.787 92.2829 214.162 89.9164 212.515 89.8924C209.411 89.8443 205.932 92.0418 204.165 94.6401C202.769 96.692 202.743 98.7758 204.987 96.0642Z" fill="black"/>
<path d="M235.049 110.393C235.049 110.393 241.924 113.688 244.808 109.292C248.324 103.935 243.554 99.1546 240.285 99.7798C237.26 100.36 234.396 103.386 235.049 110.393Z" fill="#F9FEFF"/>
<path d="M245.672 102.191C244.47 100.065 242.755 99.2987 240.852 99.3958C238.905 99.4947 236.864 101.06 236.228 102.781C237.361 100.871 239.19 100.277 240.32 100.061C242.122 99.7117 244.407 100.877 245.362 102.953C246.211 104.801 246.006 107.464 244.715 109.429C246.19 108.137 246.924 104.407 245.672 102.191Z" fill="black"/>
<path d="M236.92 104.65C236.182 106.614 236.863 108.95 238.441 109.867C240.019 110.786 241.895 109.939 242.633 107.976C243.371 106.012 242.69 103.676 241.112 102.757C239.535 101.839 237.657 102.687 236.92 104.65Z" fill="black"/>
<path d="M237.204 104.046C236.999 104.59 237.188 105.239 237.625 105.494C238.064 105.749 238.584 105.514 238.79 104.969C238.995 104.424 238.805 103.776 238.367 103.522C237.93 103.266 237.409 103.501 237.204 104.046Z" fill="#FEFFFE"/>
<path d="M219.637 112.236C219.637 112.236 212.936 116.088 209.822 111.925C206.027 106.853 210.548 101.687 213.849 102.05C216.904 102.387 219.926 105.178 219.637 112.236Z" fill="#F9FEFF"/>
<path d="M208.587 104.894C209.678 102.672 211.354 101.767 213.262 101.708C215.214 101.651 217.335 103.051 218.062 104.723C216.829 102.905 214.969 102.458 213.827 102.331C212.009 102.129 209.784 103.478 208.938 105.632C208.185 107.548 208.529 110.195 209.921 112.056C208.379 110.882 207.45 107.21 208.587 104.894Z" fill="black"/>
<path d="M211.795 107.567C211.355 109.668 212.366 111.817 214.054 112.366C215.743 112.915 217.469 111.657 217.911 109.555C218.351 107.453 217.341 105.305 215.652 104.756C213.964 104.208 212.237 105.466 211.795 107.567Z" fill="black"/>
<path d="M211.988 106.908C211.866 107.491 212.146 108.086 212.614 108.238C213.083 108.391 213.562 108.043 213.684 107.458C213.806 106.877 213.526 106.281 213.057 106.128C212.589 105.976 212.11 106.325 211.988 106.908Z" fill="#FEFFFE"/>
<path fill-rule="evenodd" clip-rule="evenodd" d="M233.354 125.13C232.807 126.51 230.767 128.988 226.675 129.007C223.11 129.023 220.616 126.787 219.654 125.082C219.069 124.045 219.14 123.031 219.752 123.757C225.081 130.059 231.426 126.282 232.751 124.695C233.251 124.095 233.687 124.29 233.354 125.13Z" fill="#B13B32"/>
<path fill-rule="evenodd" clip-rule="evenodd" d="M253.642 164.736C250.963 168.52 248.041 170.865 244.944 172.83C244.617 171.36 244.29 169.925 243.956 168.542C243.949 168.503 243.942 168.468 243.932 168.433C246.878 166.171 249.616 163.148 251.557 160.09C252.345 161.512 253.28 163.546 253.642 164.736Z" fill="#DB4F30"/>
<path fill-rule="evenodd" clip-rule="evenodd" d="M203.766 170.096C203.762 170.126 203.755 170.157 203.748 170.192C203.463 171.605 203.182 173.079 202.897 174.593C199.638 172.563 196.566 170.161 193.757 166.197C194.122 164.999 195.065 162.951 195.859 161.516C197.863 164.675 200.711 167.794 203.766 170.096Z" fill="#DB4F30"/>
<path fill-rule="evenodd" clip-rule="evenodd" d="M255.818 240.415C244.435 249.379 204.578 250.897 193.599 241.662L193.985 237.401C209.229 246.426 241.06 245.122 255.221 235.567L255.291 236.123L255.737 239.75L255.818 240.415Z" fill="#DB4F30"/>
<path fill-rule="evenodd" clip-rule="evenodd" d="M236.75 147.542C236.729 147.612 236.711 147.678 236.687 147.744C236.272 149.095 235.695 150.307 234.981 151.384C233.941 152.963 232.615 154.249 231.107 155.247C226.92 158.016 221.327 158.545 216.472 156.857C213.666 155.885 211.107 154.17 209.208 151.72C208.663 151.02 208.175 150.255 207.753 149.432C207.697 149.332 207.644 149.231 207.595 149.126C209.437 148.12 211.915 147.065 213.842 146.847C215.361 152.954 228.903 154.345 231.452 146.295C232.981 146.501 234.872 146.816 236.75 147.542Z" fill="#DB4F30"/>
</svg>
