<svg width="220" height="240" viewBox="0 0 220 240" fill="none" xmlns="http://www.w3.org/2000/svg">
<path fill-rule="evenodd" clip-rule="evenodd" d="M106.782 66.8538C106.782 66.8538 104.778 68.224 104 69.9106C103.221 71.5961 100.682 82.8692 100.682 82.8692L106.319 84.973L106.782 66.8538Z" fill="#C4A10C"/>
<path fill-rule="evenodd" clip-rule="evenodd" d="M118.098 52.3092C118.098 52.3092 122.603 61.6606 118.618 69.3318C114.634 77.0036 105.11 68.7702 109.135 53.2321C113.161 37.6943 118.098 52.3092 118.098 52.3092Z" fill="#202023"/>
<path fill-rule="evenodd" clip-rule="evenodd" d="M118.459 49.7898C118.459 49.7898 119.326 44.3577 119.21 41.6133C119.095 38.8698 118.055 36.2097 117.29 36.5178C117.29 36.5178 116.568 33.8582 115.659 32.8504C114.749 31.842 112.742 30.6382 109.956 33.83C107.17 37.022 107.205 42.3415 107.18 44.1893C107.155 46.0377 118.459 49.7898 118.459 49.7898Z" fill="#202023"/>
<path fill-rule="evenodd" clip-rule="evenodd" d="M92.5426 230.809C92.5426 230.809 93.3634 230.372 93.6323 228.244C93.9012 226.116 94.0797 219.732 94.176 217.642C94.2723 215.551 95.0995 210.922 95.0995 210.922L97.8138 213.274L98.1795 214.469L97.4525 217.712C97.4525 217.712 97.891 219.061 97.4677 220.965C97.0438 222.868 95.119 232.799 94.4263 233.246C93.7335 233.695 92.0586 232.762 92.0586 232.762C92.0586 232.762 92.1065 231.511 92.1598 231.296C92.2126 231.082 92.3353 230.853 92.5426 230.809Z" fill="#E6AD83"/>
<path fill-rule="evenodd" clip-rule="evenodd" d="M117.57 212.565C117.566 215.506 117.587 217.995 117.669 219.879C117.709 220.791 118.452 228.386 118.452 228.386L118.852 231.47L118.792 232.739L117.008 233.56L115.324 231.208C115.324 231.208 114.944 223.108 115.034 221.578C115.124 220.047 115.248 219.165 115.248 219.165L115.39 218.786C115.227 216.715 115.061 214.641 114.893 212.565H117.57Z" fill="#E6AD83"/>
<path fill-rule="evenodd" clip-rule="evenodd" d="M118.452 228.387C118.452 228.387 118.82 230.344 118.991 230.794C119.161 231.246 119.862 232.751 119.97 233.236C120.077 233.721 120.283 235.21 119.448 235.21C118.613 235.21 117.258 235.21 116.458 235.21C115.659 235.21 114.986 234.725 114.977 233.286C114.968 231.848 114.914 226.747 114.806 225.643C114.698 224.54 114.42 223.285 114.555 222.198C114.689 221.111 115.147 219.204 115.219 219.037C115.251 218.96 115.315 218.866 115.39 218.786L115.303 219.751C115.278 219.946 115.258 220.175 115.245 220.442C115.174 222.03 115.478 229.205 115.478 229.808C115.478 230.409 115.802 230.794 116.394 231.112C116.987 231.43 118.208 231.715 118.666 230.862C118.666 230.862 118.738 230.731 118.699 230.422C118.662 230.113 118.452 228.387 118.452 228.387Z" fill="#202023"/>
<path fill-rule="evenodd" clip-rule="evenodd" d="M103.53 114.381C101.559 140.336 95.485 193.003 93.482 211.369C93.482 211.369 93.3667 212.34 93.7514 212.938C94.1367 213.534 96.2536 215.774 97.6014 215.849C97.6014 215.849 98.3328 216.147 98.6408 215.177C99.6352 212.044 108.463 145.36 111.731 130.136C111.731 130.136 112.793 108.753 110.806 102.959C108.819 97.1643 103.856 105.253 103.856 105.253L103.53 114.381Z" fill="#C4A10C"/>
<path fill-rule="evenodd" clip-rule="evenodd" d="M107.129 105.01C107.129 105.01 109.978 106.279 110.362 115.762C112.03 156.833 114.079 172.984 114.309 216.221C114.963 217.754 117.579 217.567 118.332 216.221C119.271 196.478 123.039 129.838 121.085 114.233C119.776 103.78 118.005 100.794 107.129 105.01Z" fill="#C4A10C"/>
<path fill-rule="evenodd" clip-rule="evenodd" d="M106.782 66.8539C106.782 66.8539 105.494 73.2234 105.239 74.1786C104.983 75.1331 103.962 79.3914 103.749 81.5205C103.536 83.6497 103.962 86.66 104.388 88.2748L104.395 109.434C108.559 111.649 113.723 110.878 117.886 109.434L117.205 100.589L120.656 68.2343L115.583 65.037L112.199 66.7259L110.827 64.9452L106.782 66.8539Z" fill="#707070"/>
<path fill-rule="evenodd" clip-rule="evenodd" d="M115.582 57.6625H110.825V67.8911H112.715L115.582 65.7287V57.6625Z" fill="#D77F68"/>
<path fill-rule="evenodd" clip-rule="evenodd" d="M107.998 48.1894C107.962 48.1994 107.926 48.2114 107.891 48.2267L107.889 48.2272H107.89C107.233 48.5027 106.738 49.6276 106.73 50.9854C106.72 52.5631 107.372 53.858 108.186 53.8769C108.999 53.8954 109.666 52.6321 109.676 51.0542C109.682 50.1372 109.464 49.3156 109.121 48.7849C109.162 49.628 109.096 50.6732 108.541 50.7854L108.552 49.1376C108.556 48.4705 108.234 48.1683 107.998 48.1894Z" fill="#D77F68"/>
<path fill-rule="evenodd" clip-rule="evenodd" d="M117.708 48.1864C117.744 48.1956 117.78 48.2069 117.816 48.2207L117.817 48.2211C118.475 48.4789 118.978 49.5904 118.996 50.9477C119.017 52.5251 118.375 53.8376 117.561 53.8782C116.748 53.9189 116.071 52.6736 116.05 51.096C116.038 50.1789 116.25 49.3517 116.589 48.8122C116.554 49.656 116.627 50.6993 117.183 50.7964L117.161 49.1486C117.152 48.4822 117.472 48.1713 117.708 48.1864Z" fill="#D77F68"/>
<path fill-rule="evenodd" clip-rule="evenodd" d="M112.863 62.4984C115.613 62.4984 117.908 55.9169 117.908 50.7203V43.8169C117.908 38.4362 115.638 34.0344 112.864 34.0344H112.863C110.09 34.0344 107.819 38.4364 107.819 43.8169V50.5738C107.819 56.2691 109.82 62.4984 112.863 62.4984Z" fill="#E6AD83"/>
<path fill-rule="evenodd" clip-rule="evenodd" d="M112.726 51.3785C112.632 51.8735 112.468 52.7696 112.482 52.9202C112.501 53.1302 113.06 53.3249 113.207 53.0482C113.305 52.864 113.184 52.0556 113.078 51.5116C112.933 50.7698 112.853 50.7118 112.726 51.3785Z" fill="#EBBF9E"/>
<path fill-rule="evenodd" clip-rule="evenodd" d="M107.819 48.6767C107.819 48.6767 108.142 58.1669 110.984 61.6347C110.984 61.6347 108.002 58.9973 107.819 50.7202C107.819 50.5738 107.819 48.5604 107.819 48.5604V48.6767Z" fill="#D39D79"/>
<path fill-rule="evenodd" clip-rule="evenodd" d="M98.7838 220.929C98.7838 220.929 99.2062 221.181 99.0752 222.769C98.9442 224.358 98.2817 225.394 98.2817 228.539C98.2817 231.683 98.2817 234.534 98.2817 234.534C98.2817 234.534 98.3008 235.21 98.0695 235.21C97.8388 235.21 98.0114 235.21 97.919 235.21C97.8266 235.21 97.7415 235.051 97.7415 234.527C97.7415 234.003 97.7415 228.852 97.7415 227.849C97.7415 226.845 97.5244 224.883 97.3108 224.527C97.0966 224.17 98.7838 220.929 98.7838 220.929Z" fill="#202023"/>
<path fill-rule="evenodd" clip-rule="evenodd" d="M97.4531 217.712C97.4531 217.712 98.6392 218.903 99.2077 221.082C99.2077 221.082 99.285 221.558 99.044 221.882C98.8034 222.205 97.2209 224.792 96.9129 226.461C96.6039 228.129 96.1018 231.431 95.8901 232.725C95.678 234.019 95.215 235.21 94.424 235.21C93.6334 235.21 91.0682 235.21 90.2777 235.21C89.4872 235.21 89.757 233.916 90.3256 233.252C90.8947 232.588 92.1477 230.938 92.3115 230.818C92.4757 230.699 92.5432 230.809 92.5432 230.809C92.5432 230.809 92.3643 230.963 92.4224 231.235C92.4801 231.507 92.9035 231.363 93.323 231.363C93.7424 231.363 94.3638 230.946 94.6821 229.668C95.0004 228.392 96.2245 221.702 96.3404 221.089C96.4563 220.476 97.2566 219.166 97.4531 217.712Z" fill="#202023"/>
<path fill-rule="evenodd" clip-rule="evenodd" d="M120.654 68.2345C120.654 68.2345 121.658 69.0796 122.139 69.7893C122.532 70.3701 127.276 82.8268 128.844 87.9813C130.23 92.5413 128.986 95.4597 127.163 99.8791C125.777 103.239 122.697 110.257 122.697 110.257C122.697 110.257 122.504 110.743 122.254 110.519C122.004 110.295 120.214 103.016 120.214 103.016C120.214 103.016 120.04 102.643 120.348 101.859C120.656 101.074 123.668 92.1895 123.668 92.1895L120.257 82.0739C120.257 82.0739 118.443 75.2791 120.654 68.2345Z" fill="#C4A10C"/>
<path fill-rule="evenodd" clip-rule="evenodd" d="M117.906 50.7202L117.357 46.4084C117.357 46.4084 115.588 43.8917 116.217 40.3891C116.845 36.8864 116.969 37.2331 116.969 37.2331C116.969 37.2331 119.326 39.292 118.276 48.5762L117.906 50.7202Z" fill="#202023"/>
<path fill-rule="evenodd" clip-rule="evenodd" d="M107.818 50.7202L108.368 46.4084C108.368 46.4084 110.137 43.8917 109.508 40.3891C108.88 36.8864 108.757 37.2331 108.757 37.2331C108.757 37.2331 106.4 39.292 107.449 48.5762L107.818 50.7202Z" fill="#202023"/>
<path d="M112.085 46.8902C112.085 46.8902 111.805 47.2904 110.93 46.2562C109.964 45.1169 108.979 45.3395 108.87 45.5097C108.87 45.5097 110.526 43.8162 112.085 46.8902Z" fill="#030000"/>
<path d="M113.758 46.8075C113.758 46.8075 114.034 47.2191 114.92 46.222C115.897 45.1237 116.881 45.3875 116.987 45.5622C116.987 45.5622 115.351 43.7998 113.758 46.8075Z" fill="#030000"/>
<path fill-rule="evenodd" clip-rule="evenodd" d="M116.833 45.4316L115.239 41.9221C115.239 41.9221 115.044 41.5861 115.081 41.0959C115.117 40.6059 114.979 40.0179 114.554 40.7739C114.128 41.5294 111.097 46.2185 108.411 43.9723L108.757 37.2332C108.757 37.2332 110.547 32.5987 114.041 33.4387C117.535 34.2787 117.619 40.5683 117.619 40.5683L116.833 45.4316Z" fill="#202023"/>
<path fill-rule="evenodd" clip-rule="evenodd" d="M117.409 46.7818C117.34 46.7572 117.277 46.7116 117.203 46.6509C116.611 45.8067 115.195 45.3923 112.992 45.4193C112.945 45.4196 112.906 45.42 112.876 45.42C112.847 45.42 112.808 45.4196 112.761 45.4193C110.558 45.3923 109.141 45.8067 108.549 46.6509C108.474 46.7114 108.4 46.7572 108.332 46.7818C108.124 46.8554 107.819 47.0129 107.819 47.0129V47.9098C107.819 47.9098 108.093 47.878 108.162 48.1947C108.23 48.5109 108.291 49.8102 108.485 50.5782C108.747 51.612 109.176 52.4514 109.93 52.6245C110.76 52.8145 111.37 52.4436 111.841 51.6318C112.414 50.6463 112.454 49.2227 112.381 48.0047C112.381 48.0047 112.566 47.8358 112.877 47.8358C113.188 47.8358 113.373 48.0047 113.373 48.0047C113.3 49.2227 113.339 50.6463 113.912 51.6318C114.384 52.4436 114.992 52.8145 115.822 52.6245C116.575 52.4514 117.003 51.612 117.265 50.5782C117.46 49.8102 117.511 48.5109 117.579 48.1947C117.648 47.878 117.908 47.9098 117.908 47.9098V47.0129C117.908 47.0127 117.616 46.8551 117.409 46.7818ZM111.909 50.804C111.663 51.5427 111.09 52.2851 110.25 52.2494C109.411 52.2143 109.008 51.5589 108.754 50.6762C108.484 49.7452 108.377 48.305 108.568 47.5607C108.759 46.8167 109.392 46.2743 110.302 46.2849C111.213 46.2956 111.741 47.0709 111.926 47.6033C112.303 48.6881 112.173 50.0116 111.909 50.804ZM112.877 47.3398C112.636 47.3398 112.35 47.4192 112.287 47.4718C112.287 47.4718 112.063 46.512 111.211 46.1214C110.794 45.9303 110.42 45.8676 110.091 45.8871C110.782 45.6892 111.674 45.5958 112.76 45.6089C112.808 45.6096 112.847 45.61 112.877 45.61C112.908 45.61 112.946 45.6096 112.994 45.6089C114.081 45.5958 114.972 45.6894 115.665 45.8871C115.335 45.8678 114.961 45.9303 114.543 46.1214C113.691 46.512 113.467 47.4718 113.467 47.4718C113.404 47.4192 113.118 47.3398 112.877 47.3398ZM117.001 50.6765C116.745 51.5589 116.344 52.2143 115.504 52.2496C114.665 52.2851 114.091 51.5429 113.845 50.8042C113.581 50.0118 113.451 48.6883 113.828 47.6036C114.013 47.0712 114.541 46.2958 115.452 46.2851C116.363 46.2745 116.995 46.817 117.186 47.561C117.378 48.3054 117.27 49.7454 117.001 50.6765Z" fill="#202023"/>
<path fill-rule="evenodd" clip-rule="evenodd" d="M111.288 72.5753C111.085 72.5753 110.903 72.8935 110.879 73.285C110.856 73.6773 111.001 73.9954 111.203 73.9954C111.406 73.9954 111.588 73.6773 111.612 73.285C111.635 72.8928 111.49 72.5753 111.288 72.5753Z" fill="#DBDADB"/>
<path fill-rule="evenodd" clip-rule="evenodd" d="M109.819 80.0447C109.617 80.0447 109.434 80.3628 109.411 80.7551C109.387 81.1466 109.532 81.4648 109.734 81.4648C109.937 81.4648 110.119 81.1473 110.143 80.7551C110.166 80.3628 110.021 80.0447 109.819 80.0447Z" fill="#DBDADB"/>
<path fill-rule="evenodd" clip-rule="evenodd" d="M119.417 100.375C118.605 98.2759 118.455 97.6972 118.455 97.6972L116.875 96.5438C116.318 97.5347 117.404 98.23 117.713 98.5646C117.88 98.747 117.666 98.8437 118.04 100.129C118.04 100.129 117.439 99.2037 116.801 99.633C116.163 100.062 115.712 100.417 115.712 100.417C115.699 101.004 115.566 101.28 115.829 101.456C116.067 101.616 116.914 100.915 117.088 101.114L117.892 102.04C117.164 101.987 117.181 101.931 116.623 102.332C116.446 102.459 115.93 102.789 115.866 102.966C115.694 103.442 115.938 104.009 116.257 104.09C116.6 104.178 117.18 103.69 117.483 103.695C117.709 103.699 117.869 103.685 117.59 103.917C117.396 104.078 116.732 104.403 116.572 104.685C116.334 105.11 116.631 105.934 116.962 105.789C117.293 105.643 118.175 104.939 118.422 105.286C118.67 105.634 119.304 107.031 119.958 106.617C120.722 106.134 121.041 106.491 121.092 106.173C121.196 105.522 120.619 103.332 120.318 102.187C120.175 101.644 119.954 101.762 119.417 100.375Z" fill="#E6AD91"/>
<path fill-rule="evenodd" clip-rule="evenodd" d="M108.109 94.1808C108.183 92.9026 108.695 92.086 109.244 90.3106C109.794 88.536 109.628 88.3584 109.628 88.3584C109.628 88.3584 110.361 87.8606 110.379 89.7429C110.397 91.6245 110.526 91.7671 110.526 91.7671L112.155 90.5595L111.825 89.3527C111.825 89.3527 113.015 89.1045 113.217 90.347C113.418 91.5895 113.272 91.8377 113.272 91.8377C113.272 91.8377 113.583 92.1573 113.638 92.974C113.693 93.7906 113.546 94.3941 113.546 94.3941C113.546 94.3941 113.858 94.8199 113.949 95.9205C114.041 97.021 112.65 98.4768 111.423 99.0096C110.196 99.5424 109.025 99.0096 109.025 99.0096L108.109 94.1808Z" fill="#E6AD91"/>
<path d="M110.906 49.6625C110.906 49.9483 110.787 50.1803 110.638 50.1803C110.49 50.1803 110.371 49.9483 110.371 49.6625C110.371 49.3758 110.49 49.1438 110.638 49.1438C110.787 49.1436 110.906 49.3758 110.906 49.6625Z" fill="#040000"/>
<path d="M110.528 49.2856C110.528 49.4294 110.467 49.5485 110.392 49.5485C110.317 49.5485 110.257 49.4294 110.257 49.2856C110.257 49.1409 110.317 49.0227 110.392 49.0227C110.467 49.0227 110.528 49.1409 110.528 49.2856Z" fill="#F0F0ED"/>
<path d="M114.819 49.6625C114.819 49.9483 114.94 50.1803 115.087 50.1803C115.235 50.1803 115.355 49.9483 115.355 49.6625C115.355 49.3758 115.235 49.1438 115.087 49.1438C114.94 49.1436 114.819 49.3758 114.819 49.6625Z" fill="#040000"/>
<path d="M115.199 49.2856C115.199 49.4294 115.259 49.5485 115.334 49.5485C115.409 49.5485 115.47 49.4294 115.47 49.2856C115.47 49.1409 115.409 49.0227 115.334 49.0227C115.258 49.0227 115.199 49.1409 115.199 49.2856Z" fill="#F0F0ED"/>
<path d="M116.709 48.8636C116.709 48.8636 115.856 47.6996 115.165 48.212C114.475 48.7235 114.163 49.7067 114.056 50.364C114.056 50.364 114.143 50.17 114.508 50.34C114.874 50.5098 116.023 50.9333 116.709 48.8636Z" fill="white"/>
<path d="M114.821 48.5223C114.821 48.5223 114.477 49.8092 115.143 50.4683C115.238 50.4612 115.702 50.4601 115.848 50.1323C115.995 49.8034 116.243 48.8508 115.691 48.129C115.329 48.1063 115.109 48.1398 114.821 48.5223Z" fill="#512C0E"/>
<path d="M115.728 49.2873C115.728 49.6373 115.58 49.9189 115.397 49.9189C115.214 49.9189 115.066 49.6373 115.066 49.2873C115.066 48.9393 115.214 48.656 115.397 48.656C115.58 48.656 115.728 48.9395 115.728 49.2873Z" fill="#331B0E"/>
<path d="M115.148 49.1321C115.148 49.2668 115.092 49.376 115.022 49.376C114.953 49.376 114.896 49.2668 114.896 49.1321C114.896 48.9963 114.953 48.8875 115.022 48.8875C115.092 48.8872 115.148 48.9963 115.148 49.1321Z" fill="white"/>
<path opacity="0.5" d="M114.896 49.7583C114.896 49.7583 115.423 50.6325 115.898 49.5652C115.746 50.0647 115.428 50.7823 114.896 49.7583Z" fill="white"/>
<path opacity="0.7" d="M114.056 50.364C114.234 49.6464 114.997 47.4262 116.527 49.2875C116.592 49.0769 116.65 48.8876 116.65 48.8876C116.65 48.8876 114.74 46.3217 114.056 50.364Z" fill="#C2C6CC"/>
<path d="M114.056 50.364C114.129 49.8626 114.261 49.3893 114.445 49.0035C114.631 48.6189 114.877 48.3429 115.144 48.2277C115.411 48.1082 115.69 48.1513 115.955 48.262C116.22 48.3775 116.474 48.5704 116.716 48.8006L116.74 48.8233L116.731 48.8679C116.629 49.3324 116.452 49.7075 116.242 49.9817C116.031 50.2575 115.785 50.4177 115.536 50.4844C115.286 50.55 115.033 50.5333 114.786 50.4628C114.66 50.4295 114.542 50.3498 114.42 50.3084C114.3 50.2664 114.169 50.2504 114.056 50.364ZM114.056 50.364C114.166 50.2424 114.3 50.2488 114.422 50.283C114.546 50.3164 114.666 50.3882 114.789 50.412C115.036 50.4682 115.285 50.4773 115.53 50.4024C115.772 50.3246 116.01 50.1673 116.213 49.8984C116.415 49.6348 116.586 49.2602 116.678 48.8313L116.692 48.8987C116.451 48.6737 116.202 48.4766 115.943 48.3613C115.684 48.2478 115.414 48.2086 115.154 48.3131C114.894 48.4146 114.652 48.672 114.466 49.0422C114.279 49.4082 114.138 49.8682 114.056 50.364Z" fill="#AF6E58"/>
<path d="M114.056 50.3641C114.056 50.365 114.294 48.8196 115.061 48.3957C115.446 48.1834 115.963 48.3006 116.65 48.9385C116.71 49.007 116.9 48.9772 117.047 48.7919C116.848 48.7585 115.802 47.4056 114.957 48.0816C114.591 48.375 114.258 49.0021 114.056 50.3641Z" fill="#331B0E"/>
<path d="M109.153 49.0858C109.153 49.0858 110.007 47.9217 110.698 48.4342C111.389 48.9457 111.7 49.9288 111.808 50.5862C111.808 50.5862 111.72 50.3922 111.355 50.5622C110.989 50.7319 109.84 51.1555 109.153 49.0858Z" fill="white"/>
<path d="M111.042 48.7445C111.042 48.7445 111.386 50.0314 110.72 50.6905C110.625 50.6834 110.161 50.6823 110.015 50.3545C109.868 50.0256 109.619 49.0729 110.173 48.3511C110.534 48.3285 110.754 48.362 111.042 48.7445Z" fill="#512C0E"/>
<path d="M110.134 49.5096C110.134 49.8596 110.282 50.1412 110.465 50.1412C110.648 50.1412 110.796 49.8596 110.796 49.5096C110.796 49.1616 110.648 48.8783 110.465 48.8783C110.282 48.8783 110.134 49.1618 110.134 49.5096Z" fill="#331B0E"/>
<path d="M110.714 49.3544C110.714 49.4891 110.77 49.5982 110.84 49.5982C110.909 49.5982 110.966 49.4891 110.966 49.3544C110.966 49.2186 110.909 49.1097 110.84 49.1097C110.77 49.1095 110.714 49.2186 110.714 49.3544Z" fill="white"/>
<path opacity="0.5" d="M110.967 49.9805C110.967 49.9805 110.44 50.8547 109.965 49.7874C110.117 50.2869 110.435 51.0044 110.967 49.9805Z" fill="white"/>
<path opacity="0.7" d="M111.809 50.5863C111.63 49.8687 110.867 47.6485 109.337 49.5099C109.272 49.2991 109.214 49.1098 109.214 49.1098C109.214 49.1098 111.124 46.5441 111.809 50.5863Z" fill="#C2C6CC"/>
<path d="M111.807 50.5862C111.725 50.0905 111.585 49.6304 111.396 49.2647C111.211 48.8945 110.969 48.6371 110.709 48.5355C110.449 48.4311 110.179 48.4702 109.92 48.5838C109.66 48.6989 109.411 48.8962 109.171 49.1212L109.185 49.0538C109.277 49.4829 109.448 49.8573 109.65 50.1211C109.852 50.39 110.091 50.5474 110.333 50.6251C110.577 50.7 110.827 50.6909 111.074 50.6345C111.196 50.6107 111.317 50.5387 111.441 50.5053C111.563 50.4711 111.697 50.4647 111.807 50.5862ZM111.807 50.5862C111.695 50.4727 111.564 50.4887 111.443 50.5304C111.321 50.5716 111.202 50.6516 111.077 50.6849C110.83 50.7553 110.577 50.772 110.327 50.7065C110.078 50.6398 109.832 50.4795 109.621 50.2038C109.411 49.9298 109.233 49.5545 109.132 49.09L109.122 49.0453L109.146 49.0227C109.389 48.7925 109.643 48.5996 109.908 48.484C110.173 48.3733 110.451 48.3302 110.719 48.4498C110.986 48.5649 111.232 48.8409 111.417 49.2256C111.602 49.6114 111.735 50.0849 111.807 50.5862Z" fill="#AF6E58"/>
<path d="M111.807 50.5862C111.807 50.5871 111.569 49.0418 110.802 48.6178C110.418 48.4055 109.899 48.5227 109.212 49.1607C109.152 49.2291 108.962 49.1993 108.816 49.014C109.015 48.9807 110.061 47.6278 110.905 48.3038C111.272 48.5971 111.605 49.2242 111.807 50.5862Z" fill="#331B0E"/>
<path d="M112.811 59.6246C111.976 59.6168 111.968 56.9468 111.985 56.856C112.221 55.6461 112.593 54.9362 112.933 54.9362C113.34 54.9362 113.641 55.9631 113.707 57.0533C113.72 57.1728 113.353 59.6246 112.811 59.6246Z" fill="#AC2436"/>
<path d="M113.723 57.4121C113.74 58.5646 113.321 59.9013 112.779 59.9013C111.944 59.8935 111.866 57.6437 111.936 57.1311C111.953 57.0379 111.966 56.947 111.984 56.856C112.124 57.1937 112.255 57.5388 112.311 57.6717L113.272 58.0444L113.705 57.0532C113.718 57.1728 113.723 57.2924 113.723 57.4121Z" fill="#C82333"/>
<path d="M113.384 57.3493C113.384 57.5896 113.356 57.7809 113.309 57.9842C113.301 58.0218 113.293 58.0609 113.281 58.1038C113.266 58.1683 113.249 58.2312 113.234 58.2896C113.182 58.4731 113.124 58.6512 113.029 58.7785C112.721 59.1907 112.402 58.4031 112.326 58.004C112.298 57.8751 112.275 57.6794 112.271 57.5013C112.267 57.4176 112.267 57.3353 112.275 57.2665C112.291 57.0498 112.35 56.7258 112.457 56.5102C112.615 56.1724 112.824 55.9062 112.903 55.9376C112.922 55.9453 112.946 55.9569 112.97 55.9767C113.053 56.0467 113.147 56.2169 113.23 56.428C113.333 56.6884 113.384 57.0378 113.384 57.3493Z" fill="#44060F"/>
<path d="M113.229 56.4281C113.087 56.6239 112.93 56.7451 112.748 56.6883C112.645 56.657 112.546 56.5986 112.456 56.5103C112.614 56.1726 112.823 55.9064 112.902 55.9377C112.921 55.9455 112.945 55.957 112.969 55.9768C113.052 56.0468 113.147 56.2171 113.229 56.4281Z" fill="#EAEDEF"/>
<path d="M113.309 57.9841C113.301 58.0217 113.294 58.0608 113.282 58.1037C113.266 58.1682 113.25 58.2311 113.234 58.2895C113.199 58.4224 113.159 58.5497 113.1 58.657C113.084 58.6957 113.061 58.7331 113.037 58.7646C113.033 58.7724 113.033 58.7724 113.029 58.7784C112.851 59.0126 112.67 58.8544 112.535 58.6004C112.516 58.5612 112.496 58.5237 112.476 58.479C112.405 58.3208 112.35 58.1368 112.327 58.0039C112.299 57.875 112.275 57.6793 112.271 57.5012C112.271 57.4941 112.275 57.4941 112.275 57.4879C112.626 56.6999 113.25 57.1519 113.309 57.9841Z" fill="#750414"/>
<path fill-rule="evenodd" clip-rule="evenodd" d="M86.8071 55.8912C86.9685 55.757 87.3347 57.2799 87.8255 58.2112C88.3662 59.2364 89.0365 59.711 89.2208 60.2761C89.4432 60.9577 90.4445 63.7694 90.793 64.495C91.0898 65.1125 90.4914 67.4172 90.0651 68.1479C90.1506 68.6689 90.2318 69.2346 90.3076 69.8538C88.6053 68.3941 86.4664 68.211 85.9056 66.8992C85.3449 65.5875 85.9281 63.8843 85.9281 63.8843C85.9281 63.8843 86.6512 62.6937 87.5473 62.7479C87.4852 62.3379 87.4412 61.9194 87.4197 61.4957L87.4266 61.0599C87.3855 61.087 86.1203 56.4623 86.8071 55.8912Z" fill="#E6AD83"/>
<path fill-rule="evenodd" clip-rule="evenodd" d="M92.4106 67.1652L90.3504 63.4414C90.8706 65.9381 90.1612 67.2697 88.9346 69.3786L90.0448 71.7807C91.0632 69.7612 92.1906 67.5761 92.3147 67.5457C92.347 67.5372 92.3793 67.3956 92.4106 67.1652Z" fill="#D77F68"/>
<path fill-rule="evenodd" clip-rule="evenodd" d="M76.3731 11.6694L86.8813 61.5238C87.0158 61.616 87.2187 61.7531 87.2925 61.7878C87.3736 61.8263 87.51 61.6436 87.5819 61.5349C84.038 45.1129 80.3586 28.0651 76.754 11.3631C76.7105 11.1591 76.5897 11.0624 76.4846 11.1471C76.3795 11.2316 76.3296 11.4654 76.3731 11.6694ZM87.6645 63.6036C87.621 63.6476 87.4655 63.6702 87.336 63.6811L88.5245 69.3202C88.6286 69.805 89.2417 69.229 89.138 68.7442L87.8581 62.8154C87.8415 62.9978 87.7349 63.5316 87.6645 63.6036Z" fill="#313132"/>
<path fill-rule="evenodd" clip-rule="evenodd" d="M118.038 52.4237C118.038 52.4237 122.533 61.7566 118.557 69.4128C114.58 77.0695 105.075 68.8526 109.092 53.3451C113.11 37.8378 118.038 52.4237 118.038 52.4237Z" fill="#202023"/>
<path fill-rule="evenodd" clip-rule="evenodd" d="M118.397 49.9093C118.397 49.9093 119.262 44.488 119.146 41.7491C119.031 39.0109 117.994 36.3562 117.23 36.6635C117.23 36.6635 116.509 34.0091 115.601 33.0033C114.694 31.9968 112.691 30.7955 109.91 33.9809C107.129 37.1667 107.164 42.4755 107.14 44.3198C107.115 46.1647 118.397 49.9093 118.397 49.9093Z" fill="#202023"/>
<path fill-rule="evenodd" clip-rule="evenodd" d="M100.205 87.229C98.9127 88.2494 97.5458 86.2032 97.5458 86.2032C97.5458 86.2032 89.505 72.9044 89.1305 72.0528C88.7565 71.2025 88.8206 70.4317 88.8206 70.4317C90.2931 68.9629 91.5833 64.9295 91.5833 64.9295C92.1157 64.2511 92.8368 65.7086 93.5017 66.7298C94.1666 67.7507 97.6127 74.5262 97.6127 74.5262C97.6127 74.5262 99.9692 78.5355 101.655 75.083C101.655 75.083 105.089 68.8354 106.083 67.5251C106.297 67.2422 106.503 67.0273 106.742 66.9399C106.816 66.9127 108.375 68.9444 108.382 68.928L108.709 79.7081C107.804 80.5769 106.846 81.3086 105.843 82.4592C103.504 85.1424 100.985 88.2501 98.7885 87.3963" fill="#C4A10C"/>
<path fill-rule="evenodd" clip-rule="evenodd" d="M108.383 68.928L108.692 79.0882L108.374 80.0222C107.569 80.7627 106.724 81.4491 105.844 82.4585C103.72 84.8969 101.446 87.6836 99.4014 87.5335L106.596 67.6669L107.015 67.224C107.481 67.7767 108.378 68.9396 108.383 68.928Z" fill="#C4A10C"/>
<path fill-rule="evenodd" clip-rule="evenodd" d="M92.5319 230.571C92.5319 230.571 93.3512 230.134 93.6196 228.011C93.8875 225.887 94.066 219.516 94.1618 217.43C94.2581 215.343 95.0839 210.723 95.0839 210.723L97.7928 213.071L98.158 214.263L97.432 217.499C97.432 217.499 97.8695 218.846 97.4471 220.746C97.0243 222.645 95.1034 232.557 94.4116 233.004C93.7199 233.451 92.0488 232.52 92.0488 232.52C92.0488 232.52 92.0967 231.272 92.1495 231.058C92.2023 230.843 92.3246 230.615 92.5319 230.571Z" fill="#E6AD83"/>
<path fill-rule="evenodd" clip-rule="evenodd" d="M117.511 212.362C117.506 215.298 117.528 217.782 117.609 219.662C117.649 220.573 118.391 228.153 118.391 228.153L118.79 231.231L118.73 232.497L116.95 233.317L115.27 230.97C115.27 230.97 114.889 222.886 114.979 221.357C115.069 219.83 115.193 218.951 115.193 218.951L115.335 218.571C115.171 216.505 115.006 214.434 114.838 212.363H117.511V212.362Z" fill="#E6AD83"/>
<path fill-rule="evenodd" clip-rule="evenodd" d="M118.39 228.153C118.39 228.153 118.758 230.106 118.928 230.556C119.098 231.007 119.797 232.509 119.905 232.993C120.013 233.477 120.219 234.963 119.385 234.963C118.552 234.963 117.199 234.963 116.401 234.963C115.604 234.963 114.932 234.479 114.922 233.043C114.913 231.608 114.859 226.517 114.752 225.416C114.644 224.314 114.366 223.061 114.501 221.977C114.635 220.892 115.091 218.988 115.163 218.822C115.197 218.745 115.26 218.651 115.335 218.571L115.248 219.534C115.222 219.73 115.202 219.958 115.191 220.224C115.119 221.809 115.423 228.97 115.423 229.571C115.423 230.172 115.745 230.556 116.337 230.873C116.928 231.191 118.147 231.475 118.604 230.623C118.604 230.623 118.675 230.493 118.637 230.185C118.599 229.875 118.39 228.153 118.39 228.153Z" fill="#202023"/>
<path fill-rule="evenodd" clip-rule="evenodd" d="M103.497 114.373C101.53 140.276 95.4679 192.839 93.4694 211.17C93.4694 211.17 93.354 212.138 93.7383 212.734C94.122 213.33 96.2355 215.566 97.5804 215.64C97.5804 215.64 98.3103 215.938 98.6179 214.97C99.6098 211.843 108.42 145.291 111.681 130.096C111.681 130.096 112.742 108.756 110.759 102.973C108.776 97.1897 103.823 105.263 103.823 105.263L103.497 114.373Z" fill="#C4A10C"/>
<path fill-rule="evenodd" clip-rule="evenodd" d="M107.089 105.021C107.089 105.021 109.932 106.287 110.317 115.751C111.981 156.741 114.026 172.86 114.255 216.012C114.908 217.542 117.519 217.355 118.271 216.012C119.207 196.308 122.968 129.8 121.018 114.225C119.711 103.792 117.944 100.812 107.089 105.021Z" fill="#C4A10C"/>
<path fill-rule="evenodd" clip-rule="evenodd" d="M106.744 66.9396C106.744 66.9396 105.458 73.2967 105.204 74.2498C104.949 75.2023 103.929 79.4523 103.717 81.5774C103.504 83.7024 103.929 86.7065 104.354 88.3186L104.362 109.436C108.517 111.646 113.671 110.877 117.826 109.436L117.145 100.609L120.59 68.3176L115.528 65.1265L112.15 66.812L110.781 65.0349L106.744 66.9396Z" fill="#707070"/>
<path fill-rule="evenodd" clip-rule="evenodd" d="M115.528 57.7665H110.78V67.9749H112.666L115.528 65.8167V57.7665Z" fill="#D77F68"/>
<path fill-rule="evenodd" clip-rule="evenodd" d="M115.528 63.179L112.099 67.9749L113.616 71.8711L116.016 65.4347L115.528 63.179Z" fill="#DBDADB"/>
<path fill-rule="evenodd" clip-rule="evenodd" d="M112.099 67.9748L110.765 63.7806L110.111 65.3504L110.284 70.9584L112.099 67.9748Z" fill="#DBDADB"/>
<path fill-rule="evenodd" clip-rule="evenodd" d="M107.958 48.3119C107.922 48.322 107.886 48.334 107.85 48.3493L107.849 48.3497C107.194 48.6246 106.7 49.7473 106.692 51.1024C106.682 52.6771 107.332 53.9693 108.144 53.9882C108.957 54.0066 109.623 52.7457 109.633 51.171C109.639 50.2557 109.421 49.4357 109.079 48.9062C109.119 49.7477 109.054 50.7906 108.5 50.9026L108.51 49.2582C108.515 48.5926 108.193 48.2908 107.958 48.3119Z" fill="#D77F68"/>
<path fill-rule="evenodd" clip-rule="evenodd" d="M117.648 48.309C117.684 48.3181 117.72 48.3294 117.756 48.3432L117.757 48.3436C118.414 48.601 118.915 49.7103 118.934 51.065C118.955 52.6392 118.313 53.949 117.502 53.9897C116.69 54.0301 116.015 52.7872 115.994 51.213C115.981 50.2976 116.193 49.4723 116.531 48.9339C116.497 49.7759 116.57 50.8174 117.124 50.9143L117.102 49.2699C117.093 48.6043 117.412 48.2938 117.648 48.309Z" fill="#D77F68"/>
<path fill-rule="evenodd" clip-rule="evenodd" d="M112.812 62.5929C115.557 62.5929 117.847 56.0242 117.847 50.8377V43.9479C117.847 38.578 115.581 34.1848 112.813 34.1848H112.812C110.044 34.1848 107.778 38.5782 107.778 43.9479V50.6915C107.778 56.3758 109.776 62.5929 112.812 62.5929Z" fill="#E6AD83"/>
<path d="M111.996 47.7031C111.996 47.7031 111.717 48.1033 110.841 47.0691C109.876 45.9297 108.89 46.1527 108.781 46.3227C108.781 46.3227 110.438 44.6293 111.996 47.7031Z" fill="#030000"/>
<path d="M113.668 47.6207C113.668 47.6207 113.944 48.0323 114.831 47.0352C115.807 45.937 116.791 46.2008 116.898 46.3754C116.898 46.3754 115.261 44.6127 113.668 47.6207Z" fill="#030000"/>
<path fill-rule="evenodd" clip-rule="evenodd" d="M112.676 51.495C112.582 51.989 112.418 52.8835 112.433 53.0337C112.452 53.2432 113.009 53.4375 113.156 53.1615C113.254 52.9777 113.133 52.1708 113.027 51.6279C112.883 50.8874 112.803 50.8297 112.676 51.495Z" fill="#EBBF9E"/>
<path fill-rule="evenodd" clip-rule="evenodd" d="M119.675 67.0322C119.675 67.0322 121.651 67.522 122.131 68.2296C122.524 68.8094 127.588 81.6905 129.152 86.8348C130.536 91.3865 128.904 95.267 127.085 99.6775C125.701 103.031 122.627 110.035 122.627 110.035C122.627 110.035 122.435 110.52 122.185 110.297C121.936 110.073 120.149 102.808 120.149 102.808C120.149 102.808 119.976 102.435 120.284 101.654C120.591 100.871 124.145 92.0037 124.145 92.0037L120.192 81.9079C120.192 81.9072 117.468 74.0627 119.675 67.0322Z" fill="#C4A10C"/>
<path fill-rule="evenodd" clip-rule="evenodd" d="M121.38 67.5494C121.38 67.5494 117.114 65.3183 116.98 65.3368C116.845 65.3552 116.552 65.7732 116.552 65.7732L112.004 82.8109C112.004 82.8109 111.159 85.047 111.428 88.3995C111.697 91.7526 112.388 97.9378 112.388 97.9378C112.837 104.907 113.425 115.835 114.156 123.721C114.156 123.721 114.213 124.578 114.866 124.95C115.519 125.323 123.223 128.452 123.223 128.452C123.223 128.452 123.627 128.75 123.511 127.372C123.435 126.463 120.965 112.404 119.466 102.713C119.212 101.069 118.986 99.5512 118.804 98.245C118.431 95.5666 118.805 93.0946 118.805 93.0946L120.599 83.0571L121.38 67.5494Z" fill="#DBC661"/>
<path fill-rule="evenodd" clip-rule="evenodd" d="M109.888 65.4554C108.918 70.6348 106.088 82.6361 106.588 88.1781C106.588 88.1781 106.655 88.5511 106.665 89.6503C106.674 90.7488 106.597 96.5623 106.597 96.5623L107.597 122.717C107.597 122.717 107.52 123.76 107.02 124.133C106.521 124.504 101.68 126.07 101.68 126.07C101.68 126.07 101.372 126.219 101.372 125.473C101.372 115.828 104.052 104.546 103.67 89.459C103.67 89.459 102.998 84.4663 102.729 82.5662C102.46 80.6661 103.447 78.1577 104.254 75.5493C105.061 72.9408 106.743 66.9396 106.743 66.9396L109.648 65.25C109.648 65.25 109.782 65.1572 109.888 65.4554Z" fill="#DBC661"/>
<path fill-rule="evenodd" clip-rule="evenodd" d="M98.7613 220.71C98.7613 220.71 99.1837 220.962 99.0522 222.547C98.9216 224.132 98.2607 225.167 98.2607 228.305C98.2607 231.443 98.2607 234.288 98.2607 234.288C98.2607 234.288 98.2797 234.963 98.049 234.963C97.8187 234.963 97.9908 234.963 97.8989 234.963C97.8065 234.963 97.7214 234.805 97.7214 234.281C97.7214 233.759 97.7214 228.618 97.7214 227.617C97.7214 226.615 97.5048 224.656 97.2912 224.301C97.0776 223.945 98.7613 220.71 98.7613 220.71Z" fill="#202023"/>
<path fill-rule="evenodd" clip-rule="evenodd" d="M97.4321 217.5C97.4321 217.5 98.6157 218.688 99.1838 220.863C99.1838 220.863 99.2606 221.338 99.0201 221.661C98.7795 221.984 97.2004 224.565 96.8929 226.231C96.5849 227.896 96.0838 231.191 95.8721 232.482C95.6604 233.774 95.1984 234.963 94.4093 234.963C93.6198 234.963 91.06 234.963 90.2709 234.963C89.4818 234.963 89.7512 233.672 90.3188 233.009C90.8864 232.347 92.137 230.699 92.3008 230.58C92.4645 230.461 92.532 230.571 92.532 230.571C92.532 230.571 92.3536 230.724 92.4113 230.996C92.4689 231.267 92.8918 231.123 93.3103 231.123C93.7293 231.123 94.3492 230.707 94.667 229.433C94.9843 228.158 96.206 221.482 96.3219 220.871C96.4373 220.258 97.2361 218.951 97.4321 217.5Z" fill="#202023"/>
<path fill-rule="evenodd" clip-rule="evenodd" d="M117.847 50.8378L117.299 46.5344C117.299 46.5344 115.534 44.0227 116.161 40.5269C116.788 37.0311 116.911 37.3771 116.911 37.3771C116.911 37.3771 119.264 39.432 118.216 48.698L117.847 50.8378Z" fill="#202023"/>
<path fill-rule="evenodd" clip-rule="evenodd" d="M107.778 50.8378L108.326 46.5344C108.326 46.5344 110.091 44.0227 109.464 40.5269C108.837 37.0311 108.713 37.3771 108.713 37.3771C108.713 37.3771 106.361 39.432 107.408 48.698L107.778 50.8378Z" fill="#202023"/>
<path fill-rule="evenodd" clip-rule="evenodd" d="M116.775 45.5598L115.184 42.0571C115.184 42.0571 114.989 41.7218 115.025 41.2324C115.062 40.7436 114.925 40.1567 114.5 40.9111C114.075 41.6653 111.05 46.3451 108.369 44.1031L108.714 37.3773C108.714 37.3773 110.501 32.752 113.988 33.5902C117.475 34.4284 117.559 40.7058 117.559 40.7058L116.775 45.5598Z" fill="#202023"/>
<path fill-rule="evenodd" clip-rule="evenodd" d="M117.349 47.462C117.556 47.5357 117.847 47.6931 117.847 47.6931V48.5878C117.847 48.5878 117.588 48.5564 117.519 48.8717C117.45 49.1873 117.399 50.4849 117.205 51.2511C116.944 52.2827 116.517 53.1202 115.765 53.2926C114.937 53.4829 114.329 53.1129 113.858 52.3019C113.287 51.3188 113.248 49.8982 113.32 48.682C113.32 48.682 113.136 48.5138 112.826 48.5138C112.516 48.5138 112.331 48.682 112.331 48.682C112.404 49.8982 112.364 51.3188 111.793 52.3019C111.322 53.1129 110.714 53.4827 109.885 53.2926C109.133 53.1202 108.704 52.2827 108.443 51.2511C108.249 50.4849 108.189 49.1873 108.12 48.8717C108.051 48.5562 107.778 48.5878 107.778 48.5878V47.6931C107.778 47.6931 108.083 47.5357 108.29 47.462C108.358 47.4373 108.432 47.3917 108.506 47.3319C109.097 46.4895 110.512 46.076 112.71 46.1024C112.757 46.1029 112.796 46.1033 112.826 46.1033C112.855 46.1033 112.894 46.1029 112.941 46.1024C115.139 46.0762 116.552 46.4895 117.143 47.3319C117.217 47.3917 117.28 47.4375 117.349 47.462ZM111.86 51.4764C112.124 50.6858 112.254 49.3649 111.877 48.2824C111.693 47.7513 111.165 46.9773 110.257 46.9664C109.348 46.9564 108.717 47.4971 108.525 48.24C108.335 48.9827 108.442 50.4197 108.711 51.3491C108.965 52.2297 109.366 52.8842 110.204 52.9198C111.042 52.9551 111.615 52.2137 111.86 51.4764ZM112.826 48.0193C113.067 48.0193 113.352 48.0982 113.415 48.1508C113.415 48.1508 113.639 47.1931 114.489 46.8035C114.906 46.6122 115.279 46.5504 115.608 46.5693C114.917 46.3717 114.028 46.2791 112.943 46.292C112.896 46.2924 112.856 46.2931 112.826 46.2931C112.796 46.2931 112.757 46.2926 112.709 46.292C111.625 46.2791 110.736 46.3717 110.045 46.5693C110.374 46.5504 110.747 46.6122 111.163 46.8035C112.014 47.1931 112.237 48.1508 112.237 48.1508C112.301 48.0982 112.585 48.0193 112.826 48.0193ZM117.127 48.24C116.936 47.4971 116.305 46.9564 115.396 46.9664C114.487 46.9773 113.96 47.7513 113.775 48.2824C113.399 49.3649 113.529 50.6858 113.792 51.4764C114.038 52.2137 114.61 52.9551 115.448 52.9198C116.286 52.8842 116.687 52.2297 116.942 51.3491C117.21 50.4197 117.318 48.9827 117.127 48.24Z" fill="#202023"/>
<path fill-rule="evenodd" clip-rule="evenodd" d="M111.295 72.6493C111.093 72.6493 110.911 72.9668 110.887 73.3583C110.864 73.7499 111.009 74.0674 111.211 74.0674C111.413 74.0674 111.595 73.7499 111.618 73.3583C111.641 72.9668 111.497 72.6493 111.295 72.6493Z" fill="#DBDADB"/>
<path fill-rule="evenodd" clip-rule="evenodd" d="M109.83 80.1045C109.628 80.1045 109.446 80.422 109.422 80.8135C109.399 81.2044 109.544 81.5219 109.745 81.5219C109.947 81.5219 110.13 81.2044 110.153 80.8135C110.176 80.422 110.031 80.1045 109.83 80.1045Z" fill="#DBDADB"/>
<path fill-rule="evenodd" clip-rule="evenodd" d="M109.434 94.5148C109.232 94.5148 109.05 94.1966 109.027 93.8058C109.003 93.4142 109.148 93.0974 109.35 93.0974C109.552 93.0974 109.734 93.4142 109.757 93.8058C109.781 94.1966 109.636 94.5148 109.434 94.5148Z" fill="#DBDADB"/>
<path fill-rule="evenodd" clip-rule="evenodd" d="M109.921 107.064C109.719 107.064 109.537 106.746 109.513 106.355C109.49 105.964 109.635 105.647 109.837 105.647C110.039 105.647 110.221 105.964 110.244 106.355C110.268 106.746 110.123 107.064 109.921 107.064Z" fill="#DBDADB"/>
<path fill-rule="evenodd" clip-rule="evenodd" d="M119.717 101.811C118.907 99.7165 118.757 99.1391 118.757 99.1391L117.18 97.9878C116.625 98.9773 117.708 99.6712 118.016 100.004C118.184 100.187 117.97 100.284 118.343 101.567C118.343 101.567 117.744 100.643 117.107 101.071C116.47 101.499 116.02 101.853 116.02 101.853C116.007 102.44 115.874 102.715 116.136 102.891C116.374 103.051 117.219 102.35 117.393 102.55L118.195 103.474C117.469 103.421 117.485 103.364 116.929 103.765C116.752 103.892 116.238 104.221 116.173 104.398C116.001 104.873 116.244 105.439 116.563 105.52C116.905 105.607 117.484 105.121 117.787 105.125C118.012 105.13 118.172 105.116 117.894 105.347C117.7 105.508 117.037 105.832 116.878 106.115C116.64 106.538 116.936 107.36 117.267 107.215C117.598 107.069 118.477 106.367 118.725 106.714C118.971 107.06 119.604 108.455 120.257 108.042C121.02 107.559 121.338 107.915 121.388 107.598C121.492 106.948 120.916 104.763 120.616 103.62C120.474 103.079 120.253 103.196 119.717 101.811Z" fill="#E6AD91"/>
<path fill-rule="evenodd" clip-rule="evenodd" d="M88.7017 69.434L89.0845 69.1275C89.2179 69.0205 89.2825 68.7201 89.2267 68.4608L85.8197 52.5415C85.764 52.2823 85.61 52.1571 85.476 52.2642L85.0932 52.5703C84.9597 52.6774 84.8952 52.9779 84.9504 53.2371L88.358 69.1563C88.4137 69.4161 88.5682 69.5409 88.7017 69.434Z" fill="#4D4C4E"/>
<path fill-rule="evenodd" clip-rule="evenodd" d="M85.8777 57.9725C86.765 58.5209 87.8567 59.7409 87.8591 60.7254C87.8616 61.7101 87.3394 61.3191 87.3394 61.3191C87.3394 61.3191 88.108 61.9632 88.0043 62.7389C87.9007 63.5153 87.357 63.1911 87.357 63.1911C87.357 63.1911 88.4697 63.8525 88.2248 64.7905C87.9794 65.7289 87.58 65.3216 87.58 65.3216C87.58 65.3216 88.5196 66.1809 88.2419 66.6627C87.9642 67.1445 86.3265 66.9187 85.7701 65.7858C85.2137 64.6532 85.7012 64.3023 85.7012 64.3023C85.7012 64.3023 85.1179 63.5698 85.3096 62.7342C85.5012 61.8982 85.7657 62.2125 85.7657 62.2125C85.7657 62.2125 84.917 61.3727 85.0857 60.8105C85.2538 60.2476 85.7061 60.0602 85.7061 60.0602C85.7061 60.0602 84.519 57.5505 85.8777 57.9725Z" fill="#E6AD83"/>
<path fill-rule="evenodd" clip-rule="evenodd" d="M120.299 68.5307C120.299 68.5307 116.817 65.5258 116.683 65.5443C116.548 65.5627 116.255 65.9816 116.255 65.9816L110.795 72.9209L110.735 75.1406L109.66 83.6763C109.66 83.6763 109.044 92.6695 109.313 96.0288C109.583 99.3888 109.511 104.338 109.511 104.338C109.961 111.321 102.089 202.07 102.821 209.972C102.821 209.972 105.78 209.861 106.46 209.773C107.483 209.641 122.593 207.968 122.593 207.968C122.593 207.968 124.592 207.407 124.355 204.65C124.299 203.995 122.95 155.892 121.757 125.179C121.282 112.965 119.595 105.717 119.174 102.995C118.92 101.349 118.693 99.827 118.51 98.5179C118.137 95.8347 118.512 93.3572 118.512 93.3572L120.31 83.3006L120.299 68.5307Z" fill="#DBC661"/>
<path fill-rule="evenodd" clip-rule="evenodd" d="M109.575 65.6628C109.575 65.6628 110.31 69.3009 110.642 70.7059C110.782 71.2984 111.325 73.0675 111.174 73.7402C110.17 78.1932 110.258 83.1331 110.121 83.9327C109.89 85.2773 109.519 89.9093 109.788 92.8956C109.788 92.8956 109.87 97.9816 109.879 99.0828C109.889 100.184 109.788 105.934 109.788 105.934L106.215 209.469C106.215 209.469 103.761 209.892 102.82 209.972C102.284 210.016 92.3715 208.428 92.3715 208.428C92.3715 208.428 92.0635 208.576 92.0635 207.83C92.0635 207.083 103.584 99.1466 103.584 99.1466L103.833 89.4767C103.833 89.4767 103.16 84.4751 102.891 82.5715C102.622 80.6673 103.122 78.39 103.93 75.7768C104.738 73.1635 106.425 67.1501 106.425 67.1501L109.335 65.4572C109.335 65.457 109.469 65.3641 109.575 65.6628Z" fill="#DBC661"/>
<path fill-rule="evenodd" clip-rule="evenodd" d="M115.495 63.1084L111.776 67.1257L113.225 71.2245L117.364 65.838L115.495 63.1084Z" fill="#C4A10C"/>
<path fill-rule="evenodd" clip-rule="evenodd" d="M112.275 67.6067L110.847 63.6295L109.489 65.9771L110.537 70.7719L112.275 67.6067Z" fill="#C4A10C"/>
<path d="M92.46 203.822C92.46 203.822 101.658 205.006 105.331 204.744C110.71 204.361 115.458 203.905 118.882 203.316C120.784 202.989 124.348 201.01 124.329 200.791C124.309 200.572 124.097 194.133 124.097 194.133C124.097 194.133 117.551 196.76 114.288 197.235C110.114 197.843 100.921 198.038 98.2347 197.856C95.9824 197.704 92.9122 197.013 93.1913 197.096L92.46 203.822Z" fill="#FF7F00"/>
<path fill-rule="evenodd" clip-rule="evenodd" d="M108.522 43.1386C110.903 44.2197 112.711 42.6508 114.142 39.9559C115.012 38.3164 115.395 35.1512 115.395 35.1512C115.395 35.1512 113.758 40.0726 111.314 42.1671C110.361 42.9831 108.522 43.1386 108.522 43.1386Z" fill="#444447"/>
<path d="M112.744 56.334C112.193 56.3591 111.518 56.7 111.16 56.2565C111.488 57.1862 111.993 57.952 112.621 58.3602C112.66 58.356 112.702 58.3487 112.744 58.3377C112.787 58.3487 112.828 58.356 112.867 58.3602C113.495 57.952 114.001 57.1862 114.328 56.2565C113.971 56.6998 113.296 56.3591 112.744 56.334Z" fill="#AC2436"/>
<path d="M112.788 57.3699C112.171 57.3699 111.254 56.511 111.257 56.5142C111.632 57.4484 112.151 58.5542 112.736 58.5279C112.745 58.5279 112.777 58.5279 112.785 58.5279C113.371 58.5542 114.025 57.1488 114.23 56.5142C114.233 56.511 113.405 57.3699 112.788 57.3699Z" fill="#C82333"/>
<path d="M116.617 49.2729C116.617 49.2729 115.764 48.1089 115.073 48.6213C114.382 49.1328 114.07 50.1159 113.963 50.7733C113.963 50.7733 114.05 50.5793 114.416 50.7493C114.781 50.9191 115.931 51.3426 116.617 49.2729Z" fill="white"/>
<path d="M114.728 48.9317C114.728 48.9317 114.383 50.2186 115.049 50.8777C115.144 50.8706 115.608 50.8695 115.754 50.5417C115.901 50.2128 116.15 49.2602 115.597 48.5384C115.236 48.5157 115.016 48.5493 114.728 48.9317Z" fill="#512C0E"/>
<path d="M115.637 49.6969C115.637 50.0469 115.488 50.3285 115.306 50.3285C115.122 50.3285 114.975 50.0469 114.975 49.6969C114.975 49.3489 115.122 49.0656 115.306 49.0656C115.488 49.0656 115.637 49.3489 115.637 49.6969Z" fill="#331B0E"/>
<path d="M115.056 49.5415C115.056 49.6762 114.999 49.7853 114.93 49.7853C114.86 49.7853 114.804 49.6762 114.804 49.5415C114.804 49.4058 114.86 49.2969 114.93 49.2969C114.999 49.2969 115.056 49.4058 115.056 49.5415Z" fill="white"/>
<path opacity="0.5" d="M114.804 50.1678C114.804 50.1678 115.331 51.042 115.805 49.9746C115.653 50.4742 115.335 51.1918 114.804 50.1678Z" fill="white"/>
<path opacity="0.7" d="M113.962 50.7735C114.14 50.0559 114.903 47.8357 116.434 49.697C116.499 49.4864 116.557 49.2971 116.557 49.2971C116.557 49.2971 114.646 46.7313 113.962 50.7735Z" fill="#C2C6CC"/>
<path d="M113.962 50.7735C114.035 50.2722 114.167 49.7988 114.352 49.4131C114.537 49.0284 114.784 48.7524 115.05 48.6372C115.318 48.5177 115.596 48.5609 115.861 48.6715C116.126 48.7871 116.38 48.98 116.623 49.2102L116.647 49.2329L116.637 49.2775C116.536 49.7419 116.358 50.1171 116.148 50.3913C115.937 50.667 115.691 50.8273 115.442 50.8939C115.192 50.9595 114.94 50.9428 114.692 50.8724C114.567 50.8391 114.448 50.7593 114.326 50.7179C114.206 50.6757 114.075 50.6597 113.962 50.7735ZM113.962 50.7735C114.072 50.6519 114.206 50.6584 114.329 50.6926C114.452 50.7259 114.573 50.7977 114.696 50.8215C114.942 50.8777 115.192 50.8868 115.436 50.8119C115.678 50.7342 115.916 50.5769 116.119 50.3079C116.321 50.0444 116.492 49.6697 116.584 49.2408L116.598 49.3081C116.357 49.0833 116.109 48.8862 115.849 48.7708C115.59 48.6573 115.32 48.6182 115.06 48.7226C114.8 48.8242 114.558 49.0815 114.373 49.4517C114.185 49.8177 114.044 50.2775 113.962 50.7735Z" fill="#AF6E58"/>
<path d="M113.962 50.7736C113.962 50.7745 114.2 49.2292 114.968 48.8052C115.352 48.5929 115.87 48.71 116.557 49.348C116.617 49.4165 116.807 49.3867 116.953 49.2014C116.754 49.168 115.708 47.8152 114.864 48.4912C114.497 48.7845 114.164 49.4116 113.962 50.7736Z" fill="#331B0E"/>
<path d="M109.062 49.495C109.062 49.495 109.915 48.331 110.605 48.8435C111.296 49.355 111.608 50.3381 111.716 50.9954C111.716 50.9954 111.628 50.8015 111.262 50.9714C110.897 51.1412 109.747 51.5648 109.062 49.495Z" fill="white"/>
<path d="M110.949 49.154C110.949 49.154 111.294 50.4409 110.628 51.1C110.533 51.0929 110.069 51.0918 109.923 50.764C109.776 50.4351 109.528 49.4825 110.081 48.7607C110.441 48.738 110.662 48.7716 110.949 49.154Z" fill="#512C0E"/>
<path d="M110.043 49.9191C110.043 50.269 110.191 50.5506 110.374 50.5506C110.556 50.5506 110.705 50.269 110.705 49.9191C110.705 49.5711 110.556 49.2877 110.374 49.2877C110.191 49.2877 110.043 49.5711 110.043 49.9191Z" fill="#331B0E"/>
<path d="M110.621 49.7637C110.621 49.8984 110.677 50.0075 110.747 50.0075C110.817 50.0075 110.873 49.8984 110.873 49.7637C110.873 49.6279 110.817 49.519 110.747 49.519C110.677 49.519 110.621 49.6279 110.621 49.7637Z" fill="white"/>
<path opacity="0.5" d="M110.873 50.3899C110.873 50.3899 110.346 51.2641 109.871 50.1968C110.024 50.6963 110.341 51.4139 110.873 50.3899Z" fill="white"/>
<path opacity="0.7" d="M111.715 50.9957C111.537 50.2782 110.774 48.058 109.243 49.9193C109.178 49.7086 109.12 49.5193 109.12 49.5193C109.12 49.5193 111.03 46.9535 111.715 50.9957Z" fill="#C2C6CC"/>
<path d="M111.717 50.9958C111.635 50.5 111.494 50.04 111.306 49.6742C111.12 49.304 110.878 49.0467 110.618 48.9451C110.359 48.8407 110.088 48.8798 109.829 48.9933C109.57 49.1085 109.321 49.3058 109.08 49.5307L109.094 49.4633C109.186 49.8924 109.357 50.2669 109.559 50.5306C109.762 50.7996 110 50.9569 110.242 51.0346C110.487 51.1096 110.736 51.1005 110.983 51.044C111.106 51.0202 111.226 50.9482 111.35 50.9149C111.472 50.8807 111.606 50.8742 111.717 50.9958ZM111.717 50.9958C111.604 50.8822 111.473 50.8982 111.352 50.94C111.23 50.9811 111.111 51.0611 110.986 51.0944C110.739 51.1649 110.486 51.1816 110.236 51.116C109.988 51.0493 109.741 50.8891 109.53 50.6133C109.32 50.3393 109.142 49.964 109.041 49.4995L109.031 49.4549L109.055 49.4323C109.298 49.202 109.552 49.0091 109.817 48.8936C110.082 48.7829 110.361 48.7398 110.628 48.8593C110.895 48.9745 111.141 49.2505 111.327 49.6351C111.511 50.0209 111.644 50.4942 111.717 50.9958Z" fill="#AF6E58"/>
<path d="M111.717 50.9958C111.717 50.9966 111.479 49.4513 110.711 49.0273C110.327 48.8151 109.808 48.9322 109.122 49.5702C109.061 49.6387 108.871 49.6089 108.726 49.4235C108.924 49.3902 109.97 48.0373 110.815 48.7134C111.181 49.0067 111.514 49.6338 111.717 50.9958Z" fill="#331B0E"/>
<path fill-rule="evenodd" clip-rule="evenodd" d="M97.9434 86.6668C97.9434 86.6668 98.8473 88.2467 100.948 87.1605L100.668 84.395L98.134 83.9753L97.9434 86.6668Z" fill="#C4A10C"/>
</svg>
