<svg width="220" height="240" viewBox="0 0 220 240" fill="none" xmlns="http://www.w3.org/2000/svg">
<path d="M77.5088 92.4384C77.1945 90.7255 77.7826 90.0192 78.5174 89.1291C79.4678 87.9771 80.65 86.5447 79.1359 82.298C77.5788 77.9328 77.9933 74.1867 80.0696 71.8601C81.0288 70.7849 82.0247 69.3771 82.9878 67.7454C82.4285 69.4827 81.7944 71.0427 81.0567 72.1316C78.9525 75.2386 78.6846 79.104 80.1699 83.2704C82.648 90.2208 77.5768 88.8548 78.5228 93.3332C80.4735 102.568 79.6991 102.557 78.5169 103.034C77.6672 103.376 76.358 107.811 84.4036 119.49C84.9981 120.353 85.7095 109.552 86.1025 110.698C86.6457 112.282 86.7625 118.432 88.4052 119.372C97.0033 124.292 119.216 116.147 126.535 111.688C126.994 111.408 128.192 103.995 128.26 100.934C129.875 106.133 128.63 109.736 128.688 110.297C130.096 109.275 131.412 106.846 131.378 103.208C131.35 100.033 130.965 99.3223 129.544 95.5419C128.716 93.3408 132.762 87.061 127.994 84.493C125.4 83.0955 125.259 81.1508 125.71 78.6418C125.73 79.1355 125.783 79.6128 125.923 80.0503C126.295 81.2077 127.098 82.0148 128.452 82.5915C129.562 83.064 130.261 83.7949 130.593 84.8276C131.057 86.2711 130.86 87.6144 130.557 89.2477C130.131 91.5476 130.361 93.2413 130.662 94.2439C131.47 96.9305 132.378 98.0784 132.458 100.622C132.637 98.1641 131.873 97.0786 130.965 93.8475C130.719 92.9719 130.55 91.202 130.777 89.9588C131.1 88.1972 131.468 86.1977 130.923 84.504C130.538 83.3033 129.758 82.4681 128.542 81.9504C127.314 81.4279 126.565 80.7003 126.253 79.728C125.884 78.5801 126.11 77.0969 126.417 75.4189C127.195 71.1874 126.205 67.563 124.293 64.338C122.714 61.6755 120.266 58.8963 119.621 54.5124L119.065 56.1231C113.526 53.6466 95.6408 49.5726 85.5833 55.3926C85.357 57.0072 85.0182 59.1969 84.562 61.4997C83.222 65.637 81.4952 69.1117 79.7607 71.0551C77.5225 73.5648 77.1598 78.0055 78.8156 82.6471C80.1396 86.3595 79.2874 87.3915 78.3013 88.586C77.5783 89.4624 76.7584 90.4539 77.1485 92.6338C78.2001 98.5207 76.4748 101.377 75.8936 102.213C76.248 101.933 78.714 98.9979 77.5088 92.4384ZM120.768 60.7278C121.889 62.3322 123.259 63.5193 124.198 65.1036C125.868 67.9215 126.617 70.8548 126.188 74.2855C125.838 69.7892 122.503 66.3606 120.768 60.7278Z" fill="#D6B45F"/>
<path d="M120.377 58.2139C123.376 79.7836 115.299 96.3162 104.747 98.6579C94.1967 101 84.3451 86.9884 83.8616 65.4433C83.5937 53.4804 90.0235 42.6181 100.111 40.4941C110.671 38.2707 118.245 42.8737 120.377 58.2139Z" fill="#D6B45F"/>
<path d="M88.5589 53.2195C91.1143 49.9921 96.1562 47.4181 100.768 46.2469C105.782 44.9734 111.048 44.881 114.05 47.305C116.036 48.9088 119.447 63.7636 118.469 62.7187C117.349 61.5232 115.646 60.6334 113.635 60.0511C113.264 58.4125 111.589 54.5137 111.282 54.0175C111.451 54.8899 111.859 58.0069 112.067 59.6701C109.577 59.1751 106.763 59.0983 104.051 59.4469C103.969 57.6448 103.281 55.4407 103.269 55.3195C102.999 55.93 102.567 58.5859 102.382 59.7166C101.975 59.7973 101.574 59.8873 101.179 59.9878C97.5535 60.9088 94.9027 61.9849 92.8215 63.2434C92.5116 57.6874 92.3937 55.9558 92.4436 56.3281C92.1464 57.5938 91.9137 61.093 92.0799 63.7144C91.305 64.2331 90.6127 64.7812 89.9781 65.3599C89.7855 63.7675 89.3763 61.2169 89.3133 60.7831C89.0537 61.15 88.7965 64.8349 88.7432 66.5977C87.6989 67.7431 86.7896 68.9973 85.8588 70.3722C84.8419 71.8746 86.4982 55.8208 88.5589 53.2195Z" fill="#D6B45F"/>
<path d="M101.021 103.94L101.45 111.911C101.542 113.625 103.17 114.761 105.086 114.448C107.001 114.135 108.48 112.49 108.388 110.776L107.959 102.804L101.021 103.94Z" fill="#E0956C"/>
<path opacity="0.16" d="M79.3506 204.494C79.3506 207.023 88.6101 209.071 100.032 209.071C111.453 209.071 120.713 207.023 120.713 204.494C120.713 201.968 111.453 199.919 100.032 199.919C88.6101 199.919 79.3506 201.968 79.3506 204.494Z" fill="black"/>
<path d="M97.5599 199.217C97.3917 200.184 94.1729 199.074 94.1875 198.055C94.3772 184.849 94.7224 153.712 94.805 150.409L102.301 152.148C102.301 152.148 98.3773 194.511 97.5599 199.217Z" fill="#FFC19F"/>
<path d="M106.078 200.349C106.118 201.356 109.397 201.525 109.513 200.527C111.012 187.578 114.647 157.089 114.988 153.837L107.458 152.619C107.458 152.619 105.881 195.444 106.078 200.349Z" fill="#FFC19F"/>
<path d="M119.851 147.972C118.76 148.782 118.209 149.462 117.168 150.451C114.556 138.13 114.578 135.531 112.705 126.527C112.974 120.483 114.153 117.287 116.435 116.535C118.506 129.453 118.565 136.692 119.851 147.972Z" fill="#FFC19F"/>
<path d="M122.032 159.996C122.128 159.75 122.35 159.278 121.758 157.389C121.661 157.077 122.353 158.648 122.387 158.208C122.484 156.982 122.399 155.056 121.867 152.539C120.895 147.944 119.167 145.191 117.998 145.952C117.437 146.316 115.752 154.371 117.126 157.895C117.264 158.249 117.649 154.845 117.894 155.048C118.228 155.327 118.305 156.686 118.82 157.918C119.966 160.651 120.959 162.263 121.125 161.078C121.182 160.668 119.745 155.565 119.826 155.415C119.906 155.266 121.959 160.181 122.032 159.996Z" fill="#FFC19F"/>
<path d="M89.5039 149.514C90.5946 150.324 91.1451 151.005 92.1869 151.993C94.7981 139.672 94.7766 137.073 96.649 128.069C96.3796 122.025 94.6421 117.365 92.3595 116.612C91.2786 130.924 90.7897 138.234 89.5039 149.514Z" fill="#FFC19F"/>
<path d="M88.9197 158.475C88.8233 158.23 88.6009 157.757 89.1929 155.868C89.2902 155.556 88.598 157.127 88.5637 156.688C88.4674 155.462 88.5525 153.536 89.0844 151.019C90.0563 146.424 91.784 143.671 92.953 144.432C93.5132 144.797 95.1989 152.851 93.8247 156.374C93.6868 156.729 93.302 153.324 93.0576 153.528C92.7227 153.806 92.6464 155.166 92.1302 156.398C90.9847 159.13 89.9923 160.742 89.8265 159.557C89.7693 159.148 91.2062 154.044 91.125 153.895C91.0453 153.745 88.992 158.66 88.9197 158.475Z" fill="#FFC19F"/>
<path d="M82.9762 92.963C84.4869 99.4416 88.5462 102.789 91.3064 101.482C94.0677 100.173 94.1879 94.5415 93.2014 88.1904C92.2133 81.8393 89.1719 77.7346 86.4136 79.0587C82.6438 80.869 81.556 86.8731 82.9762 92.963Z" fill="#FFC19F"/>
<path d="M124.684 83.7038C124.151 90.637 120.7 95.6517 117.84 95.5913C114.98 95.531 114.055 90.1317 114.1 83.5509C114.146 76.9708 116.502 71.6674 119.362 71.7442C123.272 71.8498 125.185 77.1881 124.684 83.7038Z" fill="#F9B998"/>
<path d="M116.824 54.468C118.048 57.9484 119.789 90.6542 117.964 95.6716C116.028 100.995 107.075 107.666 105.123 108.099C103.032 108.564 93.632 106.451 91.478 101.552C88.9294 95.7532 85.888 66.9894 86.3041 63.3931C87.7116 51.2445 93.4883 49.5633 101.081 47.8779C108.185 46.3011 113.649 45.4368 116.824 54.468Z" fill="#FFC19F"/>
<path d="M114.462 141.252C114.462 141.252 117.317 159.208 118.648 164.788C113.407 171.562 96.4076 172.881 89.418 161.065C89.9621 158.19 94.6158 146.691 95.4455 142.125L114.462 141.252Z" fill="#2A535E"/>
<path opacity="0.23" d="M93.4062 149.109C100.982 156.204 113.312 157.581 116.436 153.142C115.607 147.549 114.302 141.485 114.302 141.485L96.4022 140.301C95.8639 141.931 94.2789 146.318 93.4062 149.109Z" fill="black"/>
<path d="M92.3721 145.894C104.127 156.267 115.608 149.728 116.899 147.685C115.688 128.353 114.58 114.775 111.117 109.049C105.948 107.784 97.4795 110.126 94.4391 112.584C97.4174 129.496 94.136 139.906 92.3721 145.894Z" fill="#28AFC6"/>
<path d="M111.04 126.134C113.035 126.784 118.331 125.422 118.506 123.842C117.277 119.09 115.484 108.406 111.109 109.173C111.32 115.956 111.04 126.134 111.04 126.134Z" fill="#28AFC6"/>
<path d="M98.4892 128.209C96.7991 130.168 91.6193 132.529 91.1045 131.194C91.171 125.982 90.4274 114.925 94.626 112.646C95.9513 119.032 98.4892 128.209 98.4892 128.209Z" fill="#28AFC6"/>
<path d="M105.708 198.917C105.719 199.173 110.686 199.3 110.72 198.996C111.005 196.454 111.398 190.63 111.522 189.505L105.467 190.404C105.547 193.088 105.635 197.283 105.708 198.917Z" fill="#FFC76E"/>
<path d="M86.4669 93.6316C86.9006 96.4162 88.3927 98.134 89.7997 97.4668C91.2062 96.8002 91.9958 94.0025 91.5621 91.2178C91.1295 88.4332 89.6379 86.7168 88.2313 87.3826C86.8238 88.0492 86.0347 90.8469 86.4669 93.6316Z" fill="#E0956C"/>
<path d="M100.504 109.435C102.929 108.778 106.259 108.394 108.933 108.466C108.972 110.715 108.213 115.735 105.222 116.19C101.796 116.711 100.705 112.653 100.504 109.435Z" fill="#E0956C"/>
<path d="M121.192 85.9234C121.172 88.8089 119.974 91.1225 118.517 91.0923C117.059 91.0614 115.893 88.6971 115.913 85.8123C115.933 82.9275 117.131 80.6132 118.589 80.6434C120.046 80.6735 121.212 83.0379 121.192 85.9234Z" fill="#E0956C"/>
<path d="M104.999 86.9828C104.915 87.002 104.834 86.9128 104.808 86.7675C104.631 85.7327 104.103 85.156 103.462 85.298C102.818 85.4406 102.379 86.2463 102.37 87.3016C102.368 87.471 102.287 87.6068 102.192 87.6034C102.094 87.6006 102.017 87.4614 102.019 87.292C102.031 85.9405 102.606 84.8701 103.418 84.6897C104.225 84.5108 104.919 85.2753 105.145 86.5912C105.173 86.7538 105.12 86.9245 105.027 86.9732L104.999 86.9828Z" fill="#C67F75"/>
<path d="M114.483 66.0384C114.364 66.0539 114.244 65.9963 114.142 65.8614C112.854 64.1406 110.541 63.9216 108.757 65.3585C108.51 65.5601 108.213 65.3705 108.097 64.9335C107.981 64.4987 108.09 63.9831 108.34 63.7811C110.468 62.0694 113.164 62.3637 114.748 64.4841C114.966 64.776 115.007 65.3205 114.84 65.7009C114.751 65.9055 114.619 66.0207 114.483 66.0384Z" fill="#775D2A"/>
<path d="M90.5765 71.5604C90.4416 71.5974 90.2984 71.5378 90.1849 71.3746C89.9718 71.0715 89.9405 70.525 90.114 70.1533C91.3778 67.455 93.9621 66.0885 96.2579 66.9006C96.5273 66.9969 96.7013 67.4553 96.6466 67.9248C96.5913 68.3964 96.3283 68.7003 96.0599 68.6029C94.1357 67.9179 91.9102 69.0562 90.8845 71.2512C90.8044 71.4233 90.6939 71.5282 90.5765 71.5604Z" fill="#775D2A"/>
<path d="M99.6996 86.5934C99.6996 86.5934 94.6801 90.8757 92.2675 86.5495C89.3283 81.2777 92.6786 75.6624 95.1817 75.9511C97.4981 76.2179 99.8223 79.0931 99.6996 86.5934Z" fill="#F9FEFF"/>
<path d="M91.2404 79.1239C92.0358 76.7321 93.2908 75.7221 94.7345 75.6069C96.2105 75.4883 97.8346 76.9125 98.407 78.6631C97.4488 76.7705 96.0364 76.3502 95.1706 76.2508C93.7914 76.0889 92.1268 77.5852 91.5152 79.896C90.9715 81.9518 91.2673 84.7509 92.3468 86.6853C91.1632 85.4853 90.4108 81.6158 91.2404 79.1239Z" fill="#773220"/>
<path d="M98.7166 80.7408C99.378 82.7369 98.9874 85.2905 97.8439 86.4453C96.7004 87.5993 95.2371 86.917 94.5757 84.9216C93.9142 82.9255 94.3053 80.3719 95.4488 79.2171C96.5923 78.0631 98.0551 78.7454 98.7166 80.7408Z" fill="#00576C"/>
<path d="M98.4691 80.1333C98.6529 80.6867 98.5444 81.395 98.2271 81.7159C97.9098 82.0355 97.504 81.8469 97.3207 81.2928C97.1374 80.7388 97.2454 80.0304 97.5627 79.7102C97.88 79.39 98.2858 79.5792 98.4691 80.1333Z" fill="#FEFFFE"/>
<path d="M107.654 84.5973C107.654 84.5973 113.167 86.184 114.766 80.8314C116.715 74.3082 112.581 70.6081 110.231 72.1393C108.056 73.5553 106.303 77.4748 107.654 84.5973Z" fill="#F9FEFF"/>
<path d="M114.529 73.2027C113.373 71.3108 112.005 70.9721 110.603 71.5851C109.17 72.2112 107.848 74.389 107.588 76.3529C108.194 74.0599 109.478 72.949 110.291 72.4203C111.586 71.5742 113.427 72.1735 114.392 74.0804C115.251 75.7776 115.428 78.6062 114.713 81C115.649 79.2583 115.733 75.1748 114.529 73.2027Z" fill="#773220"/>
<path d="M114.398 76.3028C115.059 78.299 114.669 80.8526 113.525 82.0073C112.382 83.1614 110.919 82.4798 110.257 80.4836C109.596 78.4875 109.987 75.9339 111.13 74.7792C112.274 73.6251 113.736 74.3067 114.398 76.3028Z" fill="#00576C"/>
<path d="M114.151 75.6953C114.334 76.2487 114.226 76.957 113.909 77.2779C113.592 77.5982 113.186 77.4089 113.003 76.8549C112.819 76.3008 112.927 75.5925 113.245 75.2722C113.562 74.952 113.968 75.1413 114.151 75.6953Z" fill="#FEFFFE"/>
<path fill-rule="evenodd" clip-rule="evenodd" d="M94.4157 197.569C94.4157 197.569 94.3438 195.181 94.3717 192.106C95.389 192.14 97.1178 192.2 98.5033 192.193C98.3493 195.15 98.1073 197.546 98.1073 197.546C98.4622 200.565 95.9659 201.035 95.0351 200.204C94.1037 199.373 94.4157 197.569 94.4157 197.569Z" fill="#FFC76E"/>
<path fill-rule="evenodd" clip-rule="evenodd" d="M93.0092 203.345H99.3604C99.5657 203.345 99.7329 203.637 99.7329 203.995V203.996C99.7329 204.353 99.5657 204.645 99.3604 204.645H93.0092C92.8039 204.645 92.6367 204.353 92.6367 203.996V203.995C92.6367 203.637 92.8039 203.345 93.0092 203.345Z" fill="#B82C0D"/>
<path d="M113.009 196.244C112.917 195.686 112.731 194.981 112.586 194.337C112.478 193.858 109.784 193.992 109.784 195.147C109.784 195.443 109.793 195.705 109.809 195.941C109.348 195.959 108.848 195.96 108.319 195.937C107.17 195.888 106.14 195.747 105.417 195.562C105.382 197.39 105.496 200.553 105.468 202.585C105.468 202.585 117.518 206.26 119.392 203.176C119.92 202.307 116.875 198.56 113.009 196.244Z" fill="#E2511E"/>
<path fill-rule="evenodd" clip-rule="evenodd" d="M94.4747 197.268C94.1242 197.394 92.7215 201.037 92.8853 203.493H99.4643C99.4643 203.493 99.5948 200.685 98.0812 197.268C97.6965 199.95 95.3894 200.15 94.7749 199.535C94.1608 198.919 94.4747 197.268 94.4747 197.268Z" fill="#E2511E"/>
<path fill-rule="evenodd" clip-rule="evenodd" d="M94.2085 199.013C94.2085 199.013 95.8414 203.438 98.3123 198.825L98.1529 197.059L98.3123 196.688C98.3123 196.688 95.5862 194.955 94.1885 196.834L94.3645 197.059C94.3645 197.059 94.3806 198.187 94.2085 199.013Z" fill="#E2511E"/>
<path d="M105.47 201.311C105.473 201.763 105.474 202.198 105.469 202.585C105.469 202.585 117.519 206.26 119.392 203.177C119.467 203.054 119.469 202.873 119.409 202.649C116.1 203.975 108.466 202.126 105.47 201.311Z" fill="#892910"/>
<path d="M113.855 196.817C113.947 196.847 114.035 196.748 114.054 196.59C114.072 196.431 114.014 196.275 113.923 196.242C113.223 195.992 112.413 196.573 111.954 197.663C111.899 197.794 111.914 197.978 111.99 198.074C112.018 198.11 112.052 198.129 112.085 198.132C112.138 198.133 112.191 198.091 112.225 198.012C112.609 197.1 113.279 196.604 113.855 196.817ZM114.784 197.54C114.875 197.568 114.959 197.44 114.968 197.278C114.978 197.118 114.911 196.973 114.818 196.956C114.082 196.821 113.358 197.318 112.832 198.311C112.769 198.431 112.773 198.618 112.842 198.728C112.873 198.778 112.913 198.804 112.952 198.805C112.998 198.807 113.046 198.775 113.08 198.711C113.7 197.538 114.413 197.473 114.784 197.54ZM115.801 197.754C115.136 197.567 114.286 198.117 113.731 199.087C113.665 199.202 113.665 199.388 113.731 199.502C113.763 199.558 113.804 199.586 113.846 199.588C113.891 199.59 113.935 199.562 113.969 199.502C114.453 198.657 115.187 198.163 115.748 198.333C115.842 198.362 115.926 198.249 115.94 198.088C115.955 197.929 115.892 197.779 115.801 197.754Z" fill="#D3DAE5"/>
<path fill-rule="evenodd" clip-rule="evenodd" d="M100.02 96.2126C100.287 97.1589 101.285 98.8588 103.285 98.8711C105.028 98.8828 106.247 97.3495 106.718 96.1804C107.003 95.4686 106.969 94.774 106.669 95.2718C104.065 99.5925 100.963 97.0032 100.315 95.915C100.07 95.5029 99.8572 95.6366 100.02 96.2126Z" fill="#B13B32"/>
<path fill-rule="evenodd" clip-rule="evenodd" d="M95.366 198.53C95.2697 198.579 95.1611 198.513 95.124 198.383C95.0868 198.252 95.1342 198.106 95.2305 198.058C95.5244 197.908 95.9761 197.802 96.4063 197.84C96.7574 197.873 97.101 198 97.3528 198.272C97.434 198.36 97.4477 198.521 97.3831 198.629C97.3186 198.737 97.2003 198.754 97.1186 198.665C96.9343 198.466 96.6654 198.37 96.3858 198.346C96.0084 198.311 95.6178 198.401 95.366 198.53Z" fill="#E0F4FF"/>
<path fill-rule="evenodd" clip-rule="evenodd" d="M95.2023 200.46C95.106 200.509 94.9975 200.443 94.9598 200.314C94.9227 200.183 94.9706 200.037 95.0669 199.988C95.3607 199.838 95.8125 199.732 96.2427 199.771C96.5937 199.803 96.9374 199.93 97.1892 200.203C97.2703 200.291 97.284 200.451 97.219 200.559C97.155 200.667 97.0362 200.685 96.955 200.596C96.7707 200.396 96.5018 200.301 96.2222 200.276C95.8447 200.242 95.4541 200.332 95.2023 200.46Z" fill="#E0F4FF"/>
<path fill-rule="evenodd" clip-rule="evenodd" d="M95.2461 199.452C95.1497 199.501 95.0412 199.435 95.0041 199.306C94.9664 199.175 95.0143 199.029 95.1106 198.98C95.405 198.83 95.8557 198.724 96.2864 198.763C96.6374 198.795 96.9811 198.922 97.2329 199.195C97.3141 199.283 97.3278 199.443 97.2632 199.553C97.1987 199.66 97.0804 199.677 96.9992 199.589C96.8144 199.389 96.546 199.294 96.2659 199.269C95.8885 199.234 95.4978 199.324 95.2461 199.452Z" fill="#E0F4FF"/>
<path d="M118.785 58.9683C117.712 53.9685 116.042 51.0169 113.89 49.3051C104.288 49.4124 92.2007 55.2813 86.3609 59.0742C86.3139 59.3562 86.2695 59.6383 86.2259 59.917C86.1159 61.3834 86.0763 63.7039 86.0988 66.5215C87.1504 65.1549 88.6846 63.9097 90.4983 62.8465C90.7262 61.0471 92.0882 56.5323 92.3576 55.9326C92.2667 56.8827 92.1395 60.2202 92.0823 61.9995C94.6104 60.7683 97.5095 59.8738 100.345 59.4516C100.259 57.5652 100.761 55.0873 100.763 54.9573C101.099 55.513 101.798 58.1307 102.097 59.2467C102.523 59.2129 102.947 59.1889 103.365 59.1804C107.199 59.0824 110.04 59.4261 112.31 60.1273C112.144 55.4742 112.083 53.3724 112.059 52.9138C112.485 54.1747 113.044 57.6732 113.121 60.3987C113.972 60.711 114.738 61.0777 115.45 61.4922C115.498 59.7889 115.679 57.037 115.703 56.5683C116.005 56.874 116.622 60.6066 116.844 62.413C117.641 63.0042 118.381 63.6654 119.111 64.3836C119.058 61.6926 118.949 59.727 118.785 58.9683ZM112.044 52.8693C112.048 52.7901 112.051 52.7997 112.059 52.9105C112.053 52.8946 112.05 52.8819 112.044 52.8693Z" fill="#D6B45F"/>
<path d="M116.876 49.119C106.416 49.1844 93.2379 55.5126 86.8701 59.613C86.9351 59.2164 87.0021 58.8198 87.0735 58.4199C89.8137 47.8845 95.9703 47.1879 103.972 46.7706C109.105 46.5051 113.529 46.4327 116.876 49.119Z" fill="#D6B45F"/>
<path d="M91.0307 61.7376C91.0307 61.7376 93.4472 64.584 92.0886 66.1881C90.73 67.7923 88.95 67.3422 88.1135 65.1828C87.2765 63.0228 87.6989 59.9718 89.0575 58.3677C90.4161 56.7636 91.0307 61.7376 91.0307 61.7376Z" fill="#F9951E"/>
<path d="M83.7357 70.3508C83.7357 70.3508 84.3507 75.325 85.7093 73.7204C87.0674 72.1166 87.4908 69.0651 86.6533 66.9057C85.8164 64.746 84.0363 64.2957 82.6782 65.8999C81.3196 67.5042 83.7357 70.3508 83.7357 70.3508Z" fill="#F9951E"/>
<path d="M86.5047 67.1616C86.9022 68.188 87.6443 68.5246 88.1616 67.9135C88.6788 67.3027 88.7761 65.9755 88.3782 64.9495C87.9807 63.9235 87.2385 63.5866 86.7213 64.1976C86.2041 64.8088 86.1068 66.1357 86.5047 67.1616Z" fill="#F9951E"/>
</svg>
