<svg width="220" height="240" viewBox="0 0 220 240" fill="none" xmlns="http://www.w3.org/2000/svg">
<path fill-rule="evenodd" clip-rule="evenodd" d="M114.212 73.7329C113.887 77.3816 110.608 76.6184 110.593 73.927C110.959 74.2204 111.391 74.6531 112.11 74.7279C112.729 74.7944 113.617 74.6051 114.212 73.7329Z" fill="#F09B63"/>
<path fill-rule="evenodd" clip-rule="evenodd" d="M108.298 82.2815C108.618 81.3366 109.729 79.6908 111.795 79.8849C113.594 80.0536 114.78 81.7569 115.21 83.009C115.472 83.7702 115.404 84.4806 115.117 83.9388C112.633 79.2245 109.308 81.5663 108.588 82.6188C108.315 83.0152 108.102 82.8554 108.298 82.2815Z" fill="#B13B32"/>
<path d="M108.121 69.2675C108.121 69.2675 107.641 69.6425 106.947 69.9737C106.083 70.4099 104.878 70.7849 103.854 70.3125C103.439 70.139 103.055 69.8256 102.73 69.3203C100.576 65.9526 102.985 62.2992 104.803 62.4558C106.482 62.6043 108.181 64.437 108.121 69.2675Z" fill="#F9FEFF"/>
<path d="M101.954 64.5478C102.522 62.9977 103.428 62.3335 104.475 62.2414C105.545 62.1511 106.729 63.0505 107.151 64.1713C106.449 62.9638 105.422 62.7082 104.793 62.6536C103.793 62.5633 102.591 63.5461 102.157 65.0416C101.771 66.3717 101.996 68.1724 102.787 69.4053C101.925 68.6455 101.363 66.1624 101.954 64.5478Z" fill="black"/>
<path d="M106.947 69.9737C106.083 70.4098 104.878 70.7849 103.854 70.3124C103.724 70.0951 103.619 69.8509 103.524 69.5808C102.94 67.8533 103.27 65.6306 104.259 64.6104C105.243 63.5904 106.517 64.166 107.102 65.8913C107.551 67.2098 107.461 68.8313 106.947 69.9737Z" fill="black"/>
<path d="M105.995 68.7133C106.13 69.1124 106.055 69.6281 105.826 69.8633C105.597 70.0999 105.302 69.9668 105.167 69.5684C105.031 69.1687 105.107 68.6537 105.336 68.4171C105.565 68.1821 105.86 68.3132 105.995 68.7133Z" fill="#FEFFFE"/>
<path d="M120.742 69.8173C120.567 70.1136 120.367 70.3467 120.152 70.5222C119.158 71.3945 117.844 71.1764 116.85 70.7828C116.006 70.4633 115.386 70.0265 115.386 70.0265C115.226 65.2304 116.875 63.3278 118.543 63.1013C120.347 62.8493 122.815 66.3632 120.742 69.8173Z" fill="#F9FEFF"/>
<path d="M121.416 65.0327C120.821 63.5205 119.906 62.9054 118.864 62.8661C117.798 62.8271 116.64 63.779 116.243 64.9151C116.917 63.6804 117.931 63.3752 118.555 63.2903C119.548 63.1524 120.762 64.0703 121.225 65.5334C121.635 66.8364 121.448 68.6372 120.688 69.9023C121.53 69.1055 122.037 66.6084 121.416 65.0327Z" fill="black"/>
<path d="M120.152 70.5223C119.158 71.3953 117.844 71.1772 116.85 70.785C116.69 70.427 116.57 70.008 116.5 69.5376C116.22 67.6543 116.865 65.7349 117.944 65.2372C119.023 64.7503 120.122 65.8741 120.402 67.7577C120.552 68.7443 120.447 69.729 120.152 70.5223Z" fill="black"/>
<path d="M119.174 69.7667C119.241 70.2131 119.088 70.6691 118.832 70.785C118.576 70.9029 118.315 70.6355 118.248 70.187C118.181 69.7413 118.334 69.286 118.59 69.1688C118.846 69.0529 119.107 69.3203 119.174 69.7667Z" fill="#FEFFFE"/>
<path d="M107.089 61.32C107.47 61.059 107.598 60.0255 107.506 59.373C107.474 59.1516 107.318 59.2266 107.246 59.3526C106.874 60.0186 106.454 58.7718 106.005 58.6782C105.334 58.5386 104.36 59.1144 103.703 59.4108C102.71 59.8551 101.58 60.7716 100.97 62.5089C102.387 61.9911 105.994 60.4566 106.343 60.7887C106.488 60.9266 106.622 61.2554 106.773 61.3335C106.891 61.3932 106.996 61.383 107.089 61.32Z" fill="black"/>
<path fill-rule="evenodd" clip-rule="evenodd" d="M119.827 172.102V172.111C119.705 172.262 119.584 172.425 119.463 172.585L119.827 172.102Z" fill="#FAA66E"/>
<path fill-rule="evenodd" clip-rule="evenodd" d="M105.498 141.858C104.728 141.741 103.967 141.582 103.221 141.375C102.176 141.087 101.163 140.706 100.215 140.208C100.215 140.208 100.283 136.491 100.388 131.496C100.44 129.09 100.498 126.387 100.563 123.66C100.605 121.83 100.651 119.985 100.697 118.215C100.736 116.763 100.775 115.362 100.815 114.051C100.815 114.021 100.816 113.988 100.816 113.958C100.917 110.55 101.022 107.778 101.115 106.44C101.363 102.927 102.189 100.491 103.479 98.9163C103.793 98.5289 104.133 98.1963 104.501 97.9111C104.661 97.7849 104.826 97.6711 104.995 97.5627C105.02 97.6107 105.046 97.6587 105.073 97.7067C104.898 97.848 104.737 98.0009 104.596 98.16C104.635 98.28 104.676 98.4027 104.74 98.4987C104.892 98.5982 105.058 98.7092 105.237 98.8231C105.24 98.8258 105.244 98.8293 105.247 98.8293C105.316 98.8738 105.385 98.9163 105.455 98.9609C105.459 98.9643 105.462 98.9671 105.466 98.9671C106.514 99.6302 107.923 100.413 109.307 100.413C111.209 100.413 113.355 98.9582 114.156 97.1403C114.023 96.9723 113.863 96.8249 113.681 96.6987C113.698 96.6542 113.716 96.6089 113.731 96.5643C114.331 96.7049 114.889 96.9243 115.4 97.2452C116.024 97.6347 116.576 98.1778 117.04 98.928C117.963 100.398 118.547 102.66 118.695 106.086C118.739 107.142 118.801 108.507 118.873 110.079C119.353 120.522 120.319 140.181 120.319 140.181C120.774 140.379 112.83 142.977 105.498 141.858Z" fill="#0DA18D"/>
<path fill-rule="evenodd" clip-rule="evenodd" d="M113.579 96.2701C113.546 96.3661 113.511 96.4649 113.472 96.5609C113.544 96.6061 113.615 96.648 113.681 96.6987C113.864 96.8249 114.024 96.9716 114.156 97.1396C113.355 98.9581 111.21 100.413 109.307 100.413C107.924 100.413 106.514 99.6301 105.466 98.9671C105.463 98.9671 105.459 98.9636 105.456 98.9609C105.386 98.9156 105.317 98.8738 105.248 98.8285C105.244 98.8285 105.241 98.8258 105.237 98.8231C105.059 98.7085 104.892 98.5981 104.741 98.4987C104.677 98.4027 104.636 98.28 104.596 98.16C104.737 98.0009 104.899 97.848 105.074 97.7067C105.181 97.6196 105.293 97.536 105.409 97.4551C105.334 97.3618 105.26 97.2658 105.186 97.1671C104.431 97.5476 103.844 97.9021 103.483 98.1298C103.455 98.1476 103.426 98.1627 103.397 98.184C103.378 98.1956 103.357 98.208 103.338 98.2231C103.302 98.2471 103.268 98.2676 103.239 98.2861C103.225 98.2951 103.211 98.304 103.197 98.3129C103.285 98.5227 103.38 98.7236 103.479 98.9156C104.346 100.611 105.624 101.724 107.036 102.261C110.219 103.47 114.076 101.766 115.4 97.2445C115.407 97.2267 115.414 97.2061 115.42 97.1849L113.579 96.2701Z" fill="#41D1BE"/>
<path fill-rule="evenodd" clip-rule="evenodd" d="M96.3649 107.489C97.9689 111.036 100.051 113.901 102.515 115.076L101.249 118.533C99.8839 117.989 95.6951 113.58 95.0664 110.672L96.3649 107.489Z" fill="#41D1BE"/>
<path fill-rule="evenodd" clip-rule="evenodd" d="M102.749 115.47C102.647 115.413 102.542 115.353 102.437 115.287C101.917 114.969 101.365 114.546 100.815 114.051C98.8811 112.317 96.9563 109.686 96.3652 107.49C97.8021 103.245 100.939 99.6926 103.396 98.184C103.426 98.1627 103.455 98.1477 103.482 98.1298C103.716 97.9886 103.944 97.8686 104.163 97.7671C104.339 97.6862 104.431 97.7671 104.502 97.9111C104.536 97.9831 104.563 98.0702 104.596 98.16C104.636 98.28 104.677 98.4027 104.74 98.4987C104.787 98.5742 104.846 98.6338 104.923 98.6667C105.033 98.712 105.137 98.7662 105.237 98.8231C105.241 98.8258 105.244 98.8286 105.247 98.8286C105.316 98.8738 105.385 98.9156 105.456 98.9609C105.459 98.9636 105.462 98.9671 105.466 98.9671C106.401 99.6206 106.889 100.8 107.035 102.261C107.432 106.218 105.313 112.236 102.749 115.47Z" fill="#0DA18D"/>
<path fill-rule="evenodd" clip-rule="evenodd" d="M127.894 105.327L125.911 107.139C125.4 102.708 124.285 98.5111 122.393 95.5138L122.516 95.3849L124.419 93.432C124.518 93.576 124.63 93.768 124.75 93.9991L123.391 94.8747L126.282 106.041L127.891 104.526C127.908 104.814 127.91 105.084 127.894 105.327Z" fill="#41D1BE"/>
<path fill-rule="evenodd" clip-rule="evenodd" d="M125.911 107.138C125.967 103.879 124.082 98.0346 122.286 94.9811C117.803 96.2133 112.65 103.28 115.992 108.247C116.312 108.722 115.962 109.472 116.434 109.649C118.996 110.602 123.273 110.072 125.911 107.138Z" fill="#0DA18D"/>
<path fill-rule="evenodd" clip-rule="evenodd" d="M115.868 178.03C113.704 180.968 111.623 183.847 110.051 186.031C108.527 188.14 107.484 189.614 107.285 189.894C107.275 189.902 107.27 189.91 107.27 189.91C107.256 189.927 107.251 189.935 107.251 189.935L102.264 189.639L103.894 183.247C103.894 183.247 103.899 183.237 103.903 183.228H103.908C104.059 183 105.286 181.162 106.887 178.741C108.488 176.318 110.468 173.286 112.112 170.687C112.423 171.339 112.739 171.99 113.073 172.66C113.156 172.83 113.243 173.006 113.331 173.185C114.116 174.752 114.961 176.369 115.868 178.03Z" fill="#FFB685"/>
<path fill-rule="evenodd" clip-rule="evenodd" d="M119.826 157.51V172.702L119.463 173.185C118.288 174.751 117.066 176.404 115.867 178.028C114.961 176.368 114.115 174.751 113.33 173.185C113.243 173.008 113.156 172.829 113.072 172.661C112.738 171.99 112.423 171.339 112.112 170.688C112.33 170.349 112.539 170.009 112.743 169.688C112.85 169.518 112.961 169.341 113.072 169.162V157.51H119.826Z" fill="#FAA66E"/>
<path fill-rule="evenodd" clip-rule="evenodd" d="M110.439 192.674C110.439 192.674 108.518 164.133 108.158 151.504C107.798 138.874 102.076 139.496 101.028 144.745C99.9797 149.992 101.998 163.363 102.899 172.022C103.801 180.685 104.94 194.207 104.94 194.207L107.382 200.558L110.439 192.674Z" fill="#FFB685"/>
<path fill-rule="evenodd" clip-rule="evenodd" d="M109.139 171.832C108.709 164.419 108.305 156.643 108.158 151.504C107.797 138.874 102.076 139.496 101.028 144.745C99.9797 149.992 101.998 163.363 102.899 172.022C102.953 172.541 103.009 173.078 103.064 173.63C104.952 173.188 106.979 172.6 109.139 171.832Z" fill="#FAA66E"/>
<path fill-rule="evenodd" clip-rule="evenodd" d="M106.534 87.2009L111.406 88.6848L111.817 97.1321L109.169 98.0811L106.396 97.955L106.534 87.2009Z" fill="#E8935A"/>
<path fill-rule="evenodd" clip-rule="evenodd" d="M95.2377 75.7268C91.9866 75.2008 91.8008 67.1728 94.5122 66.3491C93.1438 53.2294 98.4292 40.5745 108.007 39.6616C114.634 39.0299 121.625 45.6757 122.703 59.5279C123.427 68.8285 122.948 77.9183 120.72 83.6152C115.292 97.4989 97.6866 92.2737 95.2377 75.7268Z" fill="#FFB685"/>
<path fill-rule="evenodd" clip-rule="evenodd" d="M95.2372 75.7269C94.3748 75.851 93.7788 74.8554 93.3535 74.1217C94.2599 74.7532 95.1898 74.9034 96.234 73.8899C97.8699 89.507 112.78 95.2266 118.931 86.9678C112.177 96.4403 97.4607 90.7502 95.2372 75.7269Z" fill="#FAA66E"/>
<path fill-rule="evenodd" clip-rule="evenodd" d="M94.6753 71.3972C94.6753 71.3972 94.3781 70.1437 95.0366 70.0162C95.3793 69.9483 95.5401 70.4996 95.61 71.0352C95.6751 71.5316 95.6619 72.0144 95.6457 71.991C95.6457 71.991 95.5704 71.7483 95.4585 71.4932C95.2497 71.0201 94.91 70.4996 94.6753 71.3972Z" fill="#FAA66E"/>
<path fill-rule="evenodd" clip-rule="evenodd" d="M97.3163 68.0481C97.3163 68.0481 97.8903 63.9443 98.101 60.2099C98.3117 56.4749 99.5891 53.339 99.5891 53.339C99.5891 53.339 107.427 57.5057 109.365 56.5196C111.304 55.5338 103.293 45.0077 103.293 45.0077L109.844 53.2379L110.553 54.4041C110.553 54.4041 114.132 58.2168 115.052 57.5849C115.973 56.9516 111.78 46.7396 111.78 46.7396C111.78 46.7396 115.807 58.01 121.333 58.9281C123.403 59.2721 122.562 56.7596 121.874 53.9378C120.726 49.2225 117.808 42.7916 113.498 41.1162C106.61 38.4384 99.7392 41.4785 98.2726 44.2985C96.8059 47.1168 94.6357 60.6648 97.3163 68.0481Z" fill="#F29F68"/>
<path fill-rule="evenodd" clip-rule="evenodd" d="M127.891 104.526L126.283 106.041L123.392 94.8747L124.751 93.999C125.846 96.0932 127.709 101.472 127.891 104.526Z" fill="#41D1BE"/>
<path fill-rule="evenodd" clip-rule="evenodd" d="M133.645 99.1022L128.908 103.569L127.891 104.526C127.709 101.472 125.846 96.0933 124.751 93.9991L126.374 92.952C125.095 89.3671 123.378 86.2053 120.941 83.0222C120.349 82.248 119.715 81.4739 119.034 80.6908C119.034 80.6908 116.59 80.3129 115.583 78.6302C114.975 77.5831 115.085 77.0311 115.351 76.8302C115.628 76.6169 117.121 77.2739 117.347 77.1751L116.558 73.3564C116.245 72.0542 114.524 69.6871 114.935 68.46C115.348 67.233 116.95 69.8819 117.525 71.0702C117.273 69.8071 115.339 66.0781 116.008 65.5261C116.676 64.9741 117.798 67.737 118.601 70.056C117.749 66.249 116.774 65.157 117.415 64.4461C118.057 63.747 119.498 67.839 119.789 68.7209C119.689 67.776 119.15 66.147 119.007 65.421C118.67 63.7141 119.353 63.747 120.059 65.493C121.078 67.989 122.345 75.5431 122.345 75.5431C122.345 75.5431 122.412 75.6302 122.535 75.7982C123.624 77.256 129.12 84.7708 132.047 91.5422C132.848 93.3929 133.496 95.2499 134.015 96.9929C134.017 96.9957 134.018 97.0019 134.02 97.0053C134.245 97.7609 134.074 98.6942 133.645 99.1022Z" fill="#FFB685"/>
<path fill-rule="evenodd" clip-rule="evenodd" d="M114.156 97.1396C113.356 98.9582 111.21 100.413 109.308 100.413C107.924 100.413 106.515 99.6302 105.466 98.9671C105.463 98.9671 105.46 98.9636 105.456 98.9609C105.389 98.9129 105.32 98.8677 105.248 98.8293C105.244 98.8293 105.241 98.8258 105.238 98.8231C105.059 98.7093 104.892 98.5982 104.741 98.4987C104.677 98.4027 104.636 98.28 104.597 98.16C104.737 98.0009 104.899 97.848 105.074 97.7067C107.03 101.175 112.003 101.244 113.682 96.6987C113.864 96.8249 114.024 96.9716 114.156 97.1396Z" fill="#41D1BE"/>
<path fill-rule="evenodd" clip-rule="evenodd" d="M104.596 98.16C104.636 98.28 104.677 98.4028 104.741 98.4988C104.639 98.4357 104.545 98.376 104.459 98.3219C104.502 98.2677 104.548 98.2108 104.596 98.16Z" fill="#41D1BE"/>
<path fill-rule="evenodd" clip-rule="evenodd" d="M113.682 96.6987C112.003 101.244 107.03 101.175 105.074 97.7067C105.181 97.6197 105.293 97.536 105.41 97.4551C106.564 98.904 108.001 99.8578 109.32 99.7858C111.198 99.6809 112.826 98.1573 113.472 96.5609C113.544 96.6062 113.615 96.648 113.682 96.6987Z" fill="#41D1BE"/>
<path fill-rule="evenodd" clip-rule="evenodd" d="M113.472 96.5609C112.826 98.1572 111.198 99.6809 109.319 99.7858C108.001 99.8578 106.564 98.904 105.409 97.4551C105.713 97.2418 106.052 97.0498 106.409 96.8791C107.533 96.3387 108.843 96.0062 109.893 95.9397C110.481 95.904 111.134 95.9157 111.762 96.0117C112.387 96.1049 112.987 96.2791 113.472 96.5609Z" fill="#E8935A"/>
<path fill-rule="evenodd" clip-rule="evenodd" d="M116.246 124.65C116.123 125.922 114.188 125.955 112.636 125.778C114.917 126.735 115.989 125.955 115.95 127.275C115.916 128.598 113.17 128.334 112.588 128.25C113.086 128.649 114.164 128.799 114.587 129.012C115.58 129.504 115.178 130.452 113.956 130.479C112.195 130.512 107.92 128.022 107.92 128.022C107.92 128.022 100.76 132.144 95.3969 132.765C95.2131 132.78 95.0341 132.798 94.8591 132.807C94.7403 132.813 94.62 132.819 94.5032 132.825C92.7124 132.897 91.3939 129.954 91.848 126.933C92.0749 125.424 92.3257 123.876 92.6039 122.355C92.9906 120.231 93.4271 118.155 93.9087 116.328C94.3639 114.609 94.864 113.04 95.3783 111.645C96.2906 113.844 98.5903 116.49 100.146 117.789C99.9431 118.152 99.7524 118.524 99.57 118.893C99.5407 118.953 99.5133 119.001 99.4825 119.061C98.716 120.621 98.0506 122.196 97.4752 123.882C100.464 124.128 103.529 123.033 107.382 120.342C107.382 120.342 108.955 117.045 110.326 116.562C111.162 116.283 111.361 116.766 111.302 117.267C111.249 117.774 110.084 119.538 110.006 119.925L112.247 120.975C113.038 121.263 115.135 120.147 115.479 121.443C115.819 122.727 113.666 123.516 112.777 123.66C113.509 124.023 116.367 123.372 116.246 124.65Z" fill="#FFB685"/>
<path fill-rule="evenodd" clip-rule="evenodd" d="M107.268 189.313C107.268 189.313 108.547 187.942 110.175 185.723C109.108 183.289 107.826 180.334 106.808 177.954C105.122 180.625 103.889 182.587 103.889 182.587L102.264 189.042L107.268 189.313Z" fill="#F2FAFF"/>
<path fill-rule="evenodd" clip-rule="evenodd" d="M107.854 197.255C107.858 196.982 107.857 196.704 107.852 196.427C107.479 196.101 107.095 195.888 106.805 195.807C106.684 195.772 106.584 195.916 106.582 196.129C106.581 196.341 106.678 196.541 106.8 196.576C107.086 196.655 107.484 196.892 107.854 197.255Z" fill="#E0F4FF"/>
<path fill-rule="evenodd" clip-rule="evenodd" d="M107.816 195.362C107.802 195.082 107.786 194.801 107.767 194.525C107.499 194.336 107.241 194.207 107.033 194.15C106.911 194.115 106.811 194.259 106.809 194.471C106.808 194.682 106.905 194.884 107.027 194.919C107.245 194.979 107.529 195.132 107.816 195.362Z" fill="#E0F4FF"/>
<path fill-rule="evenodd" clip-rule="evenodd" d="M99.6498 186.37L106.484 202.171C106.652 202.559 106.607 203.114 106.384 203.408C106.162 203.702 105.843 203.624 105.675 203.238L98.8417 187.435C98.6745 187.048 98.7185 186.49 98.9404 186.198C99.1634 185.904 99.4821 185.982 99.6498 186.37Z" fill="#364B70"/>
<path fill-rule="evenodd" clip-rule="evenodd" d="M110.438 192.034C110.438 192.034 110.455 189.171 110.224 185.249C108.313 185.558 106.001 185.909 104.147 186.169C104.584 190.444 104.906 193.579 104.906 193.579L107.382 199.957L110.438 192.034Z" fill="#F2FAFF"/>
<path fill-rule="evenodd" clip-rule="evenodd" d="M103.911 182.326C103.911 182.326 102.915 181.777 101.575 183.108C100.235 184.44 99.5068 186.259 99.5068 186.259L105.39 200.998L106.521 202.079C108.857 199.71 107.457 191.777 107.269 189.014C106.551 189.164 102.852 186.087 103.911 182.326Z" fill="#546C96"/>
<path fill-rule="evenodd" clip-rule="evenodd" d="M104.939 193.268C104.939 193.268 104.068 194.556 103.995 197.495C103.922 200.435 104.463 202.667 104.463 202.667L115.699 201.737L116.929 200.54C117.032 195.388 112.012 193.037 110.438 191.733C110.1 192.98 106.317 197.165 104.939 193.268Z" fill="#546C96"/>
<path fill-rule="evenodd" clip-rule="evenodd" d="M114.988 195.708C114.845 195.542 114.697 195.384 114.547 195.23C114.158 195.641 113.821 196.138 113.61 196.558C113.521 196.733 113.539 196.98 113.651 197.106C113.762 197.233 113.925 197.19 114.014 197.013C114.223 196.599 114.581 196.094 114.988 195.708Z" fill="#E0F4FF"/>
<path fill-rule="evenodd" clip-rule="evenodd" d="M113.963 194.668C113.806 194.526 113.648 194.39 113.49 194.261C113.234 194.581 113.016 194.926 112.864 195.228C112.775 195.403 112.793 195.65 112.905 195.776C113.016 195.902 113.18 195.861 113.268 195.685C113.428 195.368 113.674 194.998 113.963 194.668Z" fill="#E0F4FF"/>
<path fill-rule="evenodd" clip-rule="evenodd" d="M104.447 202.625L116.798 200.777C117.102 200.733 117.371 201.128 117.397 201.658C117.423 202.186 117.194 202.657 116.892 202.703L104.541 204.548C104.238 204.595 103.968 204.198 103.943 203.668C103.916 203.14 104.143 202.669 104.447 202.625Z" fill="#364B70"/>
<path fill-rule="evenodd" clip-rule="evenodd" d="M100.215 139.609C99.8606 150.415 101.229 166.422 101.142 170.083L110.029 170.091L109.235 150.929C109.8 150.922 110.315 150.853 110.881 150.847L111.479 170.096L120.899 169.491C120.962 160.185 120.525 149.564 120.338 139.6C120.338 139.601 103.314 129.763 100.215 139.609Z" fill="#546C96"/>
<path d="M119.149 66.2937C119.214 66.7269 119.065 67.1703 118.817 67.2828C118.568 67.3968 118.314 67.1373 118.25 66.702C118.184 66.2688 118.333 65.8254 118.582 65.7114C118.831 65.6007 119.084 65.8587 119.149 66.2937Z" fill="#FEFFFE"/>
<path fill-rule="evenodd" clip-rule="evenodd" d="M113.955 73.8308C113.639 77.3732 110.456 76.6327 110.44 74.0194C110.797 74.3033 111.216 74.7236 111.915 74.7977C112.516 74.8608 113.378 74.6777 113.955 73.8308Z" fill="#F09B63"/>
<path fill-rule="evenodd" clip-rule="evenodd" d="M102.302 60.0762C103.348 58.7067 105.236 58.4103 106.134 58.4916C107.835 58.6437 107.152 56.8242 106.339 56.6259C104.806 56.2488 102.974 57.3915 101.968 58.9977C101.173 60.2682 101.055 61.7103 102.302 60.0762Z" fill="black"/>
<path fill-rule="evenodd" clip-rule="evenodd" d="M102.368 70.3063C104.616 71.4145 106.073 74.5564 105.622 77.326C105.168 80.0929 102.979 81.4362 100.731 80.326C98.4839 79.2165 97.0255 76.0739 97.4778 73.3084C97.93 70.5395 100.12 69.1962 102.368 70.3063Z" fill="#FFB685"/>
<g opacity="0.5">
<g opacity="0.5">
<path opacity="0.5" fill-rule="evenodd" clip-rule="evenodd" d="M102.311 70.351C104.509 71.4323 105.935 74.5057 105.494 77.2115C105.052 79.9174 102.91 81.2305 100.712 80.1471C98.5142 79.0637 97.0876 75.9923 97.5295 73.2872C97.971 70.5793 100.113 69.2675 102.311 70.351Z" fill="#FFB584"/>
<path opacity="0.5" fill-rule="evenodd" clip-rule="evenodd" d="M102.255 70.3941C104.403 71.4522 105.798 74.4542 105.366 77.099C104.935 79.7424 102.842 81.0275 100.693 79.9687C98.5444 78.9107 97.1496 75.9079 97.5813 73.2659C98.0125 70.6204 100.105 69.3374 102.255 70.3941Z" fill="#FFB384"/>
<path opacity="0.5" fill-rule="evenodd" clip-rule="evenodd" d="M102.198 70.4386C104.297 71.4706 105.66 74.4014 105.239 76.9851C104.818 79.5682 102.774 80.8224 100.674 79.7904C98.5752 78.757 97.2117 75.8256 97.6331 73.2439C98.054 70.6601 100.099 69.4066 102.198 70.4386Z" fill="#FEB283"/>
<path opacity="0.5" fill-rule="evenodd" clip-rule="evenodd" d="M102.141 70.4834C104.191 71.4907 105.522 74.3501 105.111 76.8722C104.701 79.3929 102.705 80.6189 100.655 79.6116C98.6053 78.6022 97.2741 75.7428 97.6847 73.2207C98.0954 70.7021 100.092 69.4761 102.141 70.4834Z" fill="#FEB182"/>
<path opacity="0.5" fill-rule="evenodd" clip-rule="evenodd" d="M102.086 70.5279C104.085 71.5092 105.385 74.2994 104.985 76.7583C104.585 79.218 102.637 80.4139 100.637 79.4312C98.6366 78.4486 97.3371 75.6598 97.7375 73.2009C98.1374 70.7412 100.085 69.5453 102.086 70.5279Z" fill="#FEAF81"/>
<path opacity="0.5" fill-rule="evenodd" clip-rule="evenodd" d="M102.029 70.571C103.98 71.5283 105.248 74.2471 104.858 76.6458C104.468 79.0423 102.569 80.2101 100.618 79.2529C98.6672 78.297 97.3995 75.5761 97.7891 73.1795C98.1788 70.7809 100.078 69.6151 102.029 70.571Z" fill="#FEAE81"/>
<path opacity="0.5" fill-rule="evenodd" clip-rule="evenodd" d="M101.972 70.6158C103.874 71.547 105.11 74.1945 104.731 76.5314C104.351 78.869 102.5 80.0053 100.599 79.0727C98.6978 78.1429 97.4619 75.4933 97.8408 73.1584C98.2201 70.8208 100.071 69.6825 101.972 70.6158Z" fill="#FEAC80"/>
<path opacity="0.5" fill-rule="evenodd" clip-rule="evenodd" d="M101.916 70.6602C103.768 71.5654 104.972 74.1436 104.604 76.4195C104.235 78.692 102.432 79.8015 100.581 78.8956C98.7292 77.9891 97.5245 75.4102 97.8937 73.1363C98.2618 70.8625 100.064 69.7544 101.916 70.6602Z" fill="#FEAB7F"/>
<path opacity="0.5" fill-rule="evenodd" clip-rule="evenodd" d="M101.86 70.7047C103.663 71.5845 104.835 74.0922 104.477 76.305C104.119 78.5185 102.365 79.5964 100.563 78.7153C98.7604 77.8348 97.5876 75.3271 97.9464 73.115C98.3048 70.9002 100.058 69.8236 101.86 70.7047Z" fill="#FDAA7E"/>
<path opacity="0.5" fill-rule="evenodd" clip-rule="evenodd" d="M101.803 70.7481C103.556 71.6031 104.697 74.0409 104.349 76.1926C104.001 78.343 102.297 79.3929 100.543 78.5364C98.7899 77.6813 97.6493 75.245 97.9969 73.0932C98.345 70.9414 100.05 69.893 101.803 70.7481Z" fill="#FDA87E"/>
<path opacity="0.5" fill-rule="evenodd" clip-rule="evenodd" d="M101.747 70.7925C103.451 71.6229 104.56 73.9887 104.223 76.0787C103.885 78.1688 102.229 79.1877 100.525 78.358C98.8218 77.5297 97.712 75.1626 98.0498 73.0719C98.3876 70.9825 100.044 69.9635 101.747 70.7925Z" fill="#FDA77D"/>
<path opacity="0.5" fill-rule="evenodd" clip-rule="evenodd" d="M101.691 70.8371C103.345 71.6415 104.423 73.9386 104.095 75.9663C103.768 77.9939 102.16 78.9848 100.506 78.1791C98.8514 77.3754 97.7744 75.0776 98.1015 73.0506C98.429 71.0223 100.037 70.0335 101.691 70.8371Z" fill="#FDA67C"/>
<path opacity="0.5" fill-rule="evenodd" clip-rule="evenodd" d="M101.636 70.8823C103.24 71.6613 104.286 73.8858 103.969 75.8517C103.652 77.8183 102.094 78.779 100.489 78.0007C98.8843 77.2197 97.8381 74.9932 98.1553 73.0286C98.4717 71.062 100.031 70.1013 101.636 70.8823Z" fill="#FDA47B"/>
<path opacity="0.5" fill-rule="evenodd" clip-rule="evenodd" d="M101.579 70.9248C103.134 71.6791 104.148 73.8343 103.842 75.7392C103.536 77.6434 102.026 78.5746 100.47 77.8217C98.9149 77.0674 97.9004 74.9122 98.207 73.0073C98.513 71.1031 100.024 70.1705 101.579 70.9248Z" fill="#FDA37B"/>
<path opacity="0.5" fill-rule="evenodd" clip-rule="evenodd" d="M101.523 70.9696C103.029 71.6978 104.011 73.7837 103.715 75.6256C103.419 77.4695 101.958 78.3712 100.452 77.6416C98.9454 76.914 97.9632 74.8288 98.2585 72.9863C98.5552 71.1437 100.018 70.24 101.523 70.9696Z" fill="#FCA27A"/>
<path opacity="0.5" fill-rule="evenodd" clip-rule="evenodd" d="M101.466 71.0147C102.922 71.7176 103.873 73.7322 103.587 75.5117C103.302 77.2945 101.889 78.1661 100.432 77.4632C98.9758 76.7604 98.0249 74.7457 98.3104 72.9649C98.5959 71.1827 100.009 70.3098 101.466 71.0147Z" fill="#FCA079"/>
<path opacity="0.5" fill-rule="evenodd" clip-rule="evenodd" d="M101.41 71.0573C102.817 71.7355 103.736 73.6802 103.462 75.4006C103.186 77.119 101.821 77.9624 100.414 77.2843C99.0074 76.6061 98.0883 74.6628 98.363 72.943C98.6383 71.2226 100.003 70.3805 101.41 71.0573Z" fill="#FC9F79"/>
<path opacity="0.5" fill-rule="evenodd" clip-rule="evenodd" d="M101.354 71.1018C102.712 71.7553 103.599 73.628 103.335 75.2861C103.07 76.9434 101.754 77.7574 100.396 77.1053C99.0389 76.4525 98.1506 74.5784 98.4161 72.9217C98.6805 71.2623 99.9966 70.449 101.354 71.1018Z" fill="#FC9D78"/>
<path opacity="0.5" fill-rule="evenodd" clip-rule="evenodd" d="M101.297 71.1465C102.605 71.7739 103.461 73.5767 103.206 75.1737C102.952 76.77 101.685 77.5545 100.377 76.9271C99.0684 76.3003 98.2124 74.4976 98.4666 72.9006C98.7213 71.3042 99.9885 70.5198 101.297 71.1465Z" fill="#FC9C77"/>
<path opacity="0.5" fill-rule="evenodd" clip-rule="evenodd" d="M101.241 71.1917C102.5 71.7938 103.324 73.5252 103.08 75.0598C102.836 76.5951 101.617 77.3487 100.358 76.7474C99.0995 76.1467 98.2757 74.4132 98.5192 72.8786C98.7632 71.3453 99.9825 70.589 101.241 71.1917Z" fill="#FC9B76"/>
<path opacity="0.5" fill-rule="evenodd" clip-rule="evenodd" d="M101.184 71.2342C102.393 71.8116 103.185 73.4737 102.952 74.9453C102.719 76.4189 101.549 77.1437 100.339 76.5684C99.1306 75.9924 98.3381 74.3302 98.5708 72.8573C98.8045 71.383 99.9749 70.6568 101.184 71.2342Z" fill="#FB9976"/>
<path opacity="0.5" fill-rule="evenodd" clip-rule="evenodd" d="M101.127 71.2787C102.287 71.83 103.048 73.4209 102.825 74.8314C102.602 76.244 101.48 76.94 100.321 76.3893C99.1604 75.8387 98.4002 74.2472 98.6226 72.8353C98.8456 71.4248 99.9676 70.7281 101.127 71.2787Z" fill="#FB9875"/>
<path opacity="0.5" fill-rule="evenodd" clip-rule="evenodd" d="M101.07 71.324C102.181 71.8493 102.91 73.3695 102.698 74.719C102.485 76.0685 101.412 76.7363 100.301 76.209C99.1907 75.6831 98.4623 74.1629 98.6744 72.8141C98.8871 71.4639 99.9602 70.7981 101.07 71.324Z" fill="#FB9774"/>
<path opacity="0.5" fill-rule="evenodd" clip-rule="evenodd" d="M101.016 71.3686C102.077 71.8678 102.774 73.3188 102.572 74.6066C102.37 75.895 101.345 76.5314 100.284 76.0322C99.2234 75.5309 98.5263 74.0806 98.7282 72.7928C98.9306 71.5058 99.9553 70.8674 101.016 71.3686Z" fill="#FB9573"/>
<path opacity="0.5" fill-rule="evenodd" clip-rule="evenodd" d="M100.959 71.4117C101.97 71.8876 102.636 73.2652 102.445 74.494C102.253 75.7194 101.276 76.3283 100.265 75.8538C99.2542 75.3772 98.5883 73.9983 98.7799 72.7708C98.9716 71.5448 99.9479 70.9365 100.959 71.4117Z" fill="#FB9473"/>
<path opacity="0.5" fill-rule="evenodd" clip-rule="evenodd" d="M100.903 71.4557C101.865 71.9062 102.499 73.2159 102.317 74.3802C102.136 75.5446 101.208 76.1233 100.246 75.6735C99.2843 75.2237 98.6507 73.914 98.8316 72.7496C99.013 71.5853 99.9404 71.0058 100.903 71.4557Z" fill="#FB9272"/>
<path opacity="0.5" fill-rule="evenodd" clip-rule="evenodd" d="M100.846 71.5008C101.759 71.926 102.361 73.163 102.19 74.267C102.019 75.3703 101.139 75.9196 100.227 75.4944C99.3147 75.0714 98.7124 73.833 98.8835 72.7296C99.0547 71.6243 99.9337 71.0757 100.846 71.5008Z" fill="#FA9171"/>
<path opacity="0.5" fill-rule="evenodd" clip-rule="evenodd" d="M100.789 71.5449C101.651 71.9439 102.222 73.1117 102.062 74.1533C101.902 75.1956 101.071 75.714 100.208 75.3156C99.3454 74.9158 98.7748 73.7481 98.9352 72.7078C99.0956 71.6662 99.9257 71.1451 100.789 71.5449Z" fill="#FA9071"/>
<path opacity="0.5" fill-rule="evenodd" clip-rule="evenodd" d="M100.735 71.588C101.548 71.9618 102.087 73.0589 101.937 74.0395C101.787 75.02 101.005 75.511 100.192 75.1352C99.3781 74.7636 98.8389 73.6658 98.9889 72.6845C99.1395 71.706 99.9208 71.2143 100.735 71.588Z" fill="#FA8E70"/>
<path opacity="0.5" fill-rule="evenodd" clip-rule="evenodd" d="M100.678 71.6331C101.442 71.9822 101.949 73.0087 101.809 73.9269C101.669 74.8444 100.937 75.3058 100.172 74.9568C99.4083 74.6098 98.9013 73.5826 99.0406 72.6631C99.1804 71.7456 99.9133 71.2841 100.678 71.6331Z" fill="#FA8D6F"/>
<path opacity="0.5" fill-rule="evenodd" clip-rule="evenodd" d="M100.621 71.6778C101.336 72.0001 101.811 72.958 101.682 73.8124C101.552 74.6709 100.868 75.1022 100.153 74.7786C99.4387 74.4556 98.963 73.4984 99.0926 72.6433C99.2216 71.7868 99.9066 71.3548 100.621 71.6778Z" fill="#FA8C6E"/>
<path opacity="0.5" fill-rule="evenodd" clip-rule="evenodd" d="M100.564 71.7225C101.23 72.0201 101.673 72.9054 101.554 73.7008C101.436 74.4942 100.8 74.8981 100.135 74.5998C99.4693 74.3022 99.0254 73.4162 99.1442 72.6208C99.263 71.8268 99.8991 71.4229 100.564 71.7225Z" fill="#FA8A6E"/>
<path opacity="0.5" fill-rule="evenodd" clip-rule="evenodd" d="M100.507 71.7656C101.124 72.0385 101.535 72.8539 101.427 73.5862C101.318 74.3199 100.731 74.6943 100.115 74.4214C99.4997 74.1485 99.0875 73.3332 99.1961 72.5988C99.3046 71.8664 99.8913 71.4941 100.507 71.7656Z" fill="#F9896D"/>
<path opacity="0.5" fill-rule="evenodd" clip-rule="evenodd" d="M100.452 71.8095C101.018 72.0584 101.398 72.8024 101.301 73.4738C101.203 74.1451 100.664 74.4893 100.098 74.2425C99.5314 73.997 99.1506 73.2509 99.2488 72.5796C99.3471 71.9076 99.8859 71.5634 100.452 71.8095Z" fill="#F9886C"/>
<path opacity="0.5" fill-rule="evenodd" clip-rule="evenodd" d="M100.395 71.8547C100.911 72.0762 101.26 72.751 101.173 73.3599C101.085 73.9716 100.595 74.2856 100.078 74.0621C99.5603 73.8426 99.2117 73.1679 99.2997 72.5576C99.3872 71.9453 99.8776 71.6312 100.395 71.8547Z" fill="#F9866B"/>
<path opacity="0.5" fill-rule="evenodd" clip-rule="evenodd" d="M100.339 71.8979C100.807 72.0947 101.124 72.6995 101.046 73.2467C100.97 73.796 100.528 74.0806 100.061 73.8858C99.5929 73.6883 99.2761 73.0835 99.3534 72.5357C99.4306 71.9871 99.8721 71.7025 100.339 71.8979Z" fill="#F9856B"/>
<path opacity="0.5" fill-rule="evenodd" clip-rule="evenodd" d="M100.283 71.9425C100.701 72.114 100.987 72.6468 100.92 73.135C100.853 73.6198 100.46 73.8776 100.042 73.7055C99.6241 73.5348 99.3386 73.0013 99.4051 72.5144C99.4721 72.0269 99.8652 71.7718 100.283 71.9425Z" fill="#F9836A"/>
<path opacity="0.5" fill-rule="evenodd" clip-rule="evenodd" d="M100.227 71.9872C100.596 72.1325 100.849 72.5954 100.793 73.0205C100.736 73.447 100.392 73.6726 100.023 73.5266C99.6539 73.3812 99.4012 72.9184 99.4569 72.4932C99.5136 72.0681 99.8578 71.8418 100.227 71.9872Z" fill="#F98269"/>
<path opacity="0.5" fill-rule="evenodd" clip-rule="evenodd" d="M100.17 72.0317C100.489 72.1524 100.711 72.5426 100.666 72.9081C100.619 73.2722 100.322 73.469 100.004 73.3483C99.6845 73.2276 99.463 72.8354 99.509 72.4713C99.5544 72.1078 99.8507 71.9111 100.17 72.0317Z" fill="#F88168"/>
<path opacity="0.5" fill-rule="evenodd" clip-rule="evenodd" d="M100.113 72.0762C100.383 72.1701 100.573 72.4931 100.538 72.7941C100.502 73.0965 100.255 73.2638 99.9848 73.1692C99.7154 73.0732 99.5253 72.7523 99.5609 72.4499C99.5961 72.1488 99.844 71.9802 100.113 72.0762Z" fill="#F87F68"/>
</g>
</g>
<path fill-rule="evenodd" clip-rule="evenodd" d="M100.057 72.1186C100.277 72.1899 100.435 72.4416 100.41 72.6816C100.385 72.9216 100.186 73.0581 99.966 72.9888C99.746 72.9216 99.5876 72.6679 99.613 72.4286C99.638 72.1886 99.8365 72.0494 100.057 72.1186Z" fill="#F87E67"/>
<path fill-rule="evenodd" clip-rule="evenodd" d="M121.52 63.0634C120.738 61.4608 119.026 60.7099 118.182 60.5692C116.584 60.3031 117.465 58.6819 118.246 58.6852C119.719 58.6903 121.263 60.2581 121.977 62.0842C122.541 63.5248 122.455 64.9723 121.52 63.0634Z" fill="black"/>
<g opacity="0.5">
<g opacity="0.5">
<path opacity="0.5" fill-rule="evenodd" clip-rule="evenodd" d="M118.288 73.6492C116.437 73.8769 114.937 76.3825 114.938 79.2474C114.938 82.1137 116.439 84.2497 118.289 84.0213C120.139 83.793 121.639 81.2874 121.639 78.4204C121.638 75.5555 120.137 73.4188 118.288 73.6492Z" fill="#FFB685"/>
<path opacity="0.5" fill-rule="evenodd" clip-rule="evenodd" d="M118.326 73.7137C116.516 73.9351 115.049 76.3859 115.049 79.1863C115.049 81.9861 116.517 84.0755 118.326 83.854C120.135 83.6325 121.603 81.1811 121.603 78.3806C121.603 75.5788 120.135 73.4901 118.326 73.7137Z" fill="#FFB584"/>
<path opacity="0.5" fill-rule="evenodd" clip-rule="evenodd" d="M118.363 73.7781C116.594 73.9927 115.159 76.3859 115.159 79.1233C115.159 81.8606 116.594 83.9041 118.362 83.6867C120.13 83.4686 121.565 81.0769 121.565 78.3395C121.566 75.6021 120.13 73.5614 118.363 73.7781Z" fill="#FFB384"/>
<path opacity="0.5" fill-rule="evenodd" clip-rule="evenodd" d="M118.4 73.8426C116.673 74.0531 115.271 76.388 115.271 79.0622C115.27 81.7352 116.672 83.7299 118.399 83.5194C120.126 83.3096 121.528 80.9726 121.528 78.2997C121.529 75.6248 120.128 73.6307 118.4 73.8426Z" fill="#FEB283"/>
<path opacity="0.5" fill-rule="evenodd" clip-rule="evenodd" d="M118.436 73.9057C116.75 74.1101 115.38 76.3914 115.38 78.9992C115.379 81.609 116.747 83.5558 118.433 83.3528C120.12 83.1478 121.49 80.8685 121.49 78.2586C121.491 75.6502 120.123 73.7021 118.436 73.9057Z" fill="#FEB182"/>
<path opacity="0.5" fill-rule="evenodd" clip-rule="evenodd" d="M118.475 73.9701C116.829 74.1683 115.493 76.3906 115.492 78.9381C115.491 81.4821 116.826 83.3842 118.471 83.1861C120.117 82.9858 121.454 80.7628 121.455 78.2188C121.455 75.6734 120.121 73.7712 118.475 73.9701Z" fill="#FEAF81"/>
<path opacity="0.5" fill-rule="evenodd" clip-rule="evenodd" d="M118.511 74.0347C116.906 74.2273 115.603 76.3942 115.602 78.8751C115.6 81.356 116.902 83.2102 118.507 83.0168C120.111 82.8248 121.414 80.658 121.416 78.1771C121.417 75.6961 120.116 73.8427 118.511 74.0347Z" fill="#FEAE81"/>
<path opacity="0.5" fill-rule="evenodd" clip-rule="evenodd" d="M118.548 74.099C116.985 74.2856 115.714 76.3962 115.713 78.8126C115.711 81.2312 116.98 83.038 118.544 82.8515C120.107 82.6643 121.378 80.5544 121.38 78.1372C121.381 75.7194 120.113 73.9125 118.548 74.099Z" fill="#FEAC80"/>
<path opacity="0.5" fill-rule="evenodd" clip-rule="evenodd" d="M118.585 74.1629C117.063 74.3453 115.825 76.3976 115.823 78.7517C115.821 81.1051 117.056 82.8653 118.579 82.685C120.102 82.5046 121.34 80.4502 121.341 78.0968C121.344 75.7428 120.109 73.9832 118.585 74.1629Z" fill="#FEAB7F"/>
<path opacity="0.5" fill-rule="evenodd" clip-rule="evenodd" d="M118.624 74.2274C117.142 74.4029 115.937 76.399 115.935 78.6886C115.933 80.9789 117.134 82.6925 118.617 82.5177C120.098 82.3421 121.304 80.346 121.305 78.055C121.308 75.7654 120.106 74.0525 118.624 74.2274Z" fill="#FDAA7E"/>
<path opacity="0.5" fill-rule="evenodd" clip-rule="evenodd" d="M118.662 74.2917C117.221 74.4604 116.049 76.4009 116.047 78.6268C116.044 80.8519 117.212 82.5189 118.654 82.3502C120.095 82.1801 121.267 80.2396 121.269 78.0151C121.272 75.7886 120.104 74.123 118.662 74.2917Z" fill="#FDA87E"/>
<path opacity="0.5" fill-rule="evenodd" clip-rule="evenodd" d="M118.699 74.3569C117.298 74.5187 116.16 76.4024 116.156 78.5644C116.154 80.7265 117.289 82.3455 118.689 82.1816C120.09 82.0197 121.229 80.1354 121.232 77.9733C121.234 75.812 120.099 74.193 118.699 74.3569Z" fill="#FDA77D"/>
<path opacity="0.5" fill-rule="evenodd" clip-rule="evenodd" d="M118.736 74.4214C117.376 74.5784 116.271 76.4044 116.268 78.5034C116.264 80.6003 117.366 82.1734 118.726 82.015C120.085 81.8593 121.192 80.0319 121.195 77.9322C121.198 75.8353 120.096 74.2623 118.736 74.4214Z" fill="#FDA67C"/>
<path opacity="0.5" fill-rule="evenodd" clip-rule="evenodd" d="M118.773 74.4858C117.454 74.636 116.381 76.4079 116.378 78.4403C116.375 80.4735 117.443 81.9999 118.762 81.8476C120.081 81.6988 121.154 79.9276 121.158 77.8931C121.161 75.86 120.092 74.3336 118.773 74.4858Z" fill="#FDA47B"/>
<path opacity="0.5" fill-rule="evenodd" clip-rule="evenodd" d="M118.812 74.5503C117.534 74.6956 116.493 76.4079 116.49 78.3793C116.486 80.3494 117.521 81.8264 118.8 81.6824C120.078 81.5363 121.118 79.8227 121.122 77.8534C121.125 75.8833 120.09 74.4049 118.812 74.5503Z" fill="#FDA37B"/>
<path opacity="0.5" fill-rule="evenodd" clip-rule="evenodd" d="M118.847 74.6147C117.611 74.7532 116.603 76.4106 116.599 78.3162C116.595 80.2218 117.596 81.6536 118.834 81.513C120.071 81.3745 121.079 79.7171 121.083 77.8115C121.087 75.9045 120.085 74.4755 118.847 74.6147Z" fill="#FCA27A"/>
<path opacity="0.5" fill-rule="evenodd" clip-rule="evenodd" d="M118.886 74.6792C117.691 74.8108 116.716 76.4127 116.712 78.2531C116.708 80.0943 117.676 81.4801 118.873 81.3464C120.069 81.214 121.043 79.6129 121.047 77.7704C121.052 75.9299 120.084 74.5448 118.886 74.6792Z" fill="#FCA079"/>
<path opacity="0.5" fill-rule="evenodd" clip-rule="evenodd" d="M118.924 74.7436C117.767 74.8691 116.826 76.414 116.822 78.1907C116.817 79.9708 117.752 81.3066 118.908 81.1791C120.064 81.0536 121.006 79.5087 121.01 77.7306C121.014 75.9526 120.08 74.6161 118.924 74.7436Z" fill="#FC9F79"/>
<path opacity="0.5" fill-rule="evenodd" clip-rule="evenodd" d="M118.961 74.808C117.846 74.9287 116.938 76.4154 116.933 78.129C116.928 79.8446 117.829 81.1344 118.944 81.0138C120.059 80.8917 120.968 79.4044 120.973 77.6894C120.978 75.9772 120.076 74.686 118.961 74.808Z" fill="#FC9D78"/>
<path opacity="0.5" fill-rule="evenodd" clip-rule="evenodd" d="M118.999 74.8726C117.924 74.9871 117.048 76.4175 117.044 78.0667C117.039 79.7186 117.907 80.9611 118.981 80.8473C120.055 80.7314 120.931 79.3003 120.936 77.6498C120.941 76.0006 120.073 74.7567 118.999 74.8726Z" fill="#FC9C77"/>
<path opacity="0.5" fill-rule="evenodd" clip-rule="evenodd" d="M119.036 74.9356C118.003 75.046 117.16 76.4188 117.154 78.0055C117.149 79.5916 117.984 80.7888 119.017 80.6798C120.051 80.5687 120.894 79.1966 120.899 77.6106C120.905 76.0238 120.07 74.8266 119.036 74.9356Z" fill="#FC9B76"/>
<path opacity="0.5" fill-rule="evenodd" clip-rule="evenodd" d="M119.074 75.0001C118.081 75.1043 117.272 76.4209 117.266 77.9425C117.261 79.4641 118.062 80.6154 119.055 80.5112C120.047 80.4069 120.858 79.0904 120.862 77.5688C120.868 76.0451 120.067 74.8959 119.074 75.0001Z" fill="#FB9976"/>
<path opacity="0.5" fill-rule="evenodd" clip-rule="evenodd" d="M119.111 75.0638C118.159 75.1619 117.381 76.4223 117.376 77.8815C117.37 79.34 118.138 80.4419 119.09 80.3439C120.042 80.2465 120.819 78.9861 120.825 77.5269C120.83 76.0684 120.062 74.9665 119.111 75.0638Z" fill="#FB9875"/>
<path opacity="0.5" fill-rule="evenodd" clip-rule="evenodd" d="M119.149 75.1291C118.237 75.2203 117.494 76.4237 117.487 77.8184C117.481 79.2125 118.216 80.2678 119.127 80.1773C120.038 80.0861 120.782 78.882 120.788 77.4879C120.794 76.0939 120.059 75.0365 119.149 75.1291Z" fill="#FB9774"/>
<path opacity="0.5" fill-rule="evenodd" clip-rule="evenodd" d="M119.186 75.1934C118.315 75.2792 117.605 76.4277 117.598 77.7553C117.592 79.0869 118.293 80.0963 119.163 80.0099C120.033 79.9242 120.745 78.7763 120.751 77.4467C120.757 76.1164 120.055 75.1077 119.186 75.1934Z" fill="#FB9573"/>
<path opacity="0.5" fill-rule="evenodd" clip-rule="evenodd" d="M119.223 75.2578C118.393 75.3373 117.716 76.4269 117.709 77.6941C117.702 78.9613 118.371 79.922 119.2 79.8425C120.029 79.7629 120.707 78.6733 120.715 77.4061C120.721 76.1389 120.053 75.1782 119.223 75.2578Z" fill="#FB9473"/>
<path opacity="0.5" fill-rule="evenodd" clip-rule="evenodd" d="M119.261 75.3223C118.473 75.3971 117.827 76.4304 117.82 77.6332C117.814 78.8338 118.448 79.7506 119.237 79.6759C120.025 79.6032 120.671 78.5678 120.677 77.365C120.684 76.163 120.05 75.2483 119.261 75.3223Z" fill="#FB9272"/>
<path opacity="0.5" fill-rule="evenodd" clip-rule="evenodd" d="M119.297 75.3854C118.549 75.4547 117.937 76.4305 117.93 77.5701C117.922 78.7084 118.524 79.5765 119.272 79.5093C120.019 79.4414 120.632 78.4636 120.639 77.326C120.646 76.1857 120.045 75.3189 119.297 75.3854Z" fill="#FA9171"/>
<path opacity="0.5" fill-rule="evenodd" clip-rule="evenodd" d="M119.337 75.45C118.629 75.5124 118.049 76.4326 118.042 77.5071C118.035 78.5823 118.603 79.4024 119.31 79.3414C120.017 79.279 120.597 78.3588 120.604 77.2843C120.611 76.2091 120.043 75.3889 119.337 75.45Z" fill="#FA9071"/>
<path opacity="0.5" fill-rule="evenodd" clip-rule="evenodd" d="M119.372 75.5143C118.706 75.5706 118.159 76.4353 118.151 77.446C118.144 78.4567 118.678 79.2309 119.344 79.1747C120.01 79.1185 120.557 78.2531 120.565 77.2444C120.573 76.2323 120.038 75.4595 119.372 75.5143Z" fill="#FA8E70"/>
<path opacity="0.5" fill-rule="evenodd" clip-rule="evenodd" d="M119.41 75.5788C118.784 75.6302 118.27 76.4373 118.263 77.385C118.255 78.3312 118.756 79.0574 119.381 79.0074C120.006 78.958 120.521 78.1488 120.529 77.2032C120.536 76.257 120.036 75.5294 119.41 75.5788Z" fill="#FA8D6F"/>
<path opacity="0.5" fill-rule="evenodd" clip-rule="evenodd" d="M119.449 75.6433C118.864 75.6886 118.383 76.4387 118.375 77.3206C118.367 78.2038 118.835 78.8854 119.419 78.8394C120.004 78.7962 120.484 78.0454 120.493 77.1635C120.501 76.2803 120.033 75.6001 119.449 75.6433Z" fill="#FA8C6E"/>
<path opacity="0.5" fill-rule="evenodd" clip-rule="evenodd" d="M119.485 75.7078C118.941 75.7475 118.493 76.4408 118.484 77.2595C118.476 78.0783 118.91 78.7119 119.454 78.6735C119.998 78.6358 120.446 77.9411 120.454 77.1224C120.463 76.303 120.028 75.6701 119.485 75.7078Z" fill="#FA8A6E"/>
<path opacity="0.5" fill-rule="evenodd" clip-rule="evenodd" d="M119.522 75.7729C119.02 75.8059 118.604 76.4422 118.596 77.1965C118.587 77.9528 118.987 78.5384 119.491 78.5048C119.994 78.474 120.409 77.837 120.417 77.0806C120.426 76.3263 120.025 75.7414 119.522 75.7729Z" fill="#F9896D"/>
<path opacity="0.5" fill-rule="evenodd" clip-rule="evenodd" d="M119.56 75.8366C119.097 75.8634 118.716 76.4455 118.706 77.1354C118.697 77.8266 119.065 78.3642 119.527 78.3395C119.989 78.3134 120.371 77.7306 120.38 77.0407C120.389 76.3482 120.022 75.8119 119.56 75.8366Z" fill="#F9886C"/>
<path opacity="0.5" fill-rule="evenodd" clip-rule="evenodd" d="M119.597 75.9011C119.176 75.921 118.826 76.4469 118.818 77.0737C118.808 77.7004 119.142 78.1921 119.564 78.1722C119.985 78.1523 120.335 77.6284 120.344 76.9996C120.353 76.3729 120.018 75.8812 119.597 75.9011Z" fill="#F9866B"/>
<path opacity="0.5" fill-rule="evenodd" clip-rule="evenodd" d="M119.635 75.9662C119.255 75.9806 118.938 76.4476 118.929 77.0112C118.92 77.5735 119.22 78.0185 119.601 78.0055C119.981 77.9904 120.298 77.5221 120.307 76.9598C120.316 76.3961 120.015 75.9511 119.635 75.9662Z" fill="#F9856B"/>
<path opacity="0.5" fill-rule="evenodd" clip-rule="evenodd" d="M119.671 76.0307C119.331 76.0382 119.048 76.451 119.038 76.9502C119.029 77.448 119.296 77.8464 119.636 77.8382C119.976 77.83 120.259 77.4179 120.269 76.9194C120.279 76.4188 120.011 76.0218 119.671 76.0307Z" fill="#F9836A"/>
<path opacity="0.5" fill-rule="evenodd" clip-rule="evenodd" d="M119.709 76.0951C119.41 76.0965 119.16 76.4517 119.15 76.8871C119.139 77.3225 119.374 77.6729 119.673 77.6695C119.971 77.6681 120.222 77.3123 120.232 76.8789C120.242 76.4441 120.008 76.0917 119.709 76.0951Z" fill="#F98269"/>
<path opacity="0.5" fill-rule="evenodd" clip-rule="evenodd" d="M119.747 76.1596C119.489 76.1561 119.272 76.4544 119.261 76.824C119.251 77.1964 119.452 77.5008 119.71 77.5042C119.968 77.5077 120.186 77.2094 120.196 76.8371C120.207 76.4668 120.005 76.163 119.747 76.1596Z" fill="#F88168"/>
<path opacity="0.5" fill-rule="evenodd" clip-rule="evenodd" d="M119.783 76.2241C119.566 76.2138 119.381 76.4558 119.371 76.763C119.36 77.0709 119.528 77.3274 119.745 77.3356C119.962 77.3452 120.147 77.1052 120.157 76.798C120.168 76.4881 120 76.2337 119.783 76.2241Z" fill="#F87F68"/>
<path opacity="0.5" fill-rule="evenodd" clip-rule="evenodd" d="M119.821 76.2886C119.645 76.2722 119.493 76.4573 119.482 76.7007C119.471 76.9435 119.606 77.1533 119.782 77.1704C119.958 77.1848 120.11 76.9997 120.121 76.757C120.132 76.5135 119.998 76.3037 119.821 76.2886Z" fill="#F87E67"/>
</g>
</g>
<path fill-rule="evenodd" clip-rule="evenodd" d="M96.5357 69.7837C96.7968 69.8399 97.384 69.7357 97.4368 64.4924C97.4813 60.1856 97.3937 56.219 99.2843 51.32C100.704 53.3777 114.176 59.5964 110.777 52.9145C110.777 52.9145 113.828 56.7665 115.054 56.9849C116.28 57.2015 114.889 51.0946 114.889 51.0946C117.746 57.7258 126.139 62.6033 123.052 54.049C124.979 57.9194 124.173 42.2327 116.116 37.0688C111.84 34.328 101.808 34.5977 98.4268 41.528C98.4268 41.528 98.6013 36.7613 97.8372 37.1036C97.0735 37.4458 97.208 41.9018 97.208 41.9018C97.208 41.9018 96.3084 39.6802 96.105 40.6961C95.9012 41.7134 96.7768 42.7751 96.7768 42.7751C96.7768 42.7751 92.7429 46.7962 92.3318 54.4988C91.9201 62.1998 93.5926 66.416 93.5926 66.416C96.0366 64.1432 96.0649 69.6822 96.5357 69.7837Z" fill="black"/>
<path fill-rule="evenodd" clip-rule="evenodd" d="M122.741 46.8427C122.22 45.2167 121.511 43.5199 120.586 41.9485C115.696 47.587 100.491 38.7166 92.4675 52.9543C92.4069 53.452 92.3604 53.9665 92.3321 54.4993C92.313 54.8548 92.2984 55.204 92.2881 55.543C94.0109 53.3002 96.5395 49.3918 100.563 48.1297C106.468 46.2802 118.192 51.4126 122.741 46.8427Z" fill="#2D2D2D"/>
<path fill-rule="evenodd" clip-rule="evenodd" d="M114.849 81.9354C114.538 82.8529 113.459 84.4492 111.454 84.2606C109.706 84.0968 108.554 82.4428 108.137 81.227C107.882 80.4878 107.949 79.798 108.226 80.324C110.639 84.9025 113.868 82.628 114.568 81.6062C114.832 81.2209 115.039 81.3758 114.849 81.9354Z" fill="#B13B32"/>
<path d="M108.041 69.4246C108.041 69.4246 104.522 72.5013 102.806 69.4808C100.715 65.8038 103.053 61.8079 104.817 61.9815C106.449 62.1423 108.098 64.1403 108.041 69.4246Z" fill="#F9FEFF"/>
<path d="M102.052 64.2639C102.603 62.5704 103.483 61.844 104.5 61.7432C105.539 61.644 106.688 62.6265 107.098 63.8537C106.416 62.5322 105.419 62.2527 104.809 62.1929C103.838 62.0943 102.671 63.1689 102.249 64.805C101.874 66.2589 102.093 68.2272 102.861 69.5767C102.022 68.7463 101.478 66.029 102.052 64.2639Z" fill="black"/>
<path d="M107.5 65.2716C108.068 66.9452 107.75 69.1069 106.791 70.0957C105.831 71.0866 104.594 70.5325 104.025 68.8573C103.458 67.1835 103.776 65.0232 104.735 64.0325C105.695 63.0419 106.933 63.5961 107.5 65.2716Z" fill="black"/>
<path d="M107.301 66.2904C107.432 66.6792 107.359 67.1784 107.137 67.4085C106.914 67.6386 106.628 67.5096 106.496 67.1208C106.364 66.7338 106.438 66.2343 106.661 66.0042C106.882 65.7741 107.169 65.9034 107.301 66.2904Z" fill="#FEFFFE"/>
<path d="M115.094 70.2569C115.094 70.2569 118.646 73.1184 120.297 70.0238C122.309 66.2508 119.913 62.4102 118.162 62.6814C116.543 62.931 114.941 65.0067 115.094 70.2569Z" fill="#F9FEFF"/>
<path d="M120.951 64.795C120.373 63.1426 119.485 62.4696 118.473 62.4283C117.438 62.3854 116.313 63.4258 115.928 64.6678C116.582 63.3166 117.567 62.9823 118.173 62.8897C119.137 62.7391 120.316 63.7414 120.765 65.3425C121.164 66.7681 120.982 68.736 120.244 70.1212C121.062 69.2476 121.554 66.5188 120.951 64.795Z" fill="black"/>
<path d="M120.552 66.585C120.825 68.4108 120.198 70.2796 119.151 70.7562C118.105 71.2341 117.035 70.1397 116.761 68.3118C116.488 66.486 117.115 64.6167 118.162 64.1406C119.208 63.6621 120.279 64.7568 120.552 66.585Z" fill="black"/>
<path d="M120.259 66.8592C120.324 67.2927 120.175 67.7358 119.926 67.8501C119.678 67.9626 119.424 67.7028 119.359 67.2678C119.294 66.8361 119.443 66.393 119.691 66.2787C119.94 66.1662 120.194 66.4257 120.259 66.8592Z" fill="#FEFFFE"/>
<path fill-rule="evenodd" clip-rule="evenodd" d="M112.835 174.052H112.578V173.527C112.661 173.696 112.748 173.873 112.835 174.052Z" fill="#FFB685"/>
</svg>
