<svg width="450" height="350" viewBox="0 0 450 350" fill="none" xmlns="http://www.w3.org/2000/svg">
<path fill-rule="evenodd" clip-rule="evenodd" d="M199.828 68.6275L198.41 64.2748C201.931 60.7844 214.024 56.3333 217.347 55.814L219.002 60.5954C217.243 61.8633 199.828 68.6275 199.828 68.6275Z" fill="#219487"/>
<path fill-rule="evenodd" clip-rule="evenodd" d="M240.066 271.849C235.36 276.402 230.834 280.867 227.416 284.254C224.104 287.522 221.836 289.808 221.402 290.242C221.381 290.255 221.371 290.268 221.371 290.268C221.339 290.293 221.328 290.306 221.328 290.306L210.483 289.846L214.028 279.935C214.028 279.935 214.039 279.92 214.05 279.907H214.06C214.387 279.554 217.056 276.706 220.536 272.95C224.02 269.195 228.324 264.493 231.901 260.465C232.577 261.475 233.262 262.484 233.989 263.523C234.169 263.784 234.359 264.06 234.55 264.338C236.258 266.766 238.094 269.271 240.066 271.849Z" fill="#266B14"/>
<path fill-rule="evenodd" clip-rule="evenodd" d="M248.675 240.035V263.589L247.886 264.338C245.331 266.766 242.673 269.328 240.067 271.846C238.094 269.271 236.258 266.766 234.549 264.338C234.36 264.062 234.17 263.784 233.99 263.523C233.263 262.485 232.577 261.474 231.901 260.465C232.376 259.939 232.828 259.414 233.273 258.915C233.504 258.651 233.747 258.376 233.99 258.099V240.035H248.675V240.035Z" fill="#266B14"/>
<path fill-rule="evenodd" clip-rule="evenodd" d="M228.262 294.553C228.262 294.553 224.084 250.302 223.299 230.724C222.516 211.142 210.075 212.106 207.796 220.244C205.516 228.379 209.905 249.109 211.864 262.534C213.826 275.964 216.303 296.929 216.303 296.929L221.614 306.777L228.262 294.553Z" fill="#266B14"/>
<path fill-rule="evenodd" clip-rule="evenodd" d="M225.434 262.239C224.5 250.746 223.62 238.69 223.299 230.723C222.516 211.141 210.075 212.105 207.796 220.243C205.516 228.378 209.905 249.108 211.864 262.533C211.982 263.339 212.103 264.172 212.222 265.027C216.329 264.343 220.737 263.431 225.434 262.239Z" fill="#266B14"/>
<path fill-rule="evenodd" clip-rule="evenodd" d="M214.064 279.904C214.064 279.904 211.899 279.054 208.984 281.117C206.07 283.182 204.487 286.003 204.487 286.003L217.281 308.853L219.741 310.528C224.821 306.855 221.775 294.556 221.367 290.271C219.806 290.506 211.761 285.736 214.064 279.904Z" fill="#DB4F30"/>
<path fill-rule="evenodd" clip-rule="evenodd" d="M216.508 294.755C216.508 294.755 214.645 296.404 214.212 300.57C213.778 304.734 214.638 308.027 214.638 308.027L237.146 309.093L239.717 307.65C239.717 307.65 240.897 305.828 239.007 303.089C237.116 300.351 234.744 299.335 234.744 299.335C234.674 299.973 233.399 300.963 230.05 301.38C224.553 302.063 218.788 300.365 216.508 294.755Z" fill="#DB4F30"/>
<path fill-rule="evenodd" clip-rule="evenodd" d="M216.145 295.661C215.81 295.912 215.372 295.773 215.17 295.355C214.969 294.938 215.079 294.392 215.415 294.142C216.753 293.145 219.374 292.396 221.926 292.05C224.56 291.691 227.188 291.764 228.338 292.435C228.693 292.64 228.845 293.168 228.681 293.609C228.514 294.052 228.09 294.242 227.736 294.037C226.825 293.504 224.49 293.48 222.076 293.809C219.7 294.132 217.301 294.799 216.145 295.661Z" fill="#DB4F30"/>
<path fill-rule="evenodd" clip-rule="evenodd" d="M204.976 284.527L215.007 301.653C215.253 302.074 215.187 302.675 214.861 302.994C214.534 303.314 214.066 303.228 213.819 302.809L203.788 285.683C203.543 285.264 203.607 284.66 203.933 284.342C204.261 284.024 204.73 284.108 204.976 284.527Z" fill="#B82C0D"/>
<path fill-rule="evenodd" clip-rule="evenodd" d="M228.066 293.504C228.066 293.504 227.643 289.792 227.567 284.164C223.725 284.197 218.727 284.206 215.003 284.181C215.454 290.355 216.188 295.106 216.188 295.106C218.468 300.713 224.553 302.062 230.05 301.378C233.398 300.961 234.674 299.975 234.745 299.334C233.758 297.744 230.261 295.383 227.715 293.504" fill="#FFE0DA"/>
<path fill-rule="evenodd" clip-rule="evenodd" d="M214.638 307.65H239.461C240.069 307.65 240.568 308.271 240.568 309.029C240.568 309.788 240.068 310.408 239.461 310.408H214.638C214.03 310.408 213.531 309.788 213.531 309.029C213.531 308.271 214.029 307.65 214.638 307.65Z" fill="#B82C0D"/>
<path fill-rule="evenodd" clip-rule="evenodd" d="M219.31 62.0767C219.31 62.0767 215.23 51.0771 200.81 54.703C186.39 58.3255 178.789 76.7609 180.352 95.3516C181.4 107.809 185.662 114.102 186.995 122.313C187.953 128.214 187.336 133.563 185.574 137.568C184.022 141.094 181.992 141.742 186.327 141.588C187.575 141.543 188.804 141.333 190.013 140.953C195.396 139.264 200.382 134.216 204.74 125.406C212.223 110.274 219.31 62.0767 219.31 62.0767Z" fill="black"/>
<path fill-rule="evenodd" clip-rule="evenodd" d="M252.612 160.09C251.565 162.868 248.052 166.565 244.66 168.98C244.653 168.941 244.646 168.906 244.635 168.871C243.718 165.029 242.783 161.56 241.84 158.616C240.3 153.803 238.258 152.132 235.684 151.821C234.644 153.401 233.67 154.249 232.162 155.247C232.148 153.886 232.355 152.626 232.812 151.533C233.505 149.857 234.788 148.575 236.788 147.945C237.098 147.849 237.414 147.779 237.741 147.744C242.498 147.166 249.054 152.653 252.612 160.09Z" fill="#F7931E"/>
<path fill-rule="evenodd" clip-rule="evenodd" d="M217.526 156.857C214.721 155.886 212.161 154.171 210.263 151.721C210.193 151.791 212.232 153.615 212.165 153.694C210.664 155.409 207.057 161.109 205.172 170.533C205.169 170.564 205.162 170.594 205.155 170.629C201.646 168.184 197.993 164.377 196.914 161.516C199.772 155.536 204.557 150.806 208.807 149.432C210.256 148.964 211.641 148.881 212.868 149.271C214.172 149.686 215.171 150.373 215.905 151.261C217.09 152.696 217.582 154.656 217.526 156.857Z" fill="#F7931E"/>
<path fill-rule="evenodd" clip-rule="evenodd" d="M236.036 151.384C234.995 152.963 233.67 154.25 232.162 155.247C227.974 158.016 222.381 158.546 217.526 156.857C214.72 155.886 212.161 154.171 210.263 151.721C211.76 150.233 213.712 150.548 215.905 151.261C218.38 152.062 221.165 153.361 223.945 153.125C227.31 152.841 230.26 151.94 232.812 151.533C233.969 151.349 235.041 151.261 236.036 151.384Z" fill="#F7931E"/>
<path fill-rule="evenodd" clip-rule="evenodd" d="M256.796 239.746L256.792 239.75C246.502 249.777 203.253 250.827 194.815 240.564C194.854 239.754 194.928 238.691 195.04 237.401C210.284 246.426 242.115 245.122 256.276 235.567L256.346 236.123C256.508 237.409 256.662 238.621 256.796 239.746Z" fill="#F7931E"/>
<path fill-rule="evenodd" clip-rule="evenodd" d="M256.276 235.568C242.115 245.123 210.285 246.426 195.041 237.401C196.054 225.719 199.984 195.816 203.953 174.593C204.238 173.079 204.519 171.605 204.804 170.192C204.811 170.157 204.818 170.126 204.821 170.096C206.706 160.672 208.555 153.659 210.056 151.944C210.123 151.865 210.193 151.791 210.264 151.721C212.162 154.171 214.721 155.886 217.527 156.857C222.382 158.546 227.975 158.016 232.162 155.247C233.671 154.249 234.996 152.963 236.037 151.384C238.61 151.694 240.653 153.366 242.193 158.178C243.135 161.123 244.07 164.592 244.987 168.433C244.998 168.468 245.005 168.503 245.012 168.543C245.346 169.925 245.673 171.36 246 172.83C250.373 192.596 254.248 219.573 256.276 235.568Z" fill="#F7931E"/>
<path fill-rule="evenodd" clip-rule="evenodd" d="M251.406 161.166C249.672 164.395 245.528 168.031 241.727 170.113C241.727 170.113 241.727 170.109 241.724 170.109C245.31 168.048 248.846 164.592 251.318 160.982C251.349 161.044 251.377 161.105 251.406 161.166Z" fill="#FF7252"/>
<path fill-rule="evenodd" clip-rule="evenodd" d="M294.715 181.698C294.827 183.531 289.494 183.964 288.359 184.026C289.385 184.424 291.473 184.319 292.317 184.489C294.303 184.87 293.65 186.296 291.298 186.69C287.912 187.25 279.334 185.084 279.334 185.084C279.334 185.084 268.147 191.642 258.377 194.574C258.318 194.596 258.244 194.613 258.159 194.635C254.092 195.72 249.444 192.517 248.358 187.521C247.894 185.386 247.31 183.356 246.607 181.387C245.658 178.723 245.187 176.168 243.773 173.6C247.159 171.605 250.355 169.378 253.273 165.567C254.099 167.751 254.876 170.183 255.523 172.843C256.243 175.796 256.809 179.143 257.256 182.534C263.538 182.276 269.641 179.891 277.267 174.676C277.267 174.676 279.851 169.706 282.424 168.634C283.996 168.004 284.446 168.599 284.407 169.308C284.368 170.026 282.357 172.795 282.266 173.346L286.727 174.129C288.295 174.3 292.177 172.147 293.01 173.819C293.843 175.49 289.793 177.205 288.109 177.664C289.571 177.944 294.989 176.216 294.929 178.006C294.866 179.795 291.139 180.407 288.127 180.613C292.648 181.256 294.609 179.882 294.715 181.698Z" fill="#FFB685"/>
<path fill-rule="evenodd" clip-rule="evenodd" d="M218.057 133.48L227.787 135.593L228.608 147.621L223.318 148.971L217.781 148.792L218.057 133.48Z" fill="#E8935A"/>
<path fill-rule="evenodd" clip-rule="evenodd" d="M213.013 148.261C216.87 146.634 220.585 146.086 224.171 145.924C227.161 145.79 234.281 147.026 236.54 148.388C234.94 150.975 225.451 152.117 221.651 152.117C217.85 152.117 214.291 149.817 213.013 148.261Z" fill="#E8935A"/>
<path fill-rule="evenodd" clip-rule="evenodd" d="M196.312 120.982C189.903 121.257 188.396 110.161 193.563 108.178C189.026 90.3761 197.522 71.1585 216.054 66.9261C228.879 63.9957 243.446 71.0631 247.522 89.9749C250.258 102.669 250.621 115.447 247.091 124.052C238.493 145.019 203.443 143.21 196.312 120.982Z" fill="#FFB685"/>
<path fill-rule="evenodd" clip-rule="evenodd" d="M196.312 120.982C194.649 121.419 193.347 120.221 192.413 119.335C194.269 119.93 196.103 119.853 197.993 118.12C203.405 139.31 233.274 142.64 244.084 129.265C232.273 144.512 202.786 141.163 196.312 120.982Z" fill="#FFB685"/>
<path fill-rule="evenodd" clip-rule="evenodd" d="M194.239 86.8081C196.655 79.7097 201.326 73.6052 208.002 69.8633C208.515 70.4158 209.079 70.8481 209.81 70.8717C213.111 70.9833 231.333 70.6538 238.558 74.5743C245.786 78.496 250.323 106.398 248.22 95.9553C245.854 84.215 227.176 86.4502 219.387 84.845C214.305 83.7963 210.129 81.2763 210.129 81.2763C208.211 90.4564 207.54 91.908 201.527 98.1376C198.232 101.55 196.982 103.956 196.764 109.681C194.239 105.983 193.052 96.0888 194.239 86.8081Z" fill="#FFB685"/>
<path fill-rule="evenodd" clip-rule="evenodd" d="M232.453 181.904C232.58 183.745 227.208 184.244 226.062 184.314C227.099 184.695 229.208 184.572 230.048 184.73C232.059 185.097 231.412 186.545 229.039 186.961C225.64 187.56 216.974 185.465 216.974 185.465C216.974 185.465 209.246 190.098 201.002 193.423C198.83 194.298 196.618 195.085 194.505 195.672C194.365 195.711 194.041 195.781 193.588 195.869C189.742 196.608 186.567 192.172 187.583 187.495C187.914 185.95 188.276 184.384 188.666 182.84C189.45 179.694 190.339 176.632 191.341 173.937C192.987 169.487 194.959 165.799 196.787 162.92C198.373 165.681 201.639 168.7 204.912 170.787C205.562 171.198 206.212 171.579 206.849 171.907C205.854 173.049 204.922 174.182 204.047 175.319C202.233 177.669 200.668 180.027 199.329 182.512C200.524 182.245 201.73 181.89 202.953 181.453C206.627 180.136 210.48 178.036 214.819 175.009C214.819 175.009 217.385 169.96 219.983 168.862C221.562 168.214 222.012 168.814 221.984 169.518C221.945 170.253 219.945 173.044 219.846 173.604L224.346 174.348C225.935 174.51 229.834 172.287 230.688 173.972C231.539 175.656 227.461 177.424 225.766 177.9C227.246 178.167 232.696 176.374 232.646 178.167C232.597 179.974 228.836 180.63 225.805 180.875C230.365 181.475 232.334 180.057 232.453 181.904Z" fill="#FFB685"/>
<path fill-rule="evenodd" clip-rule="evenodd" d="M201.225 70.5527L199.838 66.2897C203.286 62.8715 215.129 58.5122 218.383 58.0034L220.003 62.686C218.281 63.928 201.225 70.5527 201.225 70.5527Z" fill="#219487"/>
<path fill-rule="evenodd" clip-rule="evenodd" d="M232.6 113.386C232.491 118.405 226.181 118.362 225.781 114.736C226.516 115.02 227.392 115.473 228.764 115.36C229.943 115.262 231.597 114.741 232.6 113.386Z" fill="#F09B63"/>
<path fill-rule="evenodd" clip-rule="evenodd" d="M194.601 115.141C194.601 115.141 193.842 113.49 195.109 113.108C195.766 112.909 196.159 113.625 196.371 114.348C196.568 115.015 196.613 115.691 196.576 115.663C196.576 115.663 196.397 115.35 196.142 115.029C195.667 114.437 194.931 113.819 194.601 115.141Z" fill="#FAA66E"/>
<path fill-rule="evenodd" clip-rule="evenodd" d="M245.806 96.0839C244.053 94.1015 240.61 93.5866 238.946 93.6527C235.794 93.7782 237.281 91.2543 238.801 91.0154C241.673 90.5665 244.904 92.2702 246.557 94.5837C247.862 96.4102 247.899 98.4477 245.806 96.0839Z" fill="black"/>
<path fill-rule="evenodd" clip-rule="evenodd" d="M208.395 76.5586C208.395 76.5586 212.989 82.1853 221.541 83.0345C230.091 83.885 240.171 85.3073 244.009 88.4197C247.846 91.5321 249.179 100.091 249.179 100.091C257.385 75.5861 231.093 50.0685 203.181 67.9268C190.828 75.8311 182.852 96.5673 190.493 114.657C190.097 110.812 193.933 107.539 196.782 109.775C196.335 103.672 197.192 101.073 200.483 97.1688C203.619 93.4523 208.417 87.469 208.395 76.5586Z" fill="#020202"/>
<path fill-rule="evenodd" clip-rule="evenodd" d="M229.362 83.9732C234.966 84.7965 240.252 85.9892 243.195 87.8415C245.334 84.1197 246.5 80.3524 247.043 76.7955C245.393 73.8227 243.236 71.1492 240.673 68.9175C238.807 75.2481 234.664 80.2365 229.362 83.9732ZM188.413 91.0563C187.733 94.25 187.412 97.5777 187.519 100.944C189.84 103.455 192.845 105.801 196.673 107.306C196.639 102.884 197.673 100.504 200.484 97.169C201.542 95.9152 202.789 94.4014 203.976 92.5276C198.15 92.9669 192.662 92.4545 188.413 91.0563Z" fill="#424242"/>
<path fill-rule="evenodd" clip-rule="evenodd" d="M206.033 97.4231C207.874 95.1967 211.512 94.2005 213.274 94.0342C216.61 93.7183 215.019 91.4031 213.406 91.3777C210.367 91.3305 206.958 93.4843 205.229 96.0297C203.861 98.0365 203.837 100.077 206.033 97.4231Z" fill="black"/>
<path d="M235.475 111.456C235.475 111.456 242.206 114.683 245.032 110.378C248.476 105.132 243.803 100.45 240.602 101.064C237.639 101.632 234.834 104.595 235.475 111.456Z" fill="#F9FEFF"/>
<path d="M245.877 103.423C244.699 101.341 243.02 100.59 241.157 100.685C239.25 100.783 237.252 102.315 236.628 104.001C237.738 102.132 239.528 101.549 240.636 101.338C242.4 100.996 244.637 102.136 245.572 104.171C246.405 105.98 246.204 108.588 244.939 110.513C246.385 109.248 247.104 105.593 245.877 103.423Z" fill="black"/>
<path d="M237.307 105.831C236.585 107.753 237.251 110.043 238.796 110.941C240.341 111.841 242.181 111.01 242.903 109.088C243.625 107.165 242.958 104.876 241.413 103.977C239.868 103.079 238.031 103.908 237.307 105.831Z" fill="black"/>
<path d="M237.585 105.24C237.384 105.774 237.569 106.409 237.997 106.658C238.427 106.907 238.937 106.676 239.136 106.143C239.337 105.609 239.153 104.975 238.724 104.725C238.295 104.477 237.786 104.706 237.585 105.24Z" fill="#FEFFFE"/>
<path d="M220.38 113.262C220.38 113.262 213.817 117.032 210.767 112.956C207.051 107.988 211.479 102.929 214.711 103.284C217.704 103.614 220.664 106.349 220.38 113.262Z" fill="#F9FEFF"/>
<path d="M209.56 106.069C210.628 103.892 212.27 103.005 214.138 102.95C216.049 102.896 218.128 104.265 218.839 105.902C217.631 104.122 215.81 103.683 214.692 103.56C212.911 103.362 210.733 104.682 209.904 106.792C209.167 108.668 209.501 111.26 210.867 113.083C209.356 111.935 208.447 108.34 209.56 106.069Z" fill="black"/>
<path d="M212.702 108.688C212.27 110.746 213.26 112.85 214.914 113.388C216.568 113.925 218.259 112.693 218.689 110.634C219.122 108.576 218.132 106.473 216.478 105.936C214.825 105.397 213.133 106.631 212.702 108.688Z" fill="black"/>
<path d="M212.891 108.042C212.77 108.614 213.045 109.198 213.503 109.346C213.963 109.495 214.432 109.154 214.551 108.583C214.671 108.011 214.397 107.427 213.938 107.279C213.479 107.13 213.009 107.471 212.891 108.042Z" fill="#FEFFFE"/>
<path d="M236.778 120.883C236.653 120.823 236.563 120.993 236.638 121.093C236.899 121.448 236.831 121.863 236.67 122.228C235.822 122.655 234.858 122.704 233.92 122.836C232.468 123.038 230.986 123.015 229.519 123.011C227.433 123.004 225.23 122.305 223.185 122.792C222.766 122.821 222.344 122.861 221.907 122.931C220.638 123.13 218.191 124.343 217.557 122.464C217.418 122.054 216.845 122.335 216.982 122.746C217.337 123.8 217.912 124.079 218.754 124.091C220.222 125.496 220.766 127.915 222.585 128.868C224.318 129.783 226.485 130.249 228.395 130.154C230.046 130.073 231.78 129.405 232.965 128.212C233.584 127.596 233.899 126.798 234.202 125.978C234.719 124.583 235.389 123.818 236.486 122.926C236.497 122.917 236.499 122.903 236.507 122.89C236.669 122.821 236.837 122.753 236.985 122.668C237.067 122.66 237.145 122.63 237.201 122.564C237.207 122.556 237.207 122.551 237.213 122.547L237.217 122.545C237.294 122.497 237.328 122.423 237.338 122.346C237.564 121.827 237.27 121.121 236.778 120.883ZM233.802 125.818C232.927 128.169 231.36 129.309 228.972 129.569C227.072 129.777 224.895 129.277 223.114 128.56C221.178 127.783 220.585 125.37 218.993 124.093C219.133 124.09 219.281 124.077 219.433 124.066C221.509 123.873 223.426 122.913 225.545 122.836C225.562 122.836 225.57 122.82 225.566 122.805C227.209 122.958 228.897 123.402 230.481 123.474C231.884 123.537 233.713 123.61 235.292 123.27C234.566 123.883 234.136 124.912 233.802 125.818Z" fill="#9E4C0B"/>
<path d="M233.802 125.818C232.927 128.169 231.36 129.309 228.972 129.569C227.072 129.778 224.895 129.277 223.114 128.56C221.178 127.783 220.584 125.37 218.993 124.093C219.132 124.09 219.28 124.077 219.433 124.066C221.509 123.873 223.425 122.913 225.545 122.837C225.562 122.837 225.57 122.82 225.566 122.805C227.209 122.958 228.897 123.402 230.481 123.474C231.884 123.537 233.713 123.61 235.292 123.27C234.566 123.883 234.136 124.913 233.802 125.818Z" fill="#8C0C00"/>
<path d="M234.036 123.456C232.805 123.518 231.53 123.447 230.486 123.387C228.905 123.296 227.212 122.908 225.569 122.751C225.573 122.763 225.566 122.776 225.549 122.775C223.944 122.785 222.463 123.191 220.937 123.43C221.401 124.179 221.893 124.76 223.149 125.011C224.35 125.248 225.539 125.512 226.76 125.593C228.831 125.729 230.787 125.526 232.686 125.057C233.228 124.588 233.663 124.039 234.036 123.456Z" fill="white"/>
<g opacity="0.6">
<g opacity="0.6">
<path opacity="0.6" d="M230.486 123.387C228.905 123.294 227.212 122.909 225.569 122.751C225.573 122.763 225.566 122.778 225.549 122.775C223.943 122.785 222.463 123.192 220.937 123.43C220.977 123.499 221.021 123.564 221.061 123.626C222.7 123.535 224.277 123.222 225.953 123.318C227.917 123.435 229.863 123.739 231.816 124.014C231.997 124.038 232.112 124.181 232.06 124.321C231.907 124.739 231.631 125.074 231.271 125.353C231.747 125.27 232.217 125.172 232.686 125.056C233.228 124.587 233.662 124.038 234.035 123.456C232.805 123.518 231.53 123.447 230.486 123.387Z" fill="#B8A997"/>
</g>
</g>
<path d="M228.242 127.752C226.373 127.537 224.889 127.888 223.434 128.681C225.155 129.33 227.184 129.766 228.972 129.569C229.833 129.475 230.582 129.264 231.235 128.927C230.328 128.326 229.347 127.88 228.242 127.752Z" fill="#FF7858"/>
<path fill-rule="evenodd" clip-rule="evenodd" d="M217.011 296.492C216.676 296.742 216.238 296.604 216.036 296.186C215.835 295.768 215.945 295.223 216.281 294.972C217.619 293.975 220.24 293.226 222.792 292.88C225.427 292.522 228.054 292.595 229.204 293.266C229.56 293.471 229.711 293.998 229.547 294.44C229.381 294.883 228.956 295.073 228.602 294.867C227.691 294.335 225.356 294.311 222.942 294.64C220.566 294.963 218.167 295.63 217.011 296.492Z" fill="#DB4F30"/>
<path fill-rule="evenodd" clip-rule="evenodd" d="M255.234 164.953C251.743 169.242 247.935 171.899 243.898 174.125C243.472 172.459 243.046 170.833 242.61 169.266C242.601 169.222 242.592 169.182 242.578 169.142C246.418 166.579 249.988 163.153 252.517 159.688C253.543 161.299 254.763 163.604 255.234 164.953Z" fill="#DB4F30"/>
<path fill-rule="evenodd" clip-rule="evenodd" d="M207.422 170.348C207.417 170.383 207.408 170.418 207.398 170.457C207.009 172.056 206.625 173.725 206.237 175.437C201.787 173.141 197.592 170.423 193.757 165.938C194.256 164.582 195.542 162.265 196.627 160.641C199.363 164.215 203.251 167.745 207.422 170.348Z" fill="#DB4F30"/>
<path fill-rule="evenodd" clip-rule="evenodd" d="M256.873 240.415C245.489 249.379 205.633 250.897 194.653 241.662L195.04 237.401C210.284 246.426 242.114 245.122 256.275 235.567L256.345 236.123L256.792 239.75L256.873 240.415Z" fill="#DB4F30"/>
<path fill-rule="evenodd" clip-rule="evenodd" d="M237.804 147.45C237.782 147.525 237.765 147.594 237.74 147.664C237.325 149.101 236.749 150.389 236.035 151.533C234.995 153.212 233.669 154.579 232.161 155.64C227.974 158.584 222.38 159.146 217.525 157.351C214.72 156.319 212.161 154.496 210.262 151.892C209.717 151.148 209.229 150.334 208.807 149.46C208.75 149.352 208.698 149.246 208.648 149.134C210.491 148.064 212.969 146.944 214.896 146.711C216.414 153.203 229.957 154.682 232.505 146.125C234.035 146.344 235.926 146.678 237.804 147.45Z" fill="#DB4F30"/>
</svg>
