<svg width="450" height="350" viewBox="0 0 450 350" fill="none" xmlns="http://www.w3.org/2000/svg">
<path fill-rule="evenodd" clip-rule="evenodd" d="M288.361 184.027C289.385 184.425 291.475 184.318 292.318 184.488C294.303 184.868 293.65 186.295 291.3 186.689C287.913 187.25 279.336 185.082 279.336 185.082C279.336 185.082 268.148 191.641 258.38 194.574C258.318 194.593 258.244 194.615 258.16 194.636C254.091 195.721 250.149 192.516 249.062 187.519C248.597 185.387 248.013 183.357 247.31 181.387C245.34 175.876 242.421 170.816 238.436 165.178C236.897 163.004 235.203 156.703 238.199 152.983C241.195 149.275 244.604 150.036 246.518 152.84C246.518 152.84 252.482 160.333 255.523 172.841C256.244 175.796 256.812 179.145 257.256 182.535C263.54 182.275 269.643 179.891 277.27 174.678C277.27 174.678 279.85 169.704 282.425 168.633C283.999 168.004 284.446 168.6 284.408 169.307C284.368 170.027 282.357 172.797 282.266 173.346L286.73 174.128C288.295 174.299 292.177 172.149 293.01 173.819C293.843 175.49 289.793 177.205 288.109 177.665C289.572 177.943 294.989 176.216 294.93 178.006C294.869 179.793 291.139 180.405 288.128 180.612C292.648 181.257 294.61 179.883 294.715 181.698C294.829 183.529 289.496 183.965 288.361 184.027Z" fill="#FFB685"/>
<path fill-rule="evenodd" clip-rule="evenodd" d="M252.521 276.053C252.521 276.053 242.82 243.723 238.57 226.512C234.32 209.302 223.419 213.656 222.866 221.541C222.312 229.423 229.979 246.642 234.162 258.045C238.344 269.447 242.748 281.648 242.748 281.648C246.37 286.004 252.249 285.26 257.249 282.381C260.295 280.628 261.238 279.175 261.136 278.546C259.79 277.447 255.415 276.788 252.521 276.053Z" fill="#FFB685"/>
<path fill-rule="evenodd" clip-rule="evenodd" d="M252.979 275.911C252.979 275.911 251.939 272.44 250.388 267.169C246.777 268.763 242.4 270.661 238.884 272.154C240.93 277.788 242.538 282.111 242.538 282.111C246.16 286.464 252.248 285.26 257.249 282.38C260.294 280.627 261.238 279.175 261.136 278.546C259.79 277.447 255.874 276.646 252.979 275.911Z" fill="#FFE0DA"/>
<path fill-rule="evenodd" clip-rule="evenodd" d="M242.749 281.649C242.749 281.649 241.426 283.959 242.111 288.061C242.797 292.162 244.472 294.915 244.472 294.915L265.961 286.766L268.006 284.36C268.006 284.36 268.639 282.161 266.138 280.35C263.638 278.538 261.136 278.546 261.136 278.546C261.237 279.176 260.295 280.626 257.249 282.381C252.249 285.261 246.37 286.006 242.749 281.649Z" fill="#DB4F30"/>
<path fill-rule="evenodd" clip-rule="evenodd" d="M242.643 282.649C242.392 283.02 241.945 283.07 241.644 282.758C241.345 282.443 241.306 281.889 241.558 281.514C242.556 280.03 244.828 278.259 247.142 276.894C249.532 275.484 252.026 274.483 253.286 274.649C253.674 274.699 253.957 275.134 253.917 275.618C253.877 276.102 253.528 276.454 253.14 276.404C252.141 276.273 249.936 277.199 247.747 278.491C245.591 279.761 243.507 281.365 242.643 282.649Z" fill="#DB4F30"/>
<path fill-rule="evenodd" clip-rule="evenodd" d="M244.372 294.561L267.763 284.464C268.338 284.217 268.972 284.597 269.171 285.312C269.37 286.026 269.061 286.817 268.488 287.063L245.098 297.16C244.525 297.406 243.891 297.025 243.691 296.311C243.492 295.595 243.798 294.808 244.372 294.561Z" fill="#B82C0D"/>
<path fill-rule="evenodd" clip-rule="evenodd" d="M201.766 279.653C201.766 279.653 205.898 244.214 207.137 226.273C208.377 208.336 219.77 209.733 221.647 217.294C223.523 224.856 218.944 243.697 216.787 255.942C214.632 268.187 212.392 281.267 212.392 281.267C212.815 287.771 205.382 288.233 202.81 286.071C200.238 283.909 201.766 279.653 201.766 279.653Z" fill="#FFB685"/>
<path fill-rule="evenodd" clip-rule="evenodd" d="M212.742 282.066C212.742 282.066 213.033 278.379 213.504 272.797C209.698 272.251 205.88 271.684 202.195 271.101C202.042 277.281 201.176 281.919 201.176 281.919C202.888 287.813 208.782 290.062 214.292 290.213C217.647 290.305 219.007 289.518 219.137 288.897C218.317 287.173 215.082 284.309 212.742 282.066Z" fill="#FFE0DA"/>
<path fill-rule="evenodd" clip-rule="evenodd" d="M201.527 281.621C201.527 281.621 199.522 282.972 198.688 287.03C197.855 291.088 198.387 294.477 198.387 294.477L220.565 298.917L223.253 297.877C223.253 297.877 224.599 296.248 222.993 293.253C221.387 290.259 219.137 288.897 219.137 288.897C219.007 289.517 217.646 290.306 214.292 290.213C208.782 290.063 203.24 287.515 201.527 281.621Z" fill="#DB4F30"/>
<path fill-rule="evenodd" clip-rule="evenodd" d="M201.079 282.46C200.721 282.658 200.304 282.458 200.145 282.012C199.986 281.567 200.147 281.046 200.505 280.847C201.926 280.061 204.592 279.713 207.154 279.754C209.798 279.797 212.392 280.264 213.464 281.101C213.795 281.358 213.896 281.903 213.689 282.315C213.482 282.728 213.045 282.853 212.714 282.596C211.862 281.931 209.554 281.557 207.131 281.519C204.747 281.481 202.309 281.781 201.079 282.46Z" fill="#DB4F30"/>
<path fill-rule="evenodd" clip-rule="evenodd" d="M198.424 294.106L222.999 297.839C223.603 297.93 224.036 298.619 223.963 299.37C223.889 300.122 223.334 300.663 222.73 300.57L198.156 296.836C197.553 296.745 197.118 296.055 197.193 295.304C197.266 294.553 197.819 294.013 198.424 294.106Z" fill="#B82C0D"/>
<path fill-rule="evenodd" clip-rule="evenodd" d="M224.144 235.89L220.048 244.817L213.022 279.203L201.502 277.453L203.98 244.538L201.226 236.279L224.144 235.89Z" fill="#266B14"/>
<path fill-rule="evenodd" clip-rule="evenodd" d="M243.886 240.915L253.288 274.648L240.83 280.207L229.319 248.843L224.993 239.76L229.13 237.147L243.886 240.915Z" fill="#266B14"/>
<path fill-rule="evenodd" clip-rule="evenodd" d="M218.058 133.48L227.788 135.593L228.609 147.621L223.319 148.971L217.782 148.792L218.058 133.48Z" fill="#E8935A"/>
<path fill-rule="evenodd" clip-rule="evenodd" d="M213.012 148.261C216.869 146.634 220.584 146.086 224.17 145.924C227.16 145.79 234.28 147.026 236.539 148.388C234.939 150.975 225.45 152.117 221.65 152.117C217.849 152.117 214.29 149.817 213.012 148.261Z" fill="#E8935A"/>
<path fill-rule="evenodd" clip-rule="evenodd" d="M232.6 113.386C232.491 118.405 226.181 118.362 225.781 114.736C226.516 115.02 227.392 115.473 228.764 115.36C229.943 115.262 231.597 114.741 232.6 113.386Z" fill="#F09B63"/>
<path fill-rule="evenodd" clip-rule="evenodd" d="M194.601 115.141C194.601 115.141 193.842 113.49 195.109 113.108C195.766 112.909 196.159 113.625 196.371 114.348C196.568 115.015 196.613 115.691 196.576 115.663C196.576 115.663 196.397 115.35 196.142 115.029C195.667 114.437 194.931 113.819 194.601 115.141Z" fill="#FAA66E"/>
<path fill-rule="evenodd" clip-rule="evenodd" d="M196.312 120.982C189.903 121.257 188.396 110.161 193.563 108.178C189.026 90.3761 197.522 71.1585 216.054 66.9261C228.879 63.9957 243.446 71.0631 247.522 89.9749C250.258 102.669 250.621 115.447 247.091 124.052C238.493 145.019 203.443 143.21 196.312 120.982Z" fill="#FFB685"/>
<path fill-rule="evenodd" clip-rule="evenodd" d="M245.806 96.0839C244.053 94.1015 240.61 93.5866 238.946 93.6527C235.794 93.7782 237.281 91.2543 238.801 91.0154C241.673 90.5665 244.904 92.2702 246.557 94.5837C247.862 96.4102 247.899 98.4477 245.806 96.0839Z" fill="black"/>
<path fill-rule="evenodd" clip-rule="evenodd" d="M206.033 97.4231C207.874 95.1967 211.512 94.2005 213.274 94.0342C216.61 93.7183 215.019 91.4031 213.406 91.3777C210.367 91.3305 206.958 93.4843 205.229 96.0297C203.861 98.0365 203.837 100.077 206.033 97.4231Z" fill="black"/>
<path d="M235.475 111.456C235.475 111.456 242.206 114.683 245.032 110.378C248.476 105.132 243.803 100.45 240.602 101.064C237.639 101.632 234.834 104.595 235.475 111.456Z" fill="#F9FEFF"/>
<path d="M245.877 103.423C244.699 101.341 243.02 100.59 241.157 100.685C239.25 100.783 237.252 102.315 236.628 104.001C237.738 102.132 239.528 101.549 240.636 101.338C242.4 100.996 244.637 102.136 245.572 104.171C246.405 105.98 246.204 108.588 244.939 110.513C246.385 109.248 247.104 105.593 245.877 103.423Z" fill="black"/>
<path d="M237.307 105.831C236.585 107.753 237.251 110.043 238.796 110.941C240.341 111.841 242.181 111.01 242.903 109.088C243.625 107.165 242.958 104.876 241.413 103.977C239.868 103.079 238.031 103.908 237.307 105.831Z" fill="black"/>
<path d="M237.585 105.24C237.384 105.774 237.569 106.409 237.997 106.658C238.427 106.907 238.937 106.676 239.136 106.143C239.337 105.609 239.153 104.975 238.724 104.725C238.295 104.477 237.786 104.706 237.585 105.24Z" fill="#FEFFFE"/>
<path d="M220.38 113.262C220.38 113.262 213.817 117.032 210.767 112.956C207.051 107.988 211.479 102.929 214.711 103.284C217.704 103.614 220.664 106.349 220.38 113.262Z" fill="#F9FEFF"/>
<path d="M209.56 106.069C210.628 103.892 212.27 103.005 214.138 102.95C216.049 102.896 218.128 104.265 218.839 105.902C217.631 104.122 215.81 103.683 214.692 103.56C212.911 103.362 210.733 104.682 209.904 106.792C209.167 108.668 209.501 111.26 210.867 113.083C209.356 111.935 208.447 108.34 209.56 106.069Z" fill="black"/>
<path d="M212.702 108.688C212.27 110.746 213.26 112.85 214.914 113.388C216.568 113.925 218.259 112.693 218.689 110.634C219.122 108.576 218.132 106.473 216.478 105.936C214.825 105.397 213.133 106.631 212.702 108.688Z" fill="black"/>
<path d="M212.891 108.042C212.77 108.614 213.045 109.198 213.503 109.346C213.963 109.495 214.432 109.154 214.551 108.583C214.671 108.011 214.397 107.427 213.938 107.279C213.479 107.13 213.009 107.471 212.891 108.042Z" fill="#FEFFFE"/>
<path fill-rule="evenodd" clip-rule="evenodd" d="M232.452 181.902C232.579 183.743 227.207 184.244 226.06 184.317C227.099 184.694 229.207 184.572 230.05 184.731C232.06 185.097 231.413 186.547 229.041 186.963C225.639 187.56 216.974 185.464 216.974 185.464C216.974 185.464 204.633 192.867 194.507 195.673C194.365 195.712 194.04 195.78 193.588 195.868C189.74 196.606 186.566 192.171 187.582 187.493C187.915 185.948 188.277 184.385 188.665 182.84C189.449 179.693 190.341 176.631 191.34 173.935C195.771 161.956 202.564 155.503 202.564 155.503C204.78 153.04 208.279 152.869 210.857 157.089C213.436 161.31 211.044 167.311 209.259 169.227C205.084 173.715 201.82 177.899 199.33 182.511C204.113 181.437 209.035 179.046 214.817 175.009C214.817 175.009 217.386 169.958 219.983 168.86C221.561 168.214 222.013 168.812 221.982 169.519C221.944 170.251 219.943 173.045 219.846 173.606L224.345 174.349C225.934 174.509 229.835 172.288 230.688 173.973C231.54 175.655 227.463 177.424 225.767 177.899C227.247 178.168 232.697 176.375 232.648 178.168C232.598 179.974 228.834 180.632 225.806 180.876C230.364 181.474 232.334 180.059 232.452 181.902Z" fill="#FFB685"/>
<path d="M236.778 120.883C236.653 120.823 236.563 120.993 236.638 121.093C236.899 121.448 236.831 121.863 236.67 122.228C235.822 122.655 234.858 122.704 233.92 122.836C232.468 123.038 230.986 123.015 229.519 123.011C227.433 123.004 225.23 122.305 223.185 122.792C222.766 122.821 222.344 122.861 221.907 122.931C220.638 123.13 218.191 124.343 217.557 122.464C217.418 122.054 216.845 122.335 216.982 122.746C217.337 123.8 217.912 124.079 218.754 124.091C220.222 125.496 220.766 127.915 222.585 128.868C224.318 129.783 226.485 130.249 228.395 130.154C230.046 130.073 231.78 129.405 232.965 128.212C233.584 127.596 233.899 126.798 234.202 125.978C234.719 124.583 235.389 123.818 236.486 122.926C236.497 122.917 236.499 122.903 236.507 122.89C236.669 122.821 236.837 122.753 236.985 122.668C237.067 122.66 237.145 122.63 237.201 122.564C237.207 122.556 237.207 122.551 237.213 122.547L237.217 122.545C237.294 122.497 237.328 122.423 237.338 122.346C237.564 121.827 237.27 121.121 236.778 120.883ZM233.802 125.818C232.927 128.169 231.36 129.309 228.972 129.569C227.072 129.777 224.895 129.277 223.114 128.56C221.178 127.783 220.585 125.37 218.993 124.093C219.133 124.09 219.281 124.077 219.433 124.066C221.509 123.873 223.426 122.913 225.545 122.836C225.562 122.836 225.57 122.82 225.566 122.805C227.209 122.958 228.897 123.402 230.481 123.474C231.884 123.537 233.713 123.61 235.292 123.27C234.566 123.883 234.136 124.912 233.802 125.818Z" fill="#9E4C0B"/>
<path d="M233.802 125.818C232.927 128.169 231.36 129.309 228.972 129.569C227.072 129.778 224.895 129.277 223.114 128.56C221.178 127.783 220.584 125.37 218.993 124.093C219.132 124.09 219.28 124.077 219.433 124.066C221.509 123.873 223.425 122.913 225.545 122.837C225.562 122.837 225.57 122.82 225.566 122.805C227.209 122.958 228.897 123.402 230.481 123.474C231.884 123.537 233.713 123.61 235.292 123.27C234.566 123.883 234.136 124.913 233.802 125.818Z" fill="#8C0C00"/>
<path d="M234.036 123.456C232.805 123.518 231.53 123.447 230.486 123.387C228.905 123.296 227.212 122.908 225.569 122.751C225.573 122.763 225.566 122.776 225.549 122.775C223.944 122.785 222.463 123.191 220.937 123.43C221.401 124.179 221.893 124.76 223.149 125.011C224.35 125.248 225.539 125.512 226.76 125.593C228.831 125.729 230.787 125.526 232.686 125.057C233.228 124.588 233.663 124.039 234.036 123.456Z" fill="white"/>
<g opacity="0.6">
<g opacity="0.6">
<path opacity="0.6" d="M230.486 123.387C228.905 123.294 227.212 122.909 225.569 122.751C225.573 122.763 225.566 122.778 225.549 122.775C223.943 122.785 222.463 123.192 220.937 123.43C220.977 123.499 221.021 123.564 221.061 123.626C222.7 123.535 224.277 123.222 225.953 123.318C227.917 123.435 229.863 123.739 231.816 124.014C231.997 124.038 232.112 124.181 232.06 124.321C231.907 124.739 231.631 125.074 231.271 125.353C231.747 125.27 232.217 125.172 232.686 125.056C233.228 124.587 233.662 124.038 234.035 123.456C232.805 123.518 231.53 123.447 230.486 123.387Z" fill="#B8A997"/>
</g>
</g>
<path d="M228.242 127.752C226.373 127.537 224.889 127.888 223.434 128.681C225.155 129.33 227.184 129.766 228.972 129.569C229.833 129.475 230.582 129.264 231.235 128.927C230.328 128.326 229.347 127.88 228.242 127.752Z" fill="#FF7858"/>
<path fill-rule="evenodd" clip-rule="evenodd" d="M251.557 160.09C250.51 162.868 246.998 166.565 243.605 168.98C243.598 168.941 243.591 168.906 243.581 168.871C242.663 165.029 241.728 161.56 240.786 158.616C239.246 153.803 237.203 152.132 234.63 151.821C233.589 153.401 232.615 154.249 231.107 155.247C231.093 153.886 231.3 152.626 231.757 151.533C232.45 149.857 233.733 148.575 235.734 147.945C236.043 147.849 236.359 147.779 236.686 147.744C241.443 147.166 248 152.653 251.557 160.09Z" fill="#F7931E"/>
<path fill-rule="evenodd" clip-rule="evenodd" d="M216.471 156.857C213.666 155.886 211.107 154.171 209.208 151.721C209.138 151.791 211.177 153.615 211.11 153.694C209.609 155.409 206.002 161.109 204.118 170.533C204.114 170.564 204.107 170.594 204.1 170.629C200.591 168.184 196.939 164.377 195.859 161.516C198.718 155.536 203.502 150.806 207.753 149.432C209.201 148.964 210.586 148.881 211.813 149.271C213.118 149.686 214.116 150.373 214.851 151.261C216.036 152.696 216.528 154.656 216.471 156.857Z" fill="#F7931E"/>
<path fill-rule="evenodd" clip-rule="evenodd" d="M234.981 151.384C233.94 152.963 232.615 154.25 231.107 155.247C226.92 158.016 221.326 158.546 216.471 156.857C213.666 155.886 211.106 154.171 209.208 151.721C210.706 150.233 212.657 150.548 214.851 151.261C217.326 152.062 220.11 153.361 222.891 153.125C226.255 152.841 229.205 151.94 231.757 151.533C232.914 151.349 233.986 151.261 234.981 151.384Z" fill="#F7931E"/>
<path fill-rule="evenodd" clip-rule="evenodd" d="M255.741 239.746L255.738 239.75C245.447 249.777 202.198 250.827 193.761 240.564C193.799 239.754 193.873 238.691 193.986 237.401C209.23 246.426 241.06 245.122 255.221 235.567L255.291 236.123C255.453 237.409 255.608 238.621 255.741 239.746Z" fill="#F7931E"/>
<path fill-rule="evenodd" clip-rule="evenodd" d="M255.221 235.568C241.061 245.123 209.23 246.426 193.986 237.401C194.999 225.719 198.929 195.816 202.898 174.593C203.183 173.079 203.464 171.605 203.749 170.192C203.756 170.157 203.763 170.126 203.767 170.096C205.651 160.672 207.5 153.659 209.002 151.944C209.068 151.865 209.139 151.791 209.209 151.721C211.107 154.171 213.667 155.886 216.472 156.857C221.327 158.546 226.921 158.016 231.108 155.247C232.616 154.249 233.941 152.963 234.982 151.384C237.555 151.694 239.598 153.366 241.138 158.178C242.08 161.123 243.015 164.592 243.933 168.433C243.943 168.468 243.95 168.503 243.957 168.543C244.291 169.925 244.618 171.36 244.945 172.83C249.319 192.596 253.193 219.573 255.221 235.568Z" fill="#F7931E"/>
<path fill-rule="evenodd" clip-rule="evenodd" d="M294.715 181.698C294.827 183.531 289.494 183.964 288.359 184.026C289.385 184.424 291.473 184.319 292.317 184.489C294.303 184.87 293.65 186.296 291.298 186.69C287.912 187.25 279.334 185.084 279.334 185.084C279.334 185.084 268.147 191.642 258.377 194.574C258.318 194.596 258.244 194.613 258.159 194.635C254.092 195.72 249.444 192.517 248.358 187.521C247.894 185.386 247.31 183.356 246.607 181.387C245.658 178.723 245.187 176.168 243.773 173.6C247.159 171.605 250.355 169.378 253.273 165.567C254.099 167.751 254.876 170.183 255.523 172.843C256.243 175.796 256.809 179.143 257.256 182.534C263.538 182.276 269.641 179.891 277.267 174.676C277.267 174.676 279.851 169.706 282.424 168.634C283.996 168.004 284.446 168.599 284.407 169.308C284.368 170.026 282.357 172.795 282.266 173.346L286.727 174.129C288.295 174.3 292.177 172.147 293.01 173.819C293.843 175.49 289.793 177.205 288.109 177.664C289.571 177.944 294.989 176.216 294.929 178.006C294.866 179.795 291.139 180.407 288.127 180.613C292.648 181.256 294.609 179.882 294.715 181.698Z" fill="#FFB685"/>
<path fill-rule="evenodd" clip-rule="evenodd" d="M218.057 133.479L227.787 135.593L228.608 147.621L223.318 148.971L217.781 148.792L218.057 133.479Z" fill="#E8935A"/>
<path fill-rule="evenodd" clip-rule="evenodd" d="M213.013 148.261C216.87 146.634 220.585 146.085 224.171 145.924C227.161 145.79 234.281 147.026 236.54 148.387C234.94 150.974 225.451 152.117 221.651 152.117C217.85 152.117 214.291 149.817 213.013 148.261Z" fill="#E8935A"/>
<path fill-rule="evenodd" clip-rule="evenodd" d="M196.312 120.982C194.649 121.419 193.347 120.221 192.413 119.335C194.269 119.93 196.103 119.853 197.993 118.12C203.405 139.31 233.274 142.64 244.084 129.265C232.273 144.512 202.786 141.163 196.312 120.982Z" fill="#FFB685"/>
<path fill-rule="evenodd" clip-rule="evenodd" d="M194.239 86.8081C196.655 79.7097 201.326 73.6052 208.002 69.8633C208.515 70.4158 209.079 70.8481 209.81 70.8717C213.111 70.9833 231.333 70.6538 238.558 74.5743C245.786 78.496 250.323 106.398 248.22 95.9553C245.854 84.215 227.176 86.4502 219.387 84.845C214.305 83.7963 210.129 81.2763 210.129 81.2763C208.211 90.4564 207.54 91.908 201.527 98.1376C198.232 101.55 196.982 103.956 196.764 109.681C194.239 105.983 193.052 96.0888 194.239 86.8081Z" fill="#FFB685"/>
<path fill-rule="evenodd" clip-rule="evenodd" d="M232.453 181.904C232.58 183.745 227.208 184.244 226.062 184.314C227.099 184.695 229.208 184.572 230.048 184.73C232.059 185.097 231.412 186.545 229.039 186.961C225.64 187.56 216.974 185.465 216.974 185.465C216.974 185.465 209.246 190.098 201.002 193.423C198.83 194.298 196.618 195.085 194.505 195.672C194.365 195.711 194.041 195.781 193.588 195.869C189.742 196.608 186.567 192.172 187.583 187.495C187.914 185.95 188.276 184.384 188.666 182.84C189.45 179.694 190.339 176.632 191.341 173.937C192.987 169.487 194.959 165.799 196.787 162.92C198.373 165.681 201.639 168.7 204.912 170.787C205.562 171.198 206.212 171.579 206.849 171.907C205.854 173.049 204.922 174.182 204.047 175.319C202.233 177.669 200.668 180.027 199.329 182.512C200.524 182.245 201.73 181.89 202.953 181.453C206.627 180.136 210.48 178.036 214.819 175.009C214.819 175.009 217.385 169.96 219.983 168.862C221.562 168.214 222.012 168.814 221.984 169.518C221.945 170.253 219.945 173.044 219.846 173.604L224.346 174.348C225.935 174.51 229.834 172.287 230.688 173.972C231.539 175.656 227.461 177.424 225.766 177.9C227.246 178.167 232.696 176.374 232.646 178.167C232.597 179.974 228.836 180.63 225.805 180.875C230.365 181.475 232.334 180.057 232.453 181.904Z" fill="#FFB685"/>
<path fill-rule="evenodd" clip-rule="evenodd" d="M219.31 62.0767C219.31 62.0767 215.23 51.0771 200.81 54.703C186.39 58.3255 178.789 76.7609 180.352 95.3516C181.4 107.809 185.662 114.102 186.995 122.313C187.953 128.214 187.336 133.563 185.574 137.568C184.022 141.094 181.992 141.742 186.327 141.588C187.575 141.543 188.804 141.333 190.013 140.953C195.396 139.264 200.382 134.216 204.74 125.406C212.223 110.274 219.31 62.0767 219.31 62.0767Z" fill="black"/>
<path fill-rule="evenodd" clip-rule="evenodd" d="M295.418 180.823C295.53 182.656 290.197 183.089 289.062 183.151C290.088 183.549 292.177 183.444 293.02 183.614C295.007 183.995 294.353 185.421 292.001 185.815C288.615 186.375 280.037 184.209 280.037 184.209C280.037 184.209 268.85 190.767 259.08 193.699C259.021 193.721 258.947 193.738 258.862 193.76C254.795 194.845 250.147 191.642 249.061 186.646C248.597 184.511 248.013 182.481 247.31 180.512C246.361 177.848 245.89 175.293 244.477 172.725C247.862 170.73 251.058 168.503 253.976 164.692C254.802 166.876 255.579 169.308 256.226 171.968C256.946 174.921 257.512 178.268 257.959 181.659C264.241 181.401 270.344 179.016 277.97 173.801C277.97 173.801 280.554 168.831 283.127 167.759C284.699 167.129 285.149 167.724 285.11 168.433C285.071 169.151 283.061 171.92 282.969 172.471L287.43 173.254C288.998 173.425 292.88 171.272 293.713 172.944C294.546 174.615 290.496 176.33 288.812 176.789C290.275 177.069 295.692 175.341 295.632 177.131C295.569 178.92 291.843 179.532 288.83 179.738C293.351 180.381 295.312 179.007 295.418 180.823Z" fill="#FFB685"/>
<path fill-rule="evenodd" clip-rule="evenodd" d="M218.057 133.48L227.787 135.593L228.608 147.621L223.318 148.971L217.781 148.792L218.057 133.48Z" fill="#E8935A"/>
<path fill-rule="evenodd" clip-rule="evenodd" d="M213.013 148.261C216.87 146.634 220.585 146.086 224.171 145.924C227.161 145.79 234.281 147.026 236.54 148.388C234.94 150.975 225.451 152.117 221.651 152.117C217.85 152.117 214.291 149.817 213.013 148.261Z" fill="#E8935A"/>
<path fill-rule="evenodd" clip-rule="evenodd" d="M196.312 120.982C189.903 121.257 188.396 110.161 193.563 108.178C189.026 90.3761 197.522 71.1585 216.054 66.9261C228.879 63.9957 243.446 71.0631 247.522 89.9749C250.258 102.669 250.621 115.447 247.091 124.052C238.493 145.019 203.443 143.21 196.312 120.982Z" fill="#FFB685"/>
<path fill-rule="evenodd" clip-rule="evenodd" d="M196.312 120.982C194.649 121.419 193.347 120.221 192.413 119.335C194.269 119.93 196.103 119.853 197.993 118.12C203.405 139.31 233.274 142.64 244.084 129.265C232.273 144.512 202.786 141.163 196.312 120.982Z" fill="#FFB685"/>
<path fill-rule="evenodd" clip-rule="evenodd" d="M194.239 86.8081C196.655 79.7097 201.326 73.6052 208.002 69.8633C208.515 70.4158 209.079 70.8481 209.81 70.8717C213.111 70.9833 231.333 70.6538 238.558 74.5743C245.786 78.496 250.323 106.398 248.22 95.9553C245.854 84.215 227.176 86.4502 219.387 84.845C214.305 83.7963 210.129 81.2763 210.129 81.2763C208.211 90.4564 207.54 91.908 201.527 98.1376C198.232 101.55 196.982 103.956 196.764 109.681C194.239 105.983 193.052 96.0888 194.239 86.8081Z" fill="#FFB685"/>
<path fill-rule="evenodd" clip-rule="evenodd" d="M232.453 181.904C232.58 183.745 227.208 184.244 226.062 184.314C227.099 184.695 229.208 184.572 230.048 184.73C232.059 185.097 231.412 186.545 229.039 186.961C225.64 187.56 216.974 185.465 216.974 185.465C216.974 185.465 209.246 190.098 201.002 193.423C198.83 194.298 196.618 195.085 194.505 195.672C194.365 195.711 194.041 195.781 193.588 195.869C189.742 196.608 186.567 192.172 187.583 187.495C187.914 185.95 188.276 184.384 188.666 182.84C189.45 179.694 190.339 176.632 191.341 173.937C192.987 169.487 194.959 165.799 196.787 162.92C198.373 165.681 201.639 168.7 204.912 170.787C205.562 171.198 206.212 171.579 206.849 171.907C205.854 173.049 204.922 174.182 204.047 175.319C202.233 177.669 200.668 180.027 199.329 182.512C200.524 182.245 201.73 181.89 202.953 181.453C206.627 180.136 210.48 178.036 214.819 175.009C214.819 175.009 217.385 169.96 219.983 168.862C221.562 168.214 222.012 168.814 221.984 169.518C221.945 170.253 219.945 173.044 219.846 173.604L224.346 174.348C225.935 174.51 229.834 172.287 230.688 173.972C231.539 175.656 227.461 177.424 225.766 177.9C227.246 178.167 232.696 176.374 232.646 178.167C232.597 179.974 228.836 180.63 225.805 180.875C230.365 181.475 232.334 180.057 232.453 181.904Z" fill="#FFB685"/>
<path fill-rule="evenodd" clip-rule="evenodd" d="M254.531 164.953C251.04 169.242 247.232 171.899 243.195 174.125C242.769 172.459 242.343 170.833 241.907 169.266C241.898 169.222 241.889 169.182 241.875 169.142C245.715 166.579 249.285 163.153 251.814 159.688C252.84 161.299 254.059 163.604 254.531 164.953Z" fill="#DB4F30"/>
<path fill-rule="evenodd" clip-rule="evenodd" d="M207.422 170.348C207.417 170.383 207.408 170.418 207.398 170.457C207.009 172.056 206.625 173.725 206.237 175.437C201.787 173.141 197.592 170.423 193.757 165.938C194.256 164.582 195.542 162.265 196.627 160.641C199.363 164.215 203.251 167.745 207.422 170.348Z" fill="#DB4F30"/>
<path fill-rule="evenodd" clip-rule="evenodd" d="M256.873 240.415C245.489 249.379 205.633 250.897 194.653 241.662L195.04 237.401C210.284 246.426 242.114 245.122 256.275 235.567L256.345 236.123L256.792 239.75L256.873 240.415Z" fill="#DB4F30"/>
<path fill-rule="evenodd" clip-rule="evenodd" d="M237.804 147.45C237.782 147.525 237.765 147.594 237.74 147.664C237.325 149.101 236.749 150.389 236.035 151.533C234.995 153.212 233.669 154.579 232.161 155.64C227.974 158.584 222.38 159.146 217.525 157.351C214.72 156.319 212.161 154.496 210.262 151.892C209.717 151.148 209.229 150.334 208.807 149.46C208.75 149.352 208.698 149.246 208.648 149.134C210.491 148.064 212.969 146.944 214.896 146.711C216.414 153.203 229.957 154.682 232.505 146.125C234.035 146.344 235.926 146.678 237.804 147.45Z" fill="#DB4F30"/>
<path fill-rule="evenodd" clip-rule="evenodd" d="M199.828 68.6275L198.41 64.2748C201.931 60.7844 214.024 56.3333 217.347 55.814L219.002 60.5954C217.243 61.8633 199.828 68.6275 199.828 68.6275Z" fill="#219487"/>
<path fill-rule="evenodd" clip-rule="evenodd" d="M201.225 70.5527L199.838 66.2897C203.286 62.8715 215.129 58.5122 218.383 58.0034L220.003 62.686C218.281 63.928 201.225 70.5527 201.225 70.5527Z" fill="#219487"/>
<path fill-rule="evenodd" clip-rule="evenodd" d="M232.6 113.386C232.491 118.405 226.181 118.362 225.781 114.736C226.516 115.02 227.392 115.473 228.764 115.36C229.943 115.262 231.597 114.741 232.6 113.386Z" fill="#F09B63"/>
<path fill-rule="evenodd" clip-rule="evenodd" d="M194.601 115.141C194.601 115.141 193.842 113.49 195.109 113.108C195.766 112.909 196.159 113.625 196.371 114.348C196.568 115.015 196.613 115.691 196.576 115.663C196.576 115.663 196.397 115.35 196.142 115.029C195.667 114.437 194.931 113.819 194.601 115.141Z" fill="#FAA66E"/>
<path fill-rule="evenodd" clip-rule="evenodd" d="M245.806 96.0839C244.053 94.1015 240.61 93.5866 238.946 93.6527C235.794 93.7782 237.281 91.2543 238.801 91.0154C241.673 90.5665 244.904 92.2702 246.557 94.5837C247.862 96.4102 247.899 98.4477 245.806 96.0839Z" fill="black"/>
<path fill-rule="evenodd" clip-rule="evenodd" d="M208.395 76.5586C208.395 76.5586 212.989 82.1853 221.541 83.0345C230.091 83.885 240.171 85.3073 244.009 88.4197C247.846 91.5321 249.179 100.091 249.179 100.091C257.385 75.5861 231.093 50.0685 203.181 67.9268C190.828 75.8311 182.852 96.5673 190.493 114.657C190.097 110.812 193.933 107.539 196.782 109.775C196.335 103.672 197.192 101.073 200.483 97.1688C203.619 93.4523 208.417 87.469 208.395 76.5586Z" fill="#020202"/>
<path fill-rule="evenodd" clip-rule="evenodd" d="M229.362 83.9732C234.966 84.7965 240.252 85.9892 243.195 87.8415C245.334 84.1197 246.5 80.3524 247.043 76.7955C245.393 73.8227 243.236 71.1492 240.673 68.9175C238.807 75.2481 234.664 80.2365 229.362 83.9732ZM188.413 91.0563C187.733 94.25 187.412 97.5777 187.519 100.944C189.84 103.455 192.845 105.801 196.673 107.306C196.639 102.884 197.673 100.504 200.484 97.169C201.542 95.9152 202.789 94.4014 203.976 92.5276C198.15 92.9669 192.662 92.4545 188.413 91.0563Z" fill="#424242"/>
<path fill-rule="evenodd" clip-rule="evenodd" d="M206.033 97.4231C207.874 95.1967 211.512 94.2005 213.274 94.0342C216.61 93.7183 215.019 91.4031 213.406 91.3777C210.367 91.3305 206.958 93.4843 205.229 96.0297C203.861 98.0365 203.837 100.077 206.033 97.4231Z" fill="black"/>
<path d="M235.475 111.456C235.475 111.456 242.206 114.683 245.032 110.378C248.476 105.132 243.803 100.45 240.602 101.064C237.639 101.632 234.834 104.595 235.475 111.456Z" fill="#F9FEFF"/>
<path d="M245.877 103.423C244.699 101.341 243.02 100.59 241.157 100.685C239.25 100.783 237.252 102.315 236.628 104.001C237.738 102.132 239.528 101.549 240.636 101.338C242.4 100.996 244.637 102.136 245.572 104.171C246.405 105.98 246.204 108.588 244.939 110.513C246.385 109.248 247.104 105.593 245.877 103.423Z" fill="black"/>
<path d="M237.307 105.831C236.585 107.753 237.251 110.043 238.796 110.941C240.341 111.841 242.181 111.01 242.903 109.088C243.625 107.165 242.958 104.876 241.413 103.977C239.868 103.079 238.031 103.908 237.307 105.831Z" fill="black"/>
<path d="M237.585 105.24C237.384 105.774 237.569 106.409 237.997 106.658C238.427 106.907 238.937 106.676 239.136 106.143C239.337 105.609 239.153 104.975 238.724 104.725C238.295 104.477 237.786 104.706 237.585 105.24Z" fill="#FEFFFE"/>
<path d="M220.38 113.262C220.38 113.262 213.817 117.032 210.767 112.956C207.051 107.988 211.479 102.929 214.711 103.284C217.704 103.614 220.664 106.349 220.38 113.262Z" fill="#F9FEFF"/>
<path d="M209.56 106.069C210.628 103.892 212.27 103.005 214.138 102.95C216.049 102.896 218.128 104.265 218.839 105.902C217.631 104.122 215.81 103.683 214.692 103.56C212.911 103.362 210.733 104.682 209.904 106.792C209.167 108.668 209.501 111.26 210.867 113.083C209.356 111.935 208.447 108.34 209.56 106.069Z" fill="black"/>
<path d="M212.702 108.688C212.27 110.746 213.26 112.85 214.914 113.388C216.568 113.925 218.259 112.693 218.689 110.634C219.122 108.576 218.132 106.473 216.478 105.936C214.825 105.397 213.133 106.631 212.702 108.688Z" fill="black"/>
<path d="M212.891 108.042C212.77 108.614 213.045 109.198 213.503 109.346C213.963 109.495 214.432 109.154 214.551 108.583C214.671 108.011 214.397 107.427 213.938 107.279C213.479 107.13 213.009 107.471 212.891 108.042Z" fill="#FEFFFE"/>
<path d="M236.778 120.883C236.653 120.823 236.563 120.993 236.638 121.093C236.899 121.448 236.831 121.863 236.67 122.228C235.822 122.655 234.858 122.704 233.92 122.836C232.468 123.038 230.986 123.015 229.519 123.011C227.433 123.004 225.23 122.305 223.185 122.792C222.766 122.821 222.344 122.861 221.907 122.931C220.638 123.13 218.191 124.343 217.557 122.464C217.418 122.054 216.845 122.335 216.982 122.746C217.337 123.8 217.912 124.079 218.754 124.091C220.222 125.496 220.766 127.915 222.585 128.868C224.318 129.783 226.485 130.249 228.395 130.154C230.046 130.073 231.78 129.405 232.965 128.212C233.584 127.596 233.899 126.798 234.202 125.978C234.719 124.583 235.389 123.818 236.486 122.926C236.497 122.917 236.499 122.903 236.507 122.89C236.669 122.821 236.837 122.753 236.985 122.668C237.067 122.66 237.145 122.63 237.201 122.564C237.207 122.556 237.207 122.551 237.213 122.547L237.217 122.545C237.294 122.497 237.328 122.423 237.338 122.346C237.564 121.827 237.27 121.121 236.778 120.883ZM233.802 125.818C232.927 128.169 231.36 129.309 228.972 129.569C227.072 129.777 224.895 129.277 223.114 128.56C221.178 127.783 220.585 125.37 218.993 124.093C219.133 124.09 219.281 124.077 219.433 124.066C221.509 123.873 223.426 122.913 225.545 122.836C225.562 122.836 225.57 122.82 225.566 122.805C227.209 122.958 228.897 123.402 230.481 123.474C231.884 123.537 233.713 123.61 235.292 123.27C234.566 123.883 234.136 124.912 233.802 125.818Z" fill="#9E4C0B"/>
<path d="M233.802 125.818C232.927 128.169 231.36 129.309 228.972 129.569C227.072 129.778 224.895 129.277 223.114 128.56C221.178 127.783 220.584 125.37 218.993 124.093C219.132 124.09 219.28 124.077 219.433 124.066C221.509 123.873 223.425 122.913 225.545 122.837C225.562 122.837 225.57 122.82 225.566 122.805C227.209 122.958 228.897 123.402 230.481 123.474C231.884 123.537 233.713 123.61 235.292 123.27C234.566 123.883 234.136 124.913 233.802 125.818Z" fill="#8C0C00"/>
<path d="M234.036 123.456C232.805 123.518 231.53 123.447 230.486 123.387C228.905 123.296 227.212 122.908 225.569 122.751C225.573 122.763 225.566 122.776 225.549 122.775C223.944 122.785 222.463 123.191 220.937 123.43C221.401 124.179 221.893 124.76 223.149 125.011C224.35 125.248 225.539 125.512 226.76 125.593C228.831 125.729 230.787 125.526 232.686 125.057C233.228 124.588 233.663 124.039 234.036 123.456Z" fill="white"/>
<g opacity="0.6">
<g opacity="0.6">
<path opacity="0.6" d="M230.486 123.387C228.905 123.294 227.212 122.909 225.569 122.751C225.573 122.763 225.566 122.778 225.549 122.775C223.943 122.785 222.463 123.192 220.937 123.43C220.977 123.499 221.021 123.564 221.061 123.626C222.7 123.535 224.277 123.222 225.953 123.318C227.917 123.435 229.863 123.739 231.816 124.014C231.997 124.038 232.112 124.181 232.06 124.321C231.907 124.739 231.631 125.074 231.271 125.353C231.747 125.27 232.217 125.172 232.686 125.056C233.228 124.587 233.662 124.038 234.035 123.456C232.805 123.518 231.53 123.447 230.486 123.387Z" fill="#B8A997"/>
</g>
</g>
<path d="M228.242 127.752C226.373 127.537 224.889 127.888 223.434 128.681C225.155 129.33 227.184 129.766 228.972 129.569C229.833 129.475 230.582 129.264 231.235 128.927C230.328 128.326 229.347 127.88 228.242 127.752Z" fill="#FF7858"/>
</svg>
