<svg width="220" height="240" viewBox="0 0 220 240" fill="none" xmlns="http://www.w3.org/2000/svg">
<path opacity="0.16" d="M122.203 204.87C122.203 207.45 114.349 209.55 104.655 209.55C94.9609 209.55 87.1064 207.45 87.1064 204.87C87.1064 202.29 94.9609 200.19 104.655 200.19C114.349 200.19 122.203 202.29 122.203 204.87Z" fill="black"/>
<path opacity="0.23" d="M115.861 151.74C115.328 149.94 114.813 148.2 114.383 146.64C113.85 145.29 113.386 144.09 113.128 143.28L95.4594 144.18C95.4594 144.18 94.0841 149.4 92.6405 154.77C92.5544 155.37 92.4689 155.94 92.3828 156.51C94.1189 157.83 97.9513 160.59 104.809 159.45C110.206 158.55 113.592 154.53 115.861 151.74Z" fill="black"/>
<path d="M133.203 94.4098C132.567 93.7502 130.625 91.4099 131.124 85.3502C131.313 83.1004 130.419 82.3502 129.628 81.6898C128.563 80.7902 127.634 80.0098 128.597 76.0204C129.8 71.0098 129.061 66.78 126.655 64.92C125.091 63.72 123.424 61.47 121.946 58.59C121.653 58.05 121.378 57.4501 121.103 56.8501C120.45 54.72 119.934 52.65 119.556 51.15C118.766 50.91 117.941 50.76 117.081 50.67C116.308 50.58 115.5 50.55 114.675 50.55C116.72 52.17 118.284 54.99 119.299 59.73C119.453 60.45 119.556 62.31 119.608 64.86C118.92 64.1701 118.216 63.54 117.46 62.97C117.253 61.26 116.669 57.72 116.394 57.42C116.377 57.87 116.188 60.48 116.153 62.07C115.483 61.68 114.761 61.32 113.953 61.02C113.884 58.44 113.351 55.11 112.956 53.91C112.974 54.36 113.043 56.34 113.18 60.7501C111.031 60.06 108.333 59.73 104.706 59.82C104.311 59.82 103.916 59.85 103.503 59.88C103.228 58.83 102.558 56.34 102.249 55.8C102.249 55.92 101.767 58.26 101.853 60.06C99.1723 60.45 96.4222 61.29 94.0159 62.43C94.0673 60.75 94.2047 57.57 94.2907 56.67C94.0331 57.24 92.7439 61.5 92.5204 63.21C90.8015 64.2 89.3407 65.3701 88.3439 66.66C88.3267 63.9901 88.361 61.8 88.4812 60.39C88.5159 60.12 88.5673 59.85 88.6191 59.58C88.6015 59.58 88.5844 59.61 88.5673 59.61C87.9141 60.03 87.347 60.42 86.8659 60.78L86.1781 59.34C86.1267 60.18 86.0236 60.99 85.8515 61.77C85.147 65.07 83.5312 67.77 82.4659 70.2C80.8844 73.8898 80.2312 77.7004 81.3659 81.6302C81.8128 83.1902 82.1736 84.5698 81.9159 85.8C81.6925 86.8498 81.0223 87.7502 79.8704 88.5902C78.7191 89.4302 78.0312 90.4498 77.7565 91.7404C77.3781 93.5404 77.911 95.4 78.3749 97.0499C78.7015 98.1902 78.7015 99.9902 78.5299 100.92C77.9281 104.34 77.2749 105.6 77.6704 107.97C77.5159 105.45 78.3065 104.1 78.8736 101.25C79.0799 100.2 79.1488 98.4604 78.5299 96.3299C78.0831 94.8 77.7736 93.5404 78.1002 92.0098C78.3407 90.9004 78.9596 90 79.9907 89.2499C81.2628 88.32 81.9844 87.3004 82.2425 86.0702C82.3457 85.6204 82.3457 85.1102 82.3281 84.6302C82.9988 86.9698 83.0331 88.92 80.6096 90.9902C76.1749 94.8 80.6781 99.84 80.0767 102.24C79.011 106.32 78.7015 107.13 78.9596 110.25C79.2515 113.82 80.747 115.86 82.2249 116.46C82.2249 115.89 80.6957 112.71 81.8128 107.16C82.1565 110.13 83.9781 117.09 84.4596 117.24C92.0223 119.64 114.503 121.65 122.496 114.51C124.025 113.16 123.596 107.1 123.991 105.39C124.283 104.16 125.933 114.54 126.431 113.55C133.272 99.9298 131.605 95.9404 130.746 95.8499C129.543 95.7004 128.786 95.9102 129.886 86.3404C130.419 81.6898 125.572 84.3902 127.377 76.92C128.46 72.4498 127.858 68.7298 125.52 66.24C124.696 65.37 123.939 64.02 123.234 62.46C124.317 63.8101 125.417 64.92 126.466 65.7C128.7 67.41 129.439 70.9804 128.305 75.6898C127.205 80.2498 128.477 81.3298 129.508 82.2302C130.299 82.92 130.951 83.4302 130.797 85.2C130.161 92.0098 132.825 94.2302 133.203 94.4098ZM81.4691 80.5804C80.747 77.3404 81.2281 74.2498 82.6033 71.04C83.3767 69.24 84.6141 67.7101 85.5767 65.82C84.3736 71.8204 81.4173 76.08 81.4691 80.5804ZM112.939 53.91C112.939 53.91 112.939 53.94 112.956 53.94C112.939 53.85 112.939 53.82 112.939 53.91Z" fill="#D6B45F"/>
<path d="M112.957 53.94C112.957 53.94 112.957 53.9099 112.939 53.9099C112.939 53.8199 112.939 53.8499 112.957 53.94Z" fill="#D6B45F"/>
<path d="M122.152 60.54C122.101 59.88 122.049 59.25 121.964 58.59C120.537 47.79 113.542 39.8699 104.037 40.4699C93.8104 41.1 86.901 47.31 85.8352 61.89C85.801 62.34 85.7667 62.79 85.7491 63.27C85.5086 68.25 85.8181 72.84 86.5573 76.9501C87.1586 80.28 88.0352 83.28 89.1352 85.92C90.5276 89.2203 92.2636 91.9501 94.2402 94.0498C97.282 97.2603 100.892 98.9101 104.638 98.7003C108.867 98.4898 112.751 95.7298 115.793 91.1101C117.117 89.1003 118.268 86.7901 119.231 84.1501C120.107 81.7803 120.812 79.1698 121.328 76.3501C122.204 71.5803 122.531 66.21 122.152 60.54ZM113.181 60.78C111.032 60.09 108.334 59.76 104.707 59.85C104.312 59.85 103.917 59.88 103.504 59.91C103.229 58.86 102.559 56.37 102.249 55.83C102.249 55.95 101.768 58.29 101.854 60.09C99.1726 60.48 96.4226 61.32 94.0167 62.46C94.0681 60.78 94.2055 57.6 94.2915 56.7C94.0339 57.27 92.7447 61.53 92.5212 63.24C90.8023 64.23 89.3415 65.4 88.3447 66.69C88.3275 64.02 88.3618 61.8299 88.482 60.42C88.5167 60.1499 88.5681 59.88 88.6194 59.61C88.6712 59.28 88.7402 58.92 88.7915 58.56C91.1807 49.38 96.5257 48.78 103.487 48.42C107.955 48.18 111.805 48.12 114.71 50.46C116.755 52.08 118.319 54.9 119.334 59.64C119.488 60.36 119.592 62.22 119.643 64.77C118.955 64.08 118.251 63.45 117.495 62.88C117.288 61.17 116.704 57.63 116.429 57.33C116.412 57.78 116.223 60.39 116.188 61.98C115.518 61.59 114.796 61.23 113.988 60.93C113.919 58.35 113.387 55.02 112.992 53.82C112.974 54.3899 113.026 56.37 113.181 60.78Z" fill="#D6B45F"/>
<path d="M88.4641 60.4801C88.3609 61.8601 88.3096 64.0801 88.3267 66.7501C88.2064 66.9001 88.1033 67.0501 88.0001 67.2001C87.5704 67.8001 87.8456 64.3801 88.4641 60.4801Z" fill="#D6B45F"/>
<path d="M112.957 53.94C112.957 53.94 112.957 53.9099 112.939 53.9099C112.939 53.8199 112.939 53.8499 112.957 53.94Z" fill="#D6B45F"/>
<path d="M120.623 65.9101C120.278 65.5501 119.952 65.1901 119.608 64.8601C119.557 62.3101 119.471 60.4501 119.299 59.7301C118.285 54.9901 116.721 52.1701 114.676 50.5501C111.771 48.2101 107.921 48.2701 103.452 48.5101C96.4911 48.8701 91.1284 49.4701 88.7568 58.6501C89.3582 55.2001 90.1834 51.8101 90.9568 50.9101C93.6897 47.7301 98.846 46.4101 103.882 46.2901C108.505 46.2001 113.678 47.3701 116.463 49.8301C116.669 50.0101 116.876 50.3101 117.082 50.6701C119.23 54.4501 121.654 66.9901 120.623 65.9101Z" fill="#D6B45F"/>
<path d="M119.316 59.7301C118.302 54.9901 116.738 52.1701 114.693 50.55C105.601 50.61 94.1366 56.1 88.5848 59.6701C88.5335 59.94 88.4987 60.2101 88.4474 60.48C88.3442 61.86 88.2924 64.08 88.31 66.7501C89.3069 65.46 90.7677 64.2901 92.4866 63.3C92.71 61.5901 93.9987 57.3301 94.2569 56.76C94.1708 57.66 94.0506 60.8101 93.9816 62.52C96.3879 61.38 99.1208 60.54 101.819 60.1501C101.733 58.3501 102.215 56.0101 102.215 55.8901C102.541 56.4301 103.194 58.8901 103.469 59.9701C103.882 59.94 104.277 59.9101 104.672 59.9101C108.299 59.82 110.997 60.18 113.146 60.84C112.991 56.4301 112.94 54.4501 112.922 54C113.318 55.2 113.851 58.5 113.919 61.1101C114.727 61.4101 115.449 61.7701 116.119 62.16C116.171 60.54 116.343 57.9301 116.36 57.5101C116.652 57.8101 117.219 61.3501 117.425 63.06C118.182 63.6301 118.887 64.26 119.574 64.9501C119.574 62.3101 119.471 60.4501 119.316 59.7301ZM112.94 53.91C112.94 53.82 112.94 53.85 112.957 53.94C112.94 53.94 112.94 53.91 112.94 53.91Z" fill="#D6B45F"/>
<path d="M114.692 50.55C105.6 50.61 94.1358 56.1 88.584 59.67C88.6358 59.34 88.7042 58.98 88.7561 58.62C91.1453 49.4399 96.4903 48.84 103.452 48.48C107.937 48.27 111.77 48.21 114.692 50.55Z" fill="#D6B45F"/>
<path d="M115.723 147.03C115.62 147.18 115.5 147.3 115.38 147.45C115.328 147.48 115.294 147.54 115.242 147.6C115.208 147.66 115.156 147.69 115.122 147.72C115.07 147.78 115.036 147.81 114.984 147.84C114.933 147.9 114.898 147.93 114.847 147.96C114.796 147.99 114.761 148.05 114.709 148.08C114.675 148.11 114.623 148.17 114.589 148.2C114.486 148.29 114.4 148.38 114.297 148.47C114.246 148.5 114.194 148.56 114.159 148.59C114.091 148.65 114.039 148.68 113.97 148.74C113.781 148.89 113.575 149.04 113.386 149.19C113.334 149.22 113.283 149.28 113.214 149.31C113.146 149.34 113.111 149.37 113.042 149.43C112.991 149.46 112.922 149.52 112.87 149.55C112.784 149.61 112.681 149.67 112.578 149.73C112.372 149.85 112.166 149.97 111.959 150.09C111.856 150.15 111.77 150.21 111.667 150.24C111.478 150.33 111.272 150.45 111.066 150.54C110.859 150.63 110.636 150.72 110.413 150.81C109.364 151.23 108.23 151.56 107.061 151.77C106.975 151.8 106.872 151.8 106.786 151.83C106.219 151.92 105.634 152.01 105.05 152.04C104.999 152.04 104.93 152.04 104.878 152.04C104.792 152.04 104.723 152.04 104.637 152.04C104.517 152.04 104.414 152.04 104.294 152.04C104.259 152.04 104.208 152.04 104.173 152.04C104.104 152.04 104.019 152.04 103.95 152.04C103.864 152.04 103.796 152.04 103.727 152.04C103.589 152.04 103.434 152.04 103.297 152.04C103.177 152.04 103.056 152.04 102.936 152.04C102.833 152.04 102.73 152.04 102.627 152.01C102.506 152.01 102.386 152.01 102.266 151.98C102.18 151.98 102.077 151.98 101.991 151.95C101.853 151.92 101.699 151.92 101.561 151.89C101.251 151.86 100.925 151.8 100.616 151.74C100.358 151.71 100.1 151.65 99.8424 151.59C99.7045 151.56 99.55 151.53 99.4126 151.47C99.2923 151.44 99.1892 151.41 99.086 151.38C99.0171 151.35 98.9487 151.35 98.8626 151.32C98.7595 151.29 98.6563 151.26 98.5531 151.23C98.4329 151.2 98.3126 151.14 98.1924 151.11C98.1063 151.08 98.0031 151.05 97.9171 151.02H97.9C97.7968 150.99 97.7108 150.93 97.6076 150.9C97.5734 150.9 97.5392 150.87 97.4874 150.84C97.3842 150.81 97.2987 150.75 97.2126 150.72C97.1266 150.69 97.0234 150.63 96.9374 150.6C96.7311 150.51 96.5423 150.42 96.336 150.3C96.25 150.24 96.1468 150.21 96.0608 150.15C95.9752 150.09 95.8892 150.06 95.786 150C95.6311 149.91 95.4766 149.82 95.3221 149.73C95.15 149.61 94.9779 149.49 94.7892 149.37C94.7203 149.31 94.6513 149.28 94.5658 149.22C94.2563 149.01 93.9639 148.77 93.6721 148.5C93.586 148.44 93.5171 148.38 93.4487 148.29C93.3797 148.23 93.3108 148.17 93.2423 148.11C93.0703 147.96 92.8987 147.78 92.7266 147.6C92.7779 147.18 92.8297 146.73 92.8639 146.28C92.8811 146.04 92.9158 145.83 92.9329 145.59C93.0013 144.9 93.0702 144.15 93.1392 143.4C93.1905 142.89 93.2252 142.38 93.2766 141.87C93.4487 139.92 93.6203 137.85 93.7747 135.72C93.8437 134.91 93.8955 134.07 93.9639 133.23C95.5797 132.24 96.5076 131.73 99.2576 132.81C99.7734 133.35 99.3266 134.01 99 134.16C98.3468 134.49 96.9721 133.92 96.3013 134.4C96.3013 134.4 96.2671 134.46 96.25 134.49C97.1095 134.58 97.9 135 98.6221 135.42C101.166 135.09 103.314 134.49 104.259 133.86C104.259 133.86 104.449 133.86 104.654 133.47C104.861 133.95 105.084 133.95 105.084 133.95C105.996 134.58 108.058 135.15 110.533 135.48C111.134 135.15 111.787 134.85 112.509 134.76C112.492 134.73 112.458 134.67 112.458 134.67C111.787 134.19 110.413 134.76 109.759 134.43C109.45 134.28 109.003 133.62 109.501 133.08C112.046 132.06 113.025 132.45 114.451 133.29C114.52 134.16 114.589 134.97 114.658 135.78C114.847 138.15 115.036 140.19 115.191 141.87C115.208 141.96 115.208 142.08 115.225 142.17C115.225 142.26 115.242 142.35 115.259 142.47C115.259 142.5 115.259 142.53 115.277 142.59C115.294 142.86 115.328 143.1 115.346 143.34C115.363 143.58 115.397 143.82 115.414 144.03C115.466 144.51 115.5 144.93 115.534 145.29C115.534 145.35 115.551 145.38 115.551 145.44C115.551 145.53 115.569 145.62 115.569 145.68C115.569 145.77 115.586 145.83 115.586 145.92C115.603 146.13 115.62 146.31 115.637 146.46C115.637 146.52 115.654 146.55 115.654 146.61C115.654 146.64 115.654 146.67 115.654 146.67C115.654 146.7 115.655 146.73 115.672 146.76C115.706 146.97 115.723 147.03 115.723 147.03Z" fill="#28AFC6"/>
<path d="M108.814 108.99C106.322 108.6 102.953 108.69 100.169 109.17C100.22 111.48 101.2 116.31 104.277 116.43C107.783 116.55 108.728 112.29 108.814 108.99Z" fill="#E0956C"/>
<path d="M108.281 102.81V111C108.281 112.77 106.683 114.18 104.707 114.18C102.747 114.18 101.149 112.74 101.166 110.97V102.81H108.281Z" fill="#E0956C"/>
<path d="M88.7733 58.6199C88.7044 58.9799 88.6531 59.3099 88.6012 59.6699C88.5499 59.9399 88.5157 60.2099 88.4639 60.4799C88.481 60.1799 88.5157 59.9399 88.5499 59.7299C88.5841 59.5199 88.6012 59.3399 88.6359 59.2199C88.6702 59.0099 88.722 58.7999 88.7733 58.6199Z" fill="#FFC19F"/>
<path d="M112.939 53.9099C112.939 53.8199 112.939 53.8499 112.957 53.94C112.939 53.94 112.939 53.9099 112.939 53.9099Z" fill="#FFC19F"/>
<path d="M101.681 199.89C101.561 200.91 98.2266 200.22 98.1924 199.17C97.7797 185.7 96.714 153.93 96.6455 150.57L104.363 151.29C104.363 151.29 102.3 194.97 101.681 199.89Z" fill="#FFC19F"/>
<path d="M107.56 199.89C107.68 200.91 111.014 200.22 111.048 199.17C111.461 185.7 112.527 153.93 112.596 150.57L104.878 151.29C104.861 151.29 106.941 194.97 107.56 199.89Z" fill="#FFC19F"/>
<path d="M99.0514 134.19C98.3982 134.52 97.023 133.95 96.3527 134.43C96.3527 134.43 96.3185 134.49 96.3014 134.52C97.1604 134.61 97.9514 135.03 98.673 135.45C97.1433 135.66 95.459 135.75 93.8261 135.72C88.3951 135.57 83.3419 133.86 85.009 128.73C86.023 125.64 86.728 123.36 88.2572 120.54C88.5153 120.06 88.8072 119.55 89.1338 119.01C89.1514 119.04 89.1685 119.04 89.1685 119.07C90.5604 120.81 91.678 122.37 92.5198 123.48C93.259 124.44 93.7748 125.07 94.1014 125.16C93.3622 126 92.8122 126.69 92.3996 127.2C90.7496 129.24 91.1451 129 91.1451 129C91.7635 129.3 92.9325 129.48 94.2901 129.63C94.2041 130.83 94.1185 132.06 94.0325 133.29C95.6482 132.3 96.5761 131.79 99.3261 132.87C99.8072 133.38 99.3604 134.04 99.0514 134.19Z" fill="#F9BB9B"/>
<path d="M114.693 135.84C113.283 135.84 111.874 135.72 110.567 135.54C111.169 135.21 111.822 134.91 112.544 134.82C112.527 134.79 112.493 134.73 112.493 134.73C111.822 134.25 110.447 134.82 109.794 134.49C109.484 134.34 109.038 133.68 109.536 133.14C112.08 132.12 113.06 132.51 114.486 133.35C114.469 133.2 114.469 133.05 114.452 132.9C114.434 132.75 114.434 132.6 114.417 132.45C114.4 132.15 114.366 131.85 114.349 131.55C114.331 131.25 114.297 130.95 114.28 130.65C114.263 130.35 114.229 130.05 114.211 129.75C115.981 129.63 117.563 129.42 118.319 129.06C118.319 129.06 118.972 129.57 114.779 124.5C115.002 124.41 115.311 124.2 115.724 123.81C116.6 122.97 117.889 121.44 119.47 119.01C119.557 118.89 119.643 118.74 119.729 118.59C121.877 122.19 123.234 125.19 124.42 128.82C126.191 134.25 120.45 135.87 114.693 135.84Z" fill="#F9BB9B"/>
<path d="M126.328 89.1003C125.417 95.8498 121.739 100.23 118.92 99.6898C116.101 99.1501 115.482 93.6603 115.895 87.1803C116.307 80.7003 118.92 75.84 121.739 76.4098C125.589 77.16 127.187 82.7403 126.328 89.1003Z" fill="#FFC19F"/>
<path d="M83.7717 89.3999C84.906 96.0602 88.7388 100.02 91.5231 99.2097C94.3249 98.3697 94.7541 92.8497 94.1186 86.3999C93.4996 79.9802 90.7154 75.39 87.9136 76.2602C84.0983 77.43 82.706 83.1599 83.7717 89.3999Z" fill="#FFC19F"/>
<path d="M119.504 77.0702C119.453 78.7502 119.401 80.4597 119.315 82.1698C119.281 82.8302 119.246 83.4898 119.212 84.1502C119.057 87.1502 118.851 90 118.61 92.4C118.336 95.0702 118.009 97.2302 117.614 98.4898C117.579 98.6098 117.545 98.6997 117.51 98.8197C115.586 104.07 106.889 108.48 104.826 108.6C102.867 108.69 93.5167 104.58 91.1451 99.8702C91.0591 99.72 90.9901 99.5397 90.9217 99.3298C90.5433 98.2197 90.1825 96.2702 89.873 93.84C89.5807 91.56 89.3401 88.8302 89.1167 85.9502C89.0654 85.2 89.0135 84.4197 88.9622 83.64C88.8072 81.1797 88.6699 78.6597 88.5667 76.2C88.4293 72.8098 88.3433 69.5397 88.3262 66.75C89.323 65.46 90.7838 64.29 92.5027 63.3C92.7262 61.59 94.0154 57.33 94.273 56.76C94.187 57.66 94.0667 60.81 93.9983 62.52C96.4041 61.38 99.137 60.54 101.836 60.15C101.75 58.35 102.231 56.01 102.231 55.89C102.557 56.43 103.21 58.89 103.486 59.97C103.898 59.94 104.293 59.91 104.689 59.91C108.315 59.82 111.014 60.18 113.162 60.84C113.007 56.43 112.956 54.45 112.939 54C113.334 55.2 113.867 58.5 113.936 61.11C114.743 61.41 115.465 61.77 116.136 62.16C116.187 60.54 116.359 57.93 116.376 57.51C116.669 57.81 117.236 61.35 117.442 63.06C118.198 63.63 118.903 64.26 119.59 64.95C119.676 68.13 119.642 72.5102 119.504 77.0702Z" fill="#FFC19F"/>
<path d="M112.544 134.82C111.84 134.88 111.186 135.18 110.567 135.54C108.11 135.21 106.03 134.61 105.119 134.01C105.119 134.01 104.896 134.04 104.69 133.53C104.483 133.92 104.294 133.92 104.294 133.92C103.349 134.55 101.2 135.15 98.6567 135.48C97.9175 135.06 97.144 134.61 96.2846 134.55C96.3017 134.52 96.3364 134.46 96.3364 134.46C97.0067 133.98 98.3814 134.55 99.0346 134.22C99.344 134.07 99.7909 133.41 99.2927 132.87C96.5427 131.79 95.6143 132.3 93.999 133.29C94.0846 132.09 94.1706 130.86 94.2567 129.63C97.7801 129.96 102.644 129.78 102.644 129.78C102.644 129.78 102.954 128.34 103.331 127.44C103.71 126.54 103.881 120.9 104.191 119.4C104.225 119.22 104.277 119.04 104.328 118.89L104.449 118.62C104.552 118.47 104.758 118.38 105.067 118.89C105.119 119.07 105.171 119.25 105.222 119.49C105.531 120.99 105.704 126.63 106.081 127.53C106.46 128.43 106.769 129.87 106.769 129.87C106.769 129.87 110.808 129.99 114.211 129.78C114.228 130.08 114.263 130.38 114.28 130.68C114.297 130.98 114.331 131.28 114.349 131.58C114.366 131.88 114.4 132.18 114.417 132.48C114.435 132.63 114.435 132.78 114.452 132.93C114.469 133.08 114.469 133.23 114.486 133.38C113.06 132.54 112.08 132.15 109.536 133.17C109.021 133.71 109.467 134.37 109.794 134.52C110.447 134.85 111.822 134.28 112.493 134.76C112.475 134.73 112.527 134.79 112.544 134.82Z" fill="#F9BB9B"/>
<path d="M93.8265 135.75L98.6733 135.48L100.839 134.67L100.478 131.79C100.478 131.79 96.1985 130.5 96.1296 130.5C96.0607 130.5 92.8125 130.8 92.8125 130.8L92.9499 134.76L93.8265 135.75Z" fill="#F9BB9B"/>
<path d="M110.567 135.54L114.692 135.84L115.998 135.6L114.485 129.69L111.753 130.08L108.504 131.94L109.38 134.79L110.567 135.54Z" fill="#F9BB9B"/>
<path d="M106.752 199.17C106.769 199.44 111.839 199.23 111.874 198.9C112.114 196.29 112.372 190.32 112.475 189.15L106.305 189.27C106.46 192.06 106.631 197.52 106.752 199.17Z" fill="#FFC76E"/>
<path d="M102.833 199.17C102.816 199.44 97.7454 199.23 97.7107 198.9C97.4702 196.29 97.2125 190.32 97.1094 189.15L103.28 189.27C103.125 192.06 102.936 197.52 102.833 199.17Z" fill="#FFC76E"/>
<path d="M114.107 196.2C114.004 195.63 113.815 194.91 113.66 194.25C113.54 193.77 110.79 193.95 110.807 195.12C110.807 195.42 110.825 195.69 110.842 195.93C110.378 195.96 109.862 195.96 109.312 195.96C108.143 195.93 107.078 195.81 106.339 195.63C106.304 197.49 106.442 200.73 106.425 202.8C106.425 202.8 118.748 206.4 120.656 203.22C121.189 202.32 118.06 198.54 114.107 196.2Z" fill="#E2511E"/>
<path d="M95.4605 196.2C95.5637 195.63 95.7524 194.91 95.9074 194.25C96.0276 193.77 98.7776 193.95 98.7605 195.12C98.7605 195.42 98.7434 195.69 98.7258 195.93C99.1902 195.96 99.7055 195.96 100.256 195.96C101.424 195.93 102.49 195.81 103.229 195.63C103.264 197.49 103.126 200.73 103.143 202.8C103.143 202.8 90.82 206.4 88.9119 203.22C88.379 202.32 91.5074 198.54 95.4605 196.2Z" fill="#E2511E"/>
<path d="M103.143 201.48C103.143 201.93 103.143 202.38 103.143 202.77C103.143 202.77 90.8193 206.37 88.9111 203.19C88.8427 203.07 88.8427 202.89 88.894 202.65C92.2801 204.06 100.083 202.29 103.143 201.48Z" fill="#892910"/>
<path d="M106.425 201.48C106.425 201.93 106.425 202.38 106.425 202.77C106.425 202.77 118.748 206.37 120.656 203.19C120.724 203.07 120.724 202.89 120.673 202.65C117.304 204.06 109.484 202.29 106.425 201.48Z" fill="#892910"/>
<path d="M114.967 196.8C115.053 196.83 115.156 196.74 115.173 196.56C115.191 196.41 115.139 196.23 115.036 196.2C114.314 195.96 113.489 196.56 113.025 197.67C112.973 197.79 112.991 198 113.06 198.09C113.094 198.12 113.128 198.15 113.163 198.15C113.214 198.15 113.266 198.12 113.3 198.03C113.696 197.1 114.383 196.59 114.967 196.8ZM115.93 197.52C116.016 197.55 116.102 197.43 116.119 197.25C116.136 197.1 116.05 196.95 115.964 196.92C115.208 196.8 114.469 197.31 113.936 198.33C113.867 198.45 113.884 198.63 113.953 198.75C113.987 198.81 114.022 198.84 114.073 198.84C114.125 198.84 114.177 198.81 114.211 198.75C114.813 197.52 115.552 197.46 115.93 197.52ZM116.961 197.73C116.274 197.55 115.414 198.12 114.847 199.11C114.778 199.23 114.778 199.41 114.847 199.53C114.881 199.59 114.916 199.62 114.967 199.62C115.019 199.62 115.053 199.59 115.087 199.53C115.586 198.66 116.325 198.15 116.892 198.3C116.996 198.33 117.081 198.21 117.081 198.06C117.116 197.91 117.064 197.73 116.961 197.73Z" fill="#D3DAE5"/>
<path d="M96.2495 198.03C96.2838 198.12 96.3356 198.15 96.3869 198.15C96.4216 198.15 96.4559 198.12 96.4901 198.09C96.559 198 96.5761 197.82 96.5248 197.67C96.0603 196.56 95.2356 195.96 94.5135 196.2C94.4279 196.23 94.359 196.38 94.3761 196.56C94.3932 196.71 94.4793 196.83 94.5824 196.8C95.1838 196.59 95.8716 197.1 96.2495 198.03ZM95.373 198.72C95.4072 198.78 95.459 198.81 95.5103 198.81C95.5451 198.81 95.5964 198.78 95.6306 198.72C95.6995 198.6 95.6995 198.42 95.6482 198.3C95.1153 197.28 94.3761 196.77 93.6198 196.89C93.5167 196.92 93.4482 197.04 93.4653 197.22C93.4824 197.4 93.5514 197.52 93.6545 197.49C94.0324 197.46 94.7545 197.52 95.373 198.72ZM92.4685 198.06C92.4856 198.21 92.5716 198.33 92.6572 198.3C93.2248 198.12 93.9806 198.66 94.4622 199.53C94.4964 199.59 94.5482 199.62 94.5824 199.62C94.6167 199.62 94.6685 199.59 94.7027 199.53C94.7716 199.41 94.7716 199.23 94.7027 199.11C94.1356 198.12 93.2761 197.55 92.5887 197.73C92.5198 197.73 92.4514 197.91 92.4685 198.06Z" fill="#D3DAE5"/>
<path d="M103.349 87.3298C103.434 87.3298 103.503 87.2098 103.52 87.0603C103.606 86.0098 104.07 85.2898 104.706 85.2603C105.342 85.2302 105.858 85.8898 105.961 86.9403C105.978 87.0898 106.064 87.2098 106.167 87.1803C106.27 87.1502 106.322 87 106.304 86.8203C106.167 85.5003 105.514 84.6 104.706 84.6603C103.899 84.6898 103.28 85.6498 103.176 87C103.159 87.1803 103.228 87.3298 103.331 87.3298H103.349Z" fill="#C67F75"/>
<path d="M92.2104 69.36C92.3307 69.3298 92.4338 69.24 92.5199 69.0898C93.637 67.05 95.8717 66.21 97.7451 67.1399C98.0028 67.2599 98.278 67.0199 98.3465 66.5399C98.4154 66.09 98.2604 65.61 98.0028 65.49C95.7685 64.38 93.1559 65.3999 91.7807 67.89C91.592 68.22 91.6091 68.7901 91.7983 69.12C91.9357 69.3003 92.073 69.3901 92.2104 69.36Z" fill="#775D2A"/>
<path d="M116.118 68.34C116.256 68.34 116.393 68.2499 116.479 68.04C116.668 67.68 116.651 67.14 116.445 66.8099C114.967 64.5 112.32 63.8699 110.137 65.28C109.879 65.46 109.759 65.94 109.845 66.3899C109.948 66.84 110.223 67.0499 110.481 66.9C112.303 65.7 114.589 66.24 115.792 68.1C115.878 68.2499 115.998 68.34 116.118 68.34Z" fill="#775D2A"/>
<path d="M108.504 85.5298C108.504 85.5298 113.798 88.3804 115.775 83.4898C118.181 77.52 114.417 72.9298 111.976 73.8898C109.742 74.76 107.714 78.2098 108.504 85.5298Z" fill="#F9FEFF"/>
<path d="M116.136 75.9298C115.139 73.7999 113.833 73.1396 112.406 73.4399C110.946 73.7101 109.484 75.5396 109.072 77.4301C109.846 75.3298 111.186 74.5199 112.028 74.1901C113.369 73.6498 115.122 74.6701 115.93 76.7698C116.652 78.6301 116.6 81.4498 115.724 83.6399C116.772 82.1396 117.167 78.1501 116.136 75.9298Z" fill="#773220"/>
<path d="M109.673 79.2898C109.209 81.4203 109.81 83.8203 111.031 84.6302C112.251 85.44 113.626 84.3902 114.09 82.2603C114.554 80.1298 113.953 77.7298 112.733 76.92C111.512 76.1102 110.137 77.16 109.673 79.2898Z" fill="#00576C"/>
<path d="M109.863 78.6302C109.725 79.2302 109.897 79.8898 110.241 80.1298C110.585 80.3698 110.963 80.0701 111.1 79.4702C111.238 78.8702 111.066 78.2098 110.723 77.9698C110.361 77.76 109.983 78.0603 109.863 78.6302Z" fill="#FEFFFE"/>
<path d="M100.53 85.7102C100.53 85.7102 95.2702 88.7397 93.2252 83.9397C90.7328 78.0597 94.4625 73.3502 96.9031 74.1902C99.1544 75.0001 101.234 78.3601 100.53 85.7102Z" fill="#F9FEFF"/>
<path d="M92.7957 76.3797C93.7578 74.2197 95.0641 73.5299 96.4907 73.7397C97.9515 73.9797 99.4299 75.7502 99.8596 77.6099C99.0691 75.5397 97.711 74.7902 96.8691 74.4899C95.5281 74.0099 93.7749 75.0899 93.0015 77.2197C92.3141 79.1102 92.383 81.9299 93.2938 84.0899C92.2281 82.6197 91.7812 78.6597 92.7957 76.3797Z" fill="#773220"/>
<path d="M94.9956 79.6498C94.5311 81.7796 95.1329 84.1796 96.3532 84.9902C97.5735 85.8 98.9487 84.7502 99.4127 82.6196C99.8766 80.4898 99.2753 78.0898 98.0545 77.28C96.8519 76.4702 95.4766 77.52 94.9956 79.6498Z" fill="#00576C"/>
<path d="M95.1851 78.9902C95.0477 79.5902 95.2198 80.2499 95.5635 80.4899C95.9072 80.7299 96.2851 80.4302 96.4224 79.8302C96.5603 79.2302 96.3882 78.5699 96.0445 78.3299C95.7008 78.1201 95.3224 78.4197 95.1851 78.9902Z" fill="#FEFFFE"/>
<path d="M85.0275 59.55C85.0275 59.55 83.5325 63.87 85.1306 64.32C86.7293 64.77 88.2244 63.09 88.4825 60.54C88.723 57.99 87.623 55.56 86.0072 55.08C84.4086 54.63 85.0275 59.55 85.0275 59.55Z" fill="#F9951E"/>
<path d="M93.6546 62.04C93.6546 62.04 94.273 66.96 92.6748 66.51C91.0762 66.06 89.9591 63.6 90.1996 61.05C90.4401 58.5 91.9356 56.82 93.5514 57.27C95.1496 57.72 93.6546 62.04 93.6546 62.04Z" fill="#F9951E"/>
<path d="M90.4066 61.1699C90.2864 62.3699 89.7021 63.2099 89.0832 63.0599C88.4643 62.8799 88.0692 61.7699 88.1895 60.5399C88.3098 59.3399 88.894 58.4999 89.5129 58.6499C90.1143 58.8299 90.5098 59.9399 90.4066 61.1699Z" fill="#F9951E"/>
<path d="M97.196 115.56C96.3878 116.43 95.7004 117.3 95.1162 118.14C95.2365 116.64 95.3739 115.26 95.4941 114.03C96.3194 114.21 96.5599 114.9 97.196 115.56Z" fill="#28AFC6"/>
<path d="M95.4771 144.51C95.4771 144.51 91.7992 148.62 89.96 160.62C96.491 171.09 109.725 173.88 119.075 158.85C118.44 155.97 115.225 144.12 113.524 143.58L95.4771 144.51Z" fill="#2A535E"/>
<path d="M117.545 127.5C117.029 128.04 116.514 128.46 116.067 128.64C115.723 128.1 114.846 127.11 113.936 125.76C112.698 123.93 111.374 121.38 111.134 118.2C111.993 119.1 112.819 120.03 113.592 120.96C115.345 123.09 116.823 125.25 117.545 127.5Z" fill="#28AFC6"/>
<path d="M114.847 137.67C114.847 137.64 114.83 137.64 114.812 137.61L114.83 137.58C114.847 137.61 114.847 137.64 114.847 137.67Z" fill="#28AFC6"/>
<path d="M114.211 129.78C110.825 129.99 106.769 129.87 106.769 129.87C106.769 129.87 106.46 128.43 106.082 127.53C105.704 126.63 105.532 120.99 105.223 119.49C105.171 119.25 105.119 119.07 105.068 118.89C104.758 118.41 104.552 118.47 104.449 118.62L104.328 118.89C104.277 119.04 104.243 119.19 104.191 119.4C103.882 120.9 103.71 126.54 103.332 127.44C102.954 128.34 102.644 129.78 102.644 129.78C102.644 129.78 97.7803 129.93 94.2568 129.63C94.3429 128.46 94.4284 127.32 94.4974 126.18C94.4974 126.09 94.5145 125.97 94.5145 125.85C94.5492 125.43 94.5834 125.01 94.6005 124.59V124.56C94.6347 124.11 94.6695 123.66 94.7037 123.24C94.7379 122.67 94.7897 122.1 94.8239 121.53C94.8411 121.23 94.8753 120.96 94.8929 120.66C94.9271 120.12 94.9784 119.61 95.0131 119.1C95.0303 118.95 95.0303 118.8 95.0474 118.62C95.0645 118.47 95.0816 118.32 95.0816 118.17C95.6663 117.3 96.3537 116.43 97.1613 115.59C96.5253 114.93 96.2847 114.21 95.46 114.09C95.46 114.06 95.46 114.03 95.46 114C95.5113 113.58 95.546 113.19 95.5974 112.83C95.6663 112.23 95.7347 111.69 95.8037 111.21C95.8208 111.15 95.8208 111.09 95.8379 111.03C95.8897 110.61 95.9582 110.25 96.0271 109.95C96.2676 109.89 96.5253 109.83 96.8005 109.77C96.9379 109.74 97.0753 109.71 97.2131 109.68C97.3505 109.65 97.4708 109.62 97.6082 109.59C97.9176 109.53 98.2442 109.47 98.5879 109.44C98.8284 109.41 99.0866 109.38 99.3442 109.35C99.4303 109.35 99.5163 109.32 99.6019 109.32C99.8429 109.29 100.083 109.26 100.324 109.23C100.943 109.17 101.578 109.14 102.232 109.11C102.301 109.11 102.369 109.11 102.438 109.11C104.002 109.05 105.583 109.05 107.061 109.17C107.233 109.17 107.388 109.2 107.56 109.2C107.663 109.2 107.749 109.23 107.852 109.23C107.938 109.23 108.007 109.23 108.093 109.26C108.161 109.26 108.23 109.26 108.299 109.29C108.402 109.29 108.488 109.32 108.591 109.32C108.728 109.35 108.866 109.35 109.004 109.38C109.09 109.38 109.193 109.41 109.278 109.41C109.364 109.44 109.468 109.44 109.554 109.47C109.794 109.5 110.035 109.56 110.275 109.62C110.361 109.65 110.447 109.65 110.533 109.68C110.619 109.71 110.705 109.71 110.791 109.74C110.963 109.77 111.118 109.83 111.29 109.86C111.358 109.89 111.41 109.89 111.461 109.92C111.702 109.98 111.925 110.07 112.132 110.13C112.287 110.19 112.441 110.25 112.596 110.31C112.733 110.37 112.854 110.43 112.974 110.49C113.025 111.48 113.077 112.44 113.128 113.4C113.146 113.7 113.163 114.03 113.18 114.33C112.561 114.36 111.925 114.45 111.341 114.63C110.275 114.93 109.33 115.41 108.901 115.86C109.64 116.64 110.396 117.42 111.135 118.23C111.994 119.13 112.819 120.06 113.593 120.99C113.644 121.68 113.678 122.37 113.73 123.03C113.816 124.32 113.902 125.58 113.988 126.81C114.005 127.14 114.04 127.47 114.057 127.8C114.108 128.46 114.16 129.09 114.194 129.72C114.211 129.75 114.211 129.75 114.211 129.78Z" fill="#28AFC6"/>
<path d="M121.859 119.43C121.636 120.3 121.326 121.2 120.948 122.07C119.573 118.44 117.081 115.17 114.606 114.48C114.176 114.36 113.695 114.33 113.197 114.33C112.578 114.36 111.942 114.45 111.357 114.63C111.598 113.28 112.062 111.87 112.767 110.37L112.784 110.34C116.084 111.6 121.859 119.43 121.859 119.43Z" fill="#28AFC6"/>
<path d="M95.4933 114.06C95.373 115.29 95.2356 116.67 95.1154 118.17C93.3275 120.81 92.4509 123.51 91.5572 126.36C90.3717 124.98 89.1685 122.91 88.3262 120.75C89.7528 117.54 92.0041 114.81 94.2559 114.21C94.7888 114.03 95.1838 114 95.4933 114.06Z" fill="#28AFC6"/>
<path d="M115.723 147.03C115.62 147.18 115.5 147.3 115.38 147.45C115.328 147.48 115.294 147.54 115.242 147.6C115.208 147.66 115.156 147.69 115.122 147.72C115.07 147.78 115.036 147.81 114.984 147.84C114.933 147.9 114.898 147.93 114.847 147.96C114.796 147.99 114.761 148.05 114.709 148.08C114.675 148.11 114.623 148.17 114.589 148.2C114.486 148.29 114.4 148.38 114.297 148.47C114.246 148.5 114.194 148.56 114.159 148.59C114.091 148.65 114.039 148.68 113.97 148.74C113.781 148.89 113.575 149.04 113.386 149.19C113.334 149.22 113.283 149.28 113.214 149.31C113.146 149.34 113.111 149.37 113.042 149.43C112.991 149.46 112.922 149.52 112.87 149.55C112.784 149.61 112.681 149.67 112.578 149.73C112.372 149.85 112.166 149.97 111.959 150.09C111.856 150.15 111.77 150.21 111.667 150.24C111.478 150.33 111.272 150.45 111.066 150.54C110.859 150.63 110.636 150.72 110.413 150.81C109.364 151.23 108.23 151.56 107.061 151.77C106.975 151.8 106.872 151.8 106.786 151.83C106.219 151.92 105.634 152.01 105.05 152.04C104.999 152.04 104.93 152.04 104.878 152.04C104.792 152.04 104.723 152.04 104.637 152.04C104.517 152.04 104.414 152.04 104.294 152.04C104.259 152.04 104.208 152.04 104.173 152.04C104.104 152.04 104.019 152.04 103.95 152.04C103.864 152.04 103.796 152.04 103.727 152.04C103.589 152.04 103.434 152.04 103.297 152.04C103.177 152.04 103.056 152.04 102.936 152.04C102.833 152.04 102.73 152.04 102.627 152.01C102.506 152.01 102.386 152.01 102.266 151.98C102.18 151.98 102.077 151.98 101.991 151.95C101.853 151.92 101.699 151.92 101.561 151.89C101.251 151.86 100.925 151.8 100.616 151.74C100.358 151.68 100.1 151.65 99.8424 151.59C99.7045 151.56 99.55 151.53 99.4126 151.47C99.2923 151.44 99.1892 151.41 99.086 151.38C99.0171 151.35 98.9487 151.35 98.8626 151.32C98.7595 151.29 98.6563 151.26 98.5531 151.23C98.4329 151.2 98.3126 151.14 98.1924 151.11C98.1063 151.08 98.0031 151.05 97.9171 151.02H97.9C97.7968 150.99 97.7108 150.93 97.6076 150.9C97.5734 150.9 97.5392 150.87 97.4874 150.84C97.3842 150.81 97.2987 150.75 97.2126 150.72C97.1266 150.69 97.0234 150.63 96.9374 150.6C96.7311 150.51 96.5423 150.42 96.336 150.3C96.25 150.24 96.1468 150.21 96.0608 150.15C95.9752 150.09 95.8892 150.06 95.786 150C95.6311 149.91 95.4766 149.82 95.3221 149.73C95.15 149.61 94.9779 149.49 94.7892 149.37C94.7203 149.31 94.6513 149.28 94.5658 149.22C94.2563 149.01 93.9639 148.77 93.6721 148.5C93.586 148.44 93.5171 148.38 93.4487 148.29C93.3797 148.23 93.3108 148.17 93.2423 148.11C93.0703 147.96 92.8987 147.78 92.7266 147.6C92.7779 147.18 92.8297 146.73 92.8639 146.28C92.8811 146.04 92.9158 145.83 92.9329 145.59C93.0013 144.9 93.0702 144.15 93.1392 143.4C93.1905 142.89 93.2252 142.38 93.2766 141.87C93.6721 141.51 94.2392 141 94.8747 140.88C95.8892 141.36 96.336 141.87 96.7829 142.2C97.5905 142.8 98.1234 142.44 98.2095 141.9C97.9513 140.88 95.3221 138.96 95.4247 138.9C96.6626 139.26 97.8487 139.92 98.536 140.1C99.4126 140.31 99.7221 139.5 99.0513 138.39C98.1747 138 97.3842 137.31 96.1297 136.65C98.2437 137.19 100.272 138.87 99.9279 136.2C99.4987 136.02 99.086 135.75 98.6392 135.48C101.183 135.15 103.331 134.55 104.277 133.92C104.277 133.92 104.466 133.92 104.672 133.53C104.878 134.01 105.101 134.01 105.101 134.01C106.013 134.64 108.075 135.21 110.55 135.54C109.948 135.87 109.398 136.26 108.848 136.5C108.504 139.17 110.533 137.49 112.647 136.95C111.392 137.61 110.584 138.3 109.725 138.69C109.054 139.8 109.364 140.61 110.241 140.4C110.928 140.22 112.114 139.56 113.351 139.2C113.454 139.26 110.825 141.18 110.567 142.2C110.653 142.74 111.186 143.1 111.994 142.5C112.423 142.17 112.887 141.66 113.884 141.18C114.383 141.27 114.83 141.6 115.208 141.93C115.225 142.02 115.225 142.14 115.242 142.23C115.242 142.32 115.259 142.41 115.277 142.53C115.277 142.56 115.277 142.59 115.294 142.65C115.311 142.92 115.346 143.16 115.363 143.4C115.38 143.64 115.414 143.88 115.431 144.09C115.483 144.57 115.517 144.99 115.551 145.35C115.551 145.41 115.569 145.44 115.569 145.5C115.569 145.59 115.586 145.68 115.586 145.74C115.586 145.83 115.603 145.89 115.603 145.98C115.62 146.19 115.637 146.37 115.654 146.52C115.654 146.58 115.672 146.61 115.672 146.67C115.672 146.7 115.672 146.73 115.672 146.73C115.672 146.76 115.672 146.79 115.689 146.82C115.706 146.97 115.723 147.03 115.723 147.03Z" fill="#28AFC6"/>
<path d="M94.5135 126.15C93.9464 126.87 93.4654 127.41 93.2248 127.77C92.7091 127.53 92.1419 127.02 91.5572 126.33C92.4509 123.48 93.3275 120.78 95.1154 118.14C95.6996 117.27 96.387 116.4 97.1951 115.56C96.5591 114.9 96.3185 114.18 95.4933 114.06C95.1838 114 94.7888 114.03 94.2559 114.18C92.0041 114.78 89.7527 117.54 88.3262 120.72C87.9996 119.91 87.7419 119.1 87.5527 118.29C87.5527 118.29 93.4135 110.7 96.7654 109.59C96.7825 109.65 96.8167 109.68 96.8338 109.74C100.426 117.84 96.7483 123.36 94.5135 126.15Z" fill="#28AFC6"/>
<path d="M120.931 122.07C120.021 124.23 118.732 126.24 117.528 127.53C116.807 125.25 115.346 123.09 113.575 120.99C113.438 118.86 113.3 116.64 113.163 114.36C113.661 114.33 114.143 114.39 114.573 114.51C117.064 115.17 119.574 118.44 120.931 122.07Z" fill="#28AFC6"/>
<path d="M113.576 120.99C112.803 120.06 111.96 119.16 111.118 118.23C111.032 117.12 111.084 115.92 111.324 114.63C111.926 114.45 112.562 114.36 113.163 114.33C113.301 116.61 113.438 118.83 113.576 120.99Z" fill="#28AFC6"/>
<path d="M111.117 118.23C110.378 117.45 109.622 116.64 108.883 115.86C109.313 115.41 110.258 114.93 111.323 114.63C111.083 115.92 111.031 117.12 111.117 118.23Z" fill="#28AFC6"/>
<path d="M114.28 130.68C114.263 130.38 114.228 130.08 114.211 129.78C110.825 129.99 106.769 129.87 106.769 129.87C106.769 129.87 106.46 128.43 106.082 127.53C105.704 126.63 105.532 120.99 105.223 119.49C105.171 119.25 105.119 119.07 105.068 118.89C104.758 118.41 104.552 118.47 104.449 118.62L104.328 118.89C104.277 119.04 104.243 119.19 104.191 119.4C103.882 120.9 103.71 126.54 103.332 127.44C102.954 128.34 102.644 129.78 102.644 129.78C102.644 129.78 97.7803 129.93 94.2568 129.63C94.3429 128.46 94.4284 127.32 94.4974 126.18C94.4974 126.09 94.5145 125.97 94.5145 125.85C94.5492 125.43 94.5834 125.01 94.6005 124.59V124.56C94.6347 124.11 94.6695 123.66 94.7037 123.24C94.7379 122.67 94.7897 122.1 94.8239 121.53C94.8411 121.23 94.8753 120.96 94.8929 120.66C94.9271 120.12 94.9784 119.61 95.0131 119.1C95.0303 118.95 95.0303 118.8 95.0474 118.62C95.0645 118.47 95.0816 118.32 95.0816 118.17C95.1505 117.42 95.2019 116.7 95.2708 116.01C95.2879 115.92 95.2879 115.8 95.305 115.71C95.3397 115.29 95.3911 114.9 95.4253 114.51C95.4429 114.36 95.46 114.21 95.4771 114.06C95.4771 114.03 95.4771 114 95.4771 113.97C95.5284 113.55 95.5632 113.16 95.6145 112.8C95.6834 112.2 95.7519 111.66 95.8208 111.18C95.8379 111.12 95.8379 111.06 95.855 111C95.9068 110.58 95.9753 110.22 96.0442 109.92C96.2847 109.86 96.5429 109.8 96.8176 109.74C96.955 109.71 97.0929 109.68 97.2303 109.65C97.3676 109.62 97.4879 109.59 97.6253 109.56C97.9347 109.5 98.2613 109.44 98.605 109.41C98.846 109.38 99.1037 109.35 99.3613 109.32C99.4474 109.32 99.5334 109.29 99.6195 109.29C99.86 109.26 100.101 109.23 100.341 109.2C100.96 109.14 101.596 109.11 102.249 109.08C102.318 109.08 102.387 109.08 102.455 109.08C104.019 109.02 105.601 109.02 107.078 109.14C107.251 109.14 107.405 109.17 107.577 109.17C107.68 109.17 107.766 109.2 107.869 109.2C107.955 109.2 108.024 109.2 108.11 109.23C108.178 109.23 108.247 109.23 108.316 109.26C108.419 109.26 108.505 109.29 108.608 109.29C108.746 109.32 108.883 109.32 109.021 109.35C109.107 109.35 109.21 109.38 109.296 109.38C109.382 109.41 109.485 109.41 109.571 109.44C109.811 109.47 110.052 109.53 110.293 109.59C110.378 109.62 110.464 109.62 110.551 109.65C110.637 109.68 110.723 109.68 110.808 109.71C110.98 109.74 111.135 109.8 111.307 109.83C111.375 109.86 111.427 109.86 111.478 109.89C111.719 109.95 111.943 110.04 112.149 110.1C112.304 110.16 112.458 110.22 112.613 110.28C112.751 110.34 112.871 110.4 112.991 110.46C113.043 111.45 113.094 112.41 113.146 113.37C113.163 113.67 113.18 114 113.197 114.3C113.214 114.72 113.249 115.17 113.266 115.59C113.283 116.01 113.318 116.43 113.335 116.85C113.369 117.51 113.421 118.17 113.455 118.83C113.49 119.28 113.507 119.7 113.541 120.15C113.558 120.42 113.575 120.69 113.593 120.96C113.644 121.65 113.678 122.34 113.73 123C113.816 124.29 113.902 125.55 113.988 126.78C114.005 127.11 114.04 127.44 114.057 127.77C114.108 128.43 114.16 129.06 114.194 129.69C114.194 129.72 114.194 129.72 114.194 129.75C114.228 130.08 114.263 130.38 114.28 130.68Z" fill="#28AFC6"/>
<path opacity="0.21" d="M89.8741 93.8099C89.8228 93.8401 89.771 93.8401 89.7196 93.8703C88.293 94.2899 86.9178 92.3404 86.643 89.5201C86.3678 86.7004 87.2962 84.0604 88.7228 83.6401C88.8083 83.6099 88.8773 83.6099 88.9633 83.5804C89.2038 87.3601 89.5133 90.9299 89.8741 93.8099Z" fill="black"/>
<path opacity="0.21" d="M118.749 93.72C118.8 93.7502 118.852 93.7502 118.904 93.7804C120.33 94.1404 121.688 92.1299 121.928 89.3102C122.169 86.4899 121.19 83.88 119.763 83.52C119.677 83.4899 119.608 83.4899 119.522 83.4899C119.333 87.24 119.076 90.8099 118.749 93.72Z" fill="black"/>
<path fill-rule="evenodd" clip-rule="evenodd" d="M108.367 96.2099C108.092 97.1699 107.095 98.8499 105.101 98.88C103.366 98.88 102.145 97.3502 101.664 96.1804C101.371 95.4604 101.406 94.7699 101.716 95.28C104.328 99.6 107.421 97.0204 108.075 95.9102C108.316 95.4899 108.539 95.64 108.367 96.2099Z" fill="#B13B32"/>
</svg>
