<svg width="220" height="240" viewBox="0 0 220 240" fill="none" xmlns="http://www.w3.org/2000/svg">
<path d="M119.166 214.059C119.166 214.059 119.297 214.817 119.166 215.366C118.943 216.304 117.381 222.756 115.42 221.279C113.461 219.8 112.86 217.203 111.176 213.974C109.491 210.745 107.43 210.003 107.993 207.303L119.166 214.059Z" fill="#6A3514"/>
<path d="M118.1 212.115C118.1 212.115 119.058 213.042 119.167 214.059C119.276 215.071 117.383 221.446 115.421 219.967C113.462 218.49 112.861 215.894 111.177 212.662C109.492 209.436 106.996 208.422 108.411 206.342L118.1 212.115Z" fill="#E2BE81"/>
<path d="M108.661 200.652C108.661 200.652 108.555 203.022 108.149 204.824C107.744 206.625 107.977 208.428 109.66 209.555C109.66 209.555 111.11 210.341 111.691 211.803C112.272 213.269 113.144 216.987 114.361 216.987C114.361 216.987 115.522 219.348 116.104 219.011C116.104 219.011 116.83 218.757 116.83 217.546C116.83 217.546 117.498 217.24 117.382 216.45L117.28 216.142C117.28 216.142 118.107 216.224 117.962 215.042L117.904 214.825C117.904 214.825 118.6 214.703 118.498 213.803L118.433 213.516C118.433 213.516 119.113 213.601 118.982 212.307C118.982 212.307 118.873 212.15 118.64 211.839C118.64 211.839 118.236 211.21 117.888 210.594C117.54 209.983 116.696 208.61 116.162 207.66C115.629 206.706 113.429 202.192 112.982 200.882C112.536 199.574 112.666 194.612 112.666 194.612L108.477 193.64C108.477 193.64 108.817 198.509 108.661 200.652Z" fill="#D0846A"/>
<path d="M116.237 207.794C116.212 207.75 116.186 207.701 116.164 207.66C116.012 207.388 115.726 206.833 115.382 206.14C114.248 205.558 112.794 205.082 112.794 205.082L108.233 204.426C108.207 204.56 108.18 204.693 108.15 204.824C107.745 206.624 107.978 208.428 109.66 209.555C109.66 209.555 111.11 210.342 111.691 211.803C112.273 213.27 113.145 216.986 114.362 216.986C114.362 216.986 115.523 219.348 116.104 219.01C116.104 219.01 116.478 218.879 116.69 218.353C116.361 218.516 115.728 218.718 115.486 218.03C115.152 217.079 114.772 216.084 114.609 216.142C114.445 216.2 112.776 215.087 112.794 213.516C112.812 211.945 114.167 208.712 116.237 207.794Z" fill="#AA6650"/>
<path d="M117.338 214.101C117.229 214.451 117.905 214.826 117.905 214.826C117.905 214.826 118.06 214.8 118.213 214.677C118.001 214.666 117.885 214.143 117.783 213.932C117.629 213.614 117.447 213.755 117.338 214.101Z" fill="#AA6650"/>
<path d="M118.028 212.662C117.902 212.945 118.283 213.332 118.434 213.516C118.434 213.516 118.654 213.542 118.819 213.328C118.635 213.217 118.471 212.684 118.4 212.523C118.291 212.276 118.155 212.382 118.028 212.662Z" fill="#AA6650"/>
<path d="M117.28 216.142C117.28 216.142 117.506 216.164 117.702 216.015C117.477 215.87 117.237 215.203 117.103 214.951C116.902 214.582 116.774 214.758 116.774 215.126C116.774 215.495 117.183 216.076 117.28 216.142Z" fill="#AA6650"/>
<path d="M116.031 214.723C115.877 214.615 115.533 214.914 115.487 215.126C115.441 215.34 116.051 216.621 116.304 216.673C116.559 216.728 116.83 217.547 116.83 217.547C116.83 217.547 117.09 217.426 117.257 217.144C116.662 217.648 116.185 214.826 116.031 214.723Z" fill="#AA6650"/>
<path d="M116.075 216.283C116.075 216.283 112.823 206.878 111.925 204.684L112.156 203.782C112.156 203.782 116.714 215.717 116.075 216.283Z" fill="#7D3E2C"/>
<path d="M108.591 195.567C108.673 197.17 108.753 199.385 108.661 200.652C108.661 200.652 108.555 203.022 108.149 204.824C107.744 206.625 107.977 208.428 109.66 209.555C109.66 209.555 110.901 210.184 111.48 211.65C111.524 211.764 111.877 212.57 111.924 212.705C112.348 213.73 112.477 214.101 112.477 214.101C113.057 207.59 116.304 207.91 116.304 207.91C116.255 207.826 116.207 207.739 116.163 207.66C115.629 206.707 113.429 202.193 112.983 200.883C112.709 200.084 112.653 197.913 112.65 196.351C112.65 196.351 110.946 197.261 108.591 195.567Z" fill="#7D3E2C"/>
<path d="M115.766 206.908C115.111 205.624 113.992 203.299 113.364 201.837L108.657 200.722C108.637 201.115 108.516 203.2 108.148 204.824C108.05 205.265 107.99 205.705 107.979 206.135C110.159 208.8 114.357 207.461 115.766 206.908Z" fill="#662B1D"/>
<path d="M93.2042 214.177C93.2042 214.177 93.0722 214.936 93.2042 215.485C93.4276 216.423 94.9891 222.875 96.9481 221.397C98.9095 219.919 99.5108 217.322 101.195 214.092C102.88 210.865 104.94 210.121 104.378 207.422L93.2042 214.177Z" fill="#6A3514"/>
<path d="M94.2705 212.234C94.2705 212.234 93.3128 213.161 93.2038 214.177C93.0938 215.189 94.9882 221.565 96.9477 220.085C98.9086 218.609 99.5105 216.012 101.194 212.78C102.879 209.554 105.374 208.541 103.959 206.461L94.2705 212.234Z" fill="#E2BE81"/>
<path d="M103.71 200.77C103.71 200.77 103.816 203.141 104.222 204.943C104.628 206.744 104.396 208.546 102.712 209.674C102.712 209.674 101.26 210.461 100.68 211.922C100.1 213.389 99.2278 217.105 98.0099 217.105C98.0099 217.105 96.8479 219.468 96.2675 219.13C96.2675 219.13 95.5425 218.876 95.5425 217.665C95.5425 217.665 94.8737 217.358 94.9901 216.568L95.0918 216.261C95.0918 216.261 94.2655 216.343 94.4093 215.161L94.4684 214.945C94.4684 214.945 93.7708 214.822 93.8734 213.922L93.938 213.634C93.938 213.634 93.2584 213.719 93.3899 212.425C93.3899 212.425 93.499 212.268 93.7317 211.958C93.7317 211.958 94.134 211.329 94.4821 210.713C94.8302 210.102 95.6755 208.729 96.2094 207.778C96.7427 206.825 98.9413 202.311 99.3891 201.001C99.8345 199.692 99.7035 194.731 99.7035 194.731L103.896 193.758C103.896 193.759 103.554 198.628 103.71 200.77Z" fill="#D0846A"/>
<path d="M96.1329 207.913C96.1583 207.868 96.1857 207.819 96.2077 207.779C96.3597 207.507 96.6457 206.951 96.9889 206.259C98.1227 205.677 99.5761 205.201 99.5761 205.201L104.137 204.544C104.164 204.678 104.191 204.812 104.221 204.943C104.626 206.744 104.394 208.546 102.711 209.674C102.711 209.674 101.259 210.46 100.678 211.922C100.099 213.388 99.2261 217.105 98.0083 217.105C98.0083 217.105 96.8462 219.467 96.2664 219.13C96.2664 219.13 95.8914 218.997 95.6807 218.472C96.0092 218.635 96.6433 218.837 96.8853 218.148C97.2182 217.198 97.5991 216.203 97.7633 216.261C97.9261 216.319 99.5942 215.206 99.5761 213.635C99.558 212.064 98.2038 208.83 96.1329 207.913Z" fill="#AA6650"/>
<path d="M95.0338 214.22C95.1409 214.57 94.4677 214.945 94.4677 214.945C94.4677 214.945 94.3107 214.919 94.1582 214.796C94.3694 214.785 94.4853 214.262 94.5884 214.051C94.7419 213.732 94.9248 213.874 95.0338 214.22Z" fill="#AA6650"/>
<path d="M94.3423 212.781C94.4694 213.064 94.0886 213.451 93.936 213.635C93.936 213.635 93.717 213.661 93.5527 213.446C93.7361 213.335 93.8994 212.803 93.9702 212.642C94.0793 212.395 94.2161 212.501 94.3423 212.781Z" fill="#AA6650"/>
<path d="M95.0908 216.261C95.0908 216.261 94.865 216.282 94.6689 216.134C94.8929 215.988 95.1319 215.322 95.2678 215.07C95.4688 214.701 95.5949 214.876 95.5949 215.244C95.5944 215.613 95.1876 216.195 95.0908 216.261Z" fill="#AA6650"/>
<path d="M96.3389 214.842C96.4929 214.734 96.8385 215.032 96.8835 215.244C96.9295 215.459 96.3208 216.74 96.0676 216.791C95.8119 216.847 95.542 217.666 95.542 217.666C95.542 217.666 95.2795 217.545 95.1133 217.262C95.7092 217.767 96.1864 214.945 96.3389 214.842Z" fill="#AA6650"/>
<path d="M96.2957 216.402C96.2957 216.402 99.5473 206.997 100.446 204.803L100.215 203.901C100.215 203.901 95.6572 215.835 96.2957 216.402Z" fill="#7D3E2C"/>
<path d="M103.78 195.686C103.698 197.289 103.617 199.504 103.709 200.77C103.709 200.77 103.816 203.141 104.222 204.943C104.627 206.744 104.395 208.546 102.711 209.674C102.711 209.674 101.47 210.303 100.889 211.768C100.845 211.884 100.495 212.689 100.446 212.824C100.023 213.848 99.8954 214.22 99.8954 214.22C99.3146 207.709 96.0674 208.029 96.0674 208.029C96.1143 207.945 96.1637 207.858 96.2082 207.779C96.742 206.826 98.9406 202.312 99.3879 201.001C99.6612 200.203 99.7169 198.032 99.7208 196.47C99.7208 196.47 101.424 197.381 103.78 195.686Z" fill="#7D3E2C"/>
<path d="M96.6045 207.027C97.2596 205.742 98.3782 203.418 99.0059 201.957L103.714 200.841C103.733 201.233 103.855 203.319 104.222 204.944C104.321 205.384 104.382 205.823 104.392 206.253C102.213 208.919 98.0135 207.579 96.6045 207.027Z" fill="#662B1D"/>
<path d="M94.3057 201.73H117.745C117.479 193.36 117.074 178.637 117.11 174.518C117.161 168.867 117.55 157.995 116.45 150.603C116.206 148.96 116.45 136.692 116.45 136.692C116.29 121.038 114.841 109.189 114.841 109.189L96.2485 110.169C94.8674 119.407 95.6369 141.413 95.6369 141.413L95.2947 147.066C94.8513 158.429 94.5721 194.03 94.3057 201.73Z" fill="#E2BE81"/>
<path d="M113.92 182.923C114.312 185.49 115.926 195.29 116.99 201.73H117.745C117.479 193.36 117.074 178.637 117.111 174.518C117.162 168.867 117.55 157.995 116.451 150.603C116.206 148.96 116.451 136.692 116.451 136.692C116.394 131.188 116.179 126.156 115.923 121.945C115.786 133.175 115.276 152.924 115.276 152.924C115.276 152.924 116.835 162.634 116.451 164.807C116.066 166.982 113.322 179.011 113.92 182.923Z" fill="#C59F6B"/>
<path d="M111.759 201.73L111.007 184.954C111.007 184.954 108.914 189.012 108.391 190.605C108.145 191.356 107.303 196.439 106.396 201.731H111.759V201.73Z" fill="#C59F6B"/>
<path d="M113.18 162.053C111.841 159.59 102.264 138.139 101.964 136.545C101.665 134.951 99.5729 118.524 99.5729 118.524C99.7968 119.925 104.355 133.502 105.105 135.676C105.855 137.85 111.402 144.372 111.402 144.372C109.927 141.619 100.545 118.562 100.545 118.562C106.693 120.226 112.788 115.637 115.278 113.426C115.031 110.727 114.842 109.189 114.842 109.189L96.2499 110.169C94.8688 119.407 95.6383 141.412 95.6383 141.412L95.2961 147.066C95.0785 152.654 94.9001 164.844 94.7422 176.753C95.3122 168.876 96.0861 158.916 96.2499 155.966C96.5125 151.184 96.7334 139.3 96.7354 137.183C96.7369 135.065 97.7049 118.562 97.7049 118.562C97.7049 118.562 97.7107 118.773 97.721 119.15C97.8124 122.516 98.2954 139.273 98.8919 141.619C99.2762 143.126 101.167 149.037 102.695 153.757C99.4409 140.833 98.8919 121.906 98.8919 121.906C98.8919 121.906 99.8726 137.56 100.994 139.733C102.115 141.907 113.18 162.053 113.18 162.053Z" fill="#C59F6B"/>
<path d="M108.131 32.99H105.683H103.238C103.358 43.5341 100.391 45.7088 100.391 45.7088C102.274 51.0341 105.683 50.7084 105.683 50.7084C105.683 50.7084 109.094 51.0341 110.978 45.7088C110.978 45.7086 108.009 43.5341 108.131 32.99Z" fill="#BB715A"/>
<path d="M109.139 42.2247C108.662 40.6309 108.253 38.3576 108.152 35.1652H105.647H103.214C103.153 37.0829 102.983 38.6727 102.751 39.9789C103.898 41.0873 106.352 42.9783 109.139 42.2247Z" fill="#A35D4B"/>
<path d="M117.585 49.5136C117.27 49.2956 110.036 44.4509 110.036 44.4509L105.682 47.7733L101.33 44.4509C101.33 44.4509 94.0952 49.2956 93.7819 49.5136C93.466 49.7309 93.5702 61.0356 94.8296 69.5143C94.8296 69.5143 95.7624 75.3772 96.1344 82.3406C96.3172 85.7438 96.1046 90.0542 96.087 92.8238C96.087 92.8238 95.6685 109.732 95.7731 111.908C95.7731 111.908 100.063 115.382 104.83 115.843L105.682 111.689L106.541 115.869C111.408 115.542 115.592 111.908 115.592 111.908C115.697 109.732 115.278 92.8238 115.278 92.8238C115.23 84.3895 116.536 69.5143 116.536 69.5143C117.795 61.0354 117.899 49.7307 117.585 49.5136Z" fill="#E9CD96"/>
<path d="M107.322 115.786C105.823 106.948 107.123 48.4615 107.123 48.4615L105.44 49.5136L105.104 111.037L105.408 113.03L105.682 111.689L106.542 115.869C106.804 115.851 107.064 115.821 107.322 115.786Z" fill="#C8A977"/>
<path opacity="0.8" d="M117.735 51.8007C117.735 51.798 117.733 51.7966 117.733 51.7953C117.398 50.9249 116.557 60.8182 115.828 60.9268C115.099 61.0355 113.417 50.7084 113.083 53.4255C112.748 56.144 114.986 68.9692 114.618 69.0048C114.25 69.0378 112.409 60.7082 112.001 60.3825C111.592 60.0573 112.128 63.6433 112.663 65.4927C113.198 67.34 115.156 73.3468 115.285 74.2595C115.411 75.1708 114.82 76.3626 114.678 77.3411C114.538 78.3189 114.874 80.4933 114.678 81.3621C114.481 82.2329 110.782 79.8412 111.221 81.3621C111.659 82.8851 114.482 83.7546 114.494 84.5143C114.504 85.2762 113.81 87.8853 113.755 88.9708C113.699 90.0583 114.539 93.2106 114.09 93.1317C113.642 93.0528 108.625 87.4499 108.625 87.4499C108.625 87.4499 110.447 95.1683 111.161 96.1454C111.875 97.1232 114.427 97.667 114.494 98.6448C114.56 99.6233 114.986 103.646 114.259 105.167C113.53 106.691 113.755 110.277 113.755 110.277C113.794 111.723 110.781 114.13 108.971 115.441C112.724 114.4 115.594 111.908 115.594 111.908C115.699 109.732 115.28 92.8238 115.28 92.8238C115.231 84.3902 116.537 69.5143 116.537 69.5143C117.46 63.3024 117.762 55.5744 117.735 51.8007Z" fill="#C8A977"/>
<path d="M97.9465 92.1229C97.2181 91.0368 97.33 85.7108 97.4405 85.3844C97.549 85.058 100.525 79.4064 100.753 77.341C100.981 75.2749 97.8913 81.9051 97.2738 81.4724C96.6578 81.0356 99.7955 68.7524 99.7412 65.1653C99.6865 61.5791 97.4982 76.0354 97.0489 75.1673C96.6011 74.2964 98.1147 56.3609 97.6101 56.5775C97.1061 56.7953 96.4373 70.5202 95.7049 70.7095C95.3383 70.8041 94.9418 69.4772 94.6367 68.1245C94.6983 68.5947 94.7619 69.0583 94.8293 69.5143C94.8293 69.5143 95.7621 75.3771 96.1342 82.3405C96.3175 85.7437 96.1044 90.0541 96.0868 92.8237C96.0868 92.8237 95.6683 109.732 95.7729 111.908C95.7729 111.908 98.7097 114.283 102.422 115.365C99.7867 113.69 98.3386 111.462 98.3386 111.462C98.2266 110.041 97.8331 107.666 97.33 106.472C96.825 105.277 97.1061 102.994 97.1061 102.994C99.0103 101.372 102.416 94.6004 103.145 93.1316C102.305 94.6073 98.6187 97.6676 98.6187 97.6676C98.6187 97.6676 98.6754 93.2098 97.9465 92.1229Z" fill="#C8A977"/>
<path d="M103.146 93.1317C103.173 93.0837 103.198 93.0377 103.219 92.9932C103.334 92.7511 103.297 92.8279 103.146 93.1317Z" fill="#C8A977"/>
<path d="M104.934 49.9298L104.647 110.711L103.782 115.691C104.129 115.756 104.479 115.808 104.831 115.843L105.684 111.689V51.2523L104.934 49.9298Z" fill="#EBEEC9"/>
<path d="M100.754 51.2253C100.754 51.2253 102.864 47.0124 105.683 52.5013C105.683 52.5013 103.242 41.4529 100.754 51.2253Z" fill="#BB9D6C"/>
<path d="M110.614 51.4447C110.614 51.4447 108.503 47.0125 105.683 52.5014C105.683 52.5014 108.125 41.67 110.614 51.4447Z" fill="#BB9D6C"/>
<path d="M102.74 40.0393C102.74 40.0393 103.079 45.4371 105.683 47.7733V52.5013C105.683 52.5013 103.643 47.4911 102.603 47.9248C101.56 48.3606 100.778 51.3606 100.778 51.3606C100.778 51.3606 99.669 45.3579 100.39 43.9693C101.106 42.5926 102.487 39.2895 102.74 40.0393Z" fill="#EBEEC9"/>
<path d="M108.627 40.0393C108.627 40.0393 108.288 45.4371 105.683 47.7733V52.5013C105.683 52.5013 107.723 47.4911 108.765 47.9248C109.806 48.3606 110.589 51.3606 110.589 51.3606C110.589 51.3606 111.697 45.3579 110.977 43.9693C110.262 42.5926 108.879 39.2895 108.627 40.0393Z" fill="#EBEEC9"/>
<path d="M113.736 68.3552H111.401H109.063C109.063 68.3552 109.027 74.9486 109.063 76.1089C109.101 77.2691 111.401 78.3559 111.401 78.3559C111.401 78.3559 113.699 77.2691 113.736 76.1089C113.774 74.9486 113.736 68.3552 113.736 68.3552Z" fill="#EBEEC9"/>
<path opacity="0.4" d="M111.555 68.3551C111.81 69.6404 112.801 74.5687 112.801 74.5687C112.801 74.5687 111.624 77.0688 111.221 77.2313C110.931 77.3479 109.717 76.344 109.057 75.7687C109.059 75.9065 109.061 76.0231 109.063 76.1081C109.101 77.2683 111.401 78.3552 111.401 78.3552C111.401 78.3552 113.699 77.2683 113.736 76.1081C113.773 74.9486 113.736 68.3549 113.736 68.3549H111.555V68.3551Z" fill="#CFD2A9"/>
<path d="M102.453 84.9443C103.143 84.3161 103.594 83.5077 103.622 81.4416L103.502 77.2416C103.499 76.7219 103.555 76.2069 103.666 75.7331L104.075 74.1827L105.109 67.0518C105.137 66.798 105.253 66.6167 105.386 66.6167C105.542 66.6167 105.669 66.8625 105.669 67.1653L105.661 72.6165C105.652 72.6857 105.663 75.8064 105.594 77.0236C105.54 77.9685 105.67 80.5427 105.666 84.4327C105.664 85.9207 105.247 87.2908 104.576 88.0128L103.225 89.1648" fill="#D0846A"/>
<path d="M105.669 69.9819V68.4635C105.669 68.2104 105.563 68.0052 105.433 68.0052C105.315 68.0052 105.215 68.1741 105.199 68.401L104.422 74.557C104.422 74.557 104.379 74.8991 104.235 75.3167C104.211 75.3867 104.115 76.3906 104.115 76.3906" fill="#B4634E"/>
<path d="M104.829 76.4866V76.0134L104.995 75.541L105.273 70.6004C105.283 70.4043 105.369 70.2555 105.47 70.2555C105.58 70.2555 105.67 70.4283 105.67 70.6415V71.9465" fill="#994D3D"/>
<path d="M108.984 84.9977L108.885 84.9435C108.195 84.3154 107.745 83.507 107.716 81.4409L107.836 77.2409C107.84 76.7211 107.784 76.2062 107.673 75.7323L107.264 74.1819L106.229 67.0511C106.201 66.7973 106.086 66.616 105.952 66.616C105.796 66.616 105.669 66.8617 105.669 67.1647L105.678 72.6158C105.687 72.685 105.676 75.8057 105.745 77.0228C105.798 77.9678 105.669 80.5419 105.673 84.432C105.675 85.92 106.092 87.29 106.763 88.0121L108.225 89.2594" fill="#D0846A"/>
<path d="M105.669 69.9819V68.4635C105.669 68.2104 105.775 68.0052 105.906 68.0052C106.023 68.0052 106.124 68.1741 106.14 68.401L106.917 74.557C106.917 74.557 106.96 74.8991 107.103 75.3167C107.127 75.3867 107.223 76.3906 107.223 76.3906" fill="#B4634E"/>
<path d="M106.509 76.4866V76.0134L106.343 75.541L106.066 70.6004C106.055 70.4043 105.97 70.2555 105.868 70.2555C105.758 70.2555 105.669 70.4283 105.669 70.6415V71.9465" fill="#994D3D"/>
<path d="M121.407 83.5728C121.407 83.5728 121.781 80.6002 121.742 79.3694C121.705 78.1378 121.407 77.341 121.407 77.341C121.407 76.6875 120.608 58.5784 120.022 54.0884C119.471 49.8466 117.781 49.5133 117.781 49.5133C117.781 49.5133 114.754 65.094 114.83 67.4122C114.905 69.7317 116.101 77.5584 116.101 77.5584L116.288 81.7975L116.847 85.0944" fill="#DEBC85"/>
<path d="M119.065 83.6797L120.095 79.1883L117.447 83.5919C117.274 83.7551 119.805 72.6651 119.805 72.6651C119.75 72.2317 117.564 80.3842 117.053 80.7606C116.542 81.1371 117.003 78.5362 117.053 78.3551C117.103 78.1741 119.582 66.5781 119.219 65.3826C118.855 64.1877 118.068 53.0037 118.068 53.0037L115.178 70.9535C115.555 73.9865 116.101 77.5583 116.101 77.5583L116.288 81.7974L116.847 85.0943" fill="#AD8A5D"/>
<path d="M116.698 92.3136C116.698 92.3136 117.348 92.7216 117.768 92.4617C117.768 92.4617 122.045 93.2764 122.141 91.6471C122.141 91.6471 122.924 87.3511 122.008 80.3507L121.435 78.6473L120.096 81.7214L119.181 83.795L117.863 84.3881L117.042 84.9436L116.698 92.3136Z" fill="#DEBC85"/>
<path d="M118.928 91.575C118.928 91.575 116.863 92.4157 116.661 92.2697C116.46 92.1222 115.279 91.4159 115.279 91.4159C115.279 91.4159 114.011 92.0153 113.499 91.8082C105.933 88.7499 106.214 87.1631 106.214 87.1631C106.214 87.1631 107.358 86.7641 107.976 83.6372C107.976 83.6372 115.613 82.4962 116.016 82.49C116.418 82.4831 118.286 82.743 118.286 82.743" fill="#DEBC85"/>
<path d="M116.874 83.1243C116.874 83.1243 115.365 83.0125 115.04 83.018C114.715 83.0228 108.542 83.6016 108.542 83.6016C108.499 83.7284 108.462 83.8553 108.431 83.9808L108.437 85.4242L108.927 86.6715L109.409 85.4084L109.404 84.1543C109.404 84.1543 111.705 84.9339 112.052 84.6713C112.399 84.4087 113.649 83.6263 113.859 83.6722C114.068 83.7209 117.004 86.2279 116.899 86.0852C116.794 85.9412 115.218 84.0589 115.112 83.6996C115.006 83.3389 116.191 83.4809 116.436 83.6297C116.68 83.7792 116.929 84.8804 116.929 84.8804L117.336 85.1389" fill="#AD8A5D"/>
<path d="M90.0374 83.5728C90.0374 83.5728 89.6634 80.6002 89.702 79.3694C89.7387 78.1378 90.0374 77.341 90.0374 77.341C90.0374 76.6875 90.8357 58.5784 91.4214 54.0884C91.9734 49.8466 93.663 49.5133 93.663 49.5133C93.663 49.5133 96.6897 65.094 96.6144 67.4122C96.5391 69.7317 95.3433 77.5584 95.3433 77.5584L95.1561 81.7975L94.5968 85.0944" fill="#DEBC85"/>
<path d="M93.8076 92.5645C93.8076 92.5645 95.8189 93.4272 96.0149 93.2825C96.211 93.1371 97.3589 92.4432 97.3589 92.4432C97.3589 92.4432 98.6168 93.2036 99.0915 92.8539C104.973 88.5277 104.892 87.5938 104.892 87.5938C104.892 87.5938 103.895 86.8615 103.286 83.7291C103.286 83.7291 97.0152 83.52 96.6231 83.509C96.2315 83.4987 94.4138 83.7394 94.4138 83.7394" fill="#DEBC85"/>
<path d="M92.3792 83.6797L91.3496 79.1883L93.9979 83.5919C94.1715 83.7551 91.64 72.6651 91.64 72.6651C91.6948 72.2317 93.8806 80.3842 94.3919 80.7606C94.9028 81.1371 94.4423 78.5362 94.3919 78.3551C94.3416 78.1741 91.8634 66.5781 92.2262 65.3826C92.5904 64.1877 93.377 53.0037 93.377 53.0037L96.2673 70.9535C95.8904 73.9865 95.3443 77.5583 95.3443 77.5583L95.1566 81.7974L94.5978 85.0943" fill="#AD8A5D"/>
<path d="M94.5406 83.6284C94.5406 83.6284 96.0532 83.5146 96.3788 83.5166C96.7049 83.518 102.886 83.9836 102.886 83.9836C102.929 84.0974 102.966 84.2113 102.997 84.3237L102.986 85.6211L102.49 86.7456L102.012 85.6149L102.022 84.4876C102.022 84.4876 99.7136 85.2097 99.3664 84.9765C99.0198 84.7434 97.7702 84.0515 97.56 84.094C97.3508 84.1399 94.4008 86.4192 94.5069 86.2896C94.6125 86.1594 96.1965 84.4533 96.304 84.1297C96.4116 83.8046 95.2241 83.9425 94.9787 84.0789C94.7337 84.2154 94.481 85.2069 94.481 85.2069L94.0713 85.4435" fill="#AD8A5D"/>
<path d="M94.7466 92.3136C94.7466 92.3136 94.0969 92.7216 93.677 92.4617C93.677 92.4617 89.3992 93.2764 89.3039 91.6471C89.3039 91.6471 88.5207 87.3511 89.4373 80.3507L90.0103 78.6473L91.3494 81.7214L92.2636 83.795L93.5816 84.3881L94.403 84.9436L94.7466 92.3136Z" fill="#DEBC85"/>
<path d="M111.24 23.5713C111.24 23.5713 112.007 20.6209 112.893 21.4906C113.389 21.9775 112.936 29.7322 111.24 29.3575C111.24 29.3575 110.939 29.1502 110.918 27.9004L111.24 23.5713Z" fill="#D0846A"/>
<path d="M112.655 24.6503C112.635 24.1112 112.609 23.5667 112.543 23.0665C112.527 22.9416 112.503 22.8285 112.475 22.7338C112.44 22.6431 112.421 22.6373 112.401 22.6574C112.359 22.6742 112.353 22.7118 112.338 22.7312C112.323 22.7511 112.296 22.8089 112.275 22.8438C112.233 22.9322 112.188 23.0235 112.149 23.128C111.989 23.5365 111.851 23.9971 111.734 24.4671C111.623 24.9204 111.506 25.4616 111.519 25.864L111.488 25.746C111.596 25.986 111.698 26.216 111.772 26.5271C111.79 26.6069 111.807 26.6889 111.813 26.7974C111.825 26.8911 111.808 27.0602 111.753 27.1567C111.7 27.2447 111.628 27.256 111.605 27.2654L111.55 27.2869C111.541 27.2976 111.533 27.3051 111.522 27.3109C111.429 27.4136 111.396 27.7173 111.41 27.9869C111.428 28.2598 111.49 28.5469 111.625 28.7038C111.47 28.618 111.367 28.3216 111.321 28.0225C111.278 27.7302 111.268 27.3304 111.434 27.0649C111.486 26.9998 111.535 26.9658 111.565 26.9522C111.617 26.926 111.623 26.916 111.63 26.9047C111.626 26.8931 111.634 26.9054 111.625 26.8515C111.62 26.812 111.606 26.7558 111.59 26.702C111.522 26.4847 111.423 26.2556 111.321 26.0631L111.296 26.0136L111.29 25.9451C111.26 25.5898 111.305 25.3122 111.346 25.038C111.39 24.7644 111.444 24.5042 111.509 24.2549C111.638 23.7573 111.784 23.2807 111.977 22.8536C112.023 22.7449 112.076 22.6416 112.133 22.5438C112.167 22.4955 112.188 22.4518 112.233 22.4016C112.277 22.3533 112.328 22.3058 112.356 22.3024C112.476 22.238 112.591 22.4338 112.619 22.5767C112.653 22.7242 112.673 22.8678 112.683 23.0085C112.725 23.5696 112.697 24.1146 112.655 24.6503Z" fill="#975238"/>
<path d="M112.381 25.3557C112.381 25.3557 112.375 24.7684 112.276 24.2493C112.229 23.9904 112.153 23.7678 112.083 23.676C112.014 23.584 111.963 23.5869 111.964 23.5793L112.038 23.1113C112.038 23.1113 112.06 23.1335 112.097 23.1715C112.136 23.2051 112.184 23.2829 112.231 23.3786C112.324 23.5824 112.378 23.8944 112.399 24.19C112.441 24.7884 112.381 25.3557 112.381 25.3557Z" fill="#975238"/>
<path d="M100.205 23.5713C100.205 23.5713 99.4379 20.6209 98.5521 21.4906C98.0554 21.9775 98.5091 29.7322 100.205 29.3575C100.205 29.3575 100.506 29.1502 100.527 27.9004L100.205 23.5713Z" fill="#D0846A"/>
<path d="M98.7882 24.6501C98.7462 24.1144 98.7183 23.5692 98.7594 23.0079C98.7697 22.8671 98.7892 22.7237 98.8239 22.5761C98.8513 22.4333 98.9672 22.2368 99.086 22.3019C99.1153 22.3053 99.1657 22.3548 99.2097 22.4026C99.2537 22.4514 99.2757 22.4953 99.3094 22.5435C99.3661 22.6413 99.4189 22.7453 99.4653 22.8539C99.6585 23.2803 99.8042 23.7577 99.9337 24.2546C99.9987 24.5041 100.053 24.7642 100.097 25.0377C100.138 25.3112 100.183 25.5895 100.153 25.9448L100.147 26.0133L100.121 26.0628C100.021 26.2552 99.9205 26.4846 99.8526 26.7017C99.8359 26.7555 99.8222 26.8117 99.8178 26.8513C99.809 26.905 99.8169 26.8928 99.812 26.9043C99.8203 26.9157 99.8257 26.9257 99.8775 26.9519C99.9083 26.9655 99.9567 26.9994 100.008 27.0646C100.175 27.3308 100.165 27.7299 100.121 28.0221C100.076 28.3219 99.9733 28.619 99.8188 28.7034C99.9533 28.5479 100.016 28.2594 100.033 27.9866C100.047 27.7177 100.014 27.4139 99.9205 27.3106C99.9102 27.3046 99.9014 27.2973 99.8931 27.2866L99.8379 27.265C99.8144 27.2557 99.743 27.2435 99.6902 27.1563C99.6345 27.0597 99.6174 26.8895 99.6296 26.797C99.636 26.6883 99.6531 26.6066 99.6702 26.5268C99.7455 26.2157 99.8472 25.985 99.9557 25.7457L99.9239 25.8637C99.9366 25.4619 99.8203 24.9202 99.7088 24.4668C99.592 23.9975 99.4536 23.5368 99.2933 23.129C99.2537 23.0244 99.2092 22.9332 99.1666 22.8433C99.1466 22.8084 99.1192 22.7506 99.1046 22.7306C99.0884 22.7113 99.0835 22.6737 99.042 22.6575C99.021 22.6368 99.0034 22.6421 98.9686 22.7333C98.9408 22.8277 98.9154 22.941 98.8997 23.0659C98.8337 23.5666 98.8083 24.1112 98.7882 24.6501Z" fill="#975238"/>
<path d="M99.0623 25.3557C99.0623 25.3557 99.0031 24.7883 99.0457 24.1897C99.0667 23.8939 99.1209 23.5828 99.2143 23.3791C99.2612 23.2833 99.3087 23.2055 99.3478 23.1719C99.3854 23.1337 99.4069 23.1117 99.4069 23.1117L99.4812 23.5797C99.4817 23.587 99.4309 23.5844 99.3615 23.6764C99.2916 23.7683 99.2153 23.9908 99.1679 24.2497C99.0681 24.7677 99.0623 25.3557 99.0623 25.3557Z" fill="#975238"/>
<path d="M105.068 40.2587C105.068 40.2587 102.153 36.454 101.256 34.1713C100.437 32.0873 99.8732 22.534 99.7813 20.884C99.7784 20.8295 99.7744 20.7747 99.771 20.7198C99.7686 20.6676 99.7676 20.6393 99.7676 20.6393L99.7686 20.64C99.7529 20.2986 99.7432 19.9549 99.7432 19.606C99.7432 13.2424 102.404 8.08264 105.684 8.08264C108.966 8.08264 111.626 13.2424 111.626 19.606C111.626 20.0198 111.614 20.4273 111.592 20.8304C111.592 20.8304 111.009 31.8891 110.112 34.1715C109.216 36.454 106.301 40.2589 106.301 40.2589C106.301 40.2589 105.825 40.7749 105.068 40.2587Z" fill="#D0846A"/>
<path d="M105.744 32.8859C104.679 32.8531 103.811 32.6735 103.811 32.6735C103.925 33.7115 104.891 34.0735 105.744 34.0775C106.598 34.0735 107.562 33.7115 107.678 32.6735C107.678 32.6733 106.808 32.8531 105.744 32.8859Z" fill="#F0F0ED"/>
<path d="M99.2516 21.5082C99.2516 21.5082 99.8441 22.1171 100.087 24.5015C100.087 24.5015 100.415 23.412 100.527 21.1279C100.639 18.8429 100.835 18.2071 101.268 16.6037C101.268 16.6037 102.321 13.2833 101.86 10.1633C101.566 8.17377 100.014 7.20485 99.4305 9.40154C98.2826 13.7237 99.014 20.7155 99.2516 21.5082Z" fill="#090000"/>
<path d="M107.849 20.922C107.849 20.922 107.471 21.5408 107.142 22.2771C107.057 22.4548 106.989 22.6539 106.914 22.8317C106.845 23.0135 106.794 23.2006 106.743 23.3541C106.697 23.5124 106.677 23.6593 106.654 23.757C106.633 23.8577 106.622 23.9152 106.622 23.9152C106.622 23.9152 106.628 23.855 106.64 23.7504C106.654 23.6477 106.662 23.4888 106.695 23.3139C106.733 23.1444 106.769 22.9337 106.823 22.7259C106.882 22.5241 106.935 22.2922 107.006 22.0857C107.273 21.2355 107.609 20.463 107.609 20.463L107.849 20.922Z" fill="#975238"/>
<path d="M104.763 19.6683C104.763 19.6683 104.665 21.1589 104.378 21.2842C103.576 21.6369 102.143 19.986 100.948 21.7718C100.948 21.7718 101.036 20.2745 101.735 19.8245C102.434 19.3731 104.53 19.9116 104.763 19.6683Z" fill="black"/>
<path d="M106.822 19.7941C106.822 19.7941 106.878 21.276 107.153 21.3759C107.925 21.6535 109.363 19.8746 110.479 21.5522C110.479 21.5522 110.433 20.0635 109.764 19.6766C109.097 19.2893 107.042 20.0175 106.822 19.7941Z" fill="black"/>
<path d="M104.407 24.4693C104.407 24.4693 104.497 24.1602 104.456 23.8478C104.414 23.5367 102.948 21.1589 101.972 24.0576C101.972 24.0576 103.062 27.008 104.407 24.4693Z" fill="#F0F0ED"/>
<path d="M103.982 23.9039C103.982 24.5711 103.703 25.1129 103.359 25.1129C103.015 25.1129 102.735 24.5711 102.735 23.9039C102.735 23.2348 103.015 22.6937 103.359 22.6937C103.703 22.6937 103.982 23.2348 103.982 23.9039Z" fill="#2C1117"/>
<path d="M103.651 23.9039C103.651 24.2171 103.519 24.4713 103.358 24.4713C103.196 24.4713 103.064 24.2171 103.064 23.9039C103.064 23.5881 103.196 23.3333 103.358 23.3333C103.519 23.3333 103.651 23.5881 103.651 23.9039Z" fill="#040000"/>
<path d="M102.433 24.9207L102.144 24.6262C102.048 24.5289 101.95 24.4016 101.849 24.2802L101.766 24.1796L101.831 23.8792V23.8785L101.948 23.568C101.989 23.468 102.021 23.3549 102.074 23.2696L102.222 23C102.27 22.908 102.334 22.8465 102.389 22.7693C102.445 22.6942 102.506 22.63 102.572 22.5862C102.637 22.542 102.697 22.4716 102.767 22.4533C102.902 22.3822 103.039 22.3663 103.175 22.3756C103.309 22.4025 103.44 22.4473 103.565 22.5271C103.688 22.6089 103.808 22.7075 103.919 22.8336C104.029 22.9584 104.132 23.1031 104.23 23.2593C104.277 23.3438 104.326 23.4189 104.367 23.5149C104.41 23.6116 104.453 23.6887 104.481 23.8346L104.482 23.838V23.842C104.482 24.0291 104.449 24.2 104.431 24.3709C104.432 24.1927 104.447 24.0189 104.43 23.854L104.43 23.8607C104.406 23.7902 104.354 23.7058 104.308 23.6413C104.261 23.5702 104.209 23.5093 104.16 23.4456C104.057 23.3276 103.951 23.2231 103.841 23.1407C103.731 23.0589 103.62 22.9905 103.508 22.9469C103.395 22.9027 103.283 22.8931 103.172 22.896C103.062 22.9202 102.955 22.9518 102.854 23.0213C102.801 23.0396 102.757 23.1078 102.708 23.1474C102.658 23.1869 102.613 23.2447 102.571 23.3125C102.529 23.378 102.48 23.4225 102.442 23.5016L102.325 23.7289C102.248 23.8791 102.185 24.0682 102.113 24.2358L102.095 23.8349C102.145 24.0071 102.189 24.1916 102.251 24.3746L102.433 24.9207Z" fill="#030000"/>
<path d="M103.239 23.4902C103.239 23.6491 103.171 23.7793 103.09 23.7793C103.007 23.7793 102.94 23.6493 102.94 23.4902C102.94 23.3307 103.007 23.202 103.09 23.202C103.171 23.202 103.239 23.3307 103.239 23.4902Z" fill="#F0F0ED"/>
<path d="M107.183 24.4693C107.183 24.4693 107.094 24.1602 107.135 23.8478C107.178 23.5367 108.641 21.1589 109.618 24.0576C109.618 24.0576 108.529 27.008 107.183 24.4693Z" fill="#F0F0ED"/>
<path d="M107.608 23.9039C107.608 24.571 107.888 25.1128 108.233 25.1128C108.578 25.1128 108.858 24.571 108.858 23.9039C108.858 23.2348 108.578 22.6937 108.233 22.6937C107.888 22.6937 107.608 23.2348 107.608 23.9039Z" fill="#2C1117"/>
<path d="M107.939 23.9039C107.939 24.2171 108.071 24.4713 108.233 24.4713C108.396 24.4713 108.526 24.2171 108.526 23.9039C108.526 23.5881 108.396 23.3333 108.233 23.3333C108.071 23.3333 107.939 23.5881 107.939 23.9039Z" fill="#040000"/>
<path d="M109.157 24.9211L109.34 24.3751C109.401 24.192 109.446 24.0078 109.496 23.8353L109.478 24.2362C109.405 24.0687 109.342 23.8796 109.264 23.7293L109.148 23.502C109.11 23.4229 109.061 23.3786 109.018 23.3129C108.977 23.2451 108.932 23.1875 108.883 23.1478C108.834 23.1082 108.79 23.04 108.737 23.0218C108.635 22.952 108.529 22.9204 108.419 22.8964C108.308 22.8938 108.196 22.9031 108.083 22.9473C107.97 22.9909 107.86 23.06 107.749 23.1411C107.64 23.2235 107.533 23.3282 107.431 23.4476C107.382 23.5106 107.33 23.5715 107.283 23.642C107.237 23.7071 107.185 23.7909 107.16 23.8613L107.161 23.8547C107.143 24.0196 107.159 24.1933 107.16 24.3716C107.142 24.2007 107.107 24.0296 107.108 23.8427V23.8387L107.109 23.8353C107.138 23.6897 107.181 23.612 107.224 23.516C107.265 23.4193 107.314 23.3444 107.361 23.2607C107.458 23.1044 107.562 22.9595 107.672 22.8342C107.783 22.7082 107.901 22.6095 108.026 22.5278C108.15 22.448 108.281 22.4031 108.416 22.3762C108.552 22.3669 108.688 22.3829 108.823 22.454C108.893 22.4722 108.953 22.5425 109.018 22.5869C109.085 22.6305 109.144 22.6949 109.201 22.77C109.257 22.8471 109.32 22.9102 109.368 23.0007L109.515 23.2702C109.568 23.3553 109.601 23.4687 109.641 23.5686L109.758 23.8791V23.8798L109.824 24.1802L109.741 24.2809C109.639 24.4022 109.542 24.5297 109.446 24.6269L109.157 24.9211Z" fill="#030000"/>
<path d="M108.354 23.4902C108.354 23.6491 108.42 23.7793 108.502 23.7793C108.584 23.7793 108.651 23.6493 108.651 23.4902C108.651 23.3307 108.584 23.202 108.502 23.202C108.42 23.202 108.354 23.3307 108.354 23.4902Z" fill="#F0F0ED"/>
<path d="M106.282 25.9343C106.282 25.9343 106.202 28.0868 106.248 29.5452C106.272 30.3365 106.065 30.7946 105.869 30.8763C105.869 30.8763 106.69 31.1277 106.816 29.6277C106.898 28.6179 106.408 27.5108 106.282 25.9343Z" fill="#A5644F"/>
<path d="M105.441 30.7232C105.441 30.7232 104.654 30.1895 104.783 30.6635C104.913 31.1391 105.441 30.7232 105.441 30.7232Z" fill="#975238"/>
<path d="M101.619 11.6854C101.619 11.6854 103.129 15.836 105.174 16.7052C105.174 16.7052 104.079 15.4016 103.603 14.6143C103.603 14.6143 105.701 16.8285 108.029 17.2287C108.029 17.2287 106.548 16.2505 106 14.8739C106 14.8739 107.442 16.882 110.104 17.2287C110.104 17.2287 109.094 16.5972 108.716 15.836C108.716 15.836 110.08 16.5501 110.525 17.2287C110.97 17.9074 111.358 23.3448 111.358 23.3448C111.358 23.3448 111.625 22.447 112.014 21.72C112.014 21.72 112.658 14.9014 112.387 13.0445C112.103 11.1107 110.759 2.71672 103.87 3.42361C103.87 3.42361 99.9552 3.96805 100.304 8.7496L101.619 11.6854Z" fill="#090000"/>
<path d="M101.113 8.08242C100.462 6.48863 101.641 4.86907 102.701 3.82263C101.578 4.3873 100.081 5.71419 100.303 8.74976L101.618 11.6853C101.618 11.6853 103.128 15.836 105.173 16.7051C105.173 16.7051 104.079 15.4015 103.602 14.6142C103.602 14.6142 105.7 16.8284 108.028 17.2286C108.028 17.2286 106.547 16.2504 105.999 14.8737C105.999 14.8737 107.441 16.882 110.104 17.2286C110.104 17.2286 109.094 16.5971 108.715 15.836C108.715 15.836 110.079 16.55 110.525 17.2286C110.969 17.9073 111.357 23.3446 111.357 23.3446C111.357 23.3446 111.624 22.4468 112.013 21.72C112.013 21.72 112.658 14.9013 112.386 13.0444C112.374 12.9593 112.359 12.8622 112.342 12.7549C111.187 17.5271 102.118 10.5433 101.113 8.08242Z" fill="black"/>
<path d="M99.9364 15.2178C99.2925 13.2062 99.2089 9.34979 100.385 8.15356C100.009 8.1958 99.6514 8.57336 99.4304 9.40156C98.2825 13.724 99.0143 20.7158 99.2514 21.5083C99.2514 21.5083 99.844 22.1171 100.087 24.5016C100.087 24.5016 100.415 23.412 100.527 21.128C100.568 20.2785 100.621 19.6576 100.694 19.1305C100.558 18.0011 100.313 16.3954 99.9364 15.2178Z" fill="black"/>
<path d="M112.342 12.7542C111.974 10.3937 110.456 2.7484 103.869 3.42351C103.869 3.42351 103.377 3.49262 102.758 3.79373C102.516 4.17062 102.421 4.63928 102.62 5.21795C103.356 7.33749 110.146 3.87684 112.342 12.7542Z" fill="#2B101A"/>
<path d="M108.344 32.2114C107.799 31.3967 105.834 31.1511 105.834 31.1511C105.834 31.1511 103.867 31.3967 103.322 32.2114C102.778 33.0274 102.932 34.0773 102.932 34.0773C102.932 34.0773 103.213 32.8449 103.606 32.9984C103.827 33.0863 105.834 33.3794 105.834 32.1831C105.834 33.3794 107.836 32.9798 108.061 32.9984C108.369 33.0274 108.733 33.9331 108.733 33.9331C108.733 33.9331 108.888 33.0276 108.344 32.2114Z" fill="black"/>
<path d="M102.573 137.181C102.573 137.181 114.595 164.074 115.492 165.491C115.492 165.491 108.064 144.684 102.573 137.181Z" fill="#E9CD96"/>
<path d="M101.619 119.787C101.553 119.69 111.988 145.007 114.287 149.193C114.287 149.193 105.318 125.114 101.619 119.787Z" fill="#E9CD96"/>
<path d="M101.394 145.659C101.394 145.659 107.475 171.801 107.755 172.454C107.755 172.454 105.486 154.953 101.394 145.659Z" fill="#E9CD96"/>
<path d="M105.529 201.73C107.023 192.538 108.682 177.793 108.624 176.753C108.624 176.753 100.428 185.243 99.8889 186.404L96.1445 201.731H105.529V201.73Z" fill="#E9CD96"/>
<path d="M94.4766 195.428C94.4766 195.428 107.178 204.776 117.545 195.27L117.962 206.387C117.962 206.387 108.711 216.912 94.0527 206.383L94.4766 195.428Z" fill="#E2BE81"/>
<path d="M94.0547 206.385C97.4691 208.835 100.588 210.145 103.361 210.711L103.931 200.603C100.166 200.271 95.7506 197.355 94.4394 196.435L94.0547 206.385Z" fill="#C59F6B"/>
<path d="M117.969 206.056C117.073 206.451 116.569 205.083 116.068 204.262C115.524 203.372 107.614 206.735 106.82 206.436C106.024 206.139 105.815 203.173 105.187 203.248C104.691 203.304 104.483 208.644 104.417 210.893C112.945 212.112 117.982 206.388 117.982 206.388L117.969 206.056Z" fill="#E9CD96"/>
<path d="M117.583 195.727C115.302 198.236 111.242 201.326 105.502 200.506C105.502 200.506 105.377 202.565 106.821 203.169C108.264 203.77 114.98 201.543 115.859 202.434C116.374 202.953 117.139 203.748 117.895 204.025L117.583 195.727Z" fill="#C59F6B"/>
</svg>
