<svg width="220" height="240" viewBox="0 0 220 240" fill="none" xmlns="http://www.w3.org/2000/svg">
<path d="M104.892 39.7491C105.437 39.7811 106.079 39.0411 106.55 39.4171C107.021 39.7927 108.082 41.916 107.456 42.6285C106.83 43.3411 106.711 42.296 105.133 43.0429C103.555 43.7898 103.278 42.9562 103.514 41.9558C103.751 40.9553 104.21 39.7096 104.892 39.7491Z" fill="#991E23"/>
<path d="M119.128 221.301C119.128 221.301 119.259 222.06 119.128 222.608C118.905 223.547 117.343 229.998 115.382 228.52C113.423 227.042 112.821 224.445 111.138 221.216C109.452 217.988 107.392 217.245 107.955 214.545L119.128 221.301Z" fill="#6A3514"/>
<path d="M118.061 219.357C118.061 219.357 119.019 220.284 119.128 221.301C119.237 222.313 117.344 228.689 115.383 227.209C113.424 225.732 112.822 223.136 111.138 219.904C109.453 216.677 106.957 215.665 108.372 213.585L118.061 219.357Z" fill="#E2BE81"/>
<path d="M108.623 207.894C108.623 207.894 108.517 210.265 108.111 212.067C107.706 213.867 107.939 215.67 109.622 216.798C109.622 216.798 111.072 217.584 111.652 219.046C112.234 220.512 113.106 224.229 114.323 224.229C114.323 224.229 115.484 226.591 116.066 226.253C116.066 226.253 116.792 226 116.792 224.789C116.792 224.789 117.459 224.482 117.344 223.692L117.242 223.384C117.242 223.384 118.069 223.467 117.924 222.285L117.866 222.068C117.866 222.068 118.562 221.946 118.46 221.046L118.395 220.758C118.395 220.758 119.075 220.843 118.944 219.549C118.944 219.549 118.835 219.392 118.602 219.082C118.602 219.082 118.198 218.453 117.85 217.837C117.502 217.225 116.658 215.853 116.124 214.902C115.59 213.949 113.39 209.435 112.944 208.124C112.498 206.816 112.628 201.854 112.628 201.854L108.439 200.882C108.439 200.883 108.779 205.751 108.623 207.894Z" fill="#D0846A"/>
<path d="M116.199 215.037C116.174 214.992 116.147 214.943 116.124 214.902C115.972 214.631 115.686 214.075 115.344 213.383C114.209 212.8 112.754 212.324 112.754 212.324L108.194 211.668C108.168 211.802 108.141 211.935 108.111 212.067C107.706 213.867 107.939 215.669 109.622 216.797C109.622 216.797 111.072 217.584 111.652 219.045C112.234 220.512 113.106 224.229 114.323 224.229C114.323 224.229 115.484 226.591 116.066 226.253C116.066 226.253 116.44 226.121 116.651 225.596C116.322 225.758 115.689 225.961 115.447 225.272C115.113 224.322 114.733 223.327 114.57 223.384C114.406 223.442 112.737 222.329 112.754 220.759C112.773 219.187 114.129 215.954 116.199 215.037Z" fill="#AA6650"/>
<path d="M117.299 221.344C117.19 221.693 117.866 222.069 117.866 222.069C117.866 222.069 118.021 222.042 118.174 221.919C117.962 221.909 117.846 221.386 117.743 221.174C117.59 220.855 117.408 220.997 117.299 221.344Z" fill="#AA6650"/>
<path d="M117.989 219.904C117.863 220.187 118.244 220.574 118.395 220.758C118.395 220.758 118.615 220.784 118.78 220.57C118.596 220.459 118.432 219.926 118.361 219.765C118.252 219.519 118.116 219.625 117.989 219.904Z" fill="#AA6650"/>
<path d="M117.24 223.384C117.24 223.384 117.467 223.406 117.663 223.257C117.438 223.111 117.198 222.445 117.064 222.193C116.863 221.824 116.735 222 116.735 222.367C116.735 222.736 117.144 223.319 117.24 223.384Z" fill="#AA6650"/>
<path d="M115.993 221.965C115.839 221.857 115.495 222.156 115.449 222.368C115.403 222.582 116.013 223.864 116.266 223.915C116.521 223.971 116.792 224.789 116.792 224.789C116.792 224.789 117.052 224.668 117.219 224.386C116.624 224.89 116.147 222.069 115.993 221.965Z" fill="#AA6650"/>
<path d="M116.036 223.525C116.036 223.525 112.784 214.12 111.885 211.926L112.116 211.024C112.116 211.024 116.675 222.959 116.036 223.525Z" fill="#7D3E2C"/>
<path d="M108.553 202.81C108.635 204.412 108.715 206.628 108.623 207.894C108.623 207.894 108.517 210.265 108.111 212.067C107.706 213.867 107.939 215.67 109.622 216.797C109.622 216.797 110.862 217.427 111.442 218.892C111.486 219.007 111.839 219.813 111.886 219.948C112.31 220.972 112.439 221.344 112.439 221.344C113.019 214.832 116.266 215.152 116.266 215.152C116.217 215.068 116.169 214.982 116.124 214.903C115.59 213.95 113.39 209.436 112.945 208.125C112.671 207.326 112.615 205.155 112.612 203.593C112.612 203.593 110.908 204.504 108.553 202.81Z" fill="#7D3E2C"/>
<path d="M115.728 214.15C115.074 212.866 113.955 210.542 113.327 209.08L108.62 207.964C108.6 208.357 108.479 210.443 108.111 212.067C108.013 212.507 107.953 212.947 107.941 213.376C110.122 216.043 114.32 214.703 115.728 214.15Z" fill="#662B1D"/>
<path d="M93.1661 221.42C93.1661 221.42 93.0341 222.179 93.1661 222.728C93.3895 223.666 94.9505 230.117 96.91 228.64C98.8714 227.161 99.4728 224.564 101.156 221.335C102.841 218.107 104.902 217.363 104.34 214.664L93.1661 221.42Z" fill="#6A3514"/>
<path d="M94.2325 219.477C94.2325 219.477 93.2747 220.404 93.1657 221.42C93.0557 222.432 94.9501 228.808 96.9096 227.328C98.871 225.852 99.4724 223.255 101.156 220.023C102.841 216.797 105.336 215.784 103.922 213.703L94.2325 219.477Z" fill="#E2BE81"/>
<path d="M103.672 208.013C103.672 208.013 103.778 210.383 104.184 212.185C104.589 213.986 104.358 215.789 102.674 216.916C102.674 216.916 101.222 217.703 100.642 219.165C100.062 220.631 99.1897 224.348 97.9718 224.348C97.9718 224.348 96.8098 226.71 96.2294 226.372C96.2294 226.372 95.5044 226.118 95.5044 224.907C95.5044 224.907 94.8351 224.601 94.952 223.811L95.0537 223.503C95.0537 223.503 94.227 223.585 94.3712 222.403L94.4303 222.187C94.4303 222.187 93.7327 222.064 93.8354 221.164L93.8999 220.877C93.8999 220.877 93.2203 220.962 93.3519 219.668C93.3519 219.668 93.4604 219.511 93.6931 219.201C93.6931 219.201 94.0959 218.571 94.444 217.956C94.7921 217.344 95.6374 215.971 96.1713 215.021C96.7047 214.068 98.9032 209.554 99.351 208.243C99.7964 206.935 99.6654 201.973 99.6654 201.973L103.858 201.001C103.858 201.001 103.516 205.871 103.672 208.013Z" fill="#D0846A"/>
<path d="M96.0948 215.155C96.1202 215.111 96.1471 215.062 96.1696 215.022C96.3212 214.75 96.6072 214.194 96.9509 213.501C98.0846 212.919 99.5376 212.443 99.5376 212.443L104.099 211.787C104.126 211.921 104.153 212.054 104.183 212.185C104.588 213.986 104.356 215.789 102.673 216.916C102.673 216.916 101.221 217.703 100.64 219.165C100.061 220.631 99.188 224.348 97.9702 224.348C97.9702 224.348 96.8081 226.709 96.2283 226.372C96.2283 226.372 95.8533 226.24 95.6426 225.715C95.9711 225.877 96.6052 226.079 96.8472 225.391C97.1796 224.44 97.561 223.445 97.7253 223.503C97.8881 223.561 99.5561 222.448 99.5376 220.877C99.52 219.307 98.1657 216.073 96.0948 215.155Z" fill="#AA6650"/>
<path d="M94.9967 221.462C95.1038 221.812 94.4306 222.187 94.4306 222.187C94.4306 222.187 94.2736 222.161 94.1211 222.038C94.3323 222.027 94.4482 221.504 94.5508 221.293C94.7048 220.975 94.8877 221.116 94.9967 221.462Z" fill="#AA6650"/>
<path d="M94.3042 220.023C94.4313 220.306 94.0505 220.694 93.8979 220.878C93.8979 220.878 93.6789 220.904 93.5146 220.689C93.698 220.578 93.8613 220.046 93.9321 219.885C94.0412 219.638 94.1781 219.744 94.3042 220.023Z" fill="#AA6650"/>
<path d="M95.0513 223.503C95.0513 223.503 94.8259 223.525 94.6299 223.377C94.8538 223.231 95.0929 222.564 95.2288 222.313C95.4297 221.944 95.5558 222.119 95.5558 222.487C95.5553 222.856 95.1486 223.437 95.0513 223.503Z" fill="#AA6650"/>
<path d="M96.3008 222.084C96.4548 221.977 96.8 222.275 96.8455 222.487C96.8914 222.701 96.2828 223.982 96.0295 224.034C95.7738 224.089 95.504 224.908 95.504 224.908C95.504 224.908 95.2414 224.787 95.0752 224.505C95.6712 225.01 96.1483 222.187 96.3008 222.084Z" fill="#AA6650"/>
<path d="M96.2576 223.644C96.2576 223.644 99.5092 214.24 100.408 212.045L100.177 211.143C100.177 211.143 95.6191 223.078 96.2576 223.644Z" fill="#7D3E2C"/>
<path d="M103.742 202.929C103.66 204.531 103.579 206.746 103.671 208.013C103.671 208.013 103.778 210.383 104.183 212.185C104.589 213.986 104.357 215.789 102.673 216.917C102.673 216.917 101.432 217.546 100.851 219.011C100.807 219.126 100.457 219.931 100.408 220.067C99.9854 221.091 99.8573 221.462 99.8573 221.462C99.2765 214.951 96.0293 215.272 96.0293 215.272C96.0762 215.187 96.1256 215.1 96.1701 215.022C96.704 214.068 98.9025 209.554 99.3498 208.244C99.6231 207.445 99.6789 205.274 99.6823 203.713C99.6823 203.713 101.386 204.623 103.742 202.929Z" fill="#7D3E2C"/>
<path d="M96.5654 214.269C97.2205 212.985 98.3391 210.66 98.9669 209.198L103.675 208.083C103.694 208.476 103.816 210.562 104.183 212.185C104.282 212.626 104.343 213.066 104.353 213.495C102.173 216.161 97.9744 214.822 96.5654 214.269Z" fill="#662B1D"/>
<path d="M94.2686 208.973H117.708C117.442 200.603 117.037 185.879 117.073 181.761C117.124 176.11 117.513 165.238 116.413 157.846C116.168 156.202 116.413 143.934 116.413 143.934C116.253 128.281 114.804 116.432 114.804 116.432L96.2114 117.411C94.8303 126.651 95.5998 148.655 95.5998 148.655L95.2571 154.308C94.8146 165.672 94.535 201.273 94.2686 208.973Z" fill="#E2BE81"/>
<path d="M113.883 190.165C114.275 192.732 115.889 202.532 116.952 208.973H117.708C117.442 200.603 117.037 185.879 117.074 181.761C117.125 176.11 117.513 165.238 116.414 157.846C116.169 156.202 116.414 143.934 116.414 143.934C116.357 138.431 116.142 133.399 115.886 129.187C115.749 140.417 115.239 160.166 115.239 160.166C115.239 160.166 116.798 169.877 116.414 172.051C116.029 174.225 113.285 186.253 113.883 190.165Z" fill="#C59F6B"/>
<path d="M111.721 208.973L110.969 192.196C110.969 192.196 108.876 196.255 108.353 197.848C108.107 198.599 107.265 203.681 106.357 208.973H111.721V208.973Z" fill="#C59F6B"/>
<path d="M113.141 169.296C111.802 166.832 102.225 145.382 101.925 143.787C101.627 142.194 99.5338 125.766 99.5338 125.766C99.7577 127.168 104.316 140.744 105.066 142.919C105.816 145.093 111.362 151.615 111.362 151.615C109.888 148.861 100.506 125.805 100.506 125.805C106.654 127.469 112.748 122.88 115.239 120.669C114.992 117.97 114.803 116.432 114.803 116.432L96.2113 117.411C94.8297 126.65 95.5993 148.655 95.5993 148.655L95.257 154.308C95.0395 159.897 94.861 172.086 94.7031 183.996C95.2732 176.118 96.0471 166.16 96.2113 163.208C96.4734 158.427 96.6944 146.543 96.6963 144.425C96.6978 142.308 97.6658 125.805 97.6658 125.805C97.6658 125.805 97.6717 126.016 97.6819 126.394C97.7733 129.759 98.2564 146.516 98.8528 148.862C99.2371 150.369 101.128 156.279 102.656 161C99.4018 148.076 98.8528 129.149 98.8528 129.149C98.8528 129.149 99.8335 144.804 100.955 146.976C102.076 149.15 113.141 169.296 113.141 169.296Z" fill="#C59F6B"/>
<path d="M94.0117 126.909L93.3546 127.939C93.3546 127.939 93.4534 131.512 93.4431 131.912C93.4431 131.912 94.3236 133.629 94.0117 134.233C94.0117 134.233 93.0809 133.548 92.8462 132.902C92.6091 132.254 92.8941 127.346 92.8941 127.346L93.9432 125.805L94.0117 126.909Z" fill="#994D3D"/>
<path d="M93.5206 135.321C93.5206 135.321 93.6809 135.386 93.7039 134.764C93.7366 133.852 93.3206 132.671 93.2174 132.407C93.2174 132.407 93.2536 128.209 93.2658 128.032C93.2766 127.853 93.5435 127.302 93.9723 126.47C94.335 125.77 93.9557 125.767 93.9557 125.767L92.8107 126.479C92.8107 126.479 92.3057 129.143 92.3057 129.211C92.3057 129.278 92.5408 133.471 92.5408 133.471L93.5206 135.321Z" fill="#B4634E"/>
<path d="M93.8423 120.124C93.8423 120.124 94.1405 122.79 94.4603 124.078C94.4603 124.078 94.7125 125.013 94.736 126.035C94.759 127.056 94.6431 128.788 94.5981 129.767C94.5981 129.767 94.5096 130.877 94.2906 130.699C94.0711 130.522 94.0247 129.899 94.1625 128.432C94.1625 128.432 93.9802 126.832 93.8423 126.433C93.8423 126.433 93.0415 127.411 92.8572 128.966C92.8572 128.966 92.8117 132.566 92.8572 133.188C92.8572 133.188 93.5705 135.732 92.9921 136.323C92.9921 136.323 92.4602 134.852 92.2275 133.897C92.0354 133.109 91.5054 128.255 91.437 126.922C91.3675 125.59 91.8951 120.924 91.8496 119.946C91.8031 118.968 93.8423 120.124 93.8423 120.124Z" fill="#D0846A"/>
<path d="M93.7443 56.756C93.7443 56.756 92.0542 57.0893 91.5003 61.3311C90.9146 65.8211 90.1177 83.9307 90.1177 84.5835C90.1177 84.5835 89.82 85.3803 89.7818 86.6118C89.7447 87.8434 90.1177 90.816 90.1177 90.816C90.1177 90.816 89.7026 96.0329 89.7789 96.541C89.8571 97.047 90.2311 100.018 90.2311 100.018C90.2311 100.018 89.9695 103.207 90.0434 104.512C90.1177 105.815 91.0534 118.932 91.0534 118.932C91.0534 118.932 92.6961 119.946 94.3031 118.351C94.3031 118.351 94.8257 99.0774 94.8257 98.0619C94.8257 97.047 94.6776 92.3376 94.6776 92.3376L95.2373 89.04L95.4246 84.8009C95.4246 84.8009 96.6204 76.9741 96.6947 74.655C96.77 72.3366 93.7443 56.756 93.7443 56.756Z" fill="#DEBC85"/>
<path d="M96.2093 79.2198L94.5999 75.3668C94.5999 75.3668 93.8177 82.1911 93.8177 83.2052C93.8177 84.2215 94.595 87.9161 94.5999 88.4242C94.6024 88.9316 93.8177 90.1296 93.8177 90.1296C93.8177 90.1296 91.5385 85.5984 91.3889 85.0902C91.2398 84.5835 91.8 88.5696 91.8 88.5696C91.8 88.5696 94.154 92.496 94.2665 93.2139C94.3775 93.9319 93.7429 98.4233 93.5943 98.714C93.4442 99.0048 91.6001 93.0617 91.3639 92.6996C91.1273 92.3376 93.8925 103.208 93.9663 103.57C94.0416 103.932 94.2665 105.164 93.78 105.598C93.2946 106.034 91.3493 100.889 91.3493 100.889C91.3493 100.889 91.4642 103.571 91.7243 104.078C91.9863 104.584 93.6676 106.831 93.8558 107.338C94.0416 107.845 93.8925 114.947 93.5943 115.6C93.3669 116.092 92.6502 116.973 92.6502 116.973C92.6502 116.973 91.0535 116.243 90.8281 115.776C90.9249 117.132 91.0002 118.205 91.0335 118.674L94.0773 118.064L94.3227 117.653C94.4171 114.189 94.8258 98.9616 94.8258 98.0619C94.8258 97.0477 94.6776 92.3376 94.6776 92.3376L95.2374 89.0406L95.4252 84.8016C95.4252 84.8016 95.8515 82.0073 96.2118 79.261L96.2093 79.2198Z" fill="#AD8A5D"/>
<path d="M90.9283 117.191L90.8271 117.808L90.9464 120.636C90.9464 120.636 92.7147 121.649 94.4718 120.202V116.904L94.3408 116.432C94.3403 116.432 93.4447 117.012 90.9283 117.191Z" fill="#E9CD96"/>
<path d="M117.14 126.909L117.797 127.939C117.797 127.939 117.699 131.512 117.709 131.912C117.709 131.912 116.828 133.629 117.14 134.233C117.14 134.233 118.07 133.548 118.306 132.902C118.541 132.254 118.259 127.346 118.259 127.346L117.209 125.805L117.14 126.909Z" fill="#994D3D"/>
<path d="M117.631 135.321C117.631 135.321 117.47 135.386 117.448 134.763C117.414 133.851 117.83 132.671 117.934 132.407C117.934 132.407 117.895 128.209 117.885 128.032C117.873 127.853 117.607 127.302 117.179 126.47C116.815 125.77 117.195 125.767 117.195 125.767L118.341 126.479C118.341 126.479 118.845 129.143 118.845 129.211C118.845 129.278 118.612 133.471 118.612 133.471L117.631 135.321Z" fill="#B4634E"/>
<path d="M117.31 120.124C117.31 120.124 117.011 122.79 116.691 124.078C116.691 124.078 116.439 125.013 116.416 126.035C116.394 127.056 116.507 128.788 116.553 129.767C116.553 129.767 116.642 130.877 116.861 130.699C117.08 130.522 117.126 129.899 116.989 128.432C116.989 128.432 117.172 126.832 117.31 126.433C117.31 126.433 118.112 127.411 118.294 128.966C118.294 128.966 118.341 132.566 118.294 133.188C118.294 133.188 117.58 135.732 118.16 136.323C118.16 136.323 118.692 134.852 118.924 133.897C119.117 133.109 119.646 128.255 119.715 126.922C119.783 125.59 119.257 120.924 119.303 119.946C119.349 118.968 117.31 120.124 117.31 120.124Z" fill="#D0846A"/>
<path d="M117.407 56.756C117.407 56.756 119.096 57.0893 119.648 61.3311C120.234 65.8211 121.033 83.9307 121.033 84.5835C121.033 84.5835 121.331 85.3803 121.368 86.6118C121.407 87.8434 121.033 90.816 121.033 90.816C121.033 90.816 121.449 96.0329 121.371 96.541C121.294 97.047 120.92 100.018 120.92 100.018C120.92 100.018 121.181 103.207 121.107 104.512C121.033 105.815 120.098 118.932 120.098 118.932C120.098 118.932 118.454 119.946 116.848 118.351C116.848 118.351 116.324 99.0774 116.324 98.0619C116.324 97.047 116.473 92.3376 116.473 92.3376L115.914 89.04L115.727 84.8009C115.727 84.8009 114.531 76.9741 114.455 74.655C114.381 72.3366 117.407 56.756 117.407 56.756Z" fill="#DEBC85"/>
<path d="M120.222 117.191L118.845 115.671H117.469C117.469 115.671 118.366 108.498 118.084 107.41C117.802 106.324 116.967 102.411 117.02 101.757C117.078 101.106 119.88 91.975 119.721 92.3007C119.562 92.6271 117.469 97.5183 117.073 97.844C116.676 98.1711 116.853 94.4751 117.02 93.7133C117.189 92.9535 118.4 92.1917 118.4 92.1917L119.721 86.431L117.073 90.8346C116.9 90.9978 119.431 79.9078 119.431 79.9078C119.376 79.4737 117.19 87.6262 116.679 88.0033C116.168 88.3791 116.629 85.7782 116.679 85.5978C116.729 85.4161 119.208 73.8207 118.845 72.6248C118.481 71.4303 117.694 60.2461 117.694 60.2461L114.804 78.1956C115.181 81.2285 115.727 84.801 115.727 84.801L115.914 89.0401L116.473 92.337C116.473 92.337 116.324 97.0465 116.324 98.0614C116.324 99.0769 116.847 118.352 116.847 118.352C116.985 118.489 117.124 118.605 117.261 118.705H118.845L120.222 117.191Z" fill="#AD8A5D"/>
<path d="M120.222 117.191L120.323 117.808L120.205 120.636C120.205 120.636 118.436 121.649 116.68 120.202V116.904L116.81 116.432C116.81 116.432 117.707 117.012 120.222 117.191Z" fill="#E9CD96"/>
<path d="M108.092 40.2325H105.644H103.199C103.319 50.7768 100.352 52.9514 100.352 52.9514C102.235 58.2768 105.644 57.951 105.644 57.951C105.644 57.951 109.056 58.2768 110.939 52.9514C110.939 52.9514 107.97 50.777 108.092 40.2325Z" fill="#BB715A"/>
<path d="M109.101 49.4671C108.624 47.8734 108.214 45.6 108.114 42.4078H105.609H103.176C103.114 44.3256 102.945 45.9153 102.713 47.2215C103.86 48.33 106.314 50.2209 109.101 49.4671Z" fill="#A35D4B"/>
<path d="M117.547 56.7561C117.231 56.538 109.998 51.6934 109.998 51.6934L105.644 55.0158L101.292 51.6934C101.292 51.6934 94.0567 56.538 93.7438 56.7561C93.428 56.9734 93.5321 68.278 94.7915 76.7568C94.7915 76.7568 95.7243 82.6197 96.0963 89.5831C96.2792 92.9863 96.0665 97.2967 96.0489 100.066C96.0489 100.066 95.6304 116.975 95.735 119.15C95.735 119.15 100.025 122.625 104.792 123.084L105.644 118.932L106.503 123.112C111.37 122.785 115.554 119.15 115.554 119.15C115.659 116.975 115.24 100.066 115.24 100.066C115.192 91.6327 116.497 76.7568 116.497 76.7568C117.756 68.278 117.861 56.9734 117.547 56.7561Z" fill="#E9CD96"/>
<path d="M107.284 123.029C105.785 114.191 107.085 55.704 107.085 55.704L105.402 56.756L105.066 118.28L105.37 120.273L105.644 118.932L106.504 123.112C106.766 123.094 107.026 123.064 107.284 123.029Z" fill="#C8A977"/>
<path opacity="0.8" d="M117.696 59.0432C117.696 59.0406 117.694 59.0393 117.694 59.0379C117.359 58.1674 116.518 68.0608 115.789 68.1695C115.06 68.2782 113.378 57.951 113.044 60.6681C112.709 63.3865 114.947 76.2116 114.579 76.2473C114.211 76.2802 112.369 67.9508 111.962 67.625C111.553 67.2999 112.089 70.8857 112.624 72.735C113.159 74.5823 115.117 80.5892 115.246 81.5019C115.372 82.4132 114.781 83.605 114.639 84.5835C114.499 85.5613 114.835 87.7357 114.639 88.6045C114.442 89.4754 110.743 87.0836 111.183 88.6045C111.619 90.1275 114.443 90.997 114.455 91.7567C114.465 92.5193 113.771 95.1284 113.716 96.2139C113.66 97.3007 114.5 100.453 114.051 100.374C113.603 100.295 108.586 94.6923 108.586 94.6923C108.586 94.6923 110.408 102.411 111.122 103.388C111.836 104.366 114.388 104.91 114.455 105.887C114.521 106.866 114.947 110.889 114.22 112.41C113.49 113.933 113.716 117.519 113.716 117.519C113.754 118.965 110.741 121.372 108.932 122.684C112.685 121.642 115.555 119.15 115.555 119.15C115.66 116.975 115.241 100.066 115.241 100.066C115.192 91.6326 116.498 76.7567 116.498 76.7567C117.421 70.5448 117.724 62.817 117.696 59.0432Z" fill="#C8A977"/>
<path d="M97.9089 99.3655C97.1804 98.2793 97.2924 92.9534 97.4024 92.6277C97.5114 92.3006 100.488 86.6489 100.715 84.5835C100.943 82.5175 97.8537 89.1477 97.2362 88.715C96.6202 88.2782 99.7579 75.9957 99.7036 72.408C99.6488 68.8217 97.4606 83.2779 97.0113 82.4098C96.5635 81.5397 98.0771 63.6036 97.5725 63.8202C97.069 64.038 96.3997 77.7627 95.6673 77.952C95.3007 78.0473 94.9042 76.7205 94.5996 75.3669C94.6607 75.8373 94.7243 76.3008 94.7917 76.7568C94.7917 76.7568 95.7245 82.6197 96.0971 89.5831C96.2799 92.9863 96.0668 97.2974 96.0492 100.066C96.0492 100.066 95.6307 116.975 95.7353 119.15C95.7353 119.15 98.672 121.526 102.384 122.608C99.7491 120.933 98.301 118.705 98.301 118.705C98.189 117.284 97.7955 114.909 97.2924 113.714C96.7874 112.52 97.0685 110.237 97.0685 110.237C98.9727 108.615 102.379 101.843 103.108 100.375C102.268 101.851 98.5811 104.91 98.5811 104.91C98.5811 104.91 98.6378 100.452 97.9089 99.3655Z" fill="#C8A977"/>
<path d="M103.107 100.374C103.134 100.327 103.159 100.28 103.18 100.236C103.295 99.9942 103.258 100.07 103.107 100.374Z" fill="#C8A977"/>
<path d="M104.895 57.1725L104.608 117.953L103.743 122.934C104.091 122.999 104.441 123.051 104.792 123.085L105.644 118.932V58.4949L104.895 57.1725Z" fill="#EBEEC9"/>
<path d="M100.716 58.4678C100.716 58.4678 102.826 54.2549 105.645 59.7439C105.645 59.7441 103.204 48.6954 100.716 58.4678Z" fill="#BB9D6C"/>
<path d="M110.575 58.6871C110.575 58.6871 108.464 54.2549 105.645 59.7438C105.645 59.744 108.087 48.9127 110.575 58.6871Z" fill="#BB9D6C"/>
<path d="M102.702 47.2821C102.702 47.2821 103.04 52.6799 105.645 55.016V59.744C105.645 59.744 103.605 54.7338 102.565 55.1676C101.521 55.6034 100.74 58.6034 100.74 58.6034C100.74 58.6034 99.6309 52.6007 100.352 51.212C101.068 49.8354 102.449 46.5323 102.702 47.2821Z" fill="#EBEEC9"/>
<path d="M108.589 47.2821C108.589 47.2821 108.25 52.6799 105.645 55.016V59.744C105.645 59.744 107.685 54.7338 108.726 55.1676C109.768 55.6034 110.551 58.6034 110.551 58.6034C110.551 58.6034 111.659 52.6007 110.939 51.212C110.224 49.8354 108.841 46.5323 108.589 47.2821Z" fill="#EBEEC9"/>
<path d="M113.698 75.598H111.363H109.025C109.025 75.598 108.988 82.1912 109.025 83.3514C109.063 84.5116 111.363 85.5985 111.363 85.5985C111.363 85.5985 113.661 84.5116 113.698 83.3514C113.736 82.1912 113.698 75.598 113.698 75.598Z" fill="#EBEEC9"/>
<path d="M92.4697 57.9948C92.0864 58.6741 91.7124 59.7201 91.5012 61.3314C90.9155 65.8214 90.1187 83.9308 90.1187 84.5836C90.1187 84.5836 89.8209 85.3804 89.7828 86.6119C89.7456 87.8435 90.1187 90.8161 90.1187 90.8161C90.1187 90.8161 89.7036 96.0337 89.7799 96.5411C89.8581 97.0471 90.2321 100.018 90.2321 100.018C90.2321 100.018 89.9705 103.208 90.0444 104.512C90.0796 105.127 90.3074 108.38 90.5367 111.639L90.4555 103.932L90.8285 100.374L90.1563 96.105C90.1563 96.105 90.7176 91.1061 90.4927 89.4076C90.2692 87.7098 90.6799 84.9443 90.6432 84.2935C90.6051 83.6407 91.4646 65.3787 91.7633 63.3502C91.954 62.0514 92.2688 59.5945 92.4697 57.9948Z" fill="#E9CD96"/>
<path opacity="0.4" d="M111.517 75.598C111.772 76.883 112.763 81.8119 112.763 81.8119C112.763 81.8119 111.585 84.3113 111.183 84.4745C110.892 84.5911 109.679 83.5865 109.019 83.0112C109.02 83.1491 109.022 83.2663 109.025 83.3513C109.063 84.5109 111.363 85.5977 111.363 85.5977C111.363 85.5977 113.661 84.5109 113.698 83.3513C113.735 82.1911 113.698 75.5973 113.698 75.5973H111.517V75.598Z" fill="#CFD2A9"/>
<path d="M111.202 30.814C111.202 30.814 111.969 27.8635 112.855 28.7333C113.351 29.2202 112.898 36.9748 111.202 36.6002C111.202 36.6002 110.901 36.3929 110.88 35.1431L111.202 30.814Z" fill="#D0846A"/>
<path opacity="0.4" d="M112.46 29.7076C112.46 29.7076 112.941 32.6743 112.287 33.3769C112.287 33.3769 111.94 33.6063 111.959 33.926C111.98 34.2471 111.825 36.3969 111.435 35.7103C111.435 35.7103 111.132 34.7334 111.508 34.3685C111.886 34.0036 111.62 33.9869 111.319 33.2091C111.319 33.2091 111.878 29.4912 112.46 29.7076Z" fill="#A5644F"/>
<path d="M112.618 31.8929C112.598 31.3538 112.572 30.8094 112.506 30.3091C112.49 30.1845 112.466 30.0711 112.438 29.9764C112.402 29.8858 112.384 29.88 112.364 29.9C112.322 29.9169 112.317 29.9545 112.301 29.9738C112.286 29.9938 112.259 30.0516 112.238 30.0865C112.196 30.1749 112.151 30.2662 112.112 30.3706C111.952 30.7791 111.814 31.2398 111.696 31.7098C111.586 32.1631 111.469 32.7043 111.482 33.1067L111.451 32.9887C111.559 33.2287 111.661 33.4587 111.735 33.7698C111.753 33.8496 111.77 33.9316 111.776 34.04C111.788 34.1338 111.771 34.3029 111.716 34.3994C111.663 34.4873 111.591 34.4987 111.568 34.508L111.513 34.5296C111.504 34.5403 111.496 34.5478 111.485 34.5536C111.391 34.6562 111.359 34.96 111.373 35.2296C111.391 35.5025 111.453 35.7896 111.587 35.9465C111.432 35.8607 111.33 35.5642 111.284 35.2651C111.241 34.9727 111.231 34.5731 111.398 34.3075C111.449 34.2425 111.498 34.2085 111.528 34.1949C111.58 34.1687 111.586 34.1587 111.594 34.1474C111.588 34.1358 111.597 34.148 111.588 34.0942C111.584 34.0547 111.569 33.9985 111.554 33.9447C111.485 33.7274 111.386 33.4983 111.284 33.3058L111.258 33.2563L111.253 33.1878C111.223 32.8324 111.268 32.5549 111.309 32.2807C111.354 32.0071 111.407 31.7469 111.472 31.4976C111.602 31 111.747 30.5234 111.94 30.0962C111.986 29.9875 112.039 29.8843 112.096 29.7865C112.13 29.7382 112.151 29.6945 112.196 29.6443C112.24 29.596 112.291 29.5485 112.319 29.5451C112.439 29.4807 112.554 29.6764 112.582 29.8193C112.616 29.9669 112.636 30.1102 112.646 30.2511C112.688 30.812 112.66 31.3571 112.618 31.8929Z" fill="#975238"/>
<path d="M112.343 32.5982C112.343 32.5982 112.337 32.0109 112.238 31.4918C112.191 31.2329 112.115 31.0102 112.045 30.9184C111.976 30.8264 111.925 30.8293 111.926 30.8218L112 30.3538C112 30.3538 112.022 30.376 112.059 30.414C112.098 30.4476 112.146 30.5253 112.193 30.6211C112.287 30.8249 112.341 31.1369 112.361 31.4325C112.403 32.0311 112.343 32.5982 112.343 32.5982Z" fill="#975238"/>
<path d="M100.166 30.814C100.166 30.814 99.3989 27.8635 98.513 28.7333C98.0163 29.2202 98.47 36.9748 100.166 36.6002C100.166 36.6002 100.467 36.3929 100.488 35.1431L100.166 30.814Z" fill="#D0846A"/>
<path opacity="0.4" d="M98.9078 29.7076C98.9078 29.7076 98.4287 32.6743 99.0814 33.3769C99.0814 33.3769 99.428 33.6063 99.4089 33.926C99.3889 34.2471 99.5434 36.3969 99.9354 35.7103C99.9354 35.7103 100.237 34.7334 99.8597 34.3685C99.4837 34.0036 99.7502 33.9869 100.049 33.2091C100.049 33.2091 99.4911 29.4912 98.9078 29.7076Z" fill="#A5644F"/>
<path d="M98.7502 31.8929C98.7081 31.3572 98.6802 30.812 98.7213 30.2507C98.7321 30.1099 98.7511 29.9665 98.7858 29.8189C98.8132 29.6761 98.9291 29.4796 99.0479 29.5447C99.0772 29.5481 99.1281 29.5976 99.1716 29.6454C99.2161 29.6942 99.2376 29.7381 99.2713 29.7863C99.3285 29.8841 99.3808 29.9881 99.4273 30.0967C99.6204 30.5231 99.7661 31.0005 99.8961 31.4974C99.9607 31.7469 100.014 32.0072 100.058 32.2805C100.1 32.554 100.145 32.8323 100.116 33.1876L100.11 33.2561L100.084 33.3056C99.9827 33.498 99.8829 33.7274 99.8145 33.9445C99.7979 33.9983 99.7842 34.0545 99.7803 34.0941C99.771 34.1478 99.7788 34.1356 99.7739 34.1471C99.7827 34.1585 99.7876 34.1685 99.8394 34.1947C99.8707 34.2082 99.9186 34.2422 99.9704 34.3074C100.137 34.5736 100.127 34.9727 100.084 35.2649C100.038 35.5647 99.9352 35.8618 99.7808 35.9462C99.9152 35.7907 99.9778 35.5022 99.9949 35.2294C100.009 34.9605 99.9763 34.6567 99.8829 34.5534C99.8727 34.5474 99.8634 34.5401 99.8551 34.5294L99.7998 34.5078C99.7768 34.4985 99.705 34.4863 99.6527 34.3991C99.5969 34.3025 99.5798 34.1323 99.5916 34.0398C99.5979 33.9311 99.6155 33.8494 99.6326 33.7696C99.7074 33.4585 99.8096 33.2278 99.9181 32.9885L99.8859 33.1065C99.8986 32.7047 99.7827 32.163 99.6707 31.7096C99.5539 31.2403 99.416 30.7796 99.2557 30.3718C99.2161 30.2672 99.1716 30.176 99.1286 30.0861C99.1085 30.0512 99.0816 29.9934 99.067 29.9734C99.0508 29.9541 99.0454 29.9165 99.0039 29.9002C98.9834 29.8796 98.9658 29.8849 98.9306 29.9761C98.9027 30.0705 98.8778 30.1838 98.8616 30.3087C98.7956 30.8094 98.7707 31.3538 98.7502 31.8929Z" fill="#975238"/>
<path d="M99.0252 32.5983C99.0252 32.5983 98.966 32.031 99.0085 31.4323C99.0296 31.1365 99.0838 30.8254 99.1772 30.6216C99.2241 30.5258 99.2721 30.4481 99.3107 30.4145C99.3483 30.3763 99.3698 30.3542 99.3698 30.3542L99.4442 30.8223C99.4451 30.8296 99.3943 30.8269 99.3244 30.9189C99.2545 31.011 99.1782 31.2334 99.1308 31.4923C99.031 32.0103 99.0252 32.5983 99.0252 32.5983Z" fill="#975238"/>
<path d="M105.028 47.5011C105.028 47.5011 102.113 43.6964 101.216 41.4138C100.397 39.3297 99.8332 29.7764 99.7413 28.1264C99.7383 28.072 99.7339 28.0171 99.7305 27.9622C99.7285 27.91 99.7271 27.8817 99.7271 27.8817L99.7285 27.8824C99.7129 27.5411 99.7031 27.1971 99.7031 26.8484C99.7031 20.4849 102.364 15.3251 105.644 15.3251C108.926 15.3251 111.586 20.4849 111.586 26.8484C111.586 27.2622 111.574 27.6698 111.552 28.0728C111.552 28.0728 110.969 39.1316 110.071 41.414C109.176 43.6964 106.261 47.5013 106.261 47.5013C106.261 47.5013 105.785 48.0175 105.028 47.5011Z" fill="#D0846A"/>
<path d="M99.2145 28.7506C99.2145 28.7506 99.807 29.3595 100.05 31.744C100.05 31.744 100.378 30.6544 100.49 28.3704C100.602 26.0853 100.798 25.4495 101.231 23.8462C101.231 23.8462 102.284 20.5257 101.823 17.4057C101.528 15.4162 99.9772 14.4473 99.3934 16.6439C98.2455 20.9664 98.9769 27.9582 99.2145 28.7506Z" fill="#090000"/>
<path d="M107.811 28.1646C107.811 28.1646 107.433 28.7835 107.105 29.5197C107.019 29.6974 106.951 29.8966 106.876 30.0744C106.807 30.2562 106.756 30.4432 106.705 30.5966C106.659 30.7548 106.639 30.9017 106.616 30.9995C106.595 31.1001 106.584 31.1577 106.584 31.1577C106.584 31.1577 106.59 31.0975 106.602 30.9928C106.616 30.8901 106.624 30.7312 106.657 30.5564C106.694 30.3868 106.731 30.1761 106.785 29.9684C106.844 29.7666 106.897 29.5346 106.968 29.3281C107.235 28.4779 107.572 27.7054 107.572 27.7054L107.811 28.1646Z" fill="#975238"/>
<path d="M104.578 26.1569C104.578 26.1569 104.643 27.6543 104.375 27.8931C103.628 28.5627 102.049 27.528 101.073 29.7573C101.073 29.7573 100.998 28.2573 101.634 27.5345C102.268 26.8104 104.376 26.4894 104.578 26.1569Z" fill="black"/>
<path d="M106.973 26.1228C106.973 26.1228 106.821 27.579 107.073 27.8184C107.778 28.4872 109.41 27.5208 110.253 29.717C110.253 29.717 110.415 28.2588 109.823 27.5383C109.234 26.8183 107.154 26.4522 106.973 26.1228Z" fill="black"/>
<path d="M104.37 31.712C104.37 31.712 104.46 31.4029 104.419 31.0904C104.377 30.7793 102.911 28.4016 101.935 31.3003C101.935 31.3003 103.025 34.2505 104.37 31.712Z" fill="#F0F0ED"/>
<path d="M103.944 31.1466C103.944 31.8137 103.665 32.3555 103.321 32.3555C102.976 32.3555 102.697 31.8137 102.697 31.1466C102.697 30.4775 102.976 29.9364 103.321 29.9364C103.665 29.9362 103.944 30.4773 103.944 31.1466Z" fill="#2C1117"/>
<path d="M103.613 31.1468C103.613 31.4599 103.481 31.7141 103.32 31.7141C103.158 31.7141 103.026 31.4599 103.026 31.1468C103.026 30.8309 103.158 30.576 103.32 30.576C103.481 30.576 103.613 30.8309 103.613 31.1468Z" fill="#040000"/>
<path d="M102.395 32.1631L102.105 31.8687C102.01 31.7714 101.912 31.644 101.811 31.5227L101.728 31.422L101.793 31.1216V31.1209L101.91 30.8105C101.951 30.7105 101.983 30.5974 102.036 30.5121L102.184 30.2425C102.232 30.1505 102.296 30.0889 102.351 30.0118C102.407 29.9367 102.468 29.8725 102.534 29.8287C102.599 29.7844 102.659 29.714 102.729 29.6958C102.864 29.6247 103.001 29.6087 103.137 29.618C103.271 29.6449 103.402 29.6898 103.527 29.7696C103.65 29.8514 103.77 29.95 103.881 30.076C103.991 30.2009 104.094 30.3456 104.192 30.5018C104.238 30.5862 104.288 30.6613 104.329 30.7573C104.372 30.8538 104.414 30.9312 104.443 31.0771L104.444 31.0804V31.0845C104.444 31.2716 104.411 31.4425 104.392 31.6134C104.393 31.4352 104.409 31.2613 104.392 31.0965L104.392 31.1031C104.368 31.0327 104.315 30.9482 104.269 30.8838C104.223 30.8127 104.171 30.7518 104.122 30.688C104.019 30.57 103.913 30.4656 103.803 30.3831C103.693 30.3013 103.582 30.2329 103.47 30.1894C103.357 30.1451 103.245 30.1356 103.133 30.1383C103.024 30.1625 102.917 30.194 102.815 30.2636C102.763 30.2816 102.719 30.35 102.669 30.3896C102.62 30.4291 102.575 30.4869 102.533 30.5547C102.491 30.6203 102.442 30.6647 102.404 30.7438L102.287 30.9711C102.21 31.1214 102.147 31.3105 102.075 31.478L102.057 31.0771C102.106 31.2493 102.151 31.4338 102.212 31.6169L102.395 32.1631Z" fill="#030000"/>
<path d="M103.2 30.7329C103.2 30.8917 103.132 31.022 103.05 31.022C102.968 31.022 102.901 30.8919 102.901 30.7329C102.901 30.5733 102.968 30.4446 103.05 30.4446C103.132 30.4446 103.2 30.5733 103.2 30.7329Z" fill="#F0F0ED"/>
<path d="M107.145 31.7119C107.145 31.7119 107.056 31.4028 107.098 31.0903C107.141 30.7792 108.604 28.4015 109.581 31.3001C109.581 31.3001 108.492 34.2503 107.145 31.7119Z" fill="#F0F0ED"/>
<path d="M107.57 31.1466C107.57 31.8137 107.849 32.3555 108.195 32.3555C108.54 32.3555 108.819 31.8137 108.819 31.1466C108.819 30.4775 108.54 29.9364 108.195 29.9364C107.849 29.9362 107.57 30.4773 107.57 31.1466Z" fill="#2C1117"/>
<path d="M107.901 31.1467C107.901 31.4598 108.033 31.714 108.195 31.714C108.357 31.714 108.488 31.4598 108.488 31.1467C108.488 30.8309 108.357 30.576 108.195 30.576C108.033 30.576 107.901 30.8309 107.901 31.1467Z" fill="#040000"/>
<path d="M109.119 32.1631L109.303 31.617C109.364 31.434 109.408 31.2498 109.459 31.0773L109.44 31.4782C109.368 31.3106 109.305 31.1215 109.227 30.9713L109.111 30.744C109.073 30.6649 109.023 30.6206 108.981 30.5549C108.94 30.487 108.895 30.4295 108.845 30.3897C108.797 30.3502 108.753 30.282 108.7 30.2637C108.598 30.194 108.492 30.1624 108.382 30.1384C108.271 30.1358 108.159 30.1451 108.046 30.1895C107.933 30.2331 107.823 30.3022 107.712 30.3833C107.603 30.4657 107.496 30.5704 107.393 30.6897C107.345 30.7528 107.293 30.8137 107.246 30.8842C107.2 30.9493 107.148 31.0331 107.123 31.1035L107.124 31.0969C107.106 31.2618 107.122 31.4355 107.123 31.6137C107.105 31.4429 107.07 31.2717 107.071 31.0849V31.0809L107.072 31.0775C107.101 30.9319 107.144 30.8542 107.187 30.7582C107.228 30.6615 107.277 30.5866 107.324 30.5028C107.421 30.3466 107.525 30.2017 107.635 30.0764C107.745 29.9504 107.864 29.8517 107.988 29.7699C108.113 29.6902 108.244 29.6453 108.379 29.6184C108.515 29.6091 108.651 29.625 108.786 29.6962C108.856 29.7144 108.915 29.7846 108.981 29.8291C109.047 29.8726 109.108 29.937 109.164 30.0122C109.219 30.0893 109.283 30.1524 109.33 30.2429L109.478 30.5124C109.531 30.5975 109.564 30.7109 109.604 30.8108L109.722 31.1213V31.122L109.787 31.4224L109.703 31.5231C109.602 31.6444 109.505 31.7719 109.409 31.869L109.119 32.1631Z" fill="#030000"/>
<path d="M108.317 30.7329C108.317 30.8917 108.383 31.022 108.465 31.022C108.547 31.022 108.614 30.8919 108.614 30.7329C108.614 30.5733 108.547 30.4446 108.465 30.4446C108.383 30.4446 108.317 30.5733 108.317 30.7329Z" fill="#F0F0ED"/>
<path d="M106.245 33.1769C106.245 33.1769 106.165 35.3293 106.211 36.7878C106.234 37.5791 106.028 38.0371 105.832 38.1189C105.832 38.1189 106.653 38.3702 106.779 36.8702C106.861 35.8606 106.371 34.7535 106.245 33.1769Z" fill="#A5644F"/>
<path d="M105.403 37.9661C105.403 37.9661 104.616 37.4323 104.745 37.9063C104.875 38.3818 105.403 37.9661 105.403 37.9661Z" fill="#975238"/>
<path d="M101.581 18.9281C101.581 18.9281 103.09 23.0787 105.136 23.9479C105.136 23.9479 104.041 22.6443 103.565 21.8569C103.565 21.8569 105.662 24.0712 107.99 24.4714C107.99 24.4714 106.51 23.4932 105.961 22.1165C105.961 22.1165 107.404 24.1247 110.066 24.4714C110.066 24.4714 109.056 23.8399 108.678 23.0787C108.678 23.0787 110.041 23.7928 110.487 24.4714C110.932 25.1501 111.32 30.5875 111.32 30.5875C111.32 30.5875 111.586 29.6896 111.975 28.9627C111.975 28.9627 112.62 22.1438 112.348 20.2872C112.065 18.3534 110.721 9.95938 103.832 10.6663C103.832 10.6663 99.9167 11.2107 100.266 15.9923L101.581 18.9281Z" fill="#090000"/>
<path d="M101.076 15.3252C100.425 13.7314 101.604 12.1121 102.664 11.0654C101.541 11.63 100.044 12.957 100.266 15.9925L101.581 18.9281C101.581 18.9281 103.091 23.0787 105.136 23.9479C105.136 23.9479 104.041 22.6443 103.565 21.857C103.565 21.857 105.663 24.0712 107.991 24.4714C107.991 24.4714 106.51 23.4932 105.962 22.1165C105.962 22.1165 107.404 24.1247 110.066 24.4714C110.066 24.4714 109.056 23.8399 108.678 23.0787C108.678 23.0787 110.041 23.7928 110.487 24.4714C110.932 25.1501 111.319 30.5874 111.319 30.5874C111.319 30.5874 111.587 29.6896 111.976 28.9627C111.976 28.9627 112.62 22.1438 112.349 20.2872C112.336 20.2021 112.322 20.105 112.305 19.9976C111.149 24.7698 102.081 17.786 101.076 15.3252Z" fill="black"/>
<path d="M99.8994 22.4605C99.2555 20.4489 99.1719 16.5925 100.348 15.3962C99.9718 15.4385 99.6144 15.816 99.3934 16.6442C98.2455 20.9667 98.9769 27.9585 99.2145 28.7509C99.2145 28.7509 99.807 29.3598 100.05 31.7443C100.05 31.7443 100.378 30.6547 100.49 28.3707C100.531 27.5212 100.584 26.9003 100.657 26.3732C100.521 25.2438 100.276 23.638 99.8994 22.4605Z" fill="black"/>
<path d="M112.304 19.9971C111.936 17.6368 110.419 9.99134 103.831 10.6664C103.831 10.6664 103.339 10.7355 102.72 11.0366C102.478 11.4135 102.383 11.8822 102.583 12.4609C103.318 14.5804 110.108 11.1198 112.304 19.9971Z" fill="#2B101A"/>
<path d="M102.534 144.423C102.534 144.423 114.556 171.316 115.453 172.733C115.453 172.733 108.025 151.927 102.534 144.423Z" fill="#E9CD96"/>
<path d="M101.58 127.031C101.514 126.933 111.949 152.249 114.248 156.435C114.248 156.435 105.279 132.357 101.58 127.031Z" fill="#E9CD96"/>
<path d="M101.356 152.901C101.356 152.901 107.438 179.043 107.718 179.696C107.718 179.696 105.448 162.196 101.356 152.901Z" fill="#E9CD96"/>
<path d="M105.491 208.973C106.985 199.78 108.644 185.035 108.586 183.996C108.586 183.996 100.39 192.485 99.8508 193.646L96.1064 208.973H105.491V208.973Z" fill="#E9CD96"/>
<path d="M94.4395 202.67C94.4395 202.67 107.141 212.019 117.508 202.512L117.925 213.629C117.925 213.629 108.673 224.154 94.0156 213.625L94.4395 202.67Z" fill="#E2BE81"/>
<path d="M94.0166 213.627C97.431 216.078 100.55 217.387 103.323 217.954L103.893 207.845C100.128 207.514 95.7126 204.597 94.4014 203.677L94.0166 213.627Z" fill="#C59F6B"/>
<path d="M117.931 213.299C117.035 213.694 116.531 212.326 116.03 211.504C115.485 210.614 107.576 213.978 106.782 213.679C105.986 213.382 105.777 210.416 105.149 210.49C104.653 210.547 104.444 215.887 104.379 218.135C112.907 219.355 117.944 213.631 117.944 213.631L117.931 213.299Z" fill="#E9CD96"/>
<path d="M117.543 202.969C115.262 205.478 111.202 208.568 105.462 207.749C105.462 207.749 105.337 209.807 106.781 210.411C108.224 211.012 114.94 208.786 115.819 209.677C116.334 210.195 117.099 210.99 117.855 211.267L117.543 202.969Z" fill="#C59F6B"/>
<path d="M106.501 42.724C106.501 43.6734 106.15 44.443 105.717 44.443C105.283 44.443 104.932 43.6734 104.932 42.724C104.932 41.7747 105.283 41.0051 105.717 41.0051C106.15 41.0051 106.501 41.7747 106.501 42.724Z" fill="#991E23"/>
<path d="M105.891 43.7044C105.458 43.7044 105.107 42.9348 105.107 41.9854C105.107 41.8491 105.114 41.7166 105.128 41.5892C105.006 41.8924 104.932 42.2886 104.932 42.7242C104.932 43.6735 105.283 44.443 105.717 44.443C106.088 44.443 106.398 43.8784 106.48 43.1202C106.336 43.4775 106.126 43.7044 105.891 43.7044Z" fill="#6F1419"/>
<path d="M104.659 43.7531C104.659 43.7531 104.937 45.4891 106.097 45.3619C106.097 45.3619 104.747 46.0393 104.659 43.7531Z" fill="#975238"/>
<path d="M108.109 41.7806C108.089 41.737 107.761 41.0333 107.558 40.8948C107.403 40.7881 105.893 40.7985 106.02 39.9717L106.213 38.7208C106.213 38.7208 107.547 39.6797 107.838 40.4619C108.116 41.2161 108.11 41.7417 108.109 41.7806Z" fill="black"/>
<path d="M103.322 41.7295C103.343 41.687 103.683 41.0053 103.888 40.8804C104.045 40.7839 105.554 40.8944 105.441 40.0593L105.271 38.7964C105.271 38.7964 103.921 39.6666 103.616 40.4293C103.325 41.1648 103.322 41.6906 103.322 41.7295Z" fill="black"/>
<path opacity="0.4" d="M101.728 31.4223C101.728 31.4223 101.367 29.1029 102.645 28.5325C103.923 27.962 104.441 31.0084 104.443 31.022C104.443 31.022 103.559 29.1205 102.727 29.6854C101.88 30.2607 101.728 31.4223 101.728 31.4223Z" fill="#A5644F"/>
<path opacity="0.4" d="M109.781 31.4564C109.781 31.4564 110.213 29.1833 108.955 28.4644C107.698 27.7457 107.06 31.36 107.071 31.0775C107.071 31.0775 108.007 29.0961 108.82 29.7573C109.648 30.4308 109.781 31.4564 109.781 31.4564Z" fill="#A5644F"/>
</svg>
