<svg width="220" height="240" viewBox="0 0 220 240" fill="none" xmlns="http://www.w3.org/2000/svg">
<path d="M120.669 182.434C120.285 172.364 119.582 161.584 119.582 161.584L110.52 182.434H120.669Z" fill="#E2BE81"/>
<path d="M108.892 182.434L99.7227 162.147C99.7227 162.147 100.351 172.505 99.9783 182.434H108.892Z" fill="#E2BE81"/>
<path d="M99.8154 182.434C99.5895 179.978 99.4619 178.314 99.4619 178.314C99.6364 179.812 99.8085 181.175 99.9772 182.434H100.954C100.381 177.532 99.9806 173.257 99.9806 173.257L101.454 153.942L103.157 148.466L102.337 144.599C101.141 145.421 100.31 146.237 100.31 146.237C100.31 146.237 99.8682 153.58 99.7215 162.147C99.7215 162.147 100.35 172.505 99.9772 182.434H99.8154Z" fill="#CB9C5A"/>
<path d="M120.075 182.434H120.672C120.325 173.351 119.72 163.693 119.605 161.888C119.369 165.758 119.071 170.796 119.105 171.158C119.145 171.579 119.736 178.475 120.075 182.434Z" fill="#CB9C5A"/>
<path d="M125.089 71.3684H119.999V76.8096C119.999 76.8096 121.462 95.4918 121.589 99.3209C121.716 103.149 120.494 107.38 122.417 134.948H123.941C123.941 134.948 124.776 116.363 124.648 103.893C124.648 103.893 124.543 97.2274 124.66 93.7693C124.744 91.2562 125.406 79.2308 125.089 71.3684Z" fill="#D0836A"/>
<path d="M124.428 121.229H121.614C121.677 122.649 121.752 124.17 121.843 125.808C122.064 125.734 122.344 125.669 122.587 125.717C122.951 125.789 123.731 125.857 124.301 125.461C124.344 124.127 124.386 122.705 124.428 121.229Z" fill="#A56550"/>
<path d="M122.248 141.694L122.902 142.718C122.902 142.718 122.803 146.271 122.813 146.667C122.813 146.667 121.938 148.373 122.248 148.974C122.248 148.974 123.174 148.293 123.408 147.651C123.642 147.006 123.359 142.128 123.359 142.128L122.317 140.596L122.248 141.694Z" fill="#9A4E3E"/>
<path d="M122.735 150.054C122.735 150.054 122.574 150.121 122.552 149.503C122.52 148.596 122.934 147.423 123.035 147.156C123.035 147.156 122.999 142.987 122.987 142.81C122.977 142.633 122.712 142.083 122.285 141.26C121.926 140.56 122.302 140.557 122.302 140.557L123.441 141.265C123.441 141.265 123.941 143.913 123.941 143.981C123.941 144.047 123.708 148.217 123.708 148.217L122.735 150.054Z" fill="#B5644F"/>
<path d="M122.416 134.949C122.416 134.949 122.148 137.604 121.908 138.97C121.908 138.97 121.628 140.225 121.634 140.914C121.642 141.929 121.664 142.821 121.708 143.794C121.708 143.794 121.752 145.64 121.97 145.461C122.188 145.285 122.129 144.174 122.068 143.528C122.068 143.528 122.279 141.619 122.416 141.22C122.416 141.22 123.212 142.192 123.395 143.737C123.395 143.737 123.44 147.317 123.395 147.935C123.395 147.935 122.684 150.463 123.26 151.055C123.26 151.055 123.79 149.589 124.021 148.641C124.212 147.858 124.515 143.288 124.583 141.963C124.652 140.637 123.921 135.354 123.965 134.381C124.012 133.41 122.416 134.949 122.416 134.949Z" fill="#D0836A"/>
<path d="M98.6279 75.9195V65.9355H93.9194C92.8908 72.4087 93.8622 89.8005 93.9669 92.8814C94.0832 96.3381 93.9766 103.004 93.9766 103.004C93.85 115.473 94.6831 134.059 94.6831 134.059H96.2094C98.1317 106.491 96.9095 102.261 97.0361 98.4322C97.1632 94.6046 98.6279 75.9195 98.6279 75.9195Z" fill="#D0836A"/>
<path d="M94.3291 124.677C94.3653 125.798 94.4029 126.85 94.4376 127.821C94.9607 128.08 96.0182 128.543 96.5795 128.419C96.6479 127.298 96.711 126.228 96.7682 125.196L94.3291 124.677Z" fill="#A56550"/>
<path d="M96.3778 140.804L95.7261 141.828C95.7261 141.828 95.8229 145.38 95.8132 145.777C95.8132 145.777 96.6888 147.484 96.3778 148.084C96.3778 148.084 95.4543 147.403 95.2192 146.76C94.984 146.118 95.2681 141.239 95.2681 141.239L96.3114 139.707L96.3778 140.804Z" fill="#9A4E3E"/>
<path d="M95.8907 149.165C95.8907 149.165 96.0505 149.231 96.0735 148.614C96.1063 147.706 95.6927 146.534 95.5905 146.27C95.5905 146.27 95.6271 142.098 95.6384 141.92C95.6496 141.744 95.9136 141.193 96.3404 140.37C96.7012 139.67 96.3248 139.668 96.3248 139.668L95.1842 140.375C95.1842 140.375 94.6836 143.025 94.6836 143.092C94.6836 143.157 94.9168 147.328 94.9168 147.328L95.8907 149.165Z" fill="#B5644F"/>
<path d="M96.2098 134.059C96.2098 134.059 96.4772 136.714 96.7177 138.08C96.7177 138.08 96.9979 139.335 96.992 140.024C96.9827 141.042 96.9632 141.933 96.9157 142.906C96.9157 142.906 96.8732 144.75 96.6552 144.573C96.4381 144.395 96.4963 143.287 96.5574 142.638C96.5574 142.638 96.3472 140.729 96.2098 140.33C96.2098 140.33 95.4134 141.303 95.2301 142.849C95.2301 142.849 95.1841 146.427 95.2301 147.044C95.2301 147.044 95.9399 149.574 95.3655 150.165C95.3655 150.165 94.836 148.7 94.6048 147.754C94.4131 146.97 94.111 142.398 94.0416 141.073C93.9736 139.748 94.706 134.464 94.6585 133.491C94.6126 132.521 96.2098 134.059 96.2098 134.059Z" fill="#D0836A"/>
<path d="M102.547 111.071C101.207 116.556 100.112 121.949 99.7491 125.888C99.7491 125.888 98.2585 141.352 99.6352 160.02C100.282 168.787 101.305 176.84 101.816 182.434H117.205C117.717 176.84 118.739 168.787 119.385 160.02C120.764 141.352 119.272 125.888 119.272 125.888C118.909 121.949 117.815 116.556 116.475 111.071C114.264 102.017 117.427 91.6924 117.427 91.6924C121.413 80.1216 121.308 67.5318 121.31 64.398C121.313 61.5187 120.991 60.92 120.991 60.92C120.11 60.3209 114.528 57.1971 114.528 57.1971L109.511 57.2111H104.438C104.438 57.2111 98.9112 60.3209 98.0297 60.92C98.0297 60.92 97.71 61.5185 97.7129 64.398C97.7149 67.5318 97.6078 80.1216 101.593 91.6924C101.594 91.6924 104.758 102.017 102.547 111.071Z" fill="#BC725B"/>
<path d="M97.4801 126.732C97.4801 126.732 97.7549 125.746 97.7143 129.446C97.6815 132.278 99.9143 165.294 99.9783 182.434L120.671 183.488C120.719 166.353 121.713 129.228 120.844 124.264C120.844 124.264 121.139 123.398 122.297 123.645C123.455 123.893 124.475 124.264 125.174 123.154C125.873 122.041 126.193 103.397 126.383 84.5054L91.877 97.3029C91.877 97.3029 92.9266 123.029 93.4531 126.732C93.4531 126.732 96.0164 128.213 97.4801 126.732Z" fill="#16355A"/>
<path d="M126.362 86.5419L94.0206 100.146L91.9922 100.051C92.1252 103.18 92.3589 108.516 92.6131 113.635C92.9304 113.486 93.2291 113.295 93.4525 113.053C93.4525 113.053 94.2929 121.548 95.2179 121.219C96.1438 120.889 96.906 113.78 97.7137 113.053C97.7137 113.053 98.0569 114.468 98.6284 115.291C99.1984 116.116 108.648 113.481 110.332 112.164C110.332 112.164 111.846 116.616 112.356 116.695C112.865 116.772 116.284 111.61 117.547 106.11C117.547 106.11 118.977 111.012 119.487 111.012C119.995 111.012 121.871 104.053 121.871 104.053C121.871 104.053 124.461 106.764 126.038 107.678C126.18 101.518 126.28 94.0998 126.362 86.5419Z" fill="#08233F"/>
<path d="M111.921 43.3787H109.587H107.251C107.366 55.3549 104.534 57.8233 104.534 57.8233C106.33 63.8726 109.587 63.5047 109.587 63.5047C109.587 63.5047 112.842 63.8724 114.64 57.8233C114.64 57.8235 111.806 55.3549 111.921 43.3787Z" fill="#BC725B"/>
<path d="M112.886 53.8664C112.431 52.0557 112.042 49.4746 111.943 45.8462H109.553H107.23C107.173 48.0268 107.01 49.8311 106.788 51.3148C107.884 52.5742 110.227 54.7226 112.886 53.8664Z" fill="#A45E4C"/>
<path d="M109.581 72.4203C107.318 69.1097 105.472 57.2113 105.3 56.6718C105.126 56.1336 104.536 56.2131 104.536 56.2131C102.177 57.6993 96.2984 61.8271 96.0026 62.0731C96.0026 62.0731 94.9397 62.3953 93.9219 63.8762C92.903 65.358 92.1374 71.5014 92.1374 76.8528C92.1374 82.202 91.3298 99.9024 90.7783 102.369C90.7783 102.369 91.7977 104.345 93.453 104.841C93.453 104.841 92.9431 108.956 93.2404 109.613C93.5376 110.272 104.173 110.709 110.094 102.314C110.094 102.314 111.982 106.017 112.111 106.099C112.238 106.183 115.293 105.771 117.119 102.56C117.119 102.56 118.478 104.208 118.943 104.043C119.411 103.877 121.152 97.3741 122.127 96.6336C122.127 96.6336 123.146 98.1984 123.655 98.0317C124.164 97.8679 127.305 89.5549 127.518 85.9323C127.518 85.9323 127.084 70.2678 126.193 66.5633C125.302 62.8588 122.366 62.9066 120.753 60.5066C120.753 60.5066 119.796 59.7818 119.243 59.3704C118.692 58.9555 115.878 57.0107 114.689 56.2133C114.344 56.0964 114.123 56.0022 114.012 56.9326C112.789 67.2411 109.581 72.4203 109.581 72.4203Z" fill="#1688C3"/>
<path d="M122.173 61.958C121.827 61.694 121.495 61.4093 121.192 61.072C120.28 66.1749 118.156 72.7344 113.229 77.0955C113.229 77.0955 118.96 80.0948 122.173 61.958Z" fill="#126A8D"/>
<path d="M127.518 85.9324C127.518 85.9324 127.084 70.2672 126.193 66.5629C126.083 66.1089 125.953 65.7007 125.81 65.325C113.929 102.252 100.132 104.734 93.3175 106.076C93.1919 107.345 93.0496 109.191 93.2403 109.614C93.5375 110.272 104.173 110.709 110.094 102.313C110.094 102.313 111.982 106.017 112.111 106.099C112.238 106.182 115.294 105.771 117.119 102.56C117.119 102.56 117.153 102.601 117.211 102.669C120.475 98.4638 123.668 94.3276 126.563 90.539C127.064 88.8014 127.447 87.118 127.518 85.9324Z" fill="#126A8D"/>
<path d="M123.252 215.905C123.229 215.962 123.206 216.013 123.183 216.065C123.1 216.244 123.002 216.411 122.909 216.571C122.875 216.635 122.839 216.693 122.803 216.757C122.734 216.866 122.66 216.975 122.581 217.078C122.548 217.123 122.515 217.167 122.478 217.206C122.39 217.308 122.301 217.411 122.204 217.5C122.039 217.661 121.863 217.802 121.682 217.923C121.652 217.95 121.619 217.969 121.586 217.988C121.573 218.001 121.559 218.007 121.547 218.013C121.728 217.77 121.91 217.52 122.062 217.225C122.079 217.193 122.098 217.155 122.115 217.116C122.217 216.898 122.27 216.692 122.326 216.43C122.346 216.339 122.366 216.25 122.369 216.154C122.373 216.071 122.363 215.987 122.353 215.911C122.303 215.475 122.231 215.308 122.022 215.134C120.518 213.859 118.848 213.461 117.208 213.512C117.102 213.519 116.997 213.519 116.891 213.531C115.551 213.614 114.219 213.961 112.89 214.301C112.695 214.352 112.503 214.404 112.308 214.448C111.442 214.666 110.573 214.859 109.7 215.019C108.387 215.262 107.067 215.436 105.752 215.487C103.9 215.564 102.055 215.41 100.224 214.922C99.8302 214.821 99.4069 214.519 99.0563 214.089C99.0236 214.051 98.9869 214.006 98.9542 213.968C98.9009 213.898 98.8515 213.826 98.8016 213.749C98.7488 213.083 98.719 212.506 99.0368 212.229C99.642 211.704 100.071 210.87 100.392 209.876C100.709 208.895 100.924 207.761 101.103 206.626C101.53 203.855 101.592 200.906 101.43 198.045C101.186 193.71 100.461 189.549 99.8429 185.356C99.5555 183.425 99.2944 181.476 99.0495 179.521C99.003 179.155 98.9571 178.784 98.9141 178.417C97.4758 166.389 97.0856 154.02 98.0746 141.811C98.1074 141.368 98.1436 140.932 98.1837 140.489C98.7782 141.715 99.6014 142.721 100.237 143.497C101.318 144.824 102.502 145.831 103.735 146.465C106.221 147.754 108.923 147.492 111.257 145.28C112.367 144.222 113.392 142.843 114.351 141.309C115.201 139.957 115.938 138.488 116.927 137.565C117.122 138.11 117.304 138.674 117.476 139.245C120.759 150.063 121.956 162.939 121.662 175.475C121.556 180.091 121.255 184.753 121.04 189.363C120.696 196.795 121.38 204.4 123.007 211.172C123.199 211.96 123.404 212.755 123.483 213.621C123.556 214.404 123.511 215.263 123.252 215.905Z" fill="#16355A"/>
<path d="M107.907 185.557C105.689 180.734 103.75 175.429 102.137 169.773C103.517 177.789 105.782 185.249 109.031 190.878C108.737 189.031 108.571 187 107.907 185.557Z" fill="#126A8D"/>
<path d="M103.637 204.58C103.412 205.85 102.992 206.991 102.44 207.806C101.825 208.71 101.078 209.203 100.394 209.876C100.711 208.895 100.926 207.761 101.105 206.626C101.531 203.855 101.593 200.907 101.432 198.046C101.187 193.711 100.463 189.549 99.8442 185.356C99.5568 183.426 99.2957 181.476 99.0508 179.521C99.2757 179.893 99.3749 181.143 99.4575 181.572C99.679 182.772 99.9039 183.972 100.145 185.157C100.635 187.569 101.173 189.941 101.818 192.211C102.367 194.154 102.995 196.026 103.405 198.091C103.819 200.156 104.004 202.483 103.637 204.58Z" fill="#126A8D"/>
<path d="M123.484 213.622C123.556 214.404 123.51 215.263 123.252 215.905C123.229 215.962 123.206 216.013 123.183 216.065C123.1 216.244 123.001 216.411 122.908 216.571C122.876 216.635 122.839 216.693 122.802 216.757C122.733 216.866 122.66 216.975 122.58 217.078C122.548 217.123 122.515 217.167 122.478 217.206C122.389 217.308 122.3 217.411 122.204 217.5C122.039 217.661 121.863 217.802 121.682 217.923C121.651 217.95 121.618 217.969 121.585 217.988C121.572 218.001 121.559 218.007 121.546 218.013C121.728 217.77 121.91 217.52 122.062 217.225C122.078 217.193 122.098 217.155 122.114 217.116C122.217 216.898 122.27 216.692 122.326 216.43C122.346 216.339 122.366 216.25 122.369 216.154C122.372 216.071 122.362 215.987 122.353 215.911C122.303 215.475 122.23 215.308 122.022 215.134C120.517 213.859 118.848 213.461 117.208 213.512C117.102 213.519 116.996 213.519 116.891 213.531C115.551 213.614 114.219 213.961 112.89 214.301C112.694 214.352 112.503 214.404 112.308 214.448C111.441 214.666 110.572 214.859 109.7 215.019C108.386 215.262 107.067 215.436 105.751 215.487C103.9 215.564 102.055 215.41 100.223 214.922C99.8298 214.821 99.4064 214.519 99.0559 214.089C99.0232 214.051 98.9865 214.006 98.9537 213.968C99.3307 214.057 99.714 214.109 100.091 214.147C105.603 214.699 111.699 212.55 116.659 212.467C116.831 212.237 116.864 211.762 116.831 211.364C116.718 210.095 116.113 209.575 116.077 208.28C115.872 201.284 116.685 194.34 117.029 187.363C117.337 181.117 117.267 174.827 117.113 168.563C116.966 162.913 116.752 157.264 116.292 151.672C116.08 149.101 115.826 146.183 115.052 144.048C111.435 148.37 106.895 149.691 102.782 147.607C102.019 147.222 101.265 146.723 100.58 145.965C99.6211 144.901 98.8281 143.381 98.0742 141.811C98.1075 141.368 98.1436 140.932 98.1832 140.489C98.7782 141.715 99.601 142.721 100.236 143.497C101.318 144.824 102.501 145.831 103.735 146.465C106.221 147.754 108.922 147.492 111.256 145.28C112.367 144.222 113.393 142.843 114.351 141.309C115.201 139.957 115.938 138.488 116.927 137.565C117.122 138.11 117.304 138.674 117.476 139.245C120.759 150.063 121.955 162.939 121.662 175.475C121.556 180.091 121.254 184.753 121.04 189.363C120.696 196.795 121.381 204.4 123.007 211.172C123.199 211.96 123.404 212.756 123.484 213.622Z" fill="#08233F"/>
<path d="M108.027 104.736C107.94 104.813 107.859 104.894 107.777 104.973C107.861 104.894 107.945 104.813 108.028 104.734C108.028 104.734 108.028 104.736 108.027 104.736Z" fill="#CEB650"/>
<path d="M110.12 102.367C110.35 102.812 111.992 106.023 112.11 106.099C112.237 106.183 115.292 105.771 117.117 102.56C117.117 102.56 118.477 104.208 118.942 104.043C119.41 103.877 121.15 97.3742 122.125 96.6336C122.125 96.6336 123.145 98.1984 123.654 98.0318C124.162 97.8679 127.304 89.555 127.517 85.9324C127.517 85.9324 127.083 70.2679 126.191 66.5634C126.191 66.5631 118.818 91.5847 110.12 102.367Z" fill="#025881"/>
<path d="M127.103 76.0471C126.888 72.1392 126.583 68.194 126.191 66.5631C126.191 66.5631 123.157 76.8603 118.686 87.0885C118.529 87.4471 118.369 87.8071 118.209 88.1678C118.187 88.2151 118.167 88.2597 118.146 88.3063C117.979 88.6773 117.812 89.0469 117.642 89.413C115.381 94.32 112.815 99.0267 110.12 102.366C110.198 102.516 110.44 102.992 110.731 103.552C111.653 102.472 113.024 100.81 114.616 98.677C115.069 99.4944 116.047 101.187 117.096 102.596C117.102 102.587 117.11 102.573 117.117 102.56C117.117 102.56 118.477 104.207 118.942 104.043C119.095 103.988 119.378 103.271 119.725 102.301L116.421 96.181C117.075 95.2491 117.748 94.2555 118.431 93.2057C119.537 95.0091 120.817 96.5911 121.564 97.4688C121.758 97.0814 121.939 96.7913 122.102 96.6549C121.424 94.9056 120.963 92.0393 120.669 89.5934C123.036 85.5813 125.347 80.9822 127.103 76.0471Z" fill="#003A51"/>
<path d="M105.299 95.7011C98.3177 83.2266 97.4211 68.5258 97.4905 61.0076C96.9884 61.3607 96.5768 61.6523 96.3138 61.8432C94.0067 93.0158 105.299 95.7011 105.299 95.7011Z" fill="#126A8D"/>
<path d="M102.951 59.4344C102.951 59.4344 106.331 85.451 114.434 87.6281C114.434 87.6281 104.316 91.4126 102.951 59.4344Z" fill="#126A8D"/>
<path d="M114.863 79.8054C114.863 79.8054 113.112 84.6589 114.291 91.1992C114.291 91.1992 114.767 93.962 114.641 95.9163C114.641 95.9163 115.736 94.2932 115.913 89.7791C115.913 89.7791 115.865 93.4889 115.492 95.1078C115.492 95.1078 118.832 85.4317 116.677 79.8054H114.863Z" fill="#2B1116"/>
<path d="M108.668 78.5719C108.668 78.5719 114.688 67.8833 115.577 57.1971C115.577 57.1973 115.152 74.5659 108.668 78.5719Z" fill="#126A8D"/>
<path d="M103.08 36.0079C103.08 36.0079 103.158 42.1092 106.562 45.1486C109.967 48.1895 105.902 36.0079 105.902 36.0079" fill="#2B1116"/>
<path d="M116.3 36.6477C116.3 36.6477 116.778 43.2841 115.347 47.2998C115.347 47.2998 115.718 47.5314 115.347 48.8481C115.347 48.8481 116.566 52.0583 116.004 54.5276C115.443 56.9967 114.708 57.6032 113.844 56.4778C112.98 55.3518 111.596 50.8274 111.672 46.8341C111.749 42.8381 114.463 36.0083 114.463 36.0083L116.3 36.6477Z" fill="#2B1116"/>
<path d="M114.07 45.6373C113.256 45.7189 112.915 44.5282 112.915 44.5282L111.746 45.7775C111.705 46.1464 111.679 46.5018 111.672 46.8337C111.665 47.1675 111.671 47.5066 111.683 47.8449L111.707 48.0255C111.707 48.0255 112.535 51.2184 113.765 52.4824C113.765 52.4824 114.655 51.3104 115.381 48.9426C115.358 48.882 115.347 48.8477 115.347 48.8477C115.718 47.5309 115.347 47.2995 115.347 47.2995C115.86 45.8604 116.127 44.0837 116.259 42.3966C116.018 42.9333 114.802 45.5584 114.07 45.6373Z" fill="#1C0C0E"/>
<path d="M103.555 31.5978C103.555 31.5978 102.6 28.6551 101.636 29.6747C101.096 30.2442 101.861 38.19 103.745 37.5753C103.745 37.5753 104.075 37.3182 104.059 36.0265L103.555 31.5978Z" fill="#D0836A"/>
<path opacity="0.4" d="M102.109 30.6271C102.109 30.6271 101.669 33.7552 102.423 34.3906C102.423 34.3906 102.82 34.5826 102.808 34.9154C102.796 35.249 103.042 37.4483 103.455 36.6866C103.455 36.6866 103.762 35.6363 103.329 35.3095C102.894 34.9837 103.191 34.9333 103.502 34.0899C103.502 34.0899 102.755 30.3244 102.109 30.6271Z" fill="#A56550"/>
<path d="M102.005 32.9056C101.941 32.3472 101.893 31.7767 101.925 31.1774C101.935 31.0278 101.95 30.8725 101.993 30.712C102.018 30.5478 102.166 30.3747 102.267 30.4365C102.298 30.4345 102.357 30.4852 102.402 30.5218C102.448 30.5645 102.475 30.6056 102.513 30.649C102.578 30.7403 102.639 30.8363 102.694 30.9403C102.92 31.3487 103.1 31.8185 103.262 32.3159C103.343 32.5636 103.413 32.8283 103.473 33.1076C103.529 33.39 103.591 33.6754 103.572 34.0647L103.567 34.1412L103.538 34.1996C103.432 34.4085 103.327 34.6567 103.259 34.8901C103.243 34.9456 103.229 35.0069 103.226 35.0452C103.22 35.0972 103.224 35.0705 103.221 35.0834C103.229 35.0979 103.242 35.1072 103.295 35.1269C103.33 35.137 103.378 35.1594 103.436 35.2183C103.634 35.4501 103.648 35.896 103.605 36.2123C103.565 36.5381 103.453 36.8541 103.291 36.9509C103.431 36.7772 103.498 36.472 103.509 36.181C103.518 35.8934 103.466 35.5869 103.36 35.5059C103.349 35.4998 103.339 35.4921 103.327 35.4834L103.266 35.4716C103.239 35.4629 103.168 35.4663 103.107 35.3868C103.04 35.3058 103.009 35.1112 103.021 35.0065C103.024 34.8856 103.042 34.7976 103.06 34.7101C103.136 34.3734 103.242 34.1247 103.354 33.8643L103.321 33.9996C103.326 33.8143 103.284 33.5449 103.228 33.3072C103.175 33.0618 103.104 32.8247 103.032 32.5887C102.886 32.1212 102.716 31.6663 102.525 31.2725C102.479 31.1712 102.427 31.0858 102.377 31.0005C102.353 30.9658 102.324 30.9145 102.304 30.8918C102.282 30.8754 102.28 30.8349 102.235 30.8241C102.193 30.7989 102.182 30.7958 102.146 30.8929C102.116 30.9772 102.093 31.1023 102.077 31.2318C102.017 31.7576 102.008 32.3367 102.005 32.9056Z" fill="#985339"/>
<path d="M102.336 33.5944C102.336 33.5944 102.249 33.0075 102.283 32.371C102.299 32.0557 102.356 31.7206 102.454 31.5066C102.505 31.4052 102.553 31.3244 102.593 31.2875C102.631 31.2448 102.653 31.2219 102.653 31.2219L102.742 31.7172C102.744 31.7254 102.687 31.7297 102.613 31.8257C102.54 31.9212 102.461 32.1519 102.415 32.425C102.32 32.9752 102.336 33.5944 102.336 33.5944Z" fill="#985339"/>
<path d="M115.85 31.5978C115.85 31.5978 116.807 28.6551 117.768 29.6747C118.309 30.2442 117.545 38.19 115.66 37.5753C115.66 37.5753 115.33 37.3182 115.347 36.0265L115.85 31.5978Z" fill="#D0836A"/>
<path opacity="0.4" d="M117.295 30.6271C117.295 30.6271 117.736 33.7552 116.981 34.3906C116.981 34.3906 116.585 34.5826 116.598 34.9154C116.608 35.249 116.365 37.4483 115.949 36.6866C115.949 36.6866 115.642 35.6363 116.077 35.3095C116.51 34.9837 116.211 34.9333 115.903 34.0899C115.903 34.0899 116.651 30.3244 117.295 30.6271Z" fill="#A56550"/>
<path d="M117.4 32.9055C117.397 32.3366 117.388 31.7575 117.328 31.2314C117.312 31.1019 117.289 30.9768 117.258 30.8915C117.222 30.797 117.211 30.7986 117.169 30.8237C117.124 30.8346 117.123 30.875 117.1 30.8915C117.081 30.9142 117.051 30.9655 117.028 31.0001C116.977 31.0855 116.926 31.1708 116.879 31.2712C116.688 31.6659 116.519 32.1208 116.372 32.5877C116.3 32.8246 116.229 33.0604 116.176 33.3061C116.12 33.5448 116.079 33.8141 116.083 33.9986L116.05 33.8641C116.162 34.1252 116.268 34.3746 116.344 34.7106C116.362 34.7981 116.38 34.8864 116.383 35.0071C116.395 35.1124 116.362 35.3064 116.297 35.3877C116.236 35.4666 116.164 35.4628 116.137 35.4715L116.076 35.4832C116.065 35.4921 116.055 35.4997 116.043 35.5057C115.938 35.5866 115.885 35.8944 115.895 36.1817C115.905 36.4717 115.972 36.777 116.113 36.9506C115.951 36.8537 115.839 36.5401 115.797 36.2123C115.756 35.8964 115.77 35.4513 115.967 35.2179C116.026 35.1601 116.073 35.1366 116.109 35.1266C116.162 35.107 116.174 35.0977 116.183 35.0846C116.18 35.0701 116.184 35.097 116.178 35.0448C116.175 35.0075 116.161 34.945 116.144 34.8897C116.076 34.6564 115.972 34.4082 115.867 34.1979L115.837 34.1413L115.834 34.0641C115.812 33.6751 115.874 33.3882 115.932 33.107C115.991 32.8277 116.06 32.5632 116.142 32.3148C116.304 31.8168 116.485 31.3477 116.71 30.9399C116.765 30.8359 116.827 30.7392 116.892 30.6479C116.93 30.6052 116.956 30.5641 117.002 30.5215C117.048 30.4846 117.106 30.4342 117.137 30.4362C117.239 30.3744 117.386 30.5474 117.41 30.7117C117.455 30.8721 117.47 31.0272 117.48 31.177C117.512 31.7755 117.464 32.3468 117.4 32.9055Z" fill="#985339"/>
<path d="M117.069 33.5944C117.069 33.5944 117.085 32.9752 116.99 32.425C116.944 32.1519 116.866 31.9212 116.792 31.8257C116.718 31.7297 116.661 31.7254 116.663 31.7172L116.752 31.2219C116.752 31.2219 116.775 31.245 116.812 31.2875C116.853 31.3244 116.9 31.4052 116.951 31.5066C117.05 31.7206 117.107 32.0566 117.122 32.371C117.155 33.0075 117.069 33.5944 117.069 33.5944Z" fill="#985339"/>
<path d="M109.188 49.2919C109.188 49.2919 106.234 46.2575 105.224 42.8819C104.392 40.5159 103.112 29.6635 103.008 27.7909C103.004 27.7277 103 27.6657 102.997 27.6028C102.995 27.5435 102.993 27.5117 102.993 27.5117L102.994 27.5124C102.977 27.1242 102.966 26.7353 102.966 26.3364C102.966 19.1088 105.987 13.2487 109.714 13.2487C113.44 13.2487 116.463 19.1088 116.463 26.3364C116.463 26.8093 116.449 27.2711 116.424 27.7295H116.425C116.425 27.7295 115.114 40.2906 114.204 42.8819C113.136 46.7502 110.24 49.2919 110.24 49.2919C110.24 49.2919 109.834 49.8795 109.188 49.2919Z" fill="#D0836A"/>
<path d="M109.599 39.2952C109.599 39.2952 108.825 38.6533 108.797 39.0835C108.768 39.5157 109.226 39.721 109.599 39.2952Z" fill="#985339"/>
<path d="M109.83 39.2952C109.83 39.2952 110.604 38.6533 110.633 39.0835C110.662 39.5157 110.202 39.721 109.83 39.2952Z" fill="#985339"/>
<path d="M103.881 37.428C103.881 37.966 103.656 38.4009 103.378 38.4009C103.101 38.4009 102.877 37.966 102.877 37.428C102.877 36.892 103.101 36.4564 103.378 36.4564C103.656 36.4567 103.881 36.892 103.881 37.428Z" fill="#EA882B"/>
<path d="M103.675 37.428C103.675 37.7482 103.542 38.0062 103.378 38.0062C103.214 38.0062 103.08 37.7482 103.08 37.428C103.08 37.1096 103.214 36.8513 103.378 36.8513C103.542 36.8513 103.675 37.1098 103.675 37.428Z" fill="#B16327"/>
<path d="M116.505 37.428C116.505 37.966 116.281 38.4009 116.004 38.4009C115.725 38.4009 115.502 37.966 115.502 37.428C115.502 36.892 115.725 36.4564 116.004 36.4564C116.281 36.4567 116.505 36.892 116.505 37.428Z" fill="#EA882B"/>
<path d="M116.302 37.428C116.302 37.7482 116.169 38.0062 116.005 38.0062C115.84 38.0062 115.706 37.7482 115.706 37.428C115.706 37.1096 115.84 36.8513 116.005 36.8513C116.169 36.8513 116.302 37.1098 116.302 37.428Z" fill="#B16327"/>
<path d="M102.876 30.2918C102.876 30.2918 103.287 32.5056 103.674 28.9756C104.663 20.0198 111.853 25.5676 114.13 20.4511L113.366 10.2651C113.366 10.2651 113.677 8.18494 111.732 8.18494C106.419 8.18494 101.269 11.3567 102.591 29.7518C102.591 29.7518 102.591 29.7518 102.876 30.2918Z" fill="#2B1116"/>
<path d="M116.553 30.2918C116.553 30.2918 115.985 32.5324 115.37 29.1282C114.847 26.2369 114.203 24.0742 113.782 20.0198L109.716 11.234C109.716 11.234 109.969 8.72492 111.287 9.05317C112.735 9.41228 118.055 11.6033 116.839 29.7518C116.839 29.7518 116.839 29.7518 116.553 30.2918Z" fill="#2B1116"/>
<path d="M115.368 29.1282C115.984 32.5327 116.552 30.2918 116.552 30.2918C116.837 29.7518 116.837 29.7518 116.837 29.7518C116.917 28.5678 116.967 27.4576 116.994 26.4076C116.654 26.3316 116.168 23.9969 115.704 20.3091C114.946 14.2822 113.433 13.8291 113.433 13.8291L112.576 16.1709L112.606 17.4816L113.781 20.02C114.201 24.0742 114.845 26.2367 115.368 29.1282Z" fill="#1C0C0E"/>
<path d="M116.634 67.8625C116.634 67.8625 117.927 63.0717 116.301 57.0221C116.301 57.0221 116.837 52.2641 115.502 50.9883L115.461 51.0079C115.456 51.0887 115.449 51.169 115.444 51.2492C115.417 51.5694 115.351 51.9012 115.259 52.165C115.134 52.5259 114.962 52.9334 114.749 53.1099C114.514 53.3107 114.3 53.4857 114.034 53.4508C113.864 53.429 113.689 53.3861 113.525 53.2985C113.214 53.1323 112.967 52.7187 112.823 52.197L112.769 52.2235C112.769 52.2235 112.751 55.4759 113.367 57.903C113.367 57.903 112.271 62.5519 114.203 68.7674C114.203 68.7674 112.975 76.1752 114.12 79.6332C114.12 79.6332 114.424 80.7852 115.443 80.6611C115.443 80.6611 116.652 80.62 116.886 79.8369C117.118 79.0559 117.938 77.4911 116.634 67.8625Z" fill="#2B1116"/>
<path d="M115.315 70.5381C115.315 70.5381 116.036 69.8818 116.64 67.9027C116.638 67.8865 116.637 67.8758 116.635 67.8627C116.635 67.8627 117.401 65.0169 117.009 60.9438C116.7 62.6227 116.176 64.7436 115.421 65.4745C115.421 65.4745 113.875 63.3636 113.083 60.328C112.99 62.2847 113.119 65.2796 114.203 68.7676C114.203 68.7676 114.199 68.7895 114.194 68.8245C114.433 69.3998 114.787 70.0183 115.315 70.5381Z" fill="#1C0C0E"/>
<path d="M116.886 79.8371C117.071 79.2165 117.625 78.0981 117.192 72.8387C116.887 76.8611 116.427 79.6204 115.718 78.9333C115.147 78.3806 114.357 73.9269 113.9 71.0613C113.63 73.5312 113.382 77.4021 114.12 79.6327C114.12 79.6327 114.424 80.7854 115.443 80.6613C115.443 80.6613 116.652 80.6202 116.886 79.8371Z" fill="#1C0C0E"/>
<path d="M116.32 57.0869C116.312 57.0657 116.308 57.0433 116.302 57.0222C116.302 57.0222 116.601 54.3575 116.194 52.4824C115.93 54.088 115.478 56.066 114.87 55.968C114.16 55.8542 113.348 54.6604 112.798 53.4453C112.849 54.5946 112.985 56.35 113.347 57.8233C113.793 58.6915 114.459 59.5111 115.443 60.1253C115.443 60.1255 115.988 59.3029 116.32 57.0869Z" fill="#1C0C0E"/>
<path d="M114.098 20.0081L113.588 13.2086C113.256 14.8457 112.466 16.2237 110.829 16.5828C107.832 17.2421 104.06 21.3339 104.06 21.3339C104.824 15.2628 107.019 11.0881 108.779 8.60791C104.704 9.93058 101.52 14.8352 102.591 29.7517C102.591 29.7517 102.591 29.7517 102.877 30.2917C102.877 30.2917 103.288 32.5055 103.675 28.9755C104.628 20.3441 111.34 25.1822 113.864 20.9659C113.949 20.6588 114.027 20.3386 114.098 20.0081Z" fill="#1C0C0E"/>
<path d="M116.408 88.51C115.556 90.2318 114.6 85.285 114.18 82.7472C113.861 84.7927 113.671 87.7625 114.291 91.1993C114.291 91.1993 114.767 93.9621 114.641 95.9164C114.641 95.9164 115.736 94.2933 115.913 89.7792C115.913 89.7792 115.866 93.4889 115.492 95.1079C115.492 95.1079 117.865 88.2343 117.321 82.7047C117.238 84.7845 117.008 87.2935 116.408 88.51Z" fill="#1C0C0E"/>
<path d="M97.5899 124.524C97.5899 124.524 109.226 140.56 120.933 124.524C120.933 124.524 121.383 129.843 121.512 134.628C121.512 134.628 123.454 173.786 108.828 173.786C96.3482 173.786 97.4662 132.208 97.4662 132.208L97.5899 124.524Z" fill="#52B750"/>
<path d="M108.828 167.185C99.3323 167.185 97.7107 143.126 97.4765 131.611L97.4662 132.208C97.4662 132.208 96.3482 173.786 108.828 173.786C121.918 173.786 121.737 142.42 121.556 135.835C121.263 147.254 119.263 167.185 108.828 167.185Z" fill="#3C9344"/>
<path d="M109.893 221.01C109.544 221.477 109.155 221.848 108.751 222.17C108.449 222.408 108.139 222.625 107.833 222.824C107.063 223.335 106.276 223.851 105.461 223.89C105.147 223.912 104.806 223.835 104.569 223.43C104.397 223.129 104.317 222.692 104.313 222.242C105.169 220.748 105.93 219.062 106.565 217.21C106.474 216.649 106.38 216.088 106.285 215.528C106.179 214.918 106.071 214.303 105.959 213.697C107.098 213.653 108.239 213.504 109.375 213.293C109.226 215.191 109.132 217.11 109.483 218.891C109.627 219.595 109.758 220.306 109.893 221.01Z" fill="#D0836A"/>
<path d="M110.365 226.115C110.145 227.074 109.429 227.835 108.931 228.079C107.999 228.529 107.029 227.58 106.07 227.741C105.137 227.896 104.337 229.066 103.43 229.516C102.52 229.971 101.659 229.626 100.803 228.867C100.354 228.467 99.9396 227.918 99.5847 227.252C99.5759 227.235 99.5705 227.224 99.5617 227.208C99.5186 227.124 99.4786 227.035 99.4556 226.925C99.4497 226.892 99.4443 226.874 99.4414 226.869C99.4473 226.869 99.4531 226.858 99.4644 226.836C99.5387 226.149 99.7875 225.588 100.025 225.061C100.065 224.972 100.119 224.889 100.145 224.989C100.237 225.016 100.325 225.066 100.414 225.111C101.799 225.782 102.92 224.551 103.947 222.88C104.073 222.675 104.193 222.453 104.313 222.243C104.317 222.692 104.397 223.129 104.568 223.43C104.805 223.835 105.146 223.912 105.461 223.89C106.276 223.851 107.063 223.335 107.833 222.825C108.139 222.625 108.448 222.409 108.751 222.17C109.155 221.848 109.544 221.477 109.892 221.01C109.961 221.36 110.03 221.715 110.096 222.064C110.305 223.202 110.639 224.917 110.365 226.115Z" fill="#1688C3"/>
<path d="M116 222.642C115.998 223.296 115.932 224.001 115.688 224.455C115.483 224.833 115.185 224.966 114.902 224.939C114.247 224.872 113.675 224.068 113.199 223.185C113.071 222.947 112.945 222.697 112.828 222.442C112.442 221.632 112.101 220.749 111.807 219.806C111.829 219.679 111.855 219.557 111.875 219.435C112.244 217.276 112.216 214.951 112.135 212.671C113.286 212.377 114.438 212.077 115.597 212.005C115.448 212.954 115.283 213.886 115.177 214.825C115.068 215.789 115.025 216.761 115.134 217.765C115.251 218.841 115.44 220.228 115.82 221.071C115.863 221.166 115.903 221.266 115.946 221.36C115.981 221.787 116 222.215 116 222.642Z" fill="#D0836A"/>
<path d="M119.077 227.713C119.06 228.196 118.914 228.678 118.711 228.983C118.425 229.416 118.053 229.566 117.692 229.666C117.16 229.804 116.631 229.971 116.11 230.187C115.392 230.482 114.62 230.543 113.948 229.977C113.376 229.488 112.903 228.573 112.297 228.296C112.028 228.18 111.736 228.18 111.507 227.891C111.275 227.597 111.155 227.07 111.084 226.553C110.875 225.122 110.966 223.835 111.232 222.47C111.413 221.571 111.633 220.705 111.808 219.806C112.102 220.749 112.442 221.632 112.829 222.442C112.946 222.697 113.072 222.947 113.2 223.186C113.676 224.068 114.248 224.872 114.903 224.939C115.186 224.967 115.484 224.833 115.689 224.456C115.932 224.001 115.999 223.296 116.001 222.642C116.001 222.215 115.981 221.787 115.947 221.36C116.285 222.143 116.585 222.953 116.845 223.857C116.977 224.312 117.146 224.822 117.337 225.178C117.529 225.538 117.75 225.837 117.99 226.065C118.173 226.237 118.37 226.37 118.55 226.553C118.734 226.742 118.948 226.753 119.028 227.119C119.072 227.308 119.086 227.513 119.077 227.713Z" fill="#1688C3"/>
<path d="M110.364 226.115C110.144 227.075 109.429 227.835 108.931 228.079C107.999 228.529 107.029 227.58 106.07 227.741C105.137 227.896 104.336 229.066 103.43 229.516C102.52 229.971 101.659 229.626 100.803 228.867C100.354 228.467 99.9394 227.918 99.5845 227.252C99.5757 227.235 99.5703 227.224 99.5615 227.208C99.7302 227.369 99.8847 227.768 100.105 228.007C100.491 228.423 100.929 228.662 101.367 228.749C102.122 228.906 102.883 228.656 103.627 228.362C104.136 228.162 104.651 227.935 105.115 227.48C105.349 227.246 105.569 226.958 105.815 226.775C106.23 226.47 106.691 226.498 107.134 226.414C107.575 226.337 108.047 226.109 108.339 225.455C108.616 224.828 108.666 223.946 108.705 223.125C108.719 222.808 108.734 222.486 108.751 222.17C108.785 221.42 108.82 220.677 108.857 219.928C108.693 219.767 108.514 219.69 108.333 219.701C108.465 219.701 108.368 215.656 108.287 215.129C107.618 215.178 106.946 215.311 106.285 215.528C106.179 214.918 106.07 214.302 105.959 213.697C107.097 213.653 108.239 213.503 109.374 213.293C109.226 215.19 109.132 217.11 109.484 218.89C109.626 219.595 109.758 220.306 109.892 221.01C109.961 221.36 110.03 221.715 110.096 222.064C110.304 223.202 110.639 224.917 110.364 226.115Z" fill="#D8BEB9"/>
<path d="M119.077 227.713C119.06 228.196 118.914 228.678 118.711 228.983C118.425 229.416 118.053 229.566 117.692 229.665C117.16 229.804 116.631 229.971 116.11 230.187C115.392 230.482 114.62 230.543 113.948 229.977C113.376 229.488 112.903 228.573 112.297 228.295C112.028 228.18 111.736 228.18 111.507 227.891C111.275 227.597 111.155 227.069 111.084 226.553C110.875 225.122 110.966 223.835 111.232 222.47C111.413 221.571 111.633 220.705 111.808 219.806C111.83 219.679 111.856 219.557 111.876 219.435C112.245 217.276 112.216 214.952 112.136 212.671C113.287 212.377 114.439 212.077 115.598 212.006C115.449 212.954 115.283 213.887 115.178 214.825C114.622 214.813 113.833 214.652 113.481 215.373C113.418 215.501 113.401 215.69 113.387 215.861C113.2 218.059 113.014 220.251 112.829 222.443C112.771 223.114 112.715 223.785 112.657 224.456C112.628 224.795 112.597 225.138 112.603 225.483C112.617 227.152 113.395 228.473 114.219 228.962C115 229.428 115.844 229.345 116.645 229.028C117.446 228.712 118.218 228.18 119.005 227.746C119.028 227.735 119.051 227.724 119.077 227.713Z" fill="#D8BEB9"/>
<path d="M111.197 28.0973C111.51 28.7831 111.988 28.9542 112.856 29.3955C113.614 29.7804 114.125 30.2846 114.393 31.0573C114.424 31.1439 114.492 31.0929 114.483 30.9895C114.436 30.4473 114.242 29.7635 113.482 28.8993C112.878 28.2135 112.449 28.1817 111.726 27.536C111.411 27.2544 110.875 27.3931 111.197 28.0973Z" fill="#1C0C0E"/>
<path d="M108.28 28.0973C107.967 28.7831 107.489 28.9542 106.621 29.3955C105.864 29.7804 105.352 30.2846 105.084 31.0573C105.054 31.1439 104.985 31.0929 104.994 30.9895C105.041 30.4473 105.235 29.7635 105.996 28.8993C106.599 28.2135 107.028 28.1817 107.751 27.536C108.066 27.2544 108.602 27.3931 108.28 28.0973Z" fill="#1C0C0E"/>
<path d="M111.021 33.7587C111.021 33.7587 111.376 31.6975 112.441 31.6924C113.507 31.6873 113.927 33.5656 113.927 33.5656C113.927 33.5656 113.652 35.5633 112.488 35.5735C111.404 35.5829 111.021 33.7587 111.021 33.7587Z" fill="white"/>
<path d="M110.993 33.6355C110.993 33.6355 110.982 32.5617 111.237 31.8082C111.492 31.0542 112.301 30.044 113.298 30.9655C114.296 31.887 114.076 33.6177 114.076 33.6177C114.076 33.6177 113.651 31.7413 112.441 31.6922C111.48 31.6533 110.993 33.6355 110.993 33.6355Z" fill="#D98B76"/>
<path d="M113.188 33.8391C113.258 32.9889 112.96 32.1887 112.522 32.0518C112.083 31.9149 111.671 32.4931 111.6 33.3433C111.529 34.1936 111.828 34.994 112.266 35.1309C112.704 35.2676 113.117 34.6893 113.188 33.8391Z" fill="#2B1116"/>
<path d="M111.94 33.4492C111.98 32.9625 112.216 32.6316 112.467 32.7098C112.718 32.7885 112.889 33.2463 112.848 33.7329C112.808 34.2198 112.572 34.5509 112.321 34.4725C112.07 34.394 111.899 33.936 111.94 33.4492Z" fill="#1C0C0E"/>
<path d="M112.615 32.85C112.631 32.6449 112.731 32.5053 112.837 32.5383C112.943 32.5714 113.015 32.7647 112.998 32.9698C112.981 33.1749 112.881 33.3147 112.775 33.2816C112.67 33.2484 112.598 33.0551 112.615 32.85Z" fill="white"/>
<path d="M111.02 33.7587C111.086 33.8325 111.141 33.0172 111.713 32.2147C112.084 31.6949 112.809 31.4747 113.297 32.2653C113.67 32.87 113.77 33.6551 113.77 33.6551C113.77 33.6551 113.616 34.5824 113.135 35.1258C112.729 35.5852 112.302 35.4962 112.316 35.5592C112.344 35.6812 112.781 35.75 113.217 35.374C113.567 35.0727 113.95 34.4349 114.076 33.618C114.102 33.1164 113.498 31.3764 112.715 31.2629C111.931 31.1493 111.473 32.0183 111.238 32.6736C111.003 33.3287 110.952 33.6809 111.02 33.7587Z" fill="#1C0C0E"/>
<path d="M107.309 33.4492C107.269 32.9625 107.033 32.6316 106.782 32.7098C106.531 32.7885 106.36 33.2463 106.4 33.7329C106.441 34.2198 106.677 34.5509 106.928 34.4725C107.179 34.394 107.35 33.936 107.309 33.4492Z" fill="#1C0C0E"/>
<path d="M108.457 33.7587C108.457 33.7587 108.102 31.6975 107.037 31.6924C105.972 31.6873 105.551 33.5656 105.551 33.5656C105.551 33.5656 105.826 35.5633 106.991 35.5735C108.075 35.5829 108.457 33.7587 108.457 33.7587Z" fill="white"/>
<path d="M108.484 33.6355C108.484 33.6355 108.495 32.5617 108.24 31.8082C107.986 31.0542 107.177 30.044 106.179 30.9655C105.181 31.887 105.401 33.6177 105.401 33.6177C105.401 33.6177 105.827 31.7413 107.036 31.6922C107.997 31.6533 108.484 33.6355 108.484 33.6355Z" fill="#D98B76"/>
<path d="M106.291 33.8391C106.22 32.9889 106.518 32.1887 106.957 32.0518C107.395 31.9149 107.808 32.4931 107.878 33.3433C107.949 34.1936 107.65 34.994 107.212 35.1309C106.774 35.2676 106.361 34.6893 106.291 33.8391Z" fill="#2B1116"/>
<path d="M107.093 32.85C107.076 32.6449 106.976 32.5053 106.87 32.5383C106.765 32.5714 106.692 32.7647 106.71 32.9698C106.727 33.1749 106.826 33.3147 106.932 33.2816C107.038 33.2484 107.11 33.0551 107.093 32.85Z" fill="white"/>
<path d="M108.458 33.7587C108.393 33.8325 108.338 33.0172 107.765 32.2147C107.394 31.6949 106.669 31.4747 106.182 32.2653C105.808 32.87 105.709 33.6551 105.709 33.6551C105.709 33.6551 105.863 34.5824 106.343 35.1258C106.749 35.5852 107.177 35.4962 107.163 35.5592C107.135 35.6812 106.698 35.75 106.262 35.374C105.912 35.0727 105.528 34.4349 105.403 33.618C105.376 33.1164 105.981 31.3764 106.764 31.2629C107.547 31.1493 108.006 32.0183 108.241 32.6736C108.475 33.3287 108.527 33.6809 108.458 33.7587Z" fill="#1C0C0E"/>
<path d="M109.74 42.4158C109.136 42.4158 107.881 43.6424 107.881 43.6424C107.881 43.6424 108.653 44.8335 109.74 44.8335C110.826 44.8335 111.598 43.6424 111.598 43.6424C111.598 43.6424 110.332 42.4158 109.74 42.4158Z" fill="#522B3B"/>
<path d="M109.74 43.7153C109.037 43.7153 108.699 44.0636 108.699 44.0636L109.74 44.484L110.78 44.0636C110.78 44.0636 110.443 43.7153 109.74 43.7153Z" fill="#EC5F76"/>
<path d="M108.483 43.2322C108.483 43.2322 109.182 43.1218 109.739 43.1218C110.296 43.1218 110.994 43.2322 110.994 43.2322C110.994 43.2322 110.748 42.4158 109.738 42.4158C108.728 42.4158 108.483 43.2322 108.483 43.2322Z" fill="white"/>
<path d="M111.597 43.6422C110.357 43.6422 110.185 44.1751 109.74 44.1751C109.294 44.1751 109.122 43.6422 107.882 43.6422C107.882 43.6422 108.355 45.6789 109.739 45.6795V45.6797L109.74 45.6795V45.6797L109.74 45.6795C111.124 45.6789 111.597 43.6422 111.597 43.6422Z" fill="#CA406D"/>
<path d="M110.435 41.8821C110.133 41.701 109.885 42.003 109.739 42.003C109.593 42.003 109.345 41.701 109.044 41.8821C108.742 42.0632 107.794 43.5529 107.881 43.6423C108.109 43.8436 108.6 42.6789 109.739 42.7525C110.878 42.6789 111.37 43.8438 111.598 43.6423C111.685 43.5529 110.736 42.0632 110.435 41.8821Z" fill="#A42046"/>
<path d="M109.74 45.6037C109.004 45.6037 108.643 45.1271 108.643 45.1271C108.744 45.5879 109.467 45.8704 109.74 45.8704C110.013 45.8704 110.736 45.5879 110.837 45.1271C110.837 45.1271 110.475 45.6037 109.74 45.6037Z" fill="#A42046"/>
</svg>
