<svg width="220" height="240" viewBox="0 0 220 240" fill="none" xmlns="http://www.w3.org/2000/svg">
<path fill-rule="evenodd" clip-rule="evenodd" d="M102.431 59.2022C97.0987 63.3444 93.368 59.9459 91.1778 79.3153C90.2684 87.378 88.5211 98.9645 88.0093 106.337C86.8672 122.732 93.256 120.734 94.1346 112.166C94.773 106.129 98.339 78.417 99.5138 72.511C100.011 70.6033 103.604 58.2463 102.431 59.2022Z" fill="#08233F"/>
<path fill-rule="evenodd" clip-rule="evenodd" d="M117.841 59.2805C123.085 63.824 126.882 60.7109 128.68 80.2321C129.426 88.3571 130.938 100.067 131.301 107.473C132.112 123.942 125.768 121.461 125.063 112.833C124.547 106.752 121.543 78.7907 120.488 72.8003C120.028 70.8563 116.688 58.2367 117.841 59.2805Z" fill="#08233F"/>
<path d="M120.669 182.434C120.285 172.363 119.582 161.584 119.582 161.584L110.52 182.434H120.669Z" fill="#E2BE81"/>
<path d="M108.892 182.434L99.7227 162.146C99.7227 162.146 100.351 172.505 99.9779 182.434H108.892Z" fill="#E2BE81"/>
<path d="M99.8154 182.434C99.5895 179.978 99.4619 178.314 99.4619 178.314C99.6364 179.812 99.8085 181.175 99.9772 182.434H100.954C100.381 177.532 99.9806 173.257 99.9806 173.257L101.454 153.942L103.156 148.465L102.337 144.599C101.14 145.421 100.31 146.237 100.31 146.237C100.31 146.237 99.8682 153.58 99.7215 162.146C99.7215 162.146 100.35 172.505 99.9772 182.434H99.8154Z" fill="#CB9C5A"/>
<path d="M120.075 182.434H120.671C120.325 173.351 119.72 163.693 119.605 161.888C119.369 165.758 119.071 170.796 119.105 171.158C119.145 171.579 119.736 178.475 120.075 182.434Z" fill="#CB9C5A"/>
<path d="M102.547 111.071C101.207 116.556 100.112 121.95 99.7491 125.888C99.7491 125.888 98.2585 141.353 99.6352 160.02C100.282 168.786 101.305 176.84 101.816 182.434H117.205C117.717 176.84 118.739 168.786 119.385 160.02C120.764 141.353 119.272 125.888 119.272 125.888C118.909 121.95 117.815 116.556 116.475 111.071C114.264 102.017 117.427 91.6924 117.427 91.6924C121.413 80.1217 121.308 67.5317 121.31 64.398C121.313 61.5187 120.991 60.92 120.991 60.92C120.11 60.3209 114.528 57.1971 114.528 57.1971L109.511 57.2111H104.438C104.438 57.2111 98.9112 60.3209 98.0297 60.92C98.0297 60.92 97.71 61.5184 97.7129 64.398C97.7149 67.5317 97.6078 80.1217 101.593 91.6924C101.594 91.6924 104.758 102.017 102.547 111.071Z" fill="#BC725B"/>
<path d="M97.4801 113.398C97.4801 113.398 97.7549 123.968 97.7143 127.669C97.6815 130.501 99.9143 163.515 99.9783 180.656L120.671 181.71C120.719 164.575 121.713 127.45 120.844 122.486C120.844 122.486 121.139 112.954 122.297 113.2C123.455 113.448 120.694 108.708 121.393 107.598C122.092 106.486 126.193 101.619 126.383 82.7273L91.877 95.5248C91.877 95.5248 92.9271 109.696 93.4531 113.398C93.4531 113.398 96.0164 114.88 97.4801 113.398Z" fill="#16355A"/>
<path d="M126.362 72.5417L94.0201 86.1456L91.9922 86.051C92.1252 89.1799 92.3589 94.5168 92.6131 99.635C92.9304 99.4869 93.2291 99.2949 93.4525 99.0535C93.4525 99.0535 94.2929 100.214 95.2179 99.8853C96.1438 99.5555 96.9055 99.7797 97.7137 99.0535C97.7137 99.0535 98.0569 100.468 98.6284 101.291C99.1984 102.116 108.648 99.4807 110.331 98.1635C110.331 98.1635 111.846 102.616 112.356 102.696C112.865 102.772 116.284 97.6101 117.547 92.11C117.547 92.11 118.977 97.0115 119.487 97.0115C119.995 97.0115 121.871 90.0535 121.871 90.0535C121.871 90.0535 124.461 92.7641 126.038 93.6789C126.18 87.5177 126.279 80.1004 126.362 72.5417Z" fill="#08233F"/>
<path d="M111.921 43.3787H109.587H107.251C107.366 55.3549 104.534 57.8233 104.534 57.8233C106.33 63.8727 109.587 63.5047 109.587 63.5047C109.587 63.5047 112.842 63.8725 114.64 57.8233C114.64 57.8236 111.806 55.3549 111.921 43.3787Z" fill="#BC725B"/>
<path d="M112.886 53.8664C112.431 52.0557 112.041 49.4746 111.943 45.8462H109.552H107.23C107.172 48.0269 107.01 49.8311 106.788 51.3149C107.884 52.5742 110.227 54.7227 112.886 53.8664Z" fill="#A45E4C"/>
<path d="M109.581 72.4204C107.318 69.1097 105.472 57.2113 105.3 56.6717C105.126 56.1335 104.536 56.2131 104.536 56.2131C102.177 57.6993 96.2984 61.827 96.0026 62.0731C96.0026 62.0731 94.9397 62.3953 93.9219 63.8762C92.903 65.3579 92.1374 71.5015 92.1374 76.8528C92.1374 82.2021 91.3298 99.9024 90.7783 102.369C90.7783 102.369 91.7977 104.345 93.453 104.841C93.453 104.841 92.9426 108.955 93.2404 109.614C93.5376 110.272 104.173 110.709 110.094 102.313C110.094 102.313 111.982 106.017 112.111 106.099C112.238 106.183 115.293 105.771 117.119 102.56C117.119 102.56 118.478 104.208 118.943 104.043C119.411 103.877 121.152 97.3742 122.127 96.6336C122.127 96.6336 123.146 98.1984 123.655 98.0318C124.164 97.8679 127.305 89.555 127.518 85.9324C127.518 85.9324 127.084 70.2679 126.193 66.5633C125.301 62.8588 122.366 62.9066 120.753 60.5066C120.753 60.5066 119.796 59.7818 119.243 59.3704C118.692 58.9555 115.878 57.0106 114.689 56.2133C114.344 56.0964 114.123 56.0022 114.012 56.9326C112.789 67.241 109.581 72.4204 109.581 72.4204Z" fill="#1688C3"/>
<path d="M122.173 61.9579C121.827 61.6939 121.495 61.4093 121.192 61.0719C120.28 66.1748 118.156 72.7344 113.229 77.0955C113.229 77.0955 118.96 80.0948 122.173 61.9579Z" fill="#126A8D"/>
<path d="M127.518 85.9316C127.518 85.9316 127.084 70.2672 126.193 66.5628C126.083 66.1088 125.953 65.7006 125.81 65.3248C113.929 102.251 100.132 104.734 93.3175 106.075C93.1919 107.344 93.0496 109.191 93.2403 109.613C93.5375 110.272 104.173 110.709 110.094 102.313C110.094 102.313 111.982 106.017 112.111 106.099C112.238 106.182 115.294 105.771 117.119 102.56C117.119 102.56 117.153 102.601 117.211 102.669C120.475 98.4638 123.668 94.3275 126.563 90.539C127.064 88.8014 127.447 87.1179 127.518 85.9316Z" fill="#126A8D"/>
<path d="M123.252 215.905C123.229 215.962 123.206 216.013 123.183 216.065C123.1 216.244 123.002 216.411 122.909 216.571C122.875 216.634 122.839 216.692 122.803 216.757C122.734 216.866 122.66 216.975 122.581 217.078C122.548 217.123 122.515 217.167 122.478 217.206C122.39 217.308 122.301 217.411 122.204 217.5C122.039 217.661 121.863 217.802 121.682 217.923C121.652 217.95 121.619 217.969 121.586 217.987C121.573 218.001 121.559 218.007 121.547 218.013C121.728 217.77 121.91 217.52 122.062 217.225C122.079 217.193 122.098 217.155 122.115 217.116C122.217 216.898 122.27 216.692 122.326 216.43C122.346 216.339 122.366 216.25 122.369 216.154C122.373 216.071 122.363 215.986 122.353 215.911C122.303 215.475 122.231 215.307 122.022 215.134C120.518 213.858 118.848 213.461 117.208 213.512C117.102 213.519 116.997 213.519 116.891 213.531C115.551 213.614 114.219 213.961 112.89 214.301C112.695 214.352 112.503 214.404 112.308 214.448C111.442 214.666 110.573 214.859 109.7 215.019C108.387 215.262 107.067 215.436 105.752 215.487C103.9 215.564 102.055 215.41 100.224 214.922C99.8302 214.82 99.4069 214.519 99.0563 214.089C99.0236 214.051 98.9869 214.006 98.9542 213.968C98.9009 213.898 98.8515 213.826 98.8016 213.749C98.7488 213.082 98.719 212.506 99.0368 212.229C99.642 211.704 100.071 210.87 100.392 209.876C100.709 208.895 100.924 207.761 101.103 206.626C101.53 203.855 101.592 200.906 101.43 198.045C101.186 193.71 100.461 189.549 99.8429 185.355C99.5555 183.425 99.2944 181.476 99.0495 179.521C99.003 179.155 98.9571 178.784 98.9141 178.417C97.4758 166.389 97.0856 154.019 98.0746 141.811C98.1074 141.368 98.1436 140.931 98.1837 140.489C98.7782 141.715 99.6014 142.721 100.237 143.497C101.318 144.824 102.502 145.831 103.735 146.465C106.221 147.754 108.923 147.491 111.257 145.28C112.367 144.221 113.392 142.843 114.351 141.309C115.201 139.957 115.938 138.488 116.927 137.565C117.122 138.11 117.304 138.674 117.476 139.245C120.759 150.063 121.956 162.938 121.662 175.474C121.556 180.091 121.255 184.753 121.04 189.363C120.696 196.795 121.38 204.4 123.007 211.172C123.199 211.96 123.404 212.755 123.483 213.621C123.556 214.404 123.511 215.263 123.252 215.905Z" fill="#16355A"/>
<path d="M107.907 185.557C105.689 180.734 103.75 175.429 102.137 169.773C103.517 177.789 105.782 185.249 109.031 190.878C108.737 189.031 108.571 187 107.907 185.557Z" fill="#126A8D"/>
<path d="M103.637 204.58C103.412 205.85 102.992 206.991 102.44 207.806C101.825 208.71 101.078 209.203 100.394 209.876C100.711 208.895 100.926 207.761 101.105 206.626C101.531 203.855 101.594 200.906 101.432 198.046C101.187 193.711 100.463 189.549 99.8442 185.356C99.5568 183.426 99.2957 181.476 99.0508 179.521C99.2757 179.893 99.3754 181.143 99.4575 181.572C99.679 182.772 99.9039 183.972 100.145 185.157C100.635 187.569 101.174 189.941 101.818 192.21C102.367 194.154 102.995 196.026 103.405 198.091C103.819 200.156 104.004 202.483 103.637 204.58Z" fill="#126A8D"/>
<path d="M108.027 104.736C107.94 104.813 107.859 104.894 107.777 104.972C107.861 104.894 107.945 104.813 108.028 104.734C108.028 104.734 108.028 104.736 108.027 104.736Z" fill="#CEB650"/>
<path d="M110.121 102.367C110.35 102.812 111.992 106.023 112.11 106.099C112.237 106.183 115.293 105.771 117.118 102.56C117.118 102.56 118.477 104.208 118.943 104.043C119.41 103.877 121.151 97.3742 122.126 96.6336C122.126 96.6336 123.145 98.1984 123.654 98.0318C124.163 97.8679 127.304 89.555 127.517 85.9324C127.517 85.9324 127.083 70.2679 126.192 66.5634C126.192 66.5631 118.818 91.5847 110.121 102.367Z" fill="#025881"/>
<path d="M123.484 213.622C123.556 214.404 123.51 215.263 123.252 215.905C123.229 215.962 123.206 216.013 123.183 216.065C123.1 216.244 123.001 216.411 122.908 216.571C122.876 216.634 122.839 216.692 122.802 216.757C122.733 216.866 122.66 216.975 122.58 217.078C122.548 217.123 122.515 217.167 122.478 217.206C122.389 217.308 122.3 217.411 122.204 217.5C122.039 217.661 121.863 217.802 121.682 217.923C121.651 217.95 121.618 217.969 121.585 217.987C121.572 218.001 121.559 218.007 121.546 218.013C121.728 217.77 121.91 217.52 122.062 217.225C122.078 217.193 122.098 217.155 122.114 217.116C122.217 216.898 122.27 216.692 122.326 216.43C122.346 216.339 122.366 216.25 122.369 216.154C122.372 216.071 122.362 215.986 122.353 215.911C122.303 215.475 122.23 215.307 122.022 215.134C120.517 213.858 118.848 213.461 117.208 213.512C117.102 213.519 116.996 213.519 116.891 213.531C115.551 213.614 114.219 213.961 112.89 214.301C112.694 214.352 112.503 214.404 112.308 214.448C111.441 214.666 110.572 214.859 109.7 215.019C108.386 215.262 107.067 215.436 105.751 215.487C103.9 215.564 102.055 215.41 100.223 214.922C99.8298 214.82 99.4064 214.519 99.0559 214.089C99.0232 214.051 98.9865 214.006 98.9537 213.968C99.3307 214.057 99.714 214.109 100.091 214.147C105.603 214.699 111.699 212.55 116.659 212.467C116.831 212.236 116.864 211.762 116.831 211.364C116.718 210.095 116.113 209.575 116.077 208.28C115.872 201.284 116.685 194.34 117.029 187.363C117.337 181.117 117.267 174.827 117.113 168.562C116.966 162.913 116.752 157.264 116.292 151.672C116.08 149.101 115.826 146.183 115.052 144.048C111.435 148.37 106.895 149.691 102.782 147.607C102.019 147.222 101.265 146.722 100.58 145.965C99.6211 144.901 98.8281 143.381 98.0742 141.811C98.1075 141.368 98.1436 140.931 98.1832 140.489C98.7782 141.715 99.601 142.721 100.236 143.497C101.318 144.824 102.501 145.831 103.735 146.465C106.221 147.754 108.922 147.491 111.256 145.28C112.367 144.221 113.393 142.843 114.351 141.309C115.201 139.957 115.938 138.488 116.927 137.565C117.122 138.11 117.304 138.674 117.476 139.245C120.759 150.063 121.955 162.938 121.662 175.474C121.556 180.091 121.254 184.753 121.04 189.363C120.696 196.795 121.381 204.4 123.007 211.172C123.199 211.96 123.404 212.755 123.484 213.622Z" fill="#08233F"/>
<path d="M127.103 76.047C126.888 72.1391 126.584 68.194 126.192 66.5631C126.192 66.5631 123.158 76.8603 118.686 87.0884C118.53 87.447 118.369 87.807 118.209 88.1677C118.188 88.215 118.168 88.2596 118.146 88.3062C117.98 88.6772 117.813 89.0468 117.643 89.4137C115.382 94.3199 112.815 99.0267 110.121 102.366C110.198 102.517 110.44 102.992 110.731 103.552C111.654 102.472 113.024 100.81 114.616 98.6777C115.07 99.4943 116.047 101.187 117.096 102.596C117.103 102.587 117.11 102.573 117.118 102.559C117.118 102.559 118.477 104.207 118.943 104.043C119.095 103.988 119.379 103.271 119.725 102.302L116.421 96.1817C117.076 95.2491 117.749 94.2555 118.431 93.2057C119.538 95.0091 120.817 96.591 121.565 97.4687C121.758 97.0813 121.94 96.7913 122.102 96.6548C121.424 94.9055 120.964 92.0393 120.67 89.5933C123.037 85.5819 125.348 80.9821 127.103 76.047Z" fill="#003A51"/>
<path d="M105.299 95.701C98.3177 83.2265 97.4211 68.5257 97.4905 61.0074C96.9884 61.3606 96.5768 61.6522 96.3138 61.8431C94.0067 93.0158 105.299 95.701 105.299 95.701Z" fill="#126A8D"/>
<path d="M102.951 59.4346C102.951 59.4346 106.331 85.4511 114.434 87.6282C114.434 87.6282 104.316 91.4127 102.951 59.4346Z" fill="#126A8D"/>
<path d="M114.863 79.8054C114.863 79.8054 113.112 84.6589 114.291 91.1992C114.291 91.1992 114.767 93.962 114.641 95.9163C114.641 95.9163 115.736 94.2932 115.913 89.7791C115.913 89.7791 115.865 93.4889 115.492 95.1078C115.492 95.1078 118.832 85.4317 116.677 79.8054H114.863Z" fill="#2B1116"/>
<path d="M108.668 78.572C108.668 78.572 114.688 67.8833 115.577 57.1971C115.577 57.1973 115.152 74.566 108.668 78.572Z" fill="#126A8D"/>
<path d="M103.08 36.0079C103.08 36.0079 103.158 42.1093 106.562 45.1487C109.967 48.1895 105.902 36.0079 105.902 36.0079" fill="#2B1116"/>
<path d="M116.3 36.6476C116.3 36.6476 116.778 43.2841 115.347 47.2998C115.347 47.2998 115.718 47.5314 115.347 48.848C115.347 48.848 116.566 52.0583 116.004 54.5276C115.443 56.9967 114.708 57.6032 113.844 56.4778C112.98 55.3518 111.596 50.8274 111.672 46.834C111.749 42.8381 114.463 36.0083 114.463 36.0083L116.3 36.6476Z" fill="#2B1116"/>
<path d="M114.07 45.6372C113.256 45.7188 112.915 44.5281 112.915 44.5281L111.746 45.7774C111.705 46.1464 111.679 46.5017 111.672 46.8337C111.665 47.1675 111.671 47.5066 111.683 47.8448L111.707 48.0255C111.707 48.0255 112.535 51.2184 113.765 52.4824C113.765 52.4824 114.655 51.3103 115.381 48.9426C115.358 48.882 115.347 48.8477 115.347 48.8477C115.718 47.5308 115.347 47.2995 115.347 47.2995C115.86 45.8604 116.127 44.0837 116.259 42.3966C116.018 42.9332 114.802 45.5584 114.07 45.6372Z" fill="#1C0C0E"/>
<path d="M103.555 31.5977C103.555 31.5977 102.6 28.6551 101.636 29.6747C101.096 30.2442 101.861 38.19 103.745 37.5753C103.745 37.5753 104.075 37.3182 104.059 36.0264L103.555 31.5977Z" fill="#D0836A"/>
<path opacity="0.4" d="M102.109 30.6269C102.109 30.6269 101.669 33.7552 102.423 34.3905C102.423 34.3905 102.82 34.5825 102.808 34.9154C102.796 35.2489 103.042 37.4483 103.455 36.6865C103.455 36.6865 103.762 35.6363 103.329 35.3094C102.894 34.9836 103.191 34.9332 103.502 34.0899C103.502 34.0899 102.755 30.3243 102.109 30.6269Z" fill="#A56550"/>
<path d="M102.006 32.9054C101.942 32.347 101.894 31.7766 101.926 31.1772C101.936 31.0277 101.951 30.8724 101.995 30.7119C102.02 30.5477 102.168 30.3746 102.268 30.4364C102.299 30.4343 102.358 30.485 102.403 30.5217C102.449 30.5643 102.477 30.6055 102.513 30.6488C102.579 30.7402 102.64 30.8362 102.695 30.9401C102.921 31.3486 103.101 31.8184 103.263 32.3157C103.344 32.5635 103.414 32.8282 103.474 33.1075C103.531 33.3899 103.592 33.6752 103.573 34.0646L103.568 34.141L103.539 34.1995C103.433 34.4083 103.328 34.6566 103.26 34.8899C103.244 34.9454 103.23 35.0068 103.228 35.045C103.221 35.0971 103.225 35.0704 103.222 35.0833C103.231 35.0977 103.243 35.107 103.296 35.1268C103.331 35.1368 103.379 35.1593 103.437 35.2182C103.635 35.4499 103.649 35.8959 103.606 36.2122C103.566 36.5379 103.454 36.8539 103.293 36.9508C103.432 36.7771 103.499 36.4719 103.51 36.1808C103.519 35.8932 103.468 35.5868 103.362 35.5057C103.349 35.4997 103.34 35.4919 103.328 35.4833L103.267 35.4715C103.24 35.4628 103.169 35.4661 103.108 35.3866C103.041 35.3057 103.01 35.111 103.022 35.0063C103.026 34.8854 103.043 34.7975 103.061 34.7099C103.137 34.3732 103.243 34.1246 103.356 33.8641L103.322 33.9995C103.327 33.8142 103.285 33.5448 103.23 33.307C103.176 33.0617 103.105 32.8246 103.033 32.5886C102.886 32.1211 102.717 31.6662 102.527 31.2723C102.48 31.171 102.428 31.0857 102.378 31.0004C102.354 30.9657 102.325 30.9143 102.305 30.8917C102.283 30.8753 102.281 30.8348 102.237 30.8239C102.195 30.7988 102.183 30.7957 102.147 30.8928C102.117 30.977 102.094 31.1022 102.078 31.2317C102.018 31.7575 102.009 32.3366 102.006 32.9054Z" fill="#985339"/>
<path d="M102.336 33.5942C102.336 33.5942 102.249 33.0073 102.283 32.3708C102.299 32.0555 102.356 31.7204 102.454 31.5064C102.505 31.405 102.553 31.3241 102.593 31.2872C102.631 31.2446 102.653 31.2217 102.653 31.2217L102.742 31.717C102.744 31.7253 102.687 31.7295 102.613 31.8255C102.54 31.921 102.461 32.1517 102.415 32.4248C102.32 32.9751 102.336 33.5942 102.336 33.5942Z" fill="#985339"/>
<path d="M115.85 31.5977C115.85 31.5977 116.807 28.6551 117.768 29.6747C118.309 30.2442 117.545 38.19 115.66 37.5753C115.66 37.5753 115.33 37.3182 115.347 36.0264L115.85 31.5977Z" fill="#D0836A"/>
<path opacity="0.4" d="M117.295 30.6269C117.295 30.6269 117.736 33.7552 116.981 34.3905C116.981 34.3905 116.586 34.5825 116.598 34.9154C116.608 35.2489 116.365 37.4483 115.949 36.6865C115.949 36.6865 115.642 35.6363 116.077 35.3094C116.51 34.9836 116.212 34.9332 115.903 34.0899C115.903 34.0899 116.651 30.3243 117.295 30.6269Z" fill="#A56550"/>
<path d="M117.4 32.9055C117.397 32.3366 117.388 31.7575 117.328 31.2315C117.312 31.1019 117.289 30.9768 117.258 30.8915C117.222 30.797 117.211 30.7986 117.169 30.8237C117.124 30.8346 117.123 30.8751 117.1 30.8915C117.081 30.9142 117.051 30.9655 117.028 31.0001C116.977 31.0855 116.926 31.1708 116.879 31.2713C116.688 31.6659 116.519 32.1208 116.372 32.5877C116.3 32.8246 116.229 33.0604 116.176 33.3061C116.12 33.5448 116.079 33.8142 116.083 33.9986L116.05 33.8642C116.162 34.1253 116.268 34.3746 116.344 34.7106C116.362 34.7982 116.38 34.8864 116.383 35.007C116.395 35.1124 116.362 35.3064 116.297 35.3877C116.236 35.4666 116.164 35.4628 116.137 35.4715L116.076 35.4833C116.065 35.4921 116.055 35.4997 116.043 35.5057C115.938 35.5866 115.885 35.8944 115.895 36.1817C115.905 36.4717 115.972 36.777 116.113 36.9506C115.951 36.8537 115.839 36.5402 115.797 36.2124C115.756 35.8963 115.77 35.4512 115.967 35.2179C116.026 35.1602 116.073 35.1366 116.109 35.1266C116.162 35.107 116.174 35.0977 116.183 35.0846C116.18 35.0701 116.184 35.097 116.178 35.0448C116.175 35.0075 116.161 34.9451 116.144 34.8897C116.076 34.6564 115.972 34.4081 115.867 34.1979L115.837 34.1413L115.834 34.0641C115.812 33.675 115.874 33.3881 115.932 33.1071C115.991 32.8277 116.06 32.5632 116.142 32.3148C116.304 31.8168 116.485 31.3477 116.71 30.9399C116.765 30.8359 116.827 30.7392 116.892 30.648C116.93 30.6052 116.956 30.5642 117.002 30.5215C117.048 30.4846 117.106 30.4342 117.137 30.4361C117.239 30.3744 117.386 30.5475 117.41 30.7117C117.455 30.8721 117.47 31.0272 117.48 31.1771C117.512 31.7755 117.464 32.3468 117.4 32.9055Z" fill="#985339"/>
<path d="M117.069 33.5942C117.069 33.5942 117.085 32.9751 116.99 32.4248C116.944 32.1517 116.866 31.921 116.792 31.8255C116.718 31.7295 116.661 31.7253 116.663 31.717L116.752 31.2217C116.752 31.2217 116.775 31.2448 116.812 31.2872C116.853 31.3241 116.9 31.405 116.951 31.5064C117.05 31.7204 117.107 32.0564 117.122 32.3708C117.155 33.0073 117.069 33.5942 117.069 33.5942Z" fill="#985339"/>
<path d="M109.188 49.292C109.188 49.292 106.234 46.2576 105.223 42.882C104.392 40.516 103.112 29.6636 103.008 27.7909C103.004 27.7278 103 27.6658 102.997 27.6029C102.995 27.5436 102.993 27.5118 102.993 27.5118L102.994 27.5125C102.977 27.1242 102.966 26.7354 102.966 26.3365C102.966 19.1089 105.986 13.2487 109.714 13.2487C113.44 13.2487 116.463 19.1089 116.463 26.3365C116.463 26.8093 116.449 27.2711 116.424 27.7296H116.425C116.425 27.7296 115.114 40.2907 114.204 42.882C113.136 46.7503 110.24 49.292 110.24 49.292C110.24 49.292 109.834 49.8796 109.188 49.292Z" fill="#D0836A"/>
<path d="M109.599 39.2954C109.599 39.2954 108.825 38.6533 108.797 39.0836C108.768 39.5158 109.226 39.7211 109.599 39.2954Z" fill="#985339"/>
<path d="M109.828 39.2954C109.828 39.2954 110.603 38.6533 110.631 39.0836C110.66 39.5158 110.201 39.7211 109.828 39.2954Z" fill="#985339"/>
<path d="M103.881 37.4279C103.881 37.9659 103.656 38.4008 103.378 38.4008C103.101 38.4008 102.877 37.9659 102.877 37.4279C102.877 36.8919 103.101 36.4563 103.378 36.4563C103.656 36.4566 103.881 36.8919 103.881 37.4279Z" fill="#EA882B"/>
<path d="M103.675 37.4279C103.675 37.7482 103.542 38.0062 103.378 38.0062C103.214 38.0062 103.08 37.7482 103.08 37.4279C103.08 37.1095 103.214 36.8513 103.378 36.8513C103.542 36.8513 103.675 37.1098 103.675 37.4279Z" fill="#B16327"/>
<path d="M116.505 37.4279C116.505 37.9659 116.281 38.4008 116.004 38.4008C115.725 38.4008 115.502 37.9659 115.502 37.4279C115.502 36.8919 115.725 36.4563 116.004 36.4563C116.281 36.4566 116.505 36.8919 116.505 37.4279Z" fill="#EA882B"/>
<path d="M116.302 37.4279C116.302 37.7482 116.169 38.0062 116.005 38.0062C115.84 38.0062 115.706 37.7482 115.706 37.4279C115.706 37.1095 115.84 36.8513 116.005 36.8513C116.169 36.8513 116.302 37.1098 116.302 37.4279Z" fill="#B16327"/>
<path d="M102.876 30.2918C102.876 30.2918 103.287 32.5056 103.674 28.9756C104.663 20.0198 111.853 25.5676 114.13 20.4511L113.366 10.2651C113.366 10.2651 113.677 8.18494 111.732 8.18494C106.419 8.18494 101.269 11.3567 102.591 29.7518C102.591 29.7518 102.591 29.7518 102.876 30.2918Z" fill="#2B1116"/>
<path d="M116.553 30.2917C116.553 30.2917 115.985 32.5323 115.369 29.1282C114.846 26.2368 114.202 24.0741 113.782 20.0197L109.715 11.2339C109.715 11.2339 109.968 8.7248 111.287 9.05305C112.734 9.41216 118.054 11.6032 116.838 29.7517C116.838 29.7517 116.838 29.7517 116.553 30.2917Z" fill="#2B1116"/>
<path d="M115.368 29.1283C115.984 32.5328 116.552 30.2919 116.552 30.2919C116.837 29.7519 116.837 29.7519 116.837 29.7519C116.917 28.5679 116.967 27.4577 116.994 26.4076C116.653 26.3317 116.167 23.997 115.704 20.3092C114.946 14.2823 113.433 13.8292 113.433 13.8292L112.576 16.171L112.605 17.4817L113.78 20.0201C114.201 24.0743 114.845 26.2367 115.368 29.1283Z" fill="#1C0C0E"/>
<path d="M116.633 67.8627C116.633 67.8627 117.926 63.0718 116.301 57.0223C116.301 57.0223 116.837 52.2643 115.502 50.9885L115.46 51.0081C115.455 51.0889 115.448 51.1691 115.444 51.2494C115.417 51.5696 115.351 51.9014 115.259 52.1651C115.134 52.526 114.962 52.9336 114.749 53.1101C114.514 53.311 114.3 53.4858 114.033 53.4509C113.863 53.4292 113.689 53.3863 113.524 53.2987C113.213 53.1325 112.967 52.7189 112.822 52.1972L112.768 52.2236C112.768 52.2236 112.751 55.476 113.366 57.9031C113.366 57.9031 112.271 62.5521 114.202 68.7676C114.202 68.7676 112.974 76.1754 114.119 79.6334C114.119 79.6334 114.423 80.7854 115.442 80.6613C115.442 80.6613 116.651 80.6201 116.886 79.8371C117.117 79.056 117.937 77.4912 116.633 67.8627Z" fill="#2B1116"/>
<path d="M115.315 70.5381C115.315 70.5381 116.036 69.8818 116.64 67.9027C116.638 67.8864 116.637 67.8757 116.635 67.8626C116.635 67.8626 117.401 65.0168 117.009 60.9438C116.7 62.6227 116.176 64.7435 115.421 65.4744C115.421 65.4744 113.875 63.3635 113.083 60.328C112.99 62.2846 113.119 65.2795 114.203 68.7676C114.203 68.7676 114.199 68.7895 114.194 68.8245C114.433 69.3998 114.787 70.0183 115.315 70.5381Z" fill="#1C0C0E"/>
<path d="M116.886 79.8371C117.071 79.2165 117.625 78.0981 117.192 72.8387C116.887 76.8611 116.427 79.6204 115.718 78.9333C115.147 78.3806 114.357 73.9269 113.9 71.0613C113.63 73.5312 113.382 77.4021 114.12 79.6327C114.12 79.6327 114.424 80.7854 115.443 80.6613C115.443 80.6613 116.652 80.6202 116.886 79.8371Z" fill="#1C0C0E"/>
<path d="M116.32 57.0869C116.312 57.0657 116.308 57.0433 116.302 57.0222C116.302 57.0222 116.601 54.3575 116.194 52.4824C115.93 54.088 115.478 56.066 114.87 55.968C114.16 55.8542 113.348 54.6604 112.798 53.4453C112.849 54.5946 112.985 56.35 113.347 57.8233C113.793 58.6915 114.459 59.5111 115.443 60.1253C115.443 60.1255 115.988 59.3029 116.32 57.0869Z" fill="#1C0C0E"/>
<path d="M114.098 20.0081L113.588 13.2086C113.256 14.8457 112.466 16.2237 110.829 16.5828C107.831 17.2422 104.06 21.3339 104.06 21.3339C104.824 15.2628 107.019 11.0881 108.779 8.60791C104.704 9.93058 101.52 14.8352 102.592 29.7517C102.592 29.7517 102.592 29.7517 102.877 30.2917C102.877 30.2917 103.288 32.5055 103.675 28.9755C104.628 20.3441 111.34 25.1822 113.864 20.9659C113.949 20.6588 114.027 20.3386 114.098 20.0081Z" fill="#1C0C0E"/>
<path d="M116.408 88.51C115.556 90.2318 114.6 85.285 114.18 82.7472C113.861 84.7927 113.671 87.7625 114.291 91.1993C114.291 91.1993 114.767 93.9621 114.641 95.9164C114.641 95.9164 115.736 94.2933 115.913 89.7792C115.913 89.7792 115.866 93.4889 115.492 95.1079C115.492 95.1079 117.865 88.2343 117.321 82.7047C117.238 84.7845 117.008 87.2935 116.408 88.51Z" fill="#1C0C0E"/>
<path d="M97.5899 124.524C97.5899 124.524 109.226 140.56 120.933 124.524C120.933 124.524 121.383 129.843 121.512 134.628C121.512 134.628 123.454 173.786 108.828 173.786C96.3482 173.786 97.4662 132.208 97.4662 132.208L97.5899 124.524Z" fill="#52B750"/>
<path d="M108.828 167.185C99.3323 167.185 97.7107 143.126 97.4765 131.611L97.4662 132.208C97.4662 132.208 96.3482 173.786 108.828 173.786C121.918 173.786 121.737 142.421 121.556 135.835C121.263 147.254 119.263 167.185 108.828 167.185Z" fill="#3C9344"/>
<path d="M109.893 221.01C109.544 221.477 109.155 221.848 108.751 222.17C108.449 222.408 108.139 222.625 107.833 222.824C107.063 223.335 106.276 223.851 105.461 223.89C105.147 223.912 104.806 223.835 104.569 223.43C104.397 223.129 104.317 222.691 104.313 222.242C105.169 220.748 105.93 219.062 106.565 217.21C106.474 216.649 106.38 216.088 106.285 215.528C106.179 214.918 106.071 214.303 105.959 213.697C107.098 213.653 108.239 213.504 109.375 213.293C109.226 215.191 109.132 217.11 109.483 218.891C109.627 219.595 109.758 220.306 109.893 221.01Z" fill="#D0836A"/>
<path d="M110.365 226.115C110.145 227.075 109.429 227.835 108.931 228.079C107.999 228.529 107.029 227.58 106.07 227.741C105.137 227.896 104.337 229.066 103.43 229.516C102.52 229.971 101.659 229.627 100.803 228.867C100.354 228.467 99.9396 227.918 99.5847 227.253C99.5759 227.235 99.5705 227.224 99.5617 227.208C99.5186 227.125 99.4786 227.036 99.4556 226.925C99.4497 226.892 99.4443 226.875 99.4414 226.869C99.4473 226.869 99.4531 226.859 99.4644 226.837C99.5387 226.149 99.7875 225.588 100.025 225.061C100.065 224.972 100.119 224.889 100.145 224.989C100.237 225.016 100.325 225.067 100.414 225.111C101.799 225.782 102.92 224.551 103.947 222.88C104.073 222.675 104.194 222.453 104.313 222.243C104.317 222.692 104.397 223.129 104.568 223.43C104.805 223.835 105.146 223.912 105.461 223.891C106.277 223.851 107.063 223.335 107.833 222.825C108.139 222.625 108.448 222.409 108.751 222.17C109.155 221.848 109.544 221.477 109.892 221.011C109.961 221.36 110.03 221.715 110.096 222.064C110.305 223.202 110.639 224.917 110.365 226.115Z" fill="#1688C3"/>
<path d="M116 222.642C115.998 223.296 115.931 224.001 115.688 224.455C115.483 224.833 115.185 224.966 114.902 224.939C114.247 224.872 113.675 224.068 113.199 223.186C113.071 222.947 112.945 222.697 112.828 222.442C112.442 221.632 112.101 220.749 111.807 219.806C111.829 219.679 111.855 219.557 111.875 219.435C112.244 217.276 112.215 214.951 112.135 212.671C113.286 212.377 114.438 212.077 115.597 212.006C115.448 212.954 115.283 213.887 115.177 214.825C115.068 215.789 115.025 216.761 115.134 217.765C115.251 218.841 115.44 220.228 115.82 221.071C115.863 221.166 115.903 221.266 115.946 221.36C115.981 221.787 116 222.215 116 222.642Z" fill="#D0836A"/>
<path d="M119.077 227.713C119.06 228.195 118.914 228.678 118.711 228.983C118.425 229.416 118.053 229.566 117.692 229.666C117.16 229.804 116.631 229.971 116.11 230.187C115.392 230.482 114.62 230.543 113.948 229.977C113.376 229.488 112.903 228.573 112.297 228.296C112.028 228.179 111.736 228.179 111.507 227.89C111.275 227.596 111.155 227.07 111.084 226.553C110.875 225.122 110.966 223.835 111.232 222.47C111.413 221.571 111.633 220.705 111.808 219.806C112.102 220.749 112.442 221.632 112.829 222.442C112.946 222.697 113.072 222.947 113.2 223.186C113.676 224.068 114.248 224.872 114.903 224.939C115.186 224.967 115.484 224.833 115.689 224.456C115.932 224.001 115.999 223.296 116.001 222.642C116.001 222.215 115.981 221.787 115.947 221.36C116.285 222.143 116.585 222.953 116.845 223.857C116.977 224.312 117.146 224.822 117.337 225.178C117.529 225.538 117.75 225.837 117.99 226.065C118.173 226.237 118.37 226.37 118.55 226.553C118.734 226.742 118.948 226.753 119.028 227.119C119.072 227.308 119.086 227.513 119.077 227.713Z" fill="#1688C3"/>
<path d="M110.364 226.115C110.144 227.075 109.429 227.835 108.931 228.079C107.999 228.529 107.029 227.58 106.07 227.741C105.137 227.896 104.336 229.066 103.43 229.516C102.52 229.971 101.659 229.626 100.803 228.867C100.354 228.467 99.9394 227.918 99.5845 227.252C99.5757 227.235 99.5703 227.224 99.5615 227.208C99.7302 227.369 99.8847 227.768 100.105 228.007C100.491 228.423 100.929 228.662 101.367 228.749C102.122 228.906 102.883 228.656 103.627 228.362C104.136 228.162 104.651 227.935 105.115 227.48C105.349 227.246 105.569 226.958 105.815 226.775C106.23 226.47 106.691 226.498 107.134 226.414C107.575 226.337 108.047 226.109 108.339 225.455C108.616 224.828 108.666 223.946 108.705 223.125C108.719 222.808 108.734 222.486 108.751 222.17C108.785 221.42 108.82 220.677 108.857 219.928C108.693 219.767 108.514 219.69 108.333 219.701C108.465 219.701 108.368 215.656 108.287 215.129C107.618 215.178 106.946 215.311 106.285 215.528C106.179 214.918 106.07 214.302 105.959 213.697C107.097 213.653 108.239 213.503 109.374 213.293C109.226 215.19 109.132 217.11 109.484 218.89C109.626 219.595 109.758 220.306 109.892 221.01C109.961 221.36 110.03 221.715 110.096 222.064C110.304 223.202 110.639 224.917 110.364 226.115Z" fill="#D8BEB9"/>
<path d="M119.077 227.713C119.06 228.196 118.914 228.678 118.711 228.983C118.425 229.416 118.053 229.566 117.692 229.665C117.16 229.805 116.631 229.971 116.11 230.187C115.392 230.482 114.62 230.543 113.948 229.977C113.376 229.488 112.903 228.573 112.297 228.295C112.028 228.18 111.736 228.18 111.507 227.891C111.275 227.597 111.155 227.069 111.084 226.553C110.875 225.122 110.966 223.835 111.232 222.47C111.413 221.571 111.633 220.705 111.808 219.806C111.83 219.679 111.856 219.557 111.876 219.435C112.245 217.276 112.216 214.952 112.136 212.671C113.287 212.377 114.439 212.077 115.598 212.006C115.449 212.954 115.283 213.887 115.178 214.825C114.622 214.813 113.833 214.652 113.481 215.373C113.418 215.501 113.401 215.69 113.387 215.861C113.2 218.059 113.014 220.251 112.829 222.443C112.771 223.114 112.715 223.785 112.657 224.456C112.628 224.795 112.597 225.138 112.603 225.483C112.617 227.152 113.395 228.473 114.219 228.962C115 229.428 115.844 229.345 116.645 229.028C117.446 228.712 118.218 228.18 119.005 227.746C119.028 227.735 119.051 227.724 119.077 227.713Z" fill="#D8BEB9"/>
<path d="M108.34 28.9488C108.212 29.403 107.604 28.5181 106.744 28.545C105.883 28.5719 105.256 29.2715 104.945 29.9714C104.945 29.9714 105.212 28.3772 106.394 27.6941C107.577 27.0112 108.506 28.3566 108.34 28.9488Z" fill="#1C0C0E"/>
<path d="M111.109 28.9488C111.237 29.403 111.845 28.5181 112.705 28.545C113.565 28.5719 114.193 29.2715 114.504 29.9714C114.504 29.9714 114.237 28.3772 113.054 27.6941C111.872 27.0112 110.943 28.3566 111.109 28.9488Z" fill="#1C0C0E"/>
<path d="M108.077 34.2167C108.077 34.2167 107.89 32.0053 106.806 31.6613C105.722 31.3176 105.135 33.0955 105.135 33.0955C105.135 33.0955 105.246 35.2171 106.431 35.5976C107.533 35.952 108.077 34.2167 108.077 34.2167Z" fill="white"/>
<path d="M108.116 34.0999C108.116 34.0999 108.273 32.6545 108.078 31.8063C107.882 30.9581 107.156 29.6401 106.062 30.261C104.969 30.8821 104.979 33.1016 104.979 33.1016C104.979 33.1016 105.571 31.3268 106.807 31.6612C107.789 31.9274 108.116 34.0999 108.116 34.0999Z" fill="#D98B76"/>
<path d="M105.943 33.5462C105.943 32.6582 106.315 31.9386 106.773 31.9386C107.23 31.9386 107.601 32.6584 107.601 33.5462C107.601 34.434 107.23 35.154 106.773 35.154C106.315 35.154 105.943 34.434 105.943 33.5462Z" fill="#2B1116"/>
<path d="M106.365 33.5462C106.365 33.1101 106.548 32.7562 106.772 32.7562C106.997 32.7562 107.18 33.1101 107.18 33.5462C107.18 33.9825 106.997 34.3362 106.772 34.3362C106.548 34.3362 106.365 33.9825 106.365 33.5462Z" fill="#1C0C0E"/>
<path d="M106.844 33.0629C106.844 32.8487 106.933 32.6749 107.044 32.6749C107.155 32.6749 107.244 32.8485 107.244 33.0629C107.244 33.2773 107.155 33.4509 107.044 33.4509C106.933 33.4509 106.844 33.2773 106.844 33.0629Z" fill="white"/>
<path d="M108.078 34.2166C108.005 34.271 107.92 33.2208 107.443 32.5528C107.071 32.0317 106.368 31.8053 105.863 32.3146C105.419 32.7635 105.288 33.2368 105.288 33.2368C105.288 33.2368 105.367 34.2299 105.809 34.9357C106.184 35.5326 106.627 35.5779 106.607 35.6372C106.568 35.7528 106.118 35.6841 105.705 35.1621C105.374 34.7442 105.038 33.9728 104.979 33.1017C104.995 32.5826 105.724 31.2832 106.531 31.4168C107.338 31.5504 107.764 32.3005 107.948 33.0424C108.131 33.7839 108.154 34.159 108.078 34.2166Z" fill="#1C0C0E"/>
<path d="M111.373 34.2167C111.373 34.2167 111.56 32.0053 112.644 31.6613C113.728 31.3176 114.315 33.0955 114.315 33.0955C114.315 33.0955 114.204 35.2171 113.019 35.5976C111.917 35.952 111.373 34.2167 111.373 34.2167Z" fill="white"/>
<path d="M111.333 34.0999C111.333 34.0999 111.176 32.6545 111.372 31.8063C111.567 30.9581 112.294 29.6401 113.387 30.261C114.48 30.8821 114.47 33.1016 114.47 33.1016C114.47 33.1016 113.879 31.3268 112.642 31.6612C111.661 31.9274 111.333 34.0999 111.333 34.0999Z" fill="#D98B76"/>
<path d="M113.505 33.5462C113.505 32.6582 113.134 31.9386 112.677 31.9386C112.219 31.9386 111.848 32.6584 111.848 33.5462C111.848 34.434 112.219 35.154 112.677 35.154C113.134 35.154 113.505 34.434 113.505 33.5462Z" fill="#2B1116"/>
<path d="M112.27 33.5462C112.27 33.1101 112.452 32.7562 112.677 32.7562C112.902 32.7562 113.085 33.1101 113.085 33.5462C113.085 33.9825 112.902 34.3362 112.677 34.3362C112.452 34.3362 112.27 33.9825 112.27 33.5462Z" fill="#1C0C0E"/>
<path d="M112.797 33.0629C112.797 32.8487 112.887 32.6749 112.997 32.6749C113.108 32.6749 113.197 32.8485 113.197 33.0629C113.197 33.2773 113.108 33.4509 112.997 33.4509C112.887 33.4509 112.797 33.2773 112.797 33.0629Z" fill="white"/>
<path d="M111.371 34.2166C111.444 34.271 111.529 33.2208 112.006 32.5528C112.379 32.0317 113.081 31.8053 113.586 32.3146C114.03 32.7635 114.161 33.2368 114.161 33.2368C114.161 33.2368 114.083 34.2299 113.64 34.9357C113.265 35.5326 112.823 35.5779 112.842 35.6372C112.881 35.7528 113.331 35.6841 113.744 35.1621C114.075 34.7442 114.411 33.9728 114.469 33.1017C114.454 32.5826 113.725 31.2832 112.918 31.4168C112.111 31.5504 111.685 32.3005 111.501 33.0424C111.318 33.7839 111.295 34.159 111.371 34.2166Z" fill="#1C0C0E"/>
<path d="M109.724 41.9733L107.933 41.882C107.933 41.882 108.514 44.2782 109.724 44.2782C110.934 44.2782 111.503 41.8904 111.503 41.8904L109.724 41.9733Z" fill="#CA406D"/>
<path d="M109.725 41.5637C109.876 41.5637 110.131 41.2524 110.442 41.439C110.753 41.6257 111.545 41.5923 111.641 41.6337C111.737 41.6752 111.618 42.2068 109.725 42.2068C107.832 42.2068 107.712 41.6752 107.809 41.6337C107.905 41.5923 108.697 41.6257 109.008 41.439C109.319 41.2524 109.574 41.5637 109.725 41.5637Z" fill="#A42046"/>
<path d="M109.724 44.0646C108.965 44.0646 108.593 43.4648 108.593 43.4648C108.698 43.9404 109.059 44.5553 109.724 44.5553C110.389 44.5553 110.751 43.9402 110.856 43.4648C110.856 43.4648 110.483 44.0646 109.724 44.0646Z" fill="#A42046"/>
<path d="M109.893 221.01C109.544 221.477 109.155 221.848 108.751 222.17C108.449 222.408 108.139 222.625 107.833 222.824C107.063 223.335 106.276 223.851 105.461 223.89C105.147 223.912 104.806 223.835 104.569 223.43C104.397 223.129 104.317 222.691 104.313 222.242C105.169 220.748 105.93 219.062 106.565 217.21C106.474 216.649 106.38 216.088 106.285 215.528C106.179 214.918 106.071 214.303 105.959 213.697C107.098 213.653 108.239 213.504 109.375 213.293C109.226 215.191 109.132 217.11 109.483 218.891C109.627 219.595 109.758 220.306 109.893 221.01Z" fill="#D0836A"/>
<path d="M110.365 226.115C110.145 227.075 109.429 227.835 108.931 228.079C107.999 228.529 107.029 227.58 106.07 227.741C105.137 227.896 104.337 229.066 103.43 229.516C102.52 229.971 101.659 229.627 100.803 228.867C100.354 228.467 99.9396 227.918 99.5847 227.253C99.5759 227.235 99.5705 227.224 99.5617 227.208C99.5186 227.125 99.4786 227.036 99.4556 226.925C99.4497 226.892 99.4443 226.875 99.4414 226.869C99.4473 226.869 99.4531 226.859 99.4644 226.837C99.5387 226.149 99.7875 225.588 100.025 225.061C100.065 224.972 100.119 224.889 100.145 224.989C100.237 225.016 100.325 225.067 100.414 225.111C101.799 225.782 102.92 224.551 103.947 222.88C104.073 222.675 104.194 222.453 104.313 222.243C104.317 222.692 104.397 223.129 104.568 223.43C104.805 223.835 105.146 223.912 105.461 223.891C106.277 223.851 107.063 223.335 107.833 222.825C108.139 222.625 108.448 222.409 108.751 222.17C109.155 221.848 109.544 221.477 109.892 221.011C109.961 221.36 110.03 221.715 110.096 222.064C110.305 223.202 110.639 224.917 110.365 226.115Z" fill="#1688C3"/>
<path d="M116 222.642C115.998 223.296 115.931 224.001 115.688 224.455C115.483 224.833 115.185 224.966 114.902 224.939C114.247 224.872 113.675 224.068 113.199 223.186C113.071 222.947 112.945 222.697 112.828 222.442C112.442 221.632 112.101 220.749 111.807 219.806C111.829 219.679 111.855 219.557 111.875 219.435C112.244 217.276 112.215 214.951 112.135 212.671C113.286 212.377 114.438 212.077 115.597 212.006C115.448 212.954 115.283 213.887 115.177 214.825C115.068 215.789 115.025 216.761 115.134 217.765C115.251 218.841 115.44 220.228 115.82 221.071C115.863 221.166 115.903 221.266 115.946 221.36C115.981 221.787 116 222.215 116 222.642Z" fill="#D0836A"/>
<path d="M119.077 227.713C119.06 228.195 118.914 228.678 118.711 228.983C118.425 229.416 118.053 229.566 117.692 229.666C117.16 229.804 116.631 229.971 116.11 230.187C115.392 230.482 114.62 230.543 113.948 229.977C113.376 229.488 112.903 228.573 112.297 228.296C112.028 228.179 111.736 228.179 111.507 227.89C111.275 227.596 111.155 227.07 111.084 226.553C110.875 225.122 110.966 223.835 111.232 222.47C111.413 221.571 111.633 220.705 111.808 219.806C112.102 220.749 112.442 221.632 112.829 222.442C112.946 222.697 113.072 222.947 113.2 223.186C113.676 224.068 114.248 224.872 114.903 224.939C115.186 224.967 115.484 224.833 115.689 224.456C115.932 224.001 115.999 223.296 116.001 222.642C116.001 222.215 115.981 221.787 115.947 221.36C116.285 222.143 116.585 222.953 116.845 223.857C116.977 224.312 117.146 224.822 117.337 225.178C117.529 225.538 117.75 225.837 117.99 226.065C118.173 226.237 118.37 226.37 118.55 226.553C118.734 226.742 118.948 226.753 119.028 227.119C119.072 227.308 119.086 227.513 119.077 227.713Z" fill="#1688C3"/>
<path opacity="0.8" d="M108.75 222.169C108.786 221.42 108.82 220.678 108.857 219.929C108.693 219.767 108.513 219.689 108.333 219.702C108.465 219.702 108.367 215.656 108.287 215.129C107.618 215.178 106.946 215.312 106.284 215.529C106.179 214.918 106.07 214.303 105.959 213.698C107.097 213.654 108.238 213.505 109.375 213.294C109.226 215.192 109.132 217.112 109.483 218.892C109.627 219.596 109.757 220.305 109.893 221.012C109.614 221.478 108.857 222.087 108.75 222.169Z" fill="#B56855"/>
<path opacity="0.8" d="M110.365 226.115C110.145 227.075 109.429 227.835 108.932 228.077C107.999 228.529 107.029 227.58 106.071 227.739C105.138 227.895 104.337 229.066 103.43 229.515C102.521 229.971 101.659 229.626 100.803 228.866C100.354 228.466 99.9394 227.917 99.5855 227.253C99.5762 227.235 99.5703 227.224 99.5625 227.209C99.7307 227.368 99.8857 227.769 100.106 228.006C100.492 228.422 100.929 228.662 101.367 228.749C102.122 228.906 102.884 228.656 103.628 228.362C104.137 228.162 104.652 227.936 105.115 227.48C105.35 227.246 105.57 226.957 105.816 226.775C106.231 226.471 106.692 226.498 107.135 226.413C107.575 226.337 108.047 226.109 108.34 225.455C108.617 224.826 108.666 223.946 108.706 223.124C108.72 222.806 108.735 222.489 108.751 222.171V222.169C108.857 222.086 109.615 221.477 109.893 221.01C109.962 221.36 110.031 221.715 110.096 222.064C110.305 223.202 110.639 224.918 110.365 226.115Z" fill="#13739A"/>
<path opacity="0.8" d="M115.597 212.004C115.449 212.953 115.283 213.887 115.177 214.825C114.622 214.813 113.833 214.651 113.481 215.373C113.418 215.5 113.4 215.689 113.386 215.862C113.2 218.058 113.014 220.249 112.829 222.442C112.354 221.513 111.807 219.806 111.807 219.806C111.83 219.678 111.856 219.555 111.876 219.435C112.245 217.275 112.216 214.951 112.136 212.671C113.286 212.378 114.439 212.076 115.597 212.004Z" fill="#B56855"/>
<path opacity="0.8" d="M119.078 227.713C119.061 228.195 118.914 228.677 118.711 228.982C118.425 229.415 118.054 229.567 117.693 229.666C117.161 229.804 116.631 229.971 116.111 230.187C115.393 230.482 114.621 230.543 113.948 229.978C113.376 229.489 112.903 228.573 112.297 228.296C112.027 228.18 111.737 228.18 111.507 227.891C111.276 227.595 111.156 227.069 111.083 226.553C110.875 225.122 110.967 223.836 111.233 222.469C111.413 221.571 111.633 220.705 111.807 219.806C111.807 219.806 112.355 221.513 112.83 222.442C112.773 223.113 112.715 223.784 112.658 224.456C112.629 224.794 112.597 225.138 112.603 225.482C112.618 227.151 113.396 228.473 114.22 228.962C115.001 229.426 115.844 229.344 116.646 229.027C117.446 228.711 118.219 228.18 119.006 227.746C119.029 227.735 119.051 227.724 119.078 227.713Z" fill="#13739A"/>
<path d="M108.751 222.171C108.743 222.176 108.738 222.18 108.738 222.18" stroke="#D8BEB9" stroke-miterlimit="10"/>
<path fill-rule="evenodd" clip-rule="evenodd" d="M126.857 119.742C124.984 118.839 121.578 114.505 117.063 112.49C114.433 111.316 112.742 110.458 111.4 109.542C111.006 109.272 111.266 108.176 110.89 108.958L112.398 102.747C112.727 103.74 113.934 103.444 114.791 103.788C119.444 105.864 126.74 106.761 129.112 108.069C131.569 109.405 130.56 121.535 126.857 119.742Z" fill="#08233F"/>
<path fill-rule="evenodd" clip-rule="evenodd" d="M107.389 108.557C107.15 108.781 106.883 108.98 106.584 109.158C105.225 109.971 103.687 110.517 100.849 112.119C96.3994 114.63 92.8007 118.084 90.9106 118.844C87.175 120.355 86.4109 108.16 88.894 107.012C91.29 105.882 98.6052 104.827 103.296 103.105C104.16 102.829 105.091 103.124 105.709 102.246C105.829 102.076 105.998 101.955 105.968 102.192L107.389 108.557Z" fill="#08233F"/>
<path opacity="0.3" d="M109.989 87.3614C109.989 87.3614 110.333 87.36 110.261 86.158C110.19 84.9559 109.927 85.008 109.812 85.0951C109.698 85.1822 109.664 85.966 109.719 86.4713C109.774 86.9767 109.814 87.3456 109.989 87.3614Z" fill="#FDDAC4"/>
<path opacity="0.3" d="M109.602 89.5235C109.602 89.5235 109.904 89.4844 109.806 88.4408C109.709 87.3958 109.479 87.4705 109.381 87.559C109.283 87.6474 109.276 88.3372 109.338 88.7734C109.401 89.2102 109.447 89.5283 109.602 89.5235Z" fill="#FDDAC4"/>
<path opacity="0.3" d="M108.6 86.8752C108.6 86.8752 108.309 86.9054 108.331 85.7006C108.354 84.4958 108.578 84.5232 108.677 84.6C108.777 84.6761 108.831 85.4544 108.801 85.9632C108.77 86.472 108.748 86.843 108.6 86.8752Z" fill="#FDDAC4"/>
<path opacity="0.3" d="M108.83 89.5619C108.83 89.5619 108.567 89.5893 108.587 88.4983C108.608 87.4067 108.811 87.4321 108.901 87.5013C108.991 87.5706 109.04 88.2755 109.012 88.7363C108.985 89.1964 108.964 89.5331 108.83 89.5619Z" fill="#FDDAC4"/>
<path d="M107.94 107.669C108.417 106.864 109.117 104.514 109.098 100.433C109.078 96.3504 109.069 94.3529 109.15 92.7243C109.232 91.0944 109.327 85.2459 109.113 84.9339C108.899 84.6219 108.118 85.9275 108.118 85.9275C108.118 85.9275 107.595 100.344 105.75 102.238C105.765 102.502 105.096 103.194 104.191 103.831C103.286 104.467 102.147 105.047 101.219 105.088L100.772 111.279C100.772 111.279 106.697 109.766 107.94 107.669Z" fill="#CE836A"/>
<path d="M105.486 102.758C105.486 102.758 106.757 100.492 106.787 98.7683C106.822 96.7447 106.688 96.251 107.354 92.6613C107.882 89.8177 108.017 83.3219 108.337 83.012C108.657 82.702 109.127 83.9144 108.803 87.0872C108.479 90.26 108.409 97.9893 108.273 99.4951C108.137 101 106.908 104.916 105.486 102.758Z" fill="#CE836A"/>
<path d="M107.194 97.3001C107.194 97.3001 107.377 96.1557 107.515 94.6814C107.653 93.2064 108.142 90.8462 108.214 88.8926C108.285 86.939 108.436 85.2734 108.676 84.9915C108.916 84.709 109.118 84.8695 109.121 85.8782C109.124 86.8869 108.806 91.9996 108.834 92.9212C108.863 93.8421 108.768 98.8889 108.485 98.832C108.201 98.7765 107.376 98.1998 107.194 97.3001Z" fill="#CE836A"/>
<path d="M107.016 97.7562C107.016 97.7562 107.492 96.1633 107.63 94.6883C107.768 93.2134 108.185 90.8291 108.256 88.8755C108.327 86.9226 108.551 85.281 108.791 84.9985C109.031 84.716 109.233 84.8764 109.236 85.8851C109.24 86.8938 108.921 92.0065 108.95 92.9281C108.978 93.849 108.883 98.8966 108.6 98.8397C108.316 98.7834 107.197 98.6566 107.016 97.7562Z" fill="#CE836A"/>
<path d="M108.321 99.5849C108.321 99.5849 107.747 97.8384 107.886 96.4018C108.024 94.9652 108.367 92.5309 108.438 90.6288C108.509 88.7266 108.615 87.2009 108.855 86.9266C109.095 86.6523 109.298 86.8087 109.3 87.7913C109.303 88.7739 108.984 93.7522 109.013 94.6498C109.041 95.5474 108.945 100.462 108.662 100.407C108.379 100.352 108.503 100.463 108.321 99.5849Z" fill="#CE836A"/>
<path d="M108.05 99.8516C108.05 99.8516 107.795 98.0838 107.932 96.6088C108.07 95.1339 108.457 92.6907 108.528 90.7371C108.599 88.7841 108.704 87.218 108.945 86.9355C109.185 86.6536 109.387 86.8141 109.39 87.8228C109.393 88.8315 109.075 93.9441 109.103 94.8651C109.132 95.7867 109.037 100.833 108.753 100.777C108.47 100.72 108.232 100.753 108.05 99.8516Z" fill="#CE836A"/>
<path d="M108.29 84.8421C108.29 84.8421 108.008 84.8235 108.08 83.7237C108.154 82.6251 108.37 82.6855 108.462 82.7712C108.555 82.8562 108.573 83.5776 108.522 84.0377C108.471 84.4985 108.433 84.8359 108.29 84.8421Z" fill="#CE836A"/>
<path d="M108.781 86.5926C108.781 86.5926 108.51 86.5748 108.581 85.682C108.653 84.7885 108.859 84.84 108.948 84.9099C109.036 84.9805 109.053 85.5668 109.004 85.9412C108.955 86.3149 108.918 86.5885 108.781 86.5926Z" fill="#CE836A"/>
<path d="M108.969 88.2172C108.969 88.2172 108.733 88.174 108.822 87.3998C108.912 86.6257 109.092 86.6922 109.167 86.7628C109.243 86.8334 109.24 87.3477 109.186 87.6707C109.131 87.993 109.091 88.2288 108.969 88.2172Z" fill="#CE836A"/>
<path d="M105.682 102.354C105.682 102.354 105.68 102.351 105.677 102.349C105.677 102.361 105.677 102.374 105.677 102.385C105.679 102.375 105.68 102.363 105.682 102.354Z" fill="#CE836A"/>
<path d="M110.015 107.793C109.565 106.933 108.943 104.504 109.097 100.432C109.251 96.3607 109.326 94.368 109.299 92.7326C109.271 91.0965 109.369 85.248 109.592 84.9621C109.815 84.6761 110.553 86.0722 110.553 86.0722C110.553 86.0722 110.601 100.523 112.379 102.633C112.354 102.918 113.122 103.585 114.125 104.385C114.963 105.053 115.966 104.769 116.807 104.906L117.049 112.249C117.049 112.249 111.187 110.033 110.015 107.793Z" fill="#CE836A"/>
<path d="M112.627 103.184C112.627 103.184 111.433 100.771 111.46 99.0466C111.491 97.0231 111.642 96.5465 111.094 92.8841C110.661 89.9829 110.74 83.4837 110.432 83.1367C110.123 82.789 109.613 83.9431 109.833 87.1488C110.051 90.3538 109.867 98.0757 109.953 99.5952C110.039 101.114 111.137 105.168 112.627 103.184Z" fill="#CE836A"/>
<path d="M111.101 97.5319C111.101 97.5319 110.957 96.3696 110.868 94.8809C110.778 93.3929 110.368 90.9792 110.361 89.0208C110.354 87.0624 110.258 85.3824 110.028 85.0718C109.798 84.7611 109.591 84.8976 109.555 85.9042C109.518 86.9102 109.667 92.051 109.609 92.9671C109.55 93.8825 109.478 98.9308 109.763 98.9088C110.048 98.8862 110.891 98.4096 111.101 97.5319Z" fill="#CE836A"/>
<path d="M111.266 98.0092C111.266 98.0092 110.842 96.3628 110.753 94.8741C110.664 93.3861 110.327 90.9567 110.32 88.9983C110.313 87.0405 110.144 85.3756 109.914 85.065C109.684 84.7551 109.476 84.8908 109.44 85.8975C109.404 86.9034 109.553 92.0442 109.495 92.9603C109.435 93.8764 109.365 98.924 109.65 98.9013C109.934 98.8794 111.055 98.8869 111.266 98.0092Z" fill="#CE836A"/>
<path d="M109.901 99.6795C109.901 99.6795 110.532 98.0043 110.441 96.554C110.351 95.1037 110.088 92.6338 110.08 90.7261C110.072 88.8191 110.016 87.2845 109.786 86.9814C109.555 86.679 109.347 86.8114 109.313 87.7919C109.278 88.7718 109.432 93.7789 109.374 94.671C109.316 95.5631 109.25 100.48 109.535 100.459C109.819 100.438 109.692 100.533 109.901 99.6795Z" fill="#CE836A"/>
<path d="M110.162 99.9772C110.162 99.9772 110.476 98.2437 110.387 96.755C110.298 95.2663 109.992 92.7827 109.985 90.8243C109.978 88.8659 109.925 87.2908 109.694 86.9802C109.465 86.6702 109.257 86.806 109.222 87.8126C109.185 88.8186 109.334 93.9594 109.275 94.8755C109.217 95.7916 109.145 100.84 109.43 100.817C109.715 100.795 109.951 100.855 110.162 99.9772Z" fill="#CE836A"/>
<path d="M110.418 84.9683C110.418 84.9683 110.7 84.9834 110.663 83.8773C110.625 82.772 110.409 82.8069 110.314 82.881C110.218 82.9557 110.176 83.6723 110.212 84.1393C110.248 84.6049 110.274 84.9443 110.418 84.9683Z" fill="#CE836A"/>
<path d="M109.87 86.6571C109.87 86.6571 110.14 86.6722 110.098 85.7718C110.057 84.8722 109.849 84.8989 109.758 84.9586C109.668 85.0182 109.632 85.6011 109.668 85.9803C109.705 86.3602 109.732 86.6372 109.87 86.6571Z" fill="#CE836A"/>
<path d="M109.627 88.2569C109.627 88.2569 109.865 88.2419 109.802 87.4581C109.738 86.675 109.556 86.7196 109.478 86.7813C109.4 86.843 109.386 87.3566 109.43 87.6857C109.474 88.0135 109.506 88.2535 109.627 88.2569Z" fill="#CE836A"/>
<path d="M112.444 102.756C112.444 102.756 112.446 102.754 112.449 102.752C112.449 102.765 112.448 102.776 112.448 102.789C112.446 102.778 112.446 102.767 112.444 102.756Z" fill="#CE836A"/>
<path d="M99.8877 104.222C99.8877 104.222 101.66 103.659 102.158 103.494C102.158 103.494 103.438 107.513 102.775 111.082C102.433 111.258 100.619 112.249 100.619 112.249L99.8877 104.222Z" fill="#08233F"/>
<path d="M117.47 104.861C117.47 104.861 115.674 104.373 115.168 104.355C115.168 104.355 114.213 108.255 115.143 111.592C115.495 111.667 117.365 112.566 117.365 112.566L117.47 104.861Z" fill="#08233F"/>
<path d="M109.253 91.0718L109.074 93.6487L108.987 94.333L109.032 95.1113V95.917L109.065 97.6588C109.065 97.6588 109.06 99.3813 109.014 99.4814C108.969 99.5822 109.129 100.408 109.129 100.408L109.13 99.5877L109.298 98.8396L109.245 97.0738L109.307 94.4441C109.307 94.4441 109.283 93.1481 109.307 93.037C109.332 92.9259 109.296 92.0187 109.295 91.9166C109.294 91.8151 109.253 91.0718 109.253 91.0718Z" fill="#A45E4C"/>
</svg>
