<svg width="220" height="240" viewBox="0 0 220 240" fill="none" xmlns="http://www.w3.org/2000/svg">
<path d="M112.81 53.748C112.815 53.76 112.818 53.772 112.823 53.787C112.816 53.6819 112.813 53.673 112.81 53.748ZM133.077 94.2452C132.435 93.5849 130.492 91.2507 131.003 85.2C131.192 82.959 130.302 82.2089 129.514 81.543C128.443 80.64 127.517 79.8569 128.486 75.864C129.698 70.872 128.95 66.618 126.536 64.761C124.968 63.558 123.311 61.299 121.83 58.425C121.541 57.87 121.261 57.291 120.987 56.691C120.338 54.558 119.812 52.506 119.447 50.985C118.657 50.757 117.827 50.598 116.966 50.502C116.47 50.442 115.965 50.406 115.452 50.391C117.186 52.08 118.543 54.774 119.447 59.016C119.618 59.811 119.724 61.998 119.762 64.965C118.982 64.176 118.196 63.453 117.342 62.814C117.134 61.101 116.555 57.5579 116.27 57.2699C116.246 57.711 116.07 60.321 116.022 61.932C115.348 61.536 114.623 61.185 113.817 60.885C113.748 58.302 113.224 54.987 112.823 53.79C112.846 54.225 112.899 56.217 113.049 60.624C110.899 59.952 108.207 59.61 104.573 59.685C104.178 59.694 103.776 59.712 103.372 59.742C103.09 58.686 102.432 56.199 102.114 55.674C102.112 55.797 101.633 58.14 101.712 59.928C99.0235 60.318 96.2754 61.149 93.8779 62.304C93.9346 60.621 94.0598 57.456 94.1473 56.556C93.8916 57.126 92.5956 61.395 92.3756 63.102C90.8013 64.014 89.4486 65.0729 88.4654 66.2369C88.4415 63.225 88.4913 60.789 88.6253 59.4C88.5701 59.436 88.5153 59.469 88.4601 59.505C87.7829 59.943 87.1933 60.348 86.7089 60.714L86.0215 59.286C85.975 60.135 85.8597 60.942 85.6949 61.716C84.9899 65.025 83.3746 67.713 82.3137 70.1698C80.7258 73.8452 80.0761 77.664 81.2103 81.6C81.6606 83.16 82.0131 84.552 81.7535 85.776C81.5335 86.8141 80.8632 87.7261 79.7065 88.5689C78.562 89.4027 77.8712 90.432 77.5994 91.7129C77.2161 93.519 77.7524 95.3787 78.2252 97.0169C78.5566 98.175 78.5483 99.9538 78.385 100.878C77.7798 104.289 77.1286 105.558 77.5202 107.916C77.374 105.402 78.1616 104.034 78.7165 101.184C78.9228 100.122 78.9986 98.4 78.3782 96.2612C77.9362 94.743 77.6253 93.48 77.9519 91.9412C78.1856 90.84 78.806 89.9341 79.8512 89.1723C81.1262 88.2452 81.843 87.2372 82.1045 86.0043C82.2038 85.536 82.2126 85.0532 82.1886 84.5643C82.8535 86.9012 82.8862 88.8452 80.4682 90.912C76.0252 94.7129 80.5435 99.7741 79.9265 102.156C78.8681 106.242 78.5552 107.04 78.806 110.16C79.0964 113.733 80.6002 115.758 82.0698 116.379C82.0752 115.815 80.5386 112.62 81.6606 107.091C81.9979 110.073 83.8264 117.012 84.3006 117.162C91.8652 119.562 114.348 121.56 122.337 114.426C123.863 113.061 123.435 107.004 123.827 105.306C124.11 104.079 125.762 114.468 126.267 113.463C133.119 99.855 131.443 95.8621 130.58 95.7572C129.38 95.607 128.622 95.8258 129.717 86.2532C130.248 81.6123 125.401 84.3147 127.215 76.8391C128.301 72.3572 127.697 68.6427 125.362 66.165C124.542 65.295 123.782 63.939 123.083 62.388C124.17 63.726 125.269 64.836 126.305 65.631C128.545 67.353 129.28 70.9111 128.141 75.6061C127.034 80.1751 128.318 81.2612 129.351 82.1341C130.15 82.8089 130.79 83.343 130.632 85.104C130.032 91.8541 132.706 94.0683 133.077 94.2452ZM81.336 80.4267C80.6124 77.1812 81.0866 74.1058 82.4736 70.8932C83.2539 69.0898 84.4918 67.557 85.447 65.685C84.2458 71.6701 81.2812 75.9271 81.336 80.4267ZM112.81 53.748C112.815 53.76 112.818 53.772 112.823 53.787C112.816 53.6819 112.813 53.673 112.81 53.748Z" fill="#D6B45F"/>
<path d="M122.023 60.3661C121.978 59.709 121.914 59.061 121.83 58.425C120.413 47.613 113.409 39.6991 103.899 40.2991C93.6772 40.944 86.7731 47.121 85.6956 61.716C85.6594 62.1751 85.632 62.6431 85.6095 63.117C85.3739 68.109 85.6785 72.6933 86.4137 76.7884C86.9535 79.7939 87.7235 82.5388 88.6841 84.9868C88.9027 85.5422 89.1295 86.0819 89.3666 86.6071C89.9562 87.9182 90.604 89.1299 91.3021 90.2373C91.6253 90.7564 91.9602 91.2508 92.3039 91.7191C92.8764 92.505 93.4777 93.2249 94.102 93.8791C94.1191 93.9004 94.1343 93.9182 94.1519 93.9333C97.182 97.0951 100.766 98.7244 104.497 98.5324C107.929 98.3548 111.134 96.5013 113.849 93.3422C114.22 92.9129 114.583 92.4569 114.935 91.9769C115.549 91.1431 116.131 90.24 116.681 89.2684C116.71 89.2169 116.739 89.1662 116.767 89.112C117.753 87.3484 118.63 85.3708 119.374 83.2108C119.397 83.1449 119.419 83.0791 119.441 83.0133C120.313 80.4508 120.999 77.6339 121.466 74.6133V74.6099C122.145 70.2391 122.365 65.4421 122.023 60.3661ZM101.713 59.928C99.0241 60.3181 96.2761 61.149 93.8786 62.304C93.9353 60.621 94.0604 57.456 94.1484 56.556C93.8923 57.1261 92.5962 61.3951 92.3762 63.1021C90.802 64.0141 89.4492 65.073 88.4661 66.237C88.4421 63.225 88.492 60.789 88.626 59.4C88.5707 59.436 88.516 59.469 88.4607 59.505C89.085 55.713 89.989 51.72 90.8431 50.724C93.5706 47.541 98.7372 46.2151 103.763 46.113C108.384 46.017 113.551 47.181 116.341 49.656C116.543 49.836 116.753 50.124 116.966 50.5021C116.472 50.4421 115.966 50.4061 115.452 50.3911C117.186 52.08 118.544 54.7741 119.448 59.016C119.619 59.8111 119.725 61.9981 119.763 64.965C118.983 64.176 118.197 63.453 117.343 62.8141C117.135 61.101 116.556 57.5581 116.27 57.2701C116.246 57.711 116.071 60.321 116.023 61.932C115.349 61.536 114.624 61.185 113.817 60.885C113.749 58.3021 113.224 54.9871 112.824 53.7901C112.846 54.225 112.9 56.217 113.049 60.624C110.899 59.952 108.207 59.6101 104.574 59.685C104.179 59.6941 103.777 59.712 103.373 59.7421C103.091 58.6861 102.433 56.199 102.114 55.6741C102.113 55.797 101.633 58.14 101.713 59.928Z" fill="#D6B45F"/>
<path d="M119.448 59.0159C118.544 54.774 117.186 52.0799 115.452 50.391C106.312 50.0759 94.4106 55.7129 88.6256 59.3999C88.4917 60.7889 88.4418 63.2249 88.4657 66.2369C89.4489 65.0729 90.8017 64.014 92.3759 63.102C92.5959 61.3949 93.8919 57.126 94.1481 56.5559C94.0601 57.4559 93.9349 60.6209 93.8782 62.3039C96.2757 61.1489 99.0238 60.318 101.712 59.9279C101.633 58.1399 102.113 55.7969 102.114 55.674C102.432 56.1989 103.09 58.686 103.372 59.742C103.776 59.7119 104.179 59.694 104.574 59.6849C108.207 59.61 110.899 59.9519 113.049 60.6239C112.899 56.2169 112.846 54.2249 112.824 53.79C113.224 54.9869 113.749 58.302 113.817 60.8849C114.623 61.1849 115.349 61.5359 116.022 61.9319C116.07 60.3209 116.246 57.7109 116.27 57.27C116.555 57.558 117.134 61.1009 117.342 62.814C118.197 63.4529 118.982 64.1759 119.762 64.9649C119.725 61.998 119.618 59.8109 119.448 59.0159ZM112.81 53.7479C112.813 53.6729 112.817 53.682 112.824 53.7869C112.819 53.7719 112.815 53.7599 112.81 53.7479Z" fill="#D6B45F"/>
<path d="M115.451 50.3911C106.311 50.0761 94.41 55.7131 88.625 59.4001C88.6626 59.0102 88.7057 58.7011 88.757 58.4881C91.0709 48.7861 96.5 48.1621 103.599 47.7931C108.392 47.5441 112.476 47.4901 115.451 50.3911Z" fill="#D6B45F"/>
<path d="M120.501 65.733C120.253 65.472 120.008 65.214 119.762 64.965C119.724 61.998 119.618 59.811 119.447 59.016C118.543 54.774 117.185 52.08 115.451 50.391C115.965 50.406 116.47 50.442 116.965 50.502C119.103 54.276 121.529 66.822 120.501 65.733Z" fill="#D6B45F"/>
<path d="M116.966 50.5019C116.471 50.4419 115.965 50.4059 115.452 50.3909C112.476 47.4899 108.392 47.5439 103.599 47.7929C96.5002 48.1619 91.0711 48.7859 88.7577 58.4879C88.7059 58.7009 88.6628 59.0099 88.6252 59.3999C88.57 59.4359 88.5152 59.4689 88.46 59.5049C89.0843 55.7129 89.9882 51.7199 90.8423 50.7239C93.5698 47.5409 98.7364 46.2149 103.762 46.1129C108.384 46.0169 113.551 47.1809 116.34 49.6559C116.543 49.8359 116.752 50.1239 116.966 50.5019Z" fill="#D6B45F"/>
<path fill-rule="evenodd" clip-rule="evenodd" d="M108.368 96.2126C108.1 97.1589 107.103 98.8588 105.102 98.8711C103.36 98.8828 102.14 97.3495 101.67 96.1804C101.384 95.4686 101.419 94.774 101.718 95.2718C104.323 99.5925 107.425 97.0032 108.073 95.915C108.318 95.5029 108.531 95.6366 108.368 96.2126Z" fill="#B13B32"/>
<path opacity="0.16" d="M122.081 204.696C122.081 207.278 114.227 209.371 104.538 209.371C94.8491 209.371 86.9951 207.278 86.9951 204.696C86.9951 202.115 94.8491 200.022 104.538 200.022C114.227 200.022 122.081 202.115 122.081 204.696Z" fill="black"/>
<path d="M101.719 199.712C101.592 200.72 98.2637 200.037 98.2324 198.997C97.8242 185.521 96.7589 153.766 96.6924 150.391L104.405 151.123C104.405 151.123 102.337 194.807 101.719 199.712Z" fill="#FFC19F"/>
<path d="M107.598 199.712C107.725 200.72 111.054 200.037 111.085 198.997C111.493 185.521 112.558 153.766 112.625 150.391L104.912 151.123C104.912 151.123 106.98 194.807 107.598 199.712Z" fill="#FFC19F"/>
<path d="M102.699 199.02C102.682 199.28 97.6087 199.076 97.5808 198.763C97.3462 196.149 97.0739 190.179 96.9717 189.021L103.135 189.152C102.994 191.886 102.809 197.357 102.699 199.02Z" fill="#FFC76E"/>
<path d="M95.3371 196.051C95.4334 195.482 95.6265 194.765 95.7776 194.108C95.8896 193.62 98.641 193.793 98.6352 194.974C98.6342 195.276 98.6239 195.542 98.6068 195.783C99.0781 195.808 99.589 195.815 100.128 195.8C101.302 195.765 102.355 195.634 103.095 195.454C103.122 197.323 102.992 200.551 103.012 202.627C103.012 202.627 90.6878 206.221 88.7875 203.046C88.2517 202.152 91.3786 198.364 95.3371 196.051Z" fill="#E2511E"/>
<path d="M103.016 201.326C103.012 201.787 103.009 202.232 103.013 202.627C103.013 202.627 90.6881 206.221 88.7878 203.046C88.7125 202.92 88.7106 202.736 88.7727 202.507C92.1465 203.906 99.9531 202.118 103.016 201.326Z" fill="#892910"/>
<path d="M96.1297 197.866C96.1639 197.949 96.2177 197.992 96.272 197.99C96.3057 197.989 96.3399 197.971 96.3698 197.934C96.4465 197.836 96.4636 197.649 96.4079 197.514C95.9439 196.395 95.1192 195.79 94.403 196.036C94.3096 196.068 94.2495 196.227 94.268 196.389C94.2866 196.552 94.3766 196.654 94.4704 196.625C95.059 196.415 95.741 196.93 96.1297 197.866ZM95.2536 198.569C95.2878 198.635 95.3358 198.669 95.3837 198.667C95.4242 198.665 95.4643 198.64 95.4961 198.589C95.5665 198.477 95.5719 198.287 95.5078 198.165C94.9754 197.143 94.2387 196.625 93.4853 196.754C93.3905 196.77 93.3211 196.916 93.3299 197.081C93.3391 197.246 93.4237 197.379 93.5176 197.351C93.897 197.288 94.6249 197.363 95.2536 198.569ZM92.334 197.896C92.3482 198.06 92.4332 198.176 92.53 198.147C93.1035 197.981 93.851 198.497 94.3414 199.366C94.3761 199.426 94.4215 199.457 94.467 199.455C94.509 199.454 94.5516 199.425 94.5843 199.369C94.6523 199.253 94.6528 199.063 94.5863 198.944C94.0236 197.947 93.1578 197.373 92.4782 197.555C92.3843 197.58 92.3198 197.733 92.334 197.896Z" fill="#D3DAE5"/>
<path d="M106.619 199.02C106.636 199.28 111.709 199.076 111.737 198.763C111.972 196.149 112.244 190.179 112.346 189.021L106.184 189.152C106.324 191.886 106.51 197.357 106.619 199.02Z" fill="#FFC76E"/>
<path d="M113.98 196.051C113.884 195.482 113.691 194.765 113.54 194.108C113.429 193.62 110.677 193.793 110.682 194.974C110.683 195.276 110.694 195.542 110.71 195.783C110.24 195.808 109.729 195.815 109.189 195.8C108.016 195.765 106.962 195.634 106.222 195.454C106.196 197.323 106.325 200.551 106.305 202.627C106.305 202.627 118.63 206.221 120.53 203.046C121.065 202.152 117.939 198.364 113.98 196.051Z" fill="#E2511E"/>
<path d="M106.302 201.326C106.307 201.787 106.31 202.232 106.306 202.627C106.306 202.627 118.63 206.221 120.53 203.046C120.606 202.92 120.607 202.736 120.545 202.507C117.171 203.906 109.365 202.118 106.302 201.326Z" fill="#892910"/>
<path d="M114.846 196.625C114.94 196.654 115.03 196.552 115.049 196.389C115.067 196.227 115.007 196.068 114.914 196.036C114.198 195.79 113.373 196.394 112.908 197.514C112.853 197.649 112.87 197.836 112.947 197.933C112.977 197.97 113.011 197.989 113.045 197.99C113.099 197.992 113.153 197.949 113.187 197.866C113.576 196.93 114.258 196.415 114.846 196.625ZM115.799 197.351C115.893 197.379 115.977 197.246 115.986 197.081C115.996 196.916 115.926 196.77 115.832 196.754C115.078 196.625 114.341 197.143 113.809 198.165C113.745 198.287 113.75 198.477 113.82 198.589C113.852 198.64 113.892 198.665 113.933 198.667C113.98 198.669 114.028 198.635 114.063 198.569C114.691 197.363 115.42 197.288 115.799 197.351ZM116.839 197.555C116.158 197.373 115.294 197.947 114.73 198.944C114.663 199.063 114.664 199.253 114.732 199.369C114.765 199.426 114.807 199.454 114.85 199.455C114.895 199.456 114.941 199.426 114.975 199.366C115.466 198.496 116.213 197.981 116.787 198.147C116.883 198.176 116.969 198.06 116.982 197.896C116.997 197.733 116.932 197.58 116.839 197.555Z" fill="#D3DAE5"/>
<path d="M95.3511 140.139C95.3511 140.139 91.2953 155.503 89.835 160.458C96.365 170.937 109.595 173.712 118.958 158.689C118.324 155.809 114.384 143.791 113.412 139.214L95.3511 140.139Z" fill="#2A535E"/>
<path opacity="0.23" d="M115.738 147.672C115.205 145.886 114.69 144.128 114.264 142.583C113.738 141.244 113.27 140.019 113.014 139.234L95.3515 140.139C95.3515 140.139 93.9699 145.373 92.5291 150.715C92.4431 151.301 92.3566 151.887 92.2676 152.46C93.9953 153.789 97.837 156.531 104.691 155.394C110.088 154.498 113.466 150.475 115.738 147.672Z" fill="black"/>
<path d="M108.686 108.822C106.189 108.44 102.818 108.512 100.038 109.005C100.086 111.302 101.073 116.152 104.139 116.264C107.651 116.39 108.605 112.126 108.686 108.822Z" fill="#E0956C"/>
<path d="M108.146 102.654V110.849C108.144 112.607 106.542 114.025 104.576 114.017C102.611 114.008 101.026 112.574 101.028 110.816V102.654H108.146Z" fill="#E0956C"/>
<path d="M125.323 87.0898C124.416 93.8447 120.734 98.2169 117.915 97.6792C115.094 97.1403 114.479 91.6552 114.884 85.167C115.291 78.6788 117.908 73.839 120.727 74.3931C124.581 75.1515 126.176 80.7407 125.323 87.0898Z" fill="#FFC19F"/>
<path d="M121.961 88.6855C121.782 91.5298 120.472 93.6137 119.035 93.3408C117.598 93.0658 116.577 90.5376 116.756 87.6926C116.933 84.8469 118.243 82.7643 119.68 83.0379C121.118 83.3115 122.138 85.8405 121.961 88.6855Z" fill="#E0956C"/>
<path d="M83.6413 89.2484C84.7765 95.8971 88.6001 99.8811 91.397 99.0521C94.1939 98.223 94.6222 92.6832 93.9969 86.2484C93.3711 79.8144 90.5942 75.253 87.7983 76.0985C83.9771 77.2546 82.574 82.9995 83.6413 89.2484Z" fill="#FFC19F"/>
<path d="M87.2589 90.4827C87.5337 93.3037 88.9113 95.2484 90.3369 94.826C91.7625 94.4036 92.6958 91.7739 92.421 88.9522C92.1468 86.1312 90.7686 84.1872 89.343 84.6089C87.9179 85.0313 86.9841 87.6617 87.2589 90.4827Z" fill="#E0956C"/>
<path d="M112.824 53.7871C112.819 53.7721 112.816 53.7601 112.811 53.7481C112.814 53.6731 112.817 53.682 112.824 53.7871Z" fill="#752912"/>
<path d="M112.811 53.7481C112.814 53.6731 112.817 53.682 112.824 53.7871C112.819 53.7721 112.816 53.7601 112.811 53.7481Z" fill="#FFC19F"/>
<path d="M119.696 74.4301C119.63 77.2498 119.527 80.1901 119.383 83.0159C119.381 83.0818 119.377 83.1476 119.374 83.2107C119.183 86.9156 118.924 90.4141 118.588 93.1741C118.36 95.0756 118.095 96.6267 117.794 97.6532C117.781 97.7012 117.765 97.7492 117.751 97.7938C116.076 103.173 107.052 107.775 104.962 107.883C103.011 107.982 93.651 103.857 91.2843 99.1652C91.2725 99.1412 91.2603 99.1172 91.2481 99.0898C90.8892 98.3252 90.5558 96.831 90.2547 94.8479C89.9164 92.607 89.6191 89.7449 89.3664 86.607C89.3165 85.9679 89.2666 85.3138 89.2182 84.6507C89.0192 81.8489 88.854 78.8907 88.7303 76.0107C88.5792 72.5039 88.4898 69.1076 88.4658 66.2369C89.449 65.0729 90.8012 64.0139 92.376 63.1019C92.596 61.3949 93.8915 57.1259 94.1477 56.5559C94.0602 57.4559 93.9345 60.6209 93.8778 62.3039C96.2758 61.1489 99.0239 60.3179 101.712 59.9279C101.633 58.1399 102.113 55.7969 102.114 55.6739C102.432 56.1989 103.09 58.6859 103.373 59.7419C103.776 59.712 104.178 59.6939 104.574 59.6849C108.207 59.6099 110.899 59.952 113.049 60.624C112.9 56.2169 112.846 54.2249 112.824 53.7899C113.224 54.987 113.748 58.3019 113.817 60.8849C114.623 61.1849 115.349 61.5359 116.023 61.9319C116.07 60.3209 116.246 57.7109 116.27 57.2699C116.555 57.5579 117.134 61.1009 117.343 62.8139C118.197 63.4529 118.982 64.1759 119.763 64.9649C119.795 67.6349 119.774 70.9412 119.696 74.4301Z" fill="#FFC19F"/>
<path d="M103.219 87.1611C103.302 87.157 103.374 87.048 103.386 86.8985C103.468 85.837 103.935 85.1293 104.575 85.0964C105.219 85.0628 105.72 85.7341 105.822 86.7655C105.839 86.9307 105.929 87.0418 106.024 87.013C106.119 86.9842 106.182 86.8272 106.166 86.6612C106.034 85.3405 105.376 84.4464 104.564 84.4889C103.758 84.53 103.145 85.466 103.041 86.8169C103.028 86.9828 103.094 87.1364 103.19 87.1591L103.219 87.1611Z" fill="#C67F75"/>
<path d="M92.0758 69.1947C92.1931 69.1782 92.3065 69.0891 92.3935 68.9293C93.5038 66.8973 95.7507 66.0593 97.6251 66.987C97.8852 67.1184 98.1595 66.8522 98.2343 66.3933C98.3091 65.936 98.157 65.4602 97.8945 65.3295C95.6578 64.2252 93.0433 65.2398 91.6788 67.7432C91.4911 68.088 91.4989 68.6331 91.6964 68.9602C91.802 69.1364 91.9408 69.2132 92.0758 69.1947Z" fill="#775D2A"/>
<path d="M115.985 68.168C116.121 68.1674 116.255 68.0714 116.353 67.8806C116.534 67.5263 116.517 66.9824 116.314 66.6653C114.837 64.3616 112.185 63.7191 110.007 65.1329C109.751 65.3003 109.622 65.796 109.717 66.2405C109.813 66.6881 110.098 66.9146 110.351 66.7472C112.176 65.558 114.457 66.074 115.656 67.9481C115.75 68.0948 115.868 68.168 115.985 68.168Z" fill="#775D2A"/>
<path d="M112.824 53.7871C112.819 53.7721 112.816 53.7601 112.811 53.7481C112.814 53.6731 112.817 53.682 112.824 53.7871Z" fill="#752912"/>
<path d="M117.413 127.347C116.892 127.896 116.383 128.298 115.924 128.502C115.577 127.95 114.706 126.984 113.786 125.628V125.625C112.549 123.795 111.225 121.254 110.993 118.068C111.844 118.974 112.677 119.889 113.454 120.816C115.22 122.916 116.693 125.073 117.413 127.347Z" fill="#28AFC6"/>
<path d="M121.727 119.256C121.502 120.126 121.187 121.023 120.811 121.902C119.439 118.272 116.944 115.002 114.462 114.318C114.027 114.198 113.542 114.156 113.046 114.177C112.432 114.195 111.796 114.306 111.203 114.474C111.451 113.142 111.903 111.723 112.614 110.226C112.619 110.214 112.624 110.205 112.63 110.193C115.959 111.432 121.727 119.256 121.727 119.256Z" fill="#28AFC6"/>
<path d="M115.591 146.865C111.36 152.235 99.4469 154.512 92.6338 147.432C93.1994 142.56 93.6873 135.807 94.1479 129.291C94.1547 129.216 94.1601 129.138 94.165 129.06C94.1826 129.12 94.2012 129.177 94.2217 129.231C95.659 127.986 96.9961 125.769 98.1045 124.614C97.0318 125.334 96.518 121.209 95.4576 113.01C95.6106 111.654 95.7651 110.547 95.9235 109.77C95.9269 109.77 95.9304 109.767 95.9338 109.767C97.6733 109.338 99.8317 109.059 102.053 108.954C104.583 108.831 107.193 108.936 109.359 109.302C109.361 109.302 109.361 109.302 109.361 109.302C110.636 109.518 111.755 109.824 112.614 110.226C112.69 110.262 112.762 110.298 112.833 110.334C112.901 111.633 112.972 112.914 113.046 114.177C112.432 114.195 111.796 114.306 111.203 114.474C110.133 114.774 109.196 115.251 108.761 115.707C109.501 116.493 110.254 117.276 110.994 118.068C111.844 118.974 112.678 119.889 113.455 120.816C113.565 122.472 113.675 124.077 113.787 125.625V125.628C113.983 128.346 114.178 130.881 114.364 133.191V133.194C114.486 134.706 114.604 136.119 114.716 137.421C114.72 137.448 114.721 137.475 114.723 137.502C114.863 139.107 114.99 140.538 115.101 141.771C115.398 145.005 115.591 146.865 115.591 146.865Z" fill="#28AFC6"/>
<path d="M98.717 123.99C98.715 124.02 98.715 124.053 98.7136 124.083C98.6363 124.134 98.5571 124.194 98.4765 124.263C98.3562 124.365 98.232 124.482 98.1049 124.614C97.0328 125.334 96.5185 121.209 95.4581 113.01C95.3931 112.515 95.3275 112.002 95.2586 111.477C94.7331 113.145 92.4661 119.352 92.9349 122.952C93.2806 125.61 93.6863 127.59 94.1655 129.06C94.1831 129.12 94.2016 129.177 94.2227 129.231C94.1967 129.252 94.1728 129.273 94.1483 129.291C93.1603 130.125 92.1273 130.482 91.0928 129.714C91.0928 129.714 90.6973 112.947 95.9118 109.707C95.9186 109.728 95.9255 109.746 95.9343 109.767C98.0448 115.689 98.8544 120.066 98.717 123.99Z" fill="#28AFC6"/>
<path d="M108.376 85.3523C108.376 85.3523 113.672 88.1966 115.653 83.3082C118.067 77.3514 114.288 72.7523 111.861 73.7089C109.615 74.5941 107.592 78.0378 108.376 85.3523Z" fill="#F9FEFF"/>
<path d="M116.004 75.7565C115.013 73.6273 113.694 72.9759 112.27 73.2515C110.813 73.5327 109.348 75.3649 108.941 77.2349C109.713 75.1229 111.06 74.3302 111.899 73.9997C113.236 73.4703 114.999 74.4879 115.802 76.5869C116.517 78.4541 116.474 81.2765 115.588 83.4625C116.641 81.9683 117.036 77.9747 116.004 75.7565Z" fill="#773220"/>
<path d="M109.539 77.0394C109.068 79.1726 109.677 81.5692 110.899 82.3921C112.121 83.2156 113.494 82.1535 113.966 80.0202C114.438 77.8869 113.829 75.4897 112.607 74.6661C111.384 73.8433 110.012 74.9061 109.539 77.0394Z" fill="#63190D"/>
<path d="M109.727 76.3769C109.596 76.9694 109.765 77.6339 110.104 77.8629C110.443 78.0912 110.825 77.7964 110.955 77.2046C111.086 76.6121 110.917 75.9477 110.578 75.7186C110.239 75.4903 109.857 75.7852 109.727 76.3769Z" fill="#FEFFFE"/>
<path d="M100.405 85.5381C100.405 85.5381 95.1452 88.5771 93.1055 83.7634C90.6195 77.8971 94.3419 73.1595 96.78 74.0263C99.0357 74.8293 101.1 78.1961 100.405 85.5381Z" fill="#F9FEFF"/>
<path d="M92.6627 76.2261C93.6273 74.0613 94.938 73.3619 96.3656 73.5841C97.8249 73.8117 99.3126 75.5898 99.7414 77.444C98.945 75.3608 97.5883 74.6181 96.745 74.3185C95.402 73.8385 93.6513 74.9212 92.8739 77.0497C92.1822 78.9429 92.2589 81.7626 93.1717 83.9157C92.1005 82.46 91.6571 78.4821 92.6627 76.2261Z" fill="#773220"/>
<path d="M94.8736 77.3965C94.4018 79.5297 95.0105 81.9263 96.2327 82.7499C97.4549 83.5727 98.8282 82.5105 99.3 80.3773C99.7713 78.2433 99.1626 75.8468 97.9409 75.0239C96.7187 74.2004 95.3454 75.2632 94.8736 77.3965Z" fill="#63190D"/>
<path d="M95.0617 76.7349C94.9312 77.3267 95.0999 77.9918 95.4387 78.2202C95.778 78.4485 96.1588 78.1536 96.2898 77.5619C96.4208 76.9701 96.2517 76.305 95.9129 76.0766C95.5736 75.8483 95.1928 76.1425 95.0617 76.7349Z" fill="#FEFFFE"/>
<path d="M104.992 94.4365L105.022 94.4351C106.094 94.3721 107.025 94.8596 107.514 95.7414C107.58 95.8607 107.578 96.05 107.51 96.1652C107.443 96.2804 107.335 96.2763 107.268 96.1583C106.851 95.4075 105.996 94.9762 105.035 95.0338L105.006 95.0344C104.05 95.101 103.218 95.6365 102.831 96.4388C102.768 96.5636 102.661 96.5794 102.589 96.4745C102.517 96.3682 102.508 96.1796 102.568 96.0527C103.023 95.1133 103.927 94.5106 104.992 94.4365Z" fill="#934341"/>
<path d="M84.9045 59.3802C84.9045 59.3802 83.4027 63.6918 85.0077 64.1556C86.6127 64.6194 88.1097 62.9271 88.3517 60.3756C88.5932 57.8244 87.4888 55.3803 85.8838 54.9168C84.2788 54.453 84.9045 59.3802 84.9045 59.3802Z" fill="#F9951E"/>
<path d="M93.5229 61.869C93.5229 61.869 94.1492 66.7956 92.5441 66.3321C90.9391 65.8686 89.8342 63.4245 90.0762 60.8736C90.3182 58.3221 91.8152 56.6298 93.4202 57.0936C95.0252 57.5571 93.5229 61.869 93.5229 61.869Z" fill="#F9951E"/>
<path d="M90.2709 60.9961C90.156 62.2085 89.5674 63.0481 88.9562 62.8717C88.3451 62.695 87.9428 61.5692 88.0577 60.3568C88.1726 59.1448 88.7612 58.3052 89.3723 58.4815C89.9834 58.6582 90.3858 59.7841 90.2709 60.9961Z" fill="#F9951E"/>
<path opacity="0.24" d="M106.03 117.636C105.816 117.061 104.227 116.928 102.921 115.035C101.077 119.707 100.002 121.561 98.8179 122.365C96.5901 123.876 95.5634 124.2 94.876 123C94.3847 124.572 92.8134 126 92.9767 127.438C93.6846 133.671 96.3197 136.508 99.1088 135.427C102.871 133.971 105.322 125.873 106.03 117.636Z" fill="black"/>
<path d="M98.104 124.614C96.9957 125.769 95.6586 127.986 94.2218 129.231C94.2007 129.177 94.1822 129.12 94.165 129.06C94.605 122.862 95.0206 116.904 95.4572 113.01C96.5176 121.209 97.0319 125.334 98.104 124.614Z" fill="#28AFC6"/>
<path d="M95.4577 113.01C95.0211 116.904 94.6051 122.862 94.1651 129.06C93.6859 127.59 93.2802 125.61 92.9345 122.952C92.4657 119.352 94.7326 113.145 95.2582 111.477C95.3271 112.002 95.3926 112.515 95.4577 113.01Z" fill="#28AFC6"/>
<path opacity="0.24" d="M109.279 112.718C109.787 111.882 110.015 110.071 108.97 109.679C109.107 108.104 109.088 107.196 108.452 106.794C110.082 104.56 111.327 100.936 110.393 98.9807C110.053 98.2683 105.156 104.878 104.664 104.907C104.079 104.944 103.483 101.313 102.274 101.078C101.814 100.99 101.213 108.021 101.791 111.416C102.185 113.728 105.114 118.02 106.542 117.835C108.352 117.601 111.034 114.092 109.279 112.718Z" fill="black"/>
<path d="M120.81 121.902C119.894 124.047 118.617 126.084 117.412 127.347C116.692 125.073 115.219 122.916 113.454 120.816C113.313 118.677 113.175 116.46 113.045 114.177C113.542 114.156 114.026 114.198 114.461 114.318C116.943 115.002 119.439 118.272 120.81 121.902Z" fill="#28AFC6"/>
<path d="M113.453 120.816C112.677 119.889 111.843 118.974 110.992 118.068C110.91 116.949 110.963 115.749 111.202 114.474C111.795 114.306 112.431 114.195 113.045 114.177C113.175 116.46 113.313 118.677 113.453 120.816Z" fill="#28AFC6"/>
<path d="M110.993 118.068C110.254 117.276 109.502 116.493 108.761 115.707C109.196 115.251 110.133 114.774 111.203 114.474C110.964 115.749 110.911 116.949 110.993 118.068Z" fill="#28AFC6"/>
<path d="M117.358 140.784C117.181 140.973 116.999 141.156 116.812 141.336C116.491 141.009 115.787 139.575 114.724 137.502C114.715 137.484 114.705 137.463 114.694 137.445C114.701 137.436 114.71 137.43 114.717 137.421C115.371 136.71 115.894 135.948 116.307 135.177C117.955 132.09 117.858 128.781 117.436 127.419C117.429 127.395 117.42 127.371 117.414 127.347C118.618 126.084 119.895 124.047 120.811 121.902C121.463 123.63 121.86 125.439 121.881 127.089C121.939 132.231 120.708 137.226 117.358 140.784Z" fill="#FFC19F"/>
<path d="M109.658 134.332C110.304 134.658 111.679 134.09 112.354 134.579C112.354 134.579 112.394 134.626 112.415 134.669C111.013 134.807 109.848 135.83 108.739 136.333C108.391 139.009 110.423 137.317 112.541 136.788C111.285 137.44 110.488 138.139 109.617 138.516C108.952 139.627 109.249 140.44 110.133 140.222C110.816 140.053 112.006 139.389 113.238 139.03C113.347 139.083 110.705 141.003 110.453 142.035C110.535 142.574 111.076 142.93 111.885 142.345C112.323 142.028 112.779 141.514 113.783 141.034C114.647 141.206 115.388 142.075 115.732 142.313C117.027 142.912 117.689 139.826 117.701 139.172C117.731 137.474 116.02 134.196 114.957 133.55C113.174 132.468 112.294 131.841 109.409 132.983C108.9 133.527 109.343 134.174 109.658 134.332Z" fill="#FFC19F"/>
<path d="M105.581 117.282C104.212 127.563 101.943 133.455 98.6119 133.242C96.7165 133.122 95.2933 132.405 94.2227 129.231C95.6595 127.986 96.9966 125.769 98.1049 124.614C98.1411 124.593 98.1773 124.563 98.2149 124.527C98.3029 124.443 98.3904 124.356 98.4765 124.263C98.5571 124.176 98.6363 124.086 98.717 123.99C99.8786 122.586 101.071 119.928 102.564 113.523C103.897 115.467 105.365 116.685 105.581 117.282Z" fill="#FFC19F"/>
<path d="M109.841 112.557C109.712 112.094 109.383 111.866 108.967 111.866C109.442 111.084 109.665 110.195 109.476 109.567C109.31 109.013 108.867 108.797 108.326 108.915C108.742 108.19 108.932 107.403 108.767 106.849C108.6 106.294 108.12 106.118 107.54 106.303C109.068 104.227 111.25 100.778 110.331 98.8649C109.997 98.1682 106.45 103.683 104.989 105.635C104.423 106.208 103.918 106.218 103.716 104.576C103.364 102.478 102.89 101.462 102.275 101.078C101.852 100.815 102.01 106.798 102.079 110.196C102.036 110.796 102.046 111.427 102.115 112.139C102.396 115.029 103.399 117.2 104.753 117.673C105.46 117.921 106.647 117.528 108.613 115.528L108.635 115.513C109.541 114.742 110.082 113.418 109.841 112.557Z" fill="#FFC19F"/>
</svg>
