<svg width="450" height="350" viewBox="0 0 450 350" fill="none" xmlns="http://www.w3.org/2000/svg">
<path fill-rule="evenodd" clip-rule="evenodd" d="M195.893 268.295C197.737 277.301 203.558 267.66 203.558 267.66C200.313 267.66 197.69 261.04 197.69 252.865C197.269 253.551 196.911 253.955 196.911 253.955C194.923 256.255 195.893 268.295 195.893 268.295Z" fill="#B82C0D"/>
<path fill-rule="evenodd" clip-rule="evenodd" d="M196.318 267.763C198.161 276.772 203.983 267.13 203.983 267.13C200.738 267.13 198.115 260.51 198.115 252.335C197.694 253.022 197.336 253.426 197.336 253.426C195.347 255.726 196.318 267.763 196.318 267.763Z" fill="#DB4F30"/>
<path fill-rule="evenodd" clip-rule="evenodd" d="M198.049 265.051C198.049 265.051 198.463 263.015 199.177 260.466C200.701 261.116 203.291 262.222 205.377 263.062C204.499 265.434 203.611 267.285 203.611 267.285C203.486 270.021 199.626 268.889 198.406 267.627C197.186 266.366 198.049 265.051 198.049 265.051Z" fill="#FFE0DA"/>
<path fill-rule="evenodd" clip-rule="evenodd" d="M243.241 267.844C240.828 274.376 238.541 272.261 238.541 272.261C234.142 273.675 236.091 256.226 236.091 256.226C236.152 255.622 236.596 254.398 237.014 253.589C237.256 253.117 237.305 252.783 237.305 252.783L237.404 252H237.578C237.578 253.75 238.498 253.012 238.503 253.31C238.503 253.484 237.305 254.06 237.305 254.234V254.251C237.305 254.371 237.46 254.49 237.481 254.606C237.473 254.49 237.539 254.372 237.539 254.255C237.548 254.384 237.587 254.514 237.591 254.642C237.591 254.633 237.604 254.621 237.604 254.611C237.604 254.628 237.612 254.637 237.616 254.652C237.621 254.781 237.628 254.909 237.641 255.029C237.663 255.492 237.699 255.941 237.746 256.386C238.108 260.32 239.077 263.63 240.379 265.666C240.6 266.017 240.835 266.328 241.077 266.599C241.083 266.604 241.083 266.604 241.086 266.609C241.095 266.619 241.103 266.631 241.112 266.64C241.176 266.713 241.24 266.783 241.308 266.846C241.346 266.879 241.38 266.915 241.415 266.942C241.465 266.995 241.517 267.036 241.569 267.08C241.635 267.143 241.703 267.197 241.773 267.245C241.798 267.267 241.823 267.286 241.849 267.303C241.9 267.339 241.952 267.376 242.003 267.404C242.084 267.455 242.16 267.503 242.241 267.542C242.266 267.557 242.292 267.569 242.318 267.578C242.39 267.614 242.459 267.648 242.531 267.672C242.535 267.672 242.535 267.672 242.539 267.677C242.607 267.706 242.675 267.726 242.743 267.748C242.816 267.765 242.892 267.787 242.965 267.801C243.059 267.822 243.148 267.832 243.241 267.844Z" fill="#B82C0D"/>
<path fill-rule="evenodd" clip-rule="evenodd" d="M243.667 266.874C241.252 273.409 238.965 271.294 238.965 271.294C234.567 272.708 236.518 255.259 236.518 255.259C236.577 254.655 236.807 253.431 237.225 252.622C237.468 252.15 237.305 251.816 237.305 251.816V252H238.004C238.004 252 237.657 252.309 237.66 252.605C237.66 252.78 237.496 252.743 237.496 252.918L237.656 252.409C237.656 252.529 237.673 253.521 237.694 253.636C237.686 253.521 237.857 253.405 237.857 253.289C237.865 253.415 237.958 253.548 237.962 253.675C237.962 253.666 238.001 253.654 238.001 253.644C238.001 253.659 238.024 253.671 238.027 253.686C238.033 253.814 238.047 253.939 238.06 254.062C238.081 254.522 238.122 254.974 238.169 255.419C238.53 259.351 239.499 262.662 240.802 264.699C241.024 265.047 241.26 265.361 241.502 265.63C241.506 265.637 241.507 265.637 241.511 265.642C241.52 265.651 241.529 265.664 241.538 265.673C241.602 265.745 241.665 265.815 241.733 265.878C241.772 265.91 241.806 265.948 241.84 265.975C241.89 266.028 241.942 266.069 241.994 266.113C242.062 266.177 242.13 266.23 242.197 266.276C242.223 266.298 242.249 266.319 242.275 266.336C242.325 266.372 242.376 266.409 242.428 266.435C242.508 266.488 242.585 266.537 242.666 266.573C242.691 266.59 242.718 266.599 242.743 266.611C242.816 266.648 242.884 266.68 242.955 266.706C242.96 266.706 242.96 266.706 242.964 266.711C243.032 266.738 243.1 266.76 243.168 266.782C243.241 266.796 243.318 266.818 243.389 266.834C243.484 266.855 243.573 266.865 243.667 266.874Z" fill="#DB4F30"/>
<path fill-rule="evenodd" clip-rule="evenodd" d="M238.025 264.594C238.025 264.594 238.438 262.558 239.152 260.009C240.677 260.659 243.266 261.765 245.353 262.605C244.475 264.977 243.587 266.828 243.587 266.828C243.462 269.564 239.602 268.432 238.382 267.17C237.162 265.909 238.025 264.594 238.025 264.594Z" fill="#FFE0DA"/>
<path fill-rule="evenodd" clip-rule="evenodd" d="M236.912 264.632C236.713 264.612 236.533 264.421 236.512 264.207C236.49 263.992 236.634 263.834 236.832 263.854C237.489 263.922 238.772 264.487 240.031 265.357C241.01 266.032 241.989 266.898 242.674 267.868C242.806 268.054 242.792 268.294 242.642 268.4C242.492 268.507 242.264 268.441 242.132 268.255C241.524 267.392 240.634 266.609 239.739 265.991C238.593 265.2 237.462 264.69 236.912 264.632Z" fill="#DB4F30"/>
<path fill-rule="evenodd" clip-rule="evenodd" d="M242.271 268.095C242.333 268.131 242.397 268.167 242.466 268.198C242.44 268.189 242.415 268.179 242.39 268.162" fill="#FFB685"/>
<path fill-rule="evenodd" clip-rule="evenodd" d="M198.114 252.336C198.114 260.51 200.737 267.13 203.982 267.13C211.502 266.949 214.483 259.527 214.483 259.527C215.802 256.983 215.973 251.562 215.568 245.438H199.174C199.29 245.438 199.337 246.507 199.383 246.894C199.644 249.062 198.796 251.211 198.114 252.336Z" fill="#266B14"/>
<path fill-rule="evenodd" clip-rule="evenodd" d="M254.226 245.438C254.226 245.438 254.226 246.195 254.222 246.368C254.201 250.895 253.734 253.563 253.734 253.563C252.716 266.047 244.687 266.896 242.929 266.885V266.878L237.225 251.794C239.299 250.21 239.061 248.493 238.367 246.791C238.351 246.747 239.062 246.685 238.007 246.649V245.438H254.226Z" fill="#266B14"/>
<path d="M243.929 266.52L244.083 266.616C244.083 266.616 243.364 267.1 243.338 267.1C243.317 267.1 243.459 266.875 243.447 266.875H243.412C243.408 266.875 244.087 265.863 244.083 265.863L243.619 267.221C243.524 267.221 243.324 267.277 243.228 267.272C240.637 267.14 237.923 262.124 237.496 253.366C237.473 252.884 237.504 253.169 237.495 252.671C237.49 252.495 237.693 252.411 237.697 252.233C237.693 252.182 237.657 252.134 237.657 252.084L237.697 252.237L237.511 252.077L243.929 266.52Z" fill="#266B14"/>
<path fill-rule="evenodd" clip-rule="evenodd" d="M237.772 241.934C237.772 241.934 238.753 246.885 239.173 247.226C239.593 247.565 254.217 247.503 254.217 247.503C254.217 247.503 254.071 244.121 253.485 241.935C252.9 239.748 237.772 241.934 237.772 241.934Z" fill="#266B14"/>
<path fill-rule="evenodd" clip-rule="evenodd" d="M215.41 241.603C215.41 241.603 215.561 246.571 215.282 247.035C215.002 247.498 199.219 247.035 198.941 246.506C198.662 245.975 199.477 242.589 198.826 241.603C198.175 240.618 215.41 241.603 215.41 241.603Z" fill="#266B14"/>
<path fill-rule="evenodd" clip-rule="evenodd" d="M212.046 154.497C212.046 154.497 203.54 156.472 195.14 164.772C186.74 173.074 177.448 189.25 177.448 189.25C177.448 189.25 168.936 192.637 166.143 195.237C164.202 197.045 164.193 198.719 166.117 197.83C166.933 197.453 168.758 196.07 169.824 195.787C168.837 196.54 164.264 200.236 165.092 201.797C165.921 203.357 167.113 200.912 171.403 198.677C168.803 200.738 165.722 203.595 166.383 205.224C167.045 206.853 171.183 201.957 172.6 201.296C171.278 202.754 168.355 206.794 169.767 207.769C171.181 208.744 173.782 204.413 175.247 203.595L179.541 201.527C179.672 202.078 178.99 205.785 179.244 206.451C179.491 207.102 180.127 207.36 181.277 205.825C183.148 203.275 183.455 197.238 183.455 197.238C191.77 180.684 199.405 174.93 213.066 170.705C215.375 169.991 219.746 165.923 218.964 160.639C218.183 155.356 214.96 153.53 212.046 154.497Z" fill="#FFB685"/>
<path fill-rule="evenodd" clip-rule="evenodd" d="M235.319 151.434C235.319 151.434 243.825 153.409 252.225 161.71C260.626 170.011 269.917 186.187 269.917 186.187C269.917 186.187 278.429 189.575 281.223 192.174C283.163 193.983 283.172 195.657 281.248 194.768C280.432 194.391 278.607 193.007 277.541 192.724C278.528 193.478 283.101 197.174 282.272 198.734C281.444 200.295 280.251 197.849 275.962 195.615C278.562 197.676 281.643 200.533 280.981 202.162C280.319 203.791 276.181 198.894 274.765 198.233C276.087 199.691 279.01 203.731 277.598 204.706C276.184 205.682 273.583 201.35 272.118 200.532L267.823 198.464C267.692 199.016 268.374 202.722 268.12 203.389C267.873 204.04 267.238 204.298 266.087 202.762C264.217 200.213 263.909 194.175 263.909 194.175C255.595 177.622 247.959 171.868 234.298 167.642C231.99 166.928 227.619 162.86 228.401 157.577C229.182 152.294 232.405 150.468 235.319 151.434Z" fill="#FFB685"/>
<path fill-rule="evenodd" clip-rule="evenodd" d="M251.559 160.09C248.379 165.101 243.069 170.003 238.183 171.665L240.488 175.444C245.252 172.753 249.709 170.287 253.644 164.735C253.28 163.544 252.346 161.511 251.559 160.09Z" fill="#DB4F30"/>
<path fill-rule="evenodd" clip-rule="evenodd" d="M195.859 161.517C199.064 166.569 204.417 171.509 209.342 173.184L207.018 176.994C202.215 174.281 197.723 171.794 193.757 166.199C194.124 164.999 195.066 162.949 195.859 161.517Z" fill="#DB4F30"/>
<path fill-rule="evenodd" clip-rule="evenodd" d="M217.015 132.881L226.95 135.039L227.788 147.321L222.387 148.7L216.733 148.517L217.015 132.881Z" fill="#E8935A"/>
<path fill-rule="evenodd" clip-rule="evenodd" d="M255.819 240.415C244.433 249.378 204.58 250.899 193.6 241.662L193.985 237.401C209.228 246.425 241.059 245.124 255.222 235.566L255.819 240.415Z" fill="#DB4F30"/>
<path fill-rule="evenodd" clip-rule="evenodd" d="M211.865 147.975C215.803 146.313 219.596 145.752 223.257 145.589C226.311 145.452 233.582 146.713 235.89 148.103C234.255 150.746 224.566 151.912 220.685 151.912C216.805 151.912 213.169 149.563 211.865 147.975Z" fill="#E8935A"/>
<path fill-rule="evenodd" clip-rule="evenodd" d="M207.595 149.125C209.434 148.119 211.914 147.066 213.841 146.845C215.36 152.955 228.903 154.347 231.452 146.296C232.978 146.503 234.871 146.814 236.749 147.545C232.878 160.75 213.478 161.173 207.595 149.125Z" fill="#DB4F30"/>
<path fill-rule="evenodd" clip-rule="evenodd" d="M218.293 59.9727C218.293 59.9727 214.127 48.7425 199.403 52.4429C184.68 56.1424 176.919 74.9663 178.514 93.949C179.585 106.668 183.937 113.094 185.297 121.478C186.275 127.507 185.646 132.967 183.846 137.056C182.262 140.656 180.19 141.32 184.615 141.16C185.889 141.114 187.144 140.899 188.379 140.512C193.875 138.787 198.967 133.634 203.417 124.637C211.057 109.187 218.293 59.9727 218.293 59.9727Z" fill="black"/>
<path fill-rule="evenodd" clip-rule="evenodd" d="M199.828 68.6275L198.41 64.2748C201.931 60.7844 214.024 56.3333 217.347 55.814L219.002 60.5954C217.243 61.8633 199.828 68.6275 199.828 68.6275Z" fill="#219487"/>
<path fill-rule="evenodd" clip-rule="evenodd" d="M194.813 120.12C188.268 120.4 186.73 109.071 192.006 107.047C187.372 88.8688 196.046 69.2465 214.969 64.9248C228.064 61.9328 242.939 69.1493 247.101 88.4597C249.895 101.421 250.265 114.47 246.661 123.254C237.883 144.664 202.093 142.817 194.813 120.12Z" fill="#FFB685"/>
<path fill-rule="evenodd" clip-rule="evenodd" d="M231.865 112.363C231.753 117.489 225.31 117.445 224.9 113.742C225.651 114.033 226.547 114.496 227.946 114.379C229.151 114.28 230.84 113.747 231.865 112.363Z" fill="#F09B63"/>
<path fill-rule="evenodd" clip-rule="evenodd" d="M193.066 114.155C193.066 114.155 192.291 112.47 193.585 112.08C194.256 111.877 194.656 112.608 194.874 113.347C195.074 114.028 195.12 114.72 195.083 114.69C195.083 114.69 194.9 114.37 194.639 114.043C194.154 113.438 193.402 112.807 193.066 114.155Z" fill="#FAA66E"/>
<path fill-rule="evenodd" clip-rule="evenodd" d="M245.35 94.6971C243.559 92.6728 240.044 92.1473 238.344 92.2152C235.127 92.3433 236.643 89.766 238.197 89.5223C241.128 89.0638 244.429 90.8038 246.116 93.1658C247.448 95.0309 247.486 97.1103 245.35 94.6971Z" fill="black"/>
<path fill-rule="evenodd" clip-rule="evenodd" d="M207.15 74.7605C207.15 74.7605 211.84 80.5062 220.571 81.3729C229.301 82.2414 239.595 83.6939 243.514 86.8719C247.431 90.0499 248.791 98.7898 248.791 98.7898C257.172 73.7674 230.326 47.7112 201.826 65.9467C189.211 74.0177 181.068 95.1909 188.87 113.663C188.465 109.737 192.383 106.394 195.292 108.677C194.835 102.445 195.71 99.7917 199.072 95.8052C202.272 92.0099 207.172 85.9006 207.15 74.7605Z" fill="#020202"/>
<path fill-rule="evenodd" clip-rule="evenodd" d="M228.558 82.3315C234.282 83.1719 239.68 84.3903 242.683 86.2808C244.868 82.4807 246.057 78.6342 246.613 75.002C244.927 71.9662 242.725 69.2362 240.109 66.9595C238.203 73.4227 233.972 78.516 228.558 82.3315ZM186.746 89.5638C186.052 92.8249 185.725 96.223 185.833 99.6608C188.203 102.224 191.273 104.619 195.18 106.156C195.145 101.641 196.202 99.2098 199.07 95.8056C200.151 94.5242 201.426 92.9793 202.638 91.0662C196.688 91.5146 191.085 90.9918 186.746 89.5638Z" fill="#424242"/>
<path fill-rule="evenodd" clip-rule="evenodd" d="M204.738 96.0645C206.617 93.7913 210.333 92.7737 212.131 92.6039C215.537 92.2815 213.912 89.9177 212.266 89.8914C209.163 89.8429 205.682 92.0426 203.915 94.6405C202.52 96.691 202.494 98.7744 204.738 96.0645Z" fill="black"/>
<path fill-rule="evenodd" clip-rule="evenodd" d="M233.354 125.13C232.807 126.51 230.767 128.988 226.675 129.007C223.11 129.023 220.616 126.787 219.654 125.082C219.069 124.045 219.14 123.031 219.752 123.757C225.081 130.059 231.426 126.282 232.751 124.695C233.251 124.095 233.687 124.29 233.354 125.13Z" fill="#B13B32"/>
<path d="M234.8 110.393C234.8 110.393 241.674 113.688 244.559 109.292C248.075 103.936 243.305 99.155 240.036 99.7815C237.011 100.362 234.147 103.386 234.8 110.393Z" fill="#F9FEFF"/>
<path d="M245.422 102.191C244.22 100.065 242.505 99.2977 240.602 99.3948C238.655 99.4946 236.615 101.059 235.978 102.781C237.111 100.872 238.941 100.276 240.07 100.061C241.872 99.7124 244.157 100.877 245.112 102.953C245.961 104.802 245.756 107.465 244.465 109.431C245.941 108.137 246.674 104.407 245.422 102.191Z" fill="black"/>
<path d="M236.67 104.65C235.932 106.613 236.613 108.95 238.191 109.868C239.769 110.786 241.645 109.939 242.383 107.975C243.121 106.012 242.44 103.675 240.863 102.757C239.285 101.839 237.407 102.686 236.67 104.65Z" fill="black"/>
<path d="M236.955 104.046C236.75 104.59 236.938 105.24 237.377 105.493C237.814 105.748 238.335 105.513 238.54 104.969C238.746 104.423 238.556 103.776 238.118 103.521C237.68 103.266 237.16 103.502 236.955 104.046Z" fill="#FEFFFE"/>
<path d="M219.387 112.237C219.387 112.237 212.686 116.087 209.572 111.925C205.777 106.853 210.298 101.687 213.598 102.05C216.655 102.386 219.676 105.179 219.387 112.237Z" fill="#F9FEFF"/>
<path d="M208.339 104.894C209.43 102.671 211.106 101.765 213.013 101.709C214.965 101.652 217.087 103.052 217.812 104.722C216.579 102.905 214.72 102.457 213.579 102.332C211.76 102.129 209.535 103.478 208.689 105.632C207.937 107.548 208.28 110.195 209.673 112.057C208.131 110.882 207.202 107.211 208.339 104.894Z" fill="black"/>
<path d="M211.547 107.567C211.106 109.669 212.117 111.817 213.806 112.367C215.494 112.915 217.221 111.655 217.661 109.554C218.102 107.453 217.092 105.306 215.402 104.756C213.714 104.207 211.987 105.466 211.547 107.567Z" fill="black"/>
<path d="M211.739 106.908C211.616 107.49 211.897 108.087 212.365 108.239C212.834 108.391 213.313 108.042 213.435 107.459C213.557 106.876 213.277 106.279 212.808 106.128C212.34 105.976 211.862 106.324 211.739 106.908Z" fill="#FEFFFE"/>
<path fill-rule="evenodd" clip-rule="evenodd" d="M238.12 255.669C238.12 255.681 238.124 255.691 238.124 255.7C238.124 255.706 238.124 255.706 238.124 255.712C238.12 255.696 238.12 255.686 238.12 255.669Z" fill="#FFB685"/>
<path fill-rule="evenodd" clip-rule="evenodd" d="M238.124 255.701C238.124 255.706 238.124 255.706 238.124 255.713C238.12 255.696 238.12 255.686 238.12 255.669C238.12 255.682 238.124 255.691 238.124 255.701Z" fill="#FFB685"/>
<path fill-rule="evenodd" clip-rule="evenodd" d="M213.885 246.828V247.036H213.868C213.881 246.966 213.885 246.899 213.885 246.828Z" fill="#546C96"/>
<path fill-rule="evenodd" clip-rule="evenodd" d="M251.557 160.09C250.51 162.868 246.998 166.565 243.605 168.98C243.598 168.941 243.591 168.906 243.581 168.871C242.663 165.029 241.728 161.56 240.786 158.616C239.246 153.803 237.203 152.132 234.63 151.821C233.589 153.401 232.615 154.249 231.107 155.247C231.093 153.886 231.3 152.626 231.757 151.533C232.45 149.857 233.733 148.575 235.734 147.945C236.043 147.849 236.359 147.779 236.686 147.744C241.443 147.166 248 152.653 251.557 160.09Z" fill="#F7931E"/>
<path fill-rule="evenodd" clip-rule="evenodd" d="M216.471 156.857C213.666 155.886 211.107 154.171 209.208 151.721C209.138 151.791 211.177 153.615 211.11 153.694C209.609 155.409 206.002 161.109 204.118 170.533C204.114 170.564 204.107 170.594 204.1 170.629C200.591 168.184 196.939 164.377 195.859 161.516C198.718 155.536 203.502 150.806 207.753 149.432C209.201 148.964 210.586 148.881 211.813 149.271C213.118 149.686 214.116 150.373 214.851 151.261C216.036 152.696 216.528 154.656 216.471 156.857Z" fill="#F7931E"/>
<path fill-rule="evenodd" clip-rule="evenodd" d="M234.981 151.384C233.94 152.963 232.615 154.25 231.107 155.247C226.92 158.016 221.326 158.546 216.471 156.857C213.666 155.886 211.106 154.171 209.208 151.721C210.706 150.233 212.657 150.548 214.851 151.261C217.326 152.062 220.11 153.361 222.891 153.125C226.255 152.841 229.205 151.94 231.757 151.533C232.914 151.349 233.986 151.261 234.981 151.384Z" fill="#F7931E"/>
<path fill-rule="evenodd" clip-rule="evenodd" d="M255.741 239.746L255.738 239.75C245.447 249.777 202.198 250.827 193.761 240.564C193.799 239.754 193.873 238.691 193.986 237.401C209.23 246.426 241.06 245.122 255.221 235.567L255.291 236.123C255.453 237.409 255.608 238.621 255.741 239.746Z" fill="#F7931E"/>
<path fill-rule="evenodd" clip-rule="evenodd" d="M255.221 235.568C241.061 245.123 209.23 246.426 193.986 237.401C194.999 225.719 198.929 195.816 202.898 174.593C203.183 173.079 203.464 171.605 203.749 170.192C203.756 170.157 203.763 170.126 203.767 170.096C205.651 160.672 207.5 153.659 209.002 151.944C209.068 151.865 209.139 151.791 209.209 151.721C211.107 154.171 213.667 155.886 216.472 156.857C221.327 158.546 226.921 158.016 231.108 155.247C232.616 154.249 233.941 152.963 234.982 151.384C237.555 151.694 239.598 153.366 241.138 158.178C242.08 161.123 243.015 164.592 243.933 168.433C243.943 168.468 243.95 168.503 243.957 168.543C244.291 169.925 244.618 171.36 244.945 172.83C249.319 192.596 253.193 219.573 255.221 235.568Z" fill="#F7931E"/>
<path fill-rule="evenodd" clip-rule="evenodd" d="M196.935 265.089C196.736 265.07 196.557 264.878 196.535 264.664C196.513 264.449 196.657 264.291 196.855 264.311C197.512 264.379 198.795 264.944 200.054 265.814C201.033 266.489 202.012 267.355 202.697 268.325C202.829 268.511 202.815 268.751 202.665 268.857C202.516 268.964 202.287 268.898 202.155 268.712C201.547 267.849 200.657 267.066 199.762 266.449C198.616 265.657 197.485 265.147 196.935 265.089Z" fill="#DB4F30"/>
<path fill-rule="evenodd" clip-rule="evenodd" d="M254.883 164.5C252.204 168.284 248.136 172.16 245.039 174.125C244.712 172.655 244.29 169.925 243.956 168.542C243.949 168.503 243.942 168.468 243.932 168.433C246.878 166.171 249.616 163.148 251.557 160.09C252.345 161.512 254.521 163.31 254.883 164.5Z" fill="#DB4F30"/>
<path fill-rule="evenodd" clip-rule="evenodd" d="M203.766 170.096C203.762 170.126 203.755 170.157 203.748 170.192C203.463 171.605 203.182 173.079 202.897 174.593C199.638 172.563 196.566 170.161 193.757 166.197C194.122 164.999 195.065 162.951 195.859 161.516C197.863 164.675 200.711 167.794 203.766 170.096Z" fill="#DB4F30"/>
<path fill-rule="evenodd" clip-rule="evenodd" d="M255.818 240.415C244.435 249.379 204.578 250.897 193.599 241.662L193.985 237.401C209.229 246.426 241.06 245.122 255.221 235.567L255.291 236.123L255.737 239.75L255.818 240.415Z" fill="#DB4F30"/>
<path fill-rule="evenodd" clip-rule="evenodd" d="M236.75 147.542C236.729 147.612 236.711 147.678 236.687 147.744C236.272 149.095 235.695 150.307 234.981 151.384C233.941 152.963 232.615 154.249 231.107 155.247C226.92 158.016 221.327 158.545 216.472 156.857C213.666 155.885 211.107 154.17 209.208 151.72C208.663 151.02 208.175 150.255 207.753 149.432C207.697 149.332 207.644 149.231 207.595 149.126C209.437 148.12 211.915 147.065 213.842 146.847C215.361 152.954 228.903 154.345 231.452 146.295C232.981 146.501 234.872 146.816 236.75 147.542Z" fill="#DB4F30"/>
</svg>
