<svg width="220" height="240" viewBox="0 0 220 240" fill="none" xmlns="http://www.w3.org/2000/svg">
<path opacity="0.23" d="M115.861 151.74C115.328 149.94 114.813 148.2 114.383 146.64C113.85 145.29 113.386 144.09 113.128 143.28L95.4594 144.18C95.4594 144.18 94.0841 149.4 92.6405 154.77C92.5544 155.37 92.4689 155.94 92.3828 156.51C94.1189 157.83 97.9513 160.59 104.809 159.45C110.206 158.55 113.592 154.53 115.861 151.74Z" fill="black"/>
<path d="M133.203 94.4098C132.567 93.7502 130.625 91.4099 131.124 85.3502C131.313 83.1004 130.419 82.3502 129.628 81.6898C128.563 80.7902 127.634 80.0098 128.597 76.0204C129.8 71.0098 129.061 66.78 126.655 64.92C125.091 63.72 123.424 61.47 121.946 58.59C121.653 58.05 121.378 57.4501 121.103 56.8501C120.45 54.72 119.934 52.65 119.556 51.15C118.766 50.91 117.941 50.76 117.081 50.67C116.308 50.58 115.5 50.55 114.675 50.55C116.72 52.17 118.284 54.99 119.299 59.73C119.453 60.45 119.556 62.31 119.608 64.86C118.92 64.1701 118.216 63.54 117.46 62.97C117.253 61.26 116.669 57.72 116.394 57.42C116.377 57.87 116.188 60.48 116.153 62.07C115.483 61.68 114.761 61.32 113.953 61.02C113.884 58.44 113.351 55.11 112.956 53.91C112.974 54.36 113.043 56.34 113.18 60.7501C111.031 60.06 108.333 59.73 104.706 59.82C104.311 59.82 103.916 59.85 103.503 59.88C103.228 58.83 102.558 56.34 102.249 55.8C102.249 55.92 101.767 58.26 101.853 60.06C99.1723 60.45 96.4222 61.29 94.0159 62.43C94.0673 60.75 94.2047 57.57 94.2907 56.67C94.0331 57.24 92.7439 61.5 92.5204 63.21C90.8015 64.2 89.3407 65.3701 88.3439 66.66C88.3267 63.9901 88.361 61.8 88.4812 60.39C88.5159 60.12 88.5673 59.85 88.6191 59.58C88.6015 59.58 88.5844 59.61 88.5673 59.61C87.9141 60.03 87.347 60.42 86.8659 60.78L86.1781 59.34C86.1267 60.18 86.0236 60.99 85.8515 61.77C85.147 65.07 83.5312 67.77 82.4659 70.2C80.8844 73.8898 80.2312 77.7004 81.3659 81.6302C81.8128 83.1902 82.1736 84.5698 81.9159 85.8C81.6925 86.8498 81.0223 87.7502 79.8704 88.5902C78.7191 89.4302 78.0312 90.4498 77.7565 91.7404C77.3781 93.5404 77.911 95.4 78.3749 97.0499C78.7015 98.1902 78.7015 99.9902 78.5299 100.92C77.9281 104.34 77.2749 105.6 77.6704 107.97C77.5159 105.45 78.3065 104.1 78.8736 101.25C79.0799 100.2 79.1488 98.4604 78.5299 96.3299C78.0831 94.8 77.7736 93.5404 78.1002 92.0098C78.3407 90.9004 78.9596 90 79.9907 89.2499C81.2628 88.32 81.9844 87.3004 82.2425 86.0702C82.3457 85.6204 82.3457 85.1102 82.3281 84.6302C82.9988 86.9698 83.0331 88.92 80.6096 90.9902C76.1749 94.8 80.6781 99.84 80.0767 102.24C79.011 106.32 78.7015 107.13 78.9596 110.25C79.2515 113.82 80.747 115.86 82.2249 116.46C82.2249 115.89 80.6957 112.71 81.8128 107.16C82.1565 110.13 83.9781 117.09 84.4596 117.24C92.0223 119.64 114.503 121.65 122.496 114.51C124.025 113.16 123.596 107.1 123.991 105.39C124.283 104.16 125.933 114.54 126.431 113.55C133.272 99.9298 131.605 95.9404 130.746 95.8499C129.543 95.7004 128.786 95.9102 129.886 86.3404C130.419 81.6898 125.572 84.3902 127.377 76.92C128.46 72.4498 127.858 68.7298 125.52 66.24C124.696 65.37 123.939 64.02 123.234 62.46C124.317 63.8101 125.417 64.92 126.466 65.7C128.7 67.41 129.439 70.9804 128.305 75.6898C127.205 80.2498 128.477 81.3298 129.508 82.2302C130.299 82.92 130.951 83.4302 130.797 85.2C130.161 92.0098 132.825 94.2302 133.203 94.4098ZM81.4691 80.5804C80.747 77.3404 81.2281 74.2498 82.6033 71.04C83.3767 69.24 84.6141 67.7101 85.5767 65.82C84.3736 71.8204 81.4173 76.08 81.4691 80.5804ZM112.939 53.91C112.939 53.91 112.939 53.94 112.956 53.94C112.939 53.85 112.939 53.82 112.939 53.91Z" fill="#D6B45F"/>
<path d="M112.957 53.9401C112.957 53.9401 112.957 53.91 112.939 53.91C112.939 53.8201 112.939 53.85 112.957 53.9401Z" fill="#D6B45F"/>
<path d="M122.152 60.54C122.101 59.88 122.049 59.25 121.964 58.59C120.537 47.79 113.542 39.8699 104.037 40.4699C93.8104 41.1 86.901 47.31 85.8352 61.89C85.801 62.34 85.7667 62.79 85.7491 63.27C85.5086 68.25 85.8181 72.84 86.5573 76.9501C87.1586 80.28 88.0352 83.28 89.1352 85.92C90.5276 89.2203 92.2636 91.9501 94.2402 94.0498C97.282 97.2603 100.892 98.9101 104.638 98.7003C108.867 98.4898 112.751 95.7298 115.793 91.1101C117.117 89.1003 118.268 86.7901 119.231 84.1501C120.107 81.7803 120.812 79.1698 121.328 76.3501C122.204 71.5803 122.531 66.21 122.152 60.54ZM113.181 60.78C111.032 60.09 108.334 59.76 104.707 59.85C104.312 59.85 103.917 59.88 103.504 59.91C103.229 58.86 102.559 56.37 102.249 55.83C102.249 55.95 101.768 58.29 101.854 60.09C99.1731 60.48 96.4231 61.32 94.0167 62.46C94.0681 60.78 94.2055 57.6 94.2915 56.7C94.0339 57.27 92.7447 61.53 92.5212 63.24C90.8023 64.23 89.3415 65.4 88.3447 66.69C88.3275 64.02 88.3618 61.8299 88.482 60.42C88.5167 60.1499 88.5681 59.88 88.6199 59.61C88.6712 59.28 88.7402 58.92 88.7915 58.56C91.1807 49.38 96.5257 48.78 103.487 48.42C107.955 48.18 111.805 48.12 114.71 50.46C116.755 52.08 118.32 54.9 119.334 59.64C119.488 60.36 119.592 62.22 119.643 64.77C118.955 64.08 118.251 63.45 117.495 62.88C117.288 61.17 116.704 57.63 116.429 57.33C116.412 57.78 116.223 60.39 116.188 61.98C115.518 61.59 114.797 61.23 113.988 60.93C113.92 58.35 113.387 55.02 112.992 53.82C112.974 54.3899 113.026 56.37 113.181 60.78Z" fill="#D6B45F"/>
<path d="M88.4641 60.4801C88.3609 61.8601 88.3096 64.0801 88.3267 66.7501C88.2064 66.9001 88.1033 67.0501 88.0001 67.2001C87.5704 67.8001 87.8456 64.3801 88.4641 60.4801Z" fill="#D6B45F"/>
<path d="M112.957 53.9401C112.957 53.9401 112.957 53.91 112.939 53.91C112.939 53.8201 112.939 53.85 112.957 53.9401Z" fill="#D6B45F"/>
<path d="M120.623 65.9101C120.278 65.5501 119.952 65.1901 119.608 64.8601C119.557 62.3101 119.471 60.4501 119.299 59.7301C118.285 54.9901 116.721 52.1701 114.676 50.5501C111.771 48.2101 107.921 48.2701 103.452 48.5101C96.4911 48.8701 91.1284 49.4701 88.7568 58.6501C89.3582 55.2001 90.1834 51.8101 90.9568 50.9101C93.6897 47.7301 98.846 46.4101 103.882 46.2901C108.505 46.2001 113.678 47.3701 116.463 49.8301C116.669 50.0101 116.876 50.3101 117.082 50.6701C119.23 54.4501 121.654 66.9901 120.623 65.9101Z" fill="#D6B45F"/>
<path d="M119.316 59.7301C118.302 54.9901 116.738 52.1701 114.693 50.55C105.6 50.61 94.1365 56.1 88.5846 59.6701C88.5333 59.94 88.4986 60.2101 88.4473 60.48C88.3441 61.86 88.2928 64.08 88.3099 66.7501C89.3067 65.46 90.7675 64.2901 92.4865 63.3C92.7099 61.5901 93.9986 57.3301 94.2567 56.76C94.1707 57.66 94.0504 60.8101 93.9815 62.52C96.3878 61.38 99.1207 60.54 101.819 60.1501C101.733 58.3501 102.214 56.0101 102.214 55.8901C102.541 56.4301 103.194 58.8901 103.469 59.9701C103.881 59.94 104.277 59.9101 104.673 59.9101C108.299 59.82 110.997 60.18 113.146 60.84C112.991 56.4301 112.94 54.4501 112.923 54C113.318 55.2 113.85 58.5 113.919 61.1101C114.727 61.4101 115.449 61.7701 116.119 62.16C116.171 60.54 116.343 57.9301 116.36 57.5101C116.652 57.8101 117.219 61.3501 117.425 63.06C118.181 63.6301 118.886 64.26 119.574 64.9501C119.574 62.3101 119.471 60.4501 119.316 59.7301ZM112.94 53.91C112.94 53.82 112.94 53.85 112.957 53.94C112.94 53.94 112.94 53.91 112.94 53.91Z" fill="#D6B45F"/>
<path d="M114.692 50.55C105.6 50.61 94.1358 56.1 88.584 59.67C88.6358 59.34 88.7042 58.98 88.7561 58.62C91.1453 49.44 96.4903 48.84 103.452 48.48C107.937 48.27 111.77 48.21 114.692 50.55Z" fill="#D6B45F"/>
<path d="M108.814 108.99C106.322 108.6 102.953 108.69 100.169 109.17C100.22 111.48 101.2 116.31 104.277 116.43C107.783 116.55 108.728 112.29 108.814 108.99Z" fill="#E0956C"/>
<path fill-rule="evenodd" clip-rule="evenodd" d="M89.255 176.91C90.0974 182.73 92.7785 176.49 92.7785 176.49C91.2834 176.49 90.0803 172.2 90.0803 166.92C89.8911 167.37 89.7195 167.61 89.7195 167.61C88.8082 169.11 89.255 176.91 89.255 176.91Z" fill="#892910"/>
<path fill-rule="evenodd" clip-rule="evenodd" d="M89.4611 176.55C90.3035 182.37 92.9845 176.13 92.9845 176.13C91.4895 176.13 90.2863 171.84 90.2863 166.56C90.0971 167.01 89.9255 167.28 89.9255 167.28C89.0143 168.78 89.4611 176.55 89.4611 176.55Z" fill="#E2511E"/>
<path fill-rule="evenodd" clip-rule="evenodd" d="M90.08 174.51C90.08 174.51 90.2692 173.19 90.5958 171.54C91.3003 171.96 92.4863 172.68 93.4489 173.22C93.0363 174.75 92.6408 175.95 92.6408 175.95C92.5895 177.72 90.8016 177 90.2345 176.16C89.6845 175.35 90.08 174.51 90.08 174.51Z" fill="#FFC76E"/>
<path fill-rule="evenodd" clip-rule="evenodd" d="M111.083 176.61C109.966 180.84 108.917 179.46 108.917 179.46C106.889 180.36 107.783 169.11 107.783 169.11C107.817 168.72 108.024 167.94 108.213 167.4C108.316 167.1 108.35 166.8 108.35 166.8L108.401 166.2H108.488C108.488 167.7 108.883 166.95 108.883 167.13C108.883 167.25 108.299 167.7 108.299 167.82C108.299 167.91 108.401 167.97 108.419 168.06C108.419 167.97 108.35 167.91 108.35 167.82C108.35 167.91 108.299 168 108.299 168.06C108.299 168.06 108.299 168.06 108.299 168.03L108.401 168.06C108.401 168.15 108.453 168.24 108.47 168.3C108.488 168.6 108.522 168.9 108.539 169.17C108.711 171.72 109.158 173.85 109.76 175.17C109.863 175.41 109.983 175.59 110.086 175.77C110.086 175.77 110.103 175.77 110.103 175.8C110.138 175.86 110.155 175.89 110.189 175.92C110.206 175.95 110.224 175.98 110.241 175.98C110.258 176.01 110.293 176.04 110.31 176.07C110.344 176.1 110.378 176.16 110.396 176.19C110.413 176.19 110.413 176.22 110.43 176.22C110.447 176.25 110.481 176.28 110.499 176.28C110.533 176.31 110.567 176.34 110.601 176.37C110.619 176.37 110.619 176.4 110.636 176.4C110.67 176.43 110.705 176.46 110.739 176.46C110.774 176.49 110.808 176.49 110.825 176.52C110.86 176.52 110.894 176.55 110.928 176.55C110.997 176.58 111.031 176.61 111.083 176.61Z" fill="#892910"/>
<path fill-rule="evenodd" clip-rule="evenodd" d="M111.273 175.98C110.155 180.21 109.107 178.83 109.107 178.83C107.078 179.73 107.973 168.48 107.973 168.48C108.007 168.09 108.076 167.31 108.265 166.77C108.385 166.47 108.265 166.26 108.265 166.26V166.2H108.643C108.643 166.2 108.488 166.47 108.488 166.68C108.488 166.8 108.42 166.8 108.42 166.92L108.488 166.62C108.488 166.71 108.488 167.34 108.505 167.43C108.505 167.34 108.574 167.28 108.574 167.22C108.574 167.31 108.626 167.4 108.626 167.46C108.626 167.46 108.643 167.46 108.643 167.43L108.66 167.46C108.66 167.55 108.677 167.61 108.677 167.7C108.694 168 108.711 168.3 108.728 168.57C108.901 171.12 109.347 173.25 109.949 174.57C110.052 174.78 110.155 174.99 110.276 175.17C110.276 175.17 110.276 175.17 110.293 175.2C110.327 175.26 110.344 175.29 110.378 175.32C110.396 175.35 110.413 175.38 110.43 175.38C110.447 175.41 110.482 175.44 110.499 175.47C110.533 175.5 110.568 175.56 110.585 175.59C110.602 175.59 110.602 175.62 110.62 175.62C110.637 175.65 110.671 175.68 110.688 175.68C110.723 175.71 110.757 175.74 110.791 175.77C110.808 175.77 110.808 175.8 110.826 175.8C110.86 175.83 110.894 175.83 110.928 175.86C110.963 175.89 110.997 175.89 111.015 175.92C111.049 175.92 111.083 175.95 111.118 175.95C111.187 175.98 111.238 175.98 111.273 175.98Z" fill="#E2511E"/>
<path fill-rule="evenodd" clip-rule="evenodd" d="M108.677 174.51C108.677 174.51 108.866 173.19 109.192 171.54C109.897 171.96 111.083 172.68 112.046 173.22C111.633 174.75 111.237 175.95 111.237 175.95C111.186 177.72 109.399 177 108.831 176.16C108.281 175.35 108.677 174.51 108.677 174.51Z" fill="#FFC76E"/>
<path d="M91.9017 176.88C91.9193 176.91 91.9706 176.91 91.9877 176.88C92.0048 176.85 92.0048 176.76 91.9877 176.73C91.799 176.4 91.4724 176.31 91.1972 176.49C91.163 176.52 91.1459 176.58 91.163 176.64C91.163 176.67 91.1801 176.67 91.1801 176.7C91.1972 176.73 91.2143 176.73 91.2314 176.7C91.4895 176.52 91.7472 176.61 91.9017 176.88Z" fill="#D3DAE5"/>
<path d="M91.9017 176.49C91.9193 176.52 91.9706 176.52 91.9877 176.49C92.0048 176.46 92.0048 176.37 91.9877 176.34C91.799 176.01 91.4724 175.92 91.1972 176.1C91.163 176.13 91.1459 176.19 91.163 176.25C91.163 176.28 91.1801 176.28 91.1801 176.31C91.1972 176.34 91.2143 176.34 91.2314 176.31C91.4895 176.13 91.7472 176.22 91.9017 176.49Z" fill="#D3DAE5"/>
<path d="M91.9017 176.04C91.9193 176.07 91.9706 176.07 91.9877 176.04C92.0048 176.01 92.0048 175.92 91.9877 175.89C91.799 175.56 91.4724 175.47 91.1972 175.65C91.163 175.68 91.1459 175.74 91.163 175.8C91.163 175.83 91.1801 175.83 91.1801 175.86C91.1972 175.89 91.2143 175.89 91.2314 175.86C91.4895 175.68 91.7472 175.77 91.9017 176.04Z" fill="#D3DAE5"/>
<path d="M110.309 176.94C110.326 176.97 110.378 176.97 110.395 176.94C110.413 176.91 110.413 176.82 110.395 176.79C110.206 176.46 109.88 176.37 109.604 176.55C109.57 176.58 109.553 176.64 109.57 176.7C109.57 176.73 109.587 176.73 109.587 176.76C109.604 176.79 109.622 176.79 109.639 176.76C109.897 176.58 110.154 176.67 110.309 176.94Z" fill="#D3DAE5"/>
<path d="M110.309 176.55C110.326 176.58 110.378 176.58 110.395 176.55C110.413 176.52 110.413 176.43 110.395 176.4C110.206 176.07 109.88 175.98 109.604 176.16C109.57 176.19 109.553 176.25 109.57 176.31C109.57 176.34 109.587 176.34 109.587 176.37C109.604 176.4 109.622 176.4 109.639 176.37C109.897 176.19 110.154 176.28 110.309 176.55Z" fill="#D3DAE5"/>
<path d="M110.309 176.1C110.326 176.13 110.378 176.13 110.395 176.1C110.413 176.07 110.413 175.98 110.395 175.95C110.206 175.62 109.88 175.53 109.604 175.71C109.57 175.74 109.553 175.8 109.57 175.86C109.57 175.89 109.587 175.89 109.587 175.92C109.604 175.95 109.622 175.95 109.639 175.92C109.897 175.74 110.154 175.83 110.309 176.1Z" fill="#D3DAE5"/>
<path d="M108.281 102.81V111C108.281 112.77 106.683 114.18 104.707 114.18C102.747 114.18 101.149 112.74 101.166 110.97V102.81H108.281Z" fill="#E0956C"/>
<path d="M88.7733 58.6199C88.7044 58.9799 88.6531 59.3098 88.6012 59.6698C88.5499 59.9399 88.5157 60.2099 88.4639 60.4799C88.481 60.1799 88.5157 59.9399 88.5499 59.7298C88.5841 59.5199 88.6012 59.3399 88.6359 59.2199C88.6702 59.0098 88.722 58.7999 88.7733 58.6199Z" fill="#FFC19F"/>
<path d="M112.939 53.91C112.939 53.8201 112.939 53.85 112.957 53.9401C112.939 53.9401 112.939 53.91 112.939 53.91Z" fill="#FFC19F"/>
<path d="M126.327 89.1003C125.417 95.8498 121.739 100.23 118.92 99.6898C116.101 99.1501 115.482 93.6603 115.895 87.1803C116.307 80.7003 118.92 75.84 121.739 76.4098C125.589 77.16 127.187 82.7403 126.327 89.1003Z" fill="#FFC19F"/>
<path d="M83.7708 89.3999C84.905 96.0602 88.7379 100.02 91.5221 99.2097C94.3235 98.3697 94.7532 92.8497 94.1176 86.3999C93.4987 79.9802 90.7145 75.39 87.9127 76.2602C84.0969 77.43 82.705 83.1599 83.7708 89.3999Z" fill="#FFC19F"/>
<path d="M119.504 77.0702C119.453 78.7502 119.401 80.4597 119.315 82.1698C119.281 82.8302 119.246 83.4898 119.212 84.1502C119.057 87.1502 118.851 90 118.61 92.4C118.336 95.0702 118.009 97.2302 117.614 98.4898C117.579 98.6098 117.545 98.6997 117.51 98.8197C115.586 104.07 106.889 108.48 104.826 108.6C102.867 108.69 93.5167 104.58 91.1451 99.8702C91.0591 99.72 90.9901 99.5397 90.9217 99.3298C90.5433 98.2197 90.1825 96.2702 89.873 93.84C89.5807 91.56 89.3401 88.8302 89.1167 85.9502C89.0654 85.2 89.0135 84.4197 88.9622 83.64C88.8072 81.1797 88.6699 78.6597 88.5667 76.2C88.4293 72.8098 88.3433 69.5397 88.3262 66.75C89.323 65.46 90.7838 64.29 92.5027 63.3C92.7262 61.59 94.0154 57.33 94.273 56.76C94.187 57.66 94.0667 60.81 93.9983 62.52C96.4041 61.38 99.137 60.54 101.836 60.15C101.75 58.35 102.231 56.01 102.231 55.89C102.557 56.43 103.21 58.89 103.486 59.97C103.898 59.94 104.293 59.91 104.689 59.91C108.315 59.82 111.014 60.18 113.162 60.84C113.007 56.43 112.956 54.45 112.939 54C113.334 55.2 113.867 58.5 113.936 61.11C114.743 61.41 115.465 61.77 116.136 62.16C116.187 60.54 116.359 57.93 116.376 57.51C116.669 57.81 117.236 61.35 117.442 63.06C118.198 63.63 118.903 64.26 119.59 64.95C119.676 68.13 119.642 72.5102 119.504 77.0702Z" fill="#FFC19F"/>
<path fill-rule="evenodd" clip-rule="evenodd" d="M90.2861 166.59C90.2861 171.87 91.4893 176.16 92.9843 176.16C96.4564 176.04 97.8312 171.33 97.8312 171.33C98.433 169.68 98.519 166.5 98.3298 162.3H90.7672C90.819 162.3 90.8361 162.9 90.8704 163.17C90.9906 164.55 90.5956 165.87 90.2861 166.59Z" fill="#FFC19F"/>
<path fill-rule="evenodd" clip-rule="evenodd" d="M116.136 162.3C116.136 162.3 116.136 162.69 116.136 162.81C116.119 165.75 115.964 167.43 115.964 167.43C115.5 175.5 111.719 176.01 111.031 175.98L108.35 166.23C109.312 165.21 109.243 164.1 108.917 162.99C108.917 162.96 108.969 162.93 108.796 162.9V162.3H116.136Z" fill="#FFC19F"/>
<path d="M111.393 175.74L111.461 175.8C111.461 175.8 111.135 176.01 111.117 176.01C111.1 176.01 111.169 175.77 111.169 175.77H111.152L111.461 175.2L111.255 176.13C111.203 176.13 111.117 176.19 111.083 176.19C109.897 176.1 108.643 172.86 108.436 167.22C108.419 166.92 108.436 167.1 108.436 166.77C108.436 166.65 108.522 166.59 108.522 166.5C108.522 166.47 108.505 166.44 108.505 166.41L108.522 166.5L108.436 166.41L111.393 175.74Z" fill="#FFC19F"/>
<path d="M78.1002 118.74C77.6533 116.79 78.4439 114.72 79.4925 113.04C87.4844 127.62 90.3204 120.96 96.7488 110.34C98.9141 111.72 99.0344 117.72 98.261 120.6C91.6439 132.48 85.5249 134.58 78.1002 118.74Z" fill="#FFC19F"/>
<path d="M130.47 120.06C130.985 118.14 130.246 116.01 129.266 114.24C120.827 128.04 118.215 121.11 112.113 109.92C109.913 111.09 109.604 117.06 110.274 120.03C116.53 132.51 122.563 135.18 130.47 120.06Z" fill="#FFC19F"/>
<path d="M137.259 113.58C137.225 113.94 137.208 114.69 135.85 115.41C135.626 115.53 136.916 115.23 136.761 115.65C136.297 116.85 135.351 118.38 133.77 119.76C130.642 122.49 127.961 121.26 127.514 119.61C127.204 118.44 129.37 108.96 132.12 107.97C132.395 107.88 131.192 111.39 131.501 111.6C131.914 111.87 132.584 110.79 133.581 110.52C135.781 109.89 137.363 109.98 136.967 111.27C136.83 111.72 133.323 113.94 133.323 114.21C133.323 114.45 137.276 113.31 137.259 113.58Z" fill="#FFC19F"/>
<path d="M71.5518 111C71.5694 111.36 71.5694 112.11 72.8928 112.98C73.1163 113.13 71.8271 112.68 71.9815 113.13C72.4113 114.39 73.305 116.01 74.8347 117.51C77.8771 120.51 80.5928 119.58 81.091 117.96C81.4347 116.82 79.5613 107.13 76.846 105.9C76.5708 105.78 77.6536 109.41 77.3442 109.56C76.9315 109.77 76.2784 108.66 75.2992 108.27C73.1163 107.43 71.5518 107.37 71.896 108.69C72.0163 109.14 75.4536 112.02 75.4365 112.26C75.4536 112.56 71.5347 110.73 71.5518 111Z" fill="#FFC19F"/>
<path d="M103.349 87.3298C103.434 87.3298 103.503 87.2098 103.52 87.0603C103.606 86.0098 104.07 85.2898 104.706 85.2603C105.342 85.2302 105.858 85.8898 105.961 86.9403C105.978 87.0898 106.064 87.2098 106.167 87.1803C106.27 87.1502 106.322 87 106.304 86.8203C106.167 85.5003 105.514 84.6 104.706 84.6603C103.899 84.6898 103.28 85.6498 103.176 87C103.159 87.1803 103.228 87.3298 103.331 87.3298H103.349Z" fill="#C67F75"/>
<path d="M92.2104 69.36C92.3307 69.3298 92.4338 69.24 92.5199 69.0898C93.637 67.05 95.8717 66.21 97.7451 67.14C98.0028 67.26 98.2775 67.02 98.3465 66.54C98.4154 66.09 98.2604 65.61 98.0028 65.49C95.7685 64.38 93.1559 65.4 91.7807 67.89C91.592 68.2199 91.6091 68.7902 91.7983 69.12C91.9357 69.2996 92.073 69.3902 92.2104 69.36Z" fill="#775D2A"/>
<path d="M116.118 68.34C116.256 68.34 116.393 68.2499 116.479 68.04C116.668 67.68 116.651 67.14 116.445 66.8099C114.967 64.5 112.32 63.8699 110.137 65.28C109.879 65.46 109.759 65.94 109.845 66.3899C109.948 66.84 110.223 67.0499 110.481 66.9C112.303 65.7 114.589 66.24 115.792 68.1C115.877 68.2499 115.998 68.34 116.118 68.34Z" fill="#775D2A"/>
<path d="M108.504 85.5298C108.504 85.5298 113.798 88.3804 115.775 83.4898C118.181 77.52 114.417 72.9298 111.976 73.8898C109.742 74.76 107.714 78.2098 108.504 85.5298Z" fill="#F9FEFF"/>
<path d="M116.136 75.9298C115.139 73.7999 113.833 73.1396 112.406 73.4399C110.946 73.7101 109.484 75.5396 109.072 77.4301C109.846 75.3298 111.186 74.5199 112.028 74.1901C113.369 73.6498 115.122 74.6701 115.93 76.7698C116.652 78.6301 116.6 81.4498 115.724 83.6399C116.772 82.1396 117.167 78.1501 116.136 75.9298Z" fill="#773220"/>
<path d="M109.673 79.2898C109.209 81.4203 109.81 83.8203 111.031 84.6302C112.251 85.44 113.626 84.3902 114.09 82.2603C114.554 80.1298 113.953 77.7298 112.733 76.92C111.512 76.1102 110.137 77.16 109.673 79.2898Z" fill="#00576C"/>
<path d="M109.863 78.6302C109.725 79.2302 109.897 79.8898 110.241 80.1298C110.585 80.3698 110.963 80.0701 111.1 79.4702C111.238 78.8702 111.066 78.2098 110.723 77.9698C110.361 77.76 109.983 78.0603 109.863 78.6302Z" fill="#FEFFFE"/>
<path d="M100.53 85.7102C100.53 85.7102 95.2702 88.7404 93.2252 83.9404C90.7328 78.0604 94.4625 73.3502 96.9031 74.1902C99.1544 75.0001 101.234 78.3601 100.53 85.7102Z" fill="#F9FEFF"/>
<path d="M92.7957 76.3802C93.7578 74.2203 95.0641 73.5297 96.4907 73.7403C97.952 73.9803 99.4299 75.7501 99.8596 77.6097C99.0691 75.5402 97.711 74.7901 96.8691 74.4897C95.5281 74.0097 93.7754 75.0897 93.0015 77.2202C92.3141 79.1101 92.383 81.9297 93.2938 84.0897C92.2281 82.6202 91.7812 78.6602 92.7957 76.3802Z" fill="#773220"/>
<path d="M94.9956 79.6498C94.5311 81.7796 95.1329 84.1796 96.3532 84.9902C97.5735 85.8 98.9487 84.7502 99.4127 82.6196C99.8766 80.4898 99.2748 78.0898 98.0545 77.28C96.8514 76.4702 95.4766 77.52 94.9956 79.6498Z" fill="#00576C"/>
<path d="M95.1851 78.9902C95.0477 79.5902 95.2198 80.2499 95.5635 80.4899C95.9072 80.7299 96.2851 80.4302 96.4229 79.8302C96.5603 79.2302 96.3882 78.5699 96.0445 78.3299C95.7008 78.1201 95.3229 78.4197 95.1851 78.9902Z" fill="#FEFFFE"/>
<path d="M85.0258 59.55C85.0258 59.55 83.5302 63.87 85.1289 64.32C86.7271 64.77 88.2226 63.09 88.4802 60.54C88.7213 57.99 87.6213 55.56 86.0055 55.08C84.4068 54.63 85.0258 59.55 85.0258 59.55Z" fill="#F9951E"/>
<path d="M93.6541 62.04C93.6541 62.04 94.273 66.96 92.6748 66.5101C91.0762 66.06 89.9591 63.6 90.1996 61.05C90.4401 58.5 91.9356 56.82 93.5509 57.27C95.1496 57.72 93.6541 62.04 93.6541 62.04Z" fill="#F9951E"/>
<path d="M90.4066 61.1699C90.2864 62.3699 89.7016 63.2099 89.0832 63.0599C88.4643 62.8799 88.0692 61.7699 88.1895 60.5399C88.3098 59.3399 88.894 58.4999 89.5129 58.6499C90.1143 58.8299 90.5098 59.9399 90.4066 61.1699Z" fill="#F9951E"/>
<path d="M97.196 115.56C96.3878 116.43 95.7004 117.3 95.1162 118.14C95.2365 116.64 95.3739 115.26 95.4941 114.03C96.3194 114.21 96.5599 114.9 97.196 115.56Z" fill="#28AFC6"/>
<path d="M95.4771 144.51C95.4771 144.51 91.7992 148.62 89.96 160.62C96.491 171.09 109.725 173.88 119.075 158.85C118.44 155.97 115.225 144.12 113.524 143.58L95.4771 144.51Z" fill="#2A535E"/>
<path d="M117.545 127.5C117.029 128.04 116.514 128.46 116.067 128.64C115.723 128.1 114.846 127.11 113.936 125.76C112.698 123.93 111.374 121.38 111.134 118.2C111.993 119.1 112.819 120.03 113.592 120.96C115.345 123.09 116.823 125.25 117.545 127.5Z" fill="#28AFC6"/>
<path d="M121.859 119.43C121.636 120.3 121.326 121.2 120.948 122.07C119.573 118.44 117.081 115.17 114.606 114.48C114.176 114.36 113.695 114.33 113.197 114.33C112.578 114.36 111.942 114.45 111.357 114.63C111.598 113.28 112.062 111.87 112.767 110.37L112.784 110.34C116.084 111.6 121.859 119.43 121.859 119.43Z" fill="#28AFC6"/>
<path d="M114.847 137.67C114.847 137.64 114.83 137.64 114.812 137.61L114.83 137.58C114.847 137.61 114.847 137.64 114.847 137.67Z" fill="#28AFC6"/>
<path d="M95.4933 114.06C95.373 115.29 95.2356 116.67 95.1154 118.17C93.3275 120.81 92.4509 123.51 91.5572 126.36C90.3717 124.98 89.1685 122.91 88.3262 120.75C89.7528 117.54 92.0041 114.81 94.2559 114.21C94.7888 114.03 95.1838 114 95.4933 114.06Z" fill="#28AFC6"/>
<path d="M115.723 147.03C114.486 148.59 112.595 149.91 110.378 150.78C108.745 151.441 106.94 151.86 105.067 151.98C104.878 151.98 104.689 152.01 104.5 152.01C101.939 152.13 99.3094 151.681 96.9031 150.54C95.4076 149.82 93.9986 148.86 92.7607 147.57C92.9499 145.86 93.1562 143.94 93.3278 141.87C93.7234 141.51 94.2905 141.001 94.9265 140.881C95.9405 141.361 96.3873 141.87 96.8342 142.201C97.6423 142.801 98.1747 142.441 98.2607 141.9C98.0031 140.881 95.3734 138.961 95.4765 138.9C96.7139 139.26 97.8999 139.921 98.5873 140.1C99.4639 140.31 99.7734 139.5 99.1031 138.39C98.2265 138.001 97.436 137.31 96.181 136.65C98.2954 137.19 100.323 138.87 99.9797 136.201C98.8626 135.69 97.7107 134.67 96.3013 134.55C96.3189 134.521 96.3531 134.46 96.3531 134.46C97.0234 133.98 98.3986 134.55 99.0513 134.22C99.3607 134.07 99.8076 133.41 99.3094 132.87C96.5594 131.79 95.631 132.3 94.0157 133.29C94.1873 130.921 94.3594 128.521 94.5139 126.18C94.7202 123.33 94.9094 120.601 95.1157 118.17C95.6999 117.3 96.3873 116.43 97.1955 115.59C96.5594 114.93 96.3189 114.21 95.4936 114.09C95.6828 112.321 95.8544 110.91 96.0607 109.95C96.3013 109.89 96.5594 109.83 96.8342 109.77C101.767 108.75 109.33 108.81 112.75 110.401C112.819 110.43 112.904 110.46 112.973 110.521C113.042 111.81 113.111 113.1 113.18 114.361C112.561 114.39 111.925 114.481 111.34 114.66C110.275 114.961 109.33 115.441 108.9 115.89C109.639 116.67 110.395 117.45 111.134 118.26C111.994 119.161 112.819 120.09 113.592 121.02C113.695 122.67 113.816 124.29 113.919 125.82C114.108 128.521 114.314 131.07 114.503 133.38C113.077 132.54 112.097 132.15 109.553 133.17C109.037 133.71 109.484 134.37 109.811 134.521C110.464 134.85 111.839 134.281 112.509 134.761C112.509 134.761 112.544 134.82 112.561 134.85C111.151 135.001 110 136.02 108.883 136.5C108.539 139.17 110.567 137.49 112.681 136.95C111.427 137.61 110.619 138.3 109.759 138.69C109.089 139.801 109.399 140.61 110.275 140.401C110.963 140.22 112.149 139.561 113.386 139.201C113.489 139.26 110.859 141.18 110.601 142.201C110.687 142.74 111.22 143.1 112.028 142.5C112.458 142.17 112.922 141.66 113.919 141.18C114.417 141.27 114.864 141.601 115.242 141.93C115.534 145.17 115.723 147.03 115.723 147.03Z" fill="#28AFC6"/>
<path d="M94.5135 126.15C93.9464 126.87 93.4654 127.41 93.2248 127.77C92.7091 127.53 92.1419 127.02 91.5572 126.33C92.4509 123.48 93.3275 120.78 95.1154 118.14C95.6996 117.27 96.387 116.4 97.1951 115.56C96.5591 114.9 96.3185 114.18 95.4933 114.06C95.1838 114 94.7888 114.03 94.2559 114.18C92.0041 114.78 89.7527 117.54 88.3262 120.72C87.9996 119.91 87.7419 119.1 87.5527 118.29C87.5527 118.29 93.4135 110.7 96.7654 109.59C96.7825 109.65 96.8167 109.68 96.8338 109.74C100.426 117.84 96.7483 123.36 94.5135 126.15Z" fill="#28AFC6"/>
<path d="M120.931 122.07C120.021 124.23 118.732 126.24 117.528 127.53C116.807 125.25 115.346 123.09 113.575 120.99C113.438 118.86 113.3 116.64 113.163 114.36C113.661 114.33 114.143 114.39 114.573 114.51C117.064 115.17 119.574 118.44 120.931 122.07Z" fill="#28AFC6"/>
<path d="M113.576 120.99C112.802 120.06 111.96 119.16 111.118 118.23C111.032 117.12 111.084 115.92 111.324 114.63C111.926 114.45 112.562 114.36 113.163 114.33C113.301 116.61 113.438 118.83 113.576 120.99Z" fill="#28AFC6"/>
<path d="M111.117 118.23C110.378 117.45 109.622 116.64 108.883 115.86C109.313 115.41 110.258 114.93 111.323 114.63C111.083 115.92 111.031 117.12 111.117 118.23Z" fill="#28AFC6"/>
<path d="M115.723 147.03C111.495 152.4 99.5842 154.68 92.7607 147.6C94.0671 136.41 94.9436 115.32 96.0436 109.95C101.028 108.72 109.467 108.72 112.956 110.52C114.022 130.59 115.723 147.03 115.723 147.03Z" fill="#28AFC6"/>
<path opacity="0.21" d="M89.8741 93.8099C89.8228 93.8401 89.771 93.8401 89.7196 93.8703C88.293 94.2899 86.9178 92.3404 86.643 89.5201C86.3678 86.7004 87.2962 84.0604 88.7228 83.6401C88.8083 83.6099 88.8773 83.6099 88.9633 83.5804C89.2038 87.3601 89.5133 90.9299 89.8741 93.8099Z" fill="black"/>
<path opacity="0.21" d="M118.749 93.72C118.8 93.7502 118.852 93.7502 118.904 93.7804C120.33 94.1404 121.688 92.1299 121.928 89.3102C122.169 86.4899 121.19 83.88 119.763 83.52C119.677 83.4899 119.608 83.4899 119.522 83.4899C119.333 87.24 119.076 90.8099 118.749 93.72Z" fill="black"/>
<path fill-rule="evenodd" clip-rule="evenodd" d="M108.368 96.2099C108.093 97.1699 107.096 98.8498 105.102 98.88C103.366 98.88 102.146 97.3502 101.665 96.1797C101.373 95.4597 101.407 94.7698 101.716 95.28C104.329 99.6 107.423 97.0197 108.075 95.9102C108.316 95.4899 108.54 95.64 108.368 96.2099Z" fill="#B13B32"/>
</svg>
