<svg width="220" height="240" viewBox="0 0 220 240" fill="none" xmlns="http://www.w3.org/2000/svg">
<path fill-rule="evenodd" clip-rule="evenodd" d="M106.782 53.7428C106.782 53.7428 104.778 55.113 104 56.7996C103.222 58.4854 100.682 69.7585 100.682 69.7585L106.319 71.8623L106.782 53.7428Z" fill="#C4A10C"/>
<path fill-rule="evenodd" clip-rule="evenodd" d="M118.098 39.1982C118.098 39.1982 122.603 48.5495 118.618 56.2211C114.634 63.8927 105.11 55.6593 109.135 40.1211C113.161 24.5833 118.098 39.1982 118.098 39.1982Z" fill="#202023"/>
<path fill-rule="evenodd" clip-rule="evenodd" d="M118.459 36.6787C118.459 36.6787 119.326 31.2467 119.21 28.5023C119.095 25.7587 118.055 23.0987 117.29 23.4067C117.29 23.4067 116.568 20.7471 115.659 19.7394C114.749 18.7309 112.742 17.5271 109.956 20.7189C107.169 23.9109 107.204 29.2305 107.18 31.0782C107.155 32.9267 118.459 36.6787 118.459 36.6787Z" fill="#202023"/>
<path fill-rule="evenodd" clip-rule="evenodd" d="M92.5426 217.698C92.5426 217.698 93.3639 217.26 93.6323 215.133C93.9012 213.005 94.0797 206.622 94.176 204.531C94.2723 202.441 95.1 197.812 95.1 197.812L97.8138 200.164L98.18 201.358L97.4525 204.6C97.4525 204.6 97.891 205.95 97.4677 207.853C97.0438 209.757 95.119 219.688 94.4263 220.136C93.7335 220.584 92.0586 219.65 92.0586 219.65C92.0586 219.65 92.1065 218.4 92.1598 218.185C92.2126 217.971 92.3353 217.742 92.5426 217.698Z" fill="#E6AD83"/>
<path fill-rule="evenodd" clip-rule="evenodd" d="M117.57 199.454C117.566 202.395 117.587 204.884 117.669 206.768C117.709 207.68 118.452 215.275 118.452 215.275L118.852 218.359L118.792 219.628L117.008 220.449L115.324 218.097C115.324 218.097 114.944 209.997 115.034 208.466C115.124 206.935 115.248 206.054 115.248 206.054L115.39 205.674C115.227 203.604 115.061 201.529 114.893 199.453H117.57V199.454Z" fill="#E6AD83"/>
<path fill-rule="evenodd" clip-rule="evenodd" d="M118.452 215.275C118.452 215.275 118.82 217.233 118.991 217.683C119.161 218.135 119.862 219.64 119.97 220.125C120.077 220.61 120.283 222.099 119.448 222.099C118.613 222.099 117.258 222.099 116.458 222.099C115.659 222.099 114.986 221.614 114.977 220.175C114.968 218.737 114.914 213.636 114.806 212.532C114.698 211.428 114.42 210.174 114.555 209.087C114.689 208 115.146 206.093 115.219 205.926C115.251 205.849 115.315 205.755 115.39 205.675L115.303 206.64C115.278 206.835 115.258 207.064 115.245 207.331C115.174 208.919 115.478 216.094 115.478 216.697C115.478 217.298 115.801 217.683 116.394 218.001C116.987 218.319 118.208 218.604 118.666 217.751C118.666 217.751 118.738 217.62 118.699 217.311C118.661 217.001 118.452 215.275 118.452 215.275Z" fill="#202023"/>
<path fill-rule="evenodd" clip-rule="evenodd" d="M103.53 101.27C101.559 127.225 95.485 179.891 93.482 198.258C93.482 198.258 93.3667 199.229 93.7514 199.826C94.1367 200.423 96.2536 202.663 97.6014 202.737C97.6014 202.737 98.3328 203.036 98.6408 202.066C99.6352 198.932 108.463 132.249 111.731 117.025C111.731 117.025 112.793 95.642 110.806 89.8477C108.819 84.0534 103.856 92.1421 103.856 92.1421L103.53 101.27Z" fill="#C4A10C"/>
<path fill-rule="evenodd" clip-rule="evenodd" d="M107.128 91.8989C107.128 91.8989 109.977 93.1681 110.362 102.651C112.029 143.722 114.079 159.873 114.309 203.11C114.962 204.643 117.578 204.455 118.331 203.11C119.27 183.368 123.038 116.727 121.084 101.122C119.775 90.6687 118.004 87.6824 107.128 91.8989Z" fill="#C4A10C"/>
<path fill-rule="evenodd" clip-rule="evenodd" d="M106.781 53.7427C106.781 53.7427 105.493 60.1123 105.238 61.0671C104.982 62.022 103.961 66.28 103.748 68.4093C103.535 70.5388 103.961 73.5484 104.386 75.1639L104.394 96.323C108.558 98.5378 113.722 97.7664 117.885 96.323L117.203 87.478L120.655 55.1231L115.582 51.9258L112.198 53.6147L110.826 51.834L106.781 53.7427Z" fill="#707070"/>
<path fill-rule="evenodd" clip-rule="evenodd" d="M115.582 44.5514H110.825V54.7801H112.715L115.582 52.6176V44.5514Z" fill="#D77F68"/>
<path fill-rule="evenodd" clip-rule="evenodd" d="M115.575 50.2939L112.148 54.78L113.669 58.6837L117.452 52.7775L115.575 50.2939Z" fill="#C4A10C"/>
<path fill-rule="evenodd" clip-rule="evenodd" d="M112.148 54.78L110.827 50.6666L109.409 52.8769L110.329 57.7693L112.148 54.78Z" fill="#C4A10C"/>
<path fill-rule="evenodd" clip-rule="evenodd" d="M107.998 35.0782C107.962 35.0882 107.926 35.1002 107.891 35.1155L107.889 35.116H107.89C107.233 35.3915 106.738 36.5164 106.73 37.8742C106.72 39.452 107.372 40.7468 108.186 40.7658C108.999 40.7842 109.667 39.5208 109.676 37.9431C109.682 37.0259 109.464 36.2044 109.121 35.6738C109.162 36.5169 109.096 37.562 108.541 37.6742L108.552 36.0264C108.556 35.3593 108.234 35.0571 107.998 35.0782Z" fill="#D77F68"/>
<path fill-rule="evenodd" clip-rule="evenodd" d="M117.708 35.0754C117.744 35.0845 117.78 35.0958 117.816 35.1096L117.817 35.11C118.475 35.3678 118.978 36.4794 118.996 37.8367C119.017 39.414 118.375 40.7265 117.561 40.7671C116.748 40.8078 116.072 39.5625 116.05 37.9849C116.039 37.0678 116.25 36.2407 116.589 35.7011C116.554 36.5449 116.628 37.5882 117.183 37.6854L117.161 36.0376C117.152 35.3712 117.472 35.0603 117.708 35.0754Z" fill="#D77F68"/>
<path fill-rule="evenodd" clip-rule="evenodd" d="M112.863 49.3873C115.613 49.3873 117.908 42.8058 117.908 37.6091V30.7057C117.908 25.3251 115.638 20.9233 112.864 20.9233H112.863C110.09 20.9233 107.819 25.3254 107.819 30.7057V37.4626C107.819 43.158 109.82 49.3873 112.863 49.3873Z" fill="#E6AD83"/>
<path d="M112.021 33.4682C112.021 33.4682 111.78 33.9533 110.828 33.2171C109.778 32.4062 108.825 32.945 108.732 33.1479C108.732 33.1477 110.22 30.9419 112.021 33.4682Z" fill="#030000"/>
<path fill-rule="evenodd" clip-rule="evenodd" d="M112.727 38.2674C112.633 38.7625 112.468 39.6585 112.482 39.8092C112.502 40.0192 113.061 40.2138 113.208 39.9371C113.306 39.753 113.184 38.9445 113.078 38.4005C112.934 37.6587 112.853 37.6007 112.727 38.2674Z" fill="#EBBF9E"/>
<path fill-rule="evenodd" clip-rule="evenodd" d="M107.819 35.5655C107.819 35.5655 108.142 45.0558 110.984 48.5235C110.984 48.5235 108.002 45.8862 107.819 37.6091C107.819 37.4627 107.819 35.4493 107.819 35.4493V35.5655Z" fill="#D39D79"/>
<path fill-rule="evenodd" clip-rule="evenodd" d="M120.656 55.1233C120.656 55.1233 117.175 52.1185 117.04 52.1369C116.905 52.1554 116.612 52.5742 116.612 52.5742L111.152 59.5136L111.092 61.7332L110.017 70.2693C110.017 70.2693 109.401 79.2624 109.671 82.6217C109.941 85.981 109.869 90.9305 109.869 90.9305C110.319 97.9132 102.447 188.663 103.178 196.564C103.178 196.564 106.138 196.454 106.818 196.366C107.84 196.234 122.951 194.56 122.951 194.56C122.951 194.56 124.95 194 124.712 191.243C124.656 190.588 123.308 142.485 122.114 111.772C121.639 99.5568 119.953 92.3102 119.532 89.5879C119.277 87.9408 119.051 86.4199 118.868 85.1109C118.495 82.4277 118.869 79.9502 118.869 79.9502L120.667 69.8928L120.656 55.1233Z" fill="#DBC661"/>
<path fill-rule="evenodd" clip-rule="evenodd" d="M109.933 52.2555C109.933 52.2555 110.668 55.8935 111 57.2989C111.139 57.8913 111.683 59.6604 111.532 60.3329C110.528 64.7862 110.616 69.7261 110.479 70.525C110.248 71.8697 109.877 76.5017 110.146 79.4887C110.146 79.4887 110.227 84.5739 110.237 85.6752C110.246 86.7764 110.146 92.5261 110.146 92.5261L106.572 196.061C106.572 196.061 104.119 196.485 103.177 196.564C102.642 196.609 92.7289 195.02 92.7289 195.02C92.7289 195.02 92.4209 195.169 92.4209 194.423C92.4209 193.677 103.942 85.7389 103.942 85.7389L104.191 76.069C104.191 76.069 103.518 71.0674 103.248 69.1639C102.979 67.2596 103.48 64.9829 104.288 62.3695C105.096 59.7562 106.783 53.7426 106.783 53.7426L109.693 52.0497C109.693 52.0497 109.827 51.9566 109.933 52.2555Z" fill="#DBC661"/>
<path fill-rule="evenodd" clip-rule="evenodd" d="M98.7838 207.818C98.7838 207.818 99.2062 208.07 99.0752 209.658C98.9442 211.247 98.2817 212.283 98.2817 215.428C98.2817 218.572 98.2817 221.423 98.2817 221.423C98.2817 221.423 98.3008 222.099 98.0695 222.099C97.8388 222.099 98.0114 222.099 97.919 222.099C97.8266 222.099 97.7415 221.94 97.7415 221.416C97.7415 220.893 97.7415 215.741 97.7415 214.738C97.7415 213.734 97.5244 211.773 97.3108 211.416C97.0966 211.059 98.7838 207.818 98.7838 207.818Z" fill="#202023"/>
<path fill-rule="evenodd" clip-rule="evenodd" d="M97.4531 204.601C97.4531 204.601 98.6392 205.792 99.2077 207.971C99.2077 207.971 99.2855 208.448 99.044 208.771C98.8034 209.094 97.2209 211.681 96.9129 213.349C96.6039 215.018 96.1018 218.32 95.8901 219.613C95.678 220.908 95.215 222.099 94.424 222.099C93.6334 222.099 91.0682 222.099 90.2777 222.099C89.4872 222.099 89.757 220.805 90.3256 220.141C90.8947 219.477 92.1477 217.826 92.3115 217.707C92.4757 217.588 92.5432 217.698 92.5432 217.698C92.5432 217.698 92.3648 217.851 92.4224 218.124C92.4806 218.396 92.9035 218.251 93.323 218.251C93.7424 218.251 94.3638 217.834 94.6826 216.558C95.0009 215.28 96.2245 208.591 96.3404 207.978C96.4563 207.365 97.2566 206.055 97.4531 204.601Z" fill="#202023"/>
<path fill-rule="evenodd" clip-rule="evenodd" d="M120.656 55.1233C120.656 55.1233 121.659 55.9686 122.139 56.6784C122.533 57.2586 127.278 69.7158 128.845 74.8697C130.231 79.4304 128.987 82.3481 127.164 86.7682C125.778 90.1275 122.698 97.1465 122.698 97.1465C122.698 97.1465 122.505 97.632 122.255 97.4084C122.005 97.1842 120.215 89.904 120.215 89.904C120.215 89.904 120.042 89.5309 120.35 88.7478C120.658 87.9634 123.67 79.0786 123.67 79.0786L120.258 68.9629C120.258 68.9629 118.443 62.168 120.656 55.1233Z" fill="#C4A10C"/>
<path fill-rule="evenodd" clip-rule="evenodd" d="M117.906 37.6091L117.357 33.2974C117.357 33.2974 115.588 30.7807 116.217 27.278C116.845 23.7754 116.969 24.122 116.969 24.122C116.969 24.122 119.326 26.1809 118.276 35.4652L117.906 37.6091Z" fill="#202023"/>
<path d="M113.704 33.4682C113.704 33.4682 113.946 33.9533 114.898 33.2171C115.947 32.4062 116.901 32.945 116.993 33.1479C116.993 33.1477 115.506 30.9419 113.704 33.4682Z" fill="#030000"/>
<path fill-rule="evenodd" clip-rule="evenodd" d="M107.818 37.6091L108.368 33.2974C108.368 33.2974 110.137 30.7807 109.508 27.278C108.88 23.7754 108.757 24.122 108.757 24.122C108.757 24.122 106.4 26.1809 107.449 35.4652L107.818 37.6091Z" fill="#202023"/>
<path fill-rule="evenodd" clip-rule="evenodd" d="M116.833 32.3204L115.239 28.8108C115.239 28.8108 115.044 28.4748 115.081 27.9846C115.117 27.4946 114.979 26.9066 114.554 27.6626C114.128 28.4182 111.097 33.1073 108.411 30.861L108.756 24.1219C108.756 24.1219 110.547 19.4875 114.041 20.3275C117.535 21.1675 117.619 27.457 117.619 27.457L116.833 32.3204Z" fill="#202023"/>
<path fill-rule="evenodd" clip-rule="evenodd" d="M117.409 33.6707C117.34 33.646 117.277 33.6005 117.203 33.5398C116.611 32.6956 115.195 32.2812 112.992 32.3083C112.945 32.3085 112.906 32.3089 112.876 32.3089C112.847 32.3089 112.808 32.3085 112.761 32.3083C110.558 32.2812 109.141 32.6956 108.549 33.5398C108.474 33.6003 108.4 33.646 108.332 33.6707C108.124 33.7443 107.819 33.9018 107.819 33.9018V34.7987C107.819 34.7987 108.093 34.767 108.162 35.0836C108.23 35.3998 108.291 36.6992 108.485 37.4672C108.747 38.5009 109.176 39.3403 109.93 39.5133C110.76 39.7033 111.37 39.3324 111.841 38.5207C112.414 37.5351 112.454 36.1116 112.381 34.8936C112.381 34.8936 112.566 34.7247 112.877 34.7247C113.188 34.7247 113.373 34.8936 113.373 34.8936C113.3 36.1116 113.339 37.5351 113.912 38.5207C114.384 39.3324 114.992 39.7033 115.822 39.5133C116.575 39.3403 117.003 38.5009 117.265 37.4672C117.46 36.6992 117.511 35.3998 117.579 35.0836C117.648 34.767 117.908 34.7987 117.908 34.7987V33.9018C117.908 33.9016 117.616 33.744 117.409 33.6707ZM111.909 37.6929C111.663 38.4316 111.09 39.174 110.25 39.1382C109.411 39.1031 109.008 38.4478 108.754 37.5651C108.484 36.634 108.377 35.1938 108.568 34.4496C108.759 33.7056 109.392 33.1631 110.302 33.1738C111.213 33.1845 111.741 33.9598 111.926 34.4923C112.303 35.5769 112.173 36.9005 111.909 37.6929ZM112.877 34.2287C112.636 34.2287 112.35 34.308 112.287 34.3607C112.287 34.3607 112.063 33.4009 111.211 33.0103C110.794 32.8192 110.42 32.7565 110.091 32.776C110.782 32.578 111.674 32.4847 112.76 32.4978C112.808 32.4985 112.847 32.4989 112.877 32.4989C112.908 32.4989 112.946 32.4985 112.994 32.4978C114.081 32.4847 114.972 32.5783 115.665 32.776C115.335 32.7567 114.961 32.8192 114.543 33.0103C113.691 33.4009 113.467 34.3607 113.467 34.3607C113.404 34.308 113.118 34.2287 112.877 34.2287ZM117.001 37.5653C116.745 38.4478 116.344 39.1031 115.504 39.1384C114.665 39.174 114.091 38.4318 113.845 37.6932C113.581 36.9007 113.451 35.5771 113.828 34.4925C114.013 33.96 114.541 33.1847 115.452 33.174C116.363 33.1633 116.995 33.7058 117.186 34.4498C117.378 35.1942 117.27 36.6342 117.001 37.5653Z" fill="#202023"/>
<path fill-rule="evenodd" clip-rule="evenodd" d="M97.3189 68.6702C97.3189 68.6702 102.432 83.9953 102.706 85.1267C102.981 86.2588 103.53 86.8355 103.53 86.8355C103.53 86.8355 113.418 89.9239 114.674 90.0556C115.931 90.1879 115.452 88.5004 115.452 88.5004C115.452 88.5004 110.452 71.7916 110.017 70.2693C109.583 68.747 108.512 68.8019 108.512 68.8019L97.7657 66.8101C97.7657 66.8098 96.6912 66.7858 97.3189 68.6702Z" fill="#DBDADB"/>
<path fill-rule="evenodd" clip-rule="evenodd" d="M97.3181 68.6701C97.3181 68.6701 102.431 83.9952 102.706 85.1266C102.98 86.2587 103.529 86.8354 103.529 86.8354C103.529 86.8354 113.416 89.9238 114.673 90.0555C114.876 90.0767 115.032 90.0507 115.154 89.9917C115.128 89.786 115.085 89.6365 115.085 89.6365C115.085 89.6365 110.085 72.9284 109.65 71.4054C109.216 69.8832 108.145 69.938 108.145 69.938L97.3988 67.9464C97.3988 67.9464 97.2829 67.9438 97.1504 68.0066C97.1797 68.1958 97.233 68.4157 97.3181 68.6701Z" fill="#B4B3B3"/>
<path fill-rule="evenodd" clip-rule="evenodd" d="M111.288 59.464C111.085 59.464 110.903 59.7822 110.879 60.1743C110.856 60.5662 111.001 60.8845 111.203 60.8845C111.406 60.8845 111.588 60.5665 111.612 60.1743C111.635 59.782 111.49 59.464 111.288 59.464Z" fill="#DBDADB"/>
<path fill-rule="evenodd" clip-rule="evenodd" d="M109.818 66.9337C109.616 66.9337 109.433 67.2519 109.41 67.6439C109.386 68.0357 109.532 68.3539 109.733 68.3539C109.936 68.3539 110.118 68.0359 110.142 67.6439C110.165 67.2517 110.02 66.9337 109.818 66.9337Z" fill="#DBDADB"/>
<path fill-rule="evenodd" clip-rule="evenodd" d="M119.418 87.2633C118.606 85.1644 118.456 84.5863 118.456 84.5863L116.876 83.4323C116.319 84.4238 117.405 85.1191 117.714 85.4531C117.881 85.6355 117.667 85.7321 118.041 87.0179C118.041 87.0179 117.44 86.0928 116.802 86.5221C116.163 86.9513 115.713 87.3059 115.713 87.3059C115.7 87.8928 115.567 88.1685 115.83 88.3454C116.068 88.5052 116.916 87.8037 117.089 88.0032L117.893 88.9289C117.165 88.8755 117.182 88.8199 116.624 89.2204C116.447 89.3479 115.932 89.6777 115.867 89.8553C115.694 90.3312 115.939 90.8983 116.258 90.9792C116.6 91.0663 117.181 90.5795 117.484 90.5843C117.71 90.5877 117.87 90.574 117.591 90.8057C117.397 90.9676 116.732 91.2919 116.573 91.5744C116.334 91.9989 116.632 92.8231 116.963 92.6771C117.295 92.5317 118.176 91.8281 118.423 92.1751C118.671 92.5228 119.304 93.9203 119.959 93.5061C120.724 93.022 121.041 93.3792 121.093 93.0617C121.196 92.411 120.62 90.2208 120.319 89.0757C120.176 88.5326 119.955 88.6512 119.418 87.2633Z" fill="#E6AD91"/>
<path fill-rule="evenodd" clip-rule="evenodd" d="M108.109 81.07C108.183 79.7918 108.695 78.9751 109.244 77.1998C109.794 75.4245 109.628 75.2476 109.628 75.2476C109.628 75.2476 110.361 74.7497 110.379 76.632C110.398 78.5136 110.526 78.6556 110.526 78.6556L112.155 77.448L111.825 76.2412C111.825 76.2412 113.015 75.9929 113.217 77.2355C113.418 78.478 113.272 78.7262 113.272 78.7262C113.272 78.7262 113.583 79.0457 113.638 79.8631C113.693 80.6791 113.546 81.2832 113.546 81.2832C113.546 81.2832 113.858 81.7091 113.949 82.8096C114.041 83.9102 112.65 85.366 111.423 85.8988C110.196 86.4309 109.025 85.8988 109.025 85.8988L108.109 81.07Z" fill="#E6AD91"/>
<path fill-rule="evenodd" clip-rule="evenodd" d="M108.241 80.4192C108.241 80.4192 109.134 84.8571 109.454 85.7444C109.454 85.7444 109.465 86.1442 109.42 86.3211C109.245 86.9986 98.6596 95.915 98.9808 85.6073C99.1035 81.6974 99.7268 75.9209 99.7268 75.9209L101.743 82.0594L107.612 80.4411C107.612 80.4411 108.127 80.2416 108.241 80.4192Z" fill="#C4A10C"/>
<path d="M111.207 36.5513C111.207 37.1602 110.953 37.6533 110.639 37.6533C110.326 37.6533 110.071 37.16 110.071 36.5513C110.071 35.9415 110.326 35.4493 110.639 35.4493C110.953 35.4493 111.207 35.9415 111.207 36.5513Z" fill="#212121"/>
<path d="M110.906 36.5514C110.906 36.8371 110.787 37.0692 110.638 37.0692C110.49 37.0692 110.371 36.8371 110.371 36.5514C110.371 36.2647 110.49 36.0327 110.638 36.0327C110.787 36.0324 110.906 36.2647 110.906 36.5514Z" fill="#040000"/>
<path d="M110.528 36.1744C110.528 36.3182 110.467 36.4373 110.392 36.4373C110.317 36.4373 110.257 36.3182 110.257 36.1744C110.257 36.0297 110.317 35.9115 110.392 35.9115C110.467 35.9115 110.528 36.0297 110.528 36.1744Z" fill="#F0F0ED"/>
<path d="M114.519 36.5513C114.519 37.1602 114.772 37.6533 115.086 37.6533C115.401 37.6533 115.655 37.16 115.655 36.5513C115.655 35.9415 115.4 35.4493 115.086 35.4493C114.772 35.4493 114.519 35.9415 114.519 36.5513Z" fill="#212121"/>
<path d="M114.819 36.5514C114.819 36.8371 114.94 37.0692 115.087 37.0692C115.235 37.0692 115.355 36.8371 115.355 36.5514C115.355 36.2647 115.235 36.0327 115.087 36.0327C114.94 36.0324 114.819 36.2647 114.819 36.5514Z" fill="#040000"/>
<path d="M115.199 36.1744C115.199 36.3182 115.259 36.4373 115.334 36.4373C115.409 36.4373 115.47 36.3182 115.47 36.1744C115.47 36.0297 115.409 35.9115 115.334 35.9115C115.258 35.9115 115.199 36.0297 115.199 36.1744Z" fill="#F0F0ED"/>
<path fill-rule="evenodd" clip-rule="evenodd" d="M108.584 29.6242C110.965 30.7053 112.773 29.1364 114.204 26.4415C115.074 24.802 115.457 21.6368 115.457 21.6368C115.457 21.6368 113.82 26.5582 111.375 28.6527C110.423 29.4689 108.584 29.6242 108.584 29.6242Z" fill="#444447"/>
<path d="M92.7666 190.71C92.7666 190.71 101.964 191.895 105.637 191.633C111.016 191.25 115.765 190.795 119.189 190.205C121.09 189.878 124.654 187.899 124.635 187.68C124.615 187.461 124.404 181.022 124.404 181.022C124.404 181.022 117.857 183.648 114.594 184.124C110.42 184.732 101.228 184.928 98.5414 184.745C96.2886 184.592 93.2183 183.902 93.4975 183.985L92.7666 190.71Z" fill="#FF7F00"/>
<path d="M114.303 43.0535C114.283 43.1418 114.258 43.2449 114.23 43.3629C114.215 43.4171 114.197 43.4806 114.179 43.5446C114.162 43.6085 114.144 43.6724 114.124 43.7411C114.068 43.9278 114.005 44.1291 113.928 44.3206C113.926 44.3255 113.926 44.3304 113.924 44.3355C113.921 44.3453 113.916 44.36 113.908 44.3749C113.66 45.0134 113.308 45.6078 112.854 45.6078C112.079 45.6078 111.573 43.8491 111.391 43.122C111.398 43.122 111.426 43.1073 111.471 43.0878C111.707 42.9991 112.386 42.7389 112.796 42.7685C113.255 42.734 113.999 42.9598 114.233 43.0338C114.271 43.0438 114.296 43.0535 114.303 43.0535Z" fill="#AC2436"/>
<path d="M114.161 43.1013C114.129 43.224 114.091 43.3469 114.05 43.4698C114.05 43.4698 114.05 43.4798 114.048 43.4798C113.766 44.3493 113.348 45.2531 112.814 45.2531C112.32 45.2531 111.961 44.5407 111.695 43.7647C111.631 43.5778 111.573 43.3862 111.52 43.1996C111.54 43.2734 112.181 43.3911 112.814 43.3667C113.483 43.3371 114.146 43.16 114.161 43.1013Z" fill="#44060F"/>
<path d="M113.116 45.1556C113.399 45 113.605 44.6733 113.827 44.3443C113.794 44.2614 113.758 44.1816 113.717 44.1083C113.54 43.8134 113.284 43.627 112.998 43.627C112.615 43.627 112.286 43.956 112.131 44.4425C112.096 44.548 112.072 44.662 112.056 44.78C112.325 45.2525 112.788 45.3356 113.116 45.1556Z" fill="#750414"/>
<path d="M114.161 43.1013C114.129 43.224 113.89 43.62 113.735 43.7638C113.476 44.0052 113.132 44.1573 112.748 44.1573C112.335 44.1573 111.731 43.7878 111.52 43.1994C111.544 43.2678 112.181 43.3909 112.814 43.3665C113.483 43.3371 114.146 43.16 114.161 43.1013Z" fill="#F4F4F4"/>
<path d="M112.814 43.3667C112.181 43.3911 111.544 43.2681 111.52 43.1996C111.636 43.5245 111.873 43.7791 112.132 43.9454C112.399 43.5563 112.831 43.4827 113.131 43.4987C113.348 43.5102 113.546 43.5985 113.703 43.7889C113.713 43.7798 113.725 43.7731 113.735 43.764C113.89 43.62 114.128 43.2242 114.161 43.1016C114.146 43.1601 113.482 43.3372 112.814 43.3667Z" fill="#EAEDEF"/>
<path d="M114.303 43.0536C114.283 43.1418 114.258 43.2449 114.23 43.363C114.215 43.4172 114.197 43.4807 114.179 43.5447C114.162 43.6085 114.144 43.6725 114.124 43.7412C114.068 43.9034 114.007 44.0901 113.928 44.3207C113.926 44.3256 113.926 44.3305 113.924 44.3356C113.921 44.3454 113.916 44.3601 113.908 44.3749C113.66 45.0134 113.308 45.6078 112.854 45.6078C112.079 45.6078 111.573 43.8492 111.391 43.1221C111.398 43.1221 111.426 43.1074 111.471 43.0878C111.487 43.1174 111.505 43.1567 111.52 43.2009C111.631 43.5056 111.755 43.7952 111.897 44.0459C111.968 44.1736 112.047 44.311 112.13 44.4436C112.221 44.5763 112.315 44.7041 112.416 44.8071C112.49 44.8807 112.566 44.9398 112.642 44.974C112.852 45.0772 113.055 44.9692 113.24 44.7776C113.328 44.6892 113.412 44.5812 113.49 44.4729C113.569 44.3598 113.645 44.242 113.716 44.1094C113.87 43.8392 114.01 43.5296 114.127 43.2007C114.154 43.1269 114.195 43.073 114.233 43.0338C114.271 43.0438 114.296 43.0536 114.303 43.0536Z" fill="#AA172C"/>
<path d="M114.168 43.1013L114.302 43.0535L114.088 42.9897L114.168 43.1013Z" fill="#AC2436"/>
<path d="M111.391 43.1223L111.521 43.0693L111.584 43.2289L111.391 43.1223Z" fill="#AC2436"/>
<path d="M116.466 36.7267C116.466 36.7267 115.818 35.3247 115.136 35.5083C114.455 35.6918 114.066 36.4556 113.897 37.0087C113.897 37.0087 113.998 36.8678 114.311 37.1709C114.624 37.4736 115.62 38.3247 116.466 36.7267Z" fill="white"/>
<path d="M114.791 35.65C114.791 35.65 114.339 36.6766 114.872 37.5449C114.959 37.5768 115.38 37.7645 115.548 37.5262C115.717 37.288 116.045 36.5253 115.621 35.6457C115.296 35.4793 115.093 35.4198 114.791 35.65Z" fill="#512C0E"/>
<path d="M115.53 36.7127C115.492 37.0291 115.327 37.2256 115.161 37.1511C114.996 37.0769 114.892 36.76 114.93 36.4438C114.967 36.1276 115.132 35.931 115.298 36.0054C115.464 36.0796 115.567 36.3965 115.53 36.7127Z" fill="#331B0E"/>
<path d="M115.02 36.3361C115.006 36.4585 114.943 36.5347 114.88 36.5065C114.817 36.4783 114.777 36.3563 114.792 36.2338C114.807 36.1114 114.87 36.0354 114.933 36.0636C114.996 36.0916 115.035 36.2136 115.02 36.3361Z" fill="white"/>
<path opacity="0.5" d="M114.725 36.8009C114.725 36.8009 115.107 37.8082 115.653 37.0329C115.461 37.4242 115.096 37.9462 114.725 36.8009Z" fill="white"/>
<path opacity="0.7" d="M113.897 37.0088C114.137 36.4312 115.068 34.7279 116.255 37.0374C116.337 36.8723 116.409 36.7248 116.409 36.7248C116.409 36.7248 114.955 33.6219 113.897 37.0088Z" fill="#C2C6CC"/>
<path d="M113.897 37.0087C114.017 36.5834 114.188 36.2073 114.397 35.932C114.607 35.658 114.861 35.5074 115.115 35.5109C115.371 35.5109 115.619 35.6634 115.847 35.8711C116.075 36.0838 116.285 36.362 116.48 36.6696L116.501 36.702L116.486 36.7412C116.344 37.1222 116.142 37.3903 115.921 37.5533C115.7 37.7178 115.459 37.7629 115.226 37.7218C114.993 37.6794 114.765 37.5611 114.548 37.3962C114.438 37.3145 114.34 37.1938 114.233 37.1064C114.129 37.0196 114.012 36.9518 113.897 37.0087ZM113.897 37.0087C114.01 36.9431 114.131 37.0029 114.238 37.0831C114.348 37.1634 114.449 37.2773 114.557 37.3487C114.775 37.4994 115 37.6089 115.23 37.6398C115.458 37.6676 115.691 37.6216 115.903 37.4603C116.114 37.3034 116.31 37.0334 116.439 36.6827L116.445 36.7545C116.251 36.4531 116.047 36.1731 115.824 35.9632C115.602 35.7551 115.361 35.6098 115.115 35.5985C114.869 35.5847 114.622 35.7191 114.413 35.9787C114.203 36.2333 114.026 36.5927 113.897 37.0087Z" fill="#AF6E58"/>
<path d="M113.897 37.0087C113.897 37.0089 114.28 35.7047 115.022 35.6325C115.393 35.5961 115.85 35.913 116.404 36.77C116.451 36.8563 116.627 36.9067 116.779 36.7979C116.603 36.6869 115.801 35.0361 114.962 35.3054C114.598 35.4227 114.228 35.856 113.897 37.0087Z" fill="#331B0E"/>
<path d="M109.287 36.5788C109.287 36.5788 109.984 35.2675 110.657 35.5426C111.331 35.8175 111.691 36.6322 111.839 37.2064C111.839 37.2064 111.744 37.0524 111.421 37.3124C111.098 37.5722 110.073 38.2871 109.287 36.5788Z" fill="white"/>
<path d="M110.995 35.7307C110.995 35.7307 111.408 36.8155 110.846 37.61C110.758 37.63 110.332 37.7605 110.173 37.5002C110.013 37.2398 109.713 36.4349 110.167 35.6144C110.497 35.4922 110.702 35.4602 110.995 35.7307Z" fill="#512C0E"/>
<path d="M110.221 36.6912C110.246 37.0119 110.404 37.2301 110.572 37.1783C110.74 37.1265 110.855 36.8245 110.829 36.5039C110.802 36.1834 110.645 35.965 110.477 36.0167C110.309 36.0683 110.194 36.3705 110.221 36.6912Z" fill="#331B0E"/>
<path d="M110.741 36.3838C110.751 36.5081 110.811 36.5923 110.875 36.5727C110.939 36.5529 110.982 36.4367 110.972 36.3127C110.962 36.1885 110.902 36.104 110.838 36.1239C110.774 36.1434 110.73 36.2596 110.741 36.3838Z" fill="white"/>
<path opacity="0.5" d="M111.02 36.8876C111.02 36.8876 110.602 37.8409 110.085 36.9938C110.262 37.41 110.609 37.98 111.02 36.8876Z" fill="white"/>
<path opacity="0.7" d="M111.839 37.2062C111.621 36.5977 110.752 34.7731 109.486 36.9171C109.41 36.7413 109.343 36.5844 109.343 36.5844C109.343 36.5844 110.905 33.6851 111.839 37.2062Z" fill="#C2C6CC"/>
<path d="M111.839 37.2063C111.726 36.774 111.562 36.3916 111.362 36.1094C111.163 35.8223 110.922 35.6549 110.676 35.6356C110.429 35.6135 110.184 35.726 109.954 35.9038C109.725 36.0831 109.511 36.3351 109.307 36.6095L109.316 36.5389C109.432 36.906 109.617 37.2018 109.822 37.3867C110.028 37.5763 110.259 37.6533 110.487 37.6565C110.717 37.6565 110.946 37.5776 111.168 37.4567C111.279 37.4002 111.385 37.3003 111.496 37.2347C111.606 37.1689 111.729 37.1255 111.839 37.2063ZM111.839 37.2063C111.727 37.134 111.608 37.186 111.5 37.2589C111.391 37.3316 111.289 37.4387 111.176 37.5056C110.954 37.6409 110.723 37.7282 110.488 37.7389C110.254 37.7484 110.016 37.6712 109.8 37.4771C109.586 37.2847 109.395 36.99 109.266 36.5909L109.253 36.5498L109.274 36.52C109.48 36.2396 109.7 35.9903 109.935 35.8089C110.17 35.6325 110.423 35.5136 110.678 35.5483C110.932 35.5789 111.18 35.7634 111.379 36.0649C111.578 36.3676 111.735 36.7658 111.839 37.2063Z" fill="#AF6E58"/>
<path d="M111.838 37.2063C111.838 37.2065 111.503 35.8538 110.766 35.6818C110.396 35.5953 109.929 35.8498 109.346 36.6305C109.296 36.7102 109.119 36.7369 108.971 36.6078C109.151 36.5209 110.011 34.9822 110.838 35.3638C111.197 35.53 111.55 36.0118 111.838 37.2063Z" fill="#331B0E"/>
</svg>
