<svg width="220" height="240" viewBox="0 0 220 240" fill="none" xmlns="http://www.w3.org/2000/svg">
<path d="M104.161 71.3582C104.161 71.3582 102.41 76.2116 103.588 82.752C103.588 82.752 104.065 85.5147 103.939 87.469C103.939 87.469 105.034 85.8459 105.211 81.3319C105.211 81.3319 105.163 85.0416 104.79 86.6606C104.79 86.6606 108.13 76.9851 105.975 71.3582H104.161Z" fill="#2B1116"/>
<path d="M106.005 27.6074C106.005 27.6074 106.483 34.2438 105.052 38.2596C105.052 38.2596 105.423 38.4911 105.052 39.8078C105.052 39.8078 106.271 43.018 105.71 45.4874C105.148 47.9565 104.413 48.5629 103.549 47.4375C102.685 46.3116 101.301 41.7871 101.377 37.7938C101.454 33.7978 104.168 26.968 104.168 26.968L106.005 27.6074Z" fill="#2B1116"/>
<path d="M103.775 36.5973C102.961 36.6788 102.62 35.4882 102.62 35.4882L101.451 36.7375C101.41 37.1064 101.384 37.4617 101.377 37.7937C101.37 38.1275 101.376 38.4666 101.389 38.8048L101.413 38.9857C101.413 38.9857 102.24 42.1786 103.47 43.4426C103.47 43.4426 104.36 42.2706 105.086 39.9028C105.063 39.8422 105.052 39.8079 105.052 39.8079C105.423 38.4911 105.052 38.2597 105.052 38.2597C105.565 36.8206 105.832 35.0439 105.964 33.3568C105.723 33.8933 104.507 36.5184 103.775 36.5973Z" fill="#1C0C0E"/>
<path d="M108.407 33.899C108.407 34.2192 108.274 34.4771 108.11 34.4771C107.945 34.4771 107.812 34.2192 107.812 33.899C107.812 33.5805 107.945 33.3223 108.11 33.3223C108.274 33.3223 108.407 33.5807 108.407 33.899Z" fill="#B16327"/>
<path d="M106.339 58.8227C106.339 58.8227 107.632 54.0316 106.006 47.9823C106.006 47.9823 106.542 43.2243 105.208 41.9485L105.166 41.968C105.161 42.0489 105.154 42.1292 105.149 42.2094C105.122 42.5296 105.056 42.8614 104.964 43.1252C104.839 43.4861 104.667 43.8936 104.454 44.07C104.22 44.2709 104.005 44.4458 103.739 44.411C103.569 44.3891 103.395 44.346 103.23 44.2587C102.919 44.0925 102.672 43.679 102.528 43.1571L102.474 43.1836C102.474 43.1836 102.456 46.4361 103.072 48.8632C103.072 48.8632 101.976 53.512 103.908 59.7278C103.908 59.7278 102.68 67.1354 103.825 70.593C103.825 70.593 104.129 71.7457 105.148 71.6215C105.148 71.6215 106.357 71.5804 106.591 70.7973C106.823 70.0163 107.643 68.4511 106.339 58.8227Z" fill="#2B1116"/>
<path d="M105.019 61.4977C105.019 61.4977 105.74 60.8418 106.344 58.8626C106.342 58.8464 106.341 58.8358 106.339 58.8226C106.339 58.8226 107.105 55.9768 106.713 51.9037C106.404 53.5826 105.88 55.7035 105.125 56.4344C105.125 56.4344 103.58 54.3235 102.787 51.288C102.694 53.2447 102.823 56.2395 103.908 59.7275C103.908 59.7275 103.903 59.7493 103.898 59.7842C104.137 60.3595 104.491 60.9779 105.019 61.4977Z" fill="#1C0C0E"/>
<path d="M106.489 71.1916C106.673 70.5717 107.227 69.4526 106.794 64.1936C106.49 68.216 106.03 70.9749 105.321 70.2878C104.75 69.7358 103.96 65.2816 103.502 62.4163C103.233 64.886 102.984 68.7566 103.723 70.9879C103.723 70.9879 104.027 72.1406 105.046 72.0158C105.045 72.0158 106.255 71.9746 106.489 71.1916Z" fill="#1C0C0E"/>
<path d="M106.023 48.0468C106.016 48.0257 106.012 48.0033 106.005 47.9822C106.005 47.9822 106.305 45.3175 105.898 43.4424C105.634 45.0479 105.182 47.0259 104.573 46.9279C103.864 46.8142 103.052 45.6203 102.502 44.4053C102.552 45.5546 102.688 47.31 103.05 48.7833C103.497 49.6515 104.163 50.471 105.147 51.0853C105.147 51.0855 105.691 50.2626 106.023 48.0468Z" fill="#1C0C0E"/>
<path d="M105.705 80.0627C104.854 81.7845 103.898 76.8371 103.478 74.2999C103.159 76.3454 102.969 79.3152 103.589 82.7514C103.589 82.7514 104.065 85.5148 103.939 87.4691C103.939 87.4691 105.034 85.846 105.211 81.3319C105.211 81.3319 105.163 85.0416 104.79 86.6606C104.79 86.6606 107.162 79.787 106.618 74.2567C106.536 76.3372 106.306 78.8462 105.705 80.0627Z" fill="#1C0C0E"/>
<path d="M104.453 207.026C104.591 207.997 104.804 208.941 105.052 209.86C105.239 210.547 105.441 211.224 105.646 211.879C106.16 213.536 106.688 215.223 107.437 216.508C107.723 217.01 108.074 217.459 108.462 217.443C108.745 217.424 108.998 217.136 109.184 216.719C108.989 214.009 108.961 211.263 109.12 208.553C109.433 208.169 109.75 207.787 110.067 207.406C110.414 206.996 110.767 206.585 111.118 206.188C110.068 204.404 109.058 202.517 108.079 200.58C107.447 202.588 106.754 204.533 105.699 205.664C105.278 206.106 104.866 206.571 104.453 207.026Z" fill="#D0836A"/>
<path d="M101.98 210.294C101.796 211.531 102.158 213.339 102.525 214.328C103.217 216.178 104.512 216.772 105.346 218.39C106.157 219.963 106.432 222.286 107.099 224.096C107.767 225.915 108.715 226.91 109.826 227.507C110.41 227.819 111.023 227.938 111.626 227.858C111.641 227.855 111.651 227.853 111.666 227.852C111.74 227.839 111.814 227.817 111.88 227.748C111.899 227.726 111.911 227.718 111.916 227.718C111.91 227.709 111.909 227.69 111.908 227.652C112.118 226.893 112.113 225.986 112.105 225.128C112.103 224.984 112.086 224.822 112.021 224.877C111.925 224.763 111.821 224.674 111.719 224.58C110.148 223.09 109.597 220.219 109.314 217.081C109.279 216.696 109.257 216.303 109.23 215.923C109.045 216.339 108.791 216.627 108.508 216.646C108.121 216.662 107.77 216.213 107.484 215.712C106.735 214.427 106.207 212.739 105.693 211.083C105.487 210.427 105.286 209.751 105.099 209.063C104.851 208.144 104.637 207.2 104.5 206.23C104.293 206.452 104.084 206.68 103.88 206.907C103.222 207.654 102.21 208.749 101.98 210.294Z" fill="#1684AF"/>
<path d="M101.98 210.293C101.796 211.531 102.158 213.339 102.525 214.329C103.217 216.178 104.512 216.773 105.346 218.39C106.157 219.964 106.432 222.287 107.099 224.097C107.767 225.915 108.715 226.91 109.826 227.508C110.41 227.82 111.023 227.939 111.626 227.858C111.641 227.856 111.651 227.854 111.666 227.853C111.442 227.745 111.135 227.882 110.831 227.769C110.3 227.568 109.792 227.122 109.345 226.535C108.574 225.525 107.962 224.126 107.384 222.712C106.987 221.746 106.597 220.744 106.348 219.608C106.223 219.03 106.133 218.423 105.977 217.875C105.712 216.953 105.269 216.275 104.887 215.517C104.505 214.771 104.156 213.835 104.148 212.774C104.143 211.762 104.456 210.86 104.753 210.029C104.868 209.71 104.986 209.388 105.099 209.064C105.371 208.309 105.641 207.559 105.911 206.8C106.13 206.899 106.33 207.101 106.495 207.388C106.371 207.187 108.108 203.543 108.398 203.171C109.005 204.242 109.581 205.395 110.113 206.61C110.461 206.2 110.813 205.789 111.164 205.392C110.114 203.608 109.105 201.721 108.126 199.785C107.493 201.792 106.801 203.737 105.746 204.868C105.325 205.31 104.913 205.775 104.5 206.231C104.293 206.453 104.084 206.68 103.88 206.907C103.222 207.654 102.21 208.75 101.98 210.293Z" fill="#D8BEB9"/>
<path d="M104.5 206.23C104.637 207.2 104.852 208.144 105.099 209.063C105.286 209.751 105.488 210.427 105.693 211.082C106.207 212.739 106.735 214.427 107.484 215.711C107.77 216.213 108.121 216.662 108.508 216.646C108.791 216.627 109.045 216.339 109.23 215.922C109.036 213.213 109.008 210.466 109.167 207.757C109.48 207.372 109.797 206.99 110.114 206.609C110.461 206.199 110.813 205.788 111.165 205.391C110.115 203.608 109.105 201.721 108.126 199.784C107.493 201.791 106.801 203.737 105.747 204.867C105.325 205.309 104.913 205.774 104.5 206.23Z" fill="#C97D69"/>
<path opacity="0.8" d="M105.1 209.063C105.372 208.307 105.642 207.558 105.911 206.8C106.131 206.899 106.332 207.101 106.495 207.389C106.371 207.187 108.109 203.541 108.399 203.17C109.006 204.24 109.582 205.395 110.114 206.611C110.462 206.199 110.814 205.788 111.165 205.391C110.115 203.608 109.106 201.722 108.126 199.785C107.493 201.793 106.8 203.737 105.746 204.867C105.325 205.308 104.914 205.774 104.5 206.229C104.571 207.093 105.034 208.823 105.1 209.063Z" fill="#B56855"/>
<path d="M105.053 209.861C105.058 209.878 105.061 209.89 105.061 209.89" stroke="#D8BEB9" stroke-miterlimit="10"/>
<path d="M115.231 219.341C115.665 219.892 116.147 220.326 116.645 220.698C117.019 220.974 117.401 221.223 117.778 221.451C118.728 222.036 119.698 222.625 120.696 222.629C121.082 222.639 121.498 222.527 121.782 222.019C121.988 221.642 122.08 221.102 122.077 220.552C121.009 218.77 120.054 216.746 119.25 214.511C119.354 213.821 119.462 213.13 119.569 212.439C119.691 211.686 119.815 210.927 119.943 210.18C118.549 210.187 117.15 210.064 115.757 209.867C115.965 212.182 116.108 214.526 115.702 216.724C115.537 217.594 115.386 218.47 115.231 219.341Z" fill="#D0836A"/>
<path d="M114.725 225.613C115.009 226.776 115.895 227.669 116.508 227.94C117.655 228.442 118.83 227.229 120.004 227.375C121.148 227.516 122.145 228.905 123.262 229.408C124.381 229.916 125.43 229.449 126.467 228.474C127.011 227.96 127.511 227.266 127.936 226.432C127.946 226.411 127.953 226.397 127.963 226.377C128.015 226.273 128.063 226.162 128.089 226.025C128.095 225.984 128.102 225.963 128.106 225.956C128.098 225.957 128.091 225.944 128.077 225.917C127.977 225.079 127.664 224.405 127.366 223.773C127.315 223.666 127.248 223.568 127.218 223.692C127.106 223.73 126.998 223.796 126.89 223.856C125.205 224.75 123.815 223.303 122.534 221.312C122.377 221.069 122.227 220.803 122.077 220.551C122.08 221.101 121.988 221.641 121.782 222.018C121.497 222.527 121.081 222.639 120.696 222.629C119.697 222.625 118.727 222.035 117.778 221.451C117.401 221.223 117.019 220.974 116.645 220.698C116.146 220.326 115.665 219.892 115.231 219.34C115.152 219.771 115.073 220.21 114.998 220.641C114.758 222.045 114.372 224.161 114.725 225.613Z" fill="#1688C3"/>
<path d="M114.725 225.613C115.009 226.776 115.895 227.669 116.508 227.94C117.655 228.442 118.83 227.229 120.004 227.375C121.148 227.516 122.145 228.905 123.262 229.408C124.381 229.916 125.43 229.449 126.467 228.474C127.011 227.96 127.511 227.266 127.936 226.433C127.946 226.411 127.953 226.398 127.963 226.377C127.759 226.583 127.576 227.08 127.309 227.384C126.842 227.914 126.31 228.229 125.776 228.359C124.853 228.591 123.918 228.325 123.004 228.005C122.377 227.787 121.744 227.537 121.171 227.004C120.88 226.731 120.606 226.39 120.303 226.179C119.791 225.828 119.227 225.886 118.683 225.807C118.143 225.737 117.562 225.483 117.196 224.697C116.847 223.944 116.775 222.867 116.715 221.864C116.693 221.478 116.671 221.085 116.645 220.698C116.592 219.783 116.54 218.875 116.484 217.96C116.681 217.755 116.901 217.65 117.121 217.655C116.96 217.662 117.022 212.706 117.113 212.057C117.933 212.081 118.758 212.209 119.57 212.438C119.69 211.686 119.815 210.926 119.943 210.18C118.549 210.187 117.15 210.064 115.756 209.866C115.965 212.181 116.108 214.526 115.703 216.723C115.537 217.594 115.386 218.47 115.232 219.34C115.153 219.772 115.073 220.21 114.998 220.641C114.758 222.045 114.372 224.161 114.725 225.613Z" fill="#D8BEB9"/>
<path d="M115.231 219.341C115.665 219.892 116.147 220.326 116.645 220.698C117.019 220.974 117.401 221.223 117.778 221.451C118.728 222.036 119.698 222.625 120.696 222.629C121.082 222.639 121.498 222.527 121.782 222.019C121.988 221.642 122.08 221.102 122.077 220.552C121.009 218.77 120.054 216.746 119.25 214.511C119.354 213.821 119.462 213.13 119.569 212.439C119.691 211.686 119.815 210.927 119.943 210.18C118.549 210.187 117.15 210.064 115.757 209.867C115.965 212.182 116.108 214.526 115.702 216.724C115.537 217.594 115.386 218.47 115.231 219.341Z" fill="#D0836A"/>
<path opacity="0.8" d="M116.646 220.697C116.592 219.783 116.54 218.877 116.484 217.962C116.682 217.754 116.901 217.65 117.122 217.657C116.961 217.664 117.023 212.705 117.113 212.056C117.933 212.08 118.758 212.208 119.57 212.44C119.691 211.686 119.815 210.927 119.943 210.181C118.55 210.187 117.151 210.066 115.757 209.868C115.966 212.183 116.108 214.528 115.702 216.725C115.537 217.594 115.387 218.469 115.231 219.341C115.579 219.898 116.515 220.603 116.646 220.697Z" fill="#B56855"/>
<path d="M116.646 220.7C116.656 220.705 116.662 220.71 116.662 220.71" stroke="#D8BEB9" stroke-miterlimit="10"/>
<path d="M112.786 151.869C113.123 156.868 112.839 160.15 111.936 161.713C111.201 177.126 111.632 193.35 113.23 210.385L113.329 210.741C111.393 211.555 109.37 212.05 107.258 212.226C107.989 202.093 107.578 193.14 106.025 185.366L105.949 184.728C104.428 176.77 104.653 166.688 106.623 154.483C106.965 143.654 106.863 133.216 106.316 123.169L118.282 122.204L112.786 151.869Z" fill="#A01D52"/>
<path d="M105.598 141.996C105.599 146.098 105.532 150.261 105.399 154.482C103.429 166.688 103.204 176.77 104.725 184.728L104.802 185.366C106.351 193.123 106.93 201.76 106.54 211.275L112.09 210.741L112.006 210.385C110.409 193.349 109.977 177.125 110.712 161.714C111.616 160.15 111.899 156.868 111.562 151.869L116.753 120.274L105.093 123.169C105.384 128.517 105.55 133.976 105.591 139.546C105.594 140.36 105.596 141.177 105.598 141.996ZM112.971 140.57L112.886 140.837C112.886 140.797 112.886 140.763 112.886 140.733L112.971 140.57Z" fill="#C71D65"/>
<path d="M112.885 140.837C112.885 140.797 112.885 140.763 112.885 140.733L112.969 140.57L112.885 140.837Z" fill="#FAB99C"/>
<path d="M113.874 131.572C112.879 130.661 111.671 130.607 110.253 131.41C111.687 131.251 112.894 131.305 113.874 131.572ZM110.299 134.29C111.733 134.141 112.942 134.2 113.927 134.468C112.927 133.568 111.718 133.508 110.299 134.29Z" fill="#A01D52"/>
<path d="M107.228 102.265C107.232 102.258 107.236 102.25 107.24 102.243H118.598C118.625 102.921 118.661 103.618 118.705 104.334L119.125 108.121L119.005 114.557C118.901 116.555 118.689 118.599 118.37 120.691C118.21 121.729 118.026 122.774 117.818 123.827V123.084C116.956 123.022 116.201 123.587 115.554 124.779L108.57 129.961L107.563 131.866H107.552C104.916 129.589 103.443 125.105 103.131 118.413C103.083 117.438 103.063 116.415 103.071 115.347C103.087 115.083 103.107 114.819 103.131 114.556L103.179 114.115C103.419 111.73 103.914 109.313 104.664 106.866L107.228 102.265Z" fill="#9FC93B"/>
<path d="M107.395 52.1253C107.97 51.2116 108.301 50.0962 108.389 48.7795L112.702 49.1047L112.367 52.9618L117.938 62.8598C117.954 62.8598 119.164 65.3225 121.568 70.248C122.231 74.2601 121.628 77.1024 119.759 78.7756C119.855 81.4862 119.763 83.6853 119.483 85.3742L118.645 93.0645C118.589 93.8393 118.545 94.6601 118.513 95.5276C118.45 97.5223 118.478 99.7605 118.597 102.243H107.24C108.774 99.4437 109.708 96.1756 110.043 92.437C110.203 90.6562 110.207 88.6889 110.055 86.5358C109.232 83.1902 108.434 80.5954 107.659 78.7522C106.884 76.909 106.437 75.6775 106.317 75.0583L105.79 72.3861C105.095 68.6222 104.823 65.2762 104.976 62.3487C104.983 62.1165 104.995 61.884 105.011 61.6516C105.275 57.9338 106.069 54.7585 107.395 52.1253Z" fill="#FAB99C"/>
<path d="M117.914 76.3125C119.049 76.1891 119.875 75.8017 120.394 75.1509C120.913 74.5125 121.321 73.8769 121.616 73.2453C121.905 72.6165 122.14 72.0433 122.323 71.5262C122.321 71.5605 122.321 71.5914 122.323 71.6188C122.275 73.2453 121.812 75.956 120.933 79.7514C120.869 80.0298 120.802 80.3164 120.73 80.6113C120.686 80.795 120.642 80.9809 120.598 81.1688C120.159 82.0081 119.66 82.6506 119.101 83.097C118.699 83.4104 118.128 83.4488 117.387 83.2129C115.146 81.2942 113.9 78.3745 113.649 74.4536C115.359 75.8181 116.781 76.4373 117.914 76.3125Z" fill="#08233F"/>
<path d="M113.66 59.3514C112.396 59.6003 111.366 59.6389 110.569 59.4674C109.764 59.3152 109.081 59.2376 108.521 59.2352C107.952 59.2465 107.349 59.2699 106.712 59.305C106.068 59.3543 105.544 59.269 105.142 59.0494C104.891 60.9536 104.775 62.8976 104.795 64.8814C104.829 68.5643 105.332 72.3827 106.304 76.3359C106.477 77.0353 106.665 77.7402 106.867 78.4506C106.932 78.6248 106.996 78.7955 107.059 78.9615C108.232 82.3242 108.812 85.6623 108.797 88.9756C108.804 89.038 108.804 89.0997 108.797 89.1614C108.756 93.2661 107.794 97.3475 105.909 101.406C104.112 105.278 103.038 109.91 102.687 115.3C106.584 119.994 112.211 121.225 119.567 118.995C119.575 118.995 119.582 118.995 119.591 118.995C119.575 118.267 119.555 117.554 119.531 116.857L119.351 103.312L119.615 90.1372C119.623 89.9205 119.631 89.7189 119.639 89.5331C119.735 87.2408 119.87 85.1884 120.046 83.3761C120.242 82.6163 120.426 81.8805 120.597 81.1695C120.158 82.0088 119.659 82.6513 119.1 83.0977C118.698 83.4111 118.127 83.4495 117.386 83.2136C115.145 81.2949 113.9 78.3752 113.649 74.4543C115.359 75.8188 116.78 76.438 117.914 76.3132C119.048 76.1891 119.874 75.8024 120.394 75.1509C120.912 74.5125 121.32 73.8776 121.616 73.246C121.904 72.6172 122.14 72.044 122.323 71.5262C122.295 71.3322 122.239 71.1464 122.155 70.9688C120.933 68.1187 119.255 64.928 117.123 61.3965C116.7 61.8302 116.061 61.7605 115.206 61.1872C114.688 60.6023 114.173 59.9905 113.66 59.3514ZM107.418 50.1736C107.283 50.5298 107.147 50.8941 107.011 51.2656C106.758 51.9787 106.527 52.6989 106.317 53.4265C106.677 52.8838 107.128 52.4501 107.67 52.1254C107.883 51.9996 108.123 51.8912 108.389 51.8C108.066 51.2674 107.742 50.7254 107.418 50.1736Z" fill="#16355A"/>
<path d="M107.671 52.1253C107.884 51.9995 108.123 51.891 108.389 51.8C108.583 51.7282 108.791 51.6662 109.013 51.6141C109.627 51.5213 110.087 51.4437 110.39 51.3819C111.196 51.1824 111.868 50.8726 112.403 50.4524L112.571 48.7563C113.473 49.2675 114.172 50.2201 114.667 51.6141C115.154 52.9928 115.526 54.4799 115.781 56.0752C115.829 56.5088 115.853 56.811 115.853 56.9813C115.869 57.3377 115.845 57.6397 115.781 57.8875C115.717 58.2128 115.578 58.4761 115.362 58.6775C115.226 58.8015 115.019 58.9253 114.739 59.0493C114.379 59.1771 114.02 59.2777 113.661 59.3515C112.397 59.6004 111.366 59.639 110.57 59.4675C109.764 59.3153 109.081 59.2377 108.521 59.2353C107.953 59.2466 107.349 59.2699 106.712 59.305C106.068 59.3544 105.544 59.269 105.143 59.0495C105.397 57.1339 105.788 55.2597 106.317 53.4268C106.677 52.8837 107.128 52.4499 107.671 52.1253Z" fill="#1688C3"/>
<path d="M114.572 18.714C114.636 19.0705 114.708 19.4498 114.788 19.8524L115.554 24.8711C116.279 31.0845 114.294 39.5495 109.6 50.2664C101.709 43.5711 101.801 30.0718 109.875 9.76868C110.754 10.0628 111.565 11.0153 112.307 12.6265C112.412 12.8434 112.511 13.0836 112.607 13.3469C112.751 13.4706 112.887 13.6411 113.014 13.858C113.469 14.5551 113.897 15.7556 114.296 17.4593L114.345 17.6918C114.416 18.0169 114.492 18.3578 114.572 18.714Z" fill="#2A130C"/>
<path d="M116.452 27.5436C116.437 27.4816 116.42 27.4197 116.404 27.3577L116.477 27.4507C116.468 27.4816 116.461 27.5128 116.452 27.5436Z" fill="#653614"/>
<path d="M116.477 27.4268V27.4499L116.404 27.3568L116.477 27.4268Z" fill="#C87A7A"/>
<path d="M112.739 48.2449C112.739 48.2604 112.735 48.2837 112.727 48.3147C112.607 49.7242 112.531 51.1571 112.499 52.6131C111.577 52.723 110.655 52.723 109.732 52.6131C108.809 52.5184 108.011 52.4488 107.336 52.4037C107.392 51.6757 107.511 50.3128 107.695 48.3147C107.703 48.2373 107.707 48.1598 107.707 48.0824C107.875 46.1153 107.887 44.0164 107.743 41.7858C109.117 45.0387 110.782 47.1917 112.739 48.2449Z" fill="#D0836A"/>
<path d="M107.743 41.7859C109.117 45.0388 110.782 47.1919 112.739 48.245C112.739 48.1832 112.743 48.129 112.751 48.0825C112.967 45.7746 113.282 44.2721 113.698 43.575C113.21 43.2343 112.723 42.847 112.236 42.4132C111.525 41.7319 110.926 41.0036 110.439 40.2292C109.552 36.3877 108.594 34.2501 107.563 33.8165C107.651 38.6183 107.711 41.2748 107.743 41.7859ZM109.432 41.2517C109.48 41.2669 109.524 41.2903 109.564 41.3212H109.432V41.2517Z" fill="#D0836A"/>
<path d="M108.438 10.2334C107.367 10.3883 106.297 10.884 105.227 11.7203C102.599 14.4 101.713 19.5658 102.568 27.2176C103.174 32.67 105.035 35.2102 108.15 34.8387H108.162C108.162 34.854 108.162 34.8698 108.162 34.8849V34.9082C109.368 41.0576 111.848 44.3958 115.602 44.9223C116.688 45.2167 117.191 44.5427 117.111 42.9009C117.119 42.8854 117.119 42.87 117.111 42.8542C117.111 42.808 117.111 42.7691 117.111 42.738C117.104 42.5522 117.095 42.3816 117.088 42.2269C117.08 42.1032 117.064 41.9791 117.04 41.8551C116.944 41.3749 116.896 41.104 116.896 41.042C116.864 40.8098 116.884 40.5618 116.956 40.2985C116.979 40.2056 117.036 40.0507 117.123 39.8338C116.66 39.586 116.313 38.8811 116.081 37.7194L115.83 37.3476C116.037 37.5027 116.221 37.5412 116.381 37.4638C116.532 37.3863 116.752 37.2936 117.04 37.1852C117.231 37.1078 117.419 37.1078 117.603 37.1852C117.627 37.2004 117.651 37.2163 117.675 37.2316C117.618 36.3178 117.682 35.5743 117.866 35.0012C118.785 34.552 119.112 33.7852 118.848 32.7009C118.848 32.6856 118.848 32.67 118.848 32.6545C118.809 32.5772 118.769 32.4996 118.729 32.422C118.489 31.9576 118.277 31.4696 118.094 30.9583C117.695 29.9361 117.419 28.9911 117.267 28.1238C117.075 27.0549 117.044 25.7771 117.171 24.29C117.203 23.9182 117.255 23.5311 117.327 23.1283C117.327 22.1678 117.271 21.1998 117.159 20.224C117.064 19.248 116.915 18.2644 116.716 17.2734C116.5 16.2665 116.225 15.4298 115.889 14.764C115.746 14.454 115.586 14.1907 115.41 13.974C115.13 13.6176 114.847 13.3 114.559 13.0213C112.515 10.8685 110.474 9.93913 108.438 10.2334ZM115.782 26.7531C115.973 26.722 116.145 26.296 116.297 25.4751C116.225 26.4356 116.053 26.9467 115.782 27.0087C115.885 28.0465 115.885 28.9913 115.782 29.8433V30.1684C114.967 30.7727 114.021 30.3156 112.943 28.7976L112.391 28.054C112.567 28.2709 112.727 28.3641 112.87 28.3329C113.573 26.3656 114.484 25.4983 115.602 25.7307C115.754 26.0098 115.813 26.3505 115.782 26.7531ZM117.747 34.6529C117.395 34.7149 117.195 34.6376 117.147 34.4207C117.1 34.1882 117.299 34.2656 117.747 34.6529ZM117.147 34.8851C116.532 34.9471 116.428 34.2887 116.836 32.9103C116.628 33.9636 116.732 34.622 117.147 34.8851Z" fill="#D0836A"/>
<path d="M117.147 34.885C116.532 34.947 116.428 34.2886 116.835 32.9102C116.628 33.9635 116.732 34.6219 117.147 34.885Z" fill="#D0836A"/>
<path d="M117.146 34.4205C117.099 34.1884 117.299 34.2656 117.746 34.6528C117.394 34.7148 117.195 34.6374 117.146 34.4205Z" fill="#D26C6B"/>
<path d="M119.129 84.0747L105.623 97.6786L105.565 101.325C105.621 104.453 104.929 106.049 105.035 111.168C105.168 111.02 105.293 110.828 105.386 110.586C105.386 110.586 105.737 119.081 106.123 118.752C106.51 118.422 106.828 111.313 107.166 110.586C107.166 110.586 107.309 112.001 107.547 112.824C107.785 113.649 111.732 111.014 112.435 109.696C112.435 109.696 113.067 114.149 113.28 114.228C113.493 114.305 114.92 109.143 115.448 103.643C115.448 103.643 116.045 108.544 116.257 108.544C116.47 108.544 117.253 101.586 117.253 101.586C117.253 101.586 118.335 104.297 118.994 105.212C119.053 99.0507 119.094 91.6333 119.129 84.0747Z" fill="#08233F"/>
<path d="M101.578 152.805C102.794 155.959 104.951 157.666 108.047 157.928L108.154 156.25C108.025 156.246 107.338 156.028 106.094 155.597C104.576 155.07 103.066 153.6 101.562 151.187C101.566 151.721 101.571 152.261 101.578 152.805ZM116.775 156.086C114.628 157.044 112.456 157.302 110.259 156.859V158.744C113.486 160.287 116.567 159.209 119.5 155.507C119.511 155.025 119.52 154.535 119.531 154.038C119.335 154.28 119.126 154.502 118.903 154.705C118.326 155.24 117.617 155.7 116.775 156.086Z" fill="#52B750"/>
<path d="M103.056 111.528H119.47C119.738 127.958 119.759 142.128 119.531 154.037C119.335 154.279 119.126 154.502 118.903 154.705C118.327 155.24 117.617 155.7 116.775 156.086C114.628 157.044 112.456 157.301 110.26 156.858V122.1L108.155 156.22V156.25C108.025 156.245 107.339 156.028 106.095 155.597C104.577 155.069 103.066 153.6 101.563 151.187C101.381 132.128 101.878 118.909 103.056 111.528Z" fill="#52B750"/>
<path d="M121.604 214.004C121.584 214.067 121.564 214.123 121.544 214.179C121.472 214.376 121.387 214.557 121.307 214.73C121.279 214.8 121.247 214.862 121.216 214.933C121.157 215.051 121.094 215.169 121.027 215.279C120.998 215.327 120.97 215.376 120.94 215.418C120.864 215.527 120.788 215.637 120.706 215.733C120.567 215.903 120.418 216.052 120.266 216.178C120.24 216.206 120.213 216.226 120.185 216.245C120.174 216.259 120.163 216.265 120.152 216.272C120.307 216.01 120.462 215.739 120.594 215.418C120.608 215.384 120.625 215.341 120.639 215.299C120.728 215.061 120.776 214.834 120.827 214.544C120.845 214.444 120.863 214.345 120.868 214.238C120.872 214.146 120.865 214.052 120.858 213.966C120.825 213.478 120.767 213.288 120.598 213.084C119.372 211.585 117.995 211.059 116.633 211.035C116.545 211.038 116.457 211.032 116.369 211.04C115.257 211.067 114.146 211.387 113.037 211.701C112.874 211.748 112.715 211.797 112.552 211.835C111.83 212.037 111.105 212.208 110.378 212.342C109.284 212.549 108.187 212.677 107.095 212.669C105.557 212.663 104.029 212.399 102.519 211.764C102.194 211.631 101.848 211.273 101.565 210.776C101.539 210.733 101.509 210.681 101.483 210.636C101.44 210.555 101.4 210.473 101.36 210.385C101.328 209.639 101.314 208.994 101.582 208.701C102.093 208.145 102.464 207.236 102.749 206.144C103.029 205.065 103.227 203.81 103.396 202.553C103.799 199.483 103.903 196.197 103.82 192.998C103.694 188.15 103.167 183.471 102.728 178.764C102.524 176.596 102.342 174.408 102.174 172.214C102.142 171.805 102.11 171.387 102.081 170.977C101.101 157.487 100.922 143.846 101.7 130.196C101.728 129.701 101.743 128.031 101.784 127.539C102.256 128.936 103.285 131.191 103.798 132.089C104.672 133.622 105.636 134.804 106.647 135.573C108.687 137.135 110.933 136.976 112.908 134.624C113.849 133.499 114.724 132.012 115.546 130.35C116.275 128.883 118.767 128.182 119.604 127.201C119.756 127.819 119.617 129.394 119.681 130.097C120.815 142.677 121.47 154.855 121.004 168.825C120.833 173.97 120.501 179.155 120.241 184.287C119.824 192.56 120.257 201.078 121.486 208.712C121.631 209.601 121.786 210.499 121.837 211.469C121.883 212.346 121.83 213.3 121.604 214.004Z" fill="#16355A"/>
<path d="M102.543 125.884L102.539 125.861L102.562 125.855L102.543 125.884Z" fill="#D0836A"/>
<path d="M102.497 126.006C102.482 126.011 102.476 126.02 102.479 126.034C102.478 126.064 102.478 126.086 102.482 126.1C102.474 126.176 102.47 126.251 102.47 126.325L102.375 128.128C102.464 127.422 102.51 126.721 102.513 126.025C102.506 126.027 102.5 126.02 102.497 126.006ZM103.804 129.755C103.805 129.533 103.808 129.325 103.815 129.13C103.806 128.94 103.801 128.749 103.8 128.556C103.799 128.364 103.783 128.139 103.752 127.881L103.804 129.755Z" fill="#D0836A"/>
<path d="M101.438 129.815C101.44 129.783 101.436 129.744 101.427 129.698C101.43 129.586 101.433 129.457 101.437 129.311C101.435 129.344 101.429 129.394 101.418 129.46C101.412 129.558 101.408 129.663 101.406 129.776C101.379 129.848 101.37 129.922 101.377 130.001C101.391 129.948 101.411 129.887 101.438 129.815ZM103.736 124.603C103.738 124.57 103.736 124.539 103.73 124.509C103.727 124.494 103.729 124.461 103.735 124.411C103.73 124.38 103.724 124.35 103.718 124.319L103.105 120.399C103.116 120.413 103.124 120.41 103.128 120.393C103.133 120.376 103.134 120.359 103.131 120.344L103.103 120.136C102.974 119.386 102.875 118.603 102.807 117.789C102.765 117.333 102.749 116.793 102.76 116.166L102.821 114.419L102.692 114.502L100.154 113.025L100.144 112.908L100.09 112.946C100.038 114.515 99.8454 116.145 99.51 117.838L99.0128 121.217L99.0118 121.338C99.0084 121.402 98.9942 121.454 98.9693 121.494L98.9737 121.516L98.9712 121.565C98.9756 121.628 98.9697 121.83 98.9546 122.17L98.9414 123.039C98.9355 123.553 98.9238 124.182 98.9057 124.923C98.8832 126.644 99.0201 128.522 99.3164 130.557C99.3956 131.048 99.4782 131.539 99.5647 132.028C99.5706 132.059 99.5779 132.097 99.5872 132.143L99.5911 132.165C99.6068 132.161 99.6229 132.141 99.64 132.104C99.6723 132.063 99.6982 131.969 99.7182 131.818L99.7407 131.812C99.7446 131.747 99.7441 131.683 99.7402 131.62C99.7358 131.429 99.7217 131.233 99.6987 131.031L99.706 131.004C99.6967 130.831 99.6894 130.649 99.685 130.458C99.6649 130.271 99.6498 130.066 99.639 129.845C99.6332 129.815 99.6273 129.785 99.6214 129.754C99.6141 129.547 99.6073 129.324 99.6014 129.086C99.6033 129.054 99.6033 129.014 99.6024 128.965C99.5823 128.779 99.5716 128.598 99.5701 128.421C99.5628 128.343 99.5554 128.265 99.5486 128.187C99.5476 128.139 99.5432 128.076 99.5364 127.998L99.4269 123.485L99.5364 127.998C99.5432 128.076 99.5476 128.139 99.5486 128.187C99.5554 128.265 99.5628 128.343 99.5701 128.421C99.5716 128.598 99.5823 128.779 99.6024 128.965C99.6033 129.014 99.6033 129.054 99.6014 129.086C99.6073 129.324 99.6141 129.547 99.6214 129.754C99.6278 129.784 99.6332 129.815 99.639 129.845C99.6498 130.066 99.6649 130.271 99.685 130.458C99.6894 130.649 99.6967 130.831 99.706 131.004L99.6987 131.031C99.7217 131.233 99.7353 131.43 99.7402 131.62C99.7461 131.651 99.752 131.681 99.7578 131.712C99.7666 131.757 99.773 131.811 99.7774 131.875C99.7911 132.031 99.8023 132.172 99.8106 132.298C99.8977 133.124 99.993 133.659 100.097 133.904L100.112 133.923C100.116 133.939 100.121 133.945 100.128 133.943C100.148 133.921 100.156 133.895 100.15 133.865C100.196 133.772 100.235 133.617 100.266 133.401C100.271 133.384 100.277 133.374 100.285 133.371C100.295 133.257 100.306 133.11 100.321 132.93C100.326 132.752 100.336 132.573 100.35 132.393C100.349 132.345 100.351 132.296 100.358 132.246C100.328 132.094 100.314 131.938 100.316 131.777C100.319 131.712 100.325 131.638 100.333 131.556C100.341 131.425 100.362 131.283 100.396 131.13C100.396 130.921 100.396 130.714 100.396 130.505C100.397 130.425 100.402 130.343 100.41 130.261C100.428 129.728 100.45 129.193 100.476 128.657C100.477 128.497 100.481 128.335 100.491 128.172C100.488 128.157 100.489 128.141 100.493 128.124C100.496 127.93 100.506 127.727 100.521 127.515C100.556 126.817 100.586 126.095 100.611 125.352L100.672 124.662L100.611 125.352C100.586 126.095 100.556 126.817 100.521 127.515C100.506 127.727 100.496 127.93 100.493 128.124C100.489 128.141 100.488 128.157 100.491 128.172C100.482 128.335 100.477 128.497 100.476 128.657C100.45 129.193 100.428 129.728 100.41 130.261C100.402 130.343 100.397 130.425 100.396 130.505C100.396 130.714 100.396 130.921 100.396 131.13C100.362 131.284 100.341 131.426 100.333 131.556C100.325 131.638 100.319 131.712 100.316 131.777C100.314 131.937 100.328 132.094 100.358 132.246C100.351 132.296 100.349 132.345 100.35 132.393C100.336 132.573 100.326 132.752 100.321 132.93C100.325 133.121 100.323 133.321 100.316 133.531C100.293 134.083 100.281 134.647 100.279 135.224C100.303 135.265 100.33 135.298 100.359 135.323C100.391 135.362 100.418 135.379 100.441 135.373C100.467 135.382 100.491 135.376 100.51 135.354C100.6 135.314 100.681 135.132 100.756 134.807C100.823 134.484 100.879 134.148 100.924 133.8C100.984 133.399 101.037 132.984 101.084 132.555C101.129 132.414 101.155 132.256 101.161 132.078C101.23 131.434 101.3 130.75 101.37 130.026L101.377 130.001C101.37 129.922 101.379 129.848 101.406 129.776C101.408 129.663 101.412 129.558 101.418 129.46C101.429 129.393 101.435 129.344 101.437 129.311L101.511 126.118L101.437 129.311C101.433 129.456 101.43 129.586 101.427 129.698C101.436 129.744 101.44 129.782 101.438 129.815C101.442 129.878 101.437 129.936 101.423 129.987C101.421 130.565 101.427 131.076 101.441 131.521C101.44 131.682 101.435 131.827 101.428 131.958C101.436 132.5 101.442 132.987 101.444 133.419C101.461 134.969 101.498 135.768 101.556 135.816C101.562 135.847 101.571 135.869 101.581 135.882C101.592 135.895 101.603 135.891 101.616 135.872C101.657 135.877 101.691 135.867 101.719 135.844C101.914 135.599 102.085 134.52 102.232 132.606C102.249 132.488 102.26 132.357 102.264 132.212C102.305 131.543 102.337 130.854 102.361 130.142L102.462 128.601L102.57 126.649C102.57 126.569 102.575 126.488 102.583 126.405C102.58 126.39 102.58 126.366 102.581 126.334C102.579 126.318 102.585 126.309 102.6 126.305C102.597 126.289 102.596 126.265 102.598 126.233C102.595 126.217 102.592 126.202 102.589 126.187L102.585 126.165L102.608 126.158L102.604 126.136C102.637 126.014 102.663 125.919 102.681 125.85C102.746 125.64 102.839 125.519 102.963 125.486C102.839 125.519 102.746 125.64 102.681 125.85C102.663 125.919 102.637 126.014 102.604 126.136L102.608 126.158L102.589 126.187C102.592 126.202 102.595 126.217 102.598 126.233C102.596 126.265 102.597 126.289 102.6 126.305C102.603 126.32 102.608 126.326 102.616 126.324C102.828 126.876 102.982 127.947 103.08 129.54C103.087 129.618 103.093 129.689 103.096 129.751C103.106 129.925 103.113 130.107 103.117 130.299C103.169 131.358 103.303 132.195 103.518 132.811C103.536 132.901 103.558 132.975 103.585 133.032C103.599 133.061 103.607 133.083 103.61 133.097C103.762 133.425 103.873 133.603 103.944 133.632C103.973 133.657 103.998 133.642 104.019 133.588C104.032 133.568 104.037 133.551 104.034 133.536C103.981 132.509 103.939 131.582 103.909 130.758L103.911 130.396L103.87 128.364C103.877 128.106 103.883 127.848 103.889 127.59C103.9 127.299 103.9 126.986 103.89 126.652L103.763 124.74L103.736 124.603Z" fill="#D0836A"/>
<path d="M103.792 126.864C103.802 126.562 103.801 126.237 103.79 125.89C103.808 126.266 103.813 126.615 103.806 126.935C103.793 127.171 103.782 127.416 103.773 127.668C103.78 127.4 103.786 127.132 103.792 126.864Z" fill="#D0836A"/>
<path d="M100.324 135.426C100.349 135.451 100.372 135.461 100.392 135.457C100.418 135.466 100.443 135.459 100.464 135.437C100.552 135.397 100.636 135.213 100.711 134.891C100.777 134.573 100.834 134.24 100.88 133.898C100.939 133.506 100.993 133.094 101.039 132.675C101.084 132.536 101.111 132.376 101.116 132.2C101.187 131.558 101.258 130.88 101.326 130.185L101.333 130.161C101.334 130.16 101.334 130.159 101.334 130.157H101.334C101.334 130.155 101.334 130.154 101.334 130.153C101.327 130.08 101.337 130.009 101.362 129.941C101.363 129.939 101.363 129.937 101.363 129.935C101.366 129.832 101.369 129.735 101.374 129.647C101.372 129.722 101.37 129.79 101.369 129.852C101.369 129.854 101.369 129.855 101.37 129.857C101.378 129.9 101.381 129.936 101.379 129.965C101.383 130.027 101.378 130.082 101.364 130.131C101.364 130.133 101.364 130.134 101.364 130.137C101.362 130.705 101.367 131.212 101.38 131.645C101.378 131.801 101.374 131.944 101.367 132.072C101.374 132.606 101.379 133.09 101.381 133.51C101.401 135.496 101.453 135.828 101.492 135.878C101.498 135.908 101.508 135.93 101.519 135.945C101.533 135.96 101.547 135.959 101.561 135.939C101.601 135.942 101.637 135.933 101.664 135.909C101.86 135.665 102.033 134.589 102.18 132.711C102.198 132.597 102.209 132.466 102.214 132.323C102.254 131.673 102.287 130.988 102.312 130.288L102.414 128.772L102.523 126.852C102.524 126.773 102.528 126.693 102.537 126.613C102.537 126.61 102.537 126.608 102.536 126.605C102.535 126.597 102.533 126.579 102.535 126.542C102.535 126.54 102.535 126.538 102.535 126.536C102.535 126.533 102.536 126.528 102.543 126.525C102.546 126.535 102.552 126.542 102.559 126.542C102.765 127.081 102.917 128.137 103.011 129.683C103.019 129.762 103.024 129.831 103.028 129.892C103.037 130.063 103.044 130.243 103.048 130.428C103.098 131.467 103.231 132.299 103.445 132.901C103.462 132.991 103.485 133.066 103.513 133.122C103.528 133.155 103.534 133.172 103.535 133.181C103.535 133.183 103.536 133.185 103.537 133.186C103.691 133.513 103.801 133.687 103.873 133.716C103.904 133.741 103.932 133.725 103.955 133.667C103.969 133.646 103.974 133.626 103.971 133.606C103.919 132.597 103.878 131.68 103.85 130.877L103.853 130.524L103.814 128.526C103.823 128.288 103.835 128.054 103.847 127.833C103.856 127.531 103.852 127.198 103.836 126.842C103.836 126.841 103.836 126.841 103.836 126.84L103.711 124.962L103.685 124.827C103.687 124.795 103.685 124.762 103.679 124.731C103.678 124.726 103.676 124.706 103.685 124.643C103.685 124.64 103.685 124.638 103.684 124.635L103.667 124.545L103.063 120.697C103.061 120.689 103.057 120.683 103.053 120.684C103.049 120.684 103.046 120.691 103.048 120.699L103.652 124.548L103.668 124.635C103.66 124.701 103.662 124.724 103.664 124.735C103.669 124.763 103.671 124.792 103.669 124.821C103.669 124.823 103.669 124.825 103.67 124.828L103.696 124.963L103.821 126.838C103.82 126.838 103.82 126.839 103.82 126.839C103.829 127.164 103.829 127.473 103.819 127.757L103.798 128.519C103.798 128.519 103.798 128.521 103.799 128.521L103.837 130.517L103.834 130.872C103.863 131.676 103.904 132.594 103.955 133.604C103.955 133.605 103.955 133.606 103.955 133.608C103.956 133.611 103.957 133.623 103.943 133.645C103.922 133.696 103.9 133.709 103.875 133.688C103.807 133.661 103.697 133.487 103.549 133.173C103.545 133.157 103.537 133.134 103.523 133.107C103.497 133.053 103.475 132.982 103.459 132.895C103.459 132.894 103.458 132.892 103.458 132.891C103.246 132.294 103.114 131.467 103.064 130.433C103.06 130.249 103.053 130.068 103.044 129.896C103.04 129.834 103.034 129.765 103.027 129.686C102.932 128.127 102.777 127.062 102.568 126.521C102.566 126.516 102.562 126.513 102.559 126.514C102.556 126.514 102.555 126.514 102.553 126.507C102.552 126.498 102.55 126.48 102.552 126.442C102.552 126.44 102.552 126.438 102.552 126.436L102.545 126.4L102.56 126.376C102.562 126.374 102.563 126.368 102.562 126.363L102.558 126.346C102.59 126.231 102.615 126.141 102.633 126.073L102.635 126.069C102.698 125.866 102.79 125.747 102.91 125.714C102.914 125.713 102.916 125.706 102.915 125.698C102.913 125.69 102.908 125.684 102.904 125.685C102.781 125.72 102.686 125.843 102.621 126.051L102.619 126.056C102.601 126.124 102.575 126.217 102.543 126.333C102.542 126.337 102.542 126.34 102.543 126.344L102.545 126.357L102.53 126.381C102.528 126.385 102.527 126.389 102.528 126.395L102.536 126.437C102.535 126.461 102.535 126.481 102.537 126.496C102.528 126.5 102.523 126.507 102.521 126.516C102.519 126.521 102.519 126.528 102.52 126.536C102.518 126.566 102.519 126.588 102.521 126.605C102.513 126.686 102.509 126.767 102.508 126.844L102.399 128.763L102.297 130.28C102.272 130.98 102.239 131.665 102.198 132.315C102.194 132.456 102.183 132.585 102.166 132.699C102.018 134.573 101.846 135.643 101.655 135.882C101.629 135.904 101.596 135.913 101.556 135.909C101.554 135.909 101.553 135.911 101.552 135.912C101.537 135.934 101.529 135.926 101.526 135.922C101.518 135.911 101.51 135.893 101.506 135.867C101.505 135.862 101.503 135.858 101.5 135.856C101.5 135.856 101.5 135.855 101.499 135.855C101.469 135.825 101.417 135.477 101.398 133.515C101.395 133.095 101.391 132.612 101.383 132.079C101.39 131.953 101.395 131.808 101.396 131.65C101.383 131.219 101.378 130.712 101.38 130.146C101.394 130.093 101.4 130.035 101.395 129.972C101.397 129.942 101.394 129.902 101.385 129.856C101.387 129.751 101.391 129.627 101.395 129.478L101.471 126.338C101.472 126.33 101.468 126.323 101.464 126.32C101.46 126.318 101.456 126.323 101.456 126.331L101.379 129.47C101.378 129.5 101.372 129.548 101.36 129.614C101.355 129.71 101.351 129.814 101.348 129.924C101.322 129.995 101.312 130.069 101.318 130.147L101.312 130.17C101.312 130.17 101.312 130.172 101.312 130.173C101.244 130.868 101.173 131.547 101.102 132.191C101.096 132.365 101.07 132.521 101.026 132.658C101.025 132.659 101.025 132.66 101.025 132.661C100.979 133.081 100.925 133.493 100.865 133.886C100.82 134.226 100.763 134.56 100.697 134.876C100.624 135.191 100.542 135.37 100.456 135.409C100.436 135.431 100.414 135.436 100.39 135.429C100.39 135.428 100.389 135.428 100.388 135.429C100.367 135.434 100.342 135.42 100.312 135.383C100.285 135.359 100.26 135.33 100.238 135.293C100.24 134.732 100.253 134.175 100.276 133.638C100.284 133.432 100.286 133.232 100.281 133.045V133.044C100.287 132.872 100.297 132.695 100.311 132.519C100.31 132.471 100.313 132.424 100.319 132.376C100.32 132.373 100.32 132.37 100.319 132.368C100.29 132.221 100.277 132.069 100.278 131.912C100.281 131.85 100.287 131.78 100.296 131.697C100.303 131.569 100.324 131.43 100.359 131.28C100.359 131.279 100.359 131.277 100.359 131.275C100.359 131.071 100.36 130.866 100.36 130.661C100.361 130.584 100.365 130.504 100.373 130.424C100.392 129.899 100.414 129.368 100.44 128.845C100.442 128.686 100.447 128.526 100.456 128.368C100.456 128.366 100.456 128.364 100.455 128.362C100.454 128.35 100.454 128.338 100.458 128.324C100.458 128.323 100.459 128.321 100.459 128.319C100.462 128.132 100.472 127.931 100.487 127.722C100.522 127.041 100.553 126.325 100.579 125.593L100.64 124.917C100.641 124.908 100.638 124.901 100.634 124.897C100.63 124.894 100.626 124.898 100.625 124.905L100.564 125.584C100.537 126.316 100.506 127.033 100.471 127.713C100.456 127.921 100.446 128.122 100.443 128.309C100.438 128.327 100.437 128.345 100.44 128.362C100.432 128.52 100.426 128.679 100.425 128.837C100.399 129.36 100.376 129.891 100.358 130.414C100.35 130.494 100.345 130.576 100.344 130.655C100.344 130.859 100.344 131.063 100.343 131.267C100.309 131.418 100.287 131.559 100.28 131.687C100.272 131.77 100.266 131.842 100.262 131.905C100.261 132.064 100.275 132.219 100.303 132.368C100.297 132.417 100.295 132.466 100.296 132.512C100.282 132.685 100.272 132.863 100.266 133.037C100.253 133.205 100.241 133.349 100.231 133.465C100.223 133.469 100.217 133.48 100.212 133.498C100.181 133.71 100.143 133.863 100.097 133.952C100.095 133.956 100.095 133.96 100.096 133.965C100.098 133.973 100.102 134 100.078 134.026C100.077 134.026 100.076 134.026 100.076 134.026L100.075 134.025C100.075 134.024 100.074 134.023 100.074 134.019C100.073 134.015 100.071 134.012 100.069 134.009L100.055 133.992C99.9539 133.755 99.86 133.228 99.7754 132.426C99.7676 132.304 99.7564 132.164 99.7427 132.01C99.7383 131.946 99.7319 131.893 99.7231 131.848C99.7177 131.819 99.7119 131.789 99.706 131.76C99.7016 131.575 99.6884 131.381 99.6664 131.185L99.6723 131.163C99.6728 131.161 99.6732 131.159 99.6728 131.157C99.664 130.985 99.6571 130.804 99.6527 130.62C99.6327 130.434 99.618 130.232 99.6082 130.018C99.6077 130.016 99.6077 130.015 99.6077 130.013C99.6014 129.984 99.596 129.955 99.5906 129.926C99.5833 129.724 99.5764 129.504 99.5716 129.272C99.573 129.241 99.5735 129.2 99.5725 129.154C99.553 128.969 99.5422 128.79 99.5408 128.619C99.5339 128.541 99.5271 128.464 99.5197 128.386C99.5188 128.342 99.5148 128.279 99.508 128.202L99.4044 123.767C99.4044 123.759 99.4004 123.752 99.3965 123.75C99.3921 123.749 99.3882 123.754 99.3887 123.762L99.4924 128.198C99.4992 128.276 99.5036 128.338 99.5046 128.384C99.5114 128.462 99.5183 128.539 99.5251 128.616C99.5266 128.786 99.5373 128.967 99.5569 129.151C99.5579 129.194 99.5574 129.232 99.5559 129.265C99.5613 129.5 99.5676 129.721 99.575 129.923C99.575 129.925 99.575 129.926 99.5755 129.928C99.5813 129.957 99.5867 129.986 99.5926 130.016C99.6024 130.231 99.6175 130.433 99.6371 130.617C99.6415 130.799 99.6483 130.978 99.6571 131.149L99.6512 131.172C99.6503 131.174 99.6503 131.177 99.6508 131.181C99.6732 131.377 99.6864 131.571 99.6908 131.757C99.6908 131.757 99.6908 131.758 99.6908 131.759C99.6948 131.817 99.6948 131.876 99.6918 131.936L99.6732 131.941C99.6708 131.941 99.6693 131.944 99.6688 131.949C99.6493 132.093 99.6239 132.185 99.5931 132.224C99.5784 132.254 99.5657 132.272 99.554 132.28L99.5422 132.218C99.5383 132.197 99.5344 132.178 99.531 132.16C99.4459 131.682 99.3638 131.196 99.286 130.717C98.9956 128.73 98.8602 126.869 98.8847 125.187C98.9032 124.462 98.916 123.839 98.9218 123.333L98.9365 122.479C98.9521 122.141 98.9575 121.945 98.9531 121.882L98.956 121.837C98.9565 121.835 98.956 121.833 98.9556 121.831L98.9531 121.817C98.9771 121.777 98.9908 121.725 98.9942 121.661L98.9956 121.542L99.4933 118.218C99.4943 118.212 99.4919 118.203 99.488 118.199C99.488 118.199 99.488 118.199 99.4875 118.199C99.4836 118.195 99.4792 118.198 99.4782 118.205L98.98 121.532L98.9785 121.653C98.9751 121.713 98.9619 121.762 98.9384 121.798C98.936 121.801 98.9355 121.807 98.9365 121.812L98.9404 121.832L98.938 121.876C98.9419 121.939 98.936 122.139 98.9208 122.472L98.9067 123.327C98.9003 123.832 98.8876 124.455 98.869 125.179C98.8446 126.865 98.98 128.728 99.2714 130.718C99.3486 131.199 99.4312 131.685 99.5163 132.164C99.5197 132.182 99.5232 132.201 99.5276 132.222L99.5422 132.299C99.5437 132.307 99.5486 132.313 99.5525 132.311C99.5696 132.306 99.5862 132.285 99.6048 132.248C99.6366 132.207 99.663 132.115 99.683 131.968L99.7016 131.963C99.7045 131.962 99.7065 131.958 99.7065 131.953C99.7084 131.92 99.7094 131.888 99.7094 131.855C99.7172 131.898 99.7231 131.947 99.7275 132.008C99.7412 132.161 99.752 132.301 99.7603 132.424C99.8453 133.236 99.9412 133.768 100.044 134.008C100.045 134.01 100.046 134.012 100.047 134.013L100.06 134.028C100.062 134.037 100.065 134.043 100.069 134.048C100.073 134.053 100.079 134.056 100.085 134.054C100.085 134.054 100.086 134.054 100.087 134.052C100.108 134.03 100.116 134.002 100.112 133.969C100.158 133.876 100.196 133.722 100.227 133.512C100.23 133.5 100.235 133.493 100.24 133.491C100.243 133.491 100.245 133.487 100.245 133.482C100.252 133.405 100.26 133.316 100.268 133.215C100.268 133.349 100.266 133.488 100.26 133.63C100.237 134.169 100.225 134.73 100.223 135.294C100.223 135.299 100.224 135.304 100.226 135.307C100.251 135.349 100.278 135.383 100.308 135.407C100.313 135.414 100.319 135.42 100.324 135.426Z" fill="#D0836A"/>
<path d="M101.642 135.51C101.618 135.884 101.582 136.174 101.534 136.379C101.402 136.379 101.326 136.304 101.306 136.152C101.297 136.014 101.316 135.616 101.364 134.956C101.582 134.949 101.675 135.134 101.642 135.51Z" fill="#D0836A"/>
<path d="M100.465 135.555C100.438 135.928 100.401 136.216 100.351 136.421C100.219 136.419 100.143 136.342 100.123 136.19C100.115 136.052 100.136 135.655 100.188 134.996C100.407 134.994 100.5 135.18 100.465 135.555Z" fill="#D0836A"/>
<path d="M100.054 133.982C100.07 134.373 100.066 134.683 100.043 134.912C99.924 134.964 99.8478 134.916 99.8136 134.77C99.7916 134.632 99.7686 134.218 99.7451 133.525C99.9421 133.432 100.045 133.585 100.054 133.982Z" fill="#D0836A"/>
<path d="M99.5609 132.324C99.6024 132.686 99.6235 132.97 99.6235 133.177C99.5384 133.203 99.4773 133.146 99.4411 133.005C99.4142 132.875 99.3658 132.49 99.2959 131.849C99.4362 131.8 99.5247 131.958 99.5609 132.324Z" fill="#D0836A"/>
<path d="M103.561 131.412C103.76 131.131 103.853 131.194 103.837 131.6C103.812 131.993 103.809 132.551 103.826 133.273C103.698 133.11 103.616 132.959 103.58 132.819C103.544 132.655 103.537 132.186 103.561 131.412Z" fill="#D0836A"/>
<path d="M107.195 90.1487C107.041 90.9002 106.896 91.6127 106.757 92.2867C105.963 91.0861 105.062 90.1322 104.054 89.4246C103.568 89.081 103.136 88.9028 102.756 88.8897C102.86 88.2054 102.971 87.5492 103.09 86.9197C103.284 86.9348 103.491 86.9876 103.708 87.0767C104.101 87.2399 104.63 87.591 105.294 88.1293C105.889 88.6244 106.364 89.0824 106.721 89.5034C106.89 89.7133 107.049 89.9286 107.195 90.1487Z" fill="#C71D65"/>
<path d="M106.757 92.2869C106.217 94.9242 105.773 97.0849 105.427 98.769C104.771 101.894 104.287 104.491 103.975 106.56C103.547 109.337 103.213 111.899 102.973 114.244L100.336 113.774C100.981 103.27 101.787 94.9749 102.755 88.8899C103.135 88.9029 103.568 89.0812 104.053 89.4247C105.062 90.1324 105.963 91.0856 106.757 92.2869Z" fill="#D0836A"/>
<path d="M106.733 71.7264C108.044 65.3534 109.492 59.9341 111.077 55.4689C113.43 55.1723 114.773 57.0452 115.105 61.0874C113.731 67.147 112.404 72.1139 111.127 75.9868L108.341 84.4965C107.924 86.5523 107.542 88.4359 107.195 90.1481C107.048 89.9287 106.89 89.7134 106.72 89.5036C106.363 89.0825 105.887 88.6238 105.293 88.1294C104.629 87.5904 104.1 87.24 103.707 87.0761C103.49 86.987 103.283 86.9349 103.089 86.9191C103.557 84.2757 104.064 82.126 104.61 80.4707L106.733 71.7264Z" fill="#1688C3"/>
<path d="M108.406 27.7999C108.406 27.7999 108.73 29.5476 109.035 26.7607C109.816 19.6905 115.492 24.0703 117.29 20.0311L116.687 11.9896C116.687 11.9896 116.932 10.3474 115.397 10.3474C111.203 10.3474 107.137 12.8514 108.18 27.3734C108.18 27.3734 108.18 27.3734 108.406 27.7999Z" fill="#2B1116"/>
<path d="M116.831 19.0886L116.428 13.7206C116.166 15.013 115.542 16.1009 114.25 16.3844C111.883 16.9049 108.906 20.1351 108.906 20.1351C109.509 15.3422 111.242 12.0464 112.631 10.0884C109.414 11.1326 106.901 15.0046 107.747 26.7806C107.747 26.7806 107.747 26.7806 107.972 27.207C107.972 27.207 108.297 28.9548 108.602 26.168C109.354 19.354 114.653 23.1732 116.646 19.8449C116.713 19.6024 116.774 19.3495 116.831 19.0886Z" fill="#2B1116"/>
<path d="M122.744 70.4448C121.318 66.1975 118.129 59.7247 117.957 59.1851C117.782 58.6468 114.392 50.8889 114.392 50.8889C113.283 51.5878 111.929 51.8484 110.775 51.9538C109.476 52.0726 108.431 51.9947 108.274 52.1249C108.274 52.1249 108.484 49.8022 107.419 50.1733C106.165 50.6098 104.408 61.5538 104.408 66.9051C104.408 72.2537 103.601 89.954 103.05 92.4205C103.05 92.4205 104.069 94.3974 105.724 94.8925C105.724 94.8925 105.214 99.0075 105.511 99.6658C105.809 100.324 116.444 100.761 122.366 92.3657" fill="#1688C3"/>
<path d="M122.334 92.413C122.345 92.3973 122.356 92.3815 122.368 92.3657L122.334 92.413Z" fill="#126A8D"/>
<path d="M122.263 86.7091C115.543 94.2431 109.448 95.3676 105.59 96.1274C105.464 97.396 105.322 99.2426 105.513 99.6657C105.809 100.323 116.405 100.759 122.334 92.4129" fill="#126A8D"/>
<path d="M115.156 80.5187C111.038 71.9376 110.509 61.8249 110.55 56.6533C110.254 56.8963 110.011 57.0967 109.856 57.228C108.495 78.6713 115.156 80.5187 115.156 80.5187Z" fill="#126A8D"/>
<path d="M112.166 55.048C112.166 55.048 113.901 74.0839 118.06 75.6761C118.06 75.6761 112.866 78.445 112.166 55.048Z" fill="#126A8D"/>
<path d="M114.427 54.7902L111.286 50.1975L112.458 49.9506L112.636 48.6173L114.427 54.7902Z" fill="#D0836A"/>
<path d="M105.651 34.4043C105.651 34.4043 104.042 39.6505 106.549 46.3318C109.055 53.0147 108.424 37.8145 108.424 37.8145" fill="#2B1116"/>
<path d="M103.526 32.6842C103.526 32.6842 104.242 34.6409 104.283 31.0051C104.393 21.7778 113.182 23.631 115.19 17.5115L113.17 7.95198C113.17 7.95198 113.287 5.7684 111.08 6.7313C105.048 9.36154 99.5589 15.0062 103.141 32.2986C103.141 32.2986 103.141 32.2986 103.526 32.6842Z" fill="#2B1116"/>
<path d="M117.389 19.0044C117.389 19.0044 116.927 20.7938 115.97 18.7991C115.157 17.1053 114.264 15.9619 113.475 13.4335L108.224 9.49909C108.224 9.49909 108.311 7.68331 109.817 7.25906C111.47 6.79287 117.613 5.66642 117.667 18.5009C117.667 18.5007 117.667 18.5007 117.389 19.0044Z" fill="#2B1116"/>
<path d="M115.612 17.1944L114.263 10.8131C114.072 12.5744 113.331 14.31 111.512 15.4711C108.184 17.5982 104.365 23.4575 104.365 23.4575C104.546 17.1562 106.566 11.9962 108.283 8.70532C103.806 12.0133 100.746 18.3749 103.65 32.3973C103.65 32.3973 103.65 32.3973 104.036 32.7829C104.036 32.7829 104.752 34.7396 104.792 31.1038C104.898 22.2111 113.065 23.608 115.455 18.2446C115.516 17.9031 115.568 17.5522 115.612 17.1944Z" fill="#2B1116"/>
<path d="M109.059 38.4445L108.842 36.5928C108.842 36.5928 108.587 36.9879 108.218 36.1237C108.218 36.1237 108.066 35.4816 108.32 34.9879L107.531 33.9755L107.162 32.5928L106.945 30.5928L107.314 28.3706L107.607 28.2223L107.798 27.4321L108.651 29.9752L108.906 30.4443C108.906 30.4443 109.122 31.185 109.135 31.2592C109.148 31.3332 109.352 31.0864 109.352 31.0864L109.543 30.6172C109.543 30.6172 109.39 29.5554 109.364 29.4814C109.339 29.4075 109.16 28.7408 109.16 28.7408L108.995 28.5432L108.855 27.7779C108.855 27.7779 108.766 27.2595 108.74 27.1852C108.715 27.1112 108.422 26.2963 108.422 26.2963L108.155 25.605L108.002 25.1605C108.002 25.1605 107.9 24.7654 107.824 24.6175C107.747 24.4694 107.582 24.0743 107.442 23.9014C107.302 23.7286 107.225 23.6792 107.086 23.8521C106.945 24.025 106.767 24.3705 106.627 24.5928C106.487 24.815 106.372 25.1112 106.207 25.4077C106.041 25.7039 106.016 25.7781 105.748 26.1483C105.481 26.5187 105.341 26.741 105.163 27.2348C104.985 27.7285 104.946 27.7532 104.806 28.3459C104.667 28.9386 104.539 29.5063 104.539 29.5063C104.539 29.5063 104.45 29.9507 104.361 30.3952C104.272 30.8396 104.246 30.741 104.246 31.0866C104.246 31.4321 104.272 31.6545 104.336 32.0741C104.399 32.4939 104.577 33.4568 104.577 33.4568C104.577 33.4568 104.348 33.1359 104.361 33.3085C104.374 33.4814 104.501 34.1728 104.539 34.2714C104.577 34.3701 104.246 33.901 104.781 35.0368C105.316 36.1726 105.685 37.0368 105.99 37.4566C106.296 37.8763 106.793 38.1972 106.793 38.1972C106.793 38.1972 107.34 38.4194 107.582 38.6417C107.824 38.8639 108.117 39.0121 108.244 39.0861C108.371 39.1601 108.766 39.4812 108.766 39.4812C108.766 39.4812 108.868 39.5059 109.008 39.6295C109.148 39.753 109.059 38.4445 109.059 38.4445Z" fill="#2B1116"/>
<path d="M104.22 32.716L104.665 32.4445L105.175 33.7531L104.526 34.1729L104.029 32.9136L104.22 32.716Z" fill="#2B1116"/>
<path d="M107.632 26.642L108.09 28.074L108.306 28.6173L107.657 28.2222L107.632 26.642Z" fill="#2B1116"/>
<path d="M108.868 29.9356C108.868 29.9356 107.994 26.8989 107.004 27.8181C106.45 28.3314 106.997 36.3445 108.895 35.9243C108.895 35.9243 109.232 35.7014 109.251 34.4098L108.868 29.9356Z" fill="#D0836A"/>
<path opacity="0.4" d="M107.451 28.8178C107.451 28.8178 106.926 31.8965 107.662 32.6085C107.662 32.6085 108.052 32.8409 108.032 33.1721C108.011 33.5039 108.196 35.7254 108.629 35.0072C108.629 35.0072 108.965 33.99 108.541 33.6189C108.116 33.2489 108.414 33.2292 108.747 32.4189C108.747 32.4189 108.103 28.5818 107.451 28.8178Z" fill="#A56550"/>
<path d="M107.283 31.0822C107.235 30.518 107.203 29.9436 107.252 29.3482C107.265 29.1998 107.284 29.0465 107.332 28.8907C107.362 28.7291 107.514 28.5715 107.613 28.6435C107.644 28.6447 107.701 28.7013 107.745 28.7427C107.79 28.79 107.816 28.8338 107.852 28.8809C107.915 28.9786 107.973 29.0809 108.025 29.1905C108.24 29.6216 108.407 30.1091 108.555 30.6224C108.629 30.8782 108.692 31.1495 108.744 31.4347C108.793 31.7225 108.847 32.0138 108.817 32.4004L108.81 32.4763L108.779 32.5315C108.668 32.7294 108.556 32.9665 108.482 33.1924C108.465 33.2463 108.449 33.3063 108.445 33.344C108.437 33.3953 108.442 33.3691 108.438 33.3815C108.447 33.3969 108.459 33.4075 108.511 33.4327C108.546 33.4462 108.593 33.4738 108.649 33.5382C108.841 33.79 108.842 34.2369 108.792 34.5482C108.742 34.8695 108.622 35.1736 108.458 35.2538C108.602 35.0947 108.678 34.7967 108.696 34.5071C108.713 34.2209 108.67 33.9095 108.566 33.8178C108.555 33.8107 108.545 33.802 108.534 33.792L108.473 33.774C108.446 33.7627 108.375 33.7585 108.317 33.6729C108.252 33.5853 108.226 33.3876 108.241 33.2844C108.248 33.164 108.268 33.078 108.289 32.9925C108.374 32.664 108.486 32.4265 108.605 32.1783L108.569 32.31C108.578 32.1253 108.544 31.8523 108.494 31.6089C108.448 31.3585 108.383 31.1144 108.318 30.8711C108.184 30.3891 108.027 29.9176 107.848 29.5049C107.805 29.3989 107.755 29.3085 107.707 29.218C107.685 29.1811 107.656 29.1267 107.637 29.102C107.616 29.0834 107.615 29.0427 107.571 29.0273C107.529 28.9978 107.519 28.9936 107.48 29.0869C107.447 29.168 107.421 29.2906 107.402 29.4183C107.327 29.9373 107.302 30.5144 107.283 31.0822Z" fill="#985339"/>
<path d="M107.595 31.804C107.595 31.804 107.525 31.2092 107.576 30.5769C107.601 30.2638 107.666 29.9347 107.771 29.7312C107.824 29.6352 107.874 29.5594 107.915 29.5265C107.954 29.4878 107.977 29.4672 107.977 29.4672L108.052 29.9712C108.054 29.9796 107.997 29.978 107.921 30.0663C107.845 30.154 107.76 30.3765 107.707 30.6445C107.596 31.1843 107.595 31.804 107.595 31.804Z" fill="#985339"/>
<path d="M109.034 35.7912C109.019 36.3286 108.782 36.7396 108.505 36.7112C108.228 36.6827 108.016 36.2254 108.031 35.6881C108.046 35.1528 108.281 34.741 108.558 34.7695C108.835 34.7979 109.048 35.2559 109.034 35.7912Z" fill="#EA882B"/>
<path d="M108.827 35.7697C108.819 36.0896 108.68 36.3335 108.515 36.3167C108.351 36.2997 108.225 36.0287 108.234 35.7087C108.243 35.3907 108.383 35.1464 108.547 35.1633C108.711 35.1802 108.836 35.452 108.827 35.7697Z" fill="#B16327"/>
<path d="M109.08 32.2962L109.47 32.3126C109.47 32.3126 109.755 31.078 109.432 29.8436C109.432 29.8436 109.165 28.4774 108.97 27.8271C108.97 27.8271 108.957 27.3005 109.097 26.2633L108.248 26.2386L108.235 27.6295L108.528 28.2962L108.766 29.0615L108.881 29.8105L109.012 30.2878L108.982 30.3371L109.106 30.9215L109.08 32.2962Z" fill="#2B1116"/>
<path d="M117.164 39.7098C116.272 38.8374 115.887 37.653 115.887 37.653L117.641 37.7443" fill="#CA406D"/>
<path d="M117.676 37.978C115.783 37.978 115.664 37.4464 115.76 37.4049C115.856 37.3633 116.648 37.3969 116.959 37.2102C117.27 37.0235 117.534 37.1357 117.668 37.2222C117.668 37.2222 117.736 37.7873 117.676 37.978Z" fill="#A42046"/>
<path d="M117.117 39.944C116.479 39.5775 116.223 38.7885 116.191 38.2747C116.191 38.2747 116.461 39.0553 117.189 39.4736C117.189 39.4736 117.185 39.7875 117.116 39.9317L117.117 39.944Z" fill="#A42046"/>
<path d="M117.539 37.9768L117.593 38.0024C117.593 38.0024 117.56 38.5573 117.22 39.5348C117.22 39.5348 117.213 39.5364 117.204 39.528L117.129 39.401L117.151 39.276L117.539 37.9768Z" fill="#CA406D"/>
<path d="M116.104 25.0322C115.914 25.3944 115.466 24.2044 114.639 23.7435C113.812 23.2826 113.107 23.5973 112.704 24.0908C112.704 24.0908 113.199 22.7166 114.432 22.7319C115.666 22.7473 116.353 24.5602 116.104 25.0322Z" fill="#1C0C0E"/>
<path d="M114.421 27.1612C114.947 26.8965 115.4 26.842 115.78 26.9978C115.885 28.0407 115.885 28.99 115.78 29.8463C114.922 30.391 114.024 29.9863 113.085 28.6322C113.457 27.9005 113.902 27.4103 114.421 27.1612Z" fill="white"/>
<path d="M114.664 26.9042C114.802 26.5617 114.967 26.3906 115.162 26.3906C115.348 26.3906 115.514 26.5617 115.659 26.9042C115.797 27.2622 115.865 27.6902 115.865 28.1882C115.865 28.6706 115.797 29.0753 115.659 29.4021C115.514 29.7602 115.348 29.9391 115.162 29.9391C114.967 29.9391 114.802 29.76 114.664 29.4021C114.518 29.0753 114.445 28.6706 114.445 28.1882C114.445 27.6902 114.518 27.2622 114.664 26.9042Z" fill="#2B1116"/>
<path d="M115.136 28.9355C115.055 28.7331 115.015 28.4842 115.015 28.1884C115.015 27.8926 115.055 27.6437 115.136 27.4413C115.217 27.2388 115.314 27.1377 115.428 27.1377C115.549 27.1377 115.65 27.2388 115.731 27.4413C115.82 27.6437 115.864 27.8926 115.864 28.1884C115.864 28.4842 115.82 28.7331 115.731 28.9355C115.65 29.1535 115.549 29.2624 115.428 29.2624C115.314 29.2624 115.217 29.1533 115.136 28.9355Z" fill="#1C0C0E"/>
<path d="M115.544 27.6079C115.614 27.6079 115.675 27.6639 115.726 27.7756C115.771 27.9035 115.793 28.0552 115.793 28.231C115.793 28.4068 115.771 28.5506 115.726 28.6623C115.675 28.7901 115.615 28.8541 115.544 28.8541C115.474 28.8541 115.417 28.7901 115.373 28.6623C115.321 28.5506 115.296 28.4068 115.296 28.231C115.296 28.0552 115.321 27.9035 115.373 27.7756C115.417 27.6639 115.474 27.6079 115.544 27.6079Z" fill="#1D1918"/>
<path d="M115.029 28.0017C114.998 27.9417 114.981 27.852 114.981 27.7322C114.981 27.6324 114.998 27.5424 115.029 27.4626C115.053 27.3829 115.089 27.3429 115.137 27.3429C115.177 27.3429 115.212 27.3829 115.244 27.4626C115.276 27.5424 115.292 27.6324 115.292 27.7322C115.292 27.852 115.276 27.942 115.244 28.0017C115.212 28.0815 115.177 28.1215 115.137 28.1215C115.089 28.1215 115.053 28.0815 115.029 28.0017Z" fill="white"/>
<path d="M115.78 26.9978C115.399 26.8422 114.946 26.8967 114.42 27.1611C113.902 27.4102 113.456 27.9004 113.084 28.632C114.023 29.986 114.922 30.3909 115.78 29.846V30.1729C114.954 30.78 113.995 30.3206 112.902 28.7953L112.344 28.0483C112.522 28.2662 112.684 28.3596 112.829 28.3284C112.935 28.2973 113.036 28.2195 113.133 28.0949C114.023 26.8342 114.906 26.3827 115.78 26.7407C115.974 26.7095 116.148 26.2816 116.302 25.4567C116.229 26.4218 116.055 26.9355 115.78 26.9978Z" fill="#1C0C0E"/>
<path d="M115.597 25.7136C115.751 25.9938 115.812 26.3363 115.78 26.7409C114.905 26.3829 114.023 26.8342 113.133 28.0951C113.035 28.2196 112.935 28.2976 112.829 28.3287C113.541 26.3518 114.464 25.4803 115.597 25.7136Z" fill="#DB8178"/>
<path d="M121.16 26.8125C121.16 26.8125 120.973 24.6011 119.889 24.2571C118.805 23.9133 118.218 25.6913 118.218 25.6913C118.218 25.6913 118.329 27.8129 119.514 28.1934C120.617 28.5478 121.16 26.8125 121.16 26.8125Z" fill="white"/>
<path d="M109.096 119.728L107.059 135.827C107.059 135.827 110.038 138.099 112.609 134.889L110.445 119.432L109.554 116.124L109.096 119.728Z" fill="#52B750"/>
</svg>
