<svg width="220" height="240" viewBox="0 0 220 240" fill="none" xmlns="http://www.w3.org/2000/svg">
<path fill-rule="evenodd" clip-rule="evenodd" d="M106.782 53.7426C106.782 53.7426 104.778 55.1128 104 56.7995C103.221 58.4852 100.682 69.7583 100.682 69.7583L106.319 71.8621L106.782 53.7426Z" fill="#C4A10C"/>
<path fill-rule="evenodd" clip-rule="evenodd" d="M118.098 39.1983C118.098 39.1983 122.603 48.5495 118.618 56.2211C114.634 63.8927 105.11 55.6593 109.135 40.1211C113.161 24.5833 118.098 39.1983 118.098 39.1983Z" fill="#202023"/>
<path fill-rule="evenodd" clip-rule="evenodd" d="M118.459 36.6787C118.459 36.6787 119.326 31.2467 119.21 28.5022C119.095 25.7587 118.055 23.0987 117.29 23.4067C117.29 23.4067 116.568 20.7471 115.659 19.7393C114.749 18.7309 112.742 17.5272 109.956 20.7189C107.17 23.9109 107.205 29.2304 107.18 31.0782C107.155 32.9267 118.459 36.6787 118.459 36.6787Z" fill="#202023"/>
<path fill-rule="evenodd" clip-rule="evenodd" d="M92.5426 217.698C92.5426 217.698 93.3634 217.26 93.6323 215.133C93.9012 213.005 94.0797 206.622 94.176 204.531C94.2723 202.441 95.0995 197.812 95.0995 197.812L97.8138 200.164L98.1795 201.358L97.4525 204.6C97.4525 204.6 97.891 205.95 97.4677 207.853C97.0438 209.757 95.119 219.688 94.4263 220.136C93.7335 220.584 92.0586 219.65 92.0586 219.65C92.0586 219.65 92.1065 218.4 92.1598 218.185C92.2126 217.971 92.3353 217.742 92.5426 217.698Z" fill="#E6AD83"/>
<path fill-rule="evenodd" clip-rule="evenodd" d="M117.57 199.454C117.566 202.395 117.587 204.884 117.669 206.768C117.709 207.68 118.452 215.275 118.452 215.275L118.852 218.359L118.792 219.628L117.008 220.449L115.324 218.097C115.324 218.097 114.944 209.997 115.034 208.466C115.124 206.935 115.248 206.054 115.248 206.054L115.39 205.674C115.227 203.604 115.061 201.529 114.893 199.453H117.57V199.454Z" fill="#E6AD83"/>
<path fill-rule="evenodd" clip-rule="evenodd" d="M118.452 215.275C118.452 215.275 118.82 217.233 118.991 217.683C119.161 218.135 119.862 219.64 119.97 220.125C120.077 220.61 120.283 222.099 119.448 222.099C118.613 222.099 117.258 222.099 116.458 222.099C115.659 222.099 114.986 221.614 114.977 220.175C114.968 218.737 114.914 213.636 114.806 212.532C114.698 211.428 114.42 210.174 114.555 209.087C114.689 208 115.147 206.093 115.219 205.926C115.251 205.849 115.315 205.755 115.39 205.675L115.303 206.64C115.278 206.835 115.258 207.064 115.245 207.331C115.174 208.919 115.478 216.094 115.478 216.697C115.478 217.298 115.802 217.683 116.394 218.001C116.987 218.319 118.208 218.604 118.666 217.751C118.666 217.751 118.738 217.62 118.699 217.311C118.662 217.001 118.452 215.275 118.452 215.275Z" fill="#202023"/>
<path fill-rule="evenodd" clip-rule="evenodd" d="M103.53 101.27C101.559 127.225 95.485 179.891 93.482 198.258C93.482 198.258 93.3667 199.229 93.7514 199.826C94.1367 200.423 96.2536 202.663 97.6014 202.737C97.6014 202.737 98.3328 203.036 98.6408 202.066C99.6352 198.932 108.463 132.249 111.731 117.025C111.731 117.025 112.793 95.642 110.806 89.8477C108.819 84.0534 103.856 92.1421 103.856 92.1421L103.53 101.27Z" fill="#C4A10C"/>
<path fill-rule="evenodd" clip-rule="evenodd" d="M107.129 91.8989C107.129 91.8989 109.978 93.1681 110.362 102.651C112.03 143.722 114.079 159.873 114.309 203.11C114.963 204.643 117.579 204.455 118.332 203.11C119.271 183.368 123.039 116.727 121.085 101.122C119.776 90.6687 118.005 87.6824 107.129 91.8989Z" fill="#C4A10C"/>
<path fill-rule="evenodd" clip-rule="evenodd" d="M106.782 53.7427C106.782 53.7427 105.494 60.1123 105.239 61.0671C104.983 62.022 103.962 66.28 103.749 68.4093C103.536 70.5388 103.962 73.5484 104.388 75.1639L104.395 96.323C108.559 98.5378 113.723 97.7664 117.886 96.323L117.205 87.478L120.656 55.1231L115.583 51.9258L112.199 53.6147L110.827 51.834L106.782 53.7427Z" fill="#707070"/>
<path fill-rule="evenodd" clip-rule="evenodd" d="M115.582 44.5514H110.825V54.7801H112.715L115.582 52.6176V44.5514Z" fill="#D77F68"/>
<path fill-rule="evenodd" clip-rule="evenodd" d="M115.575 50.2939L112.148 54.78L113.669 58.6837L117.452 52.7775L115.575 50.2939Z" fill="#C4A10C"/>
<path fill-rule="evenodd" clip-rule="evenodd" d="M112.148 54.7799L110.827 50.6666L109.409 52.8768L110.329 57.7693L112.148 54.7799Z" fill="#C4A10C"/>
<path fill-rule="evenodd" clip-rule="evenodd" d="M107.998 35.0782C107.962 35.0882 107.926 35.1002 107.891 35.1156L107.889 35.116H107.89C107.233 35.3916 106.738 36.5164 106.73 37.8742C106.72 39.4519 107.372 40.7468 108.186 40.7658C108.999 40.7842 109.666 39.5209 109.676 37.9431C109.682 37.026 109.464 36.2044 109.121 35.6737C109.162 36.5169 109.096 37.562 108.541 37.6742L108.552 36.0264C108.556 35.3593 108.234 35.0571 107.998 35.0782Z" fill="#D77F68"/>
<path fill-rule="evenodd" clip-rule="evenodd" d="M117.708 35.0754C117.744 35.0845 117.78 35.0958 117.816 35.1096L117.817 35.11C118.475 35.3678 118.978 36.4793 118.996 37.8366C119.017 39.414 118.375 40.7265 117.561 40.7671C116.748 40.8078 116.071 39.5625 116.05 37.9849C116.038 37.0678 116.25 36.2407 116.589 35.7011C116.554 36.5449 116.627 37.5882 117.183 37.6854L117.161 36.0375C117.152 35.3712 117.472 35.0603 117.708 35.0754Z" fill="#D77F68"/>
<path fill-rule="evenodd" clip-rule="evenodd" d="M112.863 49.3873C115.613 49.3873 117.908 42.8058 117.908 37.6091V30.7057C117.908 25.3251 115.638 20.9233 112.864 20.9233H112.863C110.09 20.9233 107.819 25.3253 107.819 30.7057V37.4626C107.819 43.158 109.82 49.3873 112.863 49.3873Z" fill="#E6AD83"/>
<path fill-rule="evenodd" clip-rule="evenodd" d="M112.726 38.2674C112.632 38.7625 112.468 39.6585 112.482 39.8092C112.501 40.0192 113.06 40.2138 113.207 39.9371C113.305 39.753 113.184 38.9445 113.078 38.4005C112.933 37.6587 112.853 37.6007 112.726 38.2674Z" fill="#EBBF9E"/>
<path fill-rule="evenodd" clip-rule="evenodd" d="M107.819 35.5655C107.819 35.5655 108.142 45.0558 110.984 48.5235C110.984 48.5235 108.002 45.8862 107.819 37.6091C107.819 37.4627 107.819 35.4493 107.819 35.4493V35.5655Z" fill="#D39D79"/>
<path fill-rule="evenodd" clip-rule="evenodd" d="M120.656 55.1233C120.656 55.1233 117.175 52.1185 117.04 52.1369C116.905 52.1554 116.612 52.5742 116.612 52.5742L111.152 59.5136L111.092 61.7332L110.017 70.2693C110.017 70.2693 109.401 79.2624 109.671 82.6217C109.941 85.981 109.869 90.9305 109.869 90.9305C110.319 97.9132 102.447 188.663 103.178 196.564C103.178 196.564 106.138 196.454 106.818 196.366C107.84 196.234 122.951 194.56 122.951 194.56C122.951 194.56 124.95 194 124.712 191.243C124.656 190.588 123.308 142.485 122.115 111.772C121.64 99.5568 119.953 92.3102 119.532 89.5879C119.277 87.9408 119.051 86.4199 118.868 85.1109C118.495 82.4277 118.87 79.9502 118.87 79.9502L120.667 69.8928L120.656 55.1233Z" fill="#DBC661"/>
<path fill-rule="evenodd" clip-rule="evenodd" d="M109.933 52.2555C109.933 52.2555 110.668 55.8935 111 57.2989C111.139 57.8913 111.683 59.6604 111.532 60.3329C110.528 64.7862 110.616 69.7261 110.479 70.525C110.248 71.8697 109.877 76.5017 110.146 79.4887C110.146 79.4887 110.227 84.5739 110.237 85.6752C110.246 86.7764 110.146 92.5261 110.146 92.5261L106.572 196.061C106.572 196.061 104.119 196.485 103.177 196.564C102.642 196.609 92.7289 195.02 92.7289 195.02C92.7289 195.02 92.4209 195.169 92.4209 194.423C92.4209 193.677 103.942 85.7389 103.942 85.7389L104.191 76.069C104.191 76.069 103.518 71.0674 103.248 69.1639C102.979 67.2596 103.48 64.9829 104.288 62.3695C105.096 59.7562 106.783 53.7426 106.783 53.7426L109.693 52.0497C109.693 52.0497 109.827 51.9566 109.933 52.2555Z" fill="#DBC661"/>
<path fill-rule="evenodd" clip-rule="evenodd" d="M98.7838 207.818C98.7838 207.818 99.2062 208.07 99.0752 209.658C98.9442 211.247 98.2817 212.283 98.2817 215.428C98.2817 218.572 98.2817 221.423 98.2817 221.423C98.2817 221.423 98.3008 222.099 98.0695 222.099C97.8388 222.099 98.0114 222.099 97.919 222.099C97.8266 222.099 97.7415 221.94 97.7415 221.416C97.7415 220.893 97.7415 215.741 97.7415 214.738C97.7415 213.734 97.5244 211.773 97.3108 211.416C97.0966 211.059 98.7838 207.818 98.7838 207.818Z" fill="#202023"/>
<path fill-rule="evenodd" clip-rule="evenodd" d="M97.4531 204.601C97.4531 204.601 98.6392 205.792 99.2077 207.971C99.2077 207.971 99.285 208.448 99.044 208.771C98.8034 209.094 97.2209 211.681 96.9129 213.349C96.6039 215.018 96.1018 218.32 95.8901 219.613C95.678 220.908 95.215 222.099 94.424 222.099C93.6334 222.099 91.0682 222.099 90.2777 222.099C89.4872 222.099 89.757 220.805 90.3256 220.141C90.8947 219.477 92.1477 217.826 92.3115 217.707C92.4757 217.588 92.5432 217.698 92.5432 217.698C92.5432 217.698 92.3643 217.851 92.4224 218.124C92.4801 218.396 92.9035 218.251 93.323 218.251C93.7424 218.251 94.3638 217.834 94.6821 216.558C95.0004 215.28 96.2245 208.591 96.3404 207.978C96.4563 207.365 97.2566 206.055 97.4531 204.601Z" fill="#202023"/>
<path fill-rule="evenodd" clip-rule="evenodd" d="M120.654 55.1233C120.654 55.1233 121.658 55.9686 122.139 56.6784C122.532 57.2586 127.276 69.7158 128.844 74.8697C130.23 79.4304 128.986 82.3481 127.163 86.7682C125.777 90.1275 122.697 97.1465 122.697 97.1465C122.697 97.1465 122.504 97.632 122.254 97.4084C122.004 97.1842 120.214 89.904 120.214 89.904C120.214 89.904 120.04 89.5309 120.348 88.7478C120.656 87.9634 123.668 79.0786 123.668 79.0786L120.257 68.9629C120.257 68.9629 118.443 62.168 120.654 55.1233Z" fill="#C4A10C"/>
<path fill-rule="evenodd" clip-rule="evenodd" d="M117.906 37.6091L117.357 33.2974C117.357 33.2974 115.588 30.7807 116.217 27.278C116.845 23.7754 116.969 24.122 116.969 24.122C116.969 24.122 119.326 26.1809 118.276 35.4651L117.906 37.6091Z" fill="#202023"/>
<path fill-rule="evenodd" clip-rule="evenodd" d="M107.818 37.6091L108.368 33.2974C108.368 33.2974 110.137 30.7807 109.508 27.278C108.88 23.7754 108.757 24.122 108.757 24.122C108.757 24.122 106.4 26.1809 107.449 35.4651L107.818 37.6091Z" fill="#202023"/>
<path d="M112.085 33.7791C112.085 33.7791 111.805 34.1793 110.93 33.1451C109.964 32.0057 108.979 32.2284 108.87 32.3987C108.87 32.3987 110.526 30.7051 112.085 33.7791Z" fill="#030000"/>
<path d="M113.758 33.6964C113.758 33.6964 114.034 34.108 114.92 33.1109C115.897 32.0127 116.881 32.2765 116.987 32.4511C116.987 32.4511 115.351 30.6887 113.758 33.6964Z" fill="#030000"/>
<path fill-rule="evenodd" clip-rule="evenodd" d="M116.833 32.3204L115.239 28.8108C115.239 28.8108 115.044 28.4748 115.081 27.9846C115.117 27.4946 114.979 26.9066 114.554 27.6626C114.128 28.4182 111.097 33.1073 108.411 30.861L108.757 24.122C108.757 24.122 110.547 19.4875 114.041 20.3275C117.535 21.1675 117.619 27.4571 117.619 27.4571L116.833 32.3204Z" fill="#202023"/>
<path fill-rule="evenodd" clip-rule="evenodd" d="M117.409 33.6707C117.34 33.646 117.277 33.6005 117.203 33.5398C116.611 32.6956 115.195 32.2811 112.992 32.3083C112.945 32.3085 112.906 32.3089 112.876 32.3089C112.847 32.3089 112.808 32.3085 112.761 32.3083C110.558 32.2811 109.141 32.6956 108.549 33.5398C108.474 33.6003 108.4 33.646 108.332 33.6707C108.124 33.7443 107.819 33.9018 107.819 33.9018V34.7987C107.819 34.7987 108.093 34.7669 108.162 35.0836C108.23 35.3998 108.291 36.6992 108.485 37.4672C108.747 38.5009 109.176 39.3403 109.93 39.5133C110.76 39.7034 111.37 39.3324 111.841 38.5207C112.414 37.5351 112.454 36.1116 112.381 34.8936C112.381 34.8936 112.566 34.7247 112.877 34.7247C113.188 34.7247 113.373 34.8936 113.373 34.8936C113.3 36.1116 113.339 37.5351 113.912 38.5207C114.384 39.3324 114.992 39.7034 115.822 39.5133C116.575 39.3403 117.003 38.5009 117.265 37.4672C117.46 36.6992 117.511 35.3998 117.579 35.0836C117.648 34.7669 117.908 34.7987 117.908 34.7987V33.9018C117.908 33.9016 117.616 33.744 117.409 33.6707ZM111.909 37.6929C111.663 38.4316 111.09 39.174 110.25 39.1383C109.411 39.1031 109.008 38.4478 108.754 37.5652C108.484 36.634 108.377 35.1938 108.568 34.4496C108.759 33.7056 109.392 33.1631 110.302 33.1738C111.213 33.1845 111.741 33.9598 111.926 34.4923C112.303 35.5769 112.173 36.9005 111.909 37.6929ZM112.877 34.2287C112.636 34.2287 112.35 34.308 112.287 34.3607C112.287 34.3607 112.063 33.4009 111.211 33.0102C110.794 32.8191 110.42 32.7564 110.091 32.7761C110.782 32.578 111.674 32.4847 112.76 32.4978C112.808 32.4985 112.847 32.4989 112.877 32.4989C112.908 32.4989 112.946 32.4985 112.994 32.4978C114.081 32.4847 114.972 32.5782 115.665 32.7761C115.335 32.7567 114.961 32.8191 114.543 33.0102C113.691 33.4009 113.467 34.3607 113.467 34.3607C113.404 34.308 113.118 34.2287 112.877 34.2287ZM117.001 37.5654C116.745 38.4478 116.344 39.1031 115.504 39.1385C114.665 39.174 114.091 38.4318 113.845 37.6931C113.581 36.9007 113.451 35.5771 113.828 34.4925C114.013 33.96 114.541 33.1847 115.452 33.174C116.363 33.1633 116.995 33.7058 117.186 34.4498C117.378 35.1942 117.27 36.6342 117.001 37.5654Z" fill="#202023"/>
<path fill-rule="evenodd" clip-rule="evenodd" d="M97.3189 68.6702C97.3189 68.6702 102.432 83.9953 102.706 85.1267C102.981 86.2588 103.53 86.8355 103.53 86.8355C103.53 86.8355 113.418 89.9239 114.674 90.0556C115.931 90.1879 115.452 88.5004 115.452 88.5004C115.452 88.5004 110.452 71.7916 110.017 70.2693C109.583 68.747 108.512 68.8019 108.512 68.8019L97.7657 66.8101C97.7657 66.8098 96.6912 66.7858 97.3189 68.6702Z" fill="#DBDADB"/>
<path fill-rule="evenodd" clip-rule="evenodd" d="M97.3181 68.6701C97.3181 68.6701 102.431 83.9952 102.706 85.1266C102.98 86.2587 103.529 86.8354 103.529 86.8354C103.529 86.8354 113.417 89.9238 114.673 90.0555C114.876 90.0767 115.032 90.0507 115.154 89.9917C115.128 89.786 115.085 89.6365 115.085 89.6365C115.085 89.6365 110.085 72.9284 109.65 71.4054C109.216 69.8832 108.145 69.938 108.145 69.938L97.3988 67.9464C97.3988 67.9464 97.2834 67.9438 97.1504 68.0066C97.1797 68.1958 97.2335 68.4157 97.3181 68.6701Z" fill="#B4B3B3"/>
<path fill-rule="evenodd" clip-rule="evenodd" d="M111.288 59.464C111.085 59.464 110.903 59.7822 110.879 60.1743C110.856 60.5662 111.001 60.8845 111.203 60.8845C111.406 60.8845 111.588 60.5665 111.612 60.1743C111.635 59.782 111.49 59.464 111.288 59.464Z" fill="#DBDADB"/>
<path fill-rule="evenodd" clip-rule="evenodd" d="M109.819 66.9337C109.617 66.9337 109.434 67.252 109.411 67.644C109.387 68.0357 109.532 68.354 109.734 68.354C109.937 68.354 110.119 68.0359 110.143 67.644C110.166 67.2518 110.021 66.9337 109.819 66.9337Z" fill="#DBDADB"/>
<path fill-rule="evenodd" clip-rule="evenodd" d="M119.417 87.2633C118.605 85.1644 118.455 84.5863 118.455 84.5863L116.875 83.4323C116.318 84.4238 117.404 85.1191 117.713 85.4531C117.88 85.6355 117.666 85.7321 118.04 87.0179C118.04 87.0179 117.439 86.0928 116.801 86.5221C116.163 86.9513 115.712 87.3059 115.712 87.3059C115.699 87.8928 115.566 88.1685 115.829 88.3454C116.067 88.5052 116.914 87.8037 117.088 88.0032L117.892 88.9289C117.164 88.8755 117.181 88.8199 116.623 89.2204C116.446 89.3479 115.93 89.6777 115.866 89.8553C115.694 90.3312 115.938 90.8983 116.257 90.9792C116.6 91.0663 117.18 90.5795 117.483 90.5843C117.709 90.5877 117.869 90.574 117.59 90.8057C117.396 90.9676 116.732 91.2919 116.572 91.5744C116.334 91.9989 116.631 92.8231 116.962 92.6771C117.293 92.5317 118.175 91.8281 118.422 92.1751C118.67 92.5228 119.304 93.9203 119.958 93.5061C120.722 93.022 121.041 93.3792 121.092 93.0617C121.196 92.411 120.619 90.2208 120.318 89.0757C120.175 88.5326 119.954 88.6512 119.417 87.2633Z" fill="#E6AD91"/>
<path fill-rule="evenodd" clip-rule="evenodd" d="M108.109 81.07C108.183 79.7918 108.695 78.9751 109.244 77.1998C109.794 75.4245 109.628 75.2476 109.628 75.2476C109.628 75.2476 110.361 74.7497 110.379 76.632C110.397 78.5136 110.526 78.6556 110.526 78.6556L112.155 77.448L111.825 76.2412C111.825 76.2412 113.015 75.9929 113.217 77.2355C113.418 78.478 113.272 78.7262 113.272 78.7262C113.272 78.7262 113.583 79.0457 113.638 79.8631C113.693 80.6791 113.546 81.2832 113.546 81.2832C113.546 81.2832 113.858 81.7091 113.949 82.8096C114.041 83.9102 112.65 85.366 111.423 85.8988C110.196 86.4309 109.025 85.8988 109.025 85.8988L108.109 81.07Z" fill="#E6AD91"/>
<path fill-rule="evenodd" clip-rule="evenodd" d="M108.241 80.4192C108.241 80.4192 109.134 84.8571 109.454 85.7444C109.454 85.7444 109.465 86.1442 109.419 86.3211C109.245 86.9986 98.6591 95.915 98.9808 85.6073C99.1035 81.6974 99.7264 75.9209 99.7264 75.9209L101.743 82.0594L107.612 80.4411C107.612 80.4411 108.126 80.2416 108.241 80.4192Z" fill="#C4A10C"/>
<path d="M110.906 36.5514C110.906 36.8371 110.787 37.0692 110.638 37.0692C110.49 37.0692 110.371 36.8371 110.371 36.5514C110.371 36.2647 110.49 36.0327 110.638 36.0327C110.787 36.0324 110.906 36.2647 110.906 36.5514Z" fill="#040000"/>
<path d="M110.528 36.1744C110.528 36.3182 110.467 36.4373 110.392 36.4373C110.317 36.4373 110.257 36.3182 110.257 36.1744C110.257 36.0297 110.317 35.9115 110.392 35.9115C110.467 35.9115 110.528 36.0297 110.528 36.1744Z" fill="#F0F0ED"/>
<path d="M114.819 36.5514C114.819 36.8371 114.94 37.0692 115.087 37.0692C115.235 37.0692 115.355 36.8371 115.355 36.5514C115.355 36.2647 115.235 36.0327 115.087 36.0327C114.94 36.0324 114.819 36.2647 114.819 36.5514Z" fill="#040000"/>
<path d="M115.199 36.1744C115.199 36.3182 115.259 36.4373 115.334 36.4373C115.409 36.4373 115.47 36.3182 115.47 36.1744C115.47 36.0297 115.409 35.9115 115.334 35.9115C115.258 35.9115 115.199 36.0297 115.199 36.1744Z" fill="#F0F0ED"/>
<path fill-rule="evenodd" clip-rule="evenodd" d="M108.584 29.6242C110.965 30.7053 112.772 29.1364 114.203 26.4415C115.074 24.802 115.457 21.6368 115.457 21.6368C115.457 21.6368 113.819 26.5582 111.375 28.6527C110.422 29.4689 108.584 29.6242 108.584 29.6242Z" fill="#444447"/>
<path d="M92.7656 190.71C92.7656 190.71 101.964 191.895 105.637 191.633C111.015 191.25 115.764 190.795 119.188 190.205C121.089 189.878 124.654 187.899 124.634 187.68C124.615 187.461 124.403 181.022 124.403 181.022C124.403 181.022 117.856 183.648 114.594 184.124C110.42 184.732 101.227 184.928 98.5404 184.745C96.2881 184.592 93.2178 183.902 93.497 183.985L92.7656 190.71Z" fill="#FF7F00"/>
<path d="M116.709 35.7524C116.709 35.7524 115.856 34.5884 115.165 35.1008C114.475 35.6123 114.163 36.5954 114.056 37.2528C114.056 37.2528 114.143 37.0588 114.508 37.2288C114.874 37.3985 116.023 37.8221 116.709 35.7524Z" fill="white"/>
<path d="M114.821 35.4111C114.821 35.4111 114.477 36.698 115.143 37.3571C115.238 37.35 115.702 37.3488 115.848 37.0211C115.995 36.6922 116.243 35.7395 115.691 35.0178C115.329 34.9951 115.109 35.0287 114.821 35.4111Z" fill="#512C0E"/>
<path d="M115.728 36.1763C115.728 36.5262 115.58 36.8078 115.397 36.8078C115.214 36.8078 115.066 36.5262 115.066 36.1763C115.066 35.8283 115.214 35.5449 115.397 35.5449C115.58 35.5449 115.728 35.8285 115.728 36.1763Z" fill="#331B0E"/>
<path d="M115.148 36.0212C115.148 36.1558 115.092 36.2649 115.022 36.2649C114.953 36.2649 114.896 36.1558 114.896 36.0212C114.896 35.8854 114.953 35.7765 115.022 35.7765C115.092 35.7763 115.148 35.8854 115.148 36.0212Z" fill="white"/>
<path opacity="0.5" d="M114.896 36.6472C114.896 36.6472 115.423 37.5214 115.898 36.4541C115.746 36.9536 115.428 37.6712 114.896 36.6472Z" fill="white"/>
<path opacity="0.7" d="M114.056 37.2529C114.234 36.5354 114.997 34.3152 116.527 36.1765C116.592 35.9658 116.65 35.7765 116.65 35.7765C116.65 35.7765 114.74 33.2107 114.056 37.2529Z" fill="#C2C6CC"/>
<path d="M114.056 37.2528C114.129 36.7515 114.261 36.2782 114.445 35.8925C114.631 35.5078 114.877 35.2318 115.144 35.1166C115.411 34.9971 115.69 35.0402 115.955 35.1509C116.22 35.2664 116.474 35.4593 116.716 35.6896L116.74 35.7122L116.731 35.7569C116.629 36.2213 116.452 36.5964 116.242 36.8706C116.031 37.1464 115.785 37.3067 115.536 37.3733C115.286 37.4389 115.033 37.4222 114.786 37.3518C114.66 37.3184 114.542 37.2387 114.42 37.1973C114.3 37.1553 114.169 37.1393 114.056 37.2528ZM114.056 37.2528C114.166 37.1313 114.3 37.1378 114.422 37.172C114.546 37.2053 114.666 37.2771 114.789 37.3008C115.036 37.3571 115.285 37.3662 115.53 37.2913C115.772 37.2136 116.01 37.0562 116.213 36.7873C116.415 36.5238 116.586 36.1491 116.678 35.7202L116.692 35.7875C116.451 35.5626 116.202 35.3656 115.943 35.2502C115.684 35.1367 115.414 35.0975 115.154 35.202C114.894 35.3036 114.652 35.5608 114.466 35.9311C114.279 36.2971 114.138 36.7571 114.056 37.2528Z" fill="#AF6E58"/>
<path d="M114.056 37.2528C114.056 37.2537 114.294 35.7084 115.061 35.2844C115.446 35.0722 115.963 35.1893 116.65 35.8273C116.71 35.8957 116.9 35.866 117.047 35.6806C116.848 35.6473 115.802 34.2944 114.957 34.9704C114.591 35.2638 114.258 35.8909 114.056 37.2528Z" fill="#331B0E"/>
<path d="M109.153 35.9746C109.153 35.9746 110.007 34.8106 110.698 35.3231C111.389 35.8346 111.7 36.8177 111.808 37.4751C111.808 37.4751 111.72 37.2811 111.355 37.4511C110.989 37.6208 109.84 38.0444 109.153 35.9746Z" fill="white"/>
<path d="M111.042 35.6333C111.042 35.6333 111.386 36.9201 110.72 37.5792C110.625 37.5721 110.161 37.571 110.015 37.2432C109.868 36.9144 109.619 35.9617 110.173 35.2399C110.534 35.2172 110.754 35.2508 111.042 35.6333Z" fill="#512C0E"/>
<path d="M110.134 36.3984C110.134 36.7484 110.282 37.03 110.465 37.03C110.648 37.03 110.796 36.7484 110.796 36.3984C110.796 36.0504 110.648 35.7671 110.465 35.7671C110.282 35.7671 110.134 36.0506 110.134 36.3984Z" fill="#331B0E"/>
<path d="M110.714 36.2433C110.714 36.3779 110.77 36.487 110.84 36.487C110.909 36.487 110.966 36.3779 110.966 36.2433C110.966 36.1074 110.909 35.9985 110.84 35.9985C110.77 35.9983 110.714 36.1074 110.714 36.2433Z" fill="white"/>
<path opacity="0.5" d="M110.967 36.8694C110.967 36.8694 110.44 37.7436 109.965 36.6763C110.117 37.1758 110.435 37.8933 110.967 36.8694Z" fill="white"/>
<path opacity="0.7" d="M111.809 37.4751C111.63 36.7575 110.867 34.5373 109.337 36.3986C109.272 36.188 109.214 35.9986 109.214 35.9986C109.214 35.9986 111.124 33.4328 111.809 37.4751Z" fill="#C2C6CC"/>
<path d="M111.807 37.4751C111.725 36.9793 111.585 36.5194 111.396 36.1535C111.211 35.7833 110.969 35.5261 110.709 35.4245C110.449 35.3201 110.179 35.3591 109.92 35.4727C109.66 35.5878 109.411 35.7851 109.171 36.01L109.185 35.9427C109.277 36.3718 109.448 36.7463 109.65 37.01C109.852 37.2789 110.091 37.4362 110.333 37.514C110.577 37.5889 110.827 37.5798 111.074 37.5233C111.196 37.4996 111.317 37.4276 111.441 37.3942C111.563 37.36 111.697 37.3535 111.807 37.4751ZM111.807 37.4751C111.695 37.3616 111.564 37.3775 111.443 37.4194C111.321 37.4604 111.202 37.5405 111.077 37.5738C110.83 37.6442 110.577 37.6609 110.327 37.5953C110.078 37.5287 109.832 37.3685 109.621 37.0927C109.411 36.8187 109.233 36.4433 109.132 35.9789L109.122 35.9343L109.146 35.9116C109.389 35.6814 109.643 35.4885 109.908 35.3729C110.173 35.2623 110.451 35.2191 110.719 35.3387C110.986 35.4538 111.232 35.7298 111.417 36.1145C111.602 36.5002 111.735 36.9738 111.807 37.4751Z" fill="#AF6E58"/>
<path d="M111.807 37.4752C111.807 37.4761 111.569 35.9308 110.802 35.5068C110.418 35.2946 109.899 35.4117 109.212 36.0497C109.152 36.1182 108.962 36.0884 108.816 35.903C109.015 35.8697 110.061 34.5168 110.905 35.1928C111.272 35.4861 111.605 36.1133 111.807 37.4752Z" fill="#331B0E"/>
<path d="M112.811 46.5136C111.976 46.5058 111.968 43.8358 111.985 43.7449C112.221 42.5351 112.593 41.8251 112.933 41.8251C113.34 41.8251 113.641 42.852 113.707 43.9422C113.72 44.0617 113.353 46.5136 112.811 46.5136Z" fill="#AC2436"/>
<path d="M113.723 44.3011C113.74 45.4535 113.321 46.7902 112.779 46.7902C111.944 46.7825 111.866 44.5326 111.936 44.02C111.953 43.9269 111.966 43.8357 111.984 43.7449C112.124 44.0827 112.255 44.4278 112.311 44.5607L113.272 44.9333L113.705 43.9422C113.718 44.0617 113.723 44.1813 113.723 44.3011Z" fill="#C82333"/>
<path d="M113.384 44.2382C113.384 44.4784 113.356 44.6697 113.309 44.873C113.301 44.9106 113.293 44.9497 113.281 44.9926C113.266 45.0571 113.249 45.1199 113.234 45.1784C113.182 45.3619 113.124 45.5399 113.029 45.6673C112.721 46.0795 112.402 45.2919 112.326 44.8928C112.298 44.7639 112.275 44.5681 112.271 44.3901C112.267 44.3064 112.267 44.2242 112.275 44.1553C112.291 43.9386 112.35 43.6146 112.457 43.3991C112.615 43.0613 112.824 42.795 112.903 42.8264C112.922 42.8342 112.946 42.8457 112.97 42.8655C113.053 42.9355 113.147 43.1057 113.23 43.3169C113.333 43.5773 113.384 43.9266 113.384 44.2382Z" fill="#44060F"/>
<path d="M113.229 43.3171C113.087 43.5129 112.93 43.634 112.748 43.5773C112.645 43.546 112.546 43.4875 112.456 43.3993C112.614 43.0615 112.823 42.7953 112.902 42.8266C112.921 42.8344 112.945 42.8459 112.969 42.8658C113.052 42.9358 113.147 43.106 113.229 43.3171Z" fill="#EAEDEF"/>
<path d="M113.309 44.873C113.301 44.9106 113.294 44.9498 113.282 44.9926C113.266 45.0571 113.25 45.12 113.234 45.1784C113.199 45.3113 113.159 45.4386 113.1 45.5459C113.084 45.5846 113.061 45.622 113.037 45.6535C113.033 45.6613 113.033 45.6613 113.029 45.6673C112.851 45.9015 112.67 45.7433 112.535 45.4893C112.516 45.4502 112.496 45.4126 112.476 45.368C112.405 45.2097 112.35 45.0258 112.327 44.8929C112.299 44.764 112.275 44.5682 112.271 44.3902C112.271 44.3831 112.275 44.3831 112.275 44.3769C112.626 43.5888 113.25 44.0409 113.309 44.873Z" fill="#750414"/>
</svg>
