<svg width="220" height="240" viewBox="0 0 220 240" fill="none" xmlns="http://www.w3.org/2000/svg">
<path d="M131.17 92.9343C131.56 90.7564 130.74 89.7628 130.016 88.8872C129.03 87.6933 128.179 86.6613 129.503 82.9468C131.157 78.3059 130.795 73.8659 128.557 71.3548C127.105 69.729 125.659 67.0291 124.439 63.7651C124.202 63.1321 123.973 62.4751 123.755 61.8001C123.3 59.4991 122.961 57.3091 122.734 55.6921C121.967 55.2481 121.154 54.8611 120.304 54.5281C122.096 58.8691 123.384 72.0392 122.459 70.6712C122.236 70.3413 122.012 70.017 121.79 69.7023C121.082 68.7004 120.367 67.7671 119.575 66.8971C119.521 65.1361 119.264 61.4491 119.004 61.0831C118.941 61.5181 118.531 64.0681 118.339 65.6611C117.705 65.0821 117.012 64.5331 116.237 64.0141C116.402 61.4191 116.177 57.9661 115.883 56.6701C115.869 57.0991 115.744 59.0971 115.496 63.5431C113.415 62.2861 110.764 61.2091 107.138 60.2881C106.743 60.1891 106.342 60.0991 105.937 60.0181C105.751 58.8871 105.318 56.2291 105.05 55.6201C105.036 55.7401 104.349 57.9451 104.266 59.7481C101.554 59.4001 98.7422 59.4751 96.2498 59.9701C96.4576 58.3081 96.8668 55.1911 97.0354 54.3181C96.7274 54.8131 95.0535 58.7131 94.6824 60.3511C93.0324 60.8281 91.5902 61.5151 90.5073 62.4061C90.2702 62.5981 90.0502 62.8051 89.8493 63.0181C89.3335 63.5701 90.0346 59.7121 91.1038 55.7011C90.3905 55.9501 89.7681 56.1931 89.2528 56.4241L88.696 54.8131C88.5738 55.6471 88.3865 56.4211 88.1509 57.1501C87.1526 60.2491 85.3031 62.4841 84.0261 64.6381C82.1131 67.8631 81.1231 71.4872 81.8999 75.7201C82.2074 77.3973 82.4328 78.8819 82.0647 80.0284C81.7523 81.0001 81.0028 81.729 79.7757 82.2508C78.5603 82.7672 77.7801 83.6044 77.3948 84.8044C76.8502 86.4988 77.2164 88.497 77.5395 90.2579C77.7678 91.5032 77.5997 93.273 77.3523 94.1493C76.4444 97.3804 75.6813 98.4659 75.8602 100.923C75.9394 98.3788 76.8482 97.2303 77.6544 94.545C77.957 93.5432 78.1873 91.8481 77.761 89.5468C77.4589 87.9148 77.2609 86.5708 77.7248 85.1281C78.0568 84.0961 78.7564 83.3644 79.8647 82.8933C81.2194 82.3139 82.0236 81.5068 82.3947 80.3521C82.536 79.9139 82.5873 79.4339 82.6078 78.9423C83.0581 81.4499 82.9173 83.3973 80.3238 84.7921C75.5561 87.3601 79.6022 93.6392 78.7735 95.841C77.3523 99.6241 76.969 100.332 76.9397 103.509C76.9069 107.145 78.2215 109.575 79.6295 110.598C79.6877 110.034 78.4435 106.434 80.0573 101.235C80.1262 104.295 81.324 111.708 81.7831 111.987C89.1013 116.448 111.314 124.593 119.912 119.673C121.555 118.731 121.672 112.581 122.215 111C122.609 109.851 123.32 120.654 123.915 119.79C131.96 108.111 130.65 103.677 129.801 103.335C128.619 102.858 127.844 102.867 129.794 93.633C130.741 89.1539 125.67 90.5219 128.148 83.5708C129.633 79.4044 129.365 75.5404 127.261 72.4321C126.524 71.3432 125.89 69.7832 125.329 68.0461C126.293 69.6783 127.289 71.0853 128.248 72.1592C130.324 74.4872 130.738 78.2339 129.181 82.5992C127.667 86.8444 128.849 88.2783 129.8 89.4303C130.536 90.3183 131.123 91.0259 130.809 92.7388C129.604 99.297 132.07 102.234 132.424 102.513C131.843 101.676 130.118 98.8232 131.17 92.9343ZM82.1302 74.5859C81.7005 71.1539 82.4499 68.2231 84.119 65.4031C85.0591 63.8191 86.429 62.6311 87.5495 61.0291C85.8154 66.6601 82.4793 70.089 82.1302 74.5859Z" fill="#D6B45F"/>
<path d="M124.439 63.765C124.001 52.605 117.736 42.801 108.207 40.7941C97.9669 38.637 90.5348 42.9001 88.151 57.1501C88.0757 57.5941 88.0068 58.0501 87.9413 58.5151C87.2593 63.4231 87.1507 68.0701 87.5135 72.3511C87.7799 75.4924 88.3026 78.4348 89.0398 81.1379C89.2046 81.753 89.3835 82.3564 89.5742 82.9441C90.0073 84.2942 90.4972 85.5779 91.0389 86.7868C91.3532 87.4951 91.6881 88.1788 92.0391 88.8357C92.1814 89.1059 92.3295 89.3699 92.4791 89.6284C92.8483 90.2764 93.235 90.8942 93.6359 91.4791C96.3756 95.4961 99.8164 98.1237 103.57 98.9582C107.236 99.7708 110.818 98.6099 113.953 95.8444C114.156 95.6668 114.357 95.481 114.556 95.2828C115.278 94.5902 115.974 93.8044 116.64 92.937C116.718 92.8348 116.796 92.7333 116.873 92.625C117.923 91.2124 118.894 89.5859 119.766 87.7708C119.795 87.7139 119.823 87.6542 119.85 87.5973C120.948 85.2782 121.887 82.6588 122.623 79.7761C123.691 75.609 124.341 70.8899 124.456 65.7421C124.472 65.0791 124.465 64.4191 124.439 63.765ZM122.459 70.6711C122.236 70.3413 122.012 70.017 121.79 69.7022C121.083 68.7004 120.367 67.7671 119.575 66.897C119.522 65.1361 119.264 61.449 119.004 61.0831C118.941 61.5181 118.532 64.0681 118.339 65.661C117.705 65.0821 117.013 64.533 116.237 64.0141C116.402 61.4191 116.177 57.9661 115.883 56.6701C115.87 57.0991 115.744 59.097 115.497 63.5431C113.415 62.2861 110.765 61.209 107.138 60.2881C106.743 60.189 106.343 60.0991 105.937 60.0181C105.751 58.8871 105.318 56.229 105.05 55.6201C105.036 55.7401 104.349 57.945 104.266 59.7481C101.554 59.4001 98.7423 59.4751 96.2499 59.9701C96.4577 58.3081 96.8669 55.1911 97.0356 54.3181C96.7276 54.813 95.0536 58.713 94.6826 60.3511C93.0326 60.8281 91.5903 61.5151 90.5074 62.4061C90.2703 62.5981 90.0503 62.805 89.8494 63.0181C89.3336 63.5701 90.0347 59.7121 91.1039 55.701C92.0665 52.0951 93.3264 48.3631 94.2665 47.6041C97.2693 45.1801 102.536 45.273 107.549 46.5481C112.162 47.7181 117.203 50.2921 119.759 53.5201C119.944 53.7541 120.127 54.0991 120.304 54.5281C122.097 58.869 123.384 72.0391 122.459 70.6711Z" fill="#D6B45F"/>
<path d="M118.805 54.003C109.73 51.1919 97.3743 53.547 91.2812 55.6379C91.3536 55.2599 91.424 54.9659 91.4944 54.7679C94.6688 45.7379 100.133 46.6019 107.237 48.1769C112.032 49.2419 116.102 50.3039 118.805 54.003Z" fill="#D6B45F"/>
<path d="M122.459 70.671C122.236 70.3412 122.012 70.0168 121.79 69.7021C122.019 66.7379 122.11 64.5329 122.014 63.6929C121.495 59.2139 120.383 56.1599 118.805 54.0029C119.316 54.1619 119.816 54.3359 120.304 54.5279C122.096 58.8689 123.384 72.039 122.459 70.671Z" fill="#D6B45F"/>
<path d="M121.791 69.7022C121.083 68.7004 120.368 67.7671 119.575 66.897C119.522 65.136 119.264 61.449 119.005 61.0831C118.941 61.5181 118.532 64.068 118.34 65.661C117.705 65.0821 117.013 64.533 116.238 64.0141C116.403 61.4191 116.177 57.9661 115.884 56.6701C115.87 57.0991 115.744 59.097 115.497 63.5431C113.415 62.2861 110.765 61.209 107.138 60.2881C106.743 60.189 106.343 60.0991 105.937 60.0181C105.751 58.8871 105.318 56.229 105.05 55.6201C105.037 55.7401 104.349 57.945 104.267 59.7481C101.554 59.4001 98.7422 59.4751 96.2503 59.9701C96.4581 58.3081 96.8673 55.1911 97.0355 54.3181C96.7279 54.813 95.054 58.713 94.6829 60.3511C93.0329 60.8281 91.5907 61.5151 90.5078 62.4061C90.7537 59.397 91.0236 56.9821 91.2812 55.6381C97.3743 53.5471 109.73 51.1921 118.805 54.0031C120.383 56.1601 121.495 59.2141 122.014 63.693C122.111 64.533 122.02 66.7381 121.791 69.7022Z" fill="#D6B45F"/>
<path d="M120.304 54.5281C119.816 54.3361 119.316 54.162 118.805 54.0031C116.102 50.3041 112.032 49.242 107.237 48.177C100.133 46.602 94.6695 45.738 91.4946 54.7681C91.4242 54.966 91.3538 55.2601 91.2815 55.638C91.2213 55.6591 91.1632 55.6801 91.1045 55.701C92.0671 52.0951 93.327 48.3631 94.2671 47.6041C97.2699 45.1801 102.536 45.273 107.55 46.5481C112.163 47.718 117.204 50.2921 119.76 53.5201C119.945 53.754 120.127 54.0991 120.304 54.5281Z" fill="#D6B45F"/>
<path d="M104.857 92.4404C104.81 92.4452 104.765 92.4555 104.72 92.4672C103.678 92.7703 102.87 94.5929 102.78 97.6347C102.769 98.064 102.881 98.461 103.031 98.5206C103.183 98.5878 103.315 98.2841 103.328 97.8562C103.395 95.5289 103.997 93.7419 104.79 93.5115C105.612 93.3209 106.332 94.7671 106.728 97.4907C106.788 97.9008 106.946 98.1058 107.088 97.9645C107.228 97.8205 107.292 97.3707 107.233 96.9648C106.676 93.1159 105.674 92.3595 104.857 92.4404Z" fill="#934341"/>
<path d="M92.9771 83.5275C93.9451 83.5494 94.1559 83.7469 94.3279 84.0788C94.5 84.4107 94.1705 85.2431 95.1351 85.0415C96.0992 84.8399 96.835 85.9727 97.121 86.2724C97.4084 86.57 98.6292 85.2136 99.2369 84.7151C99.9189 84.157 100.583 86.005 100.532 85.7019C99.9375 86.3581 99.4011 86.1195 98.5999 86.4514C97.5414 86.8909 96.6878 86.7778 95.7531 86.5309C95.0662 86.3499 94.2541 85.7026 93.8439 85.0388C93.3355 84.2159 92.9478 83.5261 92.9771 83.5275Z" fill="#87D2DB"/>
<path d="M116.016 83.088C115.048 83.1106 114.837 83.3081 114.665 83.64C114.493 83.9712 114.823 84.8044 113.858 84.6028C112.894 84.4012 112.158 85.534 111.872 85.8336C111.585 86.1312 110.364 84.7749 109.756 84.2764C109.074 83.7182 108.449 85.7877 108.5 85.4853C109.094 86.1408 109.592 85.9378 110.387 86.182C111.458 86.5104 112.306 86.3911 113.241 86.1436C113.928 85.9625 114.757 85.2802 115.167 84.6158C115.676 83.7943 116.046 83.088 116.016 83.088Z" fill="#87D2DB"/>
<path d="M111.94 86.937C111.94 86.937 113.075 87.2854 113.336 88.5032C113.598 89.7224 112.535 90.4938 112.174 89.4934C111.813 88.4929 112.426 88.1974 111.94 86.937Z" fill="#87D2DB"/>
<path d="M112.597 89.2634C112.182 88.756 112.401 88.2259 112.182 87.6451C112.286 88.3514 111.95 88.6895 112.217 89.4307C112.473 90.1411 113.114 89.8771 113.28 89.2051C113.083 89.4568 112.819 89.5363 112.597 89.2634Z" fill="#38BFC4"/>
<path d="M111.39 86.5941C111.39 86.5941 111.776 86.7127 111.865 87.1283C111.955 87.5438 111.592 87.8071 111.469 87.4657C111.346 87.1249 111.555 87.0241 111.39 86.5941Z" fill="#87D2DB"/>
<path d="M111.613 87.3874C111.471 87.214 111.546 87.0336 111.471 86.8354C111.507 87.0768 111.392 87.192 111.484 87.4444C111.571 87.6864 111.789 87.5966 111.846 87.3676C111.779 87.4533 111.688 87.48 111.613 87.3874Z" fill="#38BFC4"/>
<path d="M97.1118 91.0107C97.1118 91.0107 96.7251 91.1294 96.6361 91.5442C96.5467 91.9605 96.9089 92.2231 97.0321 91.8823C97.1553 91.5408 96.9466 91.44 97.1118 91.0107Z" fill="#87D2DB"/>
<path d="M96.8895 91.8041C97.0307 91.6306 96.9559 91.4496 97.0307 91.2521C96.9955 91.4928 97.1099 91.608 97.0185 91.861C96.9315 92.103 96.713 92.0132 96.6562 91.7842C96.7237 91.8692 96.8132 91.8966 96.8895 91.8041Z" fill="#38BFC4"/>
<path d="M114.258 86.5063C114.258 86.5063 115.062 86.4343 115.511 87.6823C115.961 88.9316 115.462 90.2194 115 89.2539C114.538 88.2877 114.86 87.7111 114.258 86.5063Z" fill="#87D2DB"/>
<path d="M115.216 88.8275C114.833 88.4305 114.894 87.6631 114.619 87.1084C114.85 87.8497 114.67 88.4524 115.013 89.1676C115.341 89.8513 115.654 89.1978 115.57 88.4504C115.503 88.809 115.42 89.0401 115.216 88.8275Z" fill="#38BFC4"/>
<path d="M95.4115 86.1422C95.4115 86.1422 94.6811 85.9289 94.2015 87.0665C93.7224 88.2042 94.1067 89.5495 94.5819 88.6896C95.0575 87.8291 94.795 87.2092 95.4115 86.1422Z" fill="#87D2DB"/>
<path d="M94.4075 88.2349C94.7791 87.9161 94.7654 87.157 95.047 86.6639C94.7957 87.3476 94.9277 87.9654 94.5747 88.6031C94.2374 89.2127 93.9866 88.5188 94.1049 87.805C94.147 88.1663 94.2091 88.4063 94.4075 88.2349Z" fill="#38BFC4"/>
<path d="M97.6933 86.7511C97.6933 86.7511 96.5786 87.6034 96.4838 88.968C96.3894 90.3333 97.5906 90.6638 97.8189 89.4789C98.0468 88.2926 97.374 88.2576 97.6933 86.7511Z" fill="#87D2DB"/>
<path d="M97.3524 89.4267C97.7049 88.7246 97.4043 88.2747 97.5475 87.5842C97.5411 88.3536 97.9352 88.5545 97.766 89.4336C97.6042 90.2729 96.9085 90.2825 96.6416 89.6633C96.8802 89.8361 97.1632 89.8025 97.3524 89.4267Z" fill="#38BFC4"/>
<path opacity="0.16" d="M128.967 204.795C128.967 207.322 119.707 209.371 108.286 209.371C96.8641 209.371 87.6045 207.322 87.6045 204.795C87.6045 202.267 96.8641 200.219 108.286 200.219C119.707 200.219 128.967 202.267 128.967 204.795Z" fill="black"/>
<path d="M114.703 200.176C114.959 201.082 118.031 199.07 117.922 198.069C116.499 185.094 113.247 154.474 112.857 151.238L105.624 155.089C105.624 155.089 113.457 195.766 114.703 200.176Z" fill="#FFC19F"/>
<path d="M102.241 200.649C102.2 201.656 98.9205 201.826 98.8047 200.827C97.3052 187.878 93.6708 157.389 93.3301 154.137L100.86 152.919C100.859 152.919 102.437 195.744 102.241 200.649Z" fill="#FFC19F"/>
<path d="M113.471 199.88C113.512 200.125 118.387 198.453 118.384 198.142C118.361 195.553 118.053 189.714 118.042 188.568L112.108 190.486C112.505 193.083 113.206 198.307 113.471 199.88Z" fill="#FFC76E"/>
<path d="M120.146 196.426C120.058 195.866 119.877 195.158 119.736 194.509C119.633 194.029 116.937 194.106 116.93 195.261C116.928 195.557 116.935 195.818 116.949 196.055C116.488 196.063 115.987 196.053 115.459 196.02C114.311 195.947 113.282 195.784 112.559 195.583C112.513 197.411 112.604 200.576 112.562 202.607C112.562 202.607 124.586 206.536 126.48 203.492C127.015 202.634 123.996 198.823 120.146 196.426Z" fill="#E2511E"/>
<path d="M112.571 201.333C112.571 201.784 112.568 202.22 112.561 202.607C112.561 202.607 124.584 206.536 126.48 203.492C126.555 203.371 126.558 203.191 126.5 202.964C123.183 204.221 115.56 202.211 112.571 201.333Z" fill="#892910"/>
<path d="M120.987 197.017C121.079 197.048 121.168 196.952 121.188 196.793C121.208 196.635 121.151 196.478 121.06 196.443C120.362 196.178 119.548 196.742 119.081 197.823C119.025 197.953 119.04 198.136 119.114 198.235C119.142 198.272 119.176 198.291 119.209 198.293C119.262 198.297 119.315 198.256 119.35 198.176C119.74 197.272 120.413 196.792 120.987 197.017ZM121.912 197.759C122.003 197.789 122.088 197.663 122.099 197.502C122.109 197.34 122.043 197.194 121.95 197.176C121.214 197.025 120.487 197.507 119.955 198.49C119.891 198.608 119.894 198.793 119.962 198.905C119.992 198.956 120.032 198.983 120.071 198.985C120.118 198.989 120.165 198.957 120.2 198.894C120.827 197.734 121.541 197.685 121.912 197.759ZM122.927 197.994C122.264 197.793 121.41 198.326 120.848 199.284C120.782 199.397 120.781 199.583 120.846 199.699C120.877 199.755 120.918 199.785 120.959 199.788C121.004 199.79 121.049 199.763 121.083 199.704C121.573 198.87 122.31 198.391 122.87 198.573C122.964 198.603 123.048 198.493 123.064 198.333C123.08 198.173 123.019 198.021 122.927 197.994Z" fill="#D3DAE5"/>
<path d="M93.8553 141.551C93.8553 141.551 90.9997 159.509 89.6689 165.088C94.9098 171.863 111.909 173.181 118.899 161.364C118.355 158.491 113.701 146.99 112.872 142.425L93.8553 141.551Z" fill="#2A535E"/>
<path opacity="0.23" d="M114.912 149.408C107.336 156.503 95.0058 157.881 91.8818 153.442C92.7105 147.849 94.0158 141.786 94.0158 141.786L111.916 140.601C112.454 142.231 114.039 146.618 114.912 149.408Z" fill="black"/>
<path d="M120.68 125.853C117.105 121.161 112.074 113.002 111.302 112.454L107.85 122.208C108.756 124.113 114.936 128.194 119.005 131.901C119.608 132.345 122.649 130.759 120.68 125.853Z" fill="#E4A78E"/>
<path d="M107.815 110.035C105.39 109.378 102.06 108.994 99.3852 109.066C99.3461 111.315 100.105 116.335 103.097 116.789C106.523 117.311 107.613 113.253 107.815 110.035Z" fill="#E0956C"/>
<path d="M107.298 104.24L106.87 112.212C106.778 113.925 105.15 115.061 103.234 114.747C101.318 114.434 99.8394 112.79 99.9318 111.076L100.36 103.104L107.298 104.24Z" fill="#E0956C"/>
<path d="M102.61 199.217C102.599 199.473 97.6319 199.6 97.5977 199.296C97.3127 196.754 96.9201 190.93 96.7959 189.805L102.851 190.703C102.771 193.387 102.683 197.583 102.61 199.217Z" fill="#FFC76E"/>
<path d="M95.3108 196.544C95.4022 195.987 95.5885 195.282 95.7332 194.637C95.8412 194.159 98.5355 194.292 98.535 195.448C98.535 195.744 98.5262 196.005 98.5106 196.241C98.9716 196.26 99.4717 196.26 100 196.238C101.149 196.188 102.179 196.048 102.903 195.862C102.936 197.691 102.823 200.853 102.851 202.885C102.851 202.885 90.8013 206.56 88.9278 203.477C88.3998 202.607 91.4446 198.86 95.3108 196.544Z" fill="#E2511E"/>
<path d="M102.85 201.611C102.846 202.063 102.846 202.498 102.851 202.885C102.851 202.885 90.8009 206.56 88.9269 203.477C88.8526 203.354 88.8507 203.174 88.9103 202.949C92.2191 204.275 99.8536 202.426 102.85 201.611Z" fill="#892910"/>
<path d="M96.0937 198.311C96.1274 198.392 96.1807 198.433 96.2335 198.431C96.2667 198.429 96.3 198.411 96.3288 198.374C96.4041 198.278 96.4197 198.093 96.365 197.963C95.9054 196.873 95.0958 196.292 94.3957 196.542C94.3048 196.574 94.2461 196.731 94.2652 196.889C94.2838 197.048 94.3723 197.147 94.4642 197.117C95.0396 196.904 95.7094 197.4 96.0937 198.311ZM95.2386 199.01C95.2728 199.075 95.3202 199.107 95.3662 199.105C95.4058 199.103 95.4454 199.077 95.4767 199.027C95.5451 198.917 95.549 198.731 95.4865 198.612C94.9609 197.617 94.2373 197.12 93.5001 197.256C93.4077 197.273 93.3402 197.417 93.35 197.578C93.3593 197.739 93.4429 197.868 93.5343 197.84C93.9054 197.774 94.6187 197.838 95.2386 199.01ZM92.3781 198.39C92.3928 198.549 92.4764 198.662 92.5707 198.634C93.132 198.463 93.8653 198.957 94.3493 199.802C94.383 199.862 94.428 199.89 94.4725 199.889C94.5141 199.886 94.5556 199.858 94.5874 199.802C94.6529 199.688 94.6529 199.502 94.5874 199.387C94.032 198.418 93.1823 197.866 92.5179 198.054C92.426 198.079 92.3634 198.229 92.3781 198.39Z" fill="#D3DAE5"/>
<path d="M125.342 93.2627C123.831 99.742 119.771 103.09 117.011 101.782C114.25 100.474 114.13 94.8412 115.117 88.4901C116.105 82.1397 119.146 78.035 121.904 79.3584C125.674 81.1687 126.762 87.1728 125.342 93.2627Z" fill="#FFC19F"/>
<path d="M83.6353 84.0041C84.1686 90.9366 87.6187 95.9519 90.4787 95.8916C93.3392 95.8313 94.2637 90.4313 94.2187 83.8511C94.1733 77.2703 91.8173 71.9677 88.9568 72.0445C85.0467 72.1494 83.1337 77.4877 83.6353 84.0041Z" fill="#F9B998"/>
<path d="M87.1252 86.223C87.1453 89.1085 88.3436 91.4228 89.8009 91.392C91.2583 91.3611 92.4243 88.9968 92.4042 86.112C92.3842 83.2272 91.1864 80.9129 89.7286 80.943C88.2712 80.9739 87.1057 83.3382 87.1252 86.223Z" fill="#E0956C"/>
<path d="M121.79 69.7021C121.584 72.3716 121.266 75.6568 120.874 79.1101C120.556 81.9003 120.19 84.8008 119.793 87.5787C119.783 87.6417 119.774 87.7048 119.766 87.7706C119.243 91.4097 118.669 94.8239 118.088 97.4817C117.69 99.3119 117.287 100.782 116.896 101.721C116.877 101.766 116.859 101.808 116.84 101.85C114.687 106.752 105.286 108.864 103.196 108.399C101.243 107.967 92.2899 101.295 90.3544 95.9732C90.3441 95.9457 90.3358 95.919 90.327 95.8888C90.0346 95.0282 89.8391 93.447 89.7188 91.3892C89.5829 89.0667 89.5413 86.1332 89.5741 82.9439C89.5809 82.2897 89.5897 81.6266 89.6034 80.9519C89.6548 78.1048 89.7565 75.1172 89.8924 72.2159C90.0571 68.679 90.2722 65.2739 90.5074 62.4059C91.5903 61.5149 93.0325 60.8279 94.6825 60.3509C95.0536 58.7129 96.7275 54.8129 97.0355 54.3179C96.8669 55.1909 96.4577 58.3079 96.2499 59.9699C98.7422 59.4749 101.554 59.3999 104.266 59.7479C104.349 57.9449 105.036 55.7399 105.05 55.6199C105.318 56.2289 105.751 58.8869 105.937 60.0179C106.342 60.0989 106.743 60.1889 107.138 60.2879C110.764 61.2089 113.415 62.2859 115.496 63.5429C115.744 59.0969 115.869 57.0989 115.883 56.6699C116.177 57.9659 116.402 61.4189 116.237 64.0139C117.012 64.5329 117.705 65.0819 118.339 65.6609C118.531 64.0679 118.941 61.5179 119.004 61.0829C119.264 61.4489 119.521 65.1359 119.575 66.8969C120.367 67.7669 121.083 68.6996 121.79 69.7021Z" fill="#FFC19F"/>
<path d="M103.32 87.2832C103.404 87.3024 103.485 87.2133 103.51 87.0672C103.688 86.0325 104.216 85.4558 104.857 85.5984C105.501 85.741 105.94 86.5467 105.949 87.6021C105.951 87.7714 106.032 87.9072 106.127 87.9038C106.225 87.901 106.302 87.7611 106.3 87.5925C106.288 86.2402 105.713 85.1705 104.901 84.9902C104.094 84.8112 103.4 85.5751 103.173 86.891C103.146 87.0542 103.198 87.2242 103.291 87.2729L103.32 87.2832Z" fill="#C67F75"/>
<path d="M93.8357 66.3384C93.954 66.354 94.0752 66.2964 94.1759 66.1614C95.4641 64.4406 97.7781 64.2216 99.5615 65.6586C99.8084 65.8602 100.105 65.6706 100.222 65.2335C100.337 64.7988 100.228 64.2831 99.9781 64.0812C97.8499 62.3694 95.1547 62.6637 93.5707 64.7841C93.3526 65.076 93.3116 65.6205 93.4788 66.0009C93.5682 66.2055 93.6997 66.3207 93.8357 66.3384Z" fill="#775D2A"/>
<path d="M117.741 71.8601C117.876 71.8971 118.019 71.8382 118.133 71.6743C118.346 71.3712 118.377 70.8254 118.204 70.4537C116.94 67.755 114.356 66.3885 112.06 67.2006C111.79 67.2969 111.616 67.7553 111.671 68.2248C111.726 68.6962 111.989 69 112.258 68.9033C114.182 68.2179 116.408 69.3559 117.433 71.5515C117.513 71.7237 117.624 71.8279 117.741 71.8601Z" fill="#775D2A"/>
<path d="M91.2804 55.6379C91.0227 56.9819 90.7528 59.397 90.5069 62.4059C90.2698 62.5979 90.0498 62.805 89.8489 63.0179C89.3331 63.5699 90.0342 59.712 91.1034 55.701C91.162 55.68 91.2202 55.659 91.2804 55.6379Z" fill="#775D2A"/>
<path d="M108.62 86.8936C108.62 86.8936 113.639 91.1759 116.051 86.8497C118.991 81.5773 115.64 75.962 113.137 76.2507C110.821 76.5181 108.497 79.3933 108.62 86.8936Z" fill="#F9FEFF"/>
<path d="M117.079 79.4236C116.283 77.0325 115.028 76.0225 113.584 75.9066C112.109 75.7879 110.485 77.2122 109.912 78.9628C110.87 77.0709 112.283 76.6506 113.148 76.5505C114.527 76.3893 116.192 77.8855 116.804 80.1964C117.347 82.2515 117.052 85.0513 115.972 86.9857C117.155 85.7857 117.908 81.9162 117.079 79.4236Z" fill="#773220"/>
<path d="M109.602 81.0412C108.941 83.0373 109.332 85.5909 110.475 86.7449C111.618 87.899 113.081 87.2174 113.743 85.2213C114.404 83.2252 114.014 80.6716 112.87 79.5168C111.726 78.3627 110.264 79.045 109.602 81.0412Z" fill="#00576C"/>
<path d="M109.848 80.433C109.664 80.9871 109.773 81.6954 110.09 82.0157C110.408 82.3359 110.813 82.1466 110.997 81.5933C111.18 81.0392 111.072 80.3309 110.755 80.01C110.437 79.6904 110.032 79.879 109.848 80.433Z" fill="#FEFFFE"/>
<path d="M100.664 84.8976C100.664 84.8976 95.1513 86.4843 93.5522 81.131C91.603 74.6078 95.7365 70.9083 98.0866 72.4388C100.261 73.8555 102.015 77.7744 100.664 84.8976Z" fill="#F9FEFF"/>
<path d="M93.7876 73.5025C94.9433 71.6106 96.3117 71.2725 97.7133 71.8849C99.1468 72.5109 100.468 74.6888 100.728 76.6526C100.123 74.3603 98.8383 73.2494 98.0248 72.7201C96.7312 71.8746 94.89 72.4732 93.924 74.3809C93.0655 76.0773 92.8885 78.9066 93.6037 81.3004C92.6675 79.558 92.5834 75.4746 93.7876 73.5025Z" fill="#773220"/>
<path d="M93.9194 76.6032C93.258 78.5986 93.6491 81.1522 94.7921 82.307C95.9356 83.4617 97.3989 82.7794 98.0603 80.784C98.7218 78.7879 98.3307 76.2343 97.1877 75.0795C96.0442 73.9248 94.5809 74.6071 93.9194 76.6032Z" fill="#00576C"/>
<path d="M94.167 75.995C93.9842 76.549 94.0922 77.2574 94.4095 77.5776C94.7268 77.8978 95.1326 77.7086 95.3164 77.1545C95.4993 76.6011 95.3912 75.8928 95.0739 75.5726C94.7566 75.2523 94.3509 75.4416 94.167 75.995Z" fill="#FEFFFE"/>
<path d="M84.5276 56.6508C84.5276 56.6508 82.8072 60.7584 84.3966 61.4637C85.9865 62.169 87.5734 60.6924 87.9415 58.1655C88.3092 55.6383 87.3187 53.0181 85.7293 52.3128C84.1395 51.6078 84.5276 56.6508 84.5276 56.6508Z" fill="#F9951E"/>
<path d="M93.0612 60.4374C93.0612 60.4374 93.4484 65.4807 91.859 64.7754C90.2696 64.0701 89.2787 61.4496 89.6473 58.923C90.0154 56.3958 91.6023 54.9189 93.1917 55.6242C94.7811 56.3298 93.0612 60.4374 93.0612 60.4374Z" fill="#F9951E"/>
<path d="M89.8376 59.0755C89.6631 60.2761 89.0305 61.0321 88.4252 60.7633C87.82 60.4947 87.4704 59.3037 87.6459 58.1032C87.8205 56.9022 88.4531 56.1466 89.0583 56.4154C89.6636 56.6838 90.0126 57.8748 89.8376 59.0755Z" fill="#F9951E"/>
<path d="M115.601 145.894C103.846 156.267 92.3649 149.728 91.0742 147.685C92.2852 128.353 93.393 114.776 96.8563 109.049C102.025 107.784 110.494 110.126 113.534 112.584C110.556 129.496 113.837 139.906 115.601 145.894Z" fill="#28AFC6"/>
<path d="M93.8764 130.075C91.7845 130.149 88.6355 123.036 87.6201 122.208C88.5431 118.984 91.6696 113.257 92.8077 111.555C93.9894 109.788 96.9545 109.139 97.9899 109.112C97.4409 115.391 93.8764 130.075 93.8764 130.075Z" fill="#28AFC6"/>
<path d="M119.646 122.986C116.757 127.145 113.988 133.906 113.511 131.2C110.831 124.598 109.591 114.683 113.799 112.745C116.043 117.06 119.646 122.986 119.646 122.986Z" fill="#28AFC6"/>
<path d="M92.7863 124.607C91.0546 124.122 86.9729 123.374 84.8018 122.683C85.0159 119.338 85.5566 112.559 86.6199 108.296C88.2034 108.859 94.1874 109.134 96.1596 109.512C95.0098 117.205 92.7863 124.607 92.7863 124.607Z" fill="#28AFC6"/>
<path d="M109.723 119.283C109.955 119.634 109.917 117.776 111.351 117.533C110.885 117.936 110.432 118.419 110.308 118.671C110.043 119.205 110.158 120.535 110.446 120.824C110.839 121.22 110.44 119.578 112.277 119.64C112.8 121.897 113.208 125.832 115.057 123.711C115.979 122.653 115.284 119.476 114.373 116.827C113.589 114.55 112.429 112.091 111.986 111.669C111.598 111.3 109.616 112.188 109.164 112.917C108.838 113.443 108.72 114.424 108.899 114.915C109.064 115.37 109.574 113.536 110.876 113.548C110.229 113.984 109.253 115.008 109.048 115.423C108.757 116.01 108.879 117.307 109.13 117.687C109.37 118.049 109.376 115.936 111.043 115.664C110.459 116.084 109.747 116.803 109.585 117.131C109.321 117.664 109.472 118.904 109.723 119.283Z" fill="#FFC19F"/>
<path d="M114.023 123.945C116.91 131.261 119.595 132.704 119.595 132.704C122.646 133.898 123.116 126.44 120.99 125.327C119.12 124.753 117.502 122.891 115.305 120.11C114.925 119.63 113.753 123.261 114.023 123.945Z" fill="#FFC19F"/>
<path d="M86.6242 91.9069C86.4531 91.5928 85.7232 90.9318 85.1282 90.5588C86.8007 90.6959 86.8628 92.8072 87.093 92.426C87.3341 92.0262 87.4216 90.7199 87.115 90.157C86.8994 89.7599 85.8972 88.8157 85.2402 88.4324C86.5396 88.3151 87.0974 90.1069 87.251 89.6379C87.4162 89.1339 87.273 88.1636 86.9327 87.6637C86.4614 86.9718 84.4584 86.2456 84.081 86.6447C83.6493 87.1028 82.5557 89.6523 81.8336 91.9906C80.9937 94.7101 80.3831 97.9391 81.3325 98.9218C83.2357 100.892 83.7319 97.0751 84.0013 94.6312C85.8347 94.4207 85.4802 96.0925 85.8625 95.666C86.1427 95.3526 86.2214 94.0155 85.9427 93.5039C85.8117 93.2626 85.3472 92.8162 84.8701 92.4527C86.3094 92.5782 86.3211 94.4372 86.5435 94.069C86.7846 93.6692 86.9024 92.4191 86.6242 91.9069Z" fill="#FFC19F"/>
<path d="M80.9545 95.4919C77.5108 99.2318 75.9414 106.898 75.9414 106.898C75.0736 112.522 79.2253 114.44 80.5526 109.582C81.2723 106.037 81.482 102.375 83.3202 98.3541C83.6385 97.6588 81.3989 95.0099 80.9545 95.4919Z" fill="#FFC19F"/>
<path d="M77.9056 105.592C77.4167 108.01 77.0916 108.99 76.4727 111.315C83.8383 118.027 81.0878 119.999 87.9254 121.062C92.187 120.01 95.353 115.896 95.708 110.91C85.7576 111.631 85.6819 110.835 77.9056 105.592Z" fill="#FFC19F"/>
<path d="M78.2034 103.104C78.2034 103.104 77.1151 107.423 78.2034 109.112C79.2917 110.8 79.8646 109.112 79.8646 109.112C79.8646 109.112 78.0567 108.208 78.7891 103.104C79.521 97.9995 78.7891 101.3 78.7891 101.3L78.2034 103.104Z" fill="#FFC19F"/>
<path d="M104.308 96.4745C104.203 97.56 103.75 97.7129 103.241 97.5627C102.733 97.4126 102.36 97.0169 102.465 95.9314C102.57 94.8459 103.067 94.0875 103.576 94.2377C104.085 94.3872 104.413 95.389 104.308 96.4745Z" fill="#EF7D70"/>
<path d="M104.57 98.0401L104.537 98.0394C103.374 98.0346 102.375 97.4421 101.865 96.452C101.796 96.3183 101.803 96.1125 101.879 95.9932C101.954 95.8725 102.071 95.8842 102.142 96.0165C102.576 96.86 103.494 97.3859 104.537 97.3893L104.568 97.3907C105.606 97.3845 106.521 96.8607 106.958 96.0172C107.029 95.8862 107.146 95.8767 107.221 95.9953C107.297 96.1153 107.302 96.321 107.233 96.454C106.72 97.4415 105.726 98.0332 104.57 98.0401Z" fill="#934341"/>
<path d="M86.453 109.8C86.453 109.8 84.3904 114.3 85.0778 120.9L91.953 121.2L95.3904 117.6L96.9372 111.3L94.703 109.8" fill="#28AFC6"/>
</svg>
