<svg width="220" height="240" viewBox="0 0 220 240" fill="none" xmlns="http://www.w3.org/2000/svg">
<path fill-rule="evenodd" clip-rule="evenodd" d="M117.903 180.563C115.739 183.502 113.658 186.382 112.086 188.567C110.562 190.674 109.519 192.147 109.32 192.427C109.31 192.435 109.306 192.445 109.306 192.445C109.291 192.461 109.286 192.47 109.286 192.47L104.299 192.174L105.929 185.779C105.929 185.779 105.934 185.772 105.939 185.763H105.943C106.094 185.534 107.321 183.697 108.922 181.274C110.523 178.853 112.503 175.821 114.147 173.22C114.458 173.872 114.774 174.526 115.108 175.194C115.191 175.362 115.278 175.541 115.366 175.72C116.152 177.286 116.996 178.904 117.903 180.563Z" fill="#FFB685"/>
<path fill-rule="evenodd" clip-rule="evenodd" d="M121.861 160.043V175.236L121.497 175.72C120.323 177.285 119.1 178.937 117.902 180.563C116.995 178.904 116.15 177.285 115.364 175.72C115.277 175.541 115.19 175.364 115.107 175.194C114.773 174.526 114.457 173.872 114.146 173.221C114.365 172.882 114.573 172.544 114.777 172.222C114.884 172.053 114.996 171.874 115.107 171.697V160.043H121.861Z" fill="#FAA66E"/>
<path fill-rule="evenodd" clip-rule="evenodd" d="M112.474 195.209C112.474 195.209 110.553 166.667 110.193 154.037C109.832 141.409 104.111 142.031 103.063 147.278C102.015 152.525 104.033 165.896 104.934 174.555C105.836 183.219 106.976 196.742 106.976 196.742L109.417 203.092L112.474 195.209Z" fill="#FFB685"/>
<path fill-rule="evenodd" clip-rule="evenodd" d="M111.174 174.367C110.745 166.952 110.34 159.176 110.193 154.038C109.832 141.409 104.111 142.029 103.063 147.279C102.015 152.526 104.033 165.896 104.934 174.557C104.988 175.077 105.044 175.613 105.099 176.163C106.987 175.721 109.014 175.136 111.174 174.367Z" fill="#FAA66E"/>
<path fill-rule="evenodd" clip-rule="evenodd" d="M143.567 112.227C142.053 113.785 137.633 115.335 137.633 115.335C137.633 115.335 132.248 125.81 127.663 130.823C126.537 132.06 125.421 133.024 124.383 133.779C124.38 133.781 124.377 133.783 124.374 133.786C123.923 134.109 123.405 133.733 123.211 132.95L121.069 124.328L119.885 119.551L126.508 115.487L127.347 120.84C130.03 118.458 132.393 114.844 134.979 109.136C134.979 109.136 135.406 104.918 136.454 103.308C137.104 102.344 137.41 102.579 137.502 103.064C137.599 103.563 137.095 106.104 137.133 106.501L139.38 105.461C140.151 105.029 141.65 102.242 142.315 103.064C142.979 103.884 141.33 106.443 140.602 107.34C141.345 107.011 143.639 103.971 143.897 105.181C144.154 106.39 142.48 108.102 141.087 109.297C143.333 108.145 144.041 106.544 144.391 107.722C144.736 108.898 142.276 111.048 141.747 111.481C142.295 111.389 143.27 110.591 143.698 110.406C144.702 109.966 144.624 111.15 143.567 112.227Z" fill="#FFB685"/>
<path fill-rule="evenodd" clip-rule="evenodd" d="M108.57 89.7339L113.441 91.2191L113.852 99.6665L111.204 100.616L108.432 100.491L108.57 89.7339Z" fill="#E8935A"/>
<path fill-rule="evenodd" clip-rule="evenodd" d="M106.494 100.855C107.576 99.4812 110.132 98.5898 111.929 98.4739C113.427 98.3793 115.354 98.6145 116.191 99.6732C115.389 101.492 113.245 102.948 111.342 102.948C109.439 102.948 107.487 101.468 106.494 100.855Z" fill="#E8935A"/>
<path fill-rule="evenodd" clip-rule="evenodd" d="M97.2719 78.2618C94.0208 77.7345 93.835 69.7062 96.5464 68.8833C95.1775 55.7636 100.463 43.1087 110.041 42.1958C116.669 41.564 123.658 48.209 124.737 62.0621C125.461 71.3615 124.983 80.4534 122.754 86.1482C117.326 100.034 99.7208 94.8068 97.2719 78.2618Z" fill="#FFB685"/>
<path fill-rule="evenodd" clip-rule="evenodd" d="M97.2724 78.2619C96.4095 78.3847 95.814 77.389 95.3887 76.6553C96.2951 77.2875 97.2249 77.4377 98.2687 76.4242C99.905 92.04 114.815 97.7595 120.966 89.5028C114.212 98.9739 99.4953 93.2839 97.2724 78.2619Z" fill="#FAA66E"/>
<path fill-rule="evenodd" clip-rule="evenodd" d="M96.7116 73.9317C96.7116 73.9317 96.4139 72.6769 97.0729 72.5493C97.4156 72.4828 97.5765 73.0321 97.6464 73.569C97.7114 74.0641 97.6987 74.5482 97.6821 74.5242C97.6821 74.5242 97.6073 74.2821 97.4948 74.0264C97.2856 73.5532 96.9458 73.0321 96.7116 73.9317Z" fill="#FAA66E"/>
<path fill-rule="evenodd" clip-rule="evenodd" d="M99.3527 70.5813C99.3527 70.5813 99.9261 66.4785 100.137 62.7435C100.348 59.0088 101.625 55.8729 101.625 55.8729C101.625 55.8729 109.463 60.0384 111.401 59.0529C113.34 58.068 105.329 47.5416 105.329 47.5416L111.879 55.7712L112.589 56.9382C112.589 56.9382 116.168 60.7506 117.089 60.1179C118.009 59.4846 113.816 49.2735 113.816 49.2735C113.816 49.2735 117.843 60.5439 123.369 61.4613C125.439 61.806 124.598 59.2929 123.911 56.4711C122.762 51.7563 119.843 45.3255 115.534 43.65C108.645 40.9713 101.775 44.0124 100.309 46.8318C98.8422 49.6506 96.6716 63.1977 99.3527 70.5813Z" fill="#F29F68"/>
<path fill-rule="evenodd" clip-rule="evenodd" d="M105.099 115.491C104.701 116.091 104.319 116.685 103.949 117.277C103.921 117.32 103.891 117.37 103.862 117.42C103.488 118.013 103.134 118.615 102.795 119.215C102.654 119.462 102.513 119.706 102.382 119.953C102.31 120.072 102.247 120.189 102.184 120.317C101.98 120.681 101.79 121.053 101.606 121.426C101.577 121.486 101.548 121.536 101.519 121.596C100.83 120.165 98.7628 116.811 95.9443 118.86C96.4005 117.141 96.9006 115.575 97.4144 114.178C97.851 112.983 98.2974 111.916 98.7247 110.969C98.7486 110.926 98.7682 110.883 98.7823 110.842C100.34 107.437 101.674 105.658 101.674 105.658C102.809 103.888 104.595 103.761 105.914 106.792C107.234 109.816 106.007 114.126 105.099 115.491Z" fill="#FAA66E"/>
<path fill-rule="evenodd" clip-rule="evenodd" d="M121.863 175.237V175.245C121.742 175.397 121.62 175.557 121.499 175.72L121.863 175.237Z" fill="#FAA66E"/>
<path fill-rule="evenodd" clip-rule="evenodd" d="M109.304 192.449C109.304 192.449 110.583 191.077 112.211 188.856C111.143 186.422 109.861 183.467 108.843 181.087C107.158 183.758 105.924 185.722 105.924 185.722L104.299 192.176L109.304 192.449Z" fill="#F2FAFF"/>
<path fill-rule="evenodd" clip-rule="evenodd" d="M105.946 185.76C105.946 185.76 104.95 185.211 103.61 186.542C102.269 187.875 101.542 189.695 101.542 189.695L107.425 204.433L108.556 205.513C110.892 203.144 109.492 195.213 109.304 192.446C108.586 192.599 104.886 189.52 105.946 185.76Z" fill="#546C96"/>
<path fill-rule="evenodd" clip-rule="evenodd" d="M109.888 200.39C109.892 200.117 109.891 199.838 109.887 199.561C109.514 199.236 109.13 199.022 108.841 198.941C108.719 198.906 108.619 199.051 108.617 199.263C108.615 199.475 108.714 199.675 108.835 199.709C109.12 199.79 109.518 200.026 109.888 200.39Z" fill="#E0F4FF"/>
<path fill-rule="evenodd" clip-rule="evenodd" d="M109.851 198.497C109.837 198.216 109.821 197.936 109.801 197.658C109.534 197.47 109.275 197.342 109.067 197.283C108.945 197.248 108.845 197.394 108.844 197.606C108.842 197.817 108.94 198.019 109.061 198.052C109.279 198.113 109.564 198.267 109.851 198.497Z" fill="#E0F4FF"/>
<path fill-rule="evenodd" clip-rule="evenodd" d="M101.685 189.504L108.519 205.306C108.687 205.694 108.642 206.249 108.42 206.544C108.197 206.837 107.878 206.757 107.71 206.371L100.877 190.57C100.71 190.183 100.754 189.624 100.976 189.331C101.198 189.038 101.517 189.116 101.685 189.504Z" fill="#364B70"/>
<path fill-rule="evenodd" clip-rule="evenodd" d="M112.472 195.168C112.472 195.168 112.49 192.304 112.259 188.385C110.348 188.692 108.036 189.044 106.182 189.304C106.618 193.58 106.94 196.712 106.94 196.712L109.417 203.092L112.472 195.168Z" fill="#F2FAFF"/>
<path fill-rule="evenodd" clip-rule="evenodd" d="M106.973 196.701C106.973 196.701 106.104 197.99 106.03 200.929C105.957 203.868 106.498 206.102 106.498 206.102L117.734 205.172L118.964 203.974C119.067 198.823 114.047 196.471 112.473 195.167C112.135 196.415 108.352 200.599 106.973 196.701Z" fill="#546C96"/>
<path fill-rule="evenodd" clip-rule="evenodd" d="M117.024 198.843C116.881 198.677 116.734 198.517 116.584 198.363C116.195 198.777 115.857 199.273 115.646 199.692C115.557 199.869 115.576 200.115 115.687 200.241C115.798 200.366 115.961 200.325 116.05 200.15C116.259 199.734 116.617 199.228 117.024 198.843Z" fill="#E0F4FF"/>
<path fill-rule="evenodd" clip-rule="evenodd" d="M115.998 197.802C115.841 197.662 115.683 197.525 115.525 197.394C115.269 197.717 115.051 198.059 114.899 198.362C114.81 198.539 114.828 198.785 114.94 198.911C115.051 199.037 115.214 198.995 115.303 198.818C115.462 198.502 115.709 198.132 115.998 197.802Z" fill="#E0F4FF"/>
<path fill-rule="evenodd" clip-rule="evenodd" d="M106.482 205.758L118.833 203.911C119.137 203.868 119.406 204.261 119.432 204.793C119.458 205.322 119.23 205.793 118.928 205.838L106.576 207.684C106.274 207.73 106.004 207.333 105.978 206.803C105.952 206.273 106.179 205.805 106.482 205.758Z" fill="#364B70"/>
<path fill-rule="evenodd" clip-rule="evenodd" d="M102.249 142.742C101.895 153.548 103.264 169.557 103.176 173.218L112.064 173.224L111.269 154.064C111.834 154.057 112.35 153.988 112.915 153.981L113.513 173.231L122.934 172.627C122.997 163.318 122.559 152.699 122.372 142.736C122.371 142.736 105.348 132.898 102.249 142.742Z" fill="#546C96"/>
<path d="M121.184 69.4265C121.249 69.8598 121.1 70.3035 120.852 70.4166C120.603 70.5298 120.349 70.2699 120.285 69.8352C120.22 69.4032 120.369 68.9595 120.617 68.845C120.865 68.7332 121.119 68.9917 121.184 69.4265Z" fill="#FEFFFE"/>
<path fill-rule="evenodd" clip-rule="evenodd" d="M115.99 76.9639C115.674 80.507 112.49 79.7671 112.476 77.1531C112.832 77.4377 113.251 77.8574 113.95 77.9314C114.55 77.9952 115.413 77.8107 115.99 76.9639Z" fill="#F09B63"/>
<path fill-rule="evenodd" clip-rule="evenodd" d="M104.337 63.21C105.383 61.8405 107.271 61.5444 108.169 61.6248C109.871 61.7769 109.187 59.9583 108.374 59.7591C106.841 59.382 105.009 60.525 104.003 62.1318C103.208 63.4011 103.091 64.8435 104.337 63.21Z" fill="black"/>
<path fill-rule="evenodd" clip-rule="evenodd" d="M104.402 73.4393C106.65 74.5488 108.108 77.6908 107.656 80.459C107.203 83.2258 105.013 84.5692 102.765 83.4604C100.518 82.3509 99.0601 79.2076 99.5118 76.4414C99.964 73.6725 102.154 72.3305 104.402 73.4393Z" fill="#FFB685"/>
<path fill-rule="evenodd" clip-rule="evenodd" d="M123.555 66.1964C122.772 64.5944 121.061 63.8429 120.217 63.7022C118.619 63.4367 119.501 61.8158 120.281 61.8182C121.754 61.8233 123.297 63.392 124.013 65.2182C124.576 66.6587 124.49 68.105 123.555 66.1964Z" fill="black"/>
<path fill-rule="evenodd" clip-rule="evenodd" d="M98.5698 72.9175C98.8309 72.9731 99.418 72.8688 99.4713 67.6257C99.5153 63.3195 99.4278 59.3532 101.319 54.453C102.739 56.5107 116.21 62.7297 112.811 56.0475C112.811 56.0475 115.862 59.9004 117.088 60.1179C118.315 60.3354 116.923 54.228 116.923 54.228C119.78 60.8599 128.173 65.7367 125.087 57.1822C127.013 61.0524 126.208 45.3657 118.15 40.2022C113.875 37.4623 103.843 37.7311 100.461 44.6614C100.461 44.6614 100.635 39.8952 99.8712 40.2376C99.1076 40.5801 99.2425 45.036 99.2425 45.036C99.2425 45.036 98.3425 42.8145 98.1391 43.8295C97.9352 44.8467 98.8113 45.9094 98.8113 45.9094C98.8113 45.9094 94.777 49.9303 94.3658 57.6321C93.9547 65.334 95.6267 69.55 95.6267 69.55C98.0707 67.2775 98.099 72.8167 98.5698 72.9175Z" fill="black"/>
<path fill-rule="evenodd" clip-rule="evenodd" d="M124.777 49.9754C124.255 48.3494 123.546 46.6535 122.621 45.0812C117.731 50.7197 102.525 41.8502 94.5022 56.0879C94.4416 56.585 94.3951 57.0992 94.3667 57.6317C94.3482 57.9875 94.334 58.3364 94.3232 58.6754C96.0461 56.4326 98.5741 52.5251 102.597 51.263C108.503 49.4138 120.227 54.5462 124.777 49.9754Z" fill="#2D2D2D"/>
<path fill-rule="evenodd" clip-rule="evenodd" d="M116.883 85.0682C116.572 85.9864 115.494 87.5841 113.488 87.3955C111.74 87.2317 110.588 85.5763 110.17 84.3619C109.916 83.6227 109.983 82.9308 110.26 83.4588C112.674 88.0374 115.902 85.7615 116.602 84.7404C116.866 84.3551 117.073 84.5107 116.883 85.0682Z" fill="#B13B32"/>
<path d="M110.076 72.5574C110.076 72.5574 106.558 75.6342 104.842 72.6143C102.75 68.9368 105.089 64.9418 106.852 65.1155C108.485 65.2751 110.133 67.2731 110.076 72.5574Z" fill="#F9FEFF"/>
<path d="M104.088 67.3974C104.639 65.7036 105.519 64.9775 106.536 64.8774C107.575 64.7775 108.724 65.7597 109.134 66.987C108.452 65.6655 107.455 65.3868 106.845 65.3264C105.873 65.228 104.706 66.303 104.284 67.9383C103.91 69.3922 104.129 71.3615 104.897 72.7103C104.059 71.8799 103.514 69.1631 104.088 67.3974Z" fill="black"/>
<path d="M109.535 68.4045C110.103 70.0793 109.785 72.24 108.826 73.2302C107.866 74.2204 106.628 73.667 106.061 71.9911C105.493 70.3166 105.811 68.1561 106.77 67.1655C107.73 66.1749 108.968 66.729 109.535 68.4045Z" fill="black"/>
<path d="M109.337 69.4244C109.468 69.8119 109.395 70.3124 109.172 70.5415C108.95 70.7712 108.663 70.6423 108.532 70.2548C108.4 69.8667 108.474 69.3675 108.697 69.1371C108.918 68.9081 109.205 69.0363 109.337 69.4244Z" fill="#FEFFFE"/>
<path d="M117.128 73.39C117.128 73.39 120.681 76.2522 122.332 73.1575C124.343 69.3847 121.947 65.5431 120.197 65.8143C118.577 66.0642 116.975 68.1408 117.128 73.39Z" fill="#F9FEFF"/>
<path d="M122.987 67.9289C122.408 66.2757 121.521 65.6028 120.509 65.5611C119.474 65.5182 118.349 66.5595 117.964 67.8006C118.618 66.4494 119.604 66.116 120.209 66.0233C121.173 65.8731 122.353 66.8751 122.801 68.4761C123.2 69.9023 123.018 71.8703 122.28 73.2541C123.097 72.3819 123.59 69.6514 122.987 67.9289Z" fill="black"/>
<path d="M122.588 69.7179C122.861 71.5446 122.234 73.4132 121.188 73.8905C120.141 74.3677 119.071 73.2726 118.798 71.4452C118.524 69.6192 119.151 67.7504 120.198 67.2735C121.244 66.7959 122.315 67.8903 122.588 69.7179Z" fill="black"/>
<path d="M122.295 69.9935C122.359 70.4269 122.211 70.8699 121.962 70.983C121.714 71.0968 121.46 70.837 121.395 70.4015C121.33 69.9695 121.479 69.5266 121.727 69.4127C121.975 69.3003 122.23 69.5595 122.295 69.9935Z" fill="#FEFFFE"/>
<path fill-rule="evenodd" clip-rule="evenodd" d="M105.099 115.491C104.701 116.091 104.319 116.685 103.949 117.277C103.921 117.32 103.891 117.37 103.862 117.42C103.488 118.013 103.134 118.615 102.795 119.215C102.654 119.462 102.518 119.706 102.382 119.953C102.31 120.072 102.247 120.189 102.184 120.317C101.98 120.681 101.79 121.053 101.606 121.426C101.577 121.486 101.548 121.536 101.519 121.596C100.83 120.165 98.7628 116.811 95.9443 118.86C96.4005 117.141 96.9006 115.575 97.4144 114.178C97.851 112.983 98.2974 111.916 98.7247 110.968C98.7486 110.926 98.7682 110.883 98.7823 110.842C100.34 107.437 101.674 105.658 101.674 105.658C102.809 103.888 104.595 103.761 105.914 106.792C107.234 109.816 106.007 114.126 105.099 115.491Z" fill="#FFB685"/>
<path fill-rule="evenodd" clip-rule="evenodd" d="M125.451 112.046C123.601 115.21 121.329 117.591 118.799 118.213L119.804 121.923C121.198 121.685 125.673 118.238 126.508 115.489L125.451 112.046Z" fill="#41D1BE"/>
<path fill-rule="evenodd" clip-rule="evenodd" d="M98.3991 110.024C100.003 113.568 102.085 116.434 104.55 117.611L103.284 121.068C101.919 120.523 97.7293 116.115 97.1006 113.205L98.3991 110.024Z" fill="#41D1BE"/>
<path fill-rule="evenodd" clip-rule="evenodd" d="M107.221 99.7014C108.412 101.309 109.95 102.398 111.354 102.318C113.346 102.207 115.057 100.502 115.613 98.8031L117.455 99.7199C115.499 106.532 107.829 107.019 105.232 100.849C105.508 100.67 106.214 100.207 107.221 99.7014Z" fill="#41D1BE"/>
<path fill-rule="evenodd" clip-rule="evenodd" d="M125.451 112.046C124.449 114.799 121.009 117.784 118.54 118.55C115.228 113.137 113.238 102.239 117.602 101.405C118.019 101.326 117.972 100.361 118.419 100.679C120.845 102.4 124.213 107.033 125.451 112.046Z" fill="#0DA18D"/>
<path fill-rule="evenodd" clip-rule="evenodd" d="M102.25 142.742C102.25 142.742 102.774 114.333 103.15 108.975C103.483 104.232 104.873 101.455 107.028 100.095C108.945 103.742 114.112 103.843 115.765 99.0974C118.554 99.7612 120.448 102.056 120.73 108.62C121.075 116.695 122.354 142.712 122.354 142.712C122.925 142.962 110.33 146.971 102.25 142.742Z" fill="#0DA18D"/>
<path fill-rule="evenodd" clip-rule="evenodd" d="M98.3984 110.024C99.1924 112.973 102.389 116.698 104.782 118.003C108.46 113.364 111.224 102.991 106.956 101.202C106.548 101.03 106.664 100.085 106.198 100.302C103.666 101.473 99.9898 105.325 98.3984 110.024Z" fill="#0DA18D"/>
<path fill-rule="evenodd" clip-rule="evenodd" d="M114.87 177.185H114.613V176.661C114.695 176.829 114.782 177.008 114.87 177.185Z" fill="#FFB685"/>
<path fill-rule="evenodd" clip-rule="evenodd" d="M114.672 128.311C116.952 129.268 118.025 128.489 117.986 129.811C117.952 131.131 115.206 130.869 114.623 130.784C115.123 131.182 116.2 131.334 116.622 131.546C117.617 132.037 117.214 132.987 115.992 133.011C114.231 133.046 109.956 130.555 109.956 130.555C109.956 130.555 102.795 134.68 97.434 135.298C97.2497 135.315 97.0702 135.332 96.8952 135.341C96.7759 135.348 96.6566 135.354 96.5388 135.36C94.7495 135.431 93.4309 132.489 93.8837 129.467C94.1095 127.958 94.3618 126.41 94.6395 124.89C95.0277 122.765 95.4642 120.689 95.9443 118.861C98.7633 116.81 100.83 120.165 101.519 121.595C100.753 123.153 100.087 124.729 99.5108 126.415C102.499 126.66 105.565 125.568 109.418 122.873C109.418 122.873 110.99 119.579 112.363 119.098C113.197 118.818 113.397 119.299 113.339 119.8C113.285 120.308 112.12 122.07 112.043 122.46L114.284 123.509C115.075 123.796 117.171 122.68 117.516 123.975C117.855 125.262 115.701 126.049 114.813 126.193C115.546 126.559 118.403 125.905 118.282 127.184C118.16 128.455 116.224 128.489 114.672 128.311Z" fill="#FFB685"/>
</svg>
