<svg width="220" height="240" viewBox="0 0 220 240" fill="none" xmlns="http://www.w3.org/2000/svg">
<path opacity="0.16" d="M122.208 204.859C122.208 207.442 114.353 209.534 104.665 209.534C94.9766 209.534 87.1221 207.441 87.1221 204.859C87.1221 202.278 94.9766 200.185 104.665 200.185C114.353 200.185 122.208 202.278 122.208 204.859Z" fill="black"/>
<path d="M97.4796 55.5991C97.485 55.5841 97.4884 55.5721 97.4933 55.5601C97.4918 55.4821 97.4865 55.4911 97.4796 55.5991ZM132.002 100.44C132.498 98.7992 133.059 96.9361 132.69 95.097C132.429 93.7921 131.743 92.7299 130.593 91.8481C129.433 90.9601 128.766 90.0124 128.555 88.9591C128.304 87.7111 128.675 86.3164 129.146 84.7502C130.337 80.8081 129.72 76.9262 128.154 73.1582C127.108 70.641 125.506 67.8751 124.829 64.5091C124.667 63.7201 124.559 62.8951 124.521 62.0341L123.811 63.4531C123.325 63.0691 122.733 62.6371 122.053 62.1751C121.998 62.1391 121.943 62.1001 121.886 62.0611C122.006 63.4681 122.032 65.9341 121.975 68.9822C120.994 67.7731 119.638 66.6571 118.055 65.6821C117.852 63.9511 116.587 59.5921 116.333 59.0071C116.413 59.9221 116.505 63.1231 116.544 64.8301C114.133 63.5821 111.362 62.6521 108.648 62.1721C108.746 60.3661 108.287 57.9811 108.287 57.8551C107.959 58.3771 107.268 60.8701 106.972 61.9291C106.563 61.8871 106.158 61.8541 105.757 61.8331C102.084 61.6381 99.3584 61.8961 97.1775 62.5051C97.375 58.0441 97.4503 56.0341 97.4796 55.6021C97.0601 56.7961 96.493 60.1351 96.3967 62.7451C95.5803 63.0211 94.8416 63.3511 94.1576 63.7321C94.1263 62.1001 93.9767 59.4571 93.9562 59.0071C93.6643 59.2921 93.042 62.8531 92.8132 64.5781C91.942 65.1961 91.1412 65.9011 90.3433 66.6781C90.4142 63.6781 90.5428 61.4731 90.7232 60.6721C91.6824 56.4061 93.0865 53.7241 94.8621 52.0741C94.3414 52.0741 93.8291 52.0951 93.327 52.1371C92.4558 52.2061 91.6134 52.3411 90.8112 52.5481C90.4259 54.0751 89.8725 56.1361 89.192 58.2721C88.9099 58.8691 88.618 59.4481 88.3222 60.0001C86.791 62.8531 85.0926 65.0821 83.4945 66.2491C81.0329 68.0461 80.2321 72.3244 81.4045 77.4124C82.3412 81.4828 81.3976 82.2419 80.3025 83.1244C79.5017 83.769 78.5924 84.4979 78.761 86.769C79.2113 92.9041 77.2225 95.2019 76.5645 95.8499C76.9424 95.6819 79.6718 93.5308 79.1355 86.6853C78.9962 84.9004 79.6479 84.3813 80.4624 83.7244C81.5159 82.8748 82.8276 81.8188 81.755 77.1628C80.653 72.3779 81.4367 68.8053 83.7193 67.1371C84.7749 66.3661 85.8988 65.2801 87.0125 63.9601C86.287 65.5081 85.5053 66.8551 84.6683 67.7071C82.2791 70.1342 81.6293 73.8721 82.6795 78.441C84.4346 86.0579 79.5599 83.1662 80.0483 87.8792C81.0534 97.593 80.2888 97.3468 79.0734 97.4579C78.2003 97.5388 76.4647 101.523 83.2451 115.506C83.7467 116.538 85.5277 106.086 85.8025 107.337C86.1789 109.065 85.6822 115.176 87.21 116.604C95.2126 124.08 117.967 122.79 125.642 120.612C126.123 120.477 128.046 113.517 128.419 110.514C129.495 116.142 127.907 119.322 127.907 119.892C129.4 119.313 130.942 117.312 131.272 113.709C131.561 110.565 131.253 109.746 130.225 105.579C129.627 103.152 134.251 98.1813 129.798 94.1939C127.376 92.025 127.429 90.0604 128.125 87.7201C128.096 88.2124 128.101 88.7013 128.196 89.1752C128.448 90.4321 129.162 91.473 130.44 92.4542C131.489 93.2579 132.108 94.1939 132.332 95.3164C132.645 96.8819 132.317 98.1484 131.855 99.6693C131.205 101.811 131.262 103.554 131.461 104.637C131.99 107.538 132.772 108.948 132.597 111.483C133.018 109.11 132.374 107.805 131.798 104.337C131.643 103.398 131.653 101.598 132.002 100.44ZM125.033 68.5201C125.98 70.4462 127.214 72.0364 127.984 73.8872C129.352 77.1779 129.801 80.3041 129.032 83.5619C129.138 79.0142 126.185 74.6133 125.033 68.5201ZM97.4796 55.5991C97.485 55.5841 97.4884 55.5721 97.4933 55.5601C97.4918 55.4821 97.4865 55.4911 97.4796 55.5991Z" fill="#D6B45F"/>
<path d="M124.899 65.919C124.882 65.442 124.858 64.971 124.83 64.509C123.897 49.707 116.979 43.236 106.649 42.252C97.0379 41.334 89.8727 49.11 88.3239 60C88.231 60.642 88.1592 61.293 88.1074 61.953C87.707 67.074 87.879 71.9307 88.518 76.3742C88.958 79.4462 89.6214 82.3173 90.476 84.936C90.4966 85.0053 90.5205 85.0738 90.543 85.1431C91.2167 87.1831 92.0058 89.0667 92.8941 90.7742C92.9664 90.9147 93.0383 91.0533 93.116 91.1911C93.6831 92.2498 94.2933 93.2373 94.9362 94.1458C95.1371 94.4311 95.3434 94.7102 95.5512 94.9769C98.3564 98.6071 101.751 100.806 105.422 101.115C109.214 101.433 112.876 99.8818 115.984 96.7502C116.17 96.5643 116.353 96.3723 116.536 96.1707H116.537C116.979 95.688 117.408 95.1723 117.824 94.6231C118.167 94.1733 118.5 93.7022 118.823 93.2043C119.55 92.0942 120.229 90.8764 120.848 89.5529C121.094 89.0311 121.329 88.4907 121.556 87.9333C122.553 85.488 123.363 82.7403 123.94 79.7163C124.725 75.6 125.083 70.9769 124.899 65.919ZM93.9682 51.306C96.8145 48.897 102.051 47.886 106.725 48.132C111.806 48.399 117.015 49.911 119.739 53.22C120.592 54.255 121.465 58.32 122.054 62.175C122 62.139 121.944 62.1 121.888 62.061C122.008 63.468 122.034 65.934 121.977 68.9822C120.996 67.773 119.64 66.657 118.057 65.682C117.854 63.951 116.589 59.592 116.334 59.007C116.415 59.922 116.506 63.123 116.546 64.83C114.134 63.582 111.364 62.652 108.65 62.172C108.748 60.366 108.289 57.981 108.289 57.855C107.961 58.377 107.27 60.87 106.974 61.929C106.565 61.887 106.16 61.854 105.759 61.833C102.086 61.638 99.3601 61.896 97.1792 62.505C97.3767 58.044 97.4525 56.034 97.4813 55.602C97.0618 56.796 96.4947 60.135 96.3984 62.745C95.5825 63.021 94.8433 63.351 94.1593 63.732C94.128 62.1 93.9784 59.457 93.9579 59.007C93.666 59.292 93.0437 62.853 92.8149 64.578C91.9437 65.196 91.1429 65.901 90.345 66.678C90.4159 63.678 90.5445 61.473 90.7249 60.672C91.6841 56.406 93.0882 53.724 94.8638 52.074C94.3431 52.074 93.8308 52.095 93.3292 52.137C93.5472 51.765 93.7618 51.48 93.9682 51.306Z" fill="#D6B45F"/>
<path d="M121.886 62.061C116.075 58.146 104.108 52.059 94.8625 52.074C93.0869 53.724 91.6828 56.406 90.7236 60.672C90.5432 61.473 90.4146 63.678 90.3438 66.678C91.1416 65.901 91.9424 65.196 92.8136 64.578C93.0424 62.853 93.6648 59.292 93.9566 59.007C93.9772 59.457 94.1268 62.1 94.1581 63.732C94.842 63.351 95.5812 63.021 96.3972 62.745C96.4935 60.135 97.0606 56.796 97.4801 55.602C97.4512 56.034 97.3754 58.044 97.1779 62.505C99.3589 61.896 102.085 61.638 105.758 61.833C106.158 61.854 106.564 61.887 106.973 61.929C107.269 60.87 107.959 58.377 108.288 57.855C108.288 57.981 108.746 60.366 108.649 62.172C111.363 62.652 114.133 63.582 116.545 64.83C116.505 63.123 116.414 59.922 116.333 59.007C116.587 59.592 117.853 63.951 118.055 65.682C119.638 66.657 120.995 67.773 121.976 68.9822C122.033 65.934 122.007 63.468 121.886 62.061ZM97.4801 55.599C97.4869 55.491 97.4923 55.482 97.4937 55.56C97.4889 55.572 97.4854 55.584 97.4801 55.599Z" fill="#D6B45F"/>
<path d="M121.886 62.0609C116.075 58.1459 104.108 52.0589 94.8623 52.0739C97.9012 49.2419 102.028 49.4309 106.869 49.8389C114.043 50.4419 119.528 51.252 121.762 61.1369C121.812 61.3529 121.853 61.6649 121.886 62.0609Z" fill="#D6B45F"/>
<path d="M122.054 62.1751C121.999 62.1391 121.944 62.1001 121.887 62.061C121.854 61.665 121.813 61.353 121.763 61.137C119.529 51.2521 114.044 50.442 106.87 49.8391C102.029 49.4311 97.9022 49.242 94.8632 52.074C94.3426 52.074 93.8302 52.0951 93.3281 52.137C93.5467 51.765 93.7613 51.4801 93.9676 51.306C96.8139 48.897 102.051 47.886 106.724 48.1321C111.805 48.3991 117.014 49.9111 119.739 53.2201C120.591 54.2551 121.464 58.3201 122.054 62.1751Z" fill="#D6B45F"/>
<path d="M93.3279 52.1371C93.83 52.0951 94.3424 52.0741 94.8631 52.0741C93.0874 53.7241 91.6833 56.4061 90.7241 60.6721C90.5437 61.4731 90.4146 63.6781 90.3442 66.6781C90.0934 66.9211 89.8407 67.1701 89.5879 67.4281C88.5378 68.4991 91.1245 55.8841 93.3279 52.1371Z" fill="#D6B45F"/>
<path d="M122.563 69.7893C122.386 69.5157 122.19 69.249 121.975 68.9822C122.032 65.934 122.006 63.468 121.886 62.061C121.942 62.1001 121.998 62.1391 122.052 62.1751C122.709 66.465 123.017 70.488 122.563 69.7893Z" fill="#D6B45F"/>
<path d="M90.0325 196.227C89.9943 196.485 94.8382 199.513 94.9301 199.234C95.6972 196.91 97.1991 191.432 97.5369 190.402L91.6776 186.612C91.241 189.289 90.2749 194.584 90.0325 196.227Z" fill="#FFC76E"/>
<path d="M97.952 197.312C97.9471 196.71 97.8699 195.918 97.8244 195.204C97.7907 194.676 95.0754 193.541 94.8974 194.698C94.8524 194.993 94.8202 195.258 94.7996 195.502C94.3357 195.302 93.8351 195.068 93.311 194.796C92.1694 194.208 91.1608 193.581 90.4661 193.055C90.1493 194.866 89.7744 198.084 89.4316 200.102C89.4316 200.102 100.914 209.449 103.264 207.248C103.926 206.628 101.46 201.447 97.952 197.312Z" fill="#E2511E"/>
<path d="M89.6306 198.828C89.5636 199.282 89.4967 199.718 89.4316 200.102C89.4316 200.102 100.914 209.449 103.264 207.248C103.357 207.161 103.387 206.981 103.363 206.728C99.8489 206.497 92.4999 201.054 89.6306 198.828Z" fill="#892910"/>
<path d="M98.7087 198.283C98.7957 198.356 98.8994 198.298 98.9429 198.149C98.9864 197.999 98.9522 197.815 98.8661 197.74C98.2047 197.16 97.3046 197.36 96.6769 198.234C96.6016 198.339 96.5894 198.531 96.6495 198.662C96.6725 198.712 96.7033 198.746 96.7365 198.763C96.7888 198.791 96.848 198.774 96.8944 198.71C97.4195 197.979 98.166 197.798 98.7087 198.283ZM99.5266 199.443C99.6136 199.515 99.7173 199.426 99.7515 199.269C99.7862 199.111 99.7412 198.936 99.6513 198.876C98.9351 198.393 98.1347 198.55 97.4557 199.296C97.3745 199.386 97.3501 199.574 97.4009 199.716C97.4244 199.781 97.4601 199.825 97.4992 199.846C97.5456 199.869 97.5975 199.86 97.6415 199.811C98.4423 198.93 99.1658 199.202 99.5266 199.443ZM100.51 200.135C99.8747 199.635 98.94 199.786 98.2345 200.494C98.1514 200.578 98.1225 200.764 98.1704 200.91C98.1939 200.979 98.2306 201.029 98.2716 201.049C98.3161 201.072 98.3655 201.065 98.4085 201.022C99.0231 200.404 99.8331 200.255 100.368 200.689C100.457 200.763 100.559 200.689 100.598 200.536C100.637 200.383 100.598 200.203 100.51 200.135Z" fill="#D3DAE5"/>
<path d="M90.0334 196.227C89.9953 196.485 94.8387 199.513 94.9306 199.234C95.6977 196.91 97.1995 191.432 97.5379 190.402L91.678 186.612C91.2415 189.289 90.2759 194.584 90.0334 196.227Z" fill="#FFC76E"/>
<path d="M95.1618 194.569C94.8621 195.475 91.7655 193.033 91.9175 192.011C93.8912 178.769 98.4422 153.76 98.9712 150.462L106.296 155.297C106.296 155.297 96.6211 190.16 95.1618 194.569Z" fill="#FFC19F"/>
<path d="M106.749 196.773C106.739 197.646 109.558 198.235 109.702 197.39C111.568 186.433 116.051 160.648 116.489 157.892L110.053 155.827C110.053 155.827 106.797 192.519 106.749 196.773Z" fill="#FFC19F"/>
<path d="M83.2243 97.178C82.4172 98.7572 81.5939 100.253 80.7041 101.69C86.0511 110.551 91.1854 119.015 97.845 124.709C98.6131 120.952 99.518 117.438 100.379 113.743C94.0811 109.831 88.6881 103.879 83.2243 97.178Z" fill="#FFC19F"/>
<path d="M126.462 139.91C127.285 138.442 127.982 136.477 127.403 134.283C121.004 128.392 116.975 120.76 114.301 114.691C113.854 116.392 113.787 123.688 114.526 125.698C117.279 133.188 122.243 137.818 126.462 139.91Z" fill="#FFC19F"/>
<path d="M133.956 141.946C132.844 141.191 131.255 139.743 128.054 137.767C127.689 137.543 126.554 139.725 126.941 139.859C129.185 140.638 133.077 144.477 133.956 141.946Z" fill="#E0956C"/>
<path d="M135.254 139.821C134.143 139.066 131.69 136.327 128.428 135.953C128.026 135.907 127.074 138.2 127.461 138.334C129.705 139.113 134.503 141.878 135.254 139.821Z" fill="#E0956C"/>
<path d="M136.022 136.408C134.911 135.652 128.487 133.175 125.225 132.801C124.823 132.755 124.292 137.652 124.743 138.451C125.126 141.022 127.586 141.841 129.587 146.086C129.933 146.819 130.27 145.47 130.271 145.029C130.275 143.89 130.054 143.652 129.54 140.993C129.226 139.373 130.095 138.171 130.731 137.906C133.541 137.534 135.486 138.171 136.022 136.408Z" fill="#FFC19F"/>
<path d="M72.2559 92.0968C72.2838 92.5425 72.2965 93.4662 73.9631 94.4659C74.2384 94.6305 72.6338 94.1656 72.8338 94.7107C73.3916 96.2337 74.5239 98.1962 76.4657 99.9935C80.3084 103.551 83.6573 102.207 84.2469 100.186C84.6615 98.764 82.1476 86.8374 78.744 85.468C78.4017 85.3302 79.822 89.7743 79.445 89.9964C78.9292 90.3002 78.1113 88.9439 76.8823 88.5297C74.1557 87.6136 72.2012 87.6492 72.6607 89.2545C72.8191 89.8079 77.1453 93.1836 77.1384 93.4943C77.1316 93.8063 72.2354 91.7622 72.2559 92.0968Z" fill="#FFC19F"/>
<path d="M113.765 141.251C113.765 141.251 117.209 158.27 118.522 164.041C113.304 171.012 96.1856 171.127 89.4834 161.504C90.0285 158.536 93.2713 144.411 94.3518 140.459L113.765 141.251Z" fill="#2A535E"/>
<path opacity="0.23" d="M92.4414 148.236C94.726 150.862 98.8273 155.726 104.372 156.172C111.064 156.71 114.042 153.724 115.683 152.227C114.663 146.554 113.766 141.251 113.766 141.251L94.3525 140.459C93.8763 142.201 93.3415 144.37 92.4414 148.236Z" fill="black"/>
<path d="M92.0732 146.132C94.0606 148.711 96.3818 151.866 103.669 152.429C111.016 152.997 114.861 149.678 116.416 148.286C116.416 148.286 113.94 120.402 113.014 113.576C109.022 111.924 101.712 113.13 97.8089 111.37C96.0533 117.003 92.0732 146.132 92.0732 146.132Z" fill="#28AFC6"/>
<path d="M100.725 112.295C103.293 112.383 106.737 112.382 109.442 112.72C109.371 115.042 108.346 119.949 105.244 119.964C101.691 119.98 100.772 115.638 100.725 112.295Z" fill="#E0956C"/>
<path d="M101.467 106.574L101.33 114.841C101.3 116.619 102.887 118.142 104.873 118.243C106.861 118.344 108.495 116.984 108.525 115.206L108.662 106.938L101.467 106.574Z" fill="#E0956C"/>
<path d="M84.4838 88.8673C85.3296 95.7265 89.005 100.268 91.8626 99.8161C94.7201 99.3636 95.4016 93.8367 95.0604 87.2628C94.7191 80.6888 92.1246 75.7091 89.2676 76.1782C85.3633 76.8193 83.6893 82.4196 84.4838 88.8673Z" fill="#FFC19F"/>
<path d="M126.609 92.4076C125.39 99.094 121.481 102.997 118.661 102.068C115.842 101.139 115.468 95.5228 116.169 89.0366C116.872 82.5505 119.728 78.0295 122.546 78.9751C126.398 80.2684 127.754 86.123 126.609 92.4076Z" fill="#FFC19F"/>
<path d="M121.977 68.9822C121.924 71.8862 121.795 75.3148 121.605 78.8578C121.449 81.7653 121.251 84.7502 121.02 87.5788C120.964 88.248 120.908 88.9049 120.848 89.5529C120.561 92.7182 120.227 95.6009 119.861 97.8542C119.536 99.8489 119.184 101.349 118.811 102.111C118.801 102.138 118.787 102.162 118.775 102.186C116.333 106.854 106.823 110.721 104.851 110.556C102.739 110.376 93.664 105.432 92.0262 99.936C92.012 99.888 91.9983 99.84 91.9846 99.7893C91.6908 98.7422 91.44 97.1671 91.2283 95.2409C90.9208 92.4391 90.6954 88.896 90.5429 85.1431C90.5395 85.0773 90.5375 85.008 90.5341 84.9388C90.4187 82.0773 90.3468 79.1013 90.3121 76.248C90.2676 72.7173 90.2813 69.3751 90.3449 66.6781C91.1428 65.9011 91.9436 65.1961 92.8148 64.5781C93.0436 62.8531 93.6654 59.2921 93.9578 59.007C93.9783 59.4571 94.1279 62.1001 94.1587 63.7321C94.8432 63.351 95.5819 63.0211 96.3983 62.7451C96.4946 60.135 97.0617 56.7961 97.4812 55.6021C97.4519 56.0341 97.3766 58.0441 97.1786 62.5051C99.36 61.8961 102.086 61.6381 105.759 61.8331C106.159 61.8541 106.565 61.887 106.974 61.9291C107.27 60.8701 107.961 58.3771 108.289 57.855C108.289 57.9811 108.748 60.3661 108.65 62.1721C111.364 62.6521 114.134 63.5821 116.545 64.8301C116.506 63.123 116.415 59.9221 116.334 59.007C116.588 59.5921 117.854 63.951 118.057 65.6821C119.64 66.6571 120.995 67.7731 121.977 68.9822Z" fill="#FFC19F"/>
<path d="M97.4951 55.5599C97.4902 55.5719 97.4868 55.5839 97.4814 55.599C97.4883 55.491 97.4937 55.482 97.4951 55.5599Z" fill="#752912"/>
<path d="M97.4814 55.599C97.4883 55.491 97.4937 55.482 97.4951 55.5599C97.4902 55.5719 97.4868 55.5839 97.4814 55.599Z" fill="#FFC19F"/>
<path d="M106.835 89.6593C106.751 89.6517 106.679 89.5393 106.669 89.3877C106.597 88.3118 106.133 87.5816 105.486 87.5274C104.835 87.4725 104.322 88.1349 104.207 89.1745C104.188 89.3404 104.095 89.4501 104 89.4179C103.905 89.3857 103.842 89.2245 103.861 89.0579C104.008 87.7262 104.683 86.8437 105.503 86.913C106.318 86.9816 106.927 87.947 107.019 89.3164C107.031 89.4851 106.961 89.6373 106.865 89.6579L106.835 89.6593Z" fill="#C68C75"/>
<path d="M118.295 71.8546C118.176 71.834 118.062 71.7401 117.976 71.5755C116.875 69.4848 114.611 68.5641 112.707 69.4409C112.442 69.565 112.168 69.2873 112.097 68.8203C112.027 68.3559 112.185 67.8798 112.452 67.7559C114.725 66.7125 117.359 67.8233 118.711 70.3995C118.898 70.754 118.884 71.304 118.68 71.6297C118.572 71.8045 118.431 71.8779 118.295 71.8546Z" fill="#775D2A"/>
<path d="M94.1302 70.0375C93.9933 70.0333 93.8579 69.9312 93.7616 69.7351C93.5817 69.3709 93.6052 68.8217 93.8139 68.5077C95.3314 66.2265 98.0203 65.6631 100.207 67.1637C100.464 67.3407 100.59 67.8462 100.489 68.2932C100.387 68.7428 100.097 68.9623 99.8419 68.7847C98.0091 67.5228 95.6976 67.9704 94.4651 69.8263C94.3688 69.9716 94.249 70.0416 94.1302 70.0375Z" fill="#775D2A"/>
<path d="M97.4951 55.5599C97.4902 55.5719 97.4868 55.5839 97.4814 55.599C97.4883 55.491 97.4937 55.482 97.4951 55.5599Z" fill="#752912"/>
<path d="M101.639 87.6625C101.639 87.6625 96.2544 90.3656 94.3032 85.3585C91.9257 79.2563 95.7963 74.7292 98.2397 75.7749C100.501 76.7431 102.51 80.291 101.639 87.6625Z" fill="#F9FEFF"/>
<path d="M94.0275 77.7099C95.0522 75.5897 96.3928 74.9739 97.8306 75.2989C99.3002 75.6308 100.762 77.5316 101.153 79.4352C100.396 77.2745 99.0425 76.4297 98.1973 76.0676C96.8509 75.4882 95.0571 76.4605 94.2221 78.5568C93.48 80.4219 93.4927 83.2772 94.3658 85.5161C93.3167 83.9712 92.9598 79.92 94.0275 77.7099Z" fill="#773220"/>
<path d="M100.529 81.3415C100.983 83.5139 100.342 85.918 99.0978 86.7107C97.8531 87.5033 96.4759 86.3843 96.0217 84.2112C95.568 82.0389 96.209 79.6354 97.4537 78.8428C98.6984 78.0501 100.075 79.1692 100.529 81.3415Z" fill="#00576C"/>
<path d="M100.347 80.6661C100.473 81.2688 100.295 81.936 99.9498 82.1555C99.6042 82.3756 99.2223 82.065 99.0962 81.4622C98.9701 80.8595 99.148 80.193 99.4937 79.9729C99.8388 79.7527 100.221 80.0634 100.347 80.6661Z" fill="#FEFFFE"/>
<path d="M109.697 88.1102C109.697 88.1102 114.984 91.3543 117.098 86.5537C119.674 80.7025 115.961 75.7907 113.486 76.5882C111.197 77.3253 109.073 80.6634 109.697 88.1102Z" fill="#F9FEFF"/>
<path d="M117.627 78.9456C116.674 76.7259 115.356 75.9751 113.91 76.1534C112.432 76.3358 110.909 78.0857 110.456 79.9461C111.283 77.8656 112.663 77.1593 113.518 76.8843C114.882 76.4421 116.64 77.5941 117.404 79.7712C118.083 81.7083 117.975 84.5568 117.03 86.7045C118.128 85.2672 118.619 81.2599 117.627 78.9456Z" fill="#773220"/>
<path d="M115.356 82.1807C115.81 84.353 115.169 86.7571 113.924 87.5491C112.679 88.3418 111.302 87.2227 110.848 85.0497C110.394 82.8774 111.035 80.4739 112.28 79.6813C113.525 78.8886 114.902 80.0077 115.356 82.1807Z" fill="#00576C"/>
<path d="M115.171 81.5047C115.297 82.1081 115.119 82.7746 114.774 82.9947C114.429 83.2148 114.047 82.9042 113.92 82.3015C113.794 81.6987 113.973 81.0322 114.318 80.8121C114.663 80.592 115.045 80.9026 115.171 81.5047Z" fill="#FEFFFE"/>
<path d="M105.542 100.407L105.589 100.406C107.223 100.399 108.626 99.5664 109.344 98.1764C109.44 97.9878 109.431 97.6992 109.324 97.5312C109.219 97.3611 109.053 97.3776 108.955 97.5648C108.344 98.749 107.054 99.4882 105.589 99.4937L105.545 99.4957C104.086 99.4868 102.801 98.7504 102.186 97.5654C102.087 97.3817 101.922 97.368 101.817 97.5346C101.71 97.7033 101.702 97.992 101.799 98.1792C102.521 99.5664 103.918 100.397 105.542 100.407Z" fill="#934341"/>
<path d="M95.4571 65.1168C95.4571 65.1168 96.7463 69.6981 95.1061 69.9106C93.4649 70.1239 92.0446 68.1825 91.9337 65.5743C91.8227 62.9661 93.0625 60.6792 94.7032 60.4659C96.3435 60.2532 95.4571 65.1168 95.4571 65.1168Z" fill="#F9951E"/>
<path d="M86.6485 66.2613C86.6485 66.2613 85.7621 71.1251 87.4028 70.9118C89.0435 70.6986 90.2834 68.4114 90.1719 65.8035C90.0609 63.1953 88.6407 61.2543 87 61.467C85.3593 61.68 86.6485 66.2613 86.6485 66.2613Z" fill="#F9951E"/>
<path d="M89.9679 65.8963C90.0212 67.1355 90.5707 68.0742 91.1955 67.9932C91.8203 67.912 92.2838 66.8416 92.2305 65.6022C92.1777 64.3629 91.6287 63.4243 91.0039 63.5052C90.3791 63.5868 89.9156 64.657 89.9679 65.8963Z" fill="#F9951E"/>
<path d="M106.473 194.707C106.462 194.927 110.695 196.232 110.749 195.979C111.193 193.878 111.988 188.997 112.183 188.066L107.052 186.384C106.908 188.696 106.54 193.294 106.473 194.707Z" fill="#FCC275"/>
<path d="M97.952 197.312C97.9471 196.71 97.8699 195.918 97.8244 195.204C97.7907 194.676 95.0754 193.541 94.8974 194.698C94.8524 194.993 94.8202 195.258 94.7996 195.502C94.3357 195.302 93.8351 195.068 93.311 194.796C92.1694 194.208 91.1608 193.581 90.4661 193.055C90.1493 194.866 89.7744 198.084 89.4316 200.102C89.4316 200.102 100.914 209.449 103.264 207.248C103.926 206.628 101.46 201.447 97.952 197.312Z" fill="#E2511E"/>
<path d="M89.6306 198.828C89.5636 199.282 89.4967 199.718 89.4316 200.102C89.4316 200.102 100.914 209.449 103.264 207.248C103.357 207.161 103.387 206.981 103.363 206.728C99.8489 206.497 92.4999 201.054 89.6306 198.828Z" fill="#892910"/>
<path d="M98.7087 198.283C98.7957 198.356 98.8994 198.298 98.9429 198.149C98.9864 197.999 98.9522 197.815 98.8661 197.74C98.2047 197.16 97.3046 197.36 96.6769 198.234C96.6016 198.339 96.5894 198.53 96.6495 198.662C96.6725 198.712 96.7033 198.746 96.7365 198.763C96.7888 198.791 96.848 198.774 96.8944 198.71C97.4195 197.979 98.166 197.798 98.7087 198.283ZM99.5266 199.443C99.6136 199.515 99.7173 199.425 99.7515 199.269C99.7862 199.111 99.7412 198.936 99.6513 198.876C98.9351 198.393 98.1347 198.549 97.4557 199.296C97.3745 199.386 97.3501 199.574 97.4009 199.716C97.4244 199.78 97.4601 199.825 97.4992 199.845C97.5456 199.869 97.5975 199.86 97.6415 199.811C98.4423 198.93 99.1658 199.202 99.5266 199.443ZM100.51 200.135C99.8747 199.635 98.94 199.786 98.2345 200.493C98.1514 200.578 98.1225 200.764 98.1704 200.91C98.1939 200.979 98.2306 201.028 98.2716 201.049C98.3161 201.072 98.3655 201.065 98.4085 201.021C99.0231 200.404 99.8331 200.255 100.368 200.689C100.457 200.762 100.559 200.689 100.598 200.536C100.637 200.383 100.598 200.203 100.51 200.135Z" fill="#D3DAE5"/>
<path d="M112.87 194.378C112.844 193.878 112.752 193.226 112.689 192.636C112.643 192.2 110.341 191.543 110.233 192.525C110.206 192.777 110.188 193.001 110.18 193.206C109.786 193.09 109.361 192.948 108.914 192.778C107.943 192.408 107.081 191.994 106.483 191.63C106.283 193.173 106.083 195.893 105.868 197.611C105.868 197.611 115.762 204.175 117.643 202.09C118.173 201.503 115.937 197.45 112.87 194.378Z" fill="#E2511E"/>
<path d="M105.99 196.53C105.95 196.914 105.91 197.285 105.869 197.611C105.869 197.611 115.763 204.175 117.644 202.091C117.718 202.008 117.737 201.855 117.708 201.647C114.772 201.829 108.458 198.078 105.99 196.53Z" fill="#892910"/>
<path d="M113.535 195.107C113.61 195.158 113.694 195.099 113.725 194.97C113.756 194.84 113.721 194.691 113.647 194.637C113.076 194.225 112.333 194.488 111.841 195.283C111.782 195.378 111.778 195.539 111.832 195.642C111.853 195.682 111.88 195.706 111.908 195.717C111.953 195.734 112.002 195.715 112.038 195.655C112.45 194.99 113.066 194.761 113.535 195.107ZM114.257 195.986C114.332 196.036 114.415 195.951 114.439 195.817C114.462 195.682 114.418 195.54 114.341 195.5C113.727 195.174 113.066 195.39 112.527 196.084C112.462 196.167 112.448 196.327 112.496 196.44C112.517 196.491 112.549 196.524 112.582 196.537C112.621 196.553 112.664 196.538 112.699 196.493C113.336 195.674 113.948 195.824 114.257 195.986ZM115.101 196.458C114.554 196.109 113.78 196.334 113.217 197C113.151 197.078 113.134 197.236 113.178 197.353C113.2 197.409 113.233 197.445 113.268 197.459C113.306 197.472 113.347 197.462 113.381 197.421C113.871 196.841 114.541 196.63 115.001 196.936C115.079 196.987 115.161 196.915 115.188 196.783C115.216 196.651 115.176 196.505 115.101 196.458Z" fill="#D3DAE5"/>
<path d="M93.7239 108.356C91.2839 111.605 91.5034 121.042 92.2358 122.078C92.2358 122.078 98.7737 127.459 102.193 113.033C98.4505 112.41 93.7239 108.356 93.7239 108.356Z" fill="#28AFC6"/>
<path d="M91.9922 146.41C93.98 148.989 96.3008 152.144 103.589 152.707C110.936 153.275 114.781 149.957 116.335 148.564C116.335 148.564 113.859 120.68 112.934 113.854C108.941 112.202 101.632 113.408 97.7278 111.649C95.9727 117.28 91.9922 146.41 91.9922 146.41Z" fill="#28AFC6"/>
<path d="M113.739 130.903C116.236 131.021 119.932 125.956 120.75 124.369C119.356 121.378 116.712 116.885 115.475 115.393C114.191 113.845 112.259 113.152 111.225 113.314C112.146 119.478 113.739 130.903 113.739 130.903Z" fill="#28AFC6"/>
<path opacity="0.21" d="M91.1492 92.6002C91.0973 92.6208 91.045 92.6358 90.9917 92.6475C89.5593 92.9876 88.2193 90.9641 87.9983 88.1259C87.7793 85.2918 88.7624 82.717 90.1949 82.3775C90.2741 82.3577 90.3518 82.3474 90.4295 82.3433C90.6026 86.1113 90.8416 89.7037 91.1492 92.6002Z" fill="black"/>
<path opacity="0.21" d="M120.007 94.1795C120.058 94.2042 120.11 94.2234 120.163 94.2392C121.585 94.687 122.974 92.767 123.265 89.9487C123.555 87.1331 122.637 84.4863 121.214 84.0392C121.135 84.0131 121.058 83.9973 120.981 83.9871C120.714 87.7386 120.386 91.3091 120.007 94.1795Z" fill="black"/>
</svg>
