<svg width="220" height="240" viewBox="0 0 220 240" fill="none" xmlns="http://www.w3.org/2000/svg">
<path d="M96.0083 121.934C96.0083 121.934 94.8897 125.807 94.5607 127.265C94.2322 128.724 93.6357 129.71 93.3913 130.102C93.1468 130.493 92.9742 130.57 93.0133 130.779C93.0525 130.987 93.3228 131.304 93.6499 131.299C93.977 131.294 94.4287 130.81 94.6115 130.389C94.7944 129.969 96.6228 122.76 96.6228 122.76L96.0083 121.934Z" fill="#B4634E"/>
<path d="M99.0708 124.319C99.0909 124.348 98.8274 126.213 98.8088 126.356C98.6885 127.277 98.5404 128.183 98.3874 129.084C98.1669 130.382 97.8691 131.699 97.7362 133.037C97.5919 134.486 97.4472 135.937 97.3025 137.386C97.283 137.58 97.2624 137.782 97.2028 137.944C97.1436 138.106 97.0341 138.216 96.9378 138.151C96.884 138.116 96.8429 138.034 96.8082 137.947C96.6596 137.569 96.621 137.036 96.6782 136.579C96.7897 135.682 97.1901 131.976 97.1788 131.91C97.1133 131.548 96.9882 132.261 96.9701 132.395C96.9006 132.904 96.84 133.419 96.7691 133.928C96.6166 135.025 96.4465 136.112 96.2587 137.189C96.1966 137.547 96.0206 138.39 95.7503 138.263C95.6114 138.198 95.4682 137.91 95.4868 137.761C95.4672 137.917 95.3694 138.224 95.3181 138.395C95.2736 138.543 95.211 138.682 95.1269 138.733C95.0678 138.768 95.0047 138.759 94.9441 138.743C94.4963 138.627 94.4728 136.964 94.5686 136.334C94.7432 135.187 94.9842 133 95.1284 132.291C95.1509 132.182 95.2834 130.808 95.124 131.163C95.0453 131.34 94.6596 133.019 94.508 133.601C94.2743 134.497 94.1218 135.455 93.9208 136.378C93.8456 136.727 93.7512 137.091 93.5786 137.268C93.5571 137.29 93.5327 137.309 93.5087 137.301C93.4901 137.294 93.474 137.273 93.4584 137.25C93.296 137.001 93.2222 136.58 93.2247 136.177C93.2271 135.776 93.297 135.387 93.3777 135.016C93.5195 134.364 93.6334 133.703 93.759 133.038C93.8886 132.349 94.0318 131.67 94.1555 130.976C94.3242 130.03 94.484 129.071 94.6796 128.143C94.8796 127.194 95.1201 125.788 95.5572 124.506C95.9942 123.224 96.5653 121.784 96.5653 121.784C96.5653 121.784 99.0464 124.294 99.0708 124.319Z" fill="#D0846A"/>
<path d="M105.421 67.117C107.141 64.3712 109.262 66.2828 109.906 69.9189C110.232 71.7594 110.505 73.5943 110.343 75.5137C109.93 80.3932 109.258 81.6419 108.681 86.4577C107.979 92.3164 107.568 98.4693 107.008 100.805C106.97 100.962 99.4914 126.186 99.4914 126.186C99.4914 126.186 96.0638 124.566 95.0748 122.119C94.8778 121.632 98.211 108.922 98.7962 105.836C99.3814 102.75 101.033 101.004 101.948 87.8455C102.115 85.4339 101.033 74.1203 105.421 67.117Z" fill="#DEBC85"/>
<path d="M100.885 121.964C100.885 121.964 97.8509 120.592 95.7702 117.935C95.7702 117.935 94.7914 122.396 94.7215 122.957C94.6516 123.52 99.0169 126.832 99.6334 126.556L100.885 121.964Z" fill="#E9CD96"/>
<path d="M97.3887 116.717L98.696 115.987L99.8439 116.525C99.8439 116.525 102.424 111.398 102.772 110.601C103.121 109.804 104.225 106.866 104.248 106.299C104.269 105.734 102.879 97.0155 102.978 97.3502C103.077 97.6848 104.315 102.586 104.612 103.013C104.91 103.441 105.146 100.287 105.086 99.5856C105.024 98.8855 104.092 97.7753 104.092 97.7753L103.589 92.4507L105.341 97.1623C105.469 97.3666 104.51 87.12 104.51 87.12C104.601 86.7799 105.577 94.4386 105.965 94.9536C106.352 95.4679 106.238 93.1166 106.215 92.9465C106.192 92.7751 105.33 82.1273 105.757 81.2715C106.185 80.4164 108.006 71.3904 108.006 71.3904L108.55 87.5026C107.92 89.8862 107.093 92.6537 107.093 92.6537L106.495 96.1186L105.686 98.651C105.686 98.651 105.32 102.64 105.215 103.487C105.109 104.336 100.084 119.006 100.084 119.006C99.9544 119.067 99.8268 119.109 99.7011 119.139L98.3801 118.519L97.3887 116.717Z" fill="#AD8A5D"/>
<path d="M111.173 219.18C111.173 219.18 111.417 219.832 111.375 220.435C111.306 221.466 110.804 228.57 108.694 228.291C106.582 228.012 105.603 225.867 103.486 223.746C101.368 221.626 99.2745 222.111 99.3967 219.191L111.173 219.18Z" fill="#6A3514"/>
<path d="M109.849 217.933C109.849 217.933 110.913 218.266 111.174 219.179C111.437 220.087 110.603 227.313 108.493 227.031C106.38 226.754 105.401 224.61 103.285 222.486C101.167 220.367 98.6137 220.847 99.6506 218.026L109.849 217.933Z" fill="#E2BE81"/>
<path d="M105.535 214.576C106.437 214.907 108.465 214.753 108.991 216.778C108.991 216.778 110.542 217.691 110.642 218.802C110.642 218.802 110.842 220.118 110.304 220.641C110.304 220.641 110.456 221.886 110.055 222.034L109.874 221.998C109.874 221.998 110.267 223.336 109.679 223.608L109.558 223.603C109.558 223.603 109.805 224.816 109.36 225.035L109.204 225.051C109.204 225.051 109.536 226.145 108.903 226.485C108.903 226.485 108.786 226.372 108.548 226.119C108.548 226.119 108.095 225.721 107.671 225.408C107.249 225.093 106.274 224.281 105.622 223.803C105.359 223.611 104.726 223.223 104.013 222.813" fill="#D0846A"/>
<path d="M105.755 223.925C105.724 223.904 105.691 223.88 105.663 223.862C105.476 223.731 105.106 223.506 104.649 223.246C103.89 221.633 103.037 219.444 103.037 219.444L100.726 212.204C100.773 212.101 100.819 211.997 100.863 211.89C101.474 210.422 102.368 210.005 103.61 212.284C103.61 212.284 104.599 214.332 105.499 214.642C106.399 214.949 108.418 214.74 108.958 216.751C108.958 216.751 110.51 217.622 110.619 218.729C110.619 218.729 110.728 219.407 110.59 219.987C110.516 219.374 110.323 218.237 109.914 218.142C109.349 218.015 108.744 217.827 108.696 217.53C108.649 217.236 107.421 214.975 106.739 215.702C106.057 216.43 105.239 220.1 105.755 223.925Z" fill="#AA6650"/>
<path d="M108.746 220.956C108.864 220.616 109.331 221.638 109.331 221.638C109.331 221.638 109.387 221.926 109.396 222.248C109.299 221.881 109.004 221.904 108.861 221.815C108.645 221.682 108.632 221.299 108.746 220.956Z" fill="#AA6650"/>
<path d="M108.374 222.797C108.451 222.45 108.798 222.953 108.95 223.142C108.95 223.142 109.057 223.515 109.029 223.898C108.897 223.624 108.577 223.567 108.471 223.513C108.308 223.428 108.298 223.141 108.374 222.797Z" fill="#AA6650"/>
<path d="M109.678 219.97C109.678 219.97 109.786 220.358 109.801 220.767C109.636 220.436 109.22 220.305 109.043 220.175C108.783 219.982 108.811 219.684 108.983 219.524C109.155 219.364 109.604 219.828 109.678 219.97Z" fill="#AA6650"/>
<path d="M108.472 218.39C108.354 218.166 108.344 217.428 108.423 217.256C108.504 217.082 109.368 217.596 109.502 218.02C109.639 218.446 110.139 218.565 110.139 218.565C110.139 218.565 110.197 219.08 110.137 219.495C110.114 218.228 108.586 218.614 108.472 218.39Z" fill="#AA6650"/>
<path d="M109.307 218.319C109.307 218.319 104.729 211.179 103.526 209.593L103.609 208.593C103.609 208.593 109.832 217.404 109.307 218.319Z" fill="#7D3E2C"/>
<path d="M98.1553 207.572C98.4823 209.064 98.9028 211.144 99.0103 212.414C99.0103 212.414 99.2748 214.753 99.1634 216.719C99.0529 218.684 99.5545 220.281 101.346 220.384C101.346 220.384 102.635 220.267 103.42 221.336C103.48 221.421 103.941 221.99 104.009 222.092C104.573 222.83 104.754 223.112 104.754 223.112C104.304 216.521 107.472 214.939 107.472 214.939C107.414 214.886 107.353 214.831 107.298 214.781C106.638 214.177 103.829 211.12 103.196 210.121C102.81 209.514 102.42 207.461 102.175 205.963C102.176 205.963 100.68 207.829 98.1553 207.572Z" fill="#7D3E2C"/>
<path d="M106.802 214.289C105.974 213.437 104.541 211.855 103.711 210.816L99.0166 212.484C99.0596 212.872 99.265 214.946 99.1633 216.72C99.1374 217.2 99.1466 217.658 99.2029 218.077C101.708 219.369 105.534 215.639 106.802 214.289Z" fill="#662B1D"/>
<path d="M122.506 215.447C122.506 215.447 122.708 215.911 122.693 216.368C122.67 217.15 122.491 222.538 120.898 222.551C119.305 222.562 118.509 221.054 116.861 219.682C115.211 218.312 113.652 218.896 113.663 216.69L122.506 215.447Z" fill="#6A3514"/>
<path d="M121.477 214.65C121.477 214.65 122.285 214.788 122.507 215.447C122.729 216.102 122.305 221.615 120.71 221.626C119.118 221.638 118.322 220.131 116.674 218.757C115.024 217.389 113.119 218.016 113.82 215.789L121.477 214.65Z" fill="#E2BE81"/>
<path d="M113.184 211.641C113.184 211.641 113.448 213.37 113.419 214.858C113.391 216.346 113.813 217.491 115.16 217.382C115.16 217.382 116.295 217.157 116.913 217.875C117.533 218.597 118.679 220.749 119.538 220.094C119.538 220.094 120.694 221.136 121.056 220.585C121.056 220.585 121.531 220.016 121.358 219.162C121.358 219.162 121.785 218.587 121.59 218.093L121.475 217.93C121.475 217.93 122.07 217.544 121.798 216.788L121.726 216.667C121.726 216.667 122.2 216.205 122 215.626L121.913 215.458C121.913 215.458 122.404 215.153 122.127 214.31C122.127 214.31 122.028 214.258 121.818 214.166C121.818 214.166 121.444 213.939 121.111 213.692C120.778 213.448 119.986 212.933 119.475 212.55C118.962 212.165 116.766 210.165 116.264 209.481C115.762 208.799 115.144 205.229 115.144 205.229L112.052 206.797C112.052 206.796 112.987 210.047 113.184 211.641Z" fill="#D0846A"/>
<path d="M119.546 212.604C119.523 212.586 119.497 212.567 119.475 212.55C119.329 212.44 119.048 212.202 118.707 211.898C117.824 212.097 116.73 212.543 116.73 212.543L113.421 214.532C113.422 214.641 113.422 214.75 113.419 214.858C113.391 216.345 113.813 217.491 115.161 217.382C115.161 217.382 116.296 217.157 116.914 217.875C117.534 218.597 118.68 220.748 119.538 220.094C119.538 220.094 120.694 221.136 121.056 220.585C121.056 220.585 121.301 220.29 121.374 219.807C121.166 220.098 120.748 220.581 120.48 220.226C120.108 219.735 119.698 219.238 119.591 219.366C119.484 219.495 118.148 219.607 117.936 218.491C117.725 217.373 118.218 214.364 119.546 212.604Z" fill="#AA6650"/>
<path d="M121.223 216.46C121.196 216.765 121.726 216.667 121.726 216.667C121.726 216.667 121.831 216.564 121.922 216.395C121.771 216.502 121.615 216.195 121.512 216.101C121.358 215.96 121.25 216.157 121.223 216.46Z" fill="#AA6650"/>
<path d="M121.504 215.075C121.456 215.342 121.78 215.41 121.913 215.458C121.913 215.458 122.072 215.359 122.157 215.119C122.011 215.139 121.82 214.852 121.746 214.777C121.634 214.662 121.554 214.81 121.504 215.075Z" fill="#AA6650"/>
<path d="M121.474 217.93C121.474 217.93 121.638 217.824 121.754 217.613C121.575 217.631 121.31 217.291 121.179 217.185C120.985 217.033 120.92 217.226 120.973 217.485C121.025 217.745 121.396 217.935 121.474 217.93Z" fill="#AA6650"/>
<path d="M120.392 217.601C120.268 217.607 120.067 218.003 120.065 218.177C120.063 218.353 120.677 218.929 120.863 218.828C121.05 218.731 121.359 219.162 121.359 219.162C121.359 219.162 121.525 218.937 121.602 218.649C121.254 219.324 120.515 217.59 120.392 217.601Z" fill="#AA6650"/>
<path d="M120.644 218.677C120.644 218.677 117.007 213.794 116.06 212.73L116.094 211.969C116.094 211.969 121.013 217.934 120.644 218.677Z" fill="#7D3E2C"/>
<path d="M112.408 208.094C112.694 209.18 113.067 210.699 113.184 211.641C113.184 211.641 113.448 213.37 113.419 214.858C113.391 216.346 113.813 217.491 115.16 217.382C115.16 217.382 116.126 217.158 116.744 217.879C116.791 217.938 117.155 218.316 117.207 218.386C117.652 218.88 117.797 219.073 117.797 219.073C117.275 214.17 119.61 212.65 119.61 212.65C119.564 212.617 119.517 212.582 119.475 212.55C118.962 212.165 116.766 210.165 116.264 209.481C115.957 209.065 115.607 207.564 115.382 206.465C115.381 206.465 114.31 208.022 112.408 208.094Z" fill="#7D3E2C"/>
<path d="M119.087 212.233C118.442 211.679 117.321 210.641 116.668 209.949L113.19 211.692C113.232 211.98 113.445 213.516 113.418 214.859C113.411 215.222 113.432 215.565 113.486 215.873C115.404 216.581 118.173 213.38 119.087 212.233Z" fill="#662B1D"/>
<path d="M106.745 43.3052L106.542 45.5822L104.29 46.5283C104.29 46.5283 105.227 44.4083 101.626 40.314C98.0314 36.2276 97.6246 33.747 97.0164 29.1859C95.9839 21.4305 99.0771 12.3538 105.62 11.9874C112.163 11.6207 109.167 29.8531 108.525 33.714L106.745 43.3052Z" fill="#A35D4B"/>
<path d="M103.134 49.2408C102.74 50.6666 107.101 56.1748 107.247 55.2204L109.085 48.5475C109.12 48.3197 109.57 45.7813 109.58 45.5535C109.654 43.867 108.658 43.5919 107.75 43.0723L106.544 42.3844C105.513 41.7955 104.442 42.8655 104.153 44.7739L103.134 49.2408Z" fill="#BB715A"/>
<path d="M103.793 12.3268C104.271 12.111 104.647 11.9812 104.812 11.987C106.755 12.0506 110.151 13.4553 111.341 17.0352C112.242 19.7465 112.846 23.7379 112.906 25.3195C112.952 26.5584 112.56 26.9419 112.489 28.133C112.531 29.5801 112.886 30.4328 113.079 31.1461C113.47 32.5817 114.549 34.5341 114.449 35.7961C114.422 36.1353 114.226 36.3879 114.012 36.5637C113.815 36.7257 112.885 37.1112 112.907 37.5993C112.907 37.5993 112.897 37.8735 112.984 38.3212C113.041 38.6119 113.256 38.9121 113.206 39.2483C113.114 39.8603 112.724 39.9015 112.521 40.3626C112.497 40.3877 112.937 41.3995 112.811 41.927C112.736 42.2448 112.486 42.3528 112.343 42.8228C112.323 43.0591 112.426 46.7557 112.105 47.0226C111.058 47.8935 108.139 46.465 106.995 45.1157C106.556 44.5977 106.527 45.0192 105.599 39.6341L103.793 12.3268Z" fill="#D0846A"/>
<path d="M113.561 36.2931C113.869 36.1645 114.17 36.0565 114.446 35.8093C114.415 36.1409 114.222 36.3898 114.011 36.5638C113.813 36.7258 112.883 37.1114 112.906 37.5993C112.906 37.5993 112.904 37.66 112.91 37.7656C112.743 37.7218 112.572 37.5802 112.446 37.4524C112.411 37.4153 112.373 37.3891 112.338 37.3651C112.726 36.9224 113.115 36.4795 113.561 36.2931Z" fill="#A5644F"/>
<path d="M112.829 39.9392C112.866 39.9348 112.497 40.3145 112.538 40.4388C112.579 40.563 112.697 40.9348 112.697 40.9348C112.697 40.9348 112.139 40.5499 111.74 40.625C111.342 40.6994 112.603 39.9654 112.829 39.9392Z" fill="#661115"/>
<path d="M99.0668 128.859L98.3428 145.105C98.3428 145.105 98.5843 153.028 98.7051 153.904C98.8253 154.779 99.0668 164.301 99.0668 164.301L98.7051 176.469V182.94V188.639C98.7051 188.639 98.9867 191.76 98.7051 192.696C98.4235 193.633 97.9404 197.846 97.9404 198.47C97.9404 199.094 97.9404 205.023 97.9404 205.023V206.584V211.533V214.103V216.542L100.115 217.509C100.115 217.509 111.243 218.679 113.602 212.085C115.963 205.491 113.998 208.31 113.998 208.31L114.26 205.335L113.998 196.093V189.732V184.27V177.405L113.602 174.128V166.17L114.26 160.804L113.998 156.168L113.048 149.474L113.602 144.093V138.426V135.119V130.526L99.0668 128.859Z" fill="#E2BE81"/>
<path d="M113.602 106.774C113.602 106.774 113.288 124.072 113.172 129.454C113.057 134.834 112.317 150.601 112.035 157.776C111.753 164.951 110.596 190.736 110.481 197.462C110.365 204.189 111.291 212.098 111.291 212.098C111.291 212.098 107.251 216.208 105.461 214.373C105.461 214.373 104.206 160.018 104.395 153.515C104.585 147.014 104.811 113.157 105.449 109.794C106.087 106.43 113.602 106.774 113.602 106.774Z" fill="#E2BE81"/>
<path d="M113.603 106.774C113.603 106.774 111.753 119.211 110.25 142.306C108.747 165.399 108.747 193.651 108.747 198.584C108.747 203.516 108.717 215.068 108.717 215.068C108.717 215.068 104.097 217.479 101.9 216.133C101.9 216.133 101.117 184.234 101.117 179.973C101.117 175.713 101.735 168.893 101.889 163.559C102.042 158.224 99.0762 138.752 98.6259 133.36C98.2192 128.491 96.8146 118.751 97.2937 114.054C97.7723 109.356 98.5722 105.534 99.9601 99.7042C101.348 93.8743 113.603 106.774 113.603 106.774Z" fill="#E2BE81"/>
<path d="M107.954 159.148C106.718 156.874 102.233 143.816 101.957 142.345C101.681 140.874 99.7496 125.712 99.7496 125.712C99.9564 127.005 104.163 139.537 104.856 141.543C105.548 143.549 107.707 146.449 107.707 146.449C106.346 143.909 100.647 125.748 100.647 125.748C106.321 127.283 111.947 123.048 114.245 121.007C114.017 118.516 113.843 117.097 113.843 117.097L96.9302 115.262C95.6557 123.789 98.785 151.502 98.785 151.502L99.0608 152.757C98.8598 157.916 100.338 159.997 100.193 170.99C100.719 163.718 100.755 163.696 100.907 160.971C101.149 156.559 101.353 145.589 101.355 143.635C101.356 141.681 98.0253 125.748 98.0253 125.748C98.0253 125.748 98.0307 125.942 98.0405 126.29C98.1246 129.396 102.07 154.927 102.621 157.092C102.976 158.483 103.491 158.503 104.902 162.859C101.898 150.931 99.1209 128.833 99.1209 128.833C99.1209 128.833 100.026 143.282 101.061 145.288C102.095 147.293 107.954 159.148 107.954 159.148Z" fill="#C59F6B"/>
<path d="M97.813 108.438L97.3809 112.508C97.3809 112.508 105.032 120.098 113.653 117.335L113.997 112.753C113.997 112.753 104.963 116.006 97.813 108.438Z" fill="#3B2314"/>
<path d="M98.3518 216.647C102.126 217.963 105.485 218.2 108.414 217.792L108.041 207.106C104.105 208.114 99.2479 206.676 97.8008 206.192L98.3518 216.647Z" fill="#C59F6B"/>
<path d="M108.049 112.753C108.049 112.753 108.12 116.976 107.834 118.363H108.525C108.525 118.363 108.977 114.583 108.787 112.753H108.049Z" fill="#042230"/>
<path d="M113.229 118.559C113.224 118.559 113.219 118.559 113.214 118.559L110.99 118.465C110.794 118.457 110.614 118.292 110.483 117.998C110.328 117.654 110.258 117.166 110.29 116.661L110.463 113.885C110.521 112.949 110.882 112.207 111.327 112.246L113.55 112.339C113.746 112.346 113.926 112.513 114.058 112.806C114.212 113.15 114.282 113.638 114.251 114.143L114.078 116.92C114.019 117.845 113.649 118.559 113.229 118.559ZM113.225 117.546C113.38 117.545 113.531 117.246 113.559 116.797L113.732 114.022C113.746 113.803 113.72 113.597 113.663 113.47C113.629 113.394 113.587 113.354 113.539 113.352L111.316 113.259C111.179 113.277 111.01 113.56 110.982 114.008L110.808 116.783C110.795 117.001 110.821 117.207 110.878 117.334C110.912 117.411 110.954 117.451 111.002 117.453L113.225 117.546Z" fill="#5A4A42"/>
<path d="M109.001 50.3589C109.001 50.3589 110.19 50.1309 110.966 51.8407C111.741 53.5504 113.137 59.8768 113.085 60.8458C113.034 61.8147 112.229 60.0593 111.971 59.6604C111.712 59.2616 110.837 57.2551 110.604 56.0013C110.371 54.7473 109.859 54.1564 109.626 53.8713C109.393 53.5862 108.421 53.1984 108.421 53.1984C108.421 53.1984 108.854 51.6086 109.001 50.3589Z" fill="#F0F3F7"/>
<path d="M106.712 49.3179C106.712 49.3179 113.832 63.9955 114.336 74.5123C114.804 84.2941 115.831 95.3944 114.912 110.228C114.245 121.007 109.747 114.892 106.998 114.892C104.249 114.892 98.3812 114.021 98.1426 106.759C97.9392 100.585 99.9642 92.1729 98.7825 86.2936C97.6009 80.4143 95.2381 73.444 96.4198 60.6117C97.6014 47.7796 100.418 47.4501 102.509 47.4501C104.599 47.4499 106.712 49.3179 106.712 49.3179Z" fill="#E9CD96"/>
<g opacity="0.3">
<path opacity="0.3" d="M109.771 51.708C109.771 51.5689 108.555 50.8483 108.465 50.7829C107.68 50.2111 106.893 49.6458 106.121 49.0093C104.526 47.6949 102.984 46.1384 101.514 44.3578C101.406 44.2271 100.901 43.6509 100.785 43.8413C100.436 44.4122 99.82 45.9149 99.7291 48.6469C99.6381 51.3789 110.979 62.6049 110.979 62.6049C110.979 62.6049 109.771 54.1755 109.771 51.708Z" fill="#231F20"/>
</g>
<path d="M109.771 51.2607C109.771 51.1218 108.555 50.4009 108.466 50.3358C107.68 49.7641 106.893 49.199 106.121 48.5625C104.526 47.2476 102.984 45.6914 101.515 43.9109C101.406 43.7802 100.901 43.2036 100.785 43.394C100.436 43.9652 99.82 45.4676 99.7291 48.1996C99.6381 50.9318 110.56 61.1334 110.56 61.1334C110.56 61.1334 109.771 53.7285 109.771 51.2607Z" fill="#F0F3F7"/>
<path d="M112.21 26.7208C112.21 26.7208 110.796 25.5079 110.056 26.162C109.316 26.8165 108.904 28.1459 108.904 28.1459C108.904 28.1459 109.484 27.5248 110.027 27.287C110.57 27.0489 112.266 27.7809 112.266 27.7809C112.266 27.7809 112.622 27.023 112.21 26.7208Z" fill="#090000"/>
<path d="M111.318 28.467C111.26 28.7642 111.211 29.9873 111.354 30.6582C111.35 30.6388 111.209 30.6166 111.192 30.6097C110.969 30.5175 110.765 30.4117 110.577 30.1511C110.495 30.0395 110.421 29.9124 110.351 29.7761C110.291 29.6584 110.208 29.5277 110.187 29.3615C110.169 29.23 110.737 28.5408 111.318 28.467Z" fill="white"/>
<path d="M111.268 29.4551C111.268 29.0662 111.367 28.7239 111.517 28.512C111.465 28.4377 111.405 28.3827 111.342 28.3446C111.096 28.4913 110.916 28.9299 110.916 29.4548C110.916 29.9795 111.095 30.4186 111.342 30.5651C111.405 30.5271 111.465 30.4722 111.517 30.398C111.367 30.186 111.268 29.8442 111.268 29.4551Z" fill="#2C1117"/>
<path d="M111.518 28.5122C111.366 28.7244 111.268 29.0671 111.268 29.4557C111.268 29.8444 111.366 30.1873 111.518 30.3969C111.668 30.1873 111.767 29.8447 111.767 29.4557C111.767 29.0674 111.668 28.7244 111.518 28.5122Z" fill="#090000"/>
<path d="M111.02 29.9067C110.962 29.9067 110.916 29.816 110.916 29.704C110.916 29.5922 110.962 29.5016 111.02 29.5016C111.078 29.5016 111.125 29.5922 111.125 29.704C111.125 29.8158 111.078 29.9067 111.02 29.9067Z" fill="white"/>
<path d="M111.323 29.5481C111.235 29.5481 111.163 29.4086 111.163 29.237C111.163 29.0652 111.235 28.9259 111.323 28.9259C111.412 28.9259 111.484 29.0652 111.484 29.237C111.484 29.4088 111.412 29.5481 111.323 29.5481Z" fill="white"/>
<path d="M110.237 29.5479C110.225 29.598 110.526 29.8867 110.552 29.9127C110.686 30.0429 110.821 30.1651 110.962 30.2614C111.079 30.3416 111.2 30.4033 111.324 30.4338C111.387 30.4492 111.45 30.4563 111.513 30.4534C111.567 30.4509 111.626 30.454 111.68 30.4405C111.68 30.4405 111.504 31.066 111.267 31.1292C111.03 31.1923 110.542 31.0712 110.303 30.6585C110.065 30.246 110.237 29.5483 110.237 29.5479Z" fill="#D0846A"/>
<path d="M109.944 29.9296C110.005 29.498 110.174 29.1565 110.351 28.8847C110.535 28.6214 110.745 28.4272 110.959 28.2991C111.173 28.163 111.398 28.0874 111.621 28.0698C111.847 28.0483 112.06 28.1107 112.28 28.1047C112.074 28.2869 111.849 28.3231 111.644 28.4189C111.435 28.5038 111.236 28.6181 111.038 28.7523C110.84 28.8941 110.651 29.0487 110.467 29.2365C110.285 29.4252 110.108 29.6347 109.944 29.9296Z" fill="black"/>
<path d="M98.1782 103.952C98.0076 108.762 96.4583 113.944 96.5551 115.109C96.5551 115.109 105.159 118.769 113.85 119.253L114.621 113.735" fill="#E9CD96"/>
<path d="M105.529 90.8208C104.819 89.7607 104.928 84.5637 105.035 84.2455C105.141 83.9266 108.046 78.4114 108.267 76.3961C108.49 74.3801 105.475 80.8505 104.873 80.4274C104.272 80.0016 107.333 68.0157 107.281 64.5151C107.227 61.0158 105.092 75.1221 104.653 74.2752C104.216 73.4256 105.694 55.9238 105.201 56.1353C104.71 56.3478 104.056 69.7406 103.342 69.925C102.984 70.0183 102.598 68.723 102.3 67.4026C102.359 67.8613 102.422 68.3142 102.488 68.7593C102.488 68.7593 103.397 74.4796 103.761 81.275C103.94 84.5952 103.732 88.8021 103.715 91.5045C103.715 91.5045 103.306 108.003 103.409 110.126C103.409 110.126 106.274 112.445 109.896 113.501C107.325 111.865 105.912 109.692 105.912 109.692C105.803 108.305 105.419 105.987 104.928 104.822C104.435 103.657 104.71 101.428 104.71 101.428C106.567 99.8455 109.891 93.2373 110.603 91.8048C109.783 93.2448 106.185 96.2304 106.185 96.2304C106.185 96.2304 106.24 91.8816 105.529 90.8208Z" fill="#C8A977"/>
<path d="M104.664 32.9279C104.664 32.9279 105.288 33.5691 105.544 36.0806C105.544 36.0806 105.889 34.9328 106.007 32.5275C106.126 30.1208 106.332 29.4511 106.788 27.7624C106.788 27.7624 107.897 24.265 107.411 20.9788C107.101 18.8835 105.468 17.8628 104.853 20.1766C103.644 24.7292 104.414 32.0933 104.664 32.9279Z" fill="#090000"/>
<path d="M112.085 14.7683C111.618 13.8601 110.839 12.8969 110.261 12.2798C109.068 11.0076 108.051 10.4467 106.699 10.2307C103.919 9.7863 100.318 10.6692 98.6035 14.8818C97.5656 17.4327 97.4757 21.8625 97.2777 25.0892C96.9501 30.4389 98.0814 39.421 100.787 41.7785C101.254 43.7931 101.767 44.2949 102.626 45.2867C103.595 46.4069 104.245 46.3018 104.245 46.3018C103.808 45.0549 103.642 43.5321 103.642 43.5321L104.436 44.2358C104.054 43.6818 104.04 41.9779 104.04 41.9779L104.436 42.3616C104.345 42.107 104.275 41.7583 104.22 41.3705C104.579 41.0367 104.952 40.6149 105.339 40.0925C105.521 39.8472 103.564 30.5521 104.101 30.7772C104.435 30.9176 105.013 32.7767 105.489 35.1227C106.084 38.0598 105.339 24.388 107.175 19.4639C109.011 14.5398 113.326 17.8118 113.327 17.812C113.145 17.3185 112.368 15.3212 112.085 14.7683Z" fill="black"/>
<path d="M101.746 11.3242C101.746 11.3242 98.7034 9.59597 97.3414 19.4573C96.1045 28.4124 97.0764 40.9893 104.305 45.8975C104.305 45.8975 101.203 23.0864 101.792 19.1802C102.38 15.2738 101.746 11.3242 101.746 11.3242Z" fill="#090000"/>
<path d="M101.059 11.5464C101.059 11.5464 101.843 6.80713 108.118 9.87913C113.363 12.4464 114.306 21.0078 114.306 21.0078C114.306 21.0078 111.451 17.5358 106.602 13.3018C103.527 10.6169 101.059 11.5464 101.059 11.5464Z" fill="black"/>
<path d="M110.894 12.2629C109.787 11.9438 109.302 10.8553 108.444 10.9433C108.444 10.9433 104.491 9.96622 104.859 15.0025L106.244 18.0944C106.244 18.0944 107.834 22.4662 109.988 23.3815C109.988 23.3815 108.835 22.0084 108.334 21.1793C108.334 21.1793 110.543 23.5113 112.995 23.9331C112.995 23.9331 111.435 22.9026 110.858 21.4526C110.858 21.4526 112.377 23.568 115.181 23.9331C115.181 23.9331 114.117 23.2678 113.719 22.4662C113.719 22.4662 114.487 22.5849 115.021 22.978" fill="#090000"/>
<path d="M110.979 59.3628C110.979 59.3628 113.991 69.3489 114.273 71.6899C114.273 71.6899 115.942 95.2902 114.69 113.283L114.258 116.095L113.85 119.019L113.453 118.995L114.258 113.114C114.258 113.114 115.25 101.729 113.83 71.7674C113.83 71.7674 112.725 66.1039 110.603 59.8465L110.261 58.1341L110.217 57.663L110.979 59.3628Z" fill="#EBEEC9"/>
<path d="M114.213 203.736C113.27 204.152 113.452 209.087 112.925 208.223C112.351 207.285 111.491 211.64 110.655 211.326C109.817 211.013 108.721 207.597 108.059 207.676C107.537 207.736 108.482 215.424 108.413 217.792C116.907 215.735 114.489 204.917 114.489 204.917L114.213 203.736Z" fill="#E9CD96"/>
<path d="M107.305 207.293C108.637 201.988 110.154 193.445 110.114 192.834C110.114 192.834 103.158 197.426 102.695 198.08L99.4209 206.87L107.305 207.293Z" fill="#E9CD96"/>
<path d="M110.511 184.833C111.003 187.537 113.027 197.859 114.361 204.642L114.765 207.294C114.43 198.479 114.467 180.319 114.513 175.981C114.577 170.029 115.065 158.578 113.685 150.793C113.378 149.061 113.685 136.14 113.685 136.14C113.614 130.344 113.344 125.043 113.023 120.608C112.852 132.436 112.213 153.237 112.213 153.237C112.213 153.237 114.167 163.464 113.686 165.753C113.203 168.043 109.761 180.712 110.511 184.833Z" fill="#C59F6B"/>
<path d="M97.3809 122.382C97.3809 122.382 97.5442 130.932 98.1108 134.261C98.1108 134.261 98.143 138.166 98.3518 139.176C98.561 140.185 98.1406 141.692 98.1406 141.692L98.1108 144.093C98.1108 144.093 97.8996 144.267 98.6539 145.671L99.2572 148.363L99.4381 145.437L99.1966 140.112L99.0886 137.545L99.2543 136.252L98.9316 131.875L98.4095 127.606C98.4095 127.606 98.231 123.728 98.2012 123.553C98.1709 123.377 97.5129 122.382 97.5129 122.382H97.3809Z" fill="#C59F6B"/>
<path d="M107.25 130.527C107.218 130.477 112.335 143.319 113.462 145.443C113.462 145.443 109.064 133.229 107.25 130.527Z" fill="#E9CD96"/>
<path d="M107.882 140.253C107.85 140.203 112.966 153.045 114.094 155.168C114.094 155.168 109.696 142.954 107.882 140.253Z" fill="#E9CD96"/>
<path d="M107.881 167.552C107.848 167.502 112.965 180.344 114.093 182.468C114.093 182.468 109.695 170.254 107.881 167.552Z" fill="#E9CD96"/>
<path d="M118.83 121.895C118.83 121.895 120.608 126.109 121.166 127.735C121.724 129.361 122.552 130.306 122.891 130.677C123.229 131.048 123.446 131.07 123.422 131.338C123.397 131.606 123.105 132.1 122.71 132.23C122.315 132.359 121.716 131.962 121.448 131.53C121.181 131.098 118.179 123.147 118.179 123.147L118.83 121.895Z" fill="#B4634E"/>
<path d="M115.393 126.045C115.372 126.089 115.896 128.231 115.934 128.396C116.181 129.459 116.459 130.492 116.744 131.517C117.153 132.993 117.658 134.461 117.966 136.021C118.3 137.713 118.635 139.404 118.969 141.096C119.014 141.323 119.061 141.558 119.15 141.728C119.24 141.899 119.384 141.988 119.494 141.869C119.554 141.804 119.595 141.688 119.627 141.569C119.765 141.051 119.754 140.391 119.634 139.862C119.401 138.825 118.508 134.515 118.515 134.43C118.554 133.966 118.784 134.774 118.82 134.929C118.961 135.516 119.09 136.112 119.232 136.698C119.537 137.959 119.863 139.202 120.208 140.425C120.322 140.831 120.628 141.777 120.94 141.512C121.101 141.376 121.242 140.968 121.203 140.795C121.244 140.976 121.396 141.307 121.477 141.492C121.547 141.652 121.638 141.795 121.745 141.822C121.82 141.84 121.895 141.802 121.967 141.758C122.495 141.432 122.34 139.413 122.155 138.693C121.818 137.379 121.286 134.838 121.034 134.041C120.995 133.918 120.683 132.314 120.915 132.678C121.03 132.857 121.68 134.726 121.928 135.366C122.309 136.352 122.598 137.445 122.942 138.477C123.072 138.867 123.226 139.269 123.454 139.41C123.482 139.427 123.514 139.441 123.542 139.421C123.564 139.407 123.582 139.372 123.597 139.339C123.766 138.971 123.809 138.431 123.762 137.947C123.714 137.462 123.587 137.021 123.449 136.607C123.206 135.878 122.995 135.128 122.771 134.376C122.538 133.598 122.29 132.836 122.065 132.049C121.757 130.977 121.457 129.885 121.12 128.845C120.773 127.78 120.328 126.182 119.659 124.814C118.99 123.448 118.141 121.944 118.141 121.944C118.141 121.944 115.42 126.005 115.393 126.045Z" fill="#D0846A"/>
<path d="M101.422 59.5824C99.0422 56.9784 96.6897 60.1659 96.3128 64.8248C96.1221 67.1823 95.9945 69.5116 96.4017 71.7635C97.4367 77.4858 98.3866 78.716 99.6147 84.2943C101.108 91.0794 102.281 98.3418 103.215 100.93C103.278 101.105 115.089 128.474 115.089 128.474C115.089 128.474 119.051 125.097 119.976 121.732C120.161 121.062 114.734 107.092 113.688 103.606C112.641 100.121 110.454 98.6963 107.9 83.1807C107.432 80.337 107.492 66.2239 101.422 59.5824Z" fill="#DEBC85"/>
<path d="M112.941 123.951C112.941 123.951 116.457 121.037 118.677 116.966C118.677 116.966 120.35 121.949 120.497 122.598C120.643 123.248 115.735 129.057 114.96 128.979L112.941 123.951Z" fill="#E9CD96"/>
<path d="M116.586 116.166L114.926 115.825L113.599 116.951C113.599 116.951 109.918 111.828 109.409 111.009C108.901 110.191 107.243 107.099 107.153 106.424C107.066 105.749 107.784 94.6437 107.702 95.088C107.619 95.533 106.663 101.966 106.352 102.605C106.039 103.245 105.406 99.5342 105.402 98.6613C105.399 97.7904 106.403 96.0638 106.403 96.0638L106.424 89.4233L104.827 95.8402C104.695 96.1406 104.724 83.3664 104.724 83.3664C104.577 82.9927 104.242 92.6489 103.83 93.4313C103.419 94.2124 103.298 91.3255 103.307 91.1102C103.316 90.8935 103.184 77.675 102.574 76.8185C101.962 75.9634 98.7695 65.8149 98.7695 65.8149L99.8866 85.5024C100.91 88.1205 102.215 91.1205 102.215 91.1205L103.318 95.0578L104.575 97.7815C104.575 97.7815 105.455 102.449 105.676 103.428C105.897 104.408 113.582 120.047 113.582 120.047C113.746 120.067 113.905 120.065 114.059 120.049L115.587 118.753L116.586 116.166Z" fill="#AD8A5D"/>
<path d="M103.215 29.5852C103.354 29.4006 103.509 29.292 103.669 29.2524C103.971 29.181 104.292 29.357 104.561 29.739C105.201 30.6482 105.571 32.8486 105.669 34.4328C105.716 35.205 105.781 36.2733 105.57 36.9226C105.22 38.0068 104.467 36.3375 104.075 35.7724C103.287 34.6384 102.967 34.4724 102.763 32.9968C102.489 31.0166 102.868 30.0455 103.215 29.5852Z" fill="#D0846A"/>
<path d="M103.814 33.7776C104.015 34.6318 104.441 35.332 104.952 35.2958C105.159 35.2807 105.318 35.1347 105.243 34.6706C105.212 34.4845 105.105 34.2338 105.025 34.1158C104.887 33.9111 104.851 33.3231 104.836 33.0214C104.798 32.2051 104.781 31.1311 104.196 31.1727C103.655 31.2118 103.6 32.2033 103.693 33.0509C103.722 33.3191 103.766 33.5731 103.814 33.7776Z" fill="#975238"/>
<path d="M113.102 37.6791C113.102 37.6791 111.112 37.9873 110.516 39.1126C109.919 40.24 110.089 41.6904 110.089 41.6904C110.089 41.6904 110.396 39.988 110.826 40.2002C111.068 40.3215 113.267 40.7262 113.267 39.0738" fill="black"/>
<path d="M114.245 177.778C114.245 177.778 117.563 203.708 118.594 206.465C119.625 209.222 119.231 214.68 110.404 217.062L112.051 206.465L110.678 202.667V199.111L112.051 194.445L112.864 192.835L113.998 196.093L113.896 188.889L114.245 177.778Z" fill="#E2BE81"/>
<path d="M115.041 197.42C115.041 197.42 116.721 205.263 118.115 206.465C119.51 207.667 116.835 207.348 116.139 205.23L114.699 198.778L113.602 197.42L112.408 196.556C112.408 196.556 115.567 209.853 117.395 208.594C117.395 208.594 114.827 207.419 112.408 200.667C112.408 200.667 115.324 211.247 117.131 210.422C117.131 210.422 112.302 209.889 111.38 199.111L115.041 197.42Z" fill="#C59F6B"/>
</svg>
