<svg width="220" height="240" viewBox="0 0 220 240" fill="none" xmlns="http://www.w3.org/2000/svg">
<path d="M118.276 52.3801C118.281 52.3951 118.286 52.4071 118.291 52.4221C118.281 52.3111 118.276 52.3021 118.276 52.3801ZM123.392 51.3541C122.909 51.1651 122.416 51.0031 121.914 50.8621C122.753 51.8551 123.49 53.1271 124.118 54.7471C123.825 53.4781 123.582 52.3111 123.392 51.3541ZM133.316 85.7849C133.557 83.6071 132.74 82.8 132.019 82.0862C131.034 81.1139 130.183 80.2739 131.209 76.4428C132.492 71.6489 131.907 67.4251 129.685 65.4151C128.772 64.5901 127.839 63.3511 126.943 61.8091C126.823 61.6051 126.703 61.3921 126.584 61.1761C126.094 60.2821 125.62 59.2981 125.168 58.2451C125.214 58.4431 125.26 58.6441 125.303 58.8511C125.436 59.4721 125.536 60.9091 125.599 62.8861C124.853 62.2531 124.1 61.6801 123.291 61.1821C123.012 59.4421 122.28 55.8631 121.975 55.5991C121.966 56.0581 121.887 58.7641 121.899 60.4291C121.19 60.0991 120.429 59.8261 119.589 59.6101C119.419 56.9611 118.75 53.6071 118.291 52.4221C118.332 52.8631 118.465 54.9061 118.788 59.4301C116.548 58.9921 113.762 58.9561 110.026 59.4601C109.616 59.5141 109.206 59.5831 108.79 59.6611C108.458 58.6051 107.685 56.1211 107.337 55.6201C107.341 55.7461 106.939 58.2151 107.088 60.0451C104.335 60.7621 101.537 61.9411 99.1131 63.4141C99.1063 61.6711 99.1131 58.3981 99.1684 57.4621C99.0134 57.8551 98.4825 59.8501 98.0767 61.7041C97.9325 61.2811 97.6831 61.0141 97.2779 61.0591C96.5401 61.1401 95.8801 61.6441 95.3888 62.4121C95.38 60.2641 95.447 58.7041 95.6034 58.0441C95.7911 57.2551 95.9921 56.5261 96.2067 55.8571C95.6415 56.1841 95.136 56.5021 94.6995 56.7991L94.1133 56.6521L92.0438 56.1361L91.9788 56.1211C91.8087 58.2151 91.157 60.1801 90.3801 61.9771C89.9079 63.0721 89.3901 64.1011 88.9022 65.0581V65.0611C88.5238 65.8081 88.165 66.5101 87.8638 67.1641C86.2637 70.6348 85.5436 74.3191 86.5028 78.264C86.8826 79.8302 87.175 81.2222 86.8963 82.4009C86.6592 83.3973 86.0026 84.2373 84.8889 84.9724C83.787 85.6951 83.1084 86.6489 82.816 87.8791C82.4034 89.616 82.8556 91.4819 83.2546 93.1228C83.5362 94.2844 83.478 96.024 83.2971 96.9182C82.6322 100.209 81.9805 101.4 82.2851 103.74C82.2162 101.268 82.9984 99.9902 83.6017 97.2453C83.8251 96.2188 83.9454 94.5388 83.4213 92.3973C83.0483 90.8729 82.7901 89.6133 83.1412 88.1308C83.392 87.072 84.0021 86.2348 85.0092 85.5751C86.2363 84.7653 86.9393 83.8382 87.2214 82.6499C87.328 82.2 87.35 81.7289 87.3417 81.2489C87.902 83.5893 87.878 85.4969 85.5421 87.3271C81.2467 90.6899 85.3632 96.0089 84.7134 98.2924C83.6017 102.207 83.2834 102.966 83.433 106.038C83.6051 109.563 84.9662 111.666 86.3326 112.392C86.3551 111.84 84.9955 108.588 86.2089 103.266C86.4426 106.212 87.9704 113.154 88.4138 113.34C95.4729 116.295 116.6 120.057 124.329 113.709C125.805 112.497 125.572 106.53 125.989 104.901C126.29 103.719 126.756 110.544 127.07 112.308C135.497 103.554 131.601 98.8979 130.962 98.016C130.205 96.9751 129.966 95.0311 132.075 86.7148C133.152 82.4764 128.064 84.4711 129.982 77.2951C131.133 72.9929 130.669 69.3059 128.536 66.6931C128.002 66.0391 127.503 65.1391 127.039 64.1041C126.981 63.9781 126.926 63.8521 126.871 63.7231C126.744 63.4291 126.619 63.1231 126.496 62.8111C126.627 62.9971 126.759 63.1801 126.892 63.3571C126.935 63.4141 126.978 63.4741 127.02 63.5281C127.837 64.6141 128.657 65.5381 129.442 66.2491C131.503 68.1121 132.098 71.6579 130.891 76.1644C129.717 80.5468 130.898 81.7139 131.847 82.6499C132.581 83.376 133.167 83.9493 132.969 85.6622C132.213 92.2259 134.672 94.6053 135.016 94.8124C134.43 94.1102 132.665 91.6684 133.316 85.7849ZM86.6538 77.1271C86.0627 73.8899 86.5971 70.9173 87.9948 67.8841C88.3038 67.2151 88.6768 66.5941 89.0738 65.9821C89.6893 65.0281 90.363 64.0891 90.9423 63.0211C90.4437 65.2321 89.7084 67.1731 88.9863 68.976V68.9788C87.8247 71.8739 86.7003 74.4089 86.6538 77.1271ZM118.276 52.3801C118.281 52.3951 118.286 52.4071 118.291 52.4221C118.281 52.3111 118.276 52.3021 118.276 52.3801Z" fill="#D6B45F"/>
<path d="M127.039 64.104C127.034 63.912 127.028 63.72 127.02 63.528C127.002 62.961 126.976 62.388 126.943 61.8091C126.926 61.518 126.907 61.227 126.888 60.936C126.087 49.086 119.791 39.408 109.67 40.0531C100.5 40.638 94.206 44.4691 92.0441 56.136C91.6882 58.0531 91.4443 60.1861 91.3186 62.547C91.3098 62.6971 91.3015 62.847 91.2947 63C91.171 65.6371 91.1964 68.16 91.3582 70.5573C91.5318 73.1671 91.8633 75.6268 92.3345 77.9218C92.7951 80.1778 93.3881 82.2748 94.098 84.2009C94.8831 86.3493 95.813 88.2844 96.8563 89.9849C96.9976 90.2188 97.1418 90.4444 97.288 90.6658C97.9357 91.656 98.6231 92.5618 99.3467 93.3751C102.501 96.936 106.311 98.7868 110.285 98.5769C113.752 98.3938 116.883 96.5884 119.475 93.4889C119.795 93.1084 120.108 92.7031 120.412 92.28C121.185 91.2062 121.903 90.0089 122.559 88.6951C123.724 86.3671 124.692 83.6791 125.425 80.6942C125.757 79.3618 126.039 77.9671 126.273 76.5209C126.886 72.7262 127.16 68.556 127.039 64.104ZM110.025 59.46C109.616 59.5141 109.206 59.583 108.79 59.6611C108.458 58.6051 107.685 56.1211 107.338 55.62C107.341 55.7461 106.939 58.215 107.088 60.045C104.335 60.762 101.536 61.9411 99.113 63.4141C99.1061 61.671 99.113 58.398 99.1682 57.462C99.0132 57.855 98.4823 59.8501 98.0765 61.704C97.9323 61.281 97.683 61.0141 97.2777 61.059C96.54 61.14 95.88 61.644 95.3886 62.412C95.3798 60.264 95.4468 58.704 95.6032 58.044C95.791 57.255 95.9919 56.526 96.2065 55.8571C95.6414 56.184 95.1359 56.5021 94.6993 56.799L94.1131 56.652C94.5311 54.399 95.0244 52.539 95.5417 51.8461C98.2261 48.2491 103.496 46.275 108.666 45.579C113.422 44.94 118.786 45.531 121.754 47.751C123.428 49.0051 125.755 56.922 126.584 61.176C126.094 60.282 125.62 59.298 125.168 58.2451C125.214 58.443 125.26 58.644 125.303 58.851C125.436 59.472 125.535 60.909 125.599 62.8861C124.853 62.253 124.1 61.68 123.291 61.1821C123.012 59.4421 122.28 55.863 121.974 55.599C121.966 56.0581 121.886 58.764 121.899 60.429C121.19 60.099 120.429 59.826 119.589 59.61C119.418 56.9611 118.75 53.607 118.291 52.422C118.332 52.863 118.465 54.906 118.788 59.4301C116.548 58.992 113.762 58.956 110.025 59.46ZM124.683 57.066C124.841 57.468 125.003 57.8611 125.168 58.2451C124.863 56.928 124.513 55.767 124.118 54.747C124.289 55.4941 124.478 56.274 124.683 57.066ZM121.914 50.862C122.753 51.855 123.49 53.127 124.118 54.747C123.825 53.4781 123.581 52.311 123.392 51.354C122.909 51.1651 122.416 51.003 121.914 50.862Z" fill="#D6B45F"/>
<path d="M125.6 62.8861C124.854 62.2531 124.101 61.6801 123.291 61.1821C123.013 59.4421 122.281 55.8631 121.975 55.5991C121.966 56.0581 121.887 58.7641 121.899 60.4291C121.191 60.0991 120.43 59.8261 119.589 59.6101C119.419 56.9611 118.75 53.6071 118.292 52.4221C118.281 52.3111 118.276 52.3021 118.276 52.3801C118.281 52.3951 118.287 52.4071 118.292 52.4221C118.333 52.8631 118.465 54.9061 118.789 59.4301C116.549 58.9921 113.763 58.9561 110.026 59.4601C109.617 59.5141 109.206 59.5831 108.79 59.6611C108.459 58.6051 107.685 56.1211 107.338 55.6201C107.341 55.7461 106.939 58.2151 107.089 60.0451C104.336 60.7621 101.537 61.9411 99.1138 63.4141C99.1069 61.6711 99.1138 58.3981 99.169 57.4621C99.0141 57.8551 98.4831 59.8501 98.0773 61.7041C97.9331 61.2811 97.6838 61.0141 97.278 61.0591C96.5408 61.1401 95.8808 61.6441 95.3894 62.4121C95.3806 60.2641 95.4476 58.7041 95.6041 58.0441C95.7913 57.2551 95.9927 56.5261 96.2073 55.8571C101.799 52.6291 113.214 48.4081 121.915 50.8621C122.754 51.8551 123.491 53.1271 124.118 54.7471C124.29 55.4941 124.479 56.2741 124.684 57.0661C124.842 57.4681 125.003 57.8611 125.169 58.2451C125.215 58.4431 125.261 58.6441 125.304 58.8511C125.437 59.4721 125.536 60.9091 125.6 62.8861Z" fill="#D6B45F"/>
<path d="M126.585 61.1761C126.095 60.282 125.621 59.298 125.169 58.245C124.864 56.9281 124.514 55.7671 124.119 54.7471C123.826 53.478 123.583 52.3111 123.393 51.354C122.91 51.165 122.417 51.0031 121.915 50.862C118.883 47.2681 114.539 47.313 109.373 47.586C102.816 47.9311 98.6433 48.237 96.2077 55.857C95.6425 56.1841 95.137 56.502 94.7004 56.7991L94.1143 56.6521C94.5323 54.3991 95.0255 52.5391 95.5428 51.846C98.2273 48.249 103.497 46.2751 108.667 45.5791C113.423 44.9401 118.787 45.5311 121.756 47.7511C123.43 49.005 125.757 56.922 126.585 61.1761Z" fill="#D6B45F"/>
<path d="M98.0773 61.7041C97.8455 62.7572 97.6544 63.7652 97.5962 64.4102C96.8228 64.9591 96.1041 65.5351 95.4598 66.1382C95.1762 66.4022 94.9063 66.6721 94.6516 66.9422C94.6296 66.9662 94.6091 66.9902 94.5866 67.0142C94.1534 67.4852 93.7667 67.9681 93.4367 68.4601C93.3233 68.6284 93.2148 68.7964 93.1155 68.9672C92.9469 69.2524 92.873 68.8382 92.873 67.9742C92.8745 67.0982 92.9537 65.7572 93.0965 64.2121C93.3111 61.8601 93.6704 59.0372 94.1139 56.6521L94.7 56.7991C95.1366 56.5022 95.6416 56.1841 96.2073 55.8572C95.9927 56.5262 95.7912 57.2551 95.604 58.0441C95.4475 58.7041 95.3806 60.2641 95.3894 62.4121C95.8807 61.6441 96.5407 61.1401 97.2779 61.0591C97.6837 61.0142 97.933 61.2812 98.0773 61.7041Z" fill="#D6B45F"/>
<path d="M123.393 51.3541C123.582 52.3111 123.826 53.4781 124.118 54.7471C123.491 53.1271 122.753 51.8551 121.915 50.8621C122.417 51.0031 122.91 51.1651 123.393 51.3541Z" fill="#D6B45F"/>
<path d="M124.117 54.7471C124.513 55.7671 124.863 56.928 125.167 58.245C125.003 57.861 124.841 57.468 124.683 57.066C124.478 56.274 124.289 55.494 124.117 54.7471Z" fill="#D6B45F"/>
<path d="M126.892 63.3571C126.897 63.5131 126.89 63.6361 126.871 63.7231C126.84 63.8821 126.77 63.9211 126.658 63.8191C126.303 63.4951 125.952 63.1831 125.6 62.8861C125.536 60.9091 125.436 59.4721 125.304 58.8511C125.261 58.6441 125.214 58.4431 125.168 58.2451C125.62 59.2981 126.094 60.2821 126.584 61.1761C126.768 62.1211 126.88 62.8861 126.892 63.3571Z" fill="#D6B45F"/>
<path opacity="0.16" d="M83.3203 204.541C83.3203 207.073 91.6789 209.126 101.99 209.126C112.3 209.126 120.659 207.073 120.659 204.541C120.659 202.009 112.3 199.956 101.99 199.956C91.6789 199.956 83.3203 202.009 83.3203 204.541Z" fill="black"/>
<path d="M103.888 106.996C106.345 106.906 109.681 107.294 112.333 107.984C112.2 110.227 111.065 115.037 108.06 114.797C104.617 114.521 103.843 110.239 103.888 106.996Z" fill="#E0956C"/>
<path d="M104.862 101.214L104.604 109.223C104.549 110.946 106.064 112.496 107.989 112.684C109.914 112.872 111.52 111.629 111.575 109.907L111.833 101.897L104.862 101.214Z" fill="#E0956C"/>
<path d="M87.6389 181.947C87.3573 182.866 90.1699 186.157 90.585 185.394C94.1871 178.786 97.4275 172.966 99.5732 169.084C100.799 166.867 100.62 163.284 99.2002 161.454C97.8811 159.753 96.019 160.283 95.0754 162.624C92.6979 168.528 88.5981 178.818 87.6389 181.947Z" fill="#FFC19F"/>
<path d="M106.562 201.174C106.652 202.174 109.934 201.846 110 200.832C110.854 187.68 112.969 156.658 113.149 153.361H105.572C105.572 153.361 106.122 196.308 106.562 201.174Z" fill="#FFC19F"/>
<path d="M84.6348 134.645C85.3226 136.309 86.3121 137.842 87.6473 137.22C92.0605 127.232 97.0511 121.612 100.929 118.053C100.047 116.995 95.9437 115.637 94.6849 116.563C89.9915 120.014 86.5346 127.754 84.6348 134.645Z" fill="#FFC19F"/>
<path d="M80.5684 141.283C81.5183 140.029 82.8197 137.883 85.5878 134.462C85.9041 134.071 87.3351 135.629 86.9845 135.942C84.9493 137.757 81.8077 143.298 80.5684 141.283Z" fill="#E0956C"/>
<path d="M78.9893 139.858C79.9397 138.604 81.8688 134.805 84.9449 132.895C85.3243 132.66 86.5968 134.411 86.2468 134.723C84.2116 136.539 80.0316 141.477 78.9893 139.858Z" fill="#E0956C"/>
<path d="M77.7168 136.944C78.6672 135.689 84.4537 130.253 87.5303 128.342C87.9096 128.107 89.1847 132.561 88.8757 133.544C88.9084 136.197 86.6732 138.154 85.4119 143.185C85.1943 144.053 84.6595 142.917 84.5896 142.494C84.4092 141.402 84.5832 141.067 84.6629 138.267C84.7113 136.561 83.6886 135.82 83.0359 135.867C80.2776 136.847 78.5083 138.384 77.7168 136.944Z" fill="#FFC19F"/>
<path d="M127.624 134.899C125.61 129.643 122.648 123.368 121.202 121.463C118.519 117.929 115.937 125.072 118.029 128.329C119.641 130.836 122.351 134.277 124.876 137.693C125.298 138.263 127.924 135.683 127.624 134.899Z" fill="#FFC19F"/>
<path d="M134.564 137.823C133.814 137.492 132.64 135.538 131.807 135.341C131.807 135.341 131.753 135.348 131.718 135.368C133.063 136.924 133.878 139.116 134.811 140.737C134.268 143.744 132.815 140.011 130.889 137.342C131.918 139.259 132.478 140.759 133.215 142.013C133.507 143.789 132.942 144.295 132.138 143.183C131.517 142.326 130.557 140.463 129.454 138.862C129.329 138.803 131.312 143.381 131.219 144.658C130.959 145.11 130.304 144.917 129.695 143.517C129.366 142.76 129.085 141.791 128.249 140.297C127.335 139.595 126.311 139.708 125.891 139.595C124.408 138.879 124.776 135.149 124.981 134.489C125.515 132.774 128.3 131.253 129.569 131.689C131.697 132.418 132.777 132.685 135.26 136.736C135.583 137.792 134.929 137.984 134.564 137.823Z" fill="#FFC19F"/>
<path d="M127.644 85.7143C126.9 91.7575 123.779 95.6311 121.37 95.1133C118.961 94.5956 118.411 89.6708 118.727 83.8601C119.045 78.0493 121.255 73.7431 123.664 74.2752C126.956 75.0041 128.343 80.0338 127.644 85.7143Z" fill="#F4B18C"/>
<path d="M125.763 75.5636C125.723 77.2621 125.668 78.9901 125.597 80.6941C125.402 85.5572 125.082 90.231 124.622 93.5252C124.422 94.9467 124.197 96.111 123.944 96.9236C122.26 102.333 115.363 107.136 113.26 107.247C111.301 107.352 101.526 103.83 99.1461 99.1137C98.9793 98.7839 98.8141 98.2977 98.6508 97.6772C98.2333 96.0836 97.8295 93.615 97.4599 90.6657C96.9906 86.9217 96.5784 82.407 96.2567 77.9368C96.047 75.015 95.8769 72.1076 95.7566 69.447C95.7053 68.2919 95.6622 67.1819 95.6309 66.1379C95.5884 64.7699 95.564 63.5129 95.5605 62.4119C96.0524 61.6439 96.7124 61.1399 97.4496 61.0589C97.8554 61.0139 98.1042 61.2809 98.249 61.7039C98.6542 59.8499 99.1857 57.8549 99.3401 57.4619C99.2854 58.3979 99.2785 61.6709 99.2854 63.4139C101.709 61.9409 104.507 60.7619 107.26 60.0449C107.111 58.2149 107.513 55.7459 107.509 55.6199C107.857 56.1209 108.63 58.6049 108.962 59.6609C109.378 59.5829 109.789 59.5139 110.197 59.4599C113.934 58.9559 116.72 58.9919 118.96 59.4299C118.637 54.9059 118.504 52.8629 118.463 52.4219C118.922 53.6069 119.59 56.9609 119.761 59.6099C120.601 59.8259 121.363 60.0989 122.071 60.4289C122.059 58.7639 122.138 56.0579 122.146 55.5989C122.452 55.8629 123.184 59.4419 123.463 61.1819C124.272 61.6799 125.025 62.2529 125.771 62.8859C125.871 66.0929 125.874 70.7156 125.763 75.5636Z" fill="#FFC19F"/>
<path d="M90.7095 88.9839C91.7846 95.2712 95.4018 99.0371 98.0472 98.2513C100.693 97.4648 99.9896 78.6275 95.1633 77.2842C91.1441 76.1658 89.6985 83.0737 90.7095 88.9839Z" fill="#FFC19F"/>
<path d="M115.185 142.095C115.185 142.095 116.033 160.708 116.733 166.639C110.838 171.56 93.9728 167.203 88.3877 153.254C89.2364 150.608 95.0703 140.844 96.3845 136.629L115.185 142.095Z" fill="#2A535E"/>
<path opacity="0.23" d="M93.6143 142.819C100.292 152.318 112.27 157.775 115.827 154.448C115.623 148.67 115.001 142.272 115.001 142.272L97.5234 135.153C96.816 136.577 94.7778 140.366 93.6143 142.819Z" fill="black"/>
<path d="M105.059 197.531C105.053 197.787 109.991 198.882 110.045 198.584C110.491 196.109 111.254 190.387 111.449 189.291L105.363 189.007C105.271 191.696 105.091 195.89 105.059 197.531Z" fill="#FFC76E"/>
<path d="M118.292 52.4222C118.287 52.4071 118.281 52.3951 118.276 52.3801C118.276 52.3022 118.281 52.3111 118.292 52.4222Z" fill="#752912"/>
<path d="M118.292 52.4222C118.287 52.4071 118.281 52.3951 118.276 52.3801C118.276 52.3022 118.281 52.3111 118.292 52.4222Z" fill="#FFC19F"/>
<path d="M125.167 58.245C125.003 57.861 124.841 57.468 124.683 57.066C124.478 56.274 124.289 55.494 124.117 54.7471C124.513 55.7671 124.863 56.928 125.167 58.245Z" fill="#FFC19F"/>
<path d="M111.684 88.2233C111.768 88.2192 111.84 88.1095 111.853 87.9593C111.935 86.8916 112.404 86.1806 113.047 86.147C113.694 86.1134 114.198 86.7867 114.301 87.8228C114.318 87.9895 114.409 88.1012 114.504 88.0724C114.599 88.043 114.663 87.8852 114.646 87.7186C114.514 86.3904 113.852 85.4935 113.037 85.536C112.226 85.5792 111.611 86.5193 111.505 87.877C111.493 88.0443 111.56 88.1979 111.656 88.2212L111.684 88.2233Z" fill="#C67F75"/>
<path d="M99.9959 69.8839C100.113 69.853 100.223 69.7495 100.303 69.5781C101.332 67.4005 103.55 66.2764 105.468 66.9697C105.733 67.0678 105.997 66.7669 106.053 66.2968C106.109 65.8294 105.937 65.3713 105.668 65.2738C103.38 64.4497 100.802 65.7976 99.5378 68.4796C99.3638 68.8485 99.3941 69.3936 99.6058 69.6974C99.7192 69.8606 99.8615 69.9202 99.9959 69.8839Z" fill="#8C2F22"/>
<path d="M124.469 68.0195C124.599 68.0429 124.735 67.973 124.839 67.8059C125.034 67.4957 125.048 66.9689 124.87 66.6284C123.578 64.1561 121.059 63.0821 118.882 64.0697C118.627 64.187 118.473 64.6421 118.54 65.087C118.607 65.5343 118.869 65.8013 119.123 65.684C120.948 64.8516 123.116 65.7398 124.164 67.7513C124.246 67.9088 124.355 67.9991 124.469 68.0195Z" fill="#8C2F22"/>
<path d="M118.292 52.4222C118.287 52.4071 118.281 52.3951 118.276 52.3801C118.276 52.3022 118.281 52.3111 118.292 52.4222Z" fill="#752912"/>
<path d="M121.914 50.862C113.214 48.408 101.798 52.629 96.207 55.857C98.6427 48.237 102.816 47.931 109.373 47.586C114.537 47.313 118.883 47.268 121.914 50.862Z" fill="#D6B45F"/>
<path d="M89.2363 66.6617C89.2363 66.6617 88.324 71.4775 89.9559 71.2978C91.5878 71.1175 92.8345 68.869 92.7402 66.2756C92.6468 63.6818 91.2476 61.7249 89.6162 61.9049C87.9842 62.0843 89.2363 66.6617 89.2363 66.6617Z" fill="#F9951E"/>
<path d="M97.6163 70.4517C96.8512 70.5361 96.1364 70.1493 95.5845 69.4471C95.1293 68.8711 94.7856 68.079 94.6116 67.158C94.6033 67.11 94.5945 67.062 94.5862 67.014C94.5363 66.714 94.5055 66.402 94.4933 66.081C94.481 65.739 94.4913 65.403 94.5241 65.076C94.6258 64.047 94.9367 63.117 95.3889 62.412C95.8802 61.644 96.5402 61.14 97.2775 61.059C97.6833 61.014 97.9326 61.281 98.0768 61.704C98.5114 62.982 97.9962 65.697 97.9962 65.697C97.9962 65.697 99.2492 70.2721 97.6163 70.4517Z" fill="#F9951E"/>
<path d="M94.701 66.1256C94.745 67.3577 94.2776 68.4125 93.6563 68.4809C93.0349 68.5496 92.4952 67.6058 92.4502 66.3734C92.4057 65.1407 92.8731 64.0865 93.4949 64.0178C94.1163 63.9494 94.656 64.8929 94.701 66.1256Z" fill="#F9951E"/>
<path d="M93.4858 88.538C93.7459 91.2061 95.5127 93.3675 96.7975 92.5508C97.2986 92.232 96.2641 82.9337 95.4555 82.981C94.0886 83.0599 93.2252 85.8699 93.4858 88.538Z" fill="#E0956C"/>
<path d="M117.328 81.9038C117.328 81.9038 122.036 84.563 123.637 79.3811C125.588 73.0663 122.158 68.5022 120.062 69.6288C118.122 70.6711 116.445 74.3555 117.328 81.9038Z" fill="#F9FEFF"/>
<path d="M123.74 71.5241C122.816 69.3696 121.645 68.7669 120.406 69.131C119.14 69.5033 117.908 71.485 117.604 73.4482C118.221 71.2135 119.377 70.3173 120.103 69.9278C121.257 69.3045 122.827 70.2631 123.587 72.397C124.262 74.2965 124.3 77.2265 123.585 79.5442C124.465 77.9356 124.703 73.7698 123.74 71.5241Z" fill="#773220"/>
<path d="M119.31 75.7282C118.956 77.9684 119.552 80.4219 120.644 81.2091C121.735 81.9956 122.907 80.8182 123.262 78.578C123.617 76.3385 123.02 73.8843 121.928 73.0971C120.838 72.3106 119.665 73.4886 119.31 75.7282Z" fill="#00576C"/>
<path d="M119.458 75.0316C119.359 75.6528 119.525 76.333 119.828 76.5518C120.13 76.7698 120.456 76.4434 120.554 75.8215C120.653 75.2003 120.487 74.5193 120.184 74.3006C119.882 74.0825 119.557 74.4096 119.458 75.0316Z" fill="#FEFFFE"/>
<path d="M109.078 82.6881C109.078 82.6881 103.693 86.2347 101.457 81.3894C98.7332 75.4854 102.482 70.2904 105.034 71.0084C107.394 71.6735 109.62 75.015 109.078 82.6881Z" fill="#F9FEFF"/>
<path d="M100.815 73.5992C101.763 71.2801 103.106 70.4558 104.594 70.5806C106.115 70.7075 107.702 72.4424 108.193 74.3349C107.314 72.2318 105.889 71.5626 105.006 71.3144C103.6 70.916 101.81 72.1701 101.055 74.4378C100.383 76.4545 100.531 79.3756 101.531 81.5425C100.384 80.1121 99.8265 76.0156 100.815 73.5992Z" fill="#773220"/>
<path d="M103.584 77.4418C103.146 79.6923 103.836 82.1349 105.126 82.8981C106.414 83.6619 107.814 82.4565 108.251 80.2066C108.688 77.9568 107.998 75.5143 106.709 74.7511C105.42 73.9872 104.021 75.1927 103.584 77.4418Z" fill="#00576C"/>
<path d="M103.763 76.7411C103.642 77.3651 103.833 78.0433 104.191 78.2552C104.548 78.4664 104.937 78.1324 105.058 77.5084C105.179 76.8844 104.988 76.2063 104.631 75.9944C104.273 75.7832 103.884 76.1171 103.763 76.7411Z" fill="#FEFFFE"/>
<path d="M86.9819 180.994C86.8939 181.21 90.7987 187.008 90.9405 186.805C92.1241 185.109 94.6286 180.926 95.1513 180.174L90.453 173.041C89.507 175.269 87.5388 179.611 86.9819 180.994Z" fill="#FCC275"/>
<path d="M112.497 196.291C112.441 195.717 112.301 194.979 112.197 194.309C112.121 193.811 109.43 193.42 109.357 194.571C109.338 194.866 109.33 195.128 109.33 195.366C108.87 195.294 108.372 195.197 107.847 195.071C106.707 194.8 105.69 194.458 104.981 194.133C104.83 195.947 104.741 199.118 104.583 201.137C104.583 201.137 116.347 207.141 118.41 204.434C118.991 203.672 116.198 199.348 112.497 196.291Z" fill="#E2511E"/>
<path d="M104.666 199.869C104.64 200.319 104.613 200.753 104.583 201.137C104.583 201.137 116.347 207.141 118.41 204.435C118.492 204.327 118.506 204.148 118.46 203.913C115.08 204.589 107.597 201.263 104.666 199.869Z" fill="#892910"/>
<path d="M113.302 197.025C113.392 197.073 113.486 196.991 113.515 196.838C113.544 196.683 113.496 196.517 113.407 196.466C112.726 196.081 111.882 196.502 111.355 197.498C111.292 197.617 111.296 197.804 111.365 197.914C111.391 197.956 111.423 197.981 111.456 197.99C111.508 198.002 111.564 197.971 111.603 197.897C112.044 197.064 112.743 196.701 113.302 197.025ZM114.181 197.926C114.271 197.972 114.362 197.861 114.382 197.702C114.402 197.543 114.344 197.386 114.253 197.351C113.527 197.073 112.775 197.427 112.188 198.315C112.118 198.422 112.11 198.608 112.171 198.73C112.199 198.786 112.237 198.82 112.276 198.829C112.322 198.84 112.371 198.817 112.409 198.76C113.102 197.713 113.816 197.787 114.181 197.926ZM115.18 198.337C114.53 198.021 113.649 198.403 113.034 199.262C112.962 199.363 112.95 199.548 113.008 199.675C113.036 199.736 113.075 199.773 113.117 199.783C113.161 199.793 113.207 199.774 113.245 199.721C113.78 198.974 114.543 198.625 115.09 198.903C115.183 198.95 115.273 198.854 115.298 198.698C115.322 198.542 115.269 198.379 115.18 198.337Z" fill="#D3DAE5"/>
<path d="M93.6759 187.39C93.823 186.85 93.9531 186.082 94.0924 185.409C94.1956 184.91 92.0542 181.812 91.6035 182.709C91.4881 182.938 91.3932 183.151 91.3131 183.352C90.9488 182.818 90.5607 182.225 90.1593 181.579C89.2876 180.177 88.544 178.843 88.0551 177.839C87.3154 179.216 86.17 181.803 85.3555 183.346C85.3555 183.346 93.2657 200.515 95.9218 200.351C96.6703 200.305 95.7703 193.78 93.6759 187.39Z" fill="#E2511E"/>
<path d="M85.8536 182.359C85.6796 182.714 85.5104 183.052 85.3555 183.346C85.3555 183.346 93.2657 200.515 95.9213 200.351C96.0269 200.345 96.0993 200.207 96.1404 199.961C93.0574 197.058 87.8581 186.551 85.8536 182.359Z" fill="#892910"/>
<path d="M94.1085 188.84C94.1677 188.972 94.2752 189 94.3515 188.899C94.4278 188.799 94.4434 188.608 94.3862 188.475C93.9408 187.45 93.0858 186.938 92.3045 187.238C92.2107 187.273 92.1515 187.435 92.172 187.598C92.1799 187.661 92.1989 187.716 92.2239 187.755C92.2644 187.821 92.3211 187.851 92.3793 187.829C93.0325 187.579 93.7453 187.991 94.1085 188.84ZM94.5476 190.506C94.6077 190.636 94.7226 190.635 94.7925 190.522C94.8629 190.407 94.8673 190.216 94.8018 190.094C94.2831 189.112 93.5277 188.638 92.7328 188.785C92.638 188.803 92.568 188.952 92.5783 189.118C92.5827 189.194 92.6037 189.261 92.6331 189.309C92.6688 189.366 92.7176 189.397 92.769 189.388C93.7072 189.215 94.2855 190.013 94.5476 190.506ZM95.2525 191.879C94.8106 190.944 93.9364 190.362 93.1273 190.454C93.0315 190.464 92.9596 190.609 92.9655 190.776C92.9684 190.856 92.9895 190.928 93.0212 190.978C93.0545 191.033 93.1004 191.064 93.1503 191.059C93.8548 190.978 94.617 191.467 94.9856 192.266C95.0472 192.4 95.1562 192.413 95.2295 192.306C95.3034 192.198 95.3141 192.008 95.2525 191.879Z" fill="#D3DAE5"/>
<path d="M93.4766 140.67C104.236 154.011 116.17 150.525 117.624 148.838C118.078 129.37 117.216 115.404 114.275 108.828C109.261 106.227 101.808 106.598 98.585 108.241C101.39 125.899 95.7362 135.198 93.4766 140.67Z" fill="#28AFC6"/>
<path d="M92.0645 114.427C93.0193 118.906 94.3466 124.753 95.8093 126.523C101.747 121.575 102.599 111.221 98.595 108.204C95.648 111.591 92.0645 114.427 92.0645 114.427Z" fill="#28AFC6"/>
<path d="M115.62 126.69C117.713 126.896 121.688 124.393 122.722 123.629C121.481 119.961 119.253 112.367 118.148 110.591C117.002 108.746 114.241 108.119 113.205 108.026C113.624 114.348 115.62 126.69 115.62 126.69Z" fill="#28AFC6"/>
<path fill-rule="evenodd" clip-rule="evenodd" d="M116.624 96.1144C116.357 97.0607 115.359 98.7599 113.358 98.773C111.616 98.7846 110.396 97.2507 109.926 96.0822C109.64 95.3704 109.675 94.6751 109.974 95.173C112.579 99.4943 115.681 96.9044 116.329 95.8162C116.574 95.4047 116.786 95.5385 116.624 96.1144Z" fill="#B13B32"/>
</svg>
