<svg width="220" height="240" viewBox="0 0 220 240" fill="none" xmlns="http://www.w3.org/2000/svg">
<path opacity="0.14" fill-rule="evenodd" clip-rule="evenodd" d="M106.835 86.603L110.367 88.0876L110.665 96.5349L108.745 97.4839L106.734 97.3585L106.835 86.603Z" fill="#020202"/>
<path fill-rule="evenodd" clip-rule="evenodd" d="M106.757 86.603L111.628 88.0876L112.039 96.5349L109.391 97.4839L106.618 97.3585L106.757 86.603Z" fill="#E8935A"/>
<path fill-rule="evenodd" clip-rule="evenodd" d="M108.339 143.541C107.057 138.546 101.478 138.695 101.558 150.78C101.558 151.06 101.559 151.344 101.565 151.638C101.63 154.8 101.654 159.029 101.653 163.592C101.649 177.213 101.431 193.66 101.431 193.66C101.431 193.66 100.879 196.788 102.263 198.023C103.647 199.258 107.319 198.148 106.791 193.66C106.791 193.66 107.254 181.798 107.699 173.08C107.704 173.08 107.709 173.081 107.714 173.081C107.746 172.47 107.777 171.874 107.809 171.3C108.138 165.206 108.895 156.766 108.888 150.482C108.895 147.598 108.749 145.143 108.339 143.541Z" fill="#FFB685"/>
<path fill-rule="evenodd" clip-rule="evenodd" d="M132.328 146.968C131.619 144.159 128.553 138.387 128.553 138.387C128.553 138.387 127.693 124.4 125.655 115.65C123.617 106.899 120.273 102.003 120.273 102.003C119.186 100.146 117.406 99.8784 116.01 102.797C115.966 102.888 115.925 102.981 115.886 103.075C115.498 104.014 115.347 105.084 115.348 106.151C115.35 108.389 116.024 110.607 116.596 111.55C116.758 111.818 116.917 112.083 117.073 112.348C117.162 112.498 117.248 112.647 117.335 112.797C117.402 112.912 117.471 113.028 117.537 113.144C117.614 113.277 117.688 113.411 117.764 113.544C117.839 113.676 117.914 113.808 117.987 113.939C118.05 114.051 118.11 114.163 118.171 114.275C118.256 114.428 118.34 114.581 118.422 114.733C118.472 114.827 118.521 114.921 118.571 115.015C118.661 115.184 118.752 115.354 118.839 115.524C118.881 115.605 118.921 115.685 118.963 115.766C119.056 115.949 119.15 116.132 119.24 116.314C119.275 116.385 119.309 116.455 119.344 116.525C119.438 116.719 119.533 116.911 119.624 117.104C119.654 117.167 119.683 117.23 119.713 117.294C119.807 117.494 119.9 117.695 119.991 117.896C122.764 124.02 124.057 130.441 124.323 140.713C124.323 140.713 123.255 144.566 123.569 146.946C123.769 148.391 124.1 148.506 124.339 148.213C124.582 147.911 125.021 145.332 125.189 145.048L126.663 148.181C127.145 149.319 127.424 153.113 128.239 153.124C129.056 153.135 128.575 149.38 128.285 147.91C128.775 148.929 129.619 153.738 130.233 153.019C130.848 152.302 130.064 149.209 129.332 146.813C130.771 150.046 130.809 152.069 131.483 151.465C132.159 150.861 130.885 146.606 130.602 145.714C131.013 146.35 131.541 147.992 131.823 148.577C132.491 149.957 132.822 148.921 132.328 146.968Z" fill="#FFB685"/>
<path fill-rule="evenodd" clip-rule="evenodd" d="M114.379 96.5431C113.872 95.9026 112.967 95.5646 111.999 95.4178L111.781 90.9244C114.575 90.5829 117.198 89.1141 119.154 86.3719C118.681 87.0069 118.155 87.5589 117.589 88.03C119.01 86.7477 120.226 84.9902 121.114 82.7184C123.343 77.0208 123.822 67.9296 123.097 58.6302C122.019 44.7762 115.029 38.1309 108.4 38.7624C106.91 38.9046 105.524 39.3312 104.251 39.9996C101.403 40.764 99.2448 42.2586 98.4963 43.6974C98.0817 44.4939 97.6114 46.146 97.2105 48.273C95.1088 53.0877 94.2552 59.2161 94.9054 65.451C92.703 66.1197 92.4126 71.544 94.1242 73.8384C93.9403 73.7554 93.7575 73.6498 93.5761 73.5237C94.0019 74.2567 94.5969 75.2517 95.4598 75.1296C96.6551 83.208 101.464 88.5854 106.704 90.36L106.628 96.2866C105.833 96.6693 105.13 97.1541 104.682 97.7239C105.674 98.3356 107.627 99.816 109.53 99.816C111.434 99.816 113.577 98.3616 114.379 96.5431Z" fill="#FFB685"/>
<path fill-rule="evenodd" clip-rule="evenodd" d="M100.05 117.868C100.423 117.115 100.82 116.369 101.242 115.622C101.917 114.448 102.653 113.269 103.457 112.059C103.526 111.955 103.598 111.832 103.669 111.696C104.573 110.266 105.743 106.042 104.444 103.061C103.126 100.033 101.341 100.161 100.207 101.928C100.207 101.928 99.6631 102.655 98.8672 104.06C97.6538 106.15 95.7363 109.995 94.3014 115.431C92.0369 124.009 90.8113 137.914 90.8113 137.914C90.8113 137.914 87.5978 143.435 86.8151 146.185C86.2714 148.098 86.5741 149.159 87.2776 147.833C87.5753 147.272 88.1449 145.673 88.5726 145.069C88.2666 145.938 86.8835 150.089 87.5411 150.745C88.1996 151.402 88.2901 149.383 89.813 146.268C89.018 148.603 88.1542 151.631 88.7496 152.397C89.3451 153.164 90.3131 148.427 90.8298 147.447C90.5013 148.893 89.9239 152.604 90.7379 152.66C91.5534 152.714 91.9323 148.947 92.4427 147.848L93.9983 144.837C94.1577 145.133 94.5273 147.744 94.7644 148.066C94.9947 148.378 95.3281 148.289 95.5652 146.861C95.9412 144.509 94.9766 140.573 94.9766 140.573C95.5183 130.172 97.0163 123.824 100.04 117.848C100.043 117.854 100.046 117.861 100.05 117.868Z" fill="#FFB685"/>
<path fill-rule="evenodd" clip-rule="evenodd" d="M119.703 169.394C119.702 169.257 119.701 169.12 119.7 168.982C119.697 168.627 119.695 168.274 119.692 167.919C119.692 167.88 119.692 167.842 119.692 167.803C119.689 167.347 119.686 166.893 119.684 166.439C119.684 166.435 119.684 166.43 119.684 166.426C119.66 161.796 119.66 157.321 119.706 153.728C119.707 153.707 119.707 153.685 119.707 153.664C119.711 153.332 119.716 153.009 119.721 152.693C119.722 152.647 119.723 152.601 119.724 152.555C119.729 152.244 119.734 151.939 119.74 151.645C119.74 151.643 119.74 151.641 119.74 151.639C119.999 139 114.268 138.769 112.966 143.842C111.751 148.58 112.855 160.776 113.393 169.506C113.413 169.83 113.432 170.15 113.451 170.464C113.467 170.747 113.482 171.026 113.498 171.3C113.525 171.826 113.554 172.37 113.583 172.925C114.027 181.653 114.446 193.71 114.446 193.71L116.57 200.4L120.001 193C120.001 193 119.798 181.795 119.709 170.303C119.707 170 119.704 169.697 119.703 169.394Z" fill="#FFB685"/>
<path fill-rule="evenodd" clip-rule="evenodd" d="M98.5227 202.619H108.453C108.758 202.619 109.006 203.054 109.006 203.586C109.006 204.117 108.757 204.552 108.453 204.552H98.5227C98.2191 204.552 97.9688 204.117 97.9688 203.586C97.9688 203.054 98.2181 202.619 98.5227 202.619Z" fill="#364B70"/>
<path fill-rule="evenodd" clip-rule="evenodd" d="M101.576 197.368C101.418 197.447 101.241 197.34 101.18 197.127C101.119 196.914 101.197 196.675 101.355 196.595C101.835 196.351 102.573 196.178 103.276 196.241C103.85 196.293 104.411 196.501 104.822 196.947C104.955 197.091 104.978 197.353 104.872 197.53C104.767 197.707 104.573 197.734 104.44 197.589C104.138 197.262 103.699 197.107 103.242 197.066C102.626 197.01 101.988 197.157 101.576 197.368Z" fill="#E0F4FF"/>
<path fill-rule="evenodd" clip-rule="evenodd" d="M101.434 193.709L101.174 186.158C102.688 186.206 105.186 186.214 107.246 186.206C107.016 190.6 106.858 193.668 106.858 193.668C107.385 198.157 103.494 200.061 102.11 198.828C100.726 197.593 101.147 194.061 101.434 193.709Z" fill="#F2FAFF"/>
<path fill-rule="evenodd" clip-rule="evenodd" d="M120.002 192.96C120.002 192.96 120.159 190.109 120.121 186.168C118.202 186.191 115.881 186.198 114.021 186.18C114.247 190.504 114.415 193.674 114.415 193.674L116.57 200.4L120.002 192.96Z" fill="#F2FAFF"/>
<path fill-rule="evenodd" clip-rule="evenodd" d="M101.263 193.589C100.742 193.776 98.0926 199.15 98.3361 202.8H108.743C108.743 202.8 108.936 198.628 106.687 193.548C102.551 195.638 101.061 194.52 101.263 193.589Z" fill="#546C96"/>
<path fill-rule="evenodd" clip-rule="evenodd" d="M114.449 193.549C114.449 193.549 113.518 194.704 113.302 197.621C113.084 200.538 113.515 202.844 113.515 202.844L124.755 203.591L126.039 202.582C126.394 197.464 121.507 194.373 120.002 192.84C119.604 194.031 115.632 197.639 114.449 193.549Z" fill="#546C96"/>
<path fill-rule="evenodd" clip-rule="evenodd" d="M124.356 197.298C124.222 197.112 124.082 196.932 123.941 196.755C123.532 197.109 123.172 197.554 122.941 197.94C122.844 198.101 122.85 198.35 122.955 198.492C123.061 198.634 123.224 198.617 123.322 198.455C123.551 198.073 123.931 197.623 124.356 197.298Z" fill="#E0F4FF"/>
<path fill-rule="evenodd" clip-rule="evenodd" d="M123.385 196.109C123.236 195.946 123.084 195.786 122.933 195.634C122.663 195.915 122.429 196.224 122.263 196.502C122.165 196.666 122.172 196.913 122.276 197.056C122.381 197.198 122.546 197.18 122.643 197.019C122.817 196.726 123.081 196.395 123.385 196.109Z" fill="#E0F4FF"/>
<path fill-rule="evenodd" clip-rule="evenodd" d="M113.515 202.619H125.912C126.217 202.619 126.465 203.054 126.465 203.586C126.465 204.117 126.215 204.552 125.912 204.552H113.515C113.211 204.552 112.961 204.117 112.961 203.586C112.961 203.054 113.21 202.619 113.515 202.619Z" fill="#364B70"/>
<path fill-rule="evenodd" clip-rule="evenodd" d="M100.438 139.612C100.084 150.418 100.361 166.421 100.274 170.081L109.161 170.088L109.457 150.933C110.022 150.927 110.538 150.858 111.104 150.852L111.701 170.1L121.123 169.497C121.186 160.188 120.748 149.569 120.561 139.604C120.561 139.604 103.537 129.767 100.438 139.612Z" fill="#546C96"/>
<path fill-rule="evenodd" clip-rule="evenodd" d="M123.261 106.924C122.391 109.81 119.1 113.274 116.675 114.386C113.122 109.459 110.633 98.8773 114.943 97.4291C115.355 97.2913 115.264 96.3374 115.724 96.5898C118.222 97.9626 121.794 102.103 123.261 106.924Z" fill="#0DA18D"/>
<path fill-rule="evenodd" clip-rule="evenodd" d="M96.5859 106.893C97.3799 109.844 100.577 113.567 102.97 114.872C106.648 110.233 109.412 99.8613 105.143 98.0702C104.735 97.8988 104.852 96.9532 104.385 97.1692C101.854 98.3418 98.1773 102.193 96.5859 106.893Z" fill="#0DA18D"/>
<path fill-rule="evenodd" clip-rule="evenodd" d="M123.259 106.924C121.564 110.339 119.409 113.034 116.916 114.013L118.091 117.567C119.469 117.133 123.768 113.064 124.473 110.206L123.259 106.924Z" fill="#41D1BE"/>
<path fill-rule="evenodd" clip-rule="evenodd" d="M96.5866 106.893C98.1906 110.438 100.274 113.303 102.737 114.479L101.472 117.937C100.106 117.393 95.9173 112.984 95.2881 110.073L96.5866 106.893Z" fill="#41D1BE"/>
<path fill-rule="evenodd" clip-rule="evenodd" d="M100.438 139.612C100.438 139.612 100.962 111.201 101.338 105.843C101.671 101.101 103.061 98.3238 105.216 96.9633C107.133 100.611 112.301 100.713 113.954 95.9663C116.742 96.6287 118.636 98.9245 118.917 105.489C119.263 113.563 120.542 139.583 120.542 139.583C121.113 139.831 108.517 143.842 100.438 139.612Z" fill="#0DA18D"/>
<path fill-rule="evenodd" clip-rule="evenodd" d="M105.409 96.5692C106.599 98.1793 108.138 99.2661 109.542 99.1873C111.534 99.0762 113.245 97.3708 113.801 95.673L115.643 96.5877C113.687 103.402 106.017 103.888 103.42 97.7185C103.695 97.5395 104.402 97.0766 105.409 96.5692Z" fill="#41D1BE"/>
<path fill-rule="evenodd" clip-rule="evenodd" d="M96.757 69.7858C97.0175 69.8421 97.6052 69.7371 97.658 64.4937C97.7025 60.1872 97.615 56.2212 99.506 51.3204C100.925 53.3784 114.398 59.5968 110.999 52.9143C110.999 52.9143 114.05 56.7678 115.276 56.9853C116.502 57.2034 115.11 51.0954 115.11 51.0954C117.967 57.7281 126.361 62.6046 123.275 54.0495C125.202 57.9204 124.395 42.2337 116.338 37.0686C112.062 34.329 102.031 34.5975 98.648 41.5283C98.648 41.5283 98.8225 36.7623 98.0584 37.1049C97.2947 37.4481 97.4297 41.9025 97.4297 41.9025C97.4297 41.9025 96.5296 39.681 96.3263 40.6974C96.1224 41.7138 96.9985 42.7773 96.9985 42.7773C96.9985 42.7773 92.9642 46.7973 92.5535 54.4995C92.1418 62.202 93.8138 66.4185 93.8138 66.4185C96.2583 64.1445 96.2862 69.6843 96.757 69.7858Z" fill="black"/>
<path opacity="0.3" fill-rule="evenodd" clip-rule="evenodd" d="M114.212 73.7329C113.887 77.3816 110.608 76.6184 110.593 73.9277C110.959 74.2205 111.391 74.6531 112.11 74.7279C112.729 74.7944 113.617 74.6051 114.212 73.7329Z" fill="black"/>
<path opacity="0.5" fill-rule="evenodd" clip-rule="evenodd" d="M124.524 91.4332C124.199 95.0819 120.921 94.3187 120.905 91.6273C121.272 91.9201 121.704 92.3528 122.423 92.4282C123.042 92.4947 123.93 92.3055 124.524 91.4332Z" fill="white"/>
<path fill-rule="evenodd" clip-rule="evenodd" d="M115.298 82.2815C114.977 81.3365 113.867 79.6908 111.801 79.8849C110.001 80.0536 108.815 81.7569 108.385 83.0083C108.123 83.7702 108.192 84.4806 108.478 83.9388C110.962 79.2239 114.287 81.5663 115.007 82.6188C115.28 83.0152 115.493 82.8554 115.298 82.2815Z" fill="#B13B32"/>
<path d="M108.121 69.2674C108.121 69.2674 107.641 69.6425 106.947 69.9737C106.083 70.4098 104.878 70.7849 103.854 70.3131C103.439 70.1389 103.055 69.8256 102.73 69.3202C100.576 65.9526 102.985 62.2992 104.803 62.4558C106.482 62.6043 108.181 64.437 108.121 69.2674Z" fill="#F9FEFF"/>
<path d="M101.954 64.5476C102.522 62.9976 103.428 62.3333 104.475 62.2412C105.545 62.1509 106.729 63.0504 107.151 64.1712C106.449 62.9636 105.422 62.7081 104.793 62.6534C103.793 62.5632 102.591 63.5459 102.157 65.0414C101.771 66.3716 101.996 68.1723 102.787 69.4052C101.925 68.6455 101.363 66.1622 101.954 64.5476Z" fill="black"/>
<path d="M105.995 68.4135C106.13 68.8128 106.055 69.3284 105.826 69.5636C105.597 69.8002 105.302 69.6672 105.167 69.2688C105.031 68.8683 105.107 68.3538 105.336 68.1171C105.565 67.8822 105.86 68.0133 105.995 68.4135Z" fill="#FEFFFE"/>
<path d="M120.742 69.8173C120.567 70.1136 120.367 70.3467 120.152 70.5222C119.158 71.3945 117.844 71.1764 116.85 70.7828C116.006 70.4633 115.386 70.0265 115.386 70.0265C115.226 65.2304 116.875 63.3278 118.544 63.1013C120.347 62.8493 122.815 66.3632 120.742 69.8173Z" fill="#F9FEFF"/>
<path d="M121.416 65.0327C120.821 63.5205 119.906 62.9054 118.864 62.8661C117.798 62.8271 116.64 63.779 116.243 64.9151C116.917 63.6804 117.931 63.3752 118.555 63.2903C119.548 63.1524 120.762 64.0703 121.225 65.5334C121.635 66.8364 121.448 68.6372 120.688 69.9023C121.53 69.1055 122.037 66.6084 121.416 65.0327Z" fill="black"/>
<path d="M119.174 69.4663C119.241 69.9127 119.088 70.3694 118.832 70.4853C118.576 70.6032 118.315 70.3351 118.248 69.8873C118.181 69.4409 118.334 68.9856 118.59 68.8683C118.846 68.7525 119.107 69.0199 119.174 69.4663Z" fill="#FEFFFE"/>
<path fill-rule="evenodd" clip-rule="evenodd" d="M101.379 197.975C101.221 198.055 101.043 197.947 100.983 197.734C100.922 197.521 101 197.282 101.157 197.202C101.638 196.958 102.375 196.786 103.079 196.849C103.652 196.901 104.214 197.109 104.625 197.554C104.758 197.698 104.78 197.96 104.675 198.137C104.569 198.314 104.377 198.341 104.243 198.197C103.941 197.87 103.503 197.715 103.045 197.674C102.428 197.619 101.79 197.765 101.379 197.975Z" fill="#E0F4FF"/>
<path fill-rule="evenodd" clip-rule="evenodd" d="M101.379 200.076C101.221 200.155 101.043 200.048 100.983 199.834C100.922 199.621 101 199.382 101.157 199.303C101.638 199.058 102.375 198.885 103.079 198.948C103.652 199.001 104.214 199.209 104.625 199.654C104.758 199.798 104.78 200.059 104.675 200.237C104.569 200.414 104.377 200.441 104.243 200.297C103.941 199.97 103.503 199.815 103.045 199.774C102.428 199.718 101.79 199.865 101.379 200.076Z" fill="#E0F4FF"/>
<path fill-rule="evenodd" clip-rule="evenodd" d="M101.207 62.1632C102.248 60.7997 104.128 60.5045 105.023 60.5853C106.717 60.7367 106.036 58.925 105.227 58.7273C103.701 58.3517 101.877 59.49 100.874 61.0893C100.083 62.3543 99.966 63.7908 101.207 62.1632Z" fill="black"/>
<path fill-rule="evenodd" clip-rule="evenodd" d="M121.405 63.0972C120.625 61.5012 118.921 60.7533 118.081 60.6132C116.489 60.348 117.367 58.734 118.145 58.7373C119.611 58.7421 121.148 60.3036 121.86 62.1219C122.421 63.5565 122.335 64.998 121.405 63.0972Z" fill="black"/>
<path d="M106.715 64.9233C107.28 66.5902 106.964 68.7429 106.008 69.7283C105.053 70.7143 103.82 70.163 103.255 68.4945C102.69 66.8278 103.006 64.6765 103.961 63.6901C104.917 62.7033 106.15 63.2548 106.715 64.9233Z" fill="black"/>
<path d="M106.546 67.0123C106.677 67.3996 106.604 67.8966 106.382 68.1259C106.161 68.3548 105.876 68.2264 105.745 67.8394C105.613 67.4539 105.687 66.9565 105.909 66.7273C106.129 66.4984 106.415 66.6268 106.546 67.0123Z" fill="#FEFFFE"/>
<path d="M120.231 66.5311C120.502 68.3496 119.878 70.2103 118.836 70.6848C117.793 71.1607 116.728 70.0704 116.455 68.2506C116.183 66.4323 116.808 64.5708 117.85 64.0965C118.892 63.6207 119.958 64.7112 120.231 66.5311Z" fill="black"/>
<path d="M119.421 67.8222C119.486 68.2537 119.338 68.6949 119.091 68.8087C118.843 68.9205 118.59 68.662 118.526 68.2293C118.461 67.7992 118.609 67.3578 118.857 67.2444C119.104 67.132 119.357 67.3908 119.421 67.8222Z" fill="#FEFFFE"/>
</svg>
