<svg width="220" height="240" viewBox="0 0 220 240" fill="none" xmlns="http://www.w3.org/2000/svg">
<path fill-rule="evenodd" clip-rule="evenodd" d="M106.79 172.536C106.046 177.636 103.696 172.176 103.696 172.176C105.006 172.176 106.064 168.429 106.064 163.8C106.235 164.19 106.379 164.418 106.379 164.418C107.182 165.72 106.79 172.536 106.79 172.536Z" fill="#364B70"/>
<path fill-rule="evenodd" clip-rule="evenodd" d="M117.269 172.032C116.294 175.731 115.371 174.534 115.371 174.534C113.596 175.335 114.383 165.456 114.383 165.456C114.407 165.114 114.642 164.421 114.811 163.962C114.908 163.695 114.984 163.506 114.984 163.506V163.5H114.983C114.983 163.8 114.984 163.854 114.986 164.022C114.986 164.121 114.984 164.229 114.984 164.328V164.337C114.984 164.406 114.991 164.472 115 164.538C114.996 164.472 114.994 164.406 114.994 164.34C114.998 164.412 115 164.487 115.001 164.559C115.001 164.553 115 164.547 115 164.541C115 164.55 115 164.556 115.001 164.565C115.003 164.637 115.005 164.709 115.01 164.778C115.019 165.038 115.033 165.294 115.051 165.546C115.198 167.772 115.587 169.646 116.114 170.798C116.203 170.997 116.297 171.174 116.396 171.326C116.397 171.33 116.397 171.33 116.399 171.333C116.402 171.339 116.406 171.345 116.409 171.351C116.435 171.393 116.461 171.432 116.489 171.468C116.504 171.486 116.518 171.507 116.532 171.523C116.552 171.552 116.573 171.576 116.593 171.6C116.621 171.636 116.648 171.667 116.676 171.693C116.686 171.706 116.696 171.717 116.707 171.726C116.727 171.747 116.748 171.768 116.769 171.783C116.801 171.813 116.832 171.84 116.864 171.861C116.875 171.87 116.885 171.876 116.896 171.883C116.925 171.903 116.952 171.922 116.981 171.936C116.983 171.936 116.983 171.936 116.985 171.939C117.013 171.955 117.04 171.966 117.067 171.979C117.097 171.987 117.127 171.999 117.157 172.009C117.194 172.02 117.231 172.026 117.269 172.032Z" fill="#364B70"/>
<path fill-rule="evenodd" clip-rule="evenodd" d="M106.62 172.236C105.875 177.336 103.526 171.876 103.526 171.876C104.836 171.876 105.895 168.129 105.895 163.5C106.065 163.89 106.209 164.118 106.209 164.118C107.012 165.42 106.62 172.236 106.62 172.236Z" fill="#546C96"/>
<path fill-rule="evenodd" clip-rule="evenodd" d="M117.44 171.732C116.465 175.43 115.542 174.234 115.542 174.234C113.767 175.035 114.554 165.156 114.554 165.156C114.578 164.813 114.813 164.121 114.982 163.662C115.08 163.395 115.156 163.205 115.156 163.205V163.2H115.154C115.154 163.5 115.156 163.554 115.157 163.722C115.157 163.821 115.156 163.929 115.156 164.028V164.037C115.156 164.106 115.162 164.172 115.171 164.238C115.168 164.172 115.166 164.106 115.166 164.04C115.169 164.112 115.171 164.187 115.173 164.259C115.173 164.253 115.171 164.247 115.171 164.241C115.171 164.25 115.171 164.256 115.173 164.265C115.175 164.337 115.176 164.409 115.181 164.477C115.19 164.739 115.204 164.994 115.223 165.245C115.369 167.472 115.759 169.347 116.285 170.499C116.374 170.697 116.469 170.874 116.567 171.027C116.568 171.029 116.568 171.029 116.57 171.033C116.574 171.038 116.577 171.045 116.581 171.051C116.606 171.093 116.632 171.132 116.659 171.168C116.675 171.186 116.689 171.207 116.702 171.222C116.723 171.252 116.744 171.276 116.764 171.3C116.792 171.336 116.819 171.366 116.847 171.394C116.857 171.405 116.867 171.418 116.878 171.426C116.898 171.447 116.919 171.468 116.939 171.483C116.972 171.514 117.003 171.54 117.036 171.562C117.046 171.57 117.056 171.576 117.067 171.582C117.096 171.603 117.123 171.621 117.153 171.636C117.155 171.636 117.155 171.636 117.156 171.639C117.183 171.654 117.211 171.666 117.239 171.678C117.268 171.687 117.299 171.699 117.328 171.708C117.366 171.72 117.402 171.726 117.44 171.732Z" fill="#546C96"/>
<path fill-rule="evenodd" clip-rule="evenodd" d="M100.92 101C100.92 101 97.4064 100.724 93.4645 103.978C89.5231 107.232 84.6445 114.715 84.6445 114.715C84.6445 114.715 81.0228 115.223 79.7243 116.215C78.8218 116.905 78.6942 117.835 79.5214 117.651C79.872 117.573 80.6977 117.1 81.1411 117.113C80.6938 117.374 78.6092 118.687 78.8218 119.688C79.033 120.688 79.6872 119.524 81.5508 118.974C80.3687 119.699 78.9372 120.789 79.078 121.799C79.2183 122.81 81.2208 120.759 81.83 120.621C81.1988 121.217 79.7409 122.988 80.2288 123.759C80.7163 124.528 82.0666 122.541 82.7075 122.325L84.5609 121.869C84.5721 122.196 84.0275 124.145 84.0774 124.555C84.1272 124.956 84.36 125.203 84.9295 124.535C85.8589 123.422 86.4289 120.119 86.4289 120.119C90.9492 112.269 94.3993 110.306 100.121 110.164C101.087 110.138 103.12 108.586 103.202 105.526C103.285 102.466 102.145 100.932 100.92 101Z" fill="#FFB685"/>
<path fill-rule="evenodd" clip-rule="evenodd" d="M117.997 100.1C117.997 100.1 121.511 99.8236 125.453 103.078C129.394 106.332 134.273 113.815 134.273 113.815C134.273 113.815 137.895 114.324 139.193 115.315C140.096 116.006 140.223 116.935 139.396 116.751C139.045 116.673 138.22 116.199 137.776 116.213C138.224 116.473 140.308 117.787 140.096 118.788C139.884 119.788 139.23 118.623 137.366 118.074C138.549 118.799 139.98 119.889 139.839 120.899C139.699 121.91 137.696 119.859 137.088 119.721C137.719 120.317 139.176 122.088 138.688 122.858C138.201 123.628 136.851 121.642 136.21 121.424L134.357 120.968C134.345 121.296 134.89 123.244 134.84 123.655C134.79 124.056 134.558 124.303 133.988 123.636C133.059 122.521 132.489 119.22 132.489 119.22C127.968 111.369 124.518 109.406 118.796 109.263C117.83 109.238 115.798 107.685 115.715 104.626C115.632 101.566 116.772 100.032 117.997 100.1Z" fill="#FFB685"/>
<path fill-rule="evenodd" clip-rule="evenodd" d="M115.346 157.612C115.346 157.612 115.741 160.415 115.911 160.607C116.08 160.8 121.983 160.764 121.983 160.764C121.983 160.764 121.924 158.85 121.688 157.612C121.451 156.375 115.346 157.612 115.346 157.612Z" fill="#FFB685"/>
<path fill-rule="evenodd" clip-rule="evenodd" d="M98.7702 157.425C98.7702 157.425 98.7095 160.238 98.8225 160.5C98.9349 160.762 105.306 160.5 105.418 160.2C105.531 159.9 105.201 157.982 105.464 157.425C105.727 156.867 98.7702 157.425 98.7702 157.425Z" fill="#FFB685"/>
<path fill-rule="evenodd" clip-rule="evenodd" d="M105.894 163.5C105.894 168.129 104.835 171.876 103.525 171.876C100.49 171.774 99.2867 167.724 99.2867 167.724C98.7538 166.284 98.6854 163.377 98.8486 159.9H105.466C105.419 160.128 105.4 160.353 105.382 160.572C105.277 161.799 105.619 162.864 105.894 163.5Z" fill="#FFB685"/>
<path fill-rule="evenodd" clip-rule="evenodd" d="M121.986 160.2C121.986 160.2 121.986 160.326 121.985 160.425C121.976 162.987 121.856 164.346 121.856 164.346C121.445 171.414 118.231 171.744 117.563 171.738V171.735L115.192 163.194C116.029 162.297 116.016 161.325 115.736 160.362C115.729 160.338 115.844 160.301 115.672 160.28V160.2H121.986Z" fill="#FFB685"/>
<path d="M117.563 171.735V171.738C117.563 171.738 117.528 171.669 117.518 171.669C117.509 171.669 117.498 171.6 117.493 171.6H117.479C117.477 171.6 117.477 171.6 117.476 171.6L117.562 171.738C117.524 171.738 117.444 171.741 117.405 171.738C116.359 171.663 115.263 168.809 115.092 163.85C115.082 163.577 115.095 163.732 115.091 163.45C115.089 163.35 115.171 163.3 115.172 163.197C115.171 163.171 115.156 163.14 115.156 163.113L115.172 163.197L115.165 163.107L117.563 171.735Z" fill="#FFB685"/>
<path fill-rule="evenodd" clip-rule="evenodd" d="M106.757 86.603L111.628 88.0876L112.039 96.5349L109.391 97.4839L106.618 97.3585L106.757 86.603Z" fill="#E8935A"/>
<path fill-rule="evenodd" clip-rule="evenodd" d="M104.683 97.7239C105.764 96.349 108.321 95.4583 110.118 95.3438C111.616 95.2485 113.542 95.4843 114.38 96.5431C113.577 98.3609 111.435 99.816 109.531 99.816C107.627 99.816 105.675 98.3355 104.683 97.7239Z" fill="#E8935A"/>
<path d="M99.2387 69.3696C98.4452 67.058 94.8866 64.3517 94.0311 68.3486C92.8382 73.9303 94.4036 79.9844 98.479 79.9385C102.556 79.8946 100.028 71.6825 99.2387 69.3696Z" fill="#FFB685"/>
<path d="M99.2763 71.0324C98.7204 69.4121 96.2276 67.5155 95.6277 70.3165C94.7912 74.2292 95.8883 78.4717 98.7449 78.4388C101.6 78.4052 99.8297 72.6535 99.2763 71.0324Z" fill="#FAA66E"/>
<path d="M119.452 69.3696C120.244 67.058 123.803 64.3517 124.659 68.3486C125.852 73.9303 124.287 79.9844 120.211 79.9385C116.134 79.8946 118.662 71.6825 119.452 69.3696Z" fill="#FFB685"/>
<path d="M123.062 70.3165C122.462 67.5155 119.969 69.4121 119.413 71.0324C118.86 72.6535 117.09 78.4052 119.945 78.4388C122.801 78.4717 123.899 74.2292 123.062 70.3165Z" fill="#FAA66E"/>
<path d="M120.176 54.9056C118.493 47.5689 110.925 47.9793 109.344 47.9793C107.765 47.9793 100.195 47.5691 98.5131 54.9056C97.3104 60.1592 96.888 77.6366 99.0426 84.1317C100.971 89.9438 107.796 92.3061 109.344 92.3061C110.894 92.3061 117.719 89.9438 119.647 84.1317C121.801 77.6366 121.379 60.1592 120.176 54.9056Z" fill="#FFB685"/>
<path d="M122.03 55.5411C121.522 50.9355 117.866 44.5731 115.263 42.5295C111.984 39.954 109.345 41.6403 109.345 41.6403C109.345 41.6403 106.706 39.9537 103.426 42.5295C100.824 44.5731 97.1674 50.9358 96.6599 55.5411C96.1524 60.1467 97.3947 68.2446 97.3947 68.2446C97.3947 68.2446 98.0801 68.649 98.5876 66.7005C99.0955 64.7523 99.9071 61.0329 101.125 59.0841C102.343 57.1353 104.372 55.7187 104.372 55.7187L104.387 55.7139C103.891 57.2736 103.149 59.1957 102.234 60.3237C102.234 60.3237 105.176 62.2722 107.815 58.3755C108.887 56.7915 109.423 55.4418 109.682 54.3975L109.737 54.4128C109.499 56.1423 108.961 59.2422 107.972 61.1229C107.972 61.1229 111.085 61.938 113.19 57.1536C113.437 56.5911 113.642 56.0658 113.813 55.5747L113.825 55.5783C113.59 57.0981 113.146 59.3058 112.405 60.7155C112.405 60.7155 114.834 61.3413 116.62 57.8253C116.955 58.2096 117.282 58.6314 117.565 59.0838C118.783 61.0326 119.595 64.7517 120.102 66.7002C120.61 68.649 121.295 68.2443 121.295 68.2443C121.295 68.2443 122.538 60.1467 122.03 55.5411Z" fill="black"/>
<path fill-rule="evenodd" clip-rule="evenodd" d="M115.959 171.895C115.931 171.882 115.909 171.839 115.91 171.797C115.911 171.754 115.936 171.729 115.964 171.741C116.051 171.777 116.174 171.864 116.28 171.983C116.366 172.079 116.443 172.199 116.484 172.331C116.497 172.374 116.488 172.418 116.462 172.429C116.437 172.44 116.405 172.415 116.392 172.371C116.362 172.275 116.302 172.182 116.233 172.105C116.14 172.002 116.033 171.926 115.959 171.895Z" fill="#E0F4FF"/>
<path fill-rule="evenodd" clip-rule="evenodd" d="M115.787 172.345C115.759 172.332 115.737 172.288 115.738 172.246C115.739 172.203 115.764 172.179 115.792 172.19C115.879 172.227 116.002 172.314 116.108 172.433C116.194 172.529 116.271 172.648 116.312 172.781C116.326 172.824 116.316 172.868 116.29 172.879C116.265 172.89 116.234 172.864 116.22 172.822C116.19 172.724 116.13 172.632 116.061 172.555C115.968 172.452 115.862 172.375 115.787 172.345Z" fill="#E0F4FF"/>
<path fill-rule="evenodd" clip-rule="evenodd" d="M104.478 172.33C104.456 172.362 104.422 172.368 104.403 172.341C104.384 172.315 104.387 172.265 104.409 172.232C104.477 172.13 104.589 172.007 104.706 171.925C104.801 171.859 104.901 171.82 104.987 171.84C105.015 171.846 105.03 171.885 105.02 171.928C105.01 171.97 104.98 171.999 104.952 171.994C104.89 171.979 104.811 172.011 104.736 172.064C104.633 172.135 104.536 172.241 104.478 172.33Z" fill="#E0F4FF"/>
<path fill-rule="evenodd" clip-rule="evenodd" d="M104.587 172.835C104.565 172.867 104.532 172.873 104.513 172.847C104.494 172.82 104.497 172.771 104.519 172.738C104.586 172.636 104.698 172.512 104.815 172.431C104.911 172.365 105.011 172.326 105.097 172.345C105.125 172.352 105.139 172.391 105.13 172.434C105.12 172.476 105.09 172.505 105.062 172.5C104.999 172.485 104.921 172.517 104.845 172.57C104.742 172.641 104.645 172.747 104.587 172.835Z" fill="#E0F4FF"/>
<path fill-rule="evenodd" clip-rule="evenodd" d="M96.2081 99.925C96.632 103.747 97.5766 107.377 99.1958 109.978L97.4436 111.75C96.5215 110.39 94.3152 104.126 94.4936 101.464L96.2081 99.925Z" fill="#41D1BE"/>
<path fill-rule="evenodd" clip-rule="evenodd" d="M95.9666 100.005C95.9045 102.854 97.5305 107.985 99.0896 110.675C103.013 109.649 107.545 103.531 104.642 99.1496C104.364 98.7313 104.673 98.0792 104.261 97.9194C102.025 97.0561 98.2834 97.4709 95.9666 100.005Z" fill="#0DA18D"/>
<path fill-rule="evenodd" clip-rule="evenodd" d="M122.711 99.0247C122.287 102.846 121.343 106.476 119.724 109.079L121.476 110.849C122.398 109.491 124.604 103.226 124.425 100.563L122.711 99.0247Z" fill="#41D1BE"/>
<path fill-rule="evenodd" clip-rule="evenodd" d="M122.952 99.1049C123.014 101.953 121.388 107.085 119.829 109.775C115.906 108.75 111.374 102.631 114.277 98.2499C114.554 97.8309 114.246 97.1788 114.658 97.019C116.894 96.1557 120.635 96.5705 122.952 99.1049Z" fill="#0DA18D"/>
<path fill-rule="evenodd" clip-rule="evenodd" d="M100.438 139.612C100.438 139.612 100.962 111.201 101.338 105.843C101.671 101.101 103.061 98.3238 105.216 96.9633C107.133 100.611 112.301 100.713 113.954 95.9663C116.742 96.6287 118.636 98.9245 118.917 105.489C119.263 113.563 120.542 139.583 120.542 139.583C121.113 139.831 108.517 143.842 100.438 139.612Z" fill="#0DA18D"/>
<path fill-rule="evenodd" clip-rule="evenodd" d="M105.409 96.5692C106.599 98.1793 108.138 99.2661 109.542 99.1873C111.534 99.0762 113.245 97.3708 113.801 95.673L115.643 96.5877C113.687 103.402 106.017 103.888 103.42 97.7185C103.695 97.5395 104.402 97.0766 105.409 96.5692Z" fill="#41D1BE"/>
<path fill-rule="evenodd" clip-rule="evenodd" d="M111.384 78.7681C111.099 81.9731 108.218 81.3025 108.204 78.9381C108.527 79.1953 108.906 79.5758 109.538 79.643C110.081 79.7 110.862 79.5333 111.384 78.7681Z" fill="#F09B63"/>
<path fill-rule="evenodd" clip-rule="evenodd" d="M100.705 68.1439C101.651 66.9052 103.36 66.6369 104.172 66.7102C105.712 66.8481 105.093 65.2017 104.358 65.0221C102.971 64.6809 101.313 65.7151 100.403 67.1682C99.6837 68.3176 99.5772 69.6227 100.705 68.1439Z" fill="black"/>
<path fill-rule="evenodd" clip-rule="evenodd" d="M118.588 68.4471C117.88 66.9969 116.332 66.3174 115.568 66.1902C114.122 65.9493 114.919 64.4826 115.626 64.4856C116.958 64.4898 118.355 65.9085 119.002 67.5609C119.512 68.8649 119.434 70.1739 118.588 68.4471Z" fill="black"/>
<path fill-rule="evenodd" clip-rule="evenodd" d="M121.984 56.2768C121.959 55.5156 121.868 54.6568 121.677 53.7564C119.118 53.7769 114.099 44.79 109.344 46.5331C109.265 46.6797 109.189 46.8381 109.118 47.0094C109.071 47.1241 109.027 47.238 108.985 47.3502C109.916 47.2552 111.35 46.9042 113.079 48.0448C115.618 49.7203 119.677 56.0643 121.984 56.2768Z" fill="#2D2D2D"/>
<path fill-rule="evenodd" clip-rule="evenodd" d="M112.939 84.1611C112.711 85.0395 111.829 86.6591 110.015 86.8306C108.434 86.9807 107.305 85.6889 106.861 84.6658C106.591 84.0438 106.612 83.4123 106.892 83.8388C109.318 87.5465 112.095 84.9517 112.667 83.9129C112.884 83.5206 113.079 83.6255 112.939 84.1611Z" fill="#B13B32"/>
<path d="M106.2 74.4096C106.2 74.4096 103.016 77.1936 101.463 74.4604C99.5704 71.134 101.686 67.5177 103.283 67.6746C104.76 67.8201 106.252 69.6281 106.2 74.4096Z" fill="#F9FEFF"/>
<path d="M100.781 69.7398C101.28 68.2077 102.076 67.5506 102.996 67.4594C103.937 67.3701 104.976 68.2586 105.348 69.3696C104.73 68.1737 103.828 67.9209 103.276 67.8669C102.397 67.7771 101.341 68.7497 100.959 70.2301C100.62 71.5453 100.818 73.3268 101.513 74.5481C100.754 73.7958 100.262 71.3369 100.781 69.7398Z" fill="black"/>
<path d="M105.553 70.6512C106.067 72.166 105.779 74.1223 104.911 75.0172C104.043 75.9134 102.923 75.4121 102.409 73.896C101.896 72.3813 102.183 70.427 103.051 69.5301C103.92 68.6345 105.04 69.1358 105.553 70.6512Z" fill="black"/>
<path d="M105.4 72.55C105.518 72.9011 105.452 73.3537 105.251 73.5614C105.049 73.7692 104.79 73.6527 104.672 73.3009C104.552 72.9505 104.619 72.4993 104.82 72.2908C105.021 72.0824 105.28 72.1996 105.4 72.55Z" fill="#FEFFFE"/>
<path d="M112.738 74.3445C112.738 74.3445 115.953 76.9338 117.446 74.134C119.266 70.7198 117.098 67.2448 115.514 67.4902C114.049 67.7163 112.599 69.5946 112.738 74.3445Z" fill="#F9FEFF"/>
<path d="M118.038 69.4032C117.515 67.9077 116.712 67.2987 115.796 67.2612C114.86 67.2222 113.842 68.1639 113.493 69.288C114.085 68.0649 114.977 67.7628 115.525 67.6788C116.397 67.5426 117.464 68.4495 117.87 69.8983C118.231 71.1888 118.067 72.9696 117.398 74.2224C118.138 73.4318 118.584 70.9625 118.038 69.4032Z" fill="black"/>
<path d="M116.584 71.2944C116.831 72.947 116.264 74.6379 115.317 75.0693C114.369 75.5013 113.401 74.5104 113.154 72.8571C112.906 71.2053 113.473 69.5136 114.421 69.0823C115.367 68.6503 116.336 69.6411 116.584 71.2944Z" fill="black"/>
<path d="M114.444 72.7405C114.503 73.1328 114.368 73.5339 114.143 73.6368C113.919 73.7382 113.689 73.5037 113.63 73.1101C113.571 72.7193 113.706 72.3188 113.931 72.2153C114.155 72.1131 114.385 72.3483 114.444 72.7405Z" fill="#FEFFFE"/>
<path fill-rule="evenodd" clip-rule="evenodd" d="M121.815 158.4H115.5V158.481C115.157 156.984 113.911 155.682 113.911 155.682C110.701 150.561 107.186 155.01 107.186 155.01C106.205 155.88 105.704 156.801 105.36 157.683V157.8H98.6943C98.6963 157.5 98.6963 157.761 98.6978 157.74C99.1192 149.655 100.719 139.2 100.719 139.2H120.37C120.772 143.1 120.998 145.128 120.998 145.128C121.658 150.837 121.815 155.1 121.815 158.4Z" fill="#546C96"/>
<path fill-rule="evenodd" clip-rule="evenodd" d="M105.703 160.383V160.5H105.696C105.701 160.461 105.703 160.422 105.703 160.383Z" fill="#546C96"/>
<path fill-rule="evenodd" clip-rule="evenodd" d="M115.329 164.928C115.329 164.829 115.331 164.721 115.331 164.622C115.329 164.454 115.327 164.4 115.327 164.1H115.329V164.181C115.329 164.208 115.329 164.232 115.329 164.259C115.327 164.346 115.329 164.433 115.329 164.52C115.329 164.523 115.329 164.523 115.329 164.526C115.329 164.664 115.334 164.802 115.337 164.94C115.337 165.006 115.34 165.072 115.343 165.138C115.335 165.072 115.329 165.006 115.329 164.937V164.928Z" fill="#FFB685"/>
<path fill-rule="evenodd" clip-rule="evenodd" d="M115.344 165.141C115.344 165.147 115.345 165.153 115.345 165.159C115.345 165.163 115.345 165.163 115.345 165.165C115.344 165.156 115.344 165.15 115.344 165.141Z" fill="#FFB685"/>
<path fill-rule="evenodd" clip-rule="evenodd" d="M117.325 172.535C117.325 172.535 117.324 172.534 117.324 172.534C117.324 172.534 117.325 172.535 117.325 172.535Z" fill="#FFB685"/>
<path fill-rule="evenodd" clip-rule="evenodd" d="M115.337 164.109V164.148C115.337 164.202 115.337 164.256 115.336 164.31C115.336 164.382 115.334 164.451 115.332 164.52C115.332 164.523 115.332 164.523 115.332 164.526C115.332 164.562 115.332 164.598 115.331 164.631C115.329 164.463 115.327 164.289 115.327 164.118H115.329C115.329 164.118 115.329 164.118 115.331 164.118C115.332 164.115 115.334 164.112 115.337 164.109Z" fill="#FFB685"/>
<path fill-rule="evenodd" clip-rule="evenodd" d="M115.344 165.138C115.335 165.072 115.328 165.005 115.328 164.937V164.928C115.328 164.829 115.33 164.73 115.33 164.631C115.332 164.736 115.335 164.838 115.339 164.94C115.339 165.005 115.34 165.072 115.344 165.138Z" fill="#FFB685"/>
<path fill-rule="evenodd" clip-rule="evenodd" d="M115.345 165.159C115.345 165.162 115.345 165.162 115.345 165.165C115.344 165.156 115.344 165.15 115.344 165.141C115.344 165.147 115.345 165.153 115.345 165.159Z" fill="#FFB685"/>
<path fill-rule="evenodd" clip-rule="evenodd" d="M117.159 172.422C117.185 172.443 117.211 172.464 117.238 172.482C117.228 172.476 117.218 172.47 117.208 172.461" fill="#FFB685"/>
</svg>
