<svg width="450" height="350" viewBox="0 0 450 350" fill="none" xmlns="http://www.w3.org/2000/svg">
<path fill-rule="evenodd" clip-rule="evenodd" d="M218.645 59.9727C218.645 59.9727 214.479 48.7425 199.755 52.4429C185.032 56.1424 177.271 74.9663 178.866 93.949C179.937 106.668 184.288 113.094 185.649 121.478C186.627 127.507 185.998 132.967 184.197 137.056C182.614 140.656 180.541 141.32 184.966 141.16C186.24 141.114 187.495 140.899 188.73 140.512C194.226 138.787 203.21 132.185 201.797 130.812C176.133 105.875 218.645 59.9727 218.645 59.9727Z" fill="black"/>
<path fill-rule="evenodd" clip-rule="evenodd" d="M206.656 282.364C206.656 282.364 207.321 245.806 206.794 227.433C206.267 209.06 217.954 208.722 220.607 216.098C223.26 223.473 220.493 243.275 219.524 256.018C218.556 268.76 217.587 282.364 217.587 282.364C218.662 288.89 211.175 290.502 208.352 288.707C205.53 286.912 206.656 282.364 206.656 282.364Z" fill="#FFB685"/>
<path fill-rule="evenodd" clip-rule="evenodd" d="M206.994 249.237C207.011 241.3 206.965 233.406 206.794 227.433C206.266 209.06 217.954 208.722 220.607 216.099C222.938 222.578 221.085 238.65 219.944 251.1C215.194 250.891 210.861 250.195 206.994 249.237Z" fill="#FAA66E"/>
<path fill-rule="evenodd" clip-rule="evenodd" d="M206.475 283.013C206.475 283.013 206.258 277.854 206.342 271.21C209.426 271.283 214.666 271.412 218.865 271.398C218.397 277.786 217.664 282.963 217.664 282.963C218.739 289.488 211.174 290.502 208.352 288.707C205.531 286.912 206.475 283.013 206.475 283.013Z" fill="#FFE0DA"/>
<path fill-rule="evenodd" clip-rule="evenodd" d="M202.215 295.496H221.464C222.085 295.496 222.593 296.128 222.593 296.9V296.902C222.593 297.674 222.085 298.305 221.464 298.305H202.215C201.593 298.305 201.087 297.674 201.087 296.902V296.9C201.087 296.128 201.593 295.496 202.215 295.496Z" fill="#B82C0D"/>
<path fill-rule="evenodd" clip-rule="evenodd" d="M241.784 281.035C241.784 281.035 241.118 245.807 241.646 227.433C242.173 209.061 230.486 208.723 227.833 216.098C225.179 223.473 227.947 243.276 228.915 256.019C229.884 268.761 230.853 282.364 230.853 282.364C233.175 288.074 239.047 289.805 244.645 289.108C248.055 288.684 249.354 287.677 249.425 287.028C248.422 285.406 244.378 282.949 241.784 281.035Z" fill="#FFB685"/>
<path fill-rule="evenodd" clip-rule="evenodd" d="M241.446 248.677C241.431 241.007 241.476 233.347 241.647 227.433C242.173 209.06 230.487 208.722 227.832 216.098C225.512 222.549 227.339 238.511 228.482 250.938C232.574 250.604 236.904 249.885 241.446 248.677Z" fill="#FAA66E"/>
<path fill-rule="evenodd" clip-rule="evenodd" d="M242.265 281.089C242.265 281.089 242.194 277.307 242.116 271.576C238.202 271.611 233.47 271.619 229.678 271.594C230.138 277.881 230.526 282.721 230.526 282.721C232.848 288.43 239.047 289.804 244.645 289.108C248.055 288.684 249.355 287.678 249.425 287.027C248.422 285.406 244.859 283.001 242.265 281.089Z" fill="#FFE0DA"/>
<path fill-rule="evenodd" clip-rule="evenodd" d="M202.406 155.298C202.406 155.298 195.474 161.888 190.949 174.109C186.423 186.329 183.976 206.139 183.976 206.139C183.976 206.139 177.554 214.003 175.991 217.921C174.905 220.646 175.51 222.158 176.915 220.268C177.51 219.468 178.648 217.191 179.504 216.331C178.89 217.569 176.127 223.482 177.442 224.417C178.757 225.352 178.938 222.477 181.98 218.041C180.394 221.367 178.666 225.679 179.856 226.77C181.045 227.862 182.98 221.115 184.013 219.719C183.357 221.779 182.203 227.068 183.831 227.145C185.458 227.224 186.216 221.855 187.236 220.291L190.343 216C190.663 216.422 191.403 220.141 191.875 220.6C192.335 221.046 193.002 220.919 193.476 218.884C194.227 215.533 192.299 209.927 192.299 209.927C193.731 190.331 198.499 180.834 209.246 169.303C211.061 167.355 213.508 161.224 210.873 156.912C208.241 152.599 204.673 152.782 202.406 155.298Z" fill="#FFB685"/>
<path fill-rule="evenodd" clip-rule="evenodd" d="M217.016 132.881L226.95 135.039L227.789 147.321L222.388 148.7L216.734 148.517L217.016 132.881Z" fill="#E8935A"/>
<path fill-rule="evenodd" clip-rule="evenodd" d="M211.865 147.975C215.803 146.313 219.596 145.752 223.257 145.589C226.311 145.452 233.582 146.713 235.89 148.103C234.254 150.745 224.662 152.687 220.782 152.687C216.901 152.687 213.169 149.563 211.865 147.975Z" fill="#E8935A"/>
<path fill-rule="evenodd" clip-rule="evenodd" d="M194.813 120.12C188.268 120.4 186.73 109.071 192.006 107.047C187.372 88.8688 196.046 69.2465 214.969 64.9248C228.064 61.9328 242.939 69.1493 247.101 88.4597C249.895 101.421 250.265 114.47 246.661 123.254C237.883 144.664 202.093 142.817 194.813 120.12Z" fill="#FFB685"/>
<path fill-rule="evenodd" clip-rule="evenodd" d="M194.813 120.12C193.114 120.567 191.785 119.343 190.831 118.437C192.727 119.046 194.599 118.967 196.528 117.198C202.055 138.833 232.553 142.235 243.591 128.578C231.531 144.146 201.423 140.727 194.813 120.12Z" fill="#FFB685"/>
<path fill-rule="evenodd" clip-rule="evenodd" d="M192.696 85.2256C195.162 77.9775 199.932 71.7449 206.749 67.9233C207.272 68.4873 207.848 68.9287 208.594 68.9532C211.965 69.067 230.57 68.7305 237.95 72.7336C245.328 76.7381 249.963 105.229 247.814 94.5662C245.399 82.5778 226.327 84.8598 218.374 83.221C213.185 82.1513 208.921 79.5766 208.921 79.5766C206.962 88.9505 206.277 90.4327 200.136 96.7935C196.773 100.277 195.497 102.734 195.275 108.581C192.696 104.807 191.484 94.7018 192.696 85.2256Z" fill="#FFB685"/>
<path fill-rule="evenodd" clip-rule="evenodd" d="M241.417 100.41C243.504 104.053 246.093 115.067 246.093 115.067C246.093 115.067 259.276 127.405 265.938 138.401C267.579 141.101 268.905 143.808 269.966 146.347C269.97 146.353 269.973 146.361 269.975 146.367C270.435 147.47 270.086 148.831 269.207 149.422L259.519 155.939L254.149 159.544L248.235 143.26L254.336 140.457C251.083 133.953 246.444 128.417 239.324 122.576C239.324 122.576 234.325 122.026 232.262 119.569C231.02 118.043 231.243 117.238 231.79 116.943C232.355 116.634 235.411 117.594 235.87 117.445L234.256 111.88C233.616 109.978 230.099 106.526 230.939 104.738C231.78 102.948 235.059 106.811 236.234 108.543C235.719 106.702 231.764 101.265 233.133 100.461C234.5 99.655 236.794 103.685 238.435 107.066C236.692 101.515 234.7 99.9205 236.012 98.8854C237.324 97.8638 240.271 103.831 240.868 105.118C240.663 103.739 239.56 101.366 239.268 100.307C238.577 97.8161 239.974 97.8638 241.417 100.41Z" fill="#FFB685"/>
<path fill-rule="evenodd" clip-rule="evenodd" d="M206.656 282.364C205.594 282.636 201.343 290.508 201.839 295.813H221.779C221.779 295.813 222.174 289.748 217.587 282.364C216.421 288.159 209.428 288.592 207.566 287.262C205.704 285.932 206.656 282.364 206.656 282.364Z" fill="#DB4F30"/>
<path fill-rule="evenodd" clip-rule="evenodd" d="M206.476 283.014C206.125 283.25 205.684 283.085 205.496 282.648C205.306 282.209 205.438 281.662 205.789 281.426C206.954 280.648 209.534 280.07 212.288 280.19C214.431 280.283 216.709 280.793 218.559 281.945C218.915 282.165 219.061 282.707 218.882 283.152C218.704 283.596 218.269 283.775 217.912 283.554C216.269 282.531 214.202 282.076 212.244 281.99C209.734 281.88 207.453 282.362 206.476 283.014Z" fill="#DB4F30"/>
<path fill-rule="evenodd" clip-rule="evenodd" d="M230.853 282.364C230.853 282.364 228.955 284.042 228.514 288.284C228.072 292.526 228.949 295.879 228.949 295.879L251.871 296.964L254.49 295.495C254.49 295.495 255.691 293.638 253.766 290.85C251.84 288.062 249.425 287.027 249.425 287.027C249.354 287.677 248.055 288.684 244.644 289.109C239.046 289.804 233.175 288.075 230.853 282.364Z" fill="#DB4F30"/>
<path fill-rule="evenodd" clip-rule="evenodd" d="M230.484 283.285C230.142 283.54 229.696 283.401 229.491 282.975C229.286 282.548 229.398 281.994 229.74 281.739C231.103 280.723 233.772 279.961 236.371 279.607C239.055 279.242 241.73 279.317 242.902 280C243.263 280.21 243.419 280.747 243.251 281.195C243.081 281.647 242.65 281.841 242.289 281.63C241.361 281.089 238.983 281.065 236.525 281.399C234.104 281.728 231.661 282.407 230.484 283.285Z" fill="#DB4F30"/>
<path fill-rule="evenodd" clip-rule="evenodd" d="M228.948 295.496H254.228C254.848 295.496 255.357 296.128 255.357 296.9C255.357 297.674 254.847 298.305 254.228 298.305H228.948C228.328 298.305 227.82 297.674 227.82 296.9C227.82 296.128 228.328 295.496 228.948 295.496Z" fill="#B82C0D"/>
<path fill-rule="evenodd" clip-rule="evenodd" d="M205.408 246.437L206.169 280.174H218.019L221.727 244.244L226.713 245.118L229.387 280.174L242.901 279.999V243.545L229.678 233.764L201.799 238.481L205.408 246.437Z" fill="#00A99D"/>
<path fill-rule="evenodd" clip-rule="evenodd" d="M195.859 161.517C199.064 166.568 200.04 167.562 204.258 170.625L202.852 174.562C198.05 171.849 197.724 171.794 193.757 166.199C194.124 164.999 195.066 162.949 195.859 161.517Z" fill="#DB4F30"/>
<path fill-rule="evenodd" clip-rule="evenodd" d="M255.819 240.415C244.433 249.378 204.58 250.899 193.6 241.662L193.985 237.401C209.228 246.425 241.059 245.124 255.222 235.566L255.819 240.415Z" fill="#DB4F30"/>
<path fill-rule="evenodd" clip-rule="evenodd" d="M207.596 149.125C209.435 148.12 211.915 147.066 213.842 146.846C215.361 152.955 228.904 154.348 231.453 146.297C232.979 146.504 234.872 146.815 236.75 147.545C232.879 160.75 213.479 161.174 207.596 149.125Z" fill="#DB4F30"/>
<path fill-rule="evenodd" clip-rule="evenodd" d="M250.664 162.75C250.101 156.404 247.873 149.29 244.438 144.658L248.002 142.974C250.896 148.398 253.625 152.554 254.598 159.856C253.783 160.627 252.289 162.064 251.016 162.75" fill="#DB4F30"/>
<path fill-rule="evenodd" clip-rule="evenodd" d="M199.828 68.6275L198.41 64.2748C201.931 60.7844 214.024 56.3333 217.347 55.814L219.002 60.5954C217.243 61.8633 199.828 68.6275 199.828 68.6275Z" fill="#219487"/>
<path opacity="0.3" fill-rule="evenodd" clip-rule="evenodd" d="M231.865 112.363C231.753 117.489 225.31 117.445 224.9 113.742C225.651 114.033 226.547 114.496 227.946 114.379C229.151 114.28 230.84 113.747 231.865 112.363Z" fill="#020100"/>
<path fill-rule="evenodd" clip-rule="evenodd" d="M193.066 114.155C193.066 114.155 192.291 112.47 193.585 112.08C194.256 111.877 194.656 112.608 194.874 113.347C195.074 114.028 195.12 114.72 195.083 114.69C195.083 114.69 194.9 114.37 194.639 114.043C194.154 113.438 193.402 112.807 193.066 114.155Z" fill="#FAA66E"/>
<path fill-rule="evenodd" clip-rule="evenodd" d="M207.15 74.7605C207.15 74.7605 211.84 80.5062 220.571 81.3729C229.301 82.2414 239.595 83.6939 243.514 86.8719C247.431 90.0499 248.791 98.7898 248.791 98.7898C257.172 73.7674 230.326 47.7112 201.826 65.9467C189.211 74.0177 181.068 95.1909 188.87 113.663C188.465 109.737 192.383 106.394 195.292 108.677C194.835 102.445 195.71 99.7917 199.072 95.8052C202.272 92.0099 207.172 85.9006 207.15 74.7605Z" fill="#020202"/>
<path fill-rule="evenodd" clip-rule="evenodd" d="M228.558 82.3315C234.282 83.1719 239.68 84.3904 242.683 86.2808C244.868 82.4807 246.057 78.6342 246.613 75.002C244.927 71.9662 242.725 69.2362 240.109 66.9595C238.203 73.4227 233.972 78.516 228.558 82.3315ZM186.746 89.5638C186.052 92.8249 185.725 96.223 185.833 99.6609C188.203 102.224 191.273 104.619 195.18 106.156C195.145 101.641 196.202 99.2098 199.07 95.8056C200.151 94.5242 201.426 92.9794 202.638 91.0662C196.688 91.5146 191.085 90.9918 186.746 89.5638Z" fill="#424242"/>
<path fill-rule="evenodd" clip-rule="evenodd" d="M206.924 112.074C210.23 112.672 212.635 115.499 212.291 118.387C211.947 121.276 208.985 123.133 205.679 122.535C202.372 121.937 199.968 119.109 200.311 116.219C200.655 113.33 203.618 111.475 206.924 112.074Z" fill="#FDA47B"/>
<path fill-rule="evenodd" clip-rule="evenodd" d="M206.606 112.315C209.607 112.853 211.791 115.409 211.483 118.026C211.173 120.644 208.489 122.328 205.488 121.791C202.488 121.253 200.304 118.698 200.613 116.079C200.921 113.462 203.607 111.778 206.606 112.315Z" fill="#FCA079"/>
<path fill-rule="evenodd" clip-rule="evenodd" d="M205.127 113.442C206.697 113.696 207.856 114.991 207.712 116.339C207.567 117.686 206.176 118.572 204.605 118.32C203.034 118.067 201.875 116.77 202.02 115.423C202.164 114.076 203.555 113.189 205.127 113.442Z" fill="#FA8D6F"/>
<path fill-rule="evenodd" clip-rule="evenodd" d="M244.295 100.822C242.504 98.7978 238.989 98.2723 237.29 98.3402C234.072 98.4683 235.589 95.891 237.143 95.6473C240.073 95.1888 243.374 96.9288 245.062 99.2908C246.394 101.156 246.432 103.235 244.295 100.822Z" fill="black"/>
<path fill-rule="evenodd" clip-rule="evenodd" d="M241.128 111.372C238.124 112.11 235.959 115.413 236.299 118.753C236.638 122.092 239.352 124.198 242.355 123.461C245.359 122.722 247.523 119.418 247.184 116.08C246.845 112.74 244.132 110.634 241.128 111.372Z" fill="#FEAB7F"/>
<path fill-rule="evenodd" clip-rule="evenodd" d="M241.212 111.451C238.288 112.168 236.182 115.381 236.51 118.628C236.84 121.877 239.48 123.928 242.403 123.211C245.327 122.495 247.434 119.281 247.105 116.033C246.776 112.784 244.135 110.733 241.212 111.451Z" fill="#FDAA7E"/>
<path fill-rule="evenodd" clip-rule="evenodd" d="M241.966 112.166C239.765 112.691 238.174 115.089 238.415 117.521C238.655 119.954 240.636 121.499 242.837 120.975C245.038 120.451 246.629 118.054 246.389 115.621C246.149 113.188 244.167 111.643 241.966 112.166Z" fill="#FC9D78"/>
<path fill-rule="evenodd" clip-rule="evenodd" d="M242.636 112.803C241.078 113.156 239.945 114.827 240.107 116.534C240.268 118.243 241.664 119.34 243.221 118.985C244.781 118.631 245.913 116.961 245.752 115.253C245.59 113.545 244.195 112.449 242.636 112.803Z" fill="#FB9272"/>
<path fill-rule="evenodd" clip-rule="evenodd" d="M208.268 100.661C210.501 98.9526 214.305 98.9683 216.09 99.2907C219.471 99.9011 218.299 97.1527 216.698 96.6806C213.677 95.7903 209.895 96.9926 207.715 99.0484C205.994 100.67 205.604 102.697 208.268 100.661Z" fill="black"/>
<path d="M246.353 111.165C245.78 110.332 243.593 108.191 243.101 107.918C242.068 106.91 238.168 107.692 237.986 107.803C238.162 107.523 238.323 107.23 238.445 106.911C237.697 107.565 236.982 108.302 236.479 109.326C236.532 109.463 236.691 109.513 236.877 109.387C236.902 109.369 236.931 109.358 236.958 109.342C236.803 109.614 236.679 109.898 236.592 110.187C236.979 109.801 237.416 109.503 237.877 109.277C237.879 109.276 237.879 109.275 237.881 109.274C237.889 109.271 237.895 109.269 237.902 109.265C237.955 109.24 238.007 109.219 238.059 109.195C238.127 109.166 238.193 109.135 238.263 109.109C239.337 108.686 240.506 108.625 241.459 108.781C243.458 109.109 245.055 110.395 246.654 111.816C246.551 111.591 246.452 111.373 246.353 111.165Z" fill="black"/>
<path d="M246.53 111.297C244.321 108.714 240.595 107.579 237.804 109.027C237.808 109.024 237.81 109.022 237.814 109.019C237.454 109.185 237.092 109.354 236.726 109.519C236.402 109.664 235.976 109.624 235.664 109.394C235.831 109.805 236.323 110.303 236.709 110.152C236.8 110.192 236.936 110.175 237.033 110.095C239.925 107.695 243.563 109.45 246.354 111.486C246.436 111.545 246.618 111.399 246.53 111.297Z" fill="black"/>
<path d="M208.373 108.944C209.168 108.02 212.076 105.819 212.704 105.593C214.076 104.56 218.677 106.522 218.881 106.71C218.704 106.307 218.548 105.891 218.441 105.455C219.261 106.474 220.027 107.593 220.503 109.03C220.42 109.188 220.226 109.217 220.017 109.009C219.986 108.979 219.955 108.956 219.924 108.929C220.077 109.317 220.189 109.711 220.255 110.101C219.84 109.513 219.352 109.023 218.825 108.623C218.823 108.62 218.823 108.62 218.82 108.618C218.813 108.609 218.805 108.607 218.797 108.599C218.737 108.555 218.677 108.515 218.615 108.471C218.54 108.418 218.464 108.361 218.382 108.31C217.14 107.503 215.743 107.137 214.572 107.102C212.124 107.031 210.036 108.28 207.929 109.703C208.083 109.438 208.228 109.185 208.373 108.944Z" fill="black"/>
<path opacity="0.3" d="M231.38 122.525C230.765 122.581 230.053 122.641 229.319 122.633C228.582 122.631 227.858 122.554 227.157 122.486C225.188 122.289 223.324 122.096 222.628 123.895C222.332 124.664 222.455 125.97 222.944 127.219C223.393 128.373 224.524 130.415 227.032 131.114C227.629 131.275 228.275 131.358 228.953 131.343C230.883 131.304 232.697 130.234 233.931 128.399C234.818 127.075 235.251 125.516 235.083 124.233C235.003 123.609 234.7 122.814 233.74 122.545C233.121 122.368 232.312 122.439 231.38 122.525Z" fill="#FFA483"/>
<path d="M229.315 123.371C226.522 123.351 223.869 122.373 223.161 124.218C222.657 125.525 223.941 130.709 228.942 130.612C232.433 130.544 234.821 126.807 234.501 124.348C234.258 122.495 232.105 123.386 229.315 123.371Z" fill="#921F33"/>
<path d="M223.14 125.746C223.509 127.756 225.169 130.686 228.942 130.612C230.66 130.577 232.108 129.656 233.103 128.433C230.804 124.892 226.594 123.648 223.14 125.746Z" fill="#CD3735"/>
<path d="M223.14 125.747C223.161 125.842 223.182 125.939 223.206 126.038C225.76 127.734 228.624 128.247 231.79 126.853C229.409 124.575 226.013 124 223.14 125.747Z" fill="#C1272D"/>
<path d="M223.162 124.218C223.113 124.339 223.088 124.515 223.072 124.701C227.025 127.779 232.363 127.238 233.482 123.231C232.547 123.038 231.052 123.382 229.315 123.371C226.522 123.351 223.87 122.372 223.162 124.218Z" fill="white"/>
<path d="M223.162 124.218C223.113 124.339 223.088 124.515 223.072 124.701C223.415 124.97 223.772 125.2 224.128 125.41C226.732 123.274 232.169 123.796 232.369 125.187C232.873 124.671 233.264 124.017 233.482 123.231C232.547 123.038 231.053 123.382 229.315 123.371C226.522 123.351 223.87 122.372 223.162 124.218Z" fill="#DBEDE8"/>
<path fill-rule="evenodd" clip-rule="evenodd" d="M195.859 161.517C199.064 166.569 204.417 171.509 209.342 173.184L207.018 176.994C202.215 174.281 197.723 171.794 193.757 166.199C194.124 164.999 195.066 162.949 195.859 161.517Z" fill="#DB4F30"/>
<path fill-rule="evenodd" clip-rule="evenodd" d="M205.408 246.437L206.169 280.174H218.019L221.727 244.244L226.713 245.118L229.387 280.174L242.901 279.999V243.545L229.678 233.764L201.799 238.481L205.408 246.437Z" fill="#266B14"/>
<path fill-rule="evenodd" clip-rule="evenodd" d="M195.859 161.517C197.446 165.721 203.832 171.026 208.616 172.885C215.965 166.277 220.314 151.97 211.813 149.272C206.978 147.739 199.691 153.501 195.859 161.517Z" fill="#F7931E"/>
<path fill-rule="evenodd" clip-rule="evenodd" d="M209.001 151.944C212.165 148.327 217.88 154.015 223.243 153.562C232.068 152.819 237.685 147.388 241.137 158.179C247.399 177.75 253.434 220.765 255.743 239.745C245.458 249.779 202.2 250.829 193.76 240.564C194.319 228.385 203.766 157.92 209.001 151.944Z" fill="#F7931E"/>
<path fill-rule="evenodd" clip-rule="evenodd" d="M251.047 162.571C251.488 157.996 248.356 149.355 245.116 144.662C236.141 145.412 226.44 154.605 232.452 162.435C235.871 166.889 244.437 166.808 251.047 162.571Z" fill="#F7931E"/>
<path fill-rule="evenodd" clip-rule="evenodd" d="M195.859 161.517C197.446 165.721 203.832 171.026 208.616 172.885C215.965 166.277 220.314 151.97 211.813 149.272C206.978 147.739 199.691 153.501 195.859 161.517Z" fill="#F7931E"/>
<path fill-rule="evenodd" clip-rule="evenodd" d="M209.001 151.944C212.165 148.328 217.529 153.578 222.891 153.125C231.716 152.382 237.685 147.389 241.137 158.179C247.399 177.751 253.434 220.765 255.743 239.745C245.458 249.78 202.2 250.829 193.76 240.565C194.319 228.386 203.766 157.92 209.001 151.944Z" fill="#F7931E"/>
<path fill-rule="evenodd" clip-rule="evenodd" d="M255.819 240.415C244.433 249.378 204.58 250.899 193.6 241.662L193.985 237.401C209.228 246.425 241.059 245.124 255.222 235.566L255.819 240.415Z" fill="#DB4F30"/>
<path fill-rule="evenodd" clip-rule="evenodd" d="M207.595 149.125C209.434 148.119 211.914 147.066 213.841 146.845C215.36 152.955 228.903 154.347 231.452 146.296C232.978 146.503 234.871 146.814 236.749 147.545C232.878 160.75 213.478 161.173 207.595 149.125Z" fill="#DB4F30"/>
</svg>
