<svg width="220" height="240" viewBox="0 0 220 240" fill="none" xmlns="http://www.w3.org/2000/svg">
<path opacity="0.16" d="M122.203 204.87C122.203 207.45 114.349 209.55 104.655 209.55C94.9609 209.55 87.1064 207.45 87.1064 204.87C87.1064 202.29 94.9609 200.19 104.655 200.19C114.349 200.19 122.203 202.29 122.203 204.87Z" fill="black"/>
<path opacity="0.23" d="M115.861 151.74C115.328 149.94 114.813 148.2 114.383 146.64C113.85 145.29 113.386 144.09 113.128 143.28L95.4594 144.18C95.4594 144.18 94.0841 149.4 92.6405 154.77C92.5544 155.37 92.4689 155.94 92.3828 156.51C94.1189 157.83 97.9513 160.59 104.809 159.45C110.206 158.55 113.592 154.53 115.861 151.74Z" fill="black"/>
<path d="M133.203 94.4098C132.567 93.7502 130.625 91.4099 131.124 85.3502C131.313 83.1004 130.419 82.3502 129.628 81.6898C128.563 80.7902 127.634 80.0098 128.597 76.0204C129.8 71.0098 129.061 66.78 126.655 64.92C125.091 63.72 123.424 61.47 121.946 58.59C121.653 58.05 121.378 57.4501 121.103 56.8501C120.45 54.72 119.934 52.65 119.556 51.15C118.766 50.91 117.941 50.76 117.081 50.67C116.308 50.58 115.5 50.55 114.675 50.55C116.72 52.17 118.284 54.99 119.299 59.73C119.453 60.45 119.556 62.31 119.608 64.86C118.92 64.1701 118.216 63.54 117.46 62.97C117.253 61.26 116.669 57.72 116.394 57.42C116.377 57.87 116.188 60.48 116.153 62.07C115.483 61.68 114.761 61.32 113.953 61.02C113.884 58.44 113.351 55.11 112.956 53.91C112.974 54.36 113.043 56.34 113.18 60.7501C111.031 60.06 108.333 59.73 104.706 59.82C104.311 59.82 103.916 59.85 103.503 59.88C103.228 58.83 102.558 56.34 102.249 55.8C102.249 55.92 101.767 58.26 101.853 60.06C99.1723 60.45 96.4222 61.29 94.0159 62.43C94.0673 60.75 94.2047 57.57 94.2907 56.67C94.0331 57.24 92.7439 61.5 92.5204 63.21C90.8015 64.2 89.3407 65.3701 88.3439 66.66C88.3267 63.9901 88.361 61.8 88.4812 60.39C88.5159 60.12 88.5673 59.85 88.6191 59.58C88.6015 59.58 88.5844 59.61 88.5673 59.61C87.9141 60.03 87.347 60.42 86.8659 60.78L86.1781 59.34C86.1267 60.18 86.0236 60.99 85.8515 61.77C85.147 65.07 83.5312 67.77 82.4659 70.2C80.8844 73.8898 80.2312 77.7004 81.3659 81.6302C81.8128 83.1902 82.1736 84.5698 81.9159 85.8C81.6925 86.8498 81.0223 87.7502 79.8704 88.5902C78.7191 89.4302 78.0312 90.4498 77.7565 91.7404C77.3781 93.5404 77.911 95.4 78.3749 97.0499C78.7015 98.1902 78.7015 99.9902 78.5299 100.92C77.9281 104.34 77.2749 105.6 77.6704 107.97C77.5159 105.45 78.3065 104.1 78.8736 101.25C79.0799 100.2 79.1488 98.4604 78.5299 96.3299C78.0831 94.8 77.7736 93.5404 78.1002 92.0098C78.3407 90.9004 78.9596 90 79.9907 89.2499C81.2628 88.32 81.9844 87.3004 82.2425 86.0702C82.3457 85.6204 82.3457 85.1102 82.3281 84.6302C82.9988 86.9698 83.0331 88.92 80.6096 90.9902C76.1749 94.8 80.6781 99.84 80.0767 102.24C79.011 106.32 78.7015 107.13 78.9596 110.25C79.2515 113.82 80.747 115.86 82.2249 116.46C82.2249 115.89 80.6957 112.71 81.8128 107.16C82.1565 110.13 83.9781 117.09 84.4596 117.24C92.0223 119.64 114.503 121.65 122.496 114.51C124.025 113.16 123.596 107.1 123.991 105.39C124.283 104.16 125.933 114.54 126.431 113.55C133.272 99.9298 131.605 95.9404 130.746 95.8499C129.543 95.7004 128.786 95.9102 129.886 86.3404C130.419 81.6898 125.572 84.3902 127.377 76.92C128.46 72.4498 127.858 68.7298 125.52 66.24C124.696 65.37 123.939 64.02 123.234 62.46C124.317 63.8101 125.417 64.92 126.466 65.7C128.7 67.41 129.439 70.9804 128.305 75.6898C127.205 80.2498 128.477 81.3298 129.508 82.2302C130.299 82.92 130.951 83.4302 130.797 85.2C130.161 92.0098 132.825 94.2302 133.203 94.4098ZM81.4691 80.5804C80.747 77.3404 81.2281 74.2498 82.6033 71.04C83.3767 69.24 84.6141 67.7101 85.5767 65.82C84.3736 71.8204 81.4173 76.08 81.4691 80.5804ZM112.939 53.91C112.939 53.91 112.939 53.94 112.956 53.94C112.939 53.85 112.939 53.82 112.939 53.91Z" fill="#D6B45F"/>
<path d="M112.957 53.9401C112.957 53.9401 112.957 53.91 112.939 53.91C112.939 53.8201 112.939 53.85 112.957 53.9401Z" fill="#D6B45F"/>
<path d="M122.153 60.54C122.101 59.88 122.049 59.25 121.963 58.59C120.537 47.79 113.541 39.8699 104.037 40.4699C93.8102 41.1 86.9007 47.31 85.835 61.89C85.8007 62.34 85.7665 62.79 85.7494 63.27C85.5084 68.25 85.8178 72.84 86.557 76.9501C87.1584 80.28 88.035 83.28 89.135 85.92C90.5273 89.2203 92.2634 91.9501 94.2399 94.0498C97.2818 97.2603 100.891 98.9101 104.638 98.7003C108.867 98.4898 112.751 95.7298 115.793 91.1101C117.117 89.1003 118.268 86.7901 119.23 84.1501C120.107 81.7803 120.812 79.1698 121.327 76.3501C122.204 71.5803 122.53 66.21 122.153 60.54ZM113.18 60.78C111.032 60.09 108.334 59.76 104.707 59.85C104.312 59.85 103.917 59.88 103.504 59.91C103.229 58.86 102.558 56.37 102.249 55.83C102.249 55.95 101.768 58.29 101.854 60.09C99.1728 60.48 96.4228 61.32 94.0165 62.46C94.0678 60.78 94.2057 57.6 94.2913 56.7C94.0336 57.27 92.7444 61.53 92.521 63.24C90.8026 64.23 89.3413 65.4 88.3444 66.69C88.3273 64.02 88.3615 61.8299 88.4818 60.42C88.5165 60.1499 88.5679 59.88 88.6197 59.61C88.671 59.28 88.7399 58.92 88.7913 58.56C91.1805 49.38 96.526 48.78 103.487 48.42C107.955 48.18 111.806 48.12 114.71 50.46C116.756 52.08 118.32 54.9 119.334 59.64C119.488 60.36 119.591 62.22 119.643 64.77C118.955 64.08 118.251 63.45 117.494 62.88C117.288 61.17 116.704 57.63 116.429 57.33C116.412 57.78 116.223 60.39 116.188 61.98C115.518 61.59 114.796 61.23 113.988 60.93C113.92 58.35 113.387 55.02 112.991 53.82C112.974 54.3899 113.026 56.37 113.18 60.78Z" fill="#D6B45F"/>
<path d="M88.4641 60.4801C88.3609 61.8601 88.3096 64.0801 88.3267 66.7501C88.2064 66.9001 88.1033 67.0501 88.0001 67.2001C87.5704 67.8001 87.8456 64.3801 88.4641 60.4801Z" fill="#D6B45F"/>
<path d="M112.957 53.9401C112.957 53.9401 112.957 53.91 112.939 53.91C112.939 53.8201 112.939 53.85 112.957 53.9401Z" fill="#D6B45F"/>
<path d="M120.623 65.9101C120.278 65.5501 119.952 65.1901 119.608 64.8601C119.557 62.3101 119.471 60.4501 119.299 59.7301C118.285 54.9901 116.721 52.1701 114.676 50.5501C111.771 48.2101 107.921 48.2701 103.452 48.5101C96.4911 48.8701 91.1284 49.4701 88.7568 58.6501C89.3582 55.2001 90.1834 51.8101 90.9568 50.9101C93.6897 47.7301 98.846 46.4101 103.882 46.2901C108.505 46.2001 113.678 47.3701 116.463 49.8301C116.669 50.0101 116.876 50.3101 117.082 50.6701C119.23 54.4501 121.654 66.9901 120.623 65.9101Z" fill="#D6B45F"/>
<path d="M119.316 59.7301C118.302 54.9901 116.738 52.1701 114.693 50.55C105.601 50.61 94.1366 56.1 88.5848 59.6701C88.5335 59.94 88.4987 60.2101 88.4474 60.48C88.3442 61.86 88.2924 64.08 88.31 66.7501C89.3069 65.46 90.7677 64.2901 92.4866 63.3C92.71 61.5901 93.9987 57.3301 94.2569 56.76C94.1708 57.66 94.0506 60.8101 93.9816 62.52C96.3879 61.38 99.1208 60.54 101.819 60.1501C101.733 58.3501 102.215 56.0101 102.215 55.8901C102.541 56.4301 103.194 58.8901 103.469 59.9701C103.882 59.94 104.277 59.9101 104.672 59.9101C108.299 59.82 110.997 60.18 113.146 60.84C112.991 56.4301 112.94 54.4501 112.922 54C113.318 55.2 113.851 58.5 113.919 61.1101C114.727 61.4101 115.449 61.7701 116.119 62.16C116.171 60.54 116.343 57.9301 116.36 57.5101C116.652 57.8101 117.219 61.3501 117.425 63.06C118.182 63.6301 118.887 64.26 119.574 64.9501C119.574 62.3101 119.471 60.4501 119.316 59.7301ZM112.94 53.91C112.94 53.82 112.94 53.85 112.957 53.94C112.94 53.94 112.94 53.91 112.94 53.91Z" fill="#D6B45F"/>
<path d="M114.692 50.55C105.6 50.61 94.1358 56.1 88.584 59.67C88.6358 59.34 88.7042 58.98 88.7561 58.62C91.1453 49.44 96.4903 48.84 103.452 48.48C107.937 48.27 111.77 48.21 114.692 50.55Z" fill="#D6B45F"/>
<path d="M108.814 108.99C106.322 108.6 102.953 108.69 100.169 109.17C100.22 111.48 101.2 116.31 104.277 116.43C107.783 116.55 108.728 112.29 108.814 108.99Z" fill="#E0956C"/>
<path d="M108.281 102.81V111C108.281 112.77 106.683 114.18 104.706 114.18C102.747 114.18 101.148 112.74 101.165 110.97V102.81H108.281Z" fill="#E0956C"/>
<path d="M88.7733 58.6199C88.7044 58.9799 88.6531 59.3098 88.6012 59.6698C88.5499 59.9399 88.5157 60.2099 88.4639 60.4799C88.481 60.1799 88.5157 59.9399 88.5499 59.7298C88.5841 59.5199 88.6012 59.3399 88.6359 59.2199C88.6702 59.0098 88.722 58.7999 88.7733 58.6199Z" fill="#FFC19F"/>
<path d="M112.939 53.91C112.939 53.8201 112.939 53.85 112.957 53.9401C112.939 53.9401 112.939 53.91 112.939 53.91Z" fill="#FFC19F"/>
<path d="M101.681 199.89C101.561 200.91 98.2266 200.22 98.1924 199.17C97.7797 185.7 96.714 153.93 96.6455 150.57L104.363 151.29C104.363 151.29 102.3 194.97 101.681 199.89Z" fill="#FFC19F"/>
<path d="M107.56 199.89C107.68 200.91 111.014 200.22 111.048 199.17C111.461 185.7 112.527 153.93 112.595 150.57L104.878 151.29C104.861 151.29 106.941 194.97 107.56 199.89Z" fill="#FFC19F"/>
<path d="M94.0158 137.31C93.8956 137.55 93.7582 137.79 93.655 138.03C92.7785 139.74 92.1942 140.91 91.9019 141.21C91.7132 141.03 91.524 140.85 91.3519 140.67C88.0006 137.1 86.7803 132.12 86.8316 126.99C86.8487 125.01 87.4158 122.79 88.3271 120.78C89.169 122.94 90.3893 125.04 91.5582 126.39C91.455 126.69 91.369 127.02 91.2658 127.32C90.8537 128.67 90.7506 132 92.4006 135.09C92.7614 135.75 93.1911 136.41 93.724 137.04C93.8271 137.1 93.9127 137.19 94.0158 137.31Z" fill="#FFC19F"/>
<path d="M94.0153 137.31C93.895 137.55 93.7576 137.79 93.6545 138.03C93.5513 139.35 93.4482 140.64 93.345 141.9C93.2076 142.02 93.0874 142.14 93.0013 142.2C92.2279 142.56 91.695 141.63 91.3684 140.67C91.145 140.01 91.0419 139.32 91.0247 139.05C91.0076 138 91.6608 136.32 92.4171 135.06C92.8811 134.28 93.3621 133.68 93.7747 133.44C93.8608 133.38 93.9468 133.35 94.0329 133.29C93.9468 134.55 93.8437 135.78 93.7576 137.01C93.8266 137.1 93.9121 137.19 94.0153 137.31Z" fill="#FFC19F"/>
<path d="M127.445 110.01C127.153 109.53 125.761 110.16 124.231 108.87C123.407 115.23 122.839 116.94 120.811 117.9C118.474 119.01 116.153 116.07 111.96 111.66C111.684 113.46 111.633 116.85 112.905 119.7C115.758 126.06 119.298 127.74 121.962 126.78C125.125 125.58 127.05 117.75 127.445 110.01Z" fill="#FFC19F"/>
<path d="M130.213 104.49C130.436 104.73 130.831 104.52 131.45 104.25C131.983 104.01 132.791 103.59 133.186 103.83C133.616 104.1 133.427 104.85 132.894 105.51C132.017 106.59 129.972 108.9 128.907 109.89C127.171 111.81 124.73 111.12 123.733 108.21C122.255 103.83 121.825 102 120.983 99.2401C120.777 98.5502 121.757 98.4001 122.221 99.0597C123.217 100.47 123.235 101.31 123.785 101.97C124.317 102.6 124.696 101.97 124.971 100.98C125.469 95.5502 125.417 92.3397 126.328 91.8302C127.119 91.6197 127.05 95.4302 126.878 99.7201C128.064 95.5201 129.199 92.3102 129.783 93.0302C130.471 93.8702 129.491 97.5299 128.769 100.98C130.522 99.1502 132.052 96.3902 132.602 97.9797C132.997 99.2099 129.577 103.77 130.213 104.49Z" fill="#FFC19F"/>
<path d="M115.052 141.93C114.691 141.63 114.227 141.3 113.729 141.18C112.732 141.66 112.268 142.17 111.838 142.5C111.03 143.1 110.48 142.74 110.411 142.2C110.67 141.18 113.299 139.26 113.196 139.2C111.959 139.56 110.773 140.22 110.085 140.4C109.209 140.61 108.899 139.8 109.57 138.69C110.446 138.3 111.237 137.61 112.491 136.95C110.377 137.49 108.332 139.17 108.693 136.5C109.81 135.99 110.961 134.97 112.371 134.85C112.354 134.82 112.32 134.76 112.32 134.76C111.649 134.28 110.274 134.85 109.621 134.52C109.311 134.37 108.865 133.71 109.363 133.17C111.907 132.15 112.887 132.54 114.313 133.38C114.434 134.88 114.554 136.32 114.657 137.61C114.657 137.61 114.64 137.61 114.64 137.64C114.657 137.67 114.657 137.67 114.674 137.7C114.812 139.26 114.949 140.7 115.052 141.93Z" fill="#FFC19F"/>
<path d="M96.1637 136.65C97.4187 137.31 98.2092 138 99.0858 138.39C99.756 139.5 99.4466 140.31 98.57 140.1C97.8826 139.92 96.6966 139.26 95.4592 138.9C95.356 138.96 97.9858 140.88 98.2434 141.9C98.1574 142.44 97.6245 142.8 96.8168 142.2C96.37 141.87 95.9232 141.36 94.9092 140.88C94.2732 141 93.7061 141.51 93.3105 141.87C93.4137 140.64 93.5169 139.35 93.62 138C93.7403 137.76 93.8605 137.55 93.9808 137.28C93.8776 137.16 93.7921 137.07 93.6889 136.95C93.7745 135.72 93.8777 134.49 93.9637 133.23C95.5795 132.24 96.5074 131.73 99.2574 132.81C99.7731 133.35 99.3263 134.01 98.9997 134.16C98.3466 134.49 96.9718 133.92 96.3011 134.4C96.3011 134.4 96.2668 134.46 96.2497 134.49C97.6421 134.64 98.8105 135.66 99.9276 136.14C100.323 138.87 98.2776 137.19 96.1637 136.65Z" fill="#FFC19F"/>
<path d="M93.8442 137.31C93.7239 137.55 93.5866 137.79 93.4834 138.03C93.5176 137.7 93.5347 137.34 93.5694 136.98C93.655 137.1 93.741 137.19 93.8442 137.31Z" fill="#FFC19F"/>
<path d="M126.328 89.1003C125.417 95.8498 121.739 100.23 118.92 99.6898C116.101 99.1501 115.483 93.6603 115.895 87.1803C116.307 80.7003 118.92 75.84 121.739 76.4098C125.589 77.16 127.187 82.7403 126.328 89.1003Z" fill="#FFC19F"/>
<path d="M83.7717 89.3999C84.906 96.0602 88.7388 100.02 91.5231 99.2097C94.3249 98.3697 94.7541 92.8497 94.1186 86.3999C93.4996 79.9802 90.7154 75.39 87.9136 76.2602C84.0983 77.43 82.706 83.1599 83.7717 89.3999Z" fill="#FFC19F"/>
<path d="M119.504 77.0702C119.453 78.7502 119.401 80.4597 119.315 82.1698C119.281 82.8302 119.246 83.4898 119.212 84.1502C119.057 87.1502 118.851 90 118.61 92.4C118.336 95.0702 118.009 97.2302 117.614 98.4898C117.579 98.6098 117.545 98.6997 117.51 98.8197C115.586 104.07 106.889 108.48 104.826 108.6C102.867 108.69 93.5167 104.58 91.1451 99.8702C91.0591 99.72 90.9901 99.5397 90.9217 99.3298C90.5433 98.2197 90.1825 96.2702 89.873 93.84C89.5807 91.56 89.3401 88.8302 89.1167 85.9502C89.0654 85.2 89.0135 84.4197 88.9622 83.64C88.8072 81.1797 88.6699 78.6597 88.5667 76.2C88.4293 72.8098 88.3433 69.5397 88.3262 66.75C89.323 65.46 90.7838 64.29 92.5027 63.3C92.7262 61.59 94.0154 57.33 94.273 56.76C94.187 57.66 94.0667 60.81 93.9983 62.52C96.4041 61.38 99.137 60.54 101.836 60.15C101.75 58.35 102.231 56.01 102.231 55.89C102.557 56.43 103.21 58.89 103.486 59.97C103.898 59.94 104.293 59.91 104.689 59.91C108.315 59.82 111.014 60.18 113.162 60.84C113.007 56.43 112.956 54.45 112.939 54C113.334 55.2 113.867 58.5 113.936 61.11C114.743 61.41 115.465 61.77 116.136 62.16C116.187 60.54 116.359 57.93 116.376 57.51C116.669 57.81 117.236 61.35 117.442 63.06C118.198 63.63 118.903 64.26 119.59 64.95C119.676 68.13 119.642 72.5102 119.504 77.0702Z" fill="#FFC19F"/>
<path d="M106.752 199.17C106.769 199.44 111.839 199.23 111.874 198.9C112.114 196.29 112.372 190.32 112.475 189.15L106.305 189.27C106.46 192.06 106.631 197.52 106.752 199.17Z" fill="#FFC76E"/>
<path d="M102.833 199.17C102.816 199.44 97.7454 199.23 97.7107 198.9C97.4702 196.29 97.2125 190.32 97.1094 189.15L103.28 189.27C103.125 192.06 102.936 197.52 102.833 199.17Z" fill="#FFC76E"/>
<path d="M114.107 196.2C114.004 195.63 113.815 194.91 113.66 194.25C113.54 193.77 110.79 193.95 110.807 195.12C110.807 195.42 110.825 195.69 110.842 195.93C110.378 195.96 109.862 195.96 109.312 195.96C108.143 195.93 107.078 195.81 106.339 195.63C106.304 197.49 106.442 200.73 106.425 202.8C106.425 202.8 118.748 206.4 120.656 203.22C121.189 202.32 118.06 198.54 114.107 196.2Z" fill="#E2511E"/>
<path d="M95.4585 196.2C95.5616 195.63 95.7508 194.91 95.9053 194.25C96.0256 193.77 98.7756 193.95 98.7585 195.12C98.7585 195.42 98.7414 195.69 98.7242 195.93C99.1882 195.96 99.704 195.96 100.254 195.96C101.422 195.93 102.488 195.81 103.227 195.63C103.262 197.49 103.124 200.73 103.141 202.8C103.141 202.8 90.8179 206.4 88.9098 203.22C88.3774 202.32 91.5053 198.54 95.4585 196.2Z" fill="#E2511E"/>
<path d="M103.143 201.48C103.143 201.93 103.143 202.38 103.143 202.77C103.143 202.77 90.8193 206.37 88.9111 203.19C88.8427 203.07 88.8427 202.89 88.894 202.65C92.2801 204.06 100.083 202.29 103.143 201.48Z" fill="#892910"/>
<path d="M106.425 201.48C106.425 201.93 106.425 202.38 106.425 202.77C106.425 202.77 118.748 206.37 120.656 203.19C120.724 203.07 120.724 202.89 120.673 202.65C117.304 204.06 109.484 202.29 106.425 201.48Z" fill="#892910"/>
<path d="M114.967 196.8C115.053 196.83 115.156 196.74 115.174 196.56C115.191 196.41 115.139 196.23 115.036 196.2C114.314 195.96 113.489 196.56 113.025 197.67C112.974 197.79 112.991 198 113.06 198.09C113.094 198.12 113.128 198.15 113.163 198.15C113.214 198.15 113.266 198.12 113.3 198.03C113.695 197.1 114.383 196.59 114.967 196.8ZM115.93 197.52C116.016 197.55 116.102 197.43 116.119 197.25C116.136 197.1 116.05 196.95 115.964 196.92C115.208 196.8 114.469 197.31 113.936 198.33C113.867 198.45 113.884 198.63 113.953 198.75C113.988 198.81 114.022 198.84 114.074 198.84C114.125 198.84 114.177 198.81 114.211 198.75C114.813 197.52 115.552 197.46 115.93 197.52ZM116.961 197.73C116.274 197.55 115.414 198.12 114.847 199.11C114.778 199.23 114.778 199.41 114.847 199.53C114.881 199.59 114.916 199.62 114.967 199.62C115.019 199.62 115.053 199.59 115.088 199.53C115.586 198.66 116.325 198.15 116.892 198.3C116.995 198.33 117.081 198.21 117.081 198.06C117.116 197.91 117.064 197.73 116.961 197.73Z" fill="#D3DAE5"/>
<path d="M96.2495 198.03C96.2838 198.12 96.3356 198.15 96.3869 198.15C96.4216 198.15 96.4559 198.12 96.4901 198.09C96.559 198 96.5761 197.82 96.5248 197.67C96.0603 196.56 95.2356 195.96 94.5135 196.2C94.4279 196.23 94.359 196.38 94.3761 196.56C94.3932 196.71 94.4793 196.83 94.5824 196.8C95.1838 196.59 95.8716 197.1 96.2495 198.03ZM95.373 198.72C95.4072 198.78 95.459 198.81 95.5103 198.81C95.5451 198.81 95.5964 198.78 95.6306 198.72C95.6995 198.6 95.6995 198.42 95.6482 198.3C95.1153 197.28 94.3761 196.77 93.6198 196.89C93.5167 196.92 93.4482 197.04 93.4653 197.22C93.4824 197.4 93.5514 197.52 93.6545 197.49C94.0324 197.46 94.7545 197.52 95.373 198.72ZM92.4685 198.06C92.4856 198.21 92.5716 198.33 92.6572 198.3C93.2248 198.12 93.9806 198.66 94.4622 199.53C94.4964 199.59 94.5482 199.62 94.5824 199.62C94.6167 199.62 94.6685 199.59 94.7027 199.53C94.7716 199.41 94.7716 199.23 94.7027 199.11C94.1356 198.12 93.2761 197.55 92.5887 197.73C92.5198 197.73 92.4514 197.91 92.4685 198.06Z" fill="#D3DAE5"/>
<path d="M103.349 87.3298C103.434 87.3298 103.503 87.2098 103.52 87.0603C103.606 86.0098 104.07 85.2898 104.706 85.2603C105.342 85.2302 105.858 85.8898 105.961 86.9403C105.978 87.0898 106.064 87.2098 106.167 87.1803C106.27 87.1502 106.322 87 106.304 86.8203C106.167 85.5003 105.514 84.6 104.706 84.6603C103.899 84.6898 103.28 85.6498 103.176 87C103.159 87.1803 103.228 87.3298 103.331 87.3298H103.349Z" fill="#C67F75"/>
<path d="M92.2104 69.36C92.3307 69.3298 92.4338 69.24 92.5199 69.0898C93.637 67.05 95.8717 66.21 97.7451 67.14C98.0028 67.26 98.278 67.02 98.3465 66.54C98.4154 66.09 98.2604 65.61 98.0028 65.49C95.7685 64.38 93.1559 65.4 91.7807 67.89C91.592 68.2199 91.6091 68.7902 91.7983 69.12C91.9357 69.2996 92.073 69.3902 92.2104 69.36Z" fill="#775D2A"/>
<path d="M116.118 68.34C116.256 68.34 116.393 68.2499 116.479 68.04C116.668 67.68 116.651 67.14 116.445 66.8099C114.967 64.5 112.32 63.8699 110.137 65.28C109.879 65.46 109.759 65.94 109.845 66.3899C109.948 66.84 110.223 67.0499 110.481 66.9C112.303 65.7 114.589 66.24 115.792 68.1C115.878 68.2499 115.998 68.34 116.118 68.34Z" fill="#775D2A"/>
<path d="M108.506 85.5298C108.506 85.5298 113.799 88.3804 115.776 83.4898C118.182 77.52 114.418 72.9298 111.977 73.8898C109.743 74.76 107.715 78.2098 108.506 85.5298Z" fill="#F9FEFF"/>
<path d="M116.136 75.9298C115.139 73.7999 113.833 73.1396 112.406 73.4399C110.946 73.7101 109.484 75.5396 109.072 77.4301C109.846 75.3298 111.186 74.5199 112.028 74.1901C113.369 73.6498 115.122 74.6701 115.93 76.7698C116.652 78.6301 116.6 81.4498 115.724 83.6399C116.772 82.1396 117.167 78.1501 116.136 75.9298Z" fill="#773220"/>
<path d="M109.673 79.2898C109.209 81.4203 109.81 83.8203 111.031 84.6302C112.251 85.44 113.626 84.3902 114.09 82.2603C114.554 80.1298 113.953 77.7298 112.733 76.92C111.512 76.1102 110.137 77.16 109.673 79.2898Z" fill="#00576C"/>
<path d="M109.863 78.6302C109.725 79.2302 109.897 79.8898 110.241 80.1298C110.585 80.3698 110.963 80.0701 111.1 79.4702C111.238 78.8702 111.066 78.2098 110.723 77.9698C110.361 77.76 109.983 78.0603 109.863 78.6302Z" fill="#FEFFFE"/>
<path d="M100.529 85.7102C100.529 85.7102 95.2694 88.7404 93.2239 83.9404C90.732 78.0604 94.4618 73.3502 96.9023 74.1902C99.1537 75.0001 101.233 78.3601 100.529 85.7102Z" fill="#F9FEFF"/>
<path d="M92.7957 76.3802C93.7578 74.2203 95.0641 73.5297 96.4907 73.7403C97.9515 73.9803 99.4299 75.7501 99.8596 77.6097C99.0691 75.5402 97.711 74.7901 96.8691 74.4897C95.5281 74.0097 93.7749 75.0897 93.0015 77.2202C92.3141 79.1101 92.383 81.9297 93.2938 84.0897C92.2281 82.6202 91.7812 78.6602 92.7957 76.3802Z" fill="#773220"/>
<path d="M94.9943 79.6498C94.5304 81.7796 95.1322 84.1796 96.3525 84.9902C97.5727 85.8 98.9475 84.7502 99.4119 82.6196C99.8759 80.4898 99.2741 78.0898 98.0538 77.28C96.8506 76.4702 95.4759 77.52 94.9943 79.6498Z" fill="#00576C"/>
<path d="M95.1851 78.9902C95.0477 79.5902 95.2198 80.2499 95.5635 80.4899C95.9072 80.7299 96.2851 80.4302 96.4224 79.8302C96.5603 79.2302 96.3882 78.5699 96.0445 78.3299C95.7008 78.1201 95.3224 78.4197 95.1851 78.9902Z" fill="#FEFFFE"/>
<path d="M85.0275 59.55C85.0275 59.55 83.5325 63.87 85.1306 64.32C86.7293 64.77 88.2244 63.09 88.4825 60.54C88.723 57.99 87.623 55.56 86.0072 55.08C84.4086 54.63 85.0275 59.55 85.0275 59.55Z" fill="#F9951E"/>
<path d="M93.6546 62.04C93.6546 62.04 94.273 66.96 92.6748 66.5101C91.0762 66.06 89.9591 63.6 90.1996 61.05C90.4406 58.5 91.9356 56.82 93.5514 57.27C95.1496 57.72 93.6546 62.04 93.6546 62.04Z" fill="#F9951E"/>
<path d="M90.4066 61.1699C90.2864 62.3699 89.7021 63.2099 89.0832 63.0599C88.4643 62.8799 88.0692 61.7699 88.1895 60.5399C88.3098 59.3399 88.894 58.4999 89.5129 58.6499C90.1143 58.8299 90.5098 59.9399 90.4066 61.1699Z" fill="#F9951E"/>
<path d="M97.196 115.56C96.3878 116.43 95.7004 117.3 95.1162 118.14C95.2365 116.64 95.3739 115.26 95.4941 114.03C96.3194 114.21 96.5599 114.9 97.196 115.56Z" fill="#28AFC6"/>
<path d="M95.4771 144.51C95.4771 144.51 91.7992 148.62 89.96 160.62C96.491 171.09 109.725 173.88 119.075 158.85C118.44 155.97 115.225 144.12 113.524 143.58L95.4771 144.51Z" fill="#2A535E"/>
<path d="M114.847 137.67C114.847 137.64 114.83 137.64 114.812 137.61L114.83 137.58C114.847 137.61 114.847 137.64 114.847 137.67Z" fill="#28AFC6"/>
<path d="M95.4933 114.06C95.373 115.29 95.2356 116.67 95.1154 118.17C93.3275 120.81 92.4509 123.51 91.5572 126.36C90.3717 124.98 89.1685 122.91 88.3262 120.75C89.7528 117.54 92.0041 114.81 94.2559 114.21C94.7888 114.03 95.1838 114 95.4933 114.06Z" fill="#28AFC6"/>
<path d="M115.723 147.03C114.486 148.59 112.595 149.91 110.378 150.78C108.745 151.44 106.94 151.86 105.067 151.98C104.878 151.98 104.689 152.01 104.5 152.01C101.939 152.13 99.3094 151.68 96.9031 150.54C95.4076 149.82 93.9986 148.86 92.7607 147.57C92.9499 145.86 93.1562 143.94 93.3278 141.87C93.7234 141.51 94.2905 141 94.9265 140.88C95.9405 141.36 96.3873 141.87 96.8342 142.2C97.6423 142.8 98.1747 142.44 98.2607 141.9C98.0031 140.88 95.3734 138.96 95.4765 138.9C96.7139 139.26 97.8999 139.92 98.5873 140.1C99.4639 140.31 99.7734 139.5 99.1031 138.39C98.2265 138 97.436 137.31 96.181 136.65C98.2954 137.19 100.323 138.87 99.9797 136.2C98.8626 135.69 97.7107 134.67 96.3013 134.55C96.3189 134.52 96.3531 134.46 96.3531 134.46C97.0234 133.98 98.3986 134.55 99.0513 134.22C99.3607 134.07 99.8076 133.41 99.3094 132.87C96.5594 131.79 95.631 132.3 94.0157 133.29C94.1873 130.92 94.3594 128.52 94.5139 126.18C94.7202 123.33 94.9094 120.6 95.1157 118.17C95.6999 117.3 96.3873 116.43 97.1955 115.59C96.5594 114.93 96.3189 114.21 95.4936 114.09C95.6828 112.32 95.8544 110.91 96.0607 109.95C96.3013 109.89 96.5594 109.83 96.8342 109.77C101.767 108.75 109.33 108.81 112.75 110.4C112.819 110.43 112.904 110.46 112.973 110.52C113.042 111.81 113.111 113.1 113.18 114.36C112.561 114.39 111.925 114.48 111.34 114.66C110.275 114.96 109.33 115.44 108.9 115.89C109.639 116.67 110.395 117.45 111.134 118.26C111.994 119.16 112.819 120.09 113.592 121.02C113.695 122.67 113.816 124.29 113.919 125.82C114.108 128.52 114.314 131.07 114.503 133.38C113.077 132.54 112.097 132.15 109.553 133.17C109.037 133.71 109.484 134.37 109.811 134.52C110.464 134.85 111.839 134.28 112.509 134.76C112.509 134.76 112.544 134.82 112.561 134.85C111.151 135 110 136.02 108.883 136.5C108.539 139.17 110.567 137.49 112.681 136.95C111.427 137.61 110.619 138.3 109.759 138.69C109.089 139.8 109.399 140.61 110.275 140.4C110.963 140.22 112.149 139.56 113.386 139.2C113.489 139.26 110.859 141.18 110.601 142.2C110.687 142.74 111.22 143.1 112.028 142.5C112.458 142.17 112.922 141.66 113.919 141.18C114.417 141.27 114.864 141.6 115.242 141.93C115.534 145.17 115.723 147.03 115.723 147.03Z" fill="#28AFC6"/>
<path d="M115.586 146.85C111.357 152.22 99.4465 154.5 92.623 147.42C93.9294 136.23 94.8059 115.14 95.9059 109.77C100.89 108.54 109.329 108.54 112.819 110.34C113.884 130.44 115.586 146.85 115.586 146.85Z" fill="#28AFC6"/>
<path d="M121.653 116.67C120.983 120.78 118.559 125.94 116.686 127.29C115.397 125.79 107.989 121.2 111.89 110.01C115.293 110.43 121.653 116.67 121.653 116.67Z" fill="#28AFC6"/>
<path d="M94.5135 126.15C93.9464 126.87 93.4654 127.41 93.2248 127.77C92.7091 127.53 92.1419 127.02 91.5572 126.33C92.4509 123.48 93.3275 120.78 95.1154 118.14C95.6996 117.27 96.387 116.4 97.1951 115.56C96.5591 114.9 96.3185 114.18 95.4933 114.06C95.1838 114 94.7888 114.03 94.2559 114.18C92.0041 114.78 89.7527 117.54 88.3262 120.72C87.9996 119.91 87.7419 119.1 87.5527 118.29C87.5527 118.29 93.4135 110.7 96.7654 109.59C96.7825 109.65 96.8167 109.68 96.8338 109.74C100.426 117.84 96.7483 123.36 94.5135 126.15Z" fill="#28AFC6"/>
<path d="M120.931 122.07C120.021 124.23 118.732 126.24 117.528 127.53C116.807 125.25 115.346 123.09 113.575 120.99C113.438 118.86 113.3 116.64 113.163 114.36C113.661 114.33 114.143 114.39 114.573 114.51C117.064 115.17 119.574 118.44 120.931 122.07Z" fill="#28AFC6"/>
<path d="M113.576 120.99C112.802 120.06 111.96 119.16 111.118 118.23C111.032 117.12 111.084 115.92 111.324 114.63C111.926 114.45 112.562 114.36 113.163 114.33C113.301 116.61 113.438 118.83 113.576 120.99Z" fill="#28AFC6"/>
<path d="M111.117 118.23C110.378 117.45 109.622 116.64 108.883 115.86C109.313 115.41 110.258 114.93 111.323 114.63C111.083 115.92 111.031 117.12 111.117 118.23Z" fill="#28AFC6"/>
<path d="M122.152 115.89C121.103 123.93 116.274 132.57 115.053 130.11C109.794 123.39 110.499 113.52 115.122 111.54C118.027 115.05 122.152 115.89 122.152 115.89Z" fill="#28AFC6"/>
<path opacity="0.21" d="M89.8741 93.8099C89.8228 93.8401 89.771 93.8401 89.7196 93.8703C88.293 94.2899 86.9178 92.3404 86.643 89.5201C86.3678 86.7004 87.2962 84.0604 88.7228 83.6401C88.8083 83.6099 88.8773 83.6099 88.9633 83.5804C89.2038 87.3601 89.5133 90.9299 89.8741 93.8099Z" fill="black"/>
<path opacity="0.21" d="M118.749 93.72C118.8 93.7502 118.852 93.7502 118.904 93.7804C120.33 94.1404 121.688 92.1299 121.928 89.3102C122.169 86.4899 121.19 83.88 119.763 83.52C119.677 83.4899 119.608 83.4899 119.522 83.4899C119.333 87.24 119.076 90.8099 118.749 93.72Z" fill="black"/>
<path d="M109.398 93.6604C109.759 96.72 106.992 100.92 104.499 100.65C102.007 100.38 100.34 96.72 100.392 93.5698C100.563 91.8604 102.196 92.3699 104.637 92.3102C107.095 92.2499 109.174 91.7698 109.398 93.6604Z" fill="#701608"/>
<path d="M104.775 97.8C103.623 97.8 102.747 98.3102 102.18 99.2401C102.833 99.9902 103.709 100.71 104.672 100.68C105.754 100.65 106.7 100.35 107.404 99.0899C107.113 98.2197 105.806 97.8 104.775 97.8Z" fill="#DD6B5B"/>
<path d="M108.161 92.3102C107.319 91.8898 105.995 92.1902 104.775 92.2203C103.4 92.2498 102.386 91.9803 101.526 92.3102C101.853 93.6 103.022 94.4098 104.603 94.3803C106.442 94.3803 107.92 93.6898 108.161 92.3102Z" fill="white"/>
<path d="M95.649 136.65C96.9035 137.31 97.6941 138 98.5706 138.39C99.2409 139.5 98.9314 140.31 98.0549 140.1C97.3675 139.92 96.1814 139.26 94.9441 138.9C94.8409 138.96 97.4706 140.88 97.7283 141.9C97.6427 142.44 97.1098 142.8 96.3017 142.2C95.8549 141.87 95.408 141.36 94.3941 140.88C93.758 141 93.1909 141.51 92.7959 141.87C92.8991 140.64 93.0017 139.35 93.1049 138C93.2251 137.76 93.3459 137.55 93.4662 137.28C93.363 137.16 93.277 137.07 93.1738 136.95C93.2599 135.72 93.363 134.49 93.4491 133.23C95.0643 132.24 95.9927 131.73 98.7427 132.81C99.258 133.35 98.8112 134.01 98.4846 134.16C97.8314 134.49 96.4567 133.92 95.7864 134.4C95.7864 134.4 95.7517 134.46 95.7346 134.49C97.127 134.64 98.2959 135.66 99.413 136.14C99.808 138.87 97.763 137.19 95.649 136.65Z" fill="#FFC19F"/>
</svg>
