<svg width="220" height="240" viewBox="0 0 220 240" fill="none" xmlns="http://www.w3.org/2000/svg">
<path d="M135.918 94.9502C135.351 94.2494 133.653 91.8165 134.357 86.1367C134.618 84.0336 133.828 83.2211 133.129 82.5025C132.177 81.5226 131.355 80.6771 132.402 76.9996C133.713 72.4026 133.189 68.2842 131.037 66.2514C129.369 64.677 127.642 61.6639 126.239 57.9717C125.723 55.876 125.319 53.8683 125.041 52.3851C115.607 48.3727 101.848 53.4588 96.8991 56.5848L94.2449 55.8276C93.8469 60.0376 91.4162 63.6477 90.0913 66.3756C88.4858 69.6803 87.7383 73.2268 88.632 77.088C88.9854 78.6192 89.2558 79.9783 88.9683 81.1105C88.7253 82.0677 88.0736 82.8597 86.9751 83.5276C85.8873 84.1893 85.2117 85.0862 84.9125 86.2698C84.4886 87.9388 84.9105 89.7628 85.2816 91.3701C85.5436 92.5043 85.4659 94.1905 85.2787 95.049C84.5903 98.2142 83.9401 99.3436 84.21 101.626C84.1718 99.2256 84.9516 98.016 85.5725 95.3774C85.8042 94.392 85.9406 92.769 85.4517 90.6707C85.1046 89.1799 84.8665 87.9477 85.2273 86.5248C85.485 85.5072 86.0922 84.72 87.0851 84.1159C88.2956 83.3788 88.9947 82.5045 89.2836 81.3648C89.3927 80.9335 89.42 80.4775 89.4171 80.0112C89.9378 82.3015 89.8928 84.1489 87.5852 85.835C83.3446 88.9351 87.3105 94.2474 86.65 96.4348C85.5163 100.19 85.1965 100.912 85.3075 103.897C85.4351 107.318 86.7419 109.41 88.0712 110.166C88.0996 109.63 86.0638 107.731 87.3129 102.616C87.508 105.481 89.666 110.964 90.0972 111.161C96.9719 114.291 117.991 122.213 127.651 111.988C129.012 110.547 129.314 104.742 129.011 102.682C131.51 103.914 129.564 111.119 130.078 110.238C136.134 99.8709 134.349 96.2977 133.558 96.0995C132.459 95.8231 131.752 95.9445 133.133 86.9911C133.802 82.6492 129.231 84.6645 131.192 77.7806C132.367 73.6533 131.955 70.0622 129.9 67.449C129.179 66.5335 128.532 65.1594 127.946 63.609C128.896 65.0016 129.866 66.18 130.789 67.0512C132.786 68.9363 133.326 72.3943 132.094 76.7178C130.896 80.9232 132.037 82.0986 132.955 83.0421C133.665 83.7724 134.233 84.3511 134.019 86.0044C133.204 92.3376 135.582 94.7383 135.918 94.9502ZM88.7918 75.9895C88.2506 72.8304 88.8075 69.9676 90.2101 67.0803C90.9987 65.457 92.1979 64.1442 93.1512 62.476C91.8122 68.016 88.916 71.7168 88.7918 75.9895Z" fill="#D6B45F"/>
<path d="M129.091 70.5181C128.57 77.967 127.097 84.3147 124.959 89.2676C126.073 83.184 127.029 76.6978 127.506 72.3867C127.819 72.8372 128.129 73.2987 128.442 73.7759C129.475 75.3572 127.931 58.7459 125.832 55.9949C123.229 52.5869 118.053 49.7759 113.306 48.4229C108.146 46.9529 102.715 46.6919 99.5937 49.1009C97.5282 50.6909 93.8566 65.9099 94.8779 64.8629C95.5721 64.1519 96.4761 63.5579 97.5331 63.0809C96.7973 70.1218 96.1305 80.0372 96.0346 87.3298C92.8979 79.5538 91.772 69.1412 93.9412 57.7259C96.8012 42.6689 104.604 39.1469 115.075 42.8939C125.08 46.4729 129.925 58.5749 129.091 70.5181Z" fill="#D6B45F"/>
<path d="M127.508 72.3868C126.87 71.4693 126.22 70.6053 125.506 69.792C125.467 67.9741 125.241 64.164 124.976 63.777C124.907 64.221 124.459 66.84 124.244 68.4781C123.594 67.86 122.886 67.272 122.092 66.7141C122.29 64.044 122.092 60.477 121.803 59.127C121.807 59.016 121.803 59.0071 121.793 59.0821C121.796 59.097 121.8 59.112 121.803 59.127C121.783 59.568 121.633 61.623 121.332 66.204C119.197 64.8421 116.475 63.648 112.744 62.5861C112.336 62.469 111.924 62.364 111.506 62.268C111.326 61.0951 110.908 58.344 110.636 57.705C110.623 57.8311 109.889 60.081 109.786 61.9381C106.991 61.4941 104.088 61.485 101.513 61.917C101.745 60.2101 102.199 57.0061 102.382 56.112C102.06 56.613 100.293 60.585 99.8926 62.2621C99.0488 62.481 98.2563 62.7541 97.5342 63.081C97.9815 58.8 98.4538 55.584 98.8405 54.6661C102.447 46.077 106.716 47.5501 113.756 50.1511C121.281 52.932 126.989 55.4461 127.824 67.815C127.872 68.535 127.753 70.1733 127.508 72.3868Z" fill="#D6B45F"/>
<path d="M128.442 73.776C128.129 73.2988 127.82 72.8373 127.507 72.3868C127.753 70.1733 127.871 68.535 127.823 67.815C126.988 55.4459 121.28 52.932 113.755 50.151C106.715 47.5499 102.446 46.0769 98.8398 54.6659C98.4531 55.584 97.9803 58.8 97.5335 63.0809C96.4765 63.5579 95.5726 64.152 94.8779 64.863C93.8571 65.9099 97.5286 50.691 99.5942 49.1009C102.716 46.692 108.147 46.9529 113.307 48.423C118.054 49.776 123.229 52.587 125.833 55.995C127.931 58.7459 129.475 75.3573 128.442 73.776Z" fill="#D6B45F"/>
<path fill-rule="evenodd" clip-rule="evenodd" d="M108.369 96.2126C108.101 97.1589 107.104 98.8588 105.104 98.8711C103.361 98.8828 102.141 97.3495 101.671 96.1804C101.385 95.4686 101.42 94.774 101.72 95.2718C104.324 99.5925 107.426 97.0032 108.074 95.915C108.319 95.5029 108.532 95.6366 108.369 96.2126Z" fill="#B13B32"/>
<path opacity="0.16" d="M123.612 205.992C123.612 208.546 115.184 210.615 104.789 210.615C94.3928 210.615 85.9658 208.546 85.9658 205.992C85.9658 203.44 94.3928 201.37 104.789 201.37C115.184 201.37 123.612 203.44 123.612 205.992Z" fill="black"/>
<path d="M109.117 200.246C109.275 201.228 112.539 200.226 112.536 199.197C112.505 185.851 112.532 154.392 112.489 151.053L104.897 152.533C104.897 152.532 108.349 195.463 109.117 200.246Z" fill="#FFC19F"/>
<path d="M103.845 200.472C103.827 201.492 100.521 201.891 100.381 200.891C98.5709 187.925 94.2051 157.403 93.7861 154.144L101.359 152.39C101.359 152.39 103.931 195.507 103.845 200.472Z" fill="#FFC19F"/>
<path d="M81.0049 102.418C80.6103 104.369 79.9323 105.161 79.4326 107.037C85.377 112.454 89.8151 115.498 95.3332 116.357C98.7731 115.507 101.328 112.188 101.614 108.163C93.584 108.745 87.2807 106.65 81.0049 102.418Z" fill="#FFC19F"/>
<path d="M117.993 149.812C116.903 150.622 116.352 151.303 115.31 152.291C112.699 139.971 112.721 137.371 110.848 128.367C111.118 122.323 112.855 117.662 115.138 116.911C116.219 131.222 116.707 138.532 117.993 149.812Z" fill="#FFC19F"/>
<path d="M77.3901 100.249C77.1442 100.437 76.7706 100.114 76.1791 99.6432C75.6667 99.2352 74.9085 98.5824 74.4895 98.7236C74.0417 98.8752 74.1433 99.683 74.6141 100.489C75.393 101.82 77.2126 104.712 78.1747 106.035C79.7318 108.471 82.2369 108.479 83.5012 105.858C85.3971 101.928 85.995 100.2 87.1097 97.7102C87.3844 97.0964 86.4208 96.6514 85.8894 97.1794C84.7522 98.3081 84.653 99.1344 84.0434 99.6308C83.4489 100.115 83.1286 99.3552 82.957 98.2923C82.9756 92.7332 83.3276 89.5385 82.4716 88.7678C81.7089 88.3282 81.4004 92.1566 81.1653 96.5012C80.3889 91.9584 79.5514 88.427 78.9066 88.9598C78.143 89.5899 78.7682 93.5294 79.1564 97.2027C77.5763 94.8624 76.3209 91.6512 75.6183 93.0939C75.1045 94.1485 78.0843 99.7166 77.3901 100.249Z" fill="#FFC19F"/>
<path d="M120.173 161.835C120.27 161.59 120.491 161.117 119.9 159.228C119.802 158.916 120.495 160.488 120.529 160.048C120.625 158.822 120.54 156.897 120.008 154.38C119.036 149.785 117.309 147.031 116.14 147.792C115.579 148.157 113.894 156.211 115.268 159.735C115.406 160.09 115.79 156.685 116.035 156.889C116.37 157.167 116.446 158.527 116.962 159.758C118.108 162.491 119.101 164.103 119.266 162.917C119.323 162.509 117.887 157.405 117.967 157.255C118.048 157.105 120.1 162.02 120.173 161.835Z" fill="#FFC19F"/>
<path d="M107.907 198.82C107.921 199.078 112.94 199.048 112.971 198.739C113.232 196.162 113.567 190.229 113.681 189.088H107.586C107.695 191.796 107.817 197.173 107.907 198.82Z" fill="#FFC76E"/>
<path d="M115.218 196.132C115.129 195.567 114.946 194.851 114.804 194.196C114.699 193.711 111.976 193.788 111.969 194.956C111.967 195.254 111.974 195.518 111.988 195.758C111.522 195.766 111.017 195.756 110.483 195.722C109.323 195.649 108.283 195.484 107.554 195.281C107.506 197.126 107.599 200.324 107.556 202.376C107.556 202.376 119.703 206.345 121.617 203.27C122.157 202.404 119.107 198.554 115.218 196.132Z" fill="#E2511E"/>
<path d="M107.567 201.09C107.566 201.546 107.564 201.986 107.556 202.376C107.556 202.376 119.703 206.346 121.617 203.27C121.692 203.149 121.696 202.966 121.637 202.738C118.286 204.007 110.587 201.977 107.567 201.09Z" fill="#892910"/>
<path d="M116.069 196.729C116.161 196.761 116.251 196.663 116.271 196.503C116.291 196.343 116.234 196.185 116.142 196.149C115.436 195.882 114.615 196.452 114.143 197.543C114.086 197.674 114.101 197.86 114.176 197.959C114.205 197.997 114.239 198.016 114.272 198.019C114.326 198.022 114.379 197.982 114.414 197.901C114.809 196.987 115.489 196.502 116.069 196.729ZM117.003 197.48C117.095 197.51 117.18 197.382 117.191 197.219C117.202 197.056 117.135 196.909 117.041 196.891C116.298 196.737 115.563 197.224 115.026 198.217C114.961 198.336 114.964 198.524 115.033 198.637C115.064 198.688 115.103 198.715 115.143 198.718C115.19 198.721 115.238 198.689 115.273 198.625C115.907 197.454 116.628 197.404 117.003 197.48ZM118.028 197.716C117.358 197.513 116.496 198.051 115.928 199.019C115.861 199.134 115.86 199.321 115.925 199.439C115.957 199.495 115.999 199.525 116.041 199.528C116.086 199.531 116.131 199.503 116.166 199.444C116.661 198.601 117.405 198.117 117.97 198.301C118.066 198.332 118.151 198.22 118.167 198.059C118.182 197.897 118.121 197.744 118.028 197.716Z" fill="#D3DAE5"/>
<path d="M92.9486 140.27C92.9486 140.27 90.0944 158.424 88.7598 164.067C94.0657 170.883 111.241 172.127 118.281 160.155C117.726 157.253 113.006 145.661 112.16 141.053L92.9486 140.27Z" fill="#2A535E"/>
<path opacity="0.23" d="M114.648 149.301C112.326 151.869 108.782 155.936 103.145 156.372C96.3426 156.898 92.6266 153.854 90.958 152.39C91.9949 146.842 92.9483 140.27 92.9483 140.27L111.807 141.067C112.291 142.769 113.75 146.715 114.648 149.301Z" fill="black"/>
<path d="M103.019 108.246C103.085 108.267 103.15 108.285 103.215 108.306C103.15 108.291 103.083 108.273 103.018 108.258C103.018 108.255 103.019 108.249 103.019 108.246Z" fill="#E0956C"/>
<path d="M104.232 198.721C104.226 198.979 99.2147 199.432 99.1736 199.128C98.8314 196.58 98.3098 190.727 98.1602 189.599L104.243 188.932C104.22 191.647 104.27 197.067 104.232 198.721Z" fill="#FFC76E"/>
<path d="M96.849 196.742C96.9194 196.169 97.0798 195.437 97.2005 194.769C97.29 194.275 100.011 194.089 100.056 195.254C100.067 195.552 100.068 195.817 100.062 196.056C100.527 196.02 101.032 195.961 101.563 195.876C102.719 195.691 103.752 195.426 104.474 195.153C104.58 196.992 104.589 200.193 104.697 202.238C104.697 202.238 92.6944 207.372 90.6856 204.487C90.1195 203.673 93.0425 199.535 96.849 196.742Z" fill="#E2511E"/>
<path d="M104.645 200.954C104.659 201.409 104.675 201.848 104.696 202.238C104.696 202.238 92.6936 207.372 90.6848 204.486C90.6051 204.372 90.5958 204.19 90.6471 203.956C94.0337 204.9 101.657 202.131 104.645 200.954Z" fill="#892910"/>
<path d="M97.7063 198.43C97.7434 198.507 97.7987 198.542 97.852 198.534C97.8852 198.529 97.918 198.506 97.9458 198.466C98.0177 198.359 98.027 198.172 97.9659 198.047C97.4604 197.002 96.6219 196.513 95.9257 196.849C95.8353 196.892 95.7825 197.056 95.8079 197.214C95.8328 197.372 95.9257 197.461 96.0172 197.421C96.5887 197.137 97.2834 197.556 97.7063 198.43ZM96.8717 199.236C96.9089 199.297 96.9573 199.323 97.0042 199.316C97.0443 199.31 97.0829 199.279 97.1123 199.225C97.1768 199.106 97.1739 198.918 97.1054 198.805C96.5373 197.866 95.7884 197.45 95.0511 197.674C94.9582 197.702 94.8966 197.855 94.9123 198.017C94.9279 198.179 95.0174 198.298 95.1083 198.26C95.4799 198.147 96.2015 198.128 96.8717 199.236ZM93.9643 198.949C93.9853 199.11 94.0738 199.212 94.1682 199.173C94.727 198.934 95.4857 199.345 96.0059 200.139C96.0426 200.196 96.089 200.218 96.1335 200.211C96.176 200.205 96.2161 200.171 96.246 200.111C96.308 199.988 96.3007 199.801 96.2303 199.692C95.6324 198.781 94.7548 198.327 94.0919 198.594C94.0005 198.631 93.9433 198.79 93.9643 198.949Z" fill="#D3DAE5"/>
<path d="M111.274 112.02C110.721 115.146 109.194 118.806 105.853 117.147C102.942 115.698 102.734 110.481 103.017 108.258C103.083 108.273 103.15 108.291 103.215 108.306C103.428 108.375 103.646 108.447 103.866 108.522L103.49 111.15C103.248 112.836 104.58 114.873 106.465 115.698C108.351 116.523 110.074 115.824 110.317 114.138L110.674 111.654C110.881 111.777 111.08 111.897 111.274 112.02Z" fill="#E0956C"/>
<path d="M110.673 111.654L110.315 114.138C110.073 115.824 108.349 116.523 106.463 115.698C104.578 114.873 103.246 112.836 103.488 111.15L103.865 108.522C106.116 109.296 108.658 110.466 110.673 111.654Z" fill="#E0956C"/>
<path d="M111.444 106.293L110.677 111.624L110.674 111.654C108.66 110.466 106.118 109.296 103.866 108.522L103.873 108.483L104.615 103.305L111.444 106.293Z" fill="#E0956C"/>
<path d="M103.813 108.3H103.288L104.329 110.4L107.251 111.9L110.173 112.8L111.032 112.5L111.204 111.9L110.688 111.6V111C110.688 111 106.391 108.9 106.047 108.6C105.704 108.3 103.813 108.3 103.813 108.3Z" fill="#E0956C"/>
<path d="M121.803 59.1269C121.8 59.1119 121.796 59.0969 121.793 59.082C121.803 59.0069 121.807 59.0159 121.803 59.1269Z" fill="#752912"/>
<path d="M125.504 69.7921C125.467 67.974 125.24 64.1641 124.975 63.777C124.906 64.221 124.458 66.8401 124.243 68.478C123.593 67.8601 122.885 67.2721 122.091 66.714C122.289 64.0441 122.091 60.477 121.803 59.127C121.782 59.5681 121.632 61.623 121.332 66.2041C119.197 64.842 116.474 63.6481 112.743 62.586C112.336 62.469 111.923 62.3641 111.506 62.2681C111.325 61.095 110.907 58.3441 110.636 57.705C110.622 57.831 109.888 60.081 109.785 61.938C106.99 61.494 104.087 61.485 101.513 61.917C101.744 60.21 102.199 57.006 102.38 56.1121C102.059 56.613 100.292 60.585 99.892 62.262C99.0477 62.481 98.2557 62.754 97.5336 63.081C96.7978 70.1219 96.131 80.0373 96.0352 87.3299C98.7143 93.9779 102.865 98.7031 107.684 100.485C114.522 103.011 120.926 98.6222 124.96 89.2677C126.073 83.1841 127.029 76.6979 127.507 72.3868C126.869 71.4693 126.22 70.6053 125.504 69.7921Z" fill="#752912"/>
<path d="M121.803 59.1269C121.8 59.1119 121.796 59.0969 121.793 59.082C121.803 59.0069 121.807 59.0159 121.803 59.1269Z" fill="#FFC19F"/>
<path d="M110.332 89.6339C110.414 89.6641 110.5 89.5872 110.532 89.4453C110.759 88.4339 111.315 87.9319 111.95 88.1664C112.588 88.403 112.99 89.2725 112.95 90.3313C112.944 90.5006 113.017 90.6481 113.114 90.659C113.211 90.6707 113.295 90.5418 113.302 90.3717C113.354 89.0161 112.828 87.8613 112.023 87.5637C111.223 87.2682 110.492 87.934 110.204 89.2204C110.168 89.3788 110.213 89.5571 110.303 89.6188L110.332 89.6339Z" fill="#C67F75"/>
<path d="M126.28 95.0345C124.726 100.645 121.139 103.14 118.85 101.631C116.56 100.121 116.694 95.0681 117.798 89.5076C118.902 83.9472 121.656 80.6489 123.943 82.1725C127.069 84.2557 127.741 89.7606 126.28 95.0345Z" fill="#F4B18C"/>
<path d="M127.507 72.3868C127.03 76.6979 126.074 83.1841 124.96 89.2677C123.733 95.9699 122.313 102.186 121.124 104.478C118.735 109.074 110.862 110.244 108.789 109.479C106.855 108.765 98.2199 101.913 96.5323 96.3032C96.1108 94.9022 95.9769 91.5573 96.0355 87.3299C96.1319 80.0373 96.7987 70.1219 97.534 63.081C98.2561 62.754 99.0486 62.481 99.8924 62.262C100.293 60.585 102.06 56.613 102.381 56.1121C102.199 57.006 101.745 60.21 101.513 61.917C104.088 61.485 106.991 61.494 109.786 61.938C109.889 60.081 110.623 57.831 110.636 57.705C110.908 58.3441 111.326 61.095 111.506 62.2681C111.923 62.3641 112.336 62.469 112.743 62.586C116.475 63.6481 119.197 64.842 121.332 66.2041C121.633 61.623 121.782 59.5681 121.803 59.127C122.092 60.477 122.289 64.0441 122.092 66.714C122.886 67.2721 123.594 67.8601 124.243 68.478C124.459 66.8401 124.907 64.221 124.976 63.777C125.24 64.1641 125.467 67.974 125.505 69.7921C126.22 70.6053 126.87 71.4693 127.507 72.3868Z" fill="#FFC19F"/>
<path d="M89.6515 82.8678C89.8456 89.4754 92.8748 94.669 95.5739 94.9995C98.2731 95.33 100.157 76.584 95.613 73.2603C91.8281 70.4921 89.4687 76.6573 89.6515 82.8678Z" fill="#FFC19F"/>
<path d="M104.304 70.1629C104.401 70.2822 104.523 70.3419 104.649 70.3158C106.269 69.9908 108.33 71.8827 109.444 74.7263C109.598 75.1234 109.91 75.2262 110.139 74.9547C110.367 74.6825 110.425 74.1401 110.269 73.741C108.939 70.3494 106.526 68.1789 104.534 68.583C104.26 68.6393 104.063 69.072 104.095 69.5506C104.111 69.807 104.191 70.0244 104.304 70.1629Z" fill="#775D2A"/>
<path d="M123.529 77.5776C123.657 77.5173 123.77 77.3664 123.834 77.1435C123.954 76.7287 123.858 76.224 123.62 76.0155C121.893 74.4987 119.299 75.0693 117.453 77.3678C117.236 77.6386 117.186 78.1632 117.34 78.5403C117.496 78.9195 117.797 79.0066 118.013 78.7364C119.56 76.8062 121.784 76.2816 123.187 77.5159C123.297 77.6133 123.418 77.6297 123.529 77.5776Z" fill="#775D2A"/>
<path d="M121.803 59.1269C121.8 59.1119 121.796 59.0969 121.793 59.082C121.803 59.0069 121.807 59.0159 121.803 59.1269Z" fill="#752912"/>
<path d="M91.4234 60.4588C91.4234 60.4588 89.8721 64.797 91.4957 65.2998C93.1183 65.8026 94.6466 64.1184 94.9091 61.5388C95.1717 58.9584 94.0687 56.4595 92.4456 55.9566C90.8225 55.4539 91.4234 60.4588 91.4234 60.4588Z" fill="#F9951E"/>
<path d="M100.137 63.1581C100.137 63.1581 100.739 68.1631 99.1154 67.6603C97.4923 67.1575 96.3894 64.6585 96.6519 62.0781C96.914 59.4985 98.4422 57.8146 100.065 58.3171C101.688 58.8199 100.137 63.1581 100.137 63.1581Z" fill="#F9951E"/>
<path d="M96.8498 62.2069C96.7251 63.433 96.1233 64.2715 95.5048 64.0801C94.8869 63.8884 94.487 62.7394 94.6116 61.5135C94.7363 60.2875 95.3386 59.449 95.9566 59.6404C96.5745 59.8318 96.9744 60.9811 96.8498 62.2069Z" fill="#F9951E"/>
<path d="M92.5987 83.6572C92.4892 86.3795 93.925 89.2321 95.2954 88.9667C95.8292 88.8632 96.0859 79.3235 95.2876 79.0335C93.9377 78.5425 92.7082 80.9356 92.5987 83.6572Z" fill="#E0956C"/>
<path d="M117.588 131.337C115.751 132.843 110.429 133.849 110.032 132.396C110.537 127.258 110.732 116.13 115.077 114.952C115.85 121.609 117.588 131.337 117.588 131.337Z" fill="#28AFC6"/>
<path d="M114.495 148.335C112.092 149.505 106.085 153.063 100.154 150.684C94.7616 148.521 92.0723 146.7 90.8965 144.414C92.9933 125.868 96.4014 113.07 100.224 107.952C101.09 107.916 102.036 108.03 103.017 108.258C102.733 110.481 102.941 115.698 105.853 117.147C109.194 118.806 110.72 115.146 111.274 112.02C111.08 111.897 110.88 111.777 110.674 111.654C108.66 110.466 106.118 109.296 103.866 108.522C103.646 108.447 103.428 108.375 103.215 108.306C103.433 108.36 103.653 108.42 103.873 108.483C106.176 109.149 108.615 110.355 110.677 111.624C112.613 112.812 114.22 114.051 115.077 114.951C110.624 132.15 114.495 148.335 114.495 148.335Z" fill="#28AFC6"/>
<path d="M98.8396 120.186C97.4418 119.794 94.1477 119.19 92.3955 118.633C92.5681 115.934 93.0047 110.462 93.8627 107.021C95.1411 107.476 99.9703 107.698 101.562 108.003C100.634 114.212 98.8396 120.186 98.8396 120.186Z" fill="#28AFC6"/>
<path d="M103.125 108.3H103.879L109.312 110.1L110.687 111.6L111.203 111.9L111.031 112.5L103.125 109.5V108.3Z" fill="#E0956C"/>
<path d="M97.9459 89.2937C97.6614 91.187 98.9383 93.4107 100.798 94.2624C102.656 95.1127 104.395 94.2679 104.679 92.3746C104.963 90.4821 103.686 88.2569 101.828 87.4066C99.968 86.5557 98.2304 87.4005 97.9459 89.2937Z" fill="#FF9797"/>
<path d="M117.09 96.0789C116.95 97.6101 117.903 99.1461 119.218 99.5109C120.533 99.8743 121.712 98.9294 121.851 97.3982C121.99 95.8677 121.037 94.331 119.722 93.9669C118.407 93.6028 117.229 94.5484 117.09 96.0789Z" fill="#FF9797"/>
<path d="M117.039 84.6782C117.949 82.9955 119.286 82.3584 120.56 82.9838C121.171 83.278 121.702 83.832 122.133 84.5424C122.46 83.9198 123.25 84.0446 123.266 84.179C123.294 84.3984 122.745 84.6288 122.566 85.4531C122.627 85.6046 122.704 85.7376 122.757 85.8981C123.518 85.4105 124.174 85.7438 124.167 86.014C124.161 86.2663 123.478 86.4336 123.062 87.2195C123.079 87.323 123.114 87.4135 123.127 87.5198C123.185 87.9683 123.022 88.4133 122.764 88.5127C122.698 88.5388 122.631 88.5381 122.567 88.5161C122.388 88.4531 122.237 88.211 122.196 87.8791C121.997 86.3157 121.274 85.0553 120.307 84.5911C119.343 84.1029 118.406 84.5781 117.734 85.822C117.553 86.1566 117.252 86.1703 117.059 85.8569C116.867 85.5408 116.858 85.0149 117.039 84.6782Z" fill="#6B1A11"/>
<path d="M109.522 80.8786C108.948 78.4518 107.679 76.8329 106.185 76.5956C105.468 76.4749 104.777 76.6868 104.156 77.1346C103.954 76.2445 103.088 75.8187 103.039 75.9497C102.959 76.1629 103.488 76.7951 103.486 77.7942C103.386 77.9115 103.274 77.9986 103.18 78.1316C102.487 77.0763 101.714 76.9659 101.659 77.258C101.607 77.5295 102.293 78.1892 102.551 79.3151C102.508 79.4132 102.451 79.4845 102.412 79.5874C102.247 80.0221 102.316 80.6091 102.566 80.8957C102.63 80.9711 102.701 81.0178 102.774 81.0383C102.979 81.0987 103.195 80.9485 103.315 80.6262C103.889 79.1101 104.948 78.2859 106.08 78.4765C107.215 78.6404 108.098 79.8061 108.52 81.5993C108.635 82.082 108.95 82.3097 109.228 82.1129C109.504 81.914 109.635 81.3627 109.522 80.8786Z" fill="#6B1A11"/>
<path opacity="0.3" d="M112.135 96.3915C111.847 96.2304 111.516 96.0418 111.184 95.8032C110.85 95.5666 110.532 95.2875 110.224 95.0208C109.361 94.2679 108.544 93.5513 107.964 94.4736C107.717 94.8686 107.582 95.7387 107.62 96.6891C107.654 97.5662 107.868 99.2256 108.902 100.469C109.15 100.762 109.43 101.02 109.74 101.227C110.621 101.817 111.601 101.715 112.43 100.941C113.026 100.381 113.451 99.5273 113.563 98.6578C113.618 98.2347 113.598 97.6327 113.202 97.1561C112.947 96.8455 112.57 96.6329 112.135 96.3915Z" fill="#FFA483"/>
<path d="M111.074 96.2716C109.81 95.3685 108.751 93.9004 108.159 94.8494C107.739 95.5193 107.561 99.2263 109.843 100.758C111.436 101.828 113.067 100.212 113.283 98.5454C113.444 97.2885 112.337 97.1692 111.074 96.2716Z" fill="#921F33"/>
<path d="M107.925 95.8149C107.798 97.2103 108.121 99.6034 109.843 100.758C110.627 101.284 111.419 101.159 112.05 100.699C111.527 97.7129 109.8 95.5803 107.925 95.8149Z" fill="#CD3735"/>
<path d="M107.925 95.8149C107.92 95.8821 107.916 95.95 107.912 96.0213C108.821 97.9138 110.045 99.1529 111.686 99.275C110.94 97.0663 109.484 95.6187 107.925 95.8149Z" fill="#C1272D"/>
<path d="M108.158 94.8494C108.119 94.9111 108.082 95.0153 108.047 95.1278C109.388 98.3452 111.889 99.7022 112.984 97.51C112.588 97.0889 111.86 96.8318 111.074 96.2716C109.809 95.3685 108.75 93.9004 108.158 94.8494Z" fill="white"/>
<path d="M108.158 94.8494C108.119 94.9111 108.082 95.0153 108.047 95.1278C108.163 95.4082 108.291 95.6688 108.422 95.9157C109.916 95.3863 112.305 97.451 112.192 98.3993C112.496 98.232 112.77 97.9399 112.984 97.51C112.588 97.0889 111.86 96.8318 111.074 96.2716C109.809 95.3685 108.75 93.9004 108.158 94.8494Z" fill="#DBEDE8"/>
</svg>
