<svg width="220" height="240" viewBox="0 0 220 240" fill="none" xmlns="http://www.w3.org/2000/svg">
<path fill-rule="evenodd" clip-rule="evenodd" d="M100.891 151.5L102.266 141.9L104.328 139.2L107.25 139.5L108.969 142.2L109.313 148.2L109.141 152.4L100.891 152.7V151.5Z" fill="#546C96"/>
<path fill-rule="evenodd" clip-rule="evenodd" d="M111.375 143.4L112.234 153.6L120.484 154.8L120.141 142.5L115.672 138.9L111.031 141L111.375 143.4Z" fill="#546C96"/>
<path fill-rule="evenodd" clip-rule="evenodd" d="M104.772 142.88C103.561 145.357 102.445 148.019 101.435 150.695C101.728 145.672 103.234 143.329 104.772 142.88Z" fill="#546C96"/>
<path fill-rule="evenodd" clip-rule="evenodd" d="M101.469 171.126L107.708 171.132C107.682 171.531 107.658 171.922 107.637 172.302C107.606 172.855 107.574 173.432 107.543 174.02C107.093 182.464 106.62 194.181 106.62 194.181C107.147 198.514 103.476 199.586 102.091 198.396C100.707 197.202 101.259 194.181 101.259 194.181C101.259 194.181 101.401 183.854 101.458 172.96C101.461 172.395 101.465 171.83 101.467 171.262C101.467 171.216 101.467 171.172 101.469 171.126Z" fill="#FFB685"/>
<path fill-rule="evenodd" clip-rule="evenodd" d="M107.953 145.125C107.873 144.917 107.781 144.719 107.686 144.534C107.783 144.719 107.873 144.917 107.953 145.125Z" fill="#FFB685"/>
<path fill-rule="evenodd" clip-rule="evenodd" d="M107.707 171.132L101.468 171.126C101.468 171.117 101.468 171.108 101.466 171.103C101.468 171.079 101.468 171.057 101.468 171.033C101.468 170.819 101.47 170.604 101.47 170.39C101.472 169.979 101.473 169.57 101.475 169.159C101.492 163.168 101.478 157.346 101.394 153.317C101.384 152.874 101.382 152.445 101.389 152.034C101.39 151.938 101.392 151.848 101.394 151.755C101.401 151.486 101.409 151.225 101.422 150.967C101.425 150.878 101.43 150.788 101.435 150.699V150.695C102.446 148.019 103.562 145.357 104.773 142.88C104.809 142.868 104.847 142.86 104.883 142.854C104.91 142.848 104.938 142.842 104.964 142.836C104.971 142.833 104.977 142.831 104.985 142.831C105.01 142.828 105.036 142.825 105.062 142.819C105.216 142.798 105.371 142.796 105.524 142.814C105.567 142.816 105.61 142.822 105.653 142.831C105.691 142.836 105.73 142.842 105.77 142.854C105.808 142.862 105.847 142.871 105.885 142.883C105.932 142.894 105.976 142.912 106.021 142.927C106.023 142.927 106.024 142.927 106.024 142.927C106.116 142.961 106.203 142.999 106.291 143.045C106.334 143.069 106.379 143.091 106.422 143.117C106.49 143.161 106.559 143.204 106.626 143.254C106.693 143.303 106.758 143.358 106.823 143.413C106.877 143.46 106.929 143.509 106.978 143.561C107.162 143.743 107.334 143.96 107.49 144.204C107.504 144.224 107.518 144.247 107.532 144.271C107.585 144.354 107.635 144.444 107.685 144.534C107.729 144.621 107.772 144.708 107.815 144.801C107.819 144.806 107.822 144.815 107.824 144.821C107.831 144.833 107.836 144.847 107.841 144.859C107.85 144.876 107.858 144.893 107.865 144.914C107.896 144.983 107.925 145.052 107.953 145.125C108.033 145.334 108.106 145.554 108.167 145.788C109.41 150.466 108.228 162.673 107.707 171.132Z" fill="#FFB685"/>
<path fill-rule="evenodd" clip-rule="evenodd" d="M107.707 171.132C107.682 171.532 107.657 171.922 107.637 172.302C107.606 172.856 107.573 173.432 107.542 174.02C105.193 173.973 103.157 173.748 101.456 173.452C101.458 173.29 101.458 173.124 101.458 172.96C101.461 172.395 101.465 171.83 101.466 171.262V171.126C101.468 171.094 101.468 171.065 101.468 171.034C101.466 171.065 101.466 171.094 101.468 171.126L107.707 171.132Z" fill="#FAA66E"/>
<path fill-rule="evenodd" clip-rule="evenodd" d="M120.001 193.254L116.57 200.4L114.448 193.941C114.448 193.941 114.029 182.299 113.583 173.872C113.561 173.475 113.54 173.084 113.52 172.702C113.513 172.568 113.504 172.435 113.497 172.302C113.475 171.891 113.449 171.468 113.422 171.036L119.704 170.648C119.707 171.076 119.71 171.508 119.714 171.937C119.714 172.067 119.716 172.197 119.717 172.328C119.81 183.069 120.001 193.254 120.001 193.254Z" fill="#FFB685"/>
<path fill-rule="evenodd" clip-rule="evenodd" d="M119.74 153.317C119.675 156.413 119.66 160.509 119.671 164.898C119.673 165.197 119.675 165.498 119.677 165.802C119.675 165.854 119.677 165.906 119.677 165.958C119.677 166.239 119.679 166.523 119.68 166.807C119.682 167.039 119.682 167.27 119.684 167.502C119.686 167.867 119.687 168.235 119.69 168.603C119.694 169.284 119.699 169.964 119.704 170.648L113.422 171.036C112.898 162.584 111.729 150.449 112.967 145.788C114.268 140.89 119.998 141.116 119.74 153.317Z" fill="#FFB685"/>
<path fill-rule="evenodd" clip-rule="evenodd" d="M119.723 173.017C117.535 173.446 115.486 173.719 113.583 173.872C113.561 173.475 113.54 173.084 113.52 172.702C113.513 172.568 113.504 172.435 113.497 172.302C113.475 171.891 113.449 171.468 113.422 171.036L119.704 170.648C119.707 171.076 119.71 171.508 119.714 171.937C119.714 172.067 119.716 172.197 119.717 172.328C119.719 172.56 119.721 172.788 119.723 173.017Z" fill="#FAA66E"/>
<path fill-rule="evenodd" clip-rule="evenodd" d="M106.757 86.603L111.628 88.0876L112.039 96.5349L109.391 97.4839L106.618 97.3585L106.757 86.603Z" fill="#E8935A"/>
<path fill-rule="evenodd" clip-rule="evenodd" d="M104.683 97.7239C105.764 96.349 108.321 95.4583 110.118 95.3438C111.616 95.2485 113.542 95.4843 114.38 96.5431C113.577 98.3609 111.435 99.816 109.531 99.816C107.627 99.816 105.675 98.3355 104.683 97.7239Z" fill="#E8935A"/>
<path d="M98.5642 66.8123C97.6906 64.2683 93.7741 61.2899 92.8329 65.6888C91.5203 71.832 93.2422 78.4944 97.7277 78.4443C102.214 78.3957 99.4325 69.3573 98.5642 66.8123Z" fill="#FFB685"/>
<path d="M98.6025 68.6427C97.9909 66.8595 95.2473 64.7721 94.5868 67.8548C93.6662 72.1611 94.8737 76.8302 98.0173 76.7938C101.159 76.7568 99.2117 70.4263 98.6025 68.6427Z" fill="#FAA66E"/>
<path d="M120.808 66.8123C121.68 64.2683 125.596 61.2899 126.539 65.6888C127.851 71.832 126.129 78.4944 121.643 78.4443C117.156 78.3957 119.938 69.3573 120.808 66.8123Z" fill="#FFB685"/>
<path d="M124.783 67.8548C124.122 64.7721 121.379 66.8595 120.767 68.6427C120.158 70.427 118.21 76.7568 121.352 76.7938C124.496 76.8302 125.704 72.1604 124.783 67.8548Z" fill="#FAA66E"/>
<path d="M121.605 50.8938C119.754 42.8193 111.424 43.2708 109.685 43.2708C107.946 43.2708 99.6152 42.8193 97.7648 50.8938C96.4409 56.6757 95.9759 75.9107 98.347 83.0592C100.469 89.4556 107.981 92.0551 109.685 92.0551C111.39 92.0551 118.901 89.4556 121.023 83.0592C123.394 75.9107 122.93 56.676 121.605 50.8938Z" fill="#FFB685"/>
<path d="M123.646 51.5931C123.087 46.5246 119.063 39.5224 116.199 37.2732C112.59 34.4385 109.686 36.2946 109.686 36.2946C109.686 36.2946 106.782 34.4385 103.172 37.2732C100.308 39.5224 96.2833 46.5246 95.725 51.5931C95.1662 56.6619 96.5336 65.574 96.5336 65.574C96.5336 65.574 97.2885 66.0186 97.8468 63.8745C98.4056 61.7304 99.2993 57.6369 100.639 55.4925C101.979 53.3478 104.213 51.7884 104.213 51.7884L104.23 51.7833C103.683 53.4999 102.867 55.6152 101.859 56.8566C101.859 56.8566 105.098 59.0007 108.002 54.7122C109.182 52.9689 109.772 51.4836 110.056 50.3344L110.117 50.3514C109.855 52.2546 109.263 55.6662 108.175 57.7362C108.175 57.7362 111.601 58.6332 113.917 53.3676C114.189 52.7488 114.415 52.1709 114.603 51.63L114.616 51.6339C114.358 53.3067 113.869 55.7364 113.053 57.2877C113.053 57.2877 115.727 57.9765 117.692 54.1071C118.061 54.5301 118.421 54.9942 118.733 55.4922C120.073 57.6366 120.966 61.7301 121.525 63.8742C122.083 66.0186 122.838 65.5737 122.838 65.5737C122.838 65.5737 124.205 56.6619 123.646 51.5931Z" fill="black"/>
<path fill-rule="evenodd" clip-rule="evenodd" d="M121.122 169.497L119.704 169.587C119.699 168.879 119.694 168.174 119.69 167.469C119.687 167.088 119.685 166.707 119.684 166.329C119.682 166.089 119.682 165.849 119.68 165.609C119.678 165.315 119.677 165.021 119.677 164.73C119.677 164.676 119.675 164.622 119.677 164.568C119.675 164.253 119.673 163.941 119.671 163.632C119.66 159.087 119.675 154.845 119.74 151.638C119.998 139.002 114.268 138.768 112.967 143.841C111.729 148.668 112.898 161.235 113.422 169.989L111.701 170.1L111.104 150.852C110.538 150.858 110.023 150.927 109.457 150.933L109.161 170.088H107.707C108.228 161.328 109.411 148.686 108.168 143.841C108.106 143.598 108.034 143.37 107.953 143.154C107.926 143.079 107.896 143.007 107.866 142.935C107.859 142.914 107.85 142.896 107.841 142.878C107.836 142.863 107.831 142.851 107.826 142.839H107.824C107.823 142.833 107.819 142.824 107.816 142.818C107.773 142.722 107.73 142.632 107.685 142.542C107.635 142.449 107.585 142.356 107.532 142.269C107.518 142.245 107.504 142.221 107.491 142.2C107.334 141.948 107.163 141.723 106.979 141.534C106.929 141.48 106.877 141.429 106.824 141.381C106.759 141.321 106.693 141.267 106.626 141.216C106.559 141.165 106.49 141.117 106.421 141.075C106.379 141.048 106.334 141.024 106.291 141C106.203 140.952 106.116 140.913 106.024 140.877C106.024 140.877 106.023 140.877 106.021 140.877C105.977 140.862 105.932 140.844 105.886 140.832C105.873 140.829 105.863 140.826 105.851 140.82C105.824 140.814 105.798 140.808 105.77 140.802C105.731 140.79 105.691 140.784 105.653 140.778C105.61 140.769 105.567 140.763 105.524 140.76C105.371 140.742 105.217 140.745 105.062 140.766C105.036 140.772 105.011 140.775 104.985 140.778C104.978 140.778 104.971 140.781 104.964 140.784C104.938 140.79 104.911 140.796 104.883 140.802C104.847 140.808 104.81 140.817 104.773 140.829C103.235 141.294 101.73 143.721 101.436 148.923V148.926C101.43 149.019 101.425 149.112 101.422 149.205C101.41 149.472 101.401 149.742 101.394 150.021C101.393 150.117 101.391 150.21 101.389 150.309C101.382 150.735 101.384 151.179 101.394 151.638C101.479 155.811 101.492 161.841 101.475 168.045C101.473 168.471 101.471 168.894 101.47 169.32C101.47 169.542 101.468 169.764 101.468 169.986C101.468 170.01 101.468 170.034 101.467 170.058C101.468 170.064 101.468 170.073 101.468 170.082H100.274C100.361 166.422 100.083 150.417 100.439 139.611C103.537 129.768 120.562 139.605 120.562 139.605C120.747 149.568 121.186 160.188 121.122 169.497Z" fill="#546C96"/>
<path fill-rule="evenodd" clip-rule="evenodd" d="M100.891 151.5V170.082L108.717 170.1L109.008 142.88L100.891 142.2V151.5Z" fill="#546C96"/>
<path fill-rule="evenodd" clip-rule="evenodd" d="M111.547 143.1L112.418 170.1L120.661 169.526L119.969 141L111.547 143.1Z" fill="#546C96"/>
<path fill-rule="evenodd" clip-rule="evenodd" d="M123.261 106.924C122.391 109.81 119.1 113.274 116.675 114.386C113.122 109.459 110.633 98.8773 114.943 97.4291C115.355 97.2913 115.264 96.3374 115.724 96.5898C118.222 97.9626 121.794 102.103 123.261 106.924Z" fill="#0DA18D"/>
<path fill-rule="evenodd" clip-rule="evenodd" d="M101.036 113.454C100.997 114.765 100.957 116.169 100.92 117.621C99.2178 116.433 95.8459 112.662 95.2871 110.073L96.5866 106.893C97.1776 109.092 99.1044 111.72 101.036 113.454Z" fill="#0DA18D"/>
<path fill-rule="evenodd" clip-rule="evenodd" d="M102.737 114.48L102.66 114.693L101.47 117.936C101.319 117.876 101.132 117.768 100.919 117.621C100.957 116.169 100.996 114.765 101.036 113.454C99.1037 111.72 97.177 109.092 96.5859 106.893C97.8062 109.593 99.3051 111.897 101.037 113.361C101.58 113.823 102.148 114.198 102.737 114.48Z" fill="#41D1BE"/>
<path fill-rule="evenodd" clip-rule="evenodd" d="M103.462 97.6924C103.449 97.7006 103.435 97.7116 103.421 97.7198C103.421 97.7198 103.421 97.7191 103.421 97.7191C103.435 97.7102 103.448 97.7013 103.462 97.6924Z" fill="#0DA18D"/>
<path fill-rule="evenodd" clip-rule="evenodd" d="M103.7 98.3191C102.411 99.8942 101.584 102.327 101.336 105.843C101.242 107.181 101.139 109.953 101.037 113.361C99.3051 111.897 97.8062 109.593 96.5859 106.893C97.9832 102.762 100.993 99.288 103.42 97.7191C103.507 97.9262 103.6 98.1271 103.7 98.3191Z" fill="#0DA18D"/>
<path fill-rule="evenodd" clip-rule="evenodd" d="M102.737 114.48L102.66 114.693C102.139 114.375 101.587 113.952 101.036 113.454C99.1037 111.72 97.177 109.092 96.5859 106.893C97.8062 109.593 99.3051 111.897 101.037 113.361C101.58 113.823 102.148 114.198 102.737 114.48Z" fill="#0DA18D"/>
<path fill-rule="evenodd" clip-rule="evenodd" d="M107.257 101.661C105.846 101.124 104.566 100.014 103.701 98.3191C103.601 98.1271 103.508 97.9262 103.421 97.7191C103.435 97.7102 103.448 97.7013 103.462 97.6924C103.488 97.6773 103.515 97.656 103.547 97.6382C103.569 97.6231 103.594 97.608 103.62 97.5902C103.648 97.5724 103.675 97.5539 103.706 97.536C103.72 97.5271 103.732 97.5182 103.747 97.5093C103.967 97.3769 104.181 97.2658 104.387 97.1698C104.56 97.0889 104.653 97.1699 104.724 97.3111C104.839 97.5484 104.889 97.9618 105.145 98.0702C106.437 98.6133 107.085 99.9422 107.257 101.661Z" fill="#0DA18D"/>
<path fill-rule="evenodd" clip-rule="evenodd" d="M123.259 106.924C121.564 110.339 119.409 113.034 116.916 114.013L118.091 117.567C119.469 117.133 123.768 113.064 124.473 110.206L123.259 106.924Z" fill="#41D1BE"/>
<path fill-rule="evenodd" clip-rule="evenodd" d="M96.4372 107.035C98.0461 110.575 100.132 113.431 102.598 114.598L101.336 118.059C99.9699 117.521 95.7762 113.13 95.1436 110.222L96.4372 107.035Z" fill="#41D1BE"/>
<path fill-rule="evenodd" clip-rule="evenodd" d="M102.97 114.873C102.869 114.819 102.766 114.759 102.661 114.693L102.738 114.48C102.149 114.198 101.581 113.823 101.038 113.361C101.14 109.953 101.243 107.181 101.337 105.843C101.585 102.327 102.411 99.8942 103.701 98.3191C104.565 100.014 105.846 101.124 107.257 101.661C107.654 105.618 105.534 111.639 102.97 114.873Z" fill="#0DA18D"/>
<path fill-rule="evenodd" clip-rule="evenodd" d="M100.438 139.611C100.438 139.611 100.659 127.515 100.919 117.621C100.957 116.169 100.996 114.765 101.036 113.454C101.036 113.424 101.037 113.391 101.037 113.361C101.581 113.823 102.148 114.198 102.737 114.48L102.66 114.693C102.765 114.759 102.868 114.819 102.969 114.873C105.534 111.639 107.653 105.618 107.256 101.661C105.845 101.124 104.564 100.014 103.7 98.319C104.014 97.9323 104.354 97.5963 104.723 97.311C104.882 97.1849 105.047 97.071 105.216 96.9627C107.132 100.611 112.3 100.713 113.954 95.967C114.506 96.0987 115.02 96.2941 115.494 96.576H115.496C115.539 96.5972 115.582 96.624 115.623 96.6507C117.483 97.815 118.696 100.338 118.916 105.489C118.988 107.184 119.102 109.674 119.236 112.548C119.237 112.572 119.239 112.596 119.239 112.62C119.301 113.928 119.366 115.314 119.435 116.742C119.929 127.098 120.542 139.581 120.542 139.581C121.113 139.833 108.517 143.841 100.438 139.611Z" fill="#0DA18D"/>
<path fill-rule="evenodd" clip-rule="evenodd" d="M115.643 96.5884C115.636 96.609 115.631 96.6302 115.624 96.6508C115.048 98.6133 113.995 100.044 112.728 100.932C111.074 102.099 109.058 102.348 107.257 101.661C105.846 101.124 104.566 100.014 103.701 98.3191C103.601 98.1271 103.508 97.9262 103.421 97.7192C103.435 97.7102 103.448 97.7013 103.462 97.6924C103.488 97.6773 103.515 97.6561 103.547 97.6382C103.569 97.6232 103.594 97.6081 103.62 97.5902C103.648 97.5724 103.675 97.5539 103.706 97.5361C103.72 97.5272 103.732 97.5182 103.747 97.5093C104.11 97.2782 104.681 96.9361 105.41 96.5699C106.599 98.1779 108.139 99.2668 109.543 99.1859C111.534 99.0748 113.245 97.3708 113.802 95.673L115.567 96.5521H115.569L115.643 96.5884Z" fill="#41D1BE"/>
<path fill-rule="evenodd" clip-rule="evenodd" d="M101.262 193.709L101.003 186.158C102.516 186.206 105.014 186.214 107.074 186.206C106.844 190.6 106.686 193.668 106.686 193.668C107.213 198.157 103.322 200.061 101.938 198.828C100.554 197.593 100.975 194.061 101.262 193.709Z" fill="#F2FAFF"/>
<path d="M128.426 120.66C127.332 117.316 126.085 114.538 124.103 111.22C121.827 114.769 120.181 116.434 119.522 116.674C123.391 121.358 122.787 120.881 122.787 120.881C120.759 121.877 112.143 121.601 112.143 121.601C112.143 121.601 111.858 120.274 111.509 119.444C111.161 118.614 111.002 113.417 110.717 112.034C110.673 111.822 110.623 111.639 110.571 111.483C110.283 111.025 110.1 111.095 109.996 111.236L109.885 111.485C109.842 111.623 109.801 111.776 109.765 111.953C109.48 113.335 109.321 118.533 108.973 119.362C108.625 120.192 108.339 121.519 108.339 121.519C108.339 121.519 99.7226 121.795 97.6946 120.8C97.6946 120.8 97.1305 121.125 100.437 117.252C99.7851 117.1 98.296 114.602 95.853 111.597C93.8706 114.916 93.1504 117.235 92.0558 120.579C89.2677 129.095 106.755 127.435 109.86 125.335C109.86 125.335 110.04 125.35 110.222 124.98C110.417 125.434 110.622 125.417 110.622 125.417C113.727 127.517 131.214 129.176 128.426 120.66Z" fill="#FFB685"/>
<path fill-rule="evenodd" clip-rule="evenodd" d="M115.643 96.6362C115.636 96.6568 115.631 96.6781 115.624 96.6987C115.048 98.6612 113.995 100.092 112.728 100.98C111.074 102.147 109.058 102.396 107.257 101.709C105.846 101.172 104.566 100.062 103.701 98.367C103.601 98.175 103.509 97.9741 103.421 97.767C103.435 97.7581 103.449 97.7492 103.462 97.7403C103.488 97.7252 103.516 97.7039 103.547 97.6861C103.569 97.671 103.594 97.6559 103.62 97.6381C103.648 97.6203 103.676 97.6017 103.706 97.5839C103.72 97.575 103.732 97.5661 103.747 97.5572C104.11 97.3261 104.681 96.9839 105.41 96.6177C106.599 98.2257 108.139 99.3147 109.543 99.2337C111.534 99.1227 113.246 97.4187 113.802 95.7208L115.567 96.5999H115.569L115.643 96.6362Z" fill="#41D1BE"/>
<path fill-rule="evenodd" clip-rule="evenodd" d="M98.5227 202.619H108.453C108.758 202.619 109.006 203.054 109.006 203.586C109.006 204.117 108.757 204.552 108.453 204.552H98.5227C98.2191 204.552 97.9688 204.117 97.9688 203.586C97.9688 203.054 98.2181 202.619 98.5227 202.619Z" fill="#364B70"/>
<path fill-rule="evenodd" clip-rule="evenodd" d="M120.002 193.26C120.002 193.26 120.159 190.41 120.121 186.468C118.202 186.491 115.881 186.498 114.021 186.48C114.247 190.805 114.415 193.974 114.415 193.974L116.57 200.7L120.002 193.26Z" fill="#F2FAFF"/>
<path fill-rule="evenodd" clip-rule="evenodd" d="M101.263 193.709C100.742 193.895 98.0926 199.27 98.3361 202.919H108.743C108.743 202.919 108.936 198.747 106.687 193.668C102.551 195.758 101.061 194.64 101.263 193.709Z" fill="#546C96"/>
<path fill-rule="evenodd" clip-rule="evenodd" d="M119.936 193.794C120.456 193.981 123.105 199.356 122.862 203.005H112.455C112.455 203.005 112.262 198.833 114.511 193.754C118.647 195.843 120.137 194.726 119.936 193.794Z" fill="#546C96"/>
<path fill-rule="evenodd" clip-rule="evenodd" d="M100.176 198.276C100.018 198.354 99.8401 198.248 99.7795 198.034C99.7184 197.821 99.7971 197.582 99.9536 197.503C100.435 197.258 101.172 197.085 101.876 197.148C102.449 197.201 103.011 197.409 103.422 197.854C103.555 197.998 103.577 198.259 103.472 198.437C103.366 198.614 103.173 198.641 103.04 198.497C102.738 198.17 102.3 198.015 101.842 197.974C101.225 197.918 100.587 198.065 100.176 198.276Z" fill="#E0F4FF"/>
<path fill-rule="evenodd" clip-rule="evenodd" d="M100.372 196.768C100.215 196.847 100.038 196.74 99.9768 196.527C99.9157 196.314 99.994 196.075 100.151 195.995C100.632 195.751 101.37 195.578 102.072 195.641C102.646 195.693 103.208 195.901 103.62 196.347C103.752 196.491 103.775 196.753 103.668 196.93C103.564 197.106 103.37 197.134 103.237 196.989C102.935 196.662 102.496 196.506 102.039 196.466C101.422 196.41 100.784 196.557 100.372 196.768Z" fill="#E0F4FF"/>
<path fill-rule="evenodd" clip-rule="evenodd" d="M122.675 202.705H112.745C112.44 202.705 112.191 203.139 112.191 203.672C112.191 204.204 112.441 204.638 112.745 204.638H122.675C122.979 204.638 123.229 204.204 123.229 203.672C123.229 203.139 122.979 202.705 122.675 202.705Z" fill="#364B70"/>
<path fill-rule="evenodd" clip-rule="evenodd" d="M120.827 196.854C120.984 196.933 121.161 196.825 121.222 196.613C121.284 196.4 121.205 196.161 121.048 196.081C120.567 195.837 119.83 195.664 119.127 195.727C118.553 195.778 117.991 195.987 117.58 196.433C117.447 196.577 117.425 196.838 117.531 197.015C117.636 197.192 117.83 197.22 117.963 197.075C118.264 196.748 118.703 196.592 119.16 196.552C119.777 196.496 120.415 196.643 120.827 196.854Z" fill="#E0F4FF"/>
<path fill-rule="evenodd" clip-rule="evenodd" d="M121.022 198.361C121.179 198.44 121.357 198.333 121.418 198.12C121.479 197.907 121.401 197.668 121.244 197.588C120.763 197.344 120.025 197.171 119.322 197.234C118.748 197.287 118.186 197.495 117.775 197.94C117.642 198.084 117.62 198.345 117.726 198.523C117.831 198.7 118.024 198.727 118.158 198.583C118.459 198.256 118.898 198.101 119.356 198.06C119.972 198.005 120.611 198.151 121.022 198.361Z" fill="#E0F4FF"/>
<path fill-rule="evenodd" clip-rule="evenodd" d="M111.929 77.1553C111.615 80.6833 108.444 79.9454 108.43 77.3432C108.785 77.6257 109.202 78.0446 109.897 78.1187C110.496 78.1811 111.354 77.9987 111.929 77.1553Z" fill="#F09B63"/>
<path fill-rule="evenodd" clip-rule="evenodd" d="M100.177 65.4633C101.218 64.0998 103.099 63.8046 103.993 63.8853C105.687 64.0368 105.006 62.225 104.197 62.0274C102.671 61.6518 100.846 62.79 99.8445 64.3893C99.0525 65.6544 98.9357 67.0908 100.177 65.4633Z" fill="black"/>
<path fill-rule="evenodd" clip-rule="evenodd" d="M119.857 65.7973C119.077 64.2013 117.374 63.4534 116.533 63.3133C114.941 63.0481 115.819 61.4341 116.597 61.4374C118.063 61.4422 119.6 63.0037 120.312 64.8219C120.873 66.2566 120.787 67.6981 119.857 65.7973Z" fill="black"/>
<path fill-rule="evenodd" clip-rule="evenodd" d="M123.595 52.4031C123.568 51.5655 123.467 50.6199 123.258 49.6291C120.441 49.6518 114.918 39.7612 109.684 41.6794C109.597 41.8407 109.513 42.015 109.436 42.2037C109.384 42.3298 109.335 42.4551 109.289 42.5788C110.313 42.474 111.891 42.0876 113.795 43.3431C116.589 45.1872 121.057 52.1694 123.595 52.4031Z" fill="#2D2D2D"/>
<path fill-rule="evenodd" clip-rule="evenodd" d="M113.641 83.0914C113.389 84.0582 112.42 85.8404 110.422 86.029C108.682 86.1935 107.44 84.7727 106.952 83.6468C106.654 82.9624 106.678 82.2671 106.985 82.7362C109.656 86.8169 112.712 83.9608 113.342 82.8178C113.581 82.3871 113.794 82.5023 113.641 83.0914Z" fill="#B13B32"/>
<path d="M106.223 72.3592C106.223 72.3592 102.719 75.4223 101.01 72.4155C98.9268 68.7538 101.256 64.7744 103.012 64.9472C104.638 65.1071 106.28 67.0967 106.223 72.3592Z" fill="#F9FEFF"/>
<path d="M100.26 67.22C100.808 65.5335 101.685 64.8105 102.697 64.71C103.732 64.6113 104.877 65.5896 105.285 66.8118C104.606 65.4957 103.613 65.2173 103.006 65.1579C102.038 65.0592 100.875 66.1296 100.455 67.7586C100.082 69.2064 100.301 71.1661 101.065 72.5101C100.231 71.6838 99.6879 68.978 100.26 67.22Z" fill="black"/>
<path d="M105.512 68.2233C106.077 69.89 105.761 72.0432 104.805 73.0279C103.85 74.0146 102.617 73.4626 102.052 71.7943C101.487 70.128 101.803 67.9764 102.758 66.99C103.714 66.0033 104.947 66.5547 105.512 68.2233Z" fill="black"/>
<path d="M105.343 70.3125C105.474 70.6992 105.4 71.1963 105.179 71.4261C104.958 71.6544 104.672 71.5262 104.542 71.1394C104.41 70.7541 104.484 70.2562 104.706 70.0272C104.926 69.7982 105.212 69.9264 105.343 70.3125Z" fill="#FEFFFE"/>
<path d="M113.418 72.288C113.418 72.288 116.956 75.1372 118.6 72.0556C120.603 68.2983 118.217 64.4739 116.474 64.7439C114.861 64.9929 113.266 67.0599 113.418 72.288Z" fill="#F9FEFF"/>
<path d="M119.251 66.849C118.675 65.2035 117.791 64.5333 116.783 64.4923C115.753 64.4493 114.633 65.4855 114.249 66.7224C114.901 65.3766 115.882 65.0439 116.485 64.9515C117.445 64.8019 118.62 65.7999 119.067 67.3941C119.464 68.8142 119.283 70.774 118.547 72.153C119.361 71.2828 119.852 68.5653 119.251 66.849Z" fill="black"/>
<path d="M117.65 68.9307C117.922 70.7492 117.298 72.6102 116.256 73.0847C115.213 73.5606 114.147 72.4703 113.875 70.6505C113.603 68.8319 114.227 66.9707 115.27 66.4964C116.311 66.0206 117.378 67.1111 117.65 68.9307Z" fill="black"/>
<path d="M115.297 70.5223C115.361 70.9536 115.213 71.3952 114.966 71.509C114.719 71.6208 114.465 71.3623 114.401 70.9296C114.336 70.499 114.484 70.0581 114.732 69.9442C114.979 69.8318 115.232 70.091 115.297 70.5223Z" fill="#FEFFFE"/>
</svg>
