<svg width="220" height="240" viewBox="0 0 220 240" fill="none" xmlns="http://www.w3.org/2000/svg">
<path d="M119.128 221.301C119.128 221.301 119.259 222.06 119.128 222.608C118.905 223.547 117.343 229.998 115.382 228.52C113.423 227.042 112.821 224.445 111.138 221.216C109.452 217.988 107.392 217.245 107.955 214.545L119.128 221.301Z" fill="#6A3514"/>
<path d="M118.061 219.357C118.061 219.357 119.019 220.284 119.128 221.301C119.237 222.313 117.344 228.689 115.383 227.209C113.424 225.732 112.822 223.136 111.138 219.904C109.453 216.677 106.957 215.665 108.372 213.585L118.061 219.357Z" fill="#E2BE81"/>
<path d="M108.623 207.894C108.623 207.894 108.517 210.265 108.111 212.067C107.706 213.867 107.939 215.67 109.622 216.797C109.622 216.797 111.072 217.584 111.652 219.046C112.234 220.512 113.106 224.229 114.323 224.229C114.323 224.229 115.484 226.591 116.066 226.253C116.066 226.253 116.792 226 116.792 224.789C116.792 224.789 117.459 224.482 117.344 223.692L117.242 223.384C117.242 223.384 118.069 223.467 117.924 222.284L117.866 222.068C117.866 222.068 118.562 221.946 118.46 221.046L118.395 220.758C118.395 220.758 119.075 220.843 118.944 219.549C118.944 219.549 118.835 219.392 118.602 219.082C118.602 219.082 118.198 218.452 117.85 217.837C117.502 217.225 116.658 215.853 116.124 214.902C115.59 213.949 113.39 209.435 112.944 208.124C112.498 206.816 112.628 201.854 112.628 201.854L108.439 200.882C108.439 200.883 108.779 205.751 108.623 207.894Z" fill="#D0846A"/>
<path d="M116.199 215.036C116.174 214.992 116.147 214.943 116.124 214.902C115.972 214.631 115.686 214.075 115.344 213.383C114.209 212.8 112.754 212.324 112.754 212.324L108.194 211.668C108.168 211.802 108.141 211.935 108.111 212.067C107.706 213.867 107.939 215.669 109.622 216.797C109.622 216.797 111.072 217.584 111.652 219.045C112.234 220.512 113.106 224.229 114.323 224.229C114.323 224.229 115.484 226.591 116.066 226.253C116.066 226.253 116.44 226.121 116.651 225.596C116.322 225.758 115.689 225.961 115.447 225.272C115.113 224.322 114.733 223.327 114.57 223.384C114.406 223.442 112.737 222.329 112.754 220.759C112.773 219.187 114.129 215.954 116.199 215.036Z" fill="#AA6650"/>
<path d="M117.299 221.344C117.19 221.693 117.866 222.068 117.866 222.068C117.866 222.068 118.021 222.042 118.174 221.919C117.962 221.909 117.846 221.385 117.743 221.174C117.59 220.855 117.408 220.997 117.299 221.344Z" fill="#AA6650"/>
<path d="M117.989 219.904C117.863 220.187 118.244 220.574 118.395 220.758C118.395 220.758 118.615 220.784 118.78 220.57C118.596 220.459 118.432 219.926 118.361 219.765C118.252 219.519 118.116 219.625 117.989 219.904Z" fill="#AA6650"/>
<path d="M117.24 223.384C117.24 223.384 117.467 223.406 117.663 223.257C117.438 223.111 117.198 222.445 117.064 222.193C116.863 221.824 116.735 222 116.735 222.367C116.735 222.736 117.144 223.319 117.24 223.384Z" fill="#AA6650"/>
<path d="M115.993 221.965C115.839 221.857 115.495 222.156 115.449 222.368C115.403 222.582 116.013 223.864 116.266 223.915C116.521 223.971 116.792 224.789 116.792 224.789C116.792 224.789 117.052 224.668 117.219 224.386C116.624 224.89 116.147 222.069 115.993 221.965Z" fill="#AA6650"/>
<path d="M116.036 223.525C116.036 223.525 112.784 214.12 111.885 211.926L112.116 211.024C112.116 211.024 116.675 222.959 116.036 223.525Z" fill="#7D3E2C"/>
<path d="M108.553 202.81C108.635 204.412 108.715 206.628 108.623 207.894C108.623 207.894 108.517 210.265 108.111 212.067C107.706 213.867 107.939 215.67 109.622 216.797C109.622 216.797 110.862 217.427 111.442 218.892C111.486 219.007 111.839 219.813 111.886 219.948C112.31 220.972 112.439 221.344 112.439 221.344C113.019 214.832 116.266 215.152 116.266 215.152C116.217 215.068 116.169 214.982 116.124 214.903C115.59 213.95 113.39 209.436 112.945 208.125C112.671 207.326 112.615 205.155 112.612 203.593C112.612 203.593 110.908 204.504 108.553 202.81Z" fill="#7D3E2C"/>
<path d="M115.728 214.15C115.074 212.866 113.955 210.542 113.327 209.08L108.62 207.964C108.6 208.357 108.479 210.443 108.111 212.067C108.013 212.507 107.953 212.947 107.941 213.376C110.122 216.043 114.32 214.703 115.728 214.15Z" fill="#662B1D"/>
<path d="M93.1661 221.42C93.1661 221.42 93.0341 222.179 93.1661 222.728C93.3895 223.666 94.9505 230.117 96.91 228.64C98.8714 227.161 99.4728 224.564 101.156 221.335C102.841 218.107 104.902 217.363 104.34 214.664L93.1661 221.42Z" fill="#6A3514"/>
<path d="M94.2325 219.477C94.2325 219.477 93.2747 220.404 93.1657 221.42C93.0557 222.432 94.9501 228.808 96.9096 227.328C98.871 225.852 99.4724 223.255 101.156 220.023C102.841 216.797 105.336 215.784 103.922 213.703L94.2325 219.477Z" fill="#E2BE81"/>
<path d="M103.672 208.013C103.672 208.013 103.778 210.383 104.184 212.185C104.589 213.986 104.358 215.789 102.674 216.916C102.674 216.916 101.222 217.703 100.642 219.165C100.062 220.631 99.1897 224.348 97.9718 224.348C97.9718 224.348 96.8098 226.71 96.2294 226.372C96.2294 226.372 95.5044 226.118 95.5044 224.907C95.5044 224.907 94.8351 224.601 94.952 223.811L95.0537 223.503C95.0537 223.503 94.227 223.585 94.3712 222.403L94.4303 222.187C94.4303 222.187 93.7327 222.064 93.8354 221.164L93.8999 220.877C93.8999 220.877 93.2203 220.962 93.3519 219.668C93.3519 219.668 93.4604 219.511 93.6931 219.201C93.6931 219.201 94.0959 218.571 94.444 217.956C94.7921 217.344 95.6374 215.971 96.1713 215.021C96.7047 214.068 98.9032 209.554 99.351 208.243C99.7964 206.935 99.6654 201.973 99.6654 201.973L103.858 201.001C103.858 201.001 103.516 205.871 103.672 208.013Z" fill="#D0846A"/>
<path d="M96.0948 215.155C96.1202 215.111 96.1471 215.062 96.1696 215.022C96.3212 214.749 96.6072 214.194 96.9509 213.501C98.0846 212.919 99.5376 212.443 99.5376 212.443L104.099 211.787C104.126 211.921 104.153 212.054 104.183 212.185C104.588 213.986 104.356 215.789 102.673 216.916C102.673 216.916 101.221 217.703 100.64 219.165C100.061 220.631 99.188 224.348 97.9702 224.348C97.9702 224.348 96.8081 226.71 96.2283 226.371C96.2283 226.371 95.8533 226.24 95.6426 225.715C95.9711 225.877 96.6052 226.079 96.8472 225.391C97.1796 224.44 97.561 223.446 97.7253 223.503C97.8881 223.561 99.5561 222.448 99.5376 220.878C99.52 219.307 98.1657 216.073 96.0948 215.155Z" fill="#AA6650"/>
<path d="M94.9967 221.462C95.1038 221.812 94.4306 222.187 94.4306 222.187C94.4306 222.187 94.2736 222.161 94.1211 222.038C94.3323 222.027 94.4482 221.504 94.5508 221.293C94.7048 220.975 94.8877 221.116 94.9967 221.462Z" fill="#AA6650"/>
<path d="M94.3042 220.023C94.4313 220.306 94.0505 220.693 93.8979 220.878C93.8979 220.878 93.6789 220.904 93.5146 220.689C93.698 220.578 93.8613 220.046 93.9321 219.884C94.0412 219.638 94.1781 219.744 94.3042 220.023Z" fill="#AA6650"/>
<path d="M95.0513 223.503C95.0513 223.503 94.8259 223.525 94.6299 223.377C94.8538 223.231 95.0929 222.564 95.2288 222.313C95.4297 221.944 95.5558 222.119 95.5558 222.487C95.5553 222.856 95.1486 223.437 95.0513 223.503Z" fill="#AA6650"/>
<path d="M96.3008 222.084C96.4548 221.977 96.8 222.275 96.8455 222.487C96.8914 222.701 96.2828 223.982 96.0295 224.034C95.7738 224.089 95.504 224.908 95.504 224.908C95.504 224.908 95.2414 224.787 95.0752 224.505C95.6712 225.01 96.1483 222.187 96.3008 222.084Z" fill="#AA6650"/>
<path d="M96.2576 223.644C96.2576 223.644 99.5092 214.24 100.408 212.045L100.177 211.143C100.177 211.143 95.6191 223.078 96.2576 223.644Z" fill="#7D3E2C"/>
<path d="M103.742 202.929C103.66 204.531 103.579 206.746 103.671 208.013C103.671 208.013 103.778 210.383 104.183 212.185C104.589 213.986 104.357 215.789 102.673 216.917C102.673 216.917 101.432 217.546 100.851 219.011C100.807 219.126 100.457 219.931 100.408 220.067C99.9854 221.091 99.8573 221.462 99.8573 221.462C99.2765 214.951 96.0293 215.272 96.0293 215.272C96.0762 215.187 96.1256 215.1 96.1701 215.022C96.704 214.068 98.9025 209.554 99.3498 208.244C99.6231 207.445 99.6789 205.274 99.6823 203.713C99.6823 203.713 101.386 204.623 103.742 202.929Z" fill="#7D3E2C"/>
<path d="M96.5654 214.269C97.2205 212.985 98.3391 210.66 98.9669 209.198L103.675 208.083C103.694 208.476 103.816 210.562 104.183 212.185C104.282 212.626 104.343 213.066 104.353 213.495C102.173 216.161 97.9744 214.822 96.5654 214.269Z" fill="#662B1D"/>
<path d="M94.2686 208.973H117.708C117.442 200.603 117.037 185.879 117.073 181.761C117.124 176.11 117.513 165.238 116.413 157.846C116.168 156.202 116.413 143.934 116.413 143.934C116.253 128.281 114.804 116.432 114.804 116.432L96.2114 117.412C94.8303 126.651 95.5998 148.655 95.5998 148.655L95.2571 154.308C94.8146 165.672 94.535 201.273 94.2686 208.973Z" fill="#E2BE81"/>
<path d="M113.883 190.165C114.275 192.732 115.889 202.532 116.952 208.973H117.708C117.442 200.603 117.037 185.879 117.074 181.761C117.125 176.11 117.513 165.238 116.414 157.846C116.169 156.202 116.414 143.934 116.414 143.934C116.357 138.431 116.142 133.399 115.886 129.187C115.749 140.417 115.239 160.166 115.239 160.166C115.239 160.166 116.798 169.877 116.414 172.051C116.029 174.225 113.285 186.253 113.883 190.165Z" fill="#C59F6B"/>
<path d="M111.721 208.973L110.969 192.196C110.969 192.196 108.876 196.255 108.353 197.848C108.107 198.599 107.265 203.681 106.357 208.973H111.721Z" fill="#C59F6B"/>
<path d="M113.141 169.296C111.802 166.832 102.225 145.382 101.925 143.787C101.627 142.194 99.5338 125.766 99.5338 125.766C99.7577 127.168 104.316 140.744 105.066 142.919C105.816 145.093 111.362 151.615 111.362 151.615C109.888 148.861 100.506 125.805 100.506 125.805C106.654 127.469 112.748 122.88 115.239 120.669C114.992 117.97 114.803 116.432 114.803 116.432L96.2113 117.411C94.8297 126.65 95.5993 148.655 95.5993 148.655L95.257 154.308C95.0395 159.897 94.861 172.086 94.7031 183.996C95.2732 176.118 96.0471 166.16 96.2113 163.208C96.4734 158.427 96.6944 146.543 96.6963 144.425C96.6978 142.308 97.6658 125.805 97.6658 125.805C97.6658 125.805 97.6717 126.016 97.6819 126.394C97.7733 129.759 98.2564 146.516 98.8528 148.862C99.2371 150.369 101.128 156.279 102.656 161C99.4018 148.076 98.8528 129.149 98.8528 129.149C98.8528 129.149 99.8335 144.804 100.955 146.976C102.076 149.15 113.141 169.296 113.141 169.296Z" fill="#C59F6B"/>
<path d="M94.0117 126.909L93.3546 127.939C93.3546 127.939 93.4534 131.512 93.4431 131.912C93.4431 131.912 94.3236 133.629 94.0117 134.233C94.0117 134.233 93.0809 133.548 92.8462 132.902C92.6091 132.254 92.8941 127.346 92.8941 127.346L93.9432 125.805L94.0117 126.909Z" fill="#994D3D"/>
<path d="M93.5206 135.321C93.5206 135.321 93.6809 135.386 93.7039 134.764C93.7366 133.852 93.3206 132.671 93.2174 132.407C93.2174 132.407 93.2536 128.209 93.2658 128.032C93.2766 127.853 93.5435 127.302 93.9723 126.47C94.335 125.77 93.9557 125.767 93.9557 125.767L92.8107 126.479C92.8107 126.479 92.3057 129.143 92.3057 129.211C92.3057 129.278 92.5408 133.471 92.5408 133.471L93.5206 135.321Z" fill="#B4634E"/>
<path d="M93.8423 120.124C93.8423 120.124 94.1405 122.79 94.4603 124.078C94.4603 124.078 94.7125 125.013 94.736 126.035C94.759 127.056 94.6431 128.788 94.5981 129.767C94.5981 129.767 94.5096 130.877 94.2906 130.699C94.0711 130.522 94.0247 129.899 94.1625 128.432C94.1625 128.432 93.9802 126.832 93.8423 126.433C93.8423 126.433 93.0415 127.411 92.8572 128.966C92.8572 128.966 92.8117 132.566 92.8572 133.188C92.8572 133.188 93.5705 135.732 92.9921 136.323C92.9921 136.323 92.4602 134.852 92.2275 133.897C92.0354 133.109 91.5054 128.255 91.437 126.922C91.3675 125.59 91.8951 120.924 91.8496 119.946C91.8031 118.968 93.8423 120.124 93.8423 120.124Z" fill="#D0846A"/>
<path d="M93.7443 56.756C93.7443 56.756 92.0542 57.0893 91.5003 61.3311C90.9146 65.8211 90.1177 83.9307 90.1177 84.5835C90.1177 84.5835 89.82 85.3803 89.7818 86.6118C89.7447 87.8434 90.1177 90.816 90.1177 90.816C90.1177 90.816 89.7026 96.0329 89.7789 96.541C89.8571 97.047 90.2311 100.018 90.2311 100.018C90.2311 100.018 89.9695 103.207 90.0434 104.512C90.1177 105.815 91.0534 118.932 91.0534 118.932C91.0534 118.932 92.6961 119.946 94.3031 118.351C94.3031 118.351 94.8257 99.0774 94.8257 98.0619C94.8257 97.047 94.6776 92.3376 94.6776 92.3376L95.2373 89.04L95.4246 84.8009C95.4246 84.8009 96.6204 76.9741 96.6947 74.655C96.77 72.3366 93.7443 56.756 93.7443 56.756Z" fill="#DEBC85"/>
<path d="M96.2093 79.2198L94.5999 75.3668C94.5999 75.3668 93.8177 82.1911 93.8177 83.2052C93.8177 84.2215 94.595 87.9161 94.5999 88.4242C94.6024 88.9316 93.8177 90.1296 93.8177 90.1296C93.8177 90.1296 91.5385 85.5984 91.3889 85.0902C91.2398 84.5835 91.8 88.5696 91.8 88.5696C91.8 88.5696 94.154 92.496 94.2665 93.2139C94.3775 93.9319 93.7429 98.4233 93.5943 98.714C93.4442 99.0048 91.6001 93.0617 91.3639 92.6996C91.1273 92.3376 93.8925 103.208 93.9663 103.57C94.0416 103.932 94.2665 105.164 93.78 105.598C93.2946 106.034 91.3493 100.889 91.3493 100.889C91.3493 100.889 91.4642 103.571 91.7243 104.078C91.9863 104.584 93.6676 106.831 93.8558 107.338C94.0416 107.845 93.8925 114.947 93.5943 115.6C93.3669 116.092 92.6502 116.973 92.6502 116.973C92.6502 116.973 91.0535 116.243 90.8281 115.776C90.9249 117.132 91.0002 118.205 91.0335 118.674L94.0773 118.064L94.3227 117.653C94.4171 114.189 94.8258 98.9616 94.8258 98.0619C94.8258 97.0477 94.6776 92.3376 94.6776 92.3376L95.2374 89.0406L95.4252 84.8016C95.4252 84.8016 95.8515 82.0073 96.2118 79.261L96.2093 79.2198Z" fill="#AD8A5D"/>
<path d="M90.9283 117.191L90.8271 117.808L90.9464 120.636C90.9464 120.636 92.7147 121.649 94.4718 120.202V116.904L94.3408 116.432C94.3403 116.432 93.4447 117.012 90.9283 117.191Z" fill="#E9CD96"/>
<path d="M108.092 40.2325H105.644H103.199C103.319 50.7768 100.352 52.9514 100.352 52.9514C102.235 58.2768 105.644 57.951 105.644 57.951C105.644 57.951 109.056 58.2768 110.939 52.9514C110.939 52.9514 107.97 50.777 108.092 40.2325Z" fill="#BB715A"/>
<path d="M109.101 49.4671C108.624 47.8734 108.214 45.6 108.114 42.4078H105.609H103.176C103.114 44.3256 102.945 45.9154 102.713 47.2216C103.86 48.33 106.314 50.2209 109.101 49.4671Z" fill="#A35D4B"/>
<path d="M117.547 56.7561C117.231 56.538 109.998 51.6934 109.998 51.6934L105.644 55.0158L101.292 51.6934C101.292 51.6934 94.0567 56.538 93.7438 56.7561C93.428 56.9734 93.5321 68.278 94.7915 76.7568C94.7915 76.7568 95.7243 82.6197 96.0963 89.5831C96.2792 92.9863 96.0665 97.2967 96.0489 100.066C96.0489 100.066 95.6304 116.975 95.735 119.15C95.735 119.15 100.025 122.625 104.792 123.084L105.644 118.932L106.503 123.112C111.37 122.785 115.554 119.15 115.554 119.15C115.659 116.975 115.24 100.066 115.24 100.066C115.192 91.6327 116.497 76.7568 116.497 76.7568C117.756 68.278 117.861 56.9734 117.547 56.7561Z" fill="#E9CD96"/>
<path d="M107.284 123.029C105.785 114.191 107.085 55.704 107.085 55.704L105.402 56.7559L105.066 118.28L105.37 120.273L105.644 118.932L106.504 123.112C106.766 123.094 107.026 123.064 107.284 123.029Z" fill="#C8A977"/>
<path opacity="0.8" d="M117.696 59.0433C117.696 59.0406 117.694 59.0393 117.694 59.038C117.359 58.1676 116.518 68.0608 115.789 68.1695C115.06 68.2782 113.378 57.9511 113.044 60.6682C112.709 63.3867 114.947 76.2116 114.579 76.2473C114.211 76.2802 112.369 67.9509 111.962 67.6251C111.553 67.3 112.089 70.8857 112.624 72.7351C113.159 74.5824 115.117 80.5893 115.246 81.5019C115.372 82.4133 114.781 83.605 114.639 84.5835C114.499 85.5614 114.835 87.7358 114.639 88.6046C114.442 89.4754 110.743 87.0836 111.183 88.6046C111.619 90.1275 114.443 90.997 114.455 91.7568C114.465 92.5193 113.771 95.1284 113.716 96.2139C113.66 97.3008 114.5 100.453 114.051 100.374C113.603 100.295 108.586 94.6923 108.586 94.6923C108.586 94.6923 110.408 102.411 111.122 103.388C111.836 104.366 114.388 104.91 114.455 105.887C114.521 106.866 114.947 110.889 114.22 112.41C113.49 113.933 113.716 117.519 113.716 117.519C113.754 118.965 110.741 121.372 108.932 122.684C112.685 121.642 115.555 119.15 115.555 119.15C115.66 116.975 115.241 100.066 115.241 100.066C115.192 91.6327 116.498 76.7568 116.498 76.7568C117.421 70.5449 117.724 62.8171 117.696 59.0433Z" fill="#C8A977"/>
<path d="M97.9089 99.3654C97.1804 98.2793 97.2924 92.9533 97.4024 92.6276C97.5114 92.3005 100.488 86.6489 100.715 84.5835C100.943 82.5174 97.8537 89.1483 97.2362 88.7149C96.6202 88.2781 99.7579 75.9956 99.7036 72.4079C99.6488 68.8217 97.4606 83.2779 97.0113 82.4098C96.5635 81.5396 98.0771 63.6035 97.5725 63.8202C97.069 64.038 96.3997 77.7627 95.6673 77.9519C95.3007 78.0473 94.9042 76.7204 94.5996 75.3668C94.6607 75.8372 94.7243 76.3007 94.7917 76.7567C94.7917 76.7567 95.7245 82.6196 96.0971 89.583C96.2799 92.9862 96.0668 97.2973 96.0492 100.066C96.0492 100.066 95.6307 116.975 95.7353 119.15C95.7353 119.15 98.672 121.526 102.384 122.608C99.7491 120.933 98.301 118.705 98.301 118.705C98.189 117.284 97.7955 114.909 97.2924 113.714C96.7874 112.52 97.0685 110.237 97.0685 110.237C98.9727 108.615 102.379 101.843 103.108 100.375C102.268 101.85 98.5811 104.91 98.5811 104.91C98.5811 104.91 98.6378 100.452 97.9089 99.3654Z" fill="#C8A977"/>
<path d="M103.107 100.374C103.134 100.327 103.159 100.28 103.18 100.236C103.295 99.9943 103.258 100.07 103.107 100.374Z" fill="#C8A977"/>
<path d="M104.895 57.1725L104.608 117.953L103.743 122.934C104.091 122.999 104.441 123.051 104.792 123.085L105.644 118.932V58.4949L104.895 57.1725Z" fill="#EBEEC9"/>
<path d="M100.716 58.4678C100.716 58.4678 102.826 54.2549 105.645 59.7438C105.645 59.7441 103.204 48.6954 100.716 58.4678Z" fill="#BB9D6C"/>
<path d="M110.575 58.6871C110.575 58.6871 108.464 54.2549 105.645 59.7437C105.645 59.744 108.087 48.9127 110.575 58.6871Z" fill="#BB9D6C"/>
<path d="M102.702 47.2821C102.702 47.2821 103.04 52.6799 105.645 55.016V59.744C105.645 59.744 103.605 54.7338 102.565 55.1676C101.521 55.6034 100.74 58.6034 100.74 58.6034C100.74 58.6034 99.6309 52.6007 100.352 51.2121C101.068 49.8354 102.449 46.5323 102.702 47.2821Z" fill="#EBEEC9"/>
<path d="M108.589 47.2821C108.589 47.2821 108.25 52.6799 105.645 55.016V59.744C105.645 59.744 107.685 54.7338 108.726 55.1676C109.768 55.6034 110.551 58.6034 110.551 58.6034C110.551 58.6034 111.659 52.6007 110.939 51.2121C110.224 49.8354 108.841 46.5323 108.589 47.2821Z" fill="#EBEEC9"/>
<path d="M113.698 75.598H111.363H109.025C109.025 75.598 108.988 82.1912 109.025 83.3514C109.063 84.5116 111.363 85.5985 111.363 85.5985C111.363 85.5985 113.661 84.5116 113.698 83.3514C113.736 82.1912 113.698 75.598 113.698 75.598Z" fill="#EBEEC9"/>
<path d="M92.4697 57.9948C92.0864 58.6741 91.7124 59.7201 91.5012 61.3314C90.9155 65.8214 90.1187 83.9308 90.1187 84.5836C90.1187 84.5836 89.8209 85.3804 89.7828 86.6119C89.7456 87.8435 90.1187 90.8161 90.1187 90.8161C90.1187 90.8161 89.7036 96.0337 89.7799 96.5411C89.8581 97.0471 90.2321 100.018 90.2321 100.018C90.2321 100.018 89.9705 103.208 90.0444 104.512C90.0796 105.127 90.3074 108.38 90.5367 111.639L90.4555 103.932L90.8285 100.374L90.1563 96.105C90.1563 96.105 90.7176 91.1061 90.4927 89.4076C90.2692 87.7098 90.6799 84.9443 90.6432 84.2935C90.6051 83.6407 91.4646 65.3787 91.7633 63.3502C91.954 62.0514 92.2688 59.5945 92.4697 57.9948Z" fill="#E9CD96"/>
<path opacity="0.4" d="M111.517 75.598C111.772 76.883 112.763 81.8119 112.763 81.8119C112.763 81.8119 111.585 84.3113 111.183 84.4745C110.892 84.5911 109.679 83.5865 109.019 83.0112C109.02 83.1491 109.022 83.2663 109.025 83.3513C109.063 84.5109 111.363 85.5977 111.363 85.5977C111.363 85.5977 113.661 84.5109 113.698 83.3513C113.735 82.1911 113.698 75.5973 113.698 75.5973H111.517V75.598Z" fill="#CFD2A9"/>
<path d="M115.377 90.4869L115.53 88.6348L115.326 84.2627C115.326 84.2627 114.777 77.0551 114.692 74.7367C114.608 72.4204 117.569 56.7925 117.569 56.7925C117.569 56.7925 119.259 57.0991 119.829 61.3322C120.434 65.8129 120.785 78.0912 120.788 78.744C120.788 78.744 120.497 86.9459 120.539 88.1767C120.582 89.4076 118.279 92.1113 118.279 92.1113L117.778 94.3338C117.778 94.3338 117.3 93.419 117.606 95.9376C117.912 98.4556 117.62 96.1392 117.62 96.1392C116.092 97.6204 114.517 99.0988 114.517 99.0988C114.517 99.0988 111.981 97.3639 111.824 96.9312C111.669 96.4979 110.194 93.8167 110.194 93.8167C110.194 93.8167 109.009 90.8345 108.715 89.7957C108.389 88.6471 104.212 65.7316 104.212 65.7316C104.212 65.7316 104.826 62.6045 106.47 61.1591C106.47 61.1591 113.246 85.5271 113.655 86.1593C114.065 86.7909 115.405 90.1488 115.405 90.1488" fill="#DEBC85"/>
<path d="M104.815 53.894L104.025 53.3167C104.025 53.3167 103.538 49.8651 103.464 49.4922C103.464 49.4922 104.022 47.3249 103.628 46.942C103.628 46.942 102.856 48.1582 102.737 48.916C102.618 49.6749 103.683 54.1616 103.683 54.1616L104.93 54.984L104.815 53.894Z" fill="#994D3D"/>
<path d="M102.985 46.2082C102.985 46.2082 103.128 46.0478 103.25 46.6251C103.429 47.4707 103.226 48.8451 103.171 49.1591C103.171 49.1591 103.888 53.1202 103.926 53.2831C103.967 53.4449 104.308 53.8058 104.85 54.3333C105.308 54.778 104.949 55.0118 104.949 55.0118L103.745 55.0345C103.745 55.0345 102.835 52.8131 102.824 52.7489C102.813 52.6855 102.354 48.5624 102.354 48.5624L102.985 46.2082Z" fill="#B4634E"/>
<path d="M105.755 60.4372C105.755 60.4372 105.606 57.7246 105.702 56.307C105.702 56.307 105.788 55.2663 105.644 54.2819C105.5 53.2986 105.111 51.7244 104.909 50.8228C104.909 50.8228 104.645 49.8234 104.465 50.1261C104.286 50.4279 104.344 51.0468 104.711 52.3559C104.711 52.3559 104.798 53.9859 104.731 54.4486C104.731 54.4486 103.812 54.0105 103.386 52.6452C103.386 52.6452 102.758 49.257 102.701 48.6379C102.701 48.6379 102.967 45.7874 102.32 45.5795C102.32 45.5795 102.054 47.3012 101.988 48.3488C101.933 49.2144 102.218 54.1448 102.369 55.4521C102.521 56.7581 103.776 60.8668 103.892 61.8225C104.007 62.779 105.755 60.4372 105.755 60.4372Z" fill="#D0846A"/>
<path d="M104.138 65.8853L103.88 65.4751L103.185 62.9798C103.185 62.9798 104.382 60.2604 106.262 59.6162L107.189 62.3816L107.212 62.9148C107.212 62.9151 106.297 63.3764 104.138 65.8853Z" fill="#DEBC85"/>
<path d="M109.887 90.722L109.398 91.7121C109.398 91.7121 111.261 97.6648 113.803 98.596C113.803 98.596 117.177 101.361 118.351 100.5C119.526 99.639 120.271 97.8328 120.399 95.6941C120.528 93.5554 120.514 89.9999 120.528 89.1942C120.543 88.3885 120.571 84.1947 120.528 83.7222C120.485 83.2497 120.81 79.3521 120.788 78.7439C120.767 78.1357 115 79.7739 115 79.7739C115 79.7739 114.7 84.9359 115.53 88.6347L115.644 90.1391C115.644 90.1391 114.07 86.2175 113.403 85.4564C112.737 84.6945 109.887 90.722 109.887 90.722Z" fill="#DEBC85"/>
<path d="M116.096 88.1074C116.116 87.4251 116.132 86.9362 116.132 86.9362L115.627 83.9622L115.459 80.1394C115.459 80.1394 114.966 76.9179 114.626 74.1826L117.232 57.9944C117.232 57.9944 117.942 68.0808 118.27 69.1584C118.598 70.237 116.362 80.6941 116.317 80.858C116.272 81.0205 115.857 83.3663 116.317 83.0276C116.778 82.6875 118.749 75.3353 118.799 75.7261C118.799 75.7261 116.516 85.7279 116.672 85.5805L119.061 81.6095L117.87 86.8045C117.87 86.8045 116.777 87.4916 116.625 88.1766" fill="#AD8A5D"/>
<path d="M106.563 63.3334L105.832 66.5556L106.197 66.1111V69.0556L106.941 67.8889L106.534 71.6668L107.136 70.3331V72.6666L107.767 71.7779L107.508 74.7086C107.508 74.7086 108.31 78.3333 108.367 77.0003C108.425 75.6666 108.425 75.6666 108.425 75.6666C108.425 75.6666 108.883 76.8892 109.17 80.1114C109.456 83.3335 110.287 86.4446 110.717 85.9447C111.146 85.4442 111.748 89.2965 112.034 88.8151C112.321 88.3331 113.152 88.2775 113.152 88.2775C113.152 88.2775 112.79 90.2222 113.372 91.222C113.953 92.2225 115.5 92.1484 115.557 92.3239C115.615 92.5002 115.36 89.8903 115.172 89.9452C114.985 90.0001 113.953 88.5189 113.953 88.5189L112.799 86.0003C112.799 86.0003 106.563 64.0556 106.563 63.3334Z" fill="#AD8A5D"/>
<path d="M111.202 30.814C111.202 30.814 111.969 27.8635 112.855 28.7333C113.351 29.2202 112.898 36.9748 111.202 36.6002C111.202 36.6002 110.901 36.3928 110.88 35.1431L111.202 30.814Z" fill="#D0846A"/>
<path opacity="0.4" d="M112.46 29.7076C112.46 29.7076 112.941 32.6743 112.287 33.3769C112.287 33.3769 111.94 33.6063 111.959 33.926C111.98 34.2471 111.825 36.3969 111.435 35.7103C111.435 35.7103 111.132 34.7334 111.508 34.3685C111.886 34.0036 111.62 33.9869 111.319 33.2091C111.319 33.2091 111.878 29.4912 112.46 29.7076Z" fill="#A5644F"/>
<path d="M112.618 31.8929C112.598 31.3538 112.572 30.8094 112.506 30.3091C112.49 30.1845 112.466 30.0711 112.438 29.9764C112.402 29.8858 112.384 29.88 112.364 29.9C112.322 29.9169 112.317 29.9545 112.301 29.9738C112.286 29.9938 112.259 30.0516 112.238 30.0865C112.196 30.1749 112.151 30.2662 112.112 30.3706C111.952 30.7791 111.814 31.2398 111.696 31.7098C111.586 32.1631 111.469 32.7043 111.482 33.1067L111.451 32.9887C111.559 33.2287 111.661 33.4587 111.735 33.7698C111.753 33.8496 111.77 33.9316 111.776 34.04C111.788 34.1338 111.771 34.3029 111.716 34.3994C111.663 34.4873 111.591 34.4987 111.568 34.508L111.513 34.5296C111.504 34.5403 111.496 34.5478 111.485 34.5536C111.391 34.6562 111.359 34.96 111.373 35.2296C111.391 35.5025 111.453 35.7896 111.587 35.9465C111.432 35.8607 111.33 35.5642 111.284 35.2651C111.241 34.9727 111.231 34.5731 111.398 34.3076C111.449 34.2425 111.498 34.2085 111.528 34.1949C111.58 34.1687 111.586 34.1587 111.594 34.1474C111.588 34.1358 111.597 34.148 111.588 34.0942C111.584 34.0547 111.569 33.9985 111.554 33.9447C111.485 33.7274 111.386 33.4983 111.284 33.3058L111.258 33.2563L111.253 33.1878C111.223 32.8324 111.268 32.5549 111.309 32.2807C111.354 32.0071 111.407 31.7469 111.472 31.4976C111.602 31 111.747 30.5234 111.94 30.0962C111.986 29.9875 112.039 29.8842 112.096 29.7865C112.13 29.7382 112.151 29.6945 112.196 29.6442C112.24 29.596 112.291 29.5485 112.319 29.5451C112.439 29.4807 112.554 29.6764 112.582 29.8193C112.616 29.9669 112.636 30.1102 112.646 30.2511C112.688 30.812 112.66 31.3571 112.618 31.8929Z" fill="#975238"/>
<path d="M112.343 32.5982C112.343 32.5982 112.337 32.0109 112.238 31.4918C112.191 31.2328 112.115 31.0102 112.045 30.9184C111.976 30.8264 111.925 30.8293 111.926 30.8218L112 30.3538C112 30.3538 112.022 30.376 112.059 30.414C112.098 30.4476 112.146 30.5253 112.193 30.6211C112.287 30.8248 112.341 31.1368 112.361 31.4324C112.403 32.0311 112.343 32.5982 112.343 32.5982Z" fill="#975238"/>
<path d="M100.166 30.814C100.166 30.814 99.3989 27.8635 98.513 28.7333C98.0163 29.2202 98.47 36.9748 100.166 36.6002C100.166 36.6002 100.467 36.3928 100.488 35.1431L100.166 30.814Z" fill="#D0846A"/>
<path opacity="0.4" d="M98.9078 29.7076C98.9078 29.7076 98.4287 32.6743 99.0814 33.3769C99.0814 33.3769 99.428 33.6063 99.4089 33.926C99.3889 34.2471 99.5434 36.3969 99.9354 35.7103C99.9354 35.7103 100.237 34.7334 99.8597 34.3685C99.4837 34.0036 99.7502 33.9869 100.049 33.2091C100.049 33.2091 99.4911 29.4912 98.9078 29.7076Z" fill="#A5644F"/>
<path d="M98.7502 31.8929C98.7081 31.3572 98.6802 30.812 98.7213 30.2507C98.7321 30.1099 98.7511 29.9665 98.7858 29.8189C98.8132 29.6761 98.9291 29.4796 99.0479 29.5447C99.0772 29.5481 99.1281 29.5976 99.1716 29.6454C99.2161 29.6942 99.2376 29.7381 99.2713 29.7863C99.3285 29.8841 99.3808 29.9881 99.4273 30.0967C99.6204 30.5231 99.7661 31.0005 99.8961 31.4974C99.9607 31.7469 100.014 32.0072 100.058 32.2805C100.1 32.5541 100.145 32.8323 100.116 33.1876L100.11 33.2561L100.084 33.3056C99.9827 33.498 99.8829 33.7274 99.8145 33.9445C99.7979 33.9983 99.7842 34.0545 99.7803 34.0941C99.771 34.1478 99.7788 34.1356 99.7739 34.1471C99.7827 34.1585 99.7876 34.1685 99.8394 34.1947C99.8707 34.2083 99.9186 34.2422 99.9704 34.3074C100.137 34.5736 100.127 34.9727 100.084 35.2649C100.038 35.5647 99.9352 35.8618 99.7808 35.9462C99.9152 35.7907 99.9778 35.5022 99.9949 35.2294C100.009 34.9605 99.9763 34.6567 99.8829 34.5534C99.8727 34.5474 99.8634 34.5401 99.8551 34.5294L99.7998 34.5078C99.7768 34.4985 99.705 34.4863 99.6527 34.3991C99.5969 34.3025 99.5798 34.1323 99.5916 34.0398C99.5979 33.9311 99.6155 33.8494 99.6326 33.7696C99.7074 33.4585 99.8096 33.2278 99.9181 32.9885L99.8859 33.1065C99.8986 32.7047 99.7827 32.163 99.6707 31.7096C99.5539 31.2403 99.416 30.7796 99.2557 30.3718C99.2161 30.2672 99.1716 30.176 99.1286 30.0861C99.1085 30.0512 99.0816 29.9934 99.067 29.9734C99.0508 29.9541 99.0454 29.9165 99.0039 29.9003C98.9834 29.8796 98.9658 29.8849 98.9306 29.9761C98.9027 30.0705 98.8778 30.1838 98.8616 30.3087C98.7956 30.8094 98.7707 31.3538 98.7502 31.8929Z" fill="#975238"/>
<path d="M99.0252 32.5982C99.0252 32.5982 98.966 32.0309 99.0085 31.4323C99.0296 31.1364 99.0838 30.8253 99.1772 30.6215C99.2241 30.5258 99.2721 30.448 99.3107 30.4145C99.3483 30.3763 99.3698 30.3542 99.3698 30.3542L99.4442 30.8222C99.4451 30.8296 99.3943 30.8269 99.3244 30.9189C99.2545 31.0109 99.1782 31.2333 99.1308 31.4923C99.031 32.0102 99.0252 32.5982 99.0252 32.5982Z" fill="#975238"/>
<path d="M105.028 47.5011C105.028 47.5011 102.113 43.6964 101.216 41.4138C100.397 39.3297 99.8332 29.7764 99.7413 28.1264C99.7383 28.072 99.7339 28.0171 99.7305 27.9622C99.7285 27.91 99.7271 27.8817 99.7271 27.8817L99.7285 27.8824C99.7129 27.5411 99.7031 27.1971 99.7031 26.8484C99.7031 20.4849 102.364 15.3251 105.644 15.3251C108.926 15.3251 111.586 20.4849 111.586 26.8484C111.586 27.2622 111.574 27.6698 111.552 28.0728C111.552 28.0728 110.969 39.1315 110.071 41.414C109.176 43.6964 106.261 47.5013 106.261 47.5013C106.261 47.5013 105.785 48.0175 105.028 47.5011Z" fill="#D0846A"/>
<path d="M99.2145 28.7507C99.2145 28.7507 99.807 29.3596 100.05 31.7441C100.05 31.7441 100.378 30.6545 100.49 28.3706C100.602 26.0854 100.798 25.4496 101.231 23.8463C101.231 23.8463 102.284 20.5259 101.823 17.4059C101.528 15.4163 99.9772 14.4474 99.3934 16.6441C98.2455 20.9666 98.9769 27.9583 99.2145 28.7507Z" fill="#090000"/>
<path d="M106.245 33.1769C106.245 33.1769 106.165 35.3293 106.211 36.7877C106.234 37.5791 106.028 38.0371 105.832 38.1188C105.832 38.1188 106.653 38.3702 106.779 36.8702C106.861 35.8606 106.371 34.7535 106.245 33.1769Z" fill="#A5644F"/>
<path d="M105.403 37.966C105.403 37.966 104.616 37.4321 104.745 37.9062C104.875 38.3817 105.403 37.966 105.403 37.966Z" fill="#975238"/>
<path d="M101.581 18.9281C101.581 18.9281 103.09 23.0787 105.136 23.9479C105.136 23.9479 104.041 22.6443 103.565 21.857C103.565 21.857 105.662 24.0712 107.99 24.4714C107.99 24.4714 106.51 23.4932 105.961 22.1165C105.961 22.1165 107.404 24.1247 110.066 24.4714C110.066 24.4714 109.056 23.8399 108.678 23.0787C108.678 23.0787 110.041 23.7928 110.487 24.4714C110.932 25.1501 111.32 30.5875 111.32 30.5875C111.32 30.5875 111.586 29.6896 111.975 28.9627C111.975 28.9627 112.62 22.1438 112.348 20.2872C112.065 18.3534 110.721 9.95938 103.832 10.6663C103.832 10.6663 99.9167 11.2107 100.266 15.9923L101.581 18.9281Z" fill="#090000"/>
<path d="M101.076 15.3252C100.425 13.7315 101.604 12.1121 102.664 11.0654C101.541 11.6301 100.044 12.957 100.266 15.9926L101.581 18.9281C101.581 18.9281 103.091 23.0788 105.136 23.9479C105.136 23.9479 104.041 22.6443 103.565 21.857C103.565 21.857 105.663 24.0712 107.991 24.4715C107.991 24.4715 106.51 23.4932 105.962 22.1165C105.962 22.1165 107.404 24.1248 110.066 24.4715C110.066 24.4715 109.056 23.8399 108.678 23.0788C108.678 23.0788 110.041 23.7928 110.487 24.4715C110.932 25.1501 111.319 30.5874 111.319 30.5874C111.319 30.5874 111.587 29.6897 111.976 28.9628C111.976 28.9628 112.62 22.1439 112.349 20.2873C112.336 20.2021 112.322 20.105 112.305 19.9977C111.149 24.7699 102.081 17.7861 101.076 15.3252Z" fill="black"/>
<path d="M99.8994 22.4605C99.2555 20.4489 99.1719 16.5925 100.348 15.3962C99.9718 15.4385 99.6144 15.816 99.3934 16.6442C98.2455 20.9667 98.9769 27.9585 99.2145 28.7509C99.2145 28.7509 99.807 29.3598 100.05 31.7442C100.05 31.7442 100.378 30.6547 100.49 28.3707C100.531 27.5211 100.584 26.9003 100.657 26.3732C100.521 25.2438 100.276 23.638 99.8994 22.4605Z" fill="black"/>
<path d="M112.304 19.9968C111.936 17.6366 110.419 9.9911 103.831 10.6662C103.831 10.6662 103.339 10.7353 102.72 11.0364C102.478 11.4133 102.383 11.882 102.583 12.4606C103.318 14.5802 110.108 11.1195 112.304 19.9968Z" fill="#2B101A"/>
<path d="M102.534 144.423C102.534 144.423 114.556 171.316 115.453 172.733C115.453 172.733 108.025 151.927 102.534 144.423Z" fill="#E9CD96"/>
<path d="M101.58 127.031C101.514 126.933 111.949 152.249 114.248 156.435C114.248 156.435 105.279 132.357 101.58 127.031Z" fill="#E9CD96"/>
<path d="M101.356 152.901C101.356 152.901 107.438 179.043 107.718 179.696C107.718 179.696 105.448 162.196 101.356 152.901Z" fill="#E9CD96"/>
<path d="M105.491 208.973C106.985 199.78 108.644 185.035 108.586 183.996C108.586 183.996 100.39 192.485 99.8508 193.646L96.1064 208.973H105.491V208.973Z" fill="#E9CD96"/>
<path d="M94.4395 202.67C94.4395 202.67 107.141 212.019 117.508 202.512L117.925 213.629C117.925 213.629 108.673 224.154 94.0156 213.625L94.4395 202.67Z" fill="#E2BE81"/>
<path d="M94.0166 213.627C97.431 216.078 100.55 217.387 103.323 217.954L103.893 207.845C100.128 207.514 95.7126 204.597 94.4014 203.677L94.0166 213.627Z" fill="#C59F6B"/>
<path d="M117.931 213.299C117.035 213.693 116.531 212.325 116.03 211.504C115.485 210.614 107.576 213.978 106.782 213.679C105.986 213.382 105.777 210.416 105.149 210.49C104.653 210.547 104.444 215.887 104.379 218.135C112.907 219.355 117.944 213.631 117.944 213.631L117.931 213.299Z" fill="#E9CD96"/>
<path d="M105.139 40.5011C105.517 40.5233 105.963 40.0091 106.291 40.2704C106.618 40.5315 107.356 42.0068 106.92 42.502C106.485 42.9973 106.403 42.2708 105.306 42.79C104.21 43.3091 104.017 42.7298 104.181 42.0344C104.346 41.3395 104.665 40.4737 105.139 40.5011Z" fill="#991E23"/>
<path d="M117.543 202.969C115.262 205.478 111.202 208.568 105.462 207.749C105.462 207.749 105.337 209.807 106.781 210.411C108.224 211.012 114.94 208.786 115.819 209.677C116.334 210.195 117.099 210.99 117.855 211.267L117.543 202.969Z" fill="#C59F6B"/>
<path d="M105.448 38.5747L105.567 40.0496C105.645 41.0247 103.885 40.6351 103.694 40.6167C103.362 40.5843 102.939 41.4172 102.915 41.4654C102.925 41.4025 103.107 40.2099 103.484 39.7332C103.928 39.1687 105.207 38.6663 105.418 38.5874C105.438 38.5799 105.448 38.5747 105.448 38.5747Z" fill="black"/>
<path d="M108.356 41.074C108.327 41.0334 107.852 40.3793 107.598 40.3204C107.403 40.2742 105.648 41.0465 105.685 40.0202L105.742 38.4683C105.742 38.4683 107.422 38.9125 107.865 39.6763C108.29 40.4138 108.353 41.0284 108.356 41.074Z" fill="black"/>
<path d="M105.447 38.5746L105.585 38.5193C105.585 38.5193 105.62 40.1635 105.535 40.3087C105.449 40.4537 105.447 38.5746 105.447 38.5746Z" fill="black"/>
<path d="M105.742 38.4683L105.625 38.4387C105.625 38.4387 105.619 40.3085 105.752 40.3316C105.885 40.3549 105.742 38.4683 105.742 38.4683Z" fill="black"/>
<path d="M107.81 28.1646C107.81 28.1646 107.433 28.7835 107.104 29.5197C107.019 29.6974 106.951 29.8966 106.876 30.0744C106.807 30.2562 106.756 30.4432 106.705 30.5966C106.659 30.7548 106.639 30.9017 106.616 30.9995C106.595 31.1001 106.584 31.1577 106.584 31.1577C106.584 31.1577 106.59 31.0975 106.602 30.9928C106.616 30.8902 106.624 30.7312 106.657 30.5564C106.694 30.3868 106.731 30.1761 106.785 29.9684C106.844 29.7666 106.897 29.5346 106.968 29.3281C107.235 28.4779 107.571 27.7054 107.571 27.7054L107.81 28.1646Z" fill="#975238"/>
<path d="M104.724 26.9109C104.724 26.9109 104.627 28.4016 104.34 28.5269C103.538 28.8796 102.104 27.2287 100.91 29.0145C100.91 29.0145 100.998 27.5171 101.697 27.0672C102.396 26.6158 104.492 27.1542 104.724 26.9109Z" fill="black"/>
<path d="M106.784 27.0369C106.784 27.0369 106.839 28.5188 107.115 28.6186C107.887 28.8962 109.325 27.1173 110.441 28.7948C110.441 28.7948 110.395 27.3062 109.726 26.9193C109.058 26.532 107.004 27.2599 106.784 27.0369Z" fill="black"/>
<path d="M104.37 31.7119C104.37 31.7119 104.46 31.4028 104.419 31.0903C104.377 30.7792 102.911 28.4015 101.935 31.3001C101.935 31.3001 103.025 34.2503 104.37 31.7119Z" fill="#F0F0ED"/>
<path d="M104.259 31.1745C104.259 31.8266 103.987 32.3556 103.65 32.3556C103.314 32.3556 103.041 31.8263 103.041 31.1745C103.041 30.5208 103.314 29.9921 103.65 29.9921C103.987 29.9919 104.259 30.5205 104.259 31.1745Z" fill="#2C1117"/>
<path d="M103.957 31.1467C103.957 31.4598 103.825 31.7141 103.663 31.7141C103.502 31.7141 103.37 31.4598 103.37 31.1467C103.37 30.8309 103.502 30.576 103.663 30.576C103.825 30.576 103.957 30.8309 103.957 31.1467Z" fill="#040000"/>
<path d="M102.395 32.1631L102.105 31.8687C102.01 31.7714 101.912 31.644 101.811 31.5227L101.728 31.422L101.793 31.1216V31.1209L101.91 30.8105C101.951 30.7105 101.983 30.5974 102.036 30.5121L102.184 30.2425C102.232 30.1505 102.296 30.0889 102.351 30.0118C102.407 29.9367 102.468 29.8725 102.534 29.8287C102.599 29.7844 102.659 29.714 102.729 29.6958C102.864 29.6247 103.001 29.6087 103.137 29.618C103.271 29.6449 103.402 29.6898 103.527 29.7696C103.65 29.8514 103.77 29.95 103.881 30.076C103.991 30.2009 104.094 30.3456 104.192 30.5018C104.238 30.5862 104.288 30.6613 104.329 30.7573C104.372 30.8538 104.414 30.9312 104.443 31.0771L104.444 31.0804V31.0845C104.444 31.2715 104.411 31.4425 104.392 31.6134C104.393 31.4352 104.409 31.2613 104.392 31.0965L104.392 31.1031C104.368 31.0327 104.315 30.9482 104.269 30.8838C104.223 30.8127 104.171 30.7518 104.122 30.688C104.019 30.57 103.913 30.4656 103.803 30.3831C103.693 30.3013 103.582 30.2329 103.47 30.1894C103.357 30.1451 103.245 30.1356 103.133 30.1383C103.024 30.1625 102.917 30.194 102.815 30.2635C102.763 30.2816 102.719 30.35 102.669 30.3896C102.62 30.4291 102.575 30.4869 102.533 30.5547C102.491 30.6203 102.442 30.6647 102.404 30.7438L102.287 30.9711C102.21 31.1214 102.147 31.3105 102.075 31.478L102.057 31.0771C102.106 31.2493 102.151 31.4338 102.212 31.6169L102.395 32.1631Z" fill="#030000"/>
<path d="M103.543 30.7329C103.543 30.8918 103.476 31.022 103.394 31.022C103.312 31.022 103.245 30.892 103.245 30.7329C103.245 30.5733 103.312 30.4447 103.394 30.4447C103.476 30.4447 103.543 30.5733 103.543 30.7329Z" fill="#F0F0ED"/>
<path d="M107.145 31.7119C107.145 31.7119 107.056 31.4028 107.098 31.0903C107.141 30.7792 108.604 28.4015 109.581 31.3001C109.581 31.3001 108.492 34.2503 107.145 31.7119Z" fill="#F0F0ED"/>
<path d="M108.029 30.9243C108.029 31.5915 108.308 32.1332 108.653 32.1332C108.998 32.1332 109.278 31.5915 109.278 30.9243C109.278 30.2552 108.998 29.7141 108.653 29.7141C108.308 29.7139 108.029 30.255 108.029 30.9243Z" fill="#2C1117"/>
<path d="M108.36 30.9244C108.36 31.2375 108.492 31.4918 108.654 31.4918C108.817 31.4918 108.947 31.2375 108.947 30.9244C108.947 30.6086 108.817 30.3538 108.654 30.3538C108.492 30.3538 108.36 30.6086 108.36 30.9244Z" fill="#040000"/>
<path d="M108.775 30.5106C108.775 30.6695 108.841 30.7997 108.923 30.7997C109.006 30.7997 109.072 30.6697 109.072 30.5106C109.072 30.3511 109.005 30.2224 108.923 30.2224C108.841 30.2224 108.775 30.3511 108.775 30.5106Z" fill="#F0F0ED"/>
<path d="M109.119 32.1631L109.303 31.6171C109.364 31.4339 109.408 31.2498 109.459 31.0773L109.44 31.4782C109.368 31.3107 109.305 31.1215 109.227 30.9713L109.111 30.744C109.073 30.6648 109.023 30.6206 108.981 30.5549C108.94 30.487 108.895 30.4295 108.845 30.3897C108.797 30.3502 108.753 30.2819 108.7 30.2638C108.598 30.194 108.492 30.1624 108.382 30.1384C108.271 30.1358 108.159 30.1451 108.046 30.1895C107.933 30.2331 107.823 30.3022 107.712 30.3833C107.603 30.4657 107.496 30.5704 107.393 30.6897C107.345 30.7528 107.293 30.8137 107.246 30.8842C107.2 30.9493 107.148 31.0331 107.123 31.1035L107.124 31.0969C107.106 31.2618 107.122 31.4355 107.123 31.6137C107.105 31.4429 107.07 31.2718 107.071 31.0849V31.0809L107.072 31.0775C107.101 30.9319 107.144 30.8542 107.187 30.7582C107.228 30.6615 107.277 30.5866 107.324 30.5029C107.421 30.3466 107.525 30.2017 107.635 30.0764C107.745 29.9504 107.864 29.8517 107.988 29.77C108.113 29.6902 108.244 29.6453 108.379 29.6184C108.515 29.6091 108.651 29.6251 108.786 29.6962C108.856 29.7144 108.915 29.7847 108.981 29.8291C109.047 29.8726 109.108 29.9371 109.164 30.0122C109.219 30.0893 109.283 30.1524 109.33 30.2429L109.478 30.5124C109.531 30.5975 109.564 30.7109 109.604 30.8108L109.722 31.1213V31.1219L109.787 31.4224L109.703 31.5231C109.602 31.6444 109.505 31.7719 109.409 31.8691L109.119 32.1631Z" fill="#030000"/>
<path d="M119.947 94.1411L119.604 97.8076L118.715 99.9045L117.942 99.1413L116.825 98.3082L115.994 97.0856L117.971 97.3077L119.231 96.55L118.945 95.1409L119.088 92.7429L119.575 91.03L119.947 94.1411Z" fill="#C8A977"/>
</svg>
