<svg width="450" height="350" viewBox="0 0 450 350" fill="none" xmlns="http://www.w3.org/2000/svg">
<path fill-rule="evenodd" clip-rule="evenodd" d="M218.645 59.9727C218.645 59.9727 214.479 48.7425 199.755 52.4429C185.032 56.1424 177.271 74.9663 178.866 93.949C179.937 106.668 184.288 113.094 185.649 121.478C186.627 127.507 185.998 132.967 184.197 137.056C182.614 140.656 180.541 141.32 184.966 141.16C186.24 141.114 187.495 140.899 188.73 140.512C194.226 138.787 203.21 132.185 201.797 130.812C176.133 105.875 218.645 59.9727 218.645 59.9727Z" fill="black"/>
<path fill-rule="evenodd" clip-rule="evenodd" d="M206.656 282.364C206.656 282.364 207.321 245.806 206.794 227.433C206.267 209.06 217.954 208.722 220.607 216.098C223.26 223.473 220.493 243.275 219.524 256.018C218.556 268.76 217.587 282.364 217.587 282.364C218.662 288.89 211.175 290.502 208.352 288.707C205.53 286.912 206.656 282.364 206.656 282.364Z" fill="#FFB685"/>
<path fill-rule="evenodd" clip-rule="evenodd" d="M206.994 249.237C207.011 241.3 206.965 233.406 206.794 227.433C206.266 209.06 217.954 208.722 220.607 216.099C222.938 222.578 221.085 238.65 219.944 251.1C215.194 250.891 210.861 250.195 206.994 249.237Z" fill="#FAA66E"/>
<path fill-rule="evenodd" clip-rule="evenodd" d="M206.475 283.013C206.475 283.013 206.258 277.854 206.342 271.21C209.426 271.283 214.666 271.412 218.865 271.398C218.397 277.786 217.664 282.963 217.664 282.963C218.739 289.488 211.174 290.502 208.352 288.707C205.531 286.912 206.475 283.013 206.475 283.013Z" fill="#FFE0DA"/>
<path fill-rule="evenodd" clip-rule="evenodd" d="M202.215 295.496H221.464C222.085 295.496 222.593 296.128 222.593 296.9V296.902C222.593 297.674 222.085 298.305 221.464 298.305H202.215C201.593 298.305 201.087 297.674 201.087 296.902V296.9C201.087 296.128 201.593 295.496 202.215 295.496Z" fill="#B82C0D"/>
<path fill-rule="evenodd" clip-rule="evenodd" d="M241.784 281.035C241.784 281.035 241.118 245.807 241.646 227.433C242.173 209.061 230.486 208.723 227.833 216.098C225.179 223.473 227.947 243.276 228.915 256.019C229.884 268.761 230.853 282.364 230.853 282.364C233.175 288.074 239.047 289.805 244.645 289.108C248.055 288.684 249.354 287.677 249.425 287.028C248.422 285.406 244.378 282.949 241.784 281.035Z" fill="#FFB685"/>
<path fill-rule="evenodd" clip-rule="evenodd" d="M241.446 248.677C241.431 241.007 241.476 233.347 241.647 227.433C242.173 209.06 230.487 208.722 227.832 216.098C225.512 222.549 227.339 238.511 228.482 250.938C232.574 250.604 236.904 249.885 241.446 248.677Z" fill="#FAA66E"/>
<path fill-rule="evenodd" clip-rule="evenodd" d="M242.265 281.089C242.265 281.089 242.194 277.307 242.116 271.576C238.202 271.611 233.47 271.619 229.678 271.594C230.138 277.881 230.526 282.721 230.526 282.721C232.848 288.43 239.047 289.804 244.645 289.108C248.055 288.684 249.355 287.678 249.425 287.027C248.422 285.406 244.859 283.001 242.265 281.089Z" fill="#FFE0DA"/>
<path fill-rule="evenodd" clip-rule="evenodd" d="M245.064 153.922C245.064 153.922 251.94 160.459 256.429 172.582C260.918 184.706 263.348 204.358 263.348 204.358C263.348 204.358 269.718 212.159 271.269 216.047C272.346 218.749 271.747 220.249 270.352 218.375C269.761 217.581 268.633 215.322 267.784 214.471C268.392 215.697 271.134 221.563 269.829 222.491C268.524 223.419 268.346 220.567 265.327 216.165C266.901 219.464 268.615 223.742 267.434 224.825C266.254 225.908 264.335 219.215 263.31 217.831C263.961 219.874 265.106 225.12 263.492 225.197C261.877 225.275 261.125 219.949 260.115 218.397L257.031 214.14C256.715 214.559 255.98 218.25 255.512 218.703C255.055 219.145 254.395 219.019 253.924 217.002C253.178 213.677 255.092 208.116 255.092 208.116C253.67 188.675 248.941 179.254 238.279 167.816C236.477 165.883 234.051 159.799 236.663 155.521C239.275 151.245 242.814 151.424 245.064 153.922Z" fill="#FFB685"/>
<path fill-rule="evenodd" clip-rule="evenodd" d="M202.406 155.298C202.406 155.298 195.474 161.888 190.949 174.109C186.423 186.329 183.976 206.139 183.976 206.139C183.976 206.139 177.554 214.003 175.991 217.921C174.905 220.646 175.51 222.158 176.915 220.268C177.51 219.468 178.648 217.191 179.504 216.331C178.89 217.569 176.127 223.482 177.442 224.417C178.757 225.352 178.938 222.477 181.98 218.041C180.394 221.367 178.666 225.679 179.856 226.77C181.045 227.862 182.98 221.115 184.013 219.719C183.357 221.779 182.203 227.068 183.831 227.145C185.458 227.224 186.216 221.855 187.236 220.291L190.343 216C190.663 216.422 191.403 220.141 191.875 220.6C192.335 221.046 193.002 220.919 193.476 218.884C194.227 215.533 192.299 209.927 192.299 209.927C193.731 190.331 198.499 180.834 209.246 169.303C211.061 167.355 213.508 161.224 210.873 156.912C208.241 152.599 204.673 152.782 202.406 155.298Z" fill="#FFB685"/>
<path fill-rule="evenodd" clip-rule="evenodd" d="M217.016 132.881L226.95 135.039L227.789 147.321L222.388 148.7L216.734 148.517L217.016 132.881Z" fill="#E8935A"/>
<path fill-rule="evenodd" clip-rule="evenodd" d="M211.865 147.975C215.803 146.313 219.596 145.752 223.257 145.589C226.311 145.452 233.582 146.713 235.89 148.103C234.254 150.745 224.662 152.687 220.782 152.687C216.901 152.687 213.169 149.563 211.865 147.975Z" fill="#E8935A"/>
<path fill-rule="evenodd" clip-rule="evenodd" d="M194.813 120.12C188.268 120.4 186.73 109.071 192.006 107.047C187.372 88.8688 196.046 69.2465 214.969 64.9248C228.064 61.9328 242.939 69.1493 247.101 88.4597C249.895 101.421 250.265 114.47 246.661 123.254C237.883 144.664 202.093 142.817 194.813 120.12Z" fill="#FFB685"/>
<path fill-rule="evenodd" clip-rule="evenodd" d="M194.813 120.12C193.114 120.567 191.785 119.343 190.831 118.437C192.727 119.046 194.599 118.967 196.528 117.198C202.055 138.833 232.553 142.235 243.591 128.578C231.531 144.146 201.423 140.727 194.813 120.12Z" fill="#FFB685"/>
<path fill-rule="evenodd" clip-rule="evenodd" d="M192.696 85.2256C195.162 77.9775 199.932 71.7449 206.749 67.9233C207.272 68.4873 207.848 68.9287 208.594 68.9532C211.965 69.067 230.57 68.7305 237.95 72.7336C245.328 76.7381 249.963 105.229 247.814 94.5662C245.399 82.5778 226.327 84.8598 218.374 83.221C213.185 82.1513 208.921 79.5766 208.921 79.5766C206.962 88.9505 206.277 90.4327 200.136 96.7935C196.773 100.277 195.497 102.734 195.275 108.581C192.696 104.807 191.484 94.7018 192.696 85.2256Z" fill="#FFB685"/>
<path fill-rule="evenodd" clip-rule="evenodd" d="M206.656 282.364C205.594 282.636 201.343 290.508 201.839 295.813H221.779C221.779 295.813 222.174 289.748 217.587 282.364C216.421 288.159 209.428 288.592 207.566 287.262C205.704 285.932 206.656 282.364 206.656 282.364Z" fill="#DB4F30"/>
<path fill-rule="evenodd" clip-rule="evenodd" d="M206.476 283.014C206.125 283.25 205.684 283.085 205.496 282.648C205.306 282.209 205.438 281.662 205.789 281.426C206.954 280.648 209.534 280.07 212.288 280.19C214.431 280.283 216.709 280.793 218.559 281.945C218.915 282.165 219.061 282.707 218.882 283.152C218.704 283.596 218.269 283.775 217.912 283.554C216.269 282.531 214.202 282.076 212.244 281.99C209.734 281.88 207.453 282.362 206.476 283.014Z" fill="#DB4F30"/>
<path fill-rule="evenodd" clip-rule="evenodd" d="M230.853 282.364C230.853 282.364 228.955 284.042 228.514 288.284C228.072 292.526 228.949 295.879 228.949 295.879L251.871 296.964L254.49 295.495C254.49 295.495 255.691 293.638 253.766 290.85C251.84 288.062 249.425 287.027 249.425 287.027C249.354 287.677 248.055 288.684 244.644 289.109C239.046 289.804 233.175 288.075 230.853 282.364Z" fill="#DB4F30"/>
<path fill-rule="evenodd" clip-rule="evenodd" d="M230.484 283.285C230.142 283.54 229.696 283.401 229.491 282.975C229.286 282.548 229.398 281.994 229.74 281.739C231.103 280.723 233.772 279.961 236.371 279.607C239.055 279.242 241.73 279.317 242.902 280C243.263 280.21 243.419 280.747 243.251 281.195C243.081 281.647 242.65 281.841 242.289 281.63C241.361 281.089 238.983 281.065 236.525 281.399C234.104 281.728 231.661 282.407 230.484 283.285Z" fill="#DB4F30"/>
<path fill-rule="evenodd" clip-rule="evenodd" d="M228.948 295.496H254.228C254.848 295.496 255.357 296.128 255.357 296.9C255.357 297.674 254.847 298.305 254.228 298.305H228.948C228.328 298.305 227.82 297.674 227.82 296.9C227.82 296.128 228.328 295.496 228.948 295.496Z" fill="#B82C0D"/>
<path fill-rule="evenodd" clip-rule="evenodd" d="M205.408 246.437L206.169 280.174H218.019L221.727 244.244L226.713 245.118L229.387 280.174L242.901 279.999V243.545L229.678 233.764L201.799 238.481L205.408 246.437Z" fill="#ED634C"/>
<path fill-rule="evenodd" clip-rule="evenodd" d="M251.559 160.09C248.379 165.101 248.555 164.937 243.984 168.437L245.039 172.812C249.803 170.121 249.709 170.287 253.644 164.735C253.28 163.544 252.346 161.511 251.559 160.09Z" fill="#DB4F30"/>
<path fill-rule="evenodd" clip-rule="evenodd" d="M195.859 161.517C199.064 166.568 200.04 167.562 204.258 170.625L202.852 174.562C198.05 171.849 197.724 171.794 193.757 166.199C194.124 164.999 195.066 162.949 195.859 161.517Z" fill="#DB4F30"/>
<path fill-rule="evenodd" clip-rule="evenodd" d="M255.819 240.415C244.433 249.378 204.58 250.899 193.6 241.662L193.985 237.401C209.228 246.425 241.059 245.124 255.222 235.566L255.819 240.415Z" fill="#DB4F30"/>
<path fill-rule="evenodd" clip-rule="evenodd" d="M207.596 149.125C209.435 148.119 211.915 147.066 213.842 146.845C215.361 152.955 228.904 154.347 231.453 146.296C232.979 146.503 234.872 146.814 236.75 147.545C232.879 160.75 213.479 161.173 207.596 149.125Z" fill="#DB4F30"/>
<path fill-rule="evenodd" clip-rule="evenodd" d="M199.828 68.6275L198.41 64.2748C201.931 60.7844 214.024 56.3333 217.347 55.814L219.002 60.5954C217.243 61.8633 199.828 68.6275 199.828 68.6275Z" fill="#219487"/>
<path opacity="0.3" fill-rule="evenodd" clip-rule="evenodd" d="M231.865 112.363C231.753 117.489 225.31 117.445 224.9 113.742C225.651 114.033 226.547 114.496 227.946 114.379C229.151 114.28 230.84 113.747 231.865 112.363Z" fill="#020100"/>
<path fill-rule="evenodd" clip-rule="evenodd" d="M193.066 114.155C193.066 114.155 192.291 112.47 193.585 112.08C194.256 111.877 194.656 112.608 194.874 113.347C195.074 114.028 195.12 114.72 195.083 114.69C195.083 114.69 194.9 114.37 194.639 114.043C194.154 113.438 193.402 112.807 193.066 114.155Z" fill="#FAA66E"/>
<path fill-rule="evenodd" clip-rule="evenodd" d="M207.15 74.7605C207.15 74.7605 211.84 80.5062 220.571 81.3729C229.301 82.2414 239.595 83.6939 243.514 86.8719C247.431 90.0499 248.791 98.7898 248.791 98.7898C257.172 73.7674 230.326 47.7112 201.826 65.9467C189.211 74.0177 181.068 95.1909 188.87 113.663C188.465 109.737 192.383 106.394 195.292 108.677C194.835 102.445 195.71 99.7917 199.072 95.8052C202.272 92.0099 207.172 85.9006 207.15 74.7605Z" fill="#020202"/>
<path fill-rule="evenodd" clip-rule="evenodd" d="M228.558 82.3315C234.282 83.1719 239.68 84.3904 242.683 86.2808C244.868 82.4807 246.057 78.6342 246.613 75.002C244.927 71.9662 242.725 69.2362 240.109 66.9595C238.203 73.4227 233.972 78.516 228.558 82.3315ZM186.746 89.5638C186.052 92.8249 185.725 96.223 185.833 99.6609C188.203 102.224 191.273 104.619 195.18 106.156C195.145 101.641 196.202 99.2098 199.07 95.8056C200.151 94.5242 201.426 92.9794 202.638 91.0662C196.688 91.5146 191.085 90.9918 186.746 89.5638Z" fill="#424242"/>
<path fill-rule="evenodd" clip-rule="evenodd" d="M245.35 94.6971C243.559 92.6728 240.044 92.1473 238.344 92.2152C235.127 92.3433 236.643 89.766 238.197 89.5223C241.128 89.0638 244.429 90.8038 246.116 93.1658C247.448 95.0309 247.486 97.1103 245.35 94.6971Z" fill="black"/>
<path fill-rule="evenodd" clip-rule="evenodd" d="M204.738 96.0645C206.617 93.7913 210.333 92.7737 212.131 92.6039C215.537 92.2815 213.912 89.9177 212.266 89.8914C209.163 89.8429 205.682 92.0426 203.915 94.6405C202.52 96.691 202.494 98.7744 204.738 96.0645Z" fill="black"/>
<path d="M234.8 110.393C234.8 110.393 241.674 113.688 244.559 109.292C248.075 103.936 243.305 99.155 240.036 99.7815C237.011 100.362 234.147 103.386 234.8 110.393Z" fill="#F9FEFF"/>
<path d="M245.422 102.191C244.22 100.065 242.505 99.2977 240.602 99.3948C238.655 99.4946 236.615 101.059 235.978 102.781C237.111 100.872 238.941 100.276 240.07 100.061C241.872 99.7124 244.157 100.877 245.112 102.953C245.961 104.802 245.756 107.465 244.465 109.431C245.941 108.137 246.674 104.407 245.422 102.191Z" fill="black"/>
<path d="M236.67 104.65C235.932 106.613 236.613 108.95 238.191 109.868C239.769 110.786 241.645 109.939 242.383 107.975C243.121 106.012 242.44 103.675 240.863 102.757C239.285 101.839 237.407 102.686 236.67 104.65Z" fill="black"/>
<path d="M236.955 104.046C236.75 104.59 236.938 105.24 237.377 105.493C237.814 105.748 238.335 105.513 238.54 104.969C238.746 104.423 238.556 103.776 238.118 103.521C237.68 103.266 237.16 103.502 236.955 104.046Z" fill="#FEFFFE"/>
<path d="M219.387 112.237C219.387 112.237 212.686 116.087 209.572 111.925C205.777 106.853 210.298 101.687 213.598 102.05C216.655 102.386 219.676 105.179 219.387 112.237Z" fill="#F9FEFF"/>
<path d="M208.339 104.894C209.43 102.671 211.106 101.765 213.013 101.709C214.965 101.652 217.087 103.052 217.812 104.722C216.579 102.905 214.72 102.457 213.579 102.332C211.76 102.129 209.535 103.478 208.689 105.632C207.937 107.548 208.28 110.195 209.673 112.057C208.131 110.882 207.202 107.211 208.339 104.894Z" fill="black"/>
<path d="M211.547 107.567C211.106 109.669 212.117 111.817 213.806 112.367C215.494 112.915 217.221 111.655 217.661 109.554C218.102 107.453 217.092 105.306 215.402 104.756C213.714 104.207 211.987 105.466 211.547 107.567Z" fill="black"/>
<path fill-rule="evenodd" clip-rule="evenodd" d="M205.408 246.437L206.169 280.174H218.019L221.727 244.244L226.713 245.118L229.387 280.174L242.901 279.999V243.545L229.678 233.764L201.799 238.481L205.408 246.437Z" fill="#266B14"/>
<path d="M211.739 106.908C211.616 107.49 211.897 108.087 212.365 108.239C212.834 108.391 213.313 108.042 213.435 107.459C213.557 106.876 213.277 106.279 212.808 106.128C212.34 105.976 211.862 106.324 211.739 106.908Z" fill="#FEFFFE"/>
<path fill-rule="evenodd" clip-rule="evenodd" d="M251.557 160.09C250.51 162.868 246.998 166.565 243.605 168.98C243.598 168.941 243.591 168.906 243.581 168.871C242.663 165.029 241.728 161.56 240.786 158.616C239.246 153.803 237.203 152.132 234.63 151.821C233.589 153.401 232.615 154.249 231.107 155.247C231.093 153.886 231.3 152.626 231.757 151.533C232.45 149.857 233.733 148.575 235.734 147.945C236.043 147.849 236.359 147.779 236.686 147.744C241.443 147.166 248 152.653 251.557 160.09Z" fill="#F7931E"/>
<path fill-rule="evenodd" clip-rule="evenodd" d="M216.471 156.857C213.666 155.886 211.107 154.171 209.208 151.721C209.138 151.791 211.177 153.615 211.11 153.694C209.609 155.409 206.002 161.109 204.118 170.533C204.114 170.564 204.107 170.594 204.1 170.629C200.591 168.184 196.939 164.377 195.859 161.516C198.718 155.536 203.502 150.806 207.753 149.432C209.201 148.964 210.586 148.881 211.813 149.271C213.118 149.686 214.116 150.373 214.851 151.261C216.036 152.696 216.528 154.656 216.471 156.857Z" fill="#F7931E"/>
<path fill-rule="evenodd" clip-rule="evenodd" d="M234.981 151.384C233.94 152.963 232.615 154.25 231.107 155.247C226.92 158.016 221.326 158.546 216.471 156.857C213.666 155.886 211.106 154.171 209.208 151.721C210.706 150.233 212.657 150.548 214.851 151.261C217.326 152.062 220.11 153.361 222.891 153.125C226.255 152.841 229.205 151.94 231.757 151.533C232.914 151.349 233.986 151.261 234.981 151.384Z" fill="#F7931E"/>
<path fill-rule="evenodd" clip-rule="evenodd" d="M255.741 239.746L255.738 239.75C245.447 249.777 202.198 250.827 193.761 240.564C193.799 239.754 193.873 238.691 193.986 237.401C209.23 246.426 241.06 245.122 255.221 235.567L255.291 236.123C255.453 237.409 255.608 238.621 255.741 239.746Z" fill="#F7931E"/>
<path fill-rule="evenodd" clip-rule="evenodd" d="M255.221 235.568C241.061 245.123 209.23 246.426 193.986 237.401C194.999 225.719 198.929 195.816 202.898 174.593C203.183 173.079 203.464 171.605 203.749 170.192C203.756 170.157 203.763 170.126 203.767 170.096C205.651 160.672 207.5 153.659 209.002 151.944C209.068 151.865 209.139 151.791 209.209 151.721C211.107 154.171 213.667 155.886 216.472 156.857C221.327 158.546 226.921 158.016 231.108 155.247C232.616 154.249 233.941 152.963 234.982 151.384C237.555 151.694 239.598 153.366 241.138 158.178C242.08 161.123 243.015 164.592 243.933 168.433C243.943 168.468 243.95 168.503 243.957 168.543C244.291 169.925 244.618 171.36 244.945 172.83C249.319 192.596 253.193 219.573 255.221 235.568Z" fill="#F7931E"/>
<path d="M248.488 102.594C248.488 103.365 248.101 103.99 247.623 103.99C247.145 103.99 246.757 103.365 246.757 102.594C246.757 101.824 247.623 100.072 247.623 100.072C247.623 100.072 248.488 101.824 248.488 102.594Z" fill="white"/>
<path d="M247.181 94.0299C247.181 95.3599 246.512 96.4384 245.687 96.4384C244.861 96.4384 244.192 95.3599 244.192 94.0299C244.192 92.6995 245.687 89.6772 245.687 89.6772C245.687 89.6772 247.181 92.6995 247.181 94.0299Z" fill="white"/>
<path opacity="0.3" d="M232.104 121.186C231.864 120.34 231.109 119.736 229.877 119.366C229.047 119.125 228.079 119.012 227.049 119.018C226.018 119.012 225.05 119.125 224.222 119.366C222.983 119.736 222.234 120.34 221.996 121.186C221.972 121.273 219.736 130.478 221.772 132.137C222.562 132.788 224.758 133.148 227.049 133.151C229.341 133.148 231.535 132.788 232.327 132.137C234.361 130.477 232.127 121.272 232.104 121.186Z" fill="#FFA483"/>
<path d="M222.646 121.765L231.532 122.118C231.532 122.118 231.908 118.7 227.095 118.624C222.719 118.555 222.646 121.765 222.646 121.765Z" fill="#FD6867"/>
<path d="M231.358 121.423C231.046 120.312 229.059 119.865 227.049 119.869C225.036 119.865 223.051 120.313 222.741 121.423C222.158 123.484 220.994 130.448 222.238 131.48C222.838 131.967 224.853 132.327 227.049 132.334C229.24 132.327 231.258 131.967 231.859 131.48C233.11 130.448 231.937 123.484 231.358 121.423Z" fill="#921F33"/>
<path d="M221.805 126.848C221.596 128.97 221.615 130.963 222.238 131.479C222.838 131.967 224.853 132.326 227.049 132.334C229.24 132.326 231.258 131.967 231.86 131.479C232.53 130.933 232.499 128.696 232.248 126.418C230.15 124.308 224.025 123.559 221.805 126.848Z" fill="#751A2C"/>
<path d="M227.048 127.627C224.709 127.627 221.707 128.154 221.918 130.91C221.996 131.162 222.106 131.359 222.238 131.479C222.837 131.967 224.853 132.326 227.048 132.334C229.24 132.326 231.264 131.981 231.859 131.479C231.998 131.362 232.104 131.162 232.184 130.91C232.39 128.154 229.39 127.627 227.048 127.627Z" fill="#CD3735"/>
<path d="M231.358 121.423C231.046 120.312 229.059 119.865 227.049 119.869C225.036 119.865 223.051 120.313 222.741 121.423C222.643 121.761 222.537 122.251 222.419 122.814C223.928 122.895 225.466 122.984 227.049 123.002C228.636 122.984 230.166 122.895 231.676 122.814C231.561 122.251 231.452 121.761 231.358 121.423Z" fill="white"/>
<path d="M231.599 122.814C231.561 122.251 231.453 121.761 231.358 121.423C231.046 120.312 229.059 119.865 227.049 119.869C225.036 119.865 223.051 120.313 222.741 121.423C222.643 121.761 222.537 122.251 222.419 122.814C222.494 122.814 222.562 122.82 222.633 122.823C224.422 119.857 229.71 119.949 231.599 122.814Z" fill="#DBEDE8"/>
<path d="M227.049 130.812C225.278 130.812 223.543 130.413 221.707 129.761C221.766 130.59 221.932 131.217 222.238 131.48C222.838 131.967 224.853 132.327 227.049 132.334C229.24 132.327 231.258 131.967 231.86 131.48C232.168 131.216 232.328 130.59 232.391 129.761C230.552 130.413 228.817 130.812 227.049 130.812Z" fill="white"/>
<path fill-rule="evenodd" clip-rule="evenodd" d="M253.642 164.736C250.963 168.52 248.041 170.865 244.944 172.83C244.617 171.36 244.29 169.925 243.956 168.542C243.949 168.503 243.942 168.468 243.932 168.433C246.878 166.171 249.616 163.148 251.557 160.09C252.345 161.512 253.28 163.546 253.642 164.736Z" fill="#DB4F30"/>
<path fill-rule="evenodd" clip-rule="evenodd" d="M203.766 170.096C203.762 170.126 203.755 170.157 203.748 170.192C203.463 171.605 203.182 173.079 202.897 174.593C199.638 172.563 196.566 170.161 193.757 166.197C194.122 164.999 195.065 162.951 195.859 161.516C197.863 164.675 200.711 167.794 203.766 170.096Z" fill="#DB4F30"/>
<path fill-rule="evenodd" clip-rule="evenodd" d="M255.818 240.415C244.435 249.379 204.578 250.897 193.599 241.662L193.985 237.401C209.229 246.426 241.06 245.122 255.221 235.567L255.291 236.123L255.737 239.75L255.818 240.415Z" fill="#DB4F30"/>
<path fill-rule="evenodd" clip-rule="evenodd" d="M236.75 147.542C236.729 147.612 236.711 147.678 236.687 147.744C236.272 149.095 235.695 150.307 234.981 151.384C233.941 152.963 232.615 154.249 231.107 155.247C226.92 158.016 221.327 158.545 216.472 156.857C213.666 155.885 211.107 154.17 209.208 151.72C208.663 151.02 208.175 150.255 207.753 149.432C207.697 149.332 207.644 149.231 207.595 149.126C209.437 148.12 211.915 147.065 213.842 146.847C215.361 152.954 228.903 154.345 231.452 146.295C232.981 146.501 234.872 146.816 236.75 147.542Z" fill="#DB4F30"/>
</svg>
