<svg width="220" height="240" viewBox="0 0 220 240" fill="none" xmlns="http://www.w3.org/2000/svg">
<path fill-rule="evenodd" clip-rule="evenodd" d="M106.782 53.7428C106.782 53.7428 104.778 55.113 104 56.7996C103.221 58.4854 100.682 69.7585 100.682 69.7585L106.319 71.8623L106.782 53.7428Z" fill="#C4A10C"/>
<path fill-rule="evenodd" clip-rule="evenodd" d="M118.098 39.1983C118.098 39.1983 122.603 48.5495 118.618 56.2211C114.634 63.8927 105.11 55.6593 109.135 40.1211C113.161 24.5833 118.098 39.1983 118.098 39.1983Z" fill="#202023"/>
<path fill-rule="evenodd" clip-rule="evenodd" d="M118.459 36.6787C118.459 36.6787 119.326 31.2467 119.21 28.5023C119.095 25.7587 118.055 23.0987 117.29 23.4067C117.29 23.4067 116.568 20.7472 115.659 19.7394C114.749 18.731 112.742 17.5271 109.956 20.7189C107.17 23.9109 107.205 29.2305 107.18 31.0783C107.155 32.9267 118.459 36.6787 118.459 36.6787Z" fill="#202023"/>
<path fill-rule="evenodd" clip-rule="evenodd" d="M92.5426 217.698C92.5426 217.698 93.3634 217.26 93.6323 215.133C93.9012 213.005 94.0797 206.622 94.176 204.531C94.2723 202.441 95.0995 197.812 95.0995 197.812L97.8138 200.164L98.1795 201.358L97.4525 204.6C97.4525 204.6 97.891 205.95 97.4677 207.854C97.0438 209.757 95.119 219.688 94.4263 220.136C93.7335 220.584 92.0586 219.65 92.0586 219.65C92.0586 219.65 92.1065 218.4 92.1598 218.185C92.2126 217.971 92.3353 217.742 92.5426 217.698Z" fill="#E6AD83"/>
<path fill-rule="evenodd" clip-rule="evenodd" d="M117.57 199.454C117.566 202.395 117.587 204.884 117.669 206.768C117.709 207.68 118.452 215.275 118.452 215.275L118.852 218.359L118.792 219.628L117.008 220.449L115.324 218.097C115.324 218.097 114.944 209.997 115.034 208.466C115.124 206.935 115.248 206.054 115.248 206.054L115.39 205.674C115.227 203.604 115.061 201.529 114.893 199.453H117.57V199.454Z" fill="#E6AD83"/>
<path fill-rule="evenodd" clip-rule="evenodd" d="M118.452 215.275C118.452 215.275 118.82 217.233 118.991 217.683C119.161 218.135 119.862 219.64 119.97 220.125C120.077 220.61 120.283 222.099 119.448 222.099C118.613 222.099 117.258 222.099 116.458 222.099C115.659 222.099 114.986 221.614 114.977 220.175C114.968 218.737 114.914 213.636 114.806 212.532C114.698 211.428 114.42 210.174 114.555 209.087C114.689 208 115.147 206.093 115.219 205.926C115.251 205.849 115.315 205.755 115.39 205.675L115.303 206.64C115.278 206.835 115.258 207.064 115.245 207.331C115.174 208.919 115.478 216.094 115.478 216.697C115.478 217.298 115.802 217.683 116.394 218.001C116.987 218.319 118.208 218.604 118.666 217.751C118.666 217.751 118.738 217.62 118.699 217.311C118.662 217.001 118.452 215.275 118.452 215.275Z" fill="#202023"/>
<path fill-rule="evenodd" clip-rule="evenodd" d="M103.53 101.27C101.559 127.225 95.485 179.891 93.482 198.258C93.482 198.258 93.3667 199.229 93.7514 199.826C94.1367 200.423 96.2536 202.663 97.6014 202.737C97.6014 202.737 98.3328 203.036 98.6408 202.066C99.6352 198.932 108.463 132.249 111.731 117.025C111.731 117.025 112.793 95.642 110.806 89.8477C108.819 84.0534 103.856 92.1421 103.856 92.1421L103.53 101.27Z" fill="#C4A10C"/>
<path fill-rule="evenodd" clip-rule="evenodd" d="M107.129 91.8989C107.129 91.8989 109.978 93.1681 110.362 102.651C112.03 143.722 114.079 159.873 114.309 203.11C114.963 204.643 117.579 204.455 118.332 203.11C119.271 183.368 123.039 116.727 121.085 101.122C119.776 90.6687 118.005 87.6824 107.129 91.8989Z" fill="#C4A10C"/>
<path fill-rule="evenodd" clip-rule="evenodd" d="M106.782 53.7428C106.782 53.7428 105.494 60.1123 105.239 61.0672C104.983 62.0221 103.962 66.2801 103.749 68.4095C103.536 70.5388 103.962 73.5484 104.388 75.164L104.395 96.323C108.559 98.5379 113.723 97.7665 117.886 96.323L117.205 87.478L120.656 55.1232L115.583 51.9259L112.199 53.6148L110.827 51.8341L106.782 53.7428Z" fill="#707070"/>
<path fill-rule="evenodd" clip-rule="evenodd" d="M115.582 44.5514H110.825V54.7801H112.715L115.582 52.6176V44.5514Z" fill="#D77F68"/>
<path fill-rule="evenodd" clip-rule="evenodd" d="M115.575 50.2941L112.148 54.78L113.669 58.6838L117.452 52.7776L115.575 50.2941Z" fill="#C4A10C"/>
<path fill-rule="evenodd" clip-rule="evenodd" d="M112.148 54.78L110.827 50.6666L109.409 52.8769L110.329 57.7693L112.148 54.78Z" fill="#C4A10C"/>
<path fill-rule="evenodd" clip-rule="evenodd" d="M107.998 35.0782C107.962 35.0881 107.926 35.1001 107.891 35.1155L107.889 35.116H107.89C107.233 35.3915 106.738 36.5164 106.73 37.8742C106.72 39.4519 107.372 40.7468 108.186 40.7657C108.999 40.7841 109.666 39.5208 109.676 37.943C109.682 37.0259 109.464 36.2044 109.121 35.6737C109.162 36.5168 109.096 37.5619 108.541 37.6742L108.552 36.0264C108.556 35.3593 108.234 35.0571 107.998 35.0782Z" fill="#D77F68"/>
<path fill-rule="evenodd" clip-rule="evenodd" d="M117.708 35.0752C117.744 35.0844 117.78 35.0957 117.816 35.1094L117.817 35.1099C118.475 35.3677 118.978 36.4792 118.996 37.8365C119.017 39.4139 118.375 40.7263 117.561 40.767C116.748 40.8077 116.071 39.5623 116.05 37.9848C116.038 37.0676 116.25 36.2405 116.589 35.701C116.554 36.5448 116.627 37.5881 117.183 37.6852L117.161 36.0374C117.152 35.371 117.472 35.0601 117.708 35.0752Z" fill="#D77F68"/>
<path fill-rule="evenodd" clip-rule="evenodd" d="M112.863 49.3873C115.613 49.3873 117.908 42.8058 117.908 37.6091V30.7057C117.908 25.3251 115.638 20.9233 112.864 20.9233H112.863C110.09 20.9233 107.819 25.3254 107.819 30.7057V37.4626C107.819 43.158 109.82 49.3873 112.863 49.3873Z" fill="#E6AD83"/>
<path fill-rule="evenodd" clip-rule="evenodd" d="M112.726 38.2674C112.632 38.7625 112.468 39.6585 112.482 39.8091C112.501 40.0192 113.06 40.2138 113.207 39.9372C113.305 39.7529 113.184 38.9445 113.078 38.4005C112.933 37.6587 112.853 37.6007 112.726 38.2674Z" fill="#EBBF9E"/>
<path fill-rule="evenodd" clip-rule="evenodd" d="M107.819 35.5656C107.819 35.5656 108.142 45.0558 110.984 48.5236C110.984 48.5236 108.002 45.8863 107.819 37.6091C107.819 37.4627 107.819 35.4493 107.819 35.4493V35.5656Z" fill="#D39D79"/>
<path fill-rule="evenodd" clip-rule="evenodd" d="M120.656 55.1235C120.656 55.1235 117.175 52.1186 117.04 52.137C116.905 52.1555 116.612 52.5744 116.612 52.5744L111.152 59.5137L111.092 61.7333L110.017 70.2693C110.017 70.2693 109.401 79.2625 109.671 82.6218C109.941 85.9811 109.869 90.9306 109.869 90.9306C110.319 97.9132 102.447 188.663 103.178 196.565C103.178 196.565 106.138 196.454 106.818 196.367C107.84 196.234 122.951 194.561 122.951 194.561C122.951 194.561 124.95 194 124.712 191.243C124.656 190.588 123.308 142.485 122.115 111.772C121.64 99.5576 119.953 92.3102 119.532 89.588C119.277 87.9416 119.051 86.42 118.868 85.1109C118.495 82.4277 118.87 79.9502 118.87 79.9502L120.667 69.8936L120.656 55.1235Z" fill="#DBC661"/>
<path fill-rule="evenodd" clip-rule="evenodd" d="M109.933 52.2556C109.933 52.2556 110.668 55.8936 111 57.299C111.139 57.8914 111.683 59.6605 111.532 60.3329C110.528 64.7863 110.616 69.7262 110.479 70.5257C110.248 71.8697 109.877 76.5017 110.146 79.4887C110.146 79.4887 110.227 84.574 110.237 85.6752C110.246 86.7765 110.146 92.5262 110.146 92.5262L106.572 196.062C106.572 196.062 104.119 196.485 103.177 196.564C102.642 196.609 92.7289 195.02 92.7289 195.02C92.7289 195.02 92.4209 195.169 92.4209 194.423C92.4209 193.677 103.942 85.739 103.942 85.739L104.191 76.0697C104.191 76.0697 103.518 71.0675 103.248 69.1639C102.979 67.2596 103.48 64.983 104.288 62.3697C105.096 59.7563 106.783 53.7427 106.783 53.7427L109.693 52.0499C109.693 52.0499 109.827 51.9567 109.933 52.2556Z" fill="#DBC661"/>
<path fill-rule="evenodd" clip-rule="evenodd" d="M98.7838 207.818C98.7838 207.818 99.2062 208.07 99.0752 209.658C98.9442 211.247 98.2817 212.283 98.2817 215.427C98.2817 218.571 98.2817 221.423 98.2817 221.423C98.2817 221.423 98.3008 222.099 98.0695 222.099C97.8388 222.099 98.0114 222.099 97.919 222.099C97.8266 222.099 97.7415 221.94 97.7415 221.416C97.7415 220.893 97.7415 215.741 97.7415 214.738C97.7415 213.734 97.5244 211.773 97.3108 211.416C97.0966 211.059 98.7838 207.818 98.7838 207.818Z" fill="#202023"/>
<path fill-rule="evenodd" clip-rule="evenodd" d="M97.4531 204.601C97.4531 204.601 98.6392 205.792 99.2077 207.971C99.2077 207.971 99.285 208.448 99.044 208.771C98.8034 209.094 97.2209 211.681 96.9129 213.349C96.6039 215.018 96.1018 218.32 95.8901 219.613C95.678 220.908 95.215 222.099 94.424 222.099C93.6334 222.099 91.0682 222.099 90.2777 222.099C89.4872 222.099 89.757 220.805 90.3256 220.141C90.8947 219.477 92.1477 217.826 92.3115 217.707C92.4757 217.588 92.5432 217.698 92.5432 217.698C92.5432 217.698 92.3643 217.851 92.4224 218.124C92.4801 218.396 92.9035 218.251 93.323 218.251C93.7424 218.251 94.3638 217.834 94.6821 216.558C95.0004 215.28 96.2245 208.591 96.3404 207.978C96.4563 207.365 97.2566 206.055 97.4531 204.601Z" fill="#202023"/>
<path fill-rule="evenodd" clip-rule="evenodd" d="M120.654 55.1233C120.654 55.1233 121.658 55.9686 122.139 56.6784C122.532 57.2586 127.276 69.7158 128.844 74.8697C130.23 79.4304 128.986 82.3481 127.163 86.7682C125.777 90.1275 122.697 97.1465 122.697 97.1465C122.697 97.1465 122.504 97.632 122.254 97.4084C122.004 97.1842 120.214 89.904 120.214 89.904C120.214 89.904 120.04 89.5309 120.348 88.7478C120.656 87.9634 123.668 79.0786 123.668 79.0786L120.257 68.9629C120.257 68.9629 118.443 62.168 120.654 55.1233Z" fill="#C4A10C"/>
<path fill-rule="evenodd" clip-rule="evenodd" d="M117.906 37.6091L117.357 33.2974C117.357 33.2974 115.588 30.7806 116.217 27.278C116.845 23.7753 116.969 24.122 116.969 24.122C116.969 24.122 119.326 26.1809 118.276 35.4651L117.906 37.6091Z" fill="#202023"/>
<path fill-rule="evenodd" clip-rule="evenodd" d="M107.818 37.6091L108.368 33.2974C108.368 33.2974 110.137 30.7806 109.508 27.278C108.88 23.7753 108.757 24.122 108.757 24.122C108.757 24.122 106.4 26.1809 107.449 35.4651L107.818 37.6091Z" fill="#202023"/>
<path d="M112.021 33.4681C112.021 33.4681 111.78 33.9533 110.827 33.217C109.778 32.4062 108.825 32.9451 108.732 33.148C108.732 33.1477 110.22 30.942 112.021 33.4681Z" fill="#030000"/>
<path d="M113.704 33.4681C113.704 33.4681 113.946 33.9533 114.898 33.217C115.947 32.4062 116.901 32.9451 116.993 33.148C116.993 33.1477 115.506 30.942 113.704 33.4681Z" fill="#030000"/>
<path fill-rule="evenodd" clip-rule="evenodd" d="M116.833 32.3204L115.239 28.8108C115.239 28.8108 115.044 28.4748 115.081 27.9846C115.117 27.4946 114.979 26.9066 114.554 27.6626C114.128 28.4182 111.097 33.1073 108.411 30.861L108.757 24.122C108.757 24.122 110.547 19.4875 114.041 20.3275C117.535 21.1675 117.619 27.4571 117.619 27.4571L116.833 32.3204Z" fill="#202023"/>
<path fill-rule="evenodd" clip-rule="evenodd" d="M117.409 33.6706C117.34 33.6459 117.277 33.6004 117.203 33.5397C116.611 32.6954 115.195 32.281 112.992 32.3081C112.945 32.3083 112.906 32.3088 112.876 32.3088C112.847 32.3088 112.808 32.3083 112.761 32.3081C110.558 32.281 109.141 32.6954 108.549 33.5397C108.474 33.6001 108.4 33.6459 108.332 33.6706C108.124 33.7441 107.819 33.9017 107.819 33.9017V34.7986C107.819 34.7986 108.093 34.7668 108.162 35.0834C108.23 35.3997 108.291 36.699 108.485 37.467C108.747 38.5008 109.176 39.3401 109.93 39.5132C110.76 39.7032 111.37 39.3323 111.841 38.5206C112.414 37.535 112.454 36.1115 112.381 34.8935C112.381 34.8935 112.566 34.7246 112.877 34.7246C113.188 34.7246 113.373 34.8935 113.373 34.8935C113.3 36.1115 113.339 37.535 113.912 38.5206C114.384 39.3323 114.992 39.7032 115.822 39.5132C116.575 39.3401 117.003 38.5008 117.265 37.467C117.46 36.699 117.511 35.3997 117.579 35.0834C117.648 34.7668 117.908 34.7986 117.908 34.7986V33.9017C117.908 33.9015 117.616 33.7439 117.409 33.6706ZM111.909 37.6928C111.663 38.4314 111.09 39.1739 110.25 39.1381C109.411 39.103 109.008 38.4477 108.754 37.565C108.484 36.6339 108.377 35.1937 108.568 34.4495C108.759 33.7055 109.392 33.163 110.302 33.1736C111.213 33.1843 111.741 33.9597 111.926 34.4921C112.303 35.5768 112.173 36.9004 111.909 37.6928ZM112.877 34.2285C112.636 34.2285 112.35 34.3079 112.287 34.3605C112.287 34.3605 112.063 33.4008 111.211 33.0101C110.794 32.819 110.42 32.7563 110.091 32.7759C110.782 32.5779 111.674 32.4846 112.76 32.4977C112.808 32.4984 112.847 32.4988 112.877 32.4988C112.908 32.4988 112.946 32.4984 112.994 32.4977C114.081 32.4846 114.972 32.5781 115.665 32.7759C115.335 32.7566 114.961 32.819 114.543 33.0101C113.691 33.4008 113.467 34.3605 113.467 34.3605C113.404 34.3079 113.118 34.2285 112.877 34.2285ZM117.001 37.5652C116.745 38.4477 116.344 39.103 115.504 39.1383C114.665 39.1739 114.091 38.4317 113.845 37.693C113.581 36.9006 113.451 35.577 113.828 34.4923C114.013 33.9599 114.541 33.1845 115.452 33.1739C116.363 33.1632 116.995 33.7057 117.186 34.4497C117.378 35.1941 117.27 36.6341 117.001 37.5652Z" fill="#202023"/>
<path fill-rule="evenodd" clip-rule="evenodd" d="M97.3189 68.6702C97.3189 68.6702 102.432 83.9952 102.706 85.1266C102.981 86.2587 103.53 86.8354 103.53 86.8354C103.53 86.8354 113.418 89.9232 114.674 90.0555C115.931 90.1872 115.452 88.5003 115.452 88.5003C115.452 88.5003 110.452 71.7915 110.017 70.2693C109.583 68.747 108.512 68.8018 108.512 68.8018L97.7657 66.81C97.7657 66.8098 96.6912 66.7858 97.3189 68.6702Z" fill="#DBDADB"/>
<path fill-rule="evenodd" clip-rule="evenodd" d="M97.3181 68.6701C97.3181 68.6701 102.431 83.9952 102.706 85.1266C102.98 86.2587 103.529 86.8354 103.529 86.8354C103.529 86.8354 113.417 89.9238 114.673 90.0555C114.876 90.0768 115.032 90.0507 115.154 89.9917C115.128 89.786 115.085 89.6365 115.085 89.6365C115.085 89.6365 110.085 72.9284 109.65 71.4054C109.216 69.8832 108.145 69.938 108.145 69.938L97.3988 67.9464C97.3988 67.9464 97.2834 67.9438 97.1504 68.0067C97.1797 68.1958 97.2335 68.4158 97.3181 68.6701Z" fill="#B4B3B3"/>
<path fill-rule="evenodd" clip-rule="evenodd" d="M111.288 59.464C111.085 59.464 110.903 59.7822 110.879 60.1742C110.856 60.5662 111.001 60.8844 111.203 60.8844C111.406 60.8844 111.588 60.5664 111.612 60.1742C111.635 59.782 111.49 59.464 111.288 59.464Z" fill="#DBDADB"/>
<path fill-rule="evenodd" clip-rule="evenodd" d="M109.819 66.9337C109.617 66.9337 109.434 67.252 109.411 67.644C109.387 68.0357 109.532 68.354 109.734 68.354C109.937 68.354 110.119 68.0359 110.143 67.644C110.166 67.2517 110.021 66.9337 109.819 66.9337Z" fill="#DBDADB"/>
<path fill-rule="evenodd" clip-rule="evenodd" d="M119.417 87.2633C118.605 85.1651 118.455 84.5863 118.455 84.5863L116.875 83.4323C116.318 84.4238 117.404 85.1191 117.713 85.4531C117.88 85.6361 117.666 85.7328 118.04 87.0179C118.04 87.0179 117.439 86.0928 116.801 86.5221C116.163 86.9513 115.712 87.3059 115.712 87.3059C115.699 87.8928 115.566 88.1685 115.829 88.3454C116.067 88.5052 116.914 87.8037 117.088 88.0032L117.892 88.9289C117.164 88.8761 117.181 88.8199 116.623 89.2211C116.446 89.3486 115.93 89.6777 115.866 89.8553C115.694 90.3312 115.938 90.8983 116.257 90.9792C116.6 91.0663 117.18 90.5795 117.483 90.5843C117.709 90.5877 117.869 90.574 117.59 90.8057C117.396 90.9676 116.732 91.2919 116.572 91.5744C116.334 91.9989 116.631 92.8231 116.962 92.6771C117.293 92.5317 118.175 91.8281 118.422 92.1751C118.67 92.5228 119.304 93.9203 119.958 93.5061C120.722 93.022 121.041 93.3792 121.092 93.0617C121.196 92.411 120.619 90.2208 120.318 89.0757C120.175 88.5333 119.954 88.6512 119.417 87.2633Z" fill="#E6AD91"/>
<path fill-rule="evenodd" clip-rule="evenodd" d="M108.109 81.07C108.183 79.7918 108.695 78.9751 109.244 77.1998C109.794 75.4245 109.628 75.2476 109.628 75.2476C109.628 75.2476 110.361 74.7497 110.379 76.632C110.397 78.5136 110.526 78.6556 110.526 78.6556L112.155 77.448L111.825 76.2412C111.825 76.2412 113.015 75.9929 113.217 77.2355C113.418 78.478 113.272 78.7262 113.272 78.7262C113.272 78.7262 113.583 79.0457 113.638 79.8631C113.693 80.6791 113.546 81.2832 113.546 81.2832C113.546 81.2832 113.858 81.7091 113.949 82.8096C114.041 83.9102 112.65 85.366 111.423 85.8988C110.196 86.4309 109.025 85.8988 109.025 85.8988L108.109 81.07Z" fill="#E6AD91"/>
<path fill-rule="evenodd" clip-rule="evenodd" d="M108.241 80.4192C108.241 80.4192 109.134 84.8571 109.454 85.7444C109.454 85.7444 109.465 86.1442 109.419 86.3211C109.245 86.9986 98.6591 95.9156 98.9808 85.6073C99.1035 81.6974 99.7264 75.9209 99.7264 75.9209L101.743 82.0594L107.612 80.4411C107.612 80.4411 108.126 80.2416 108.241 80.4192Z" fill="#C4A10C"/>
<path d="M110.906 36.5513C110.906 36.8371 110.787 37.069 110.638 37.069C110.49 37.069 110.371 36.8371 110.371 36.5513C110.371 36.2646 110.49 36.0326 110.638 36.0326C110.787 36.0324 110.906 36.2646 110.906 36.5513Z" fill="#040000"/>
<path d="M110.528 36.1745C110.528 36.3183 110.467 36.4374 110.392 36.4374C110.317 36.4374 110.257 36.3183 110.257 36.1745C110.257 36.0298 110.317 35.9116 110.392 35.9116C110.467 35.9116 110.528 36.0298 110.528 36.1745Z" fill="#F0F0ED"/>
<path d="M114.819 36.5513C114.819 36.8371 114.94 37.069 115.087 37.069C115.235 37.069 115.355 36.8371 115.355 36.5513C115.355 36.2646 115.235 36.0326 115.087 36.0326C114.94 36.0324 114.819 36.2646 114.819 36.5513Z" fill="#040000"/>
<path d="M115.199 36.1745C115.199 36.3183 115.259 36.4374 115.334 36.4374C115.409 36.4374 115.47 36.3183 115.47 36.1745C115.47 36.0298 115.409 35.9116 115.334 35.9116C115.258 35.9116 115.199 36.0298 115.199 36.1745Z" fill="#F0F0ED"/>
<path fill-rule="evenodd" clip-rule="evenodd" d="M108.584 29.6242C110.965 30.7053 112.772 29.1364 114.203 26.4415C115.074 24.802 115.457 21.6368 115.457 21.6368C115.457 21.6368 113.819 26.5582 111.375 28.6527C110.422 29.4689 108.584 29.6242 108.584 29.6242Z" fill="#444447"/>
<path d="M92.7656 190.71C92.7656 190.71 101.964 191.895 105.637 191.633C111.015 191.249 115.764 190.795 119.188 190.205C121.089 189.878 124.654 187.899 124.634 187.68C124.615 187.461 124.403 181.022 124.403 181.022C124.403 181.022 117.856 183.648 114.594 184.124C110.42 184.732 101.227 184.928 98.5404 184.745C96.2881 184.592 93.2178 183.902 93.497 183.985L92.7656 190.71Z" fill="#FF7F00"/>
<path d="M116.709 35.7524C116.709 35.7524 115.856 34.5884 115.165 35.1009C114.475 35.6125 114.163 36.5956 114.056 37.2529C114.056 37.2529 114.143 37.0589 114.508 37.2289C114.874 37.3987 116.023 37.8223 116.709 35.7524Z" fill="white"/>
<path d="M114.821 35.4112C114.821 35.4112 114.477 36.6981 115.143 37.3572C115.238 37.3501 115.702 37.349 115.848 37.0212C115.995 36.6923 116.243 35.7396 115.691 35.0179C115.329 34.9952 115.109 35.0288 114.821 35.4112Z" fill="#512C0E"/>
<path d="M115.728 36.1763C115.728 36.5262 115.58 36.8078 115.397 36.8078C115.214 36.8078 115.066 36.5262 115.066 36.1763C115.066 35.8283 115.214 35.5449 115.397 35.5449C115.58 35.5449 115.728 35.8285 115.728 36.1763Z" fill="#331B0E"/>
<path d="M115.148 36.0212C115.148 36.1558 115.092 36.2649 115.022 36.2649C114.953 36.2649 114.896 36.1558 114.896 36.0212C114.896 35.8854 114.953 35.7765 115.022 35.7765C115.092 35.7762 115.148 35.8854 115.148 36.0212Z" fill="white"/>
<path opacity="0.5" d="M114.896 36.6472C114.896 36.6472 115.423 37.5214 115.898 36.4541C115.746 36.9536 115.428 37.6712 114.896 36.6472Z" fill="white"/>
<path opacity="0.7" d="M114.056 37.2529C114.234 36.5354 114.997 34.3152 116.527 36.1765C116.592 35.9658 116.65 35.7765 116.65 35.7765C116.65 35.7765 114.74 33.2107 114.056 37.2529Z" fill="#C2C6CC"/>
<path d="M114.056 37.253C114.129 36.7517 114.261 36.2783 114.445 35.8926C114.631 35.5079 114.877 35.2319 115.144 35.1167C115.411 34.9972 115.69 35.0403 115.955 35.151C116.22 35.2666 116.474 35.4595 116.716 35.6896L116.74 35.7123L116.731 35.757C116.629 36.2214 116.452 36.5966 116.242 36.8708C116.031 37.1465 115.785 37.3068 115.536 37.3734C115.286 37.439 115.033 37.4223 114.786 37.3519C114.66 37.3186 114.542 37.2387 114.42 37.1975C114.3 37.1554 114.169 37.1395 114.056 37.253ZM114.056 37.253C114.166 37.1314 114.3 37.1379 114.422 37.1721C114.546 37.2054 114.666 37.2772 114.789 37.301C115.036 37.3572 115.285 37.3664 115.53 37.2914C115.772 37.2136 116.01 37.0563 116.213 36.7874C116.415 36.5239 116.586 36.1492 116.678 35.7203L116.692 35.7876C116.451 35.5628 116.202 35.3656 115.943 35.2503C115.684 35.1368 115.414 35.0977 115.154 35.2021C114.894 35.3037 114.652 35.561 114.466 35.9312C114.279 36.2972 114.138 36.7572 114.056 37.253Z" fill="#AF6E58"/>
<path d="M114.056 37.253C114.056 37.2539 114.294 35.7085 115.061 35.2845C115.446 35.0723 115.963 35.1894 116.65 35.8274C116.71 35.8959 116.9 35.8661 117.047 35.6808C116.848 35.6474 115.802 34.2945 114.957 34.9706C114.591 35.2638 114.258 35.891 114.056 37.253Z" fill="#331B0E"/>
<path d="M109.153 35.9745C109.153 35.9745 110.007 34.8105 110.698 35.323C111.389 35.8345 111.7 36.8176 111.808 37.475C111.808 37.475 111.72 37.2809 111.355 37.451C110.989 37.6208 109.84 38.0443 109.153 35.9745Z" fill="white"/>
<path d="M111.042 35.6333C111.042 35.6333 111.386 36.9201 110.72 37.5792C110.625 37.5722 110.161 37.571 110.015 37.2432C109.868 36.9144 109.619 35.9617 110.173 35.2399C110.534 35.2172 110.754 35.2508 111.042 35.6333Z" fill="#512C0E"/>
<path d="M110.134 36.3984C110.134 36.7484 110.282 37.03 110.465 37.03C110.648 37.03 110.796 36.7484 110.796 36.3984C110.796 36.0504 110.648 35.7671 110.465 35.7671C110.282 35.7671 110.134 36.0506 110.134 36.3984Z" fill="#331B0E"/>
<path d="M110.714 36.2433C110.714 36.3779 110.77 36.487 110.84 36.487C110.909 36.487 110.966 36.3779 110.966 36.2433C110.966 36.1074 110.909 35.9985 110.84 35.9985C110.77 35.9983 110.714 36.1074 110.714 36.2433Z" fill="white"/>
<path opacity="0.5" d="M110.967 36.8692C110.967 36.8692 110.44 37.7435 109.965 36.6761C110.117 37.1757 110.435 37.8932 110.967 36.8692Z" fill="white"/>
<path opacity="0.7" d="M111.809 37.4751C111.63 36.7575 110.867 34.5373 109.337 36.3986C109.272 36.1879 109.214 35.9986 109.214 35.9986C109.214 35.9986 111.124 33.4329 111.809 37.4751Z" fill="#C2C6CC"/>
<path d="M111.807 37.4751C111.725 36.9793 111.585 36.5194 111.396 36.1535C111.211 35.7833 110.969 35.5261 110.709 35.4245C110.449 35.3201 110.179 35.3591 109.92 35.4727C109.66 35.5878 109.411 35.7851 109.171 36.01L109.185 35.9427C109.277 36.3718 109.448 36.7463 109.65 37.01C109.852 37.2789 110.091 37.4362 110.333 37.514C110.577 37.5889 110.827 37.5798 111.074 37.5233C111.196 37.4996 111.317 37.4276 111.441 37.3942C111.563 37.36 111.697 37.3535 111.807 37.4751ZM111.807 37.4751C111.695 37.3616 111.564 37.3775 111.443 37.4194C111.321 37.4604 111.202 37.5405 111.077 37.5738C110.83 37.6442 110.577 37.6609 110.327 37.5953C110.078 37.5287 109.832 37.3685 109.621 37.0927C109.411 36.8187 109.233 36.4433 109.132 35.9789L109.122 35.9343L109.146 35.9116C109.389 35.6814 109.643 35.4885 109.908 35.3729C110.173 35.2623 110.451 35.2191 110.719 35.3387C110.986 35.4538 111.232 35.7298 111.417 36.1145C111.602 36.5002 111.735 36.9738 111.807 37.4751Z" fill="#AF6E58"/>
<path d="M111.807 37.475C111.807 37.4759 111.569 35.9306 110.802 35.5066C110.418 35.2944 109.899 35.4115 109.212 36.0495C109.152 36.1179 108.962 36.0882 108.816 35.9028C109.015 35.8695 110.061 34.5166 110.905 35.1926C111.272 35.4859 111.605 36.113 111.807 37.475Z" fill="#331B0E"/>
<path d="M112.866 42.6503C111.985 42.5508 111.517 44.4761 111.264 45.0777C111.801 44.5777 112.304 44.717 112.679 45.193C112.701 45.185 112.728 45.1763 112.754 45.1664C112.781 45.1859 112.805 45.2024 112.829 45.2172C113.239 44.8748 113.888 44.2336 114.374 44.9056C114.126 44.4043 113.744 42.8434 112.866 42.6503Z" fill="#AC2436"/>
<path d="M111.264 45.0776C112.502 43.0492 113.612 43.4685 114.374 44.9057C114.375 44.9061 113.609 45.2992 112.824 45.3425C112.053 45.385 111.263 45.0785 111.264 45.0776Z" fill="#C82333"/>
</svg>
