<svg width="220" height="240" viewBox="0 0 220 240" fill="none" xmlns="http://www.w3.org/2000/svg">
<path d="M115.876 56.6279C115.879 56.6399 115.881 56.6519 115.884 56.6669C115.889 56.5619 115.886 56.5559 115.876 56.6279ZM131.171 92.9341C131.561 90.7562 130.741 89.7626 130.017 88.887C129.031 87.6932 128.18 86.6612 129.503 82.9466C131.158 78.3057 130.796 73.8657 128.558 71.3546C127.106 69.7288 125.66 67.0289 124.44 63.7649C124.203 63.1319 123.974 62.4749 123.756 61.7999C123.3 59.4989 122.962 57.3089 122.735 55.6919C121.968 55.2479 121.156 54.8609 120.304 54.5279C119.817 54.3359 119.316 54.1619 118.806 54.0029C120.384 56.1599 121.496 59.2139 122.015 63.6929C122.111 64.5329 122.02 66.7379 121.791 69.7021C121.083 68.7003 120.368 67.7669 119.576 66.8969C119.523 65.1359 119.265 61.4489 119.005 61.0829C118.941 61.5179 118.533 64.0679 118.34 65.6609C117.706 65.0819 117.013 64.5329 116.238 64.0139C116.403 61.4189 116.178 57.9659 115.884 56.6699C115.87 57.0989 115.745 59.0969 115.497 63.5429C113.416 62.2859 110.766 61.2089 107.139 60.2879C106.744 60.1889 106.343 60.0989 105.937 60.0179C105.752 58.8869 105.319 56.2289 105.051 55.6199C105.037 55.7399 104.35 57.9449 104.267 59.7479C101.555 59.3999 98.743 59.4749 96.2507 59.9699C96.4589 58.3079 96.8676 55.1909 97.0363 54.3179C96.7283 54.8129 95.0543 58.7129 94.6833 60.3509C93.0333 60.8279 91.5911 61.5149 90.5082 62.4059C90.7541 59.3969 91.0239 56.9819 91.2816 55.6379C91.2215 55.6589 91.1633 55.6799 91.1046 55.7009C90.3913 55.9499 89.7695 56.1929 89.2537 56.4239L88.6968 54.8129C88.5746 55.6469 88.3874 56.4209 88.1517 57.1499C87.1534 60.2489 85.3039 62.4839 84.027 64.6379C82.1139 67.8629 81.1239 71.487 81.9008 75.7199C82.2083 77.3972 82.4337 78.8817 82.066 80.0282C81.7531 80.9999 81.0037 81.7288 79.7766 82.2506C78.5612 82.767 77.7809 83.6042 77.3962 84.8042C76.851 86.4986 77.2172 88.4968 77.5404 90.2577C77.7692 91.503 77.6005 93.2728 77.3531 94.1492C76.4458 97.3802 75.6826 98.4657 75.861 100.923C75.9402 98.3786 76.8496 97.2301 77.6558 94.5448C77.9579 93.543 78.1882 91.8479 77.7623 89.5466C77.4597 87.9146 77.2617 86.5706 77.7262 85.1279C78.0576 84.0959 78.7572 83.3642 79.866 82.8932C81.2202 82.3137 82.0245 81.5066 82.396 80.3519C82.5368 79.9137 82.5882 79.4337 82.6092 78.9421C83.0594 81.4497 82.9182 83.3972 80.3246 84.7919C75.557 87.3599 79.603 93.639 78.7743 95.8408C77.3531 99.6239 76.9698 100.332 76.9405 103.509C76.9078 107.145 78.2229 109.575 79.6304 110.598C79.689 110.034 78.4443 106.434 80.0582 101.235C80.1271 104.295 81.3249 111.708 81.7839 111.987C89.1026 116.448 111.316 124.593 119.913 119.673C121.556 118.731 121.673 112.581 122.216 111C122.61 109.851 123.321 120.654 123.916 119.79C131.961 108.111 130.651 103.677 129.803 103.335C128.62 102.858 127.845 102.867 129.796 93.6328C130.743 89.1537 125.671 90.5217 128.149 83.5706C129.634 79.4042 129.366 75.5402 127.262 72.4319C126.525 71.343 125.891 69.783 125.33 68.0459C126.294 69.6781 127.29 71.0852 128.249 72.159C130.325 74.487 130.739 78.2337 129.182 82.599C127.668 86.8442 128.85 88.2781 129.801 89.4301C130.536 90.3181 131.124 91.0257 130.81 92.7386C129.605 99.2968 132.071 102.234 132.425 102.513C131.844 101.676 130.119 98.823 131.171 92.9341ZM82.131 74.5857C81.7013 71.1537 82.4508 68.2229 84.1198 65.4029C85.06 63.8189 86.4298 62.6309 87.5504 61.0289C85.8163 66.6599 82.4801 70.0888 82.131 74.5857ZM115.876 56.6279C115.879 56.6399 115.881 56.6519 115.884 56.6669C115.889 56.5619 115.886 56.5559 115.876 56.6279Z" fill="#D6B45F"/>
<path d="M124.439 63.765C124.001 52.605 117.736 42.801 108.207 40.7941C97.9669 38.637 90.5348 42.9001 88.151 57.1501C88.0757 57.5941 88.0068 58.0501 87.9413 58.5151C87.2593 63.4231 87.1507 68.0701 87.5135 72.3511C87.7799 75.4924 88.3026 78.4348 89.0398 81.1379C89.2046 81.753 89.3835 82.3564 89.5742 82.9441C90.2615 85.089 91.0902 87.0604 92.0391 88.8364C92.5393 89.7724 93.0717 90.657 93.6359 91.4791C96.3756 95.4961 99.8164 98.1244 103.57 98.9582C107.473 99.825 111.282 98.4542 114.556 95.2828C115.278 94.5902 115.974 93.8044 116.64 92.937C117.781 91.449 118.831 89.7182 119.766 87.7708C119.795 87.7139 119.823 87.6542 119.85 87.5973C120.948 85.2782 121.887 82.6588 122.623 79.7761C123.691 75.609 124.341 70.8899 124.456 65.7421C124.472 65.0791 124.465 64.4191 124.439 63.765ZM105.937 60.0181C105.751 58.8871 105.318 56.229 105.05 55.6201C105.036 55.7401 104.349 57.945 104.266 59.7481C101.554 59.4001 98.7423 59.4751 96.2499 59.9701C96.4577 58.3081 96.8669 55.1911 97.0356 54.3181C96.7276 54.813 95.0536 58.713 94.6826 60.3511C93.0326 60.8281 91.5903 61.5151 90.5074 62.4061C90.7534 59.397 91.0232 56.9821 91.2809 55.6381C91.2207 55.6591 91.1626 55.6801 91.1039 55.701C92.0665 52.0951 93.3264 48.3631 94.2665 47.6041C97.2693 45.1801 102.536 45.273 107.549 46.5481C112.162 47.7181 117.203 50.2921 119.759 53.5201C119.944 53.7541 120.127 54.0991 120.304 54.5281C119.816 54.3361 119.316 54.1621 118.805 54.0031C120.383 56.1601 121.495 59.2141 122.014 63.693C122.11 64.533 122.019 66.7381 121.79 69.7022C121.083 68.7004 120.367 67.7671 119.575 66.897C119.522 65.1361 119.264 61.449 119.004 61.0831C118.941 61.5181 118.532 64.0681 118.339 65.661C117.705 65.0821 117.013 64.533 116.237 64.0141C116.402 61.4191 116.177 57.9661 115.883 56.6701C115.87 57.0991 115.744 59.097 115.497 63.5431C113.415 62.2861 110.765 61.209 107.138 60.2881C106.743 60.189 106.343 60.0991 105.937 60.0181Z" fill="#D6B45F"/>
<path d="M122.014 63.693C121.496 59.2141 120.383 56.1601 118.806 54.0031C109.73 51.1921 97.3743 53.5471 91.2812 55.6381C91.0236 56.9821 90.7537 59.397 90.5078 62.4061C91.5907 61.5151 93.0329 60.8281 94.6829 60.3511C95.054 58.713 96.7279 54.813 97.0359 54.3181C96.8673 55.1911 96.4581 58.3081 96.2503 59.9701C98.7427 59.4751 101.554 59.4001 104.267 59.7481C104.349 57.945 105.037 55.7401 105.05 55.6201C105.319 56.229 105.751 58.8871 105.937 60.0181C106.343 60.0991 106.743 60.189 107.139 60.2881C110.765 61.209 113.416 62.2861 115.497 63.5431C115.744 59.097 115.87 57.0991 115.884 56.6701C116.177 57.9661 116.403 61.4191 116.238 64.0141C117.013 64.533 117.706 65.0821 118.34 65.661C118.532 64.068 118.941 61.5181 119.005 61.0831C119.264 61.449 119.522 65.136 119.576 66.897C120.368 67.7671 121.083 68.7004 121.791 69.7022C122.02 66.7381 122.111 64.533 122.014 63.693ZM115.884 56.6671C115.88 56.6521 115.879 56.6401 115.875 56.6281C115.886 56.5561 115.889 56.5621 115.884 56.6671Z" fill="#D6B45F"/>
<path d="M118.806 54.003C109.73 51.1919 97.3743 53.547 91.2812 55.6379C91.3536 55.2599 91.424 54.9659 91.4944 54.7679C94.6692 45.7379 100.133 46.6019 107.237 48.1769C112.032 49.2419 116.102 50.3039 118.806 54.003Z" fill="#D6B45F"/>
<path d="M122.46 70.671C122.236 70.3412 122.013 70.0168 121.791 69.7021C122.02 66.7379 122.111 64.5329 122.014 63.6929C121.496 59.2139 120.383 56.1599 118.806 54.0029C119.316 54.1619 119.816 54.3359 120.304 54.5279C122.097 58.8689 123.384 72.039 122.46 70.671Z" fill="#D6B45F"/>
<path d="M120.304 54.5281C119.816 54.3361 119.316 54.162 118.805 54.0031C116.102 50.3041 112.032 49.242 107.237 48.177C100.133 46.602 94.6695 45.738 91.4946 54.7681C91.4242 54.966 91.3538 55.2601 91.2815 55.638C91.2213 55.6591 91.1632 55.6801 91.1045 55.701C92.0671 52.0951 93.327 48.3631 94.2671 47.6041C97.2699 45.1801 102.536 45.273 107.55 46.5481C112.163 47.718 117.204 50.2921 119.76 53.5201C119.945 53.754 120.127 54.0991 120.304 54.5281Z" fill="#D6B45F"/>
<path d="M104.857 92.4404C104.81 92.4452 104.765 92.4555 104.72 92.4672C103.678 92.7703 102.87 94.5929 102.78 97.6347C102.769 98.064 102.88 98.461 103.031 98.5206C103.183 98.5878 103.314 98.2841 103.328 97.8562C103.395 95.5289 103.997 93.7419 104.79 93.5115C105.612 93.3209 106.332 94.7671 106.728 97.4907C106.788 97.9008 106.946 98.1058 107.088 97.9645C107.227 97.8205 107.292 97.3707 107.233 96.9648C106.676 93.1159 105.674 92.3595 104.857 92.4404Z" fill="#934341"/>
<path d="M92.9771 83.5275C93.9451 83.5494 94.1559 83.7469 94.3279 84.0788C94.5 84.4107 94.1705 85.2431 95.1351 85.0415C96.0992 84.8399 96.835 85.9727 97.121 86.2724C97.4084 86.57 98.6292 85.2136 99.2369 84.7151C99.9189 84.157 100.583 86.005 100.532 85.7019C99.9375 86.3581 99.4011 86.1195 98.5999 86.4514C97.5414 86.8909 96.6878 86.7778 95.7531 86.5309C95.0662 86.3499 94.2541 85.7026 93.8439 85.0388C93.3355 84.2159 92.9478 83.5261 92.9771 83.5275Z" fill="#87D2DB"/>
<path d="M116.016 83.088C115.048 83.1106 114.837 83.3081 114.666 83.64C114.494 83.9712 114.823 84.8044 113.858 84.6028C112.894 84.4012 112.158 85.534 111.872 85.8336C111.585 86.1312 110.364 84.7749 109.756 84.2764C109.075 83.7182 108.449 85.7877 108.5 85.4853C109.094 86.1408 109.592 85.9378 110.387 86.182C111.458 86.5104 112.306 86.3911 113.241 86.1436C113.928 85.9625 114.757 85.2802 115.167 84.6158C115.676 83.7943 116.046 83.088 116.016 83.088Z" fill="#87D2DB"/>
<path d="M111.94 86.937C111.94 86.937 113.075 87.2854 113.337 88.5032C113.598 89.7224 112.536 90.4938 112.174 89.4934C111.813 88.4929 112.426 88.1974 111.94 86.937Z" fill="#87D2DB"/>
<path d="M112.597 89.2634C112.182 88.756 112.401 88.2259 112.182 87.6451C112.286 88.3514 111.95 88.6895 112.217 89.4307C112.473 90.1411 113.114 89.8771 113.281 89.2051C113.083 89.4568 112.819 89.5363 112.597 89.2634Z" fill="#38BFC4"/>
<path d="M111.39 86.5941C111.39 86.5941 111.776 86.7127 111.865 87.1283C111.955 87.5438 111.593 87.8071 111.469 87.4657C111.346 87.1249 111.555 87.0241 111.39 86.5941Z" fill="#87D2DB"/>
<path d="M111.613 87.3874C111.471 87.214 111.546 87.0336 111.471 86.8354C111.507 87.0768 111.392 87.192 111.484 87.4444C111.571 87.6864 111.789 87.5966 111.846 87.3676C111.779 87.4533 111.688 87.48 111.613 87.3874Z" fill="#38BFC4"/>
<path d="M97.1118 91.0107C97.1118 91.0107 96.7251 91.1294 96.6361 91.5442C96.5467 91.9605 96.9089 92.2231 97.0326 91.8823C97.1553 91.5408 96.9466 91.44 97.1118 91.0107Z" fill="#87D2DB"/>
<path d="M96.8895 91.8041C97.0307 91.6306 96.9559 91.4496 97.0307 91.2521C96.9955 91.4928 97.1099 91.608 97.0185 91.861C96.9315 92.103 96.713 92.0132 96.6562 91.7842C96.7237 91.8692 96.8132 91.8966 96.8895 91.8041Z" fill="#38BFC4"/>
<path d="M114.258 86.5063C114.258 86.5063 115.062 86.4343 115.511 87.6823C115.961 88.9316 115.462 90.2194 115 89.2539C114.537 88.2877 114.86 87.7111 114.258 86.5063Z" fill="#87D2DB"/>
<path d="M115.216 88.8275C114.834 88.4305 114.894 87.6631 114.619 87.1084C114.85 87.8497 114.67 88.4524 115.013 89.1676C115.341 89.8513 115.655 89.1978 115.57 88.4504C115.503 88.809 115.42 89.0401 115.216 88.8275Z" fill="#38BFC4"/>
<path d="M95.4115 86.1422C95.4115 86.1422 94.6811 85.9289 94.2015 87.0665C93.7224 88.2042 94.1067 89.5495 94.5819 88.6896C95.0575 87.8291 94.795 87.2092 95.4115 86.1422Z" fill="#87D2DB"/>
<path d="M94.4075 88.2349C94.7791 87.9161 94.7654 87.157 95.0465 86.6639C94.7957 87.3476 94.9272 87.9654 94.5747 88.6031C94.2374 89.2127 93.9866 88.5188 94.1049 87.805C94.147 88.1663 94.2091 88.4063 94.4075 88.2349Z" fill="#38BFC4"/>
<path d="M97.6933 86.7511C97.6933 86.7511 96.5781 87.6034 96.4838 88.968C96.3894 90.3333 97.5906 90.6638 97.8189 89.4789C98.0468 88.2926 97.374 88.2576 97.6933 86.7511Z" fill="#87D2DB"/>
<path d="M97.3515 89.4267C97.7045 88.7246 97.4038 88.2747 97.5465 87.5842C97.5402 88.3536 97.9342 88.5545 97.7651 89.4336C97.6033 90.2729 96.908 90.2825 96.6406 89.6633C96.8792 89.8361 97.1623 89.8025 97.3515 89.4267Z" fill="#38BFC4"/>
<path d="M114.703 200.176C114.959 201.082 118.031 199.07 117.921 198.069C116.499 185.094 113.247 154.474 112.857 151.238L105.624 155.089C105.624 155.089 113.457 195.766 114.703 200.176Z" fill="#FFC19F"/>
<path d="M102.239 200.649C102.198 201.656 98.9191 201.826 98.8032 200.827C97.3038 187.878 93.6694 157.389 93.3281 154.137L100.858 152.919C100.858 152.919 102.436 195.744 102.239 200.649Z" fill="#FFC19F"/>
<path opacity="0.16" d="M128.967 204.795C128.967 207.322 119.708 209.371 108.286 209.371C96.8641 209.371 87.6045 207.322 87.6045 204.795C87.6045 202.267 96.8641 200.219 108.286 200.219C119.708 200.219 128.967 202.267 128.967 204.795Z" fill="black"/>
<path d="M113.471 199.88C113.512 200.125 118.387 198.453 118.384 198.142C118.361 195.553 118.053 189.714 118.042 188.568L112.108 190.486C112.505 193.083 113.206 198.307 113.471 199.88Z" fill="#FFC76E"/>
<path d="M120.146 196.426C120.058 195.866 119.877 195.158 119.736 194.509C119.633 194.029 116.937 194.106 116.93 195.261C116.928 195.557 116.935 195.818 116.949 196.055C116.488 196.063 115.987 196.053 115.459 196.02C114.311 195.947 113.282 195.784 112.559 195.583C112.513 197.411 112.604 200.576 112.562 202.607C112.562 202.607 124.586 206.536 126.48 203.492C127.015 202.634 123.996 198.823 120.146 196.426Z" fill="#E2511E"/>
<path d="M112.571 201.333C112.571 201.784 112.568 202.22 112.561 202.607C112.561 202.607 124.584 206.536 126.48 203.492C126.555 203.371 126.558 203.191 126.5 202.964C123.183 204.221 115.56 202.211 112.571 201.333Z" fill="#892910"/>
<path d="M120.987 197.017C121.079 197.048 121.168 196.952 121.188 196.793C121.208 196.635 121.151 196.478 121.06 196.443C120.362 196.178 119.548 196.742 119.081 197.823C119.025 197.953 119.04 198.136 119.114 198.235C119.142 198.272 119.176 198.291 119.209 198.293C119.262 198.297 119.315 198.256 119.35 198.176C119.74 197.272 120.413 196.792 120.987 197.017ZM121.912 197.759C122.003 197.789 122.088 197.663 122.099 197.502C122.109 197.34 122.043 197.194 121.95 197.176C121.214 197.025 120.487 197.507 119.955 198.49C119.891 198.608 119.894 198.793 119.962 198.905C119.992 198.956 120.032 198.983 120.071 198.985C120.118 198.989 120.165 198.957 120.2 198.894C120.827 197.734 121.541 197.685 121.912 197.759ZM122.927 197.994C122.264 197.793 121.41 198.326 120.848 199.284C120.782 199.397 120.781 199.583 120.846 199.699C120.877 199.755 120.918 199.785 120.959 199.788C121.004 199.79 121.049 199.763 121.083 199.704C121.573 198.87 122.31 198.391 122.87 198.573C122.964 198.603 123.048 198.493 123.064 198.333C123.08 198.173 123.019 198.021 122.927 197.994Z" fill="#D3DAE5"/>
<path d="M93.8553 141.551C93.8553 141.551 90.9997 159.509 89.6689 165.088C94.9098 171.863 111.909 173.181 118.899 161.364C118.355 158.491 113.701 146.99 112.872 142.425L93.8553 141.551Z" fill="#2A535E"/>
<path opacity="0.23" d="M114.911 149.408C107.336 156.503 95.0058 157.882 91.8818 153.442C92.7105 147.849 94.0158 141.786 94.0158 141.786L111.916 140.601C112.454 142.231 114.039 146.618 114.911 149.408Z" fill="black"/>
<path d="M107.815 110.035C105.39 109.378 102.06 108.994 99.3852 109.066C99.3461 111.315 100.105 116.335 103.097 116.789C106.523 117.311 107.613 113.253 107.815 110.035Z" fill="#E0956C"/>
<path d="M107.298 104.24L106.87 112.212C106.778 113.925 105.15 115.061 103.234 114.747C101.318 114.434 99.8394 112.79 99.9318 111.076L100.36 103.104L107.298 104.24Z" fill="#E0956C"/>
<path d="M102.61 199.217C102.599 199.473 97.6319 199.6 97.5977 199.296C97.3127 196.754 96.9201 190.93 96.7959 189.805L102.851 190.703C102.771 193.387 102.683 197.583 102.61 199.217Z" fill="#FFC76E"/>
<path d="M95.3092 196.544C95.4006 195.987 95.5869 195.282 95.7316 194.637C95.8397 194.159 98.5339 194.292 98.5334 195.448C98.5334 195.744 98.5246 196.005 98.5085 196.241C98.97 196.26 99.4702 196.26 99.9982 196.238C101.147 196.188 102.178 196.048 102.901 195.862C102.935 197.691 102.821 200.853 102.85 202.885C102.85 202.885 90.7997 206.56 88.9258 203.477C88.3983 202.607 91.4431 198.86 95.3092 196.544Z" fill="#E2511E"/>
<path d="M102.849 201.611C102.846 202.063 102.845 202.498 102.851 202.885C102.851 202.885 90.8011 206.56 88.9272 203.477C88.8529 203.354 88.8505 203.174 88.9101 202.949C92.2189 204.275 99.8539 202.426 102.849 201.611Z" fill="#892910"/>
<path d="M96.0937 198.311C96.1274 198.392 96.1807 198.433 96.2335 198.431C96.2667 198.429 96.3 198.411 96.3288 198.374C96.4041 198.278 96.4197 198.093 96.365 197.963C95.9054 196.873 95.0958 196.292 94.3957 196.542C94.3048 196.574 94.2461 196.731 94.2652 196.889C94.2838 197.048 94.3723 197.147 94.4642 197.117C95.0396 196.904 95.7094 197.4 96.0937 198.311ZM95.2386 199.01C95.2728 199.075 95.3202 199.107 95.3662 199.105C95.4058 199.103 95.4454 199.077 95.4767 199.027C95.5451 198.917 95.549 198.731 95.4865 198.612C94.9609 197.617 94.2373 197.12 93.5001 197.256C93.4077 197.273 93.3402 197.417 93.35 197.578C93.3593 197.739 93.4429 197.868 93.5343 197.84C93.9054 197.774 94.6187 197.838 95.2386 199.01ZM92.3781 198.39C92.3928 198.549 92.4764 198.662 92.5707 198.634C93.132 198.463 93.8653 198.957 94.3493 199.802C94.383 199.862 94.428 199.89 94.4725 199.889C94.5141 199.886 94.5556 199.858 94.5874 199.802C94.6529 199.688 94.6529 199.502 94.5874 199.387C94.032 198.418 93.1823 197.866 92.5179 198.054C92.426 198.079 92.3634 198.229 92.3781 198.39Z" fill="#D3DAE5"/>
<path d="M115.945 146.194C104.19 156.567 92.7086 150.027 91.418 147.985C92.6289 128.654 93.7368 115.075 97.2 109.35C102.369 108.084 110.838 110.425 113.878 112.884C110.9 129.795 114.181 140.207 115.945 146.194Z" fill="#28AFC6"/>
<path d="M94.2202 130.075C92.1282 130.149 88.9798 123.036 87.9639 122.208C88.8869 118.984 92.0133 113.257 93.1515 111.555C94.3331 109.788 97.2982 109.139 98.3337 109.112C97.7847 115.391 94.2202 130.075 94.2202 130.075Z" fill="#28AFC6"/>
<path d="M119.646 122.986C116.757 127.145 113.989 133.906 113.511 131.2C110.831 124.598 109.591 114.683 113.799 112.745C116.043 117.06 119.646 122.986 119.646 122.986Z" fill="#28AFC6"/>
<path d="M121.851 93.9318C121.417 96.7165 119.925 98.4335 118.518 97.767C117.112 97.1005 116.322 94.3021 116.756 91.5174C117.188 88.7327 118.68 87.0164 120.086 87.6822C121.494 88.3487 122.283 91.1471 121.851 93.9318Z" fill="#E0956C"/>
<path d="M87.1252 86.223C87.1453 89.1085 88.3436 91.4228 89.8009 91.392C91.2583 91.3611 92.4243 88.9968 92.4042 86.112C92.3842 83.2272 91.1864 80.9129 89.7286 80.943C88.2712 80.9739 87.1057 83.3382 87.1252 86.223Z" fill="#E0956C"/>
<path d="M115.884 56.667C115.881 56.652 115.879 56.64 115.876 56.628C115.886 56.556 115.89 56.5621 115.884 56.667Z" fill="#752912"/>
<path d="M115.876 56.628C115.886 56.556 115.89 56.5621 115.884 56.667C115.881 56.652 115.879 56.64 115.876 56.628Z" fill="#FFC19F"/>
<path d="M125.343 93.2627C123.832 99.742 119.773 103.09 117.012 101.782C114.251 100.474 114.131 94.8412 115.118 88.4901C116.106 82.1397 119.147 78.035 121.905 79.3584C125.675 81.1687 126.762 87.1728 125.343 93.2627Z" fill="#FFC19F"/>
<path d="M83.6353 84.0041C84.1686 90.9366 87.6187 95.9519 90.4792 95.8916C93.3392 95.8313 94.2637 90.4313 94.2192 83.8511C94.1737 77.2703 91.8178 71.9677 88.9568 72.0445C85.0472 72.1494 83.1337 77.4877 83.6353 84.0041Z" fill="#FFC19F"/>
<path d="M121.791 69.7021C121.585 72.3716 121.267 75.6568 120.875 79.1101C120.557 81.9003 120.191 84.8008 119.794 87.5787C119.784 87.6417 119.775 87.7048 119.767 87.7706C119.244 91.4097 118.67 94.8239 118.089 97.4817C117.69 99.3119 117.288 100.782 116.896 101.721C116.877 101.766 116.86 101.808 116.841 101.85C114.688 106.752 105.286 108.864 103.196 108.399C101.244 107.967 92.2907 101.295 90.3556 95.9732C90.3449 95.9457 90.3366 95.919 90.3278 95.8888C90.0359 95.0282 89.8399 93.447 89.7196 91.3892C89.5837 89.0667 89.5426 86.1332 89.5749 82.9439C89.5817 82.2897 89.5905 81.6266 89.6042 80.9519C89.656 78.1048 89.7572 75.1172 89.8931 72.2159C90.0579 68.679 90.273 65.2739 90.5082 62.4059C91.5911 61.5149 93.0333 60.8279 94.6833 60.3509C95.0543 58.7129 96.7283 54.8129 97.0363 54.3179C96.8676 55.1909 96.4589 58.3079 96.2507 59.9699C98.743 59.4749 101.555 59.3999 104.267 59.7479C104.35 57.9449 105.037 55.7399 105.051 55.6199C105.319 56.2289 105.752 58.8869 105.937 60.0179C106.343 60.0989 106.744 60.1889 107.139 60.2879C110.766 61.2089 113.416 62.2859 115.497 63.5429C115.745 59.0969 115.87 57.0989 115.884 56.6699C116.178 57.9659 116.403 61.4189 116.238 64.0139C117.013 64.5329 117.706 65.0819 118.34 65.6609C118.533 64.0679 118.941 61.5179 119.005 61.0829C119.265 61.4489 119.523 65.1359 119.576 66.8969C120.368 67.7669 121.083 68.6996 121.791 69.7021Z" fill="#FFC19F"/>
<path d="M103.32 87.2832C103.404 87.3024 103.485 87.2133 103.51 87.0672C103.688 86.0325 104.216 85.4558 104.857 85.5984C105.501 85.741 105.94 86.5467 105.949 87.6021C105.951 87.7714 106.032 87.9072 106.127 87.9038C106.225 87.901 106.302 87.7611 106.3 87.5925C106.288 86.2402 105.713 85.1705 104.901 84.9902C104.094 84.8112 103.4 85.5751 103.173 86.891C103.146 87.0542 103.198 87.2242 103.291 87.2729L103.32 87.2832Z" fill="#C67F75"/>
<path d="M93.8357 66.3384C93.954 66.354 94.0752 66.2964 94.1759 66.1614C95.4641 64.4406 97.7781 64.2216 99.5615 65.6586C99.8084 65.8602 100.105 65.6706 100.222 65.2335C100.337 64.7988 100.228 64.2831 99.9781 64.0812C97.8499 62.3694 95.1547 62.6637 93.5707 64.7841C93.3526 65.076 93.3116 65.6205 93.4788 66.0009C93.5682 66.2055 93.6997 66.3207 93.8357 66.3384Z" fill="#775D2A"/>
<path d="M117.741 71.8601C117.876 71.8971 118.019 71.8382 118.133 71.6743C118.346 71.3712 118.377 70.8254 118.204 70.4537C116.94 67.755 114.356 66.3885 112.06 67.2006C111.79 67.2969 111.616 67.7553 111.671 68.2248C111.726 68.6962 111.989 69 112.258 68.9033C114.182 68.2179 116.408 69.3559 117.433 71.5515C117.513 71.7237 117.624 71.8279 117.741 71.8601Z" fill="#775D2A"/>
<path d="M115.884 56.667C115.881 56.652 115.879 56.64 115.876 56.628C115.886 56.556 115.89 56.5621 115.884 56.667Z" fill="#752912"/>
<path d="M91.1034 55.701C91.1616 55.68 91.2202 55.659 91.2804 55.6379C91.0227 56.9819 90.7528 59.397 90.5069 62.4059C90.2698 62.5979 90.0498 62.805 89.8489 63.0179C89.3331 63.5699 90.0342 59.712 91.1034 55.701Z" fill="#752912"/>
<path d="M108.62 86.8936C108.62 86.8936 113.639 91.1759 116.051 86.8497C118.991 81.5773 115.64 75.962 113.137 76.2507C110.821 76.5181 108.497 79.3933 108.62 86.8936Z" fill="#F9FEFF"/>
<path d="M117.079 79.4236C116.283 77.0325 115.028 76.0225 113.584 75.9066C112.109 75.7879 110.485 77.2122 109.912 78.9628C110.87 77.0709 112.283 76.6506 113.148 76.5505C114.527 76.3893 116.192 77.8855 116.804 80.1957C117.347 82.2515 117.052 85.0513 115.972 86.9857C117.155 85.7857 117.908 81.9162 117.079 79.4236Z" fill="#773220"/>
<path d="M109.602 81.0412C108.941 83.0373 109.332 85.5909 110.475 86.7449C111.618 87.899 113.081 87.2174 113.743 85.2213C114.404 83.2252 114.014 80.6716 112.87 79.5168C111.726 78.3627 110.264 79.045 109.602 81.0412Z" fill="#00576C"/>
<path d="M109.848 80.433C109.664 80.9871 109.773 81.6954 110.09 82.0157C110.408 82.3359 110.813 82.1466 110.997 81.5926C111.18 81.0392 111.072 80.3302 110.755 80.01C110.437 79.6904 110.032 79.879 109.848 80.433Z" fill="#FEFFFE"/>
<path d="M100.663 84.8976C100.663 84.8976 95.1511 86.4843 93.552 81.131C91.6033 74.6078 95.7363 70.9083 98.0864 72.4388C100.261 73.8555 102.015 77.7744 100.663 84.8976Z" fill="#F9FEFF"/>
<path d="M93.7876 73.5025C94.9433 71.6106 96.3117 71.2725 97.7133 71.8849C99.1468 72.5109 100.468 74.6888 100.728 76.6526C100.123 74.3603 98.8383 73.2494 98.0248 72.7201C96.7312 71.8746 94.89 72.4732 93.924 74.3809C93.0655 76.0773 92.8885 78.9066 93.6037 81.3004C92.6675 79.558 92.5834 75.4746 93.7876 73.5025Z" fill="#773220"/>
<path d="M93.9205 76.6032C93.2591 78.5986 93.6497 81.1522 94.7932 82.307C95.9367 83.4617 97.3995 82.7794 98.0614 80.784C98.7224 78.7879 98.3318 76.2343 97.1883 75.0795C96.0447 73.9248 94.582 74.6071 93.9205 76.6032Z" fill="#00576C"/>
<path d="M94.167 75.995C93.9842 76.549 94.0922 77.2574 94.4095 77.5776C94.7268 77.8978 95.1326 77.7086 95.3164 77.1545C95.4993 76.6011 95.3912 75.8928 95.0739 75.5726C94.7566 75.2523 94.3509 75.4416 94.167 75.995Z" fill="#FEFFFE"/>
<path d="M84.5263 56.6508C84.5263 56.6508 82.8064 60.7584 84.3957 61.4637C85.9851 62.169 87.5721 60.6924 87.9402 58.1655C88.3083 55.6383 87.3178 53.0181 85.728 52.3128C84.1386 51.6078 84.5263 56.6508 84.5263 56.6508Z" fill="#F9951E"/>
<path d="M93.0611 60.4374C93.0611 60.4374 93.4487 65.4807 91.8589 64.7754C90.2695 64.0701 89.279 61.4496 89.6471 58.923C90.0153 56.3958 91.6022 54.9189 93.1916 55.6242C94.7815 56.3298 93.0611 60.4374 93.0611 60.4374Z" fill="#F9951E"/>
<path d="M89.838 59.0755C89.6629 60.2761 89.0308 61.0321 88.4251 60.7633C87.8198 60.4947 87.4707 59.3037 87.6458 58.1032C87.8208 56.9022 88.4529 56.1466 89.0587 56.4154C89.6639 56.6838 90.013 57.8748 89.838 59.0755Z" fill="#F9951E"/>
<path d="M107.833 119.283C108.065 119.634 108.027 117.776 109.461 117.534C108.994 117.936 108.543 118.419 108.418 118.671C108.154 119.205 108.267 120.535 108.555 120.824C108.949 121.22 108.55 119.578 110.387 119.64C110.909 121.897 111.318 125.832 113.167 123.711C114.09 122.653 113.394 119.476 112.483 116.827C111.699 114.55 110.54 112.091 110.096 111.669C109.708 111.3 107.726 112.188 107.275 112.917C106.948 113.443 106.831 114.424 107.009 114.914C107.174 115.37 107.684 113.536 108.986 113.548C108.339 113.984 107.364 115.008 107.158 115.423C106.867 116.01 106.989 117.307 107.24 117.687C107.48 118.049 107.487 115.936 109.153 115.663C108.569 116.084 107.858 116.803 107.695 117.131C107.431 117.664 107.582 118.904 107.833 119.283Z" fill="#FFC19F"/>
<path d="M112.133 123.945C115.02 131.261 117.704 132.704 117.704 132.704C120.756 133.898 121.225 126.44 119.1 125.327C117.23 124.753 115.612 122.891 113.414 120.11C113.035 119.63 111.863 123.261 112.133 123.945Z" fill="#FFC19F"/>
<path d="M95.8324 106.558C95.584 106.549 94.8013 106.991 94.2318 107.467C95.4633 105.488 96.3667 106.894 96.3731 106.341C96.3799 105.76 95.9091 104.734 95.4642 104.718C95.1509 104.707 94.0616 105.288 93.4432 105.834C94.309 104.138 95.431 104.704 95.3479 104.185C95.2584 103.626 94.7627 103.121 94.3198 103.192C93.7067 103.291 92.0029 105.267 91.9003 106.018C91.7834 106.875 92.0538 110.024 92.4992 112.565C93.0174 115.519 93.9037 118.548 94.9715 118.059C97.1123 117.08 95.7106 113.917 95.0991 111.73C96.3022 109.306 96.7339 110.92 96.8287 110.146C96.8981 109.578 96.4088 108.54 96.0045 108.527C95.8138 108.52 95.3058 108.782 94.8219 109.119C95.8847 107.421 96.6503 108.712 96.6566 108.178C96.663 107.597 96.2362 106.572 95.8324 106.558Z" fill="#FFC19F"/>
<path d="M95.4068 118.144C94.7253 125.124 91.3173 130.835 91.3173 130.835C88.6626 134.363 86.0754 128.38 88.1508 124.398C89.7587 121.895 91.5564 119.894 92.9942 115.404C93.243 114.627 95.4944 117.244 95.4068 118.144Z" fill="#FFC19F"/>
<path d="M92.9102 72.9765C92.9102 73.5045 92.7205 73.9331 92.4869 73.9331C92.2532 73.9331 92.0635 73.5045 92.0635 72.9765C92.0635 72.4478 92.4869 71.2465 92.4869 71.2465C92.4869 71.2465 92.9102 72.4478 92.9102 72.9765Z" fill="white"/>
<path d="M92.3168 68.5318C92.3168 69.4444 91.9897 70.1836 91.5859 70.1836C91.1825 70.1836 90.8555 69.4438 90.8555 68.5318C90.8555 67.6195 91.5859 65.5471 91.5859 65.5471C91.5859 65.5471 92.3168 67.6195 92.3168 68.5318Z" fill="white"/>
<path opacity="0.3" d="M106.665 94.7272C106.619 94.1176 106.308 93.578 105.749 93.1124C105.371 92.8031 104.917 92.5563 104.424 92.378C103.932 92.1915 103.459 92.0955 103.044 92.1106C102.421 92.1394 102.013 92.4123 101.831 92.9375C101.812 92.991 99.9926 98.7695 100.831 100.243C101.156 100.82 102.177 101.45 103.272 101.858C104.369 102.262 105.447 102.409 105.879 102.112C106.987 101.359 106.669 94.789 106.665 94.7272Z" fill="#FFA483"/>
<path d="M102.096 93.4415L106.316 95.2511C106.316 95.2511 106.775 93.0253 104.48 92.1222C102.392 91.3007 102.096 93.4415 102.096 93.4415Z" fill="#FD6867"/>
<path d="M106.29 94.7541C106.231 93.9538 105.317 93.3024 104.355 92.9486C103.393 92.5899 102.407 92.5385 102.169 93.2283C101.722 94.5079 100.597 98.9733 101.108 99.8853C101.355 100.318 102.29 100.917 103.339 101.31C104.387 101.693 105.382 101.809 105.709 101.589C106.391 101.119 106.398 96.2393 106.29 94.7541Z" fill="#921F33"/>
<path d="M101.278 96.7015C101.005 98.088 100.851 99.4279 101.107 99.8852C101.355 100.318 102.289 100.917 103.338 101.31C104.387 101.693 105.381 101.809 105.709 101.589C106.074 101.34 106.241 99.8345 106.306 98.2621C105.476 96.4759 102.608 94.8884 101.278 96.7015Z" fill="#751A2C"/>
<path d="M103.724 98.1531C102.605 97.739 101.126 97.5607 101.002 99.4471C101.019 99.6295 101.056 99.781 101.109 99.8852C101.356 100.319 102.29 100.917 103.34 101.31C104.388 101.693 105.385 101.82 105.71 101.589C105.786 101.535 105.853 101.419 105.912 101.265C106.235 99.4526 104.843 98.568 103.724 98.1531Z" fill="#CD3735"/>
<path d="M106.289 94.7541C106.23 93.9538 105.316 93.3024 104.355 92.9486C103.392 92.5899 102.407 92.5385 102.168 93.2283C102.094 93.4375 102.003 93.7474 101.9 94.1047C102.616 94.4256 103.344 94.7575 104.099 95.0496C104.86 95.3191 105.599 95.5303 106.328 95.7436C106.318 95.3452 106.307 94.9975 106.289 94.7541Z" fill="white"/>
<path d="M106.291 95.7305C106.318 95.3458 106.307 94.9975 106.289 94.7541C106.23 93.9538 105.316 93.3024 104.355 92.9486C103.392 92.5899 102.407 92.5385 102.168 93.2283C102.094 93.4375 102.003 93.7474 101.9 94.1047C101.937 94.1184 101.969 94.1335 102.002 94.1486C103.1 92.4761 105.621 93.4738 106.291 95.7305Z" fill="#DBEDE8"/>
<path d="M103.462 100.289C102.616 99.9758 101.818 99.4005 100.993 98.6379C100.954 99.205 100.982 99.6542 101.107 99.8853C101.354 100.318 102.289 100.917 103.338 101.31C104.387 101.693 105.381 101.809 105.708 101.589C105.877 101.467 106.005 101.075 106.103 100.53C105.17 100.642 104.308 100.603 103.462 100.289Z" fill="white"/>
<path opacity="0.21" d="M89.4065 88.8467C89.3537 88.8605 89.3014 88.8673 89.2471 88.8721C87.8039 89.0024 86.5646 86.7924 86.479 83.9329C86.3959 81.0762 87.4979 78.6529 88.9411 78.5213C89.0212 78.5137 89.099 78.5144 89.1767 78.5213C89.1704 82.3016 89.2378 85.9153 89.4065 88.8467Z" fill="black"/>
<path opacity="0.21" d="M118.088 94.5984C118.138 94.6313 118.188 94.6574 118.24 94.6807C119.637 95.3328 121.113 93.6206 121.537 90.8544C121.959 88.091 121.169 85.32 119.773 84.6679C119.695 84.6315 119.62 84.6034 119.543 84.5822C119.098 88.2823 118.602 91.7931 118.088 94.5984Z" fill="black"/>
</svg>
