<svg width="220" height="240" viewBox="0 0 220 240" fill="none" xmlns="http://www.w3.org/2000/svg">
<path d="M104.161 71.3582C104.161 71.3582 102.41 76.2116 103.588 82.752C103.588 82.752 104.065 85.5147 103.939 87.469C103.939 87.469 105.034 85.8459 105.211 81.3319C105.211 81.3319 105.163 85.0416 104.79 86.6606C104.79 86.6606 108.13 76.9851 105.975 71.3582H104.161Z" fill="#2B1116"/>
<path d="M106.005 27.6074C106.005 27.6074 106.483 34.2438 105.052 38.2596C105.052 38.2596 105.423 38.4911 105.052 39.8078C105.052 39.8078 106.271 43.018 105.71 45.4874C105.148 47.9565 104.413 48.5629 103.549 47.4375C102.685 46.3116 101.301 41.7871 101.377 37.7938C101.454 33.7978 104.168 26.968 104.168 26.968L106.005 27.6074Z" fill="#2B1116"/>
<path d="M103.775 36.5973C102.961 36.6788 102.62 35.4882 102.62 35.4882L101.451 36.7375C101.41 37.1064 101.384 37.4617 101.377 37.7937C101.37 38.1275 101.376 38.4666 101.389 38.8048L101.413 38.9857C101.413 38.9857 102.24 42.1786 103.47 43.4426C103.47 43.4426 104.36 42.2706 105.086 39.9028C105.063 39.8422 105.052 39.8079 105.052 39.8079C105.423 38.4911 105.052 38.2597 105.052 38.2597C105.565 36.8206 105.832 35.0439 105.964 33.3568C105.723 33.8933 104.507 36.5184 103.775 36.5973Z" fill="#1C0C0E"/>
<path d="M108.407 33.899C108.407 34.2192 108.274 34.4771 108.11 34.4771C107.945 34.4771 107.812 34.2192 107.812 33.899C107.812 33.5805 107.945 33.3223 108.11 33.3223C108.274 33.3223 108.407 33.5807 108.407 33.899Z" fill="#B16327"/>
<path d="M106.339 58.8227C106.339 58.8227 107.632 54.0316 106.006 47.9823C106.006 47.9823 106.542 43.2243 105.208 41.9485L105.166 41.968C105.161 42.0489 105.154 42.1292 105.149 42.2094C105.122 42.5296 105.056 42.8614 104.964 43.1252C104.839 43.4861 104.667 43.8936 104.454 44.07C104.22 44.2709 104.005 44.4458 103.739 44.411C103.569 44.3891 103.395 44.346 103.23 44.2587C102.919 44.0925 102.672 43.679 102.528 43.1571L102.474 43.1836C102.474 43.1836 102.456 46.4361 103.072 48.8632C103.072 48.8632 101.976 53.512 103.908 59.7278C103.908 59.7278 102.68 67.1354 103.825 70.593C103.825 70.593 104.129 71.7457 105.148 71.6215C105.148 71.6215 106.357 71.5804 106.591 70.7973C106.823 70.0163 107.643 68.4511 106.339 58.8227Z" fill="#2B1116"/>
<path d="M105.019 61.4977C105.019 61.4977 105.74 60.8418 106.344 58.8626C106.342 58.8464 106.341 58.8358 106.339 58.8226C106.339 58.8226 107.105 55.9768 106.713 51.9037C106.404 53.5826 105.88 55.7035 105.125 56.4344C105.125 56.4344 103.58 54.3235 102.787 51.288C102.694 53.2447 102.823 56.2395 103.908 59.7275C103.908 59.7275 103.903 59.7493 103.898 59.7842C104.137 60.3595 104.491 60.9779 105.019 61.4977Z" fill="#1C0C0E"/>
<path d="M106.489 71.1916C106.673 70.5717 107.227 69.4526 106.794 64.1936C106.49 68.216 106.03 70.9749 105.321 70.2878C104.75 69.7358 103.96 65.2816 103.502 62.4163C103.233 64.886 102.984 68.7566 103.723 70.9879C103.723 70.9879 104.027 72.1406 105.046 72.0158C105.045 72.0158 106.255 71.9746 106.489 71.1916Z" fill="#1C0C0E"/>
<path d="M106.023 48.0468C106.016 48.0257 106.012 48.0033 106.005 47.9822C106.005 47.9822 106.305 45.3175 105.898 43.4424C105.634 45.0479 105.182 47.0259 104.573 46.9279C103.864 46.8142 103.052 45.6203 102.502 44.4053C102.552 45.5546 102.688 47.31 103.051 48.7833C103.497 49.6515 104.163 50.471 105.147 51.0853C105.147 51.0855 105.691 50.2626 106.023 48.0468Z" fill="#1C0C0E"/>
<path d="M105.705 80.0627C104.854 81.7845 103.898 76.8371 103.478 74.2999C103.159 76.3454 102.969 79.3152 103.589 82.7514C103.589 82.7514 104.065 85.5148 103.939 87.4691C103.939 87.4691 105.034 85.846 105.211 81.3319C105.211 81.3319 105.163 85.0416 104.79 86.6606C104.79 86.6606 107.162 79.787 106.618 74.2567C106.536 76.3372 106.306 78.8462 105.705 80.0627Z" fill="#1C0C0E"/>
<path d="M107.651 217.537C108.079 218.107 108.556 218.562 109.051 218.957C109.422 219.249 109.801 219.515 110.175 219.759C111.119 220.385 112.083 221.017 113.082 221.065C113.468 221.092 113.886 220.997 114.177 220.501C114.387 220.133 114.485 219.596 114.489 219.046C113.44 217.216 112.508 215.149 111.729 212.877C111.841 212.191 111.957 211.504 112.072 210.817C112.202 210.069 112.336 209.315 112.472 208.572C111.077 208.519 109.678 208.336 108.286 208.076C108.468 210.403 108.584 212.756 108.152 214.938C107.977 215.802 107.816 216.672 107.651 217.537Z" fill="#D0836A"/>
<path d="M106.844 223.125C107.114 224.302 107.991 225.234 108.601 225.532C109.744 226.083 110.932 224.921 112.107 225.118C113.25 225.308 114.232 226.742 115.344 227.294C116.458 227.852 117.514 227.429 118.562 226.499C119.113 226.009 119.621 225.335 120.056 224.519C120.067 224.499 120.073 224.486 120.084 224.466C120.137 224.364 120.185 224.254 120.214 224.118C120.221 224.078 120.228 224.056 120.231 224.05C120.224 224.05 120.217 224.037 120.203 224.01C120.112 223.166 119.807 222.479 119.516 221.833C119.466 221.724 119.4 221.622 119.369 221.745C119.257 221.779 119.148 221.84 119.039 221.895C117.342 222.717 115.967 221.209 114.709 219.16C114.554 218.909 114.407 218.637 114.26 218.379C114.256 218.929 114.158 219.466 113.948 219.834C113.657 220.331 113.239 220.425 112.854 220.399C111.854 220.351 110.89 219.719 109.947 219.092C109.572 218.848 109.193 218.582 108.822 218.29C108.327 217.896 107.85 217.441 107.423 216.869C107.338 217.298 107.254 217.732 107.173 218.161C106.918 219.555 106.507 221.657 106.844 223.125Z" fill="#1684AF"/>
<path d="M106.844 223.126C107.114 224.302 107.991 225.235 108.601 225.533C109.744 226.084 110.932 224.921 112.107 225.119C113.25 225.309 114.232 226.743 115.344 227.294C116.458 227.853 117.514 227.43 118.562 226.499C119.113 226.009 119.621 225.335 120.056 224.52C120.067 224.499 120.073 224.486 120.084 224.467C119.877 224.663 119.688 225.152 119.417 225.445C118.944 225.955 118.408 226.248 117.871 226.356C116.946 226.547 116.013 226.24 115.102 225.88C114.477 225.636 113.846 225.357 113.278 224.799C112.991 224.513 112.721 224.159 112.419 223.935C111.911 223.561 111.346 223.596 110.803 223.493C110.263 223.399 109.684 223.119 109.327 222.317C108.987 221.549 108.926 220.468 108.878 219.461C108.86 219.073 108.843 218.679 108.822 218.291C108.78 217.373 108.738 216.462 108.692 215.543C108.892 215.347 109.113 215.251 109.334 215.266C109.172 215.266 109.292 210.308 109.39 209.662C110.21 209.723 111.034 209.886 111.844 210.151C111.974 209.403 112.107 208.649 112.244 207.907C110.848 207.853 109.449 207.669 108.057 207.411C108.239 209.737 108.355 212.09 107.924 214.272C107.749 215.135 107.588 216.006 107.423 216.87C107.338 217.299 107.254 217.733 107.174 218.162C106.918 219.555 106.507 221.658 106.844 223.126Z" fill="#D8BEB9"/>
<path d="M107.422 216.869C107.85 217.441 108.326 217.896 108.821 218.29C109.192 218.582 109.572 218.848 109.946 219.093C110.89 219.719 111.854 220.351 112.853 220.399C113.239 220.425 113.656 220.331 113.947 219.835C114.157 219.466 114.256 218.929 114.259 218.379C113.211 216.549 112.278 214.482 111.5 212.211C111.612 211.524 111.727 210.837 111.843 210.15C111.973 209.403 112.106 208.648 112.243 207.906C110.848 207.852 109.449 207.669 108.056 207.41C108.239 209.737 108.355 212.089 107.923 214.271C107.748 215.135 107.587 216.005 107.422 216.869Z" fill="#C97D69"/>
<path opacity="0.8" d="M108.822 218.289C108.779 217.371 108.736 216.462 108.692 215.544C108.892 215.345 109.113 215.25 109.333 215.266C109.172 215.266 109.291 210.307 109.39 209.661C110.21 209.721 111.034 209.884 111.844 210.152C111.973 209.402 112.107 208.648 112.243 207.907C110.848 207.852 109.45 207.67 108.057 207.411C108.239 209.737 108.355 212.091 107.923 214.272C107.748 215.135 107.588 216.004 107.422 216.87C107.763 217.442 108.692 218.188 108.822 218.289Z" fill="#B56855"/>
<path d="M109.052 218.958C109.062 218.964 109.067 218.969 109.067 218.969" stroke="#D8BEB9" stroke-miterlimit="10"/>
<path d="M106.3 219.078C106.727 219.649 107.203 220.103 107.698 220.497C108.069 220.789 108.447 221.054 108.821 221.299C109.764 221.924 110.727 222.555 111.725 222.603C112.11 222.629 112.527 222.536 112.818 222.04C113.028 221.672 113.126 221.136 113.13 220.586C112.082 218.757 111.151 216.693 110.373 214.424C110.485 213.739 110.601 213.052 110.716 212.366C110.846 211.619 110.979 210.865 111.116 210.124C109.722 210.071 108.324 209.888 106.934 209.629C107.116 211.952 107.232 214.303 106.8 216.483C106.625 217.345 106.465 218.215 106.3 219.078Z" fill="#D0836A"/>
<path d="M105.722 225.327C105.991 226.502 106.867 227.433 107.476 227.731C108.618 228.282 109.806 227.12 110.979 227.318C112.121 227.508 113.102 228.94 114.212 229.491C115.325 230.048 116.38 229.626 117.427 228.697C117.977 228.207 118.485 227.534 118.919 226.72C118.93 226.699 118.936 226.686 118.947 226.666C119 226.563 119.049 226.454 119.077 226.319C119.084 226.278 119.091 226.257 119.094 226.251C119.087 226.251 119.08 226.238 119.066 226.21C118.976 225.368 118.67 224.681 118.38 224.037C118.331 223.928 118.264 223.825 118.233 223.948C118.121 223.982 118.012 224.043 117.904 224.098C116.208 224.919 114.835 223.412 113.578 221.366C113.424 221.115 113.277 220.843 113.13 220.585C113.126 221.135 113.028 221.672 112.818 222.039C112.527 222.536 112.11 222.63 111.725 222.603C110.727 222.555 109.763 221.923 108.821 221.299C108.447 221.054 108.068 220.789 107.697 220.497C107.203 220.103 106.727 219.649 106.3 219.078C106.216 219.505 106.131 219.939 106.051 220.368C105.795 221.761 105.385 223.86 105.722 225.327Z" fill="#1688C3"/>
<path d="M105.722 225.328C105.991 226.502 106.867 227.434 107.476 227.731C108.618 228.282 109.806 227.121 110.979 227.318C112.121 227.508 113.102 228.941 114.212 229.491C115.325 230.048 116.38 229.627 117.427 228.697C117.977 228.207 118.485 227.534 118.919 226.72C118.93 226.699 118.936 226.686 118.947 226.666C118.74 226.863 118.551 227.352 118.281 227.644C117.809 228.154 117.273 228.446 116.737 228.553C115.812 228.745 114.881 228.438 113.97 228.079C113.346 227.834 112.716 227.556 112.149 226.999C111.861 226.714 111.592 226.36 111.291 226.136C110.783 225.762 110.219 225.796 109.676 225.694C109.137 225.6 108.559 225.321 108.201 224.519C107.862 223.752 107.802 222.672 107.753 221.666C107.735 221.279 107.718 220.885 107.697 220.498C107.655 219.581 107.613 218.67 107.567 217.753C107.767 217.557 107.988 217.461 108.208 217.476C108.047 217.476 108.166 212.523 108.264 211.878C109.084 211.939 109.907 212.102 110.716 212.366C110.846 211.62 110.979 210.866 111.116 210.125C109.721 210.071 108.324 209.888 106.934 209.63C107.116 211.953 107.231 214.304 106.8 216.483C106.625 217.346 106.464 218.216 106.3 219.079C106.216 219.507 106.131 219.941 106.051 220.369C105.795 221.761 105.385 223.86 105.722 225.328Z" fill="#D8BEB9"/>
<path d="M106.3 219.078C106.727 219.649 107.203 220.103 107.698 220.497C108.069 220.789 108.447 221.054 108.821 221.299C109.764 221.924 110.727 222.555 111.725 222.603C112.11 222.629 112.527 222.536 112.818 222.04C113.028 221.672 113.126 221.136 113.13 220.586C112.082 218.757 111.151 216.693 110.373 214.424C110.485 213.739 110.601 213.052 110.716 212.366C110.846 211.619 110.979 210.865 111.116 210.124C109.722 210.071 108.324 209.888 106.934 209.629C107.116 211.952 107.232 214.303 106.8 216.483C106.625 217.345 106.465 218.215 106.3 219.078Z" fill="#D0836A"/>
<path opacity="0.8" d="M107.699 220.496C107.655 219.579 107.613 218.67 107.568 217.753C107.768 217.555 107.989 217.46 108.209 217.476C108.048 217.476 108.167 212.522 108.265 211.878C109.085 211.937 109.908 212.1 110.717 212.367C110.846 211.619 110.979 210.865 111.116 210.125C109.723 210.071 108.326 209.888 106.934 209.63C107.116 211.954 107.232 214.304 106.801 216.483C106.625 217.345 106.466 218.214 106.3 219.078C106.641 219.65 107.568 220.395 107.699 220.496Z" fill="#B56855"/>
<path d="M107.697 220.498C107.707 220.504 107.713 220.509 107.713 220.509" stroke="#D8BEB9" stroke-miterlimit="10"/>
<path d="M112.786 151.869C113.123 156.868 112.839 160.15 111.936 161.713C111.201 177.126 111.632 193.35 113.23 210.385L113.329 210.741C111.393 211.555 109.37 212.05 107.258 212.226C107.989 202.093 107.578 193.14 106.025 185.366L105.949 184.728C104.428 176.77 104.653 166.688 106.623 154.483C106.965 143.654 106.863 133.216 106.316 123.169L118.282 122.204L112.786 151.869Z" fill="#A01D52"/>
<path d="M105.598 141.996C105.599 146.098 105.532 150.261 105.399 154.482C103.429 166.688 103.204 176.77 104.725 184.728L104.802 185.366C106.351 193.123 106.93 201.76 106.54 211.275L112.09 210.741L112.006 210.385C110.409 193.349 109.977 177.125 110.712 161.714C111.616 160.15 111.899 156.868 111.562 151.869L116.753 120.274L105.093 123.169C105.384 128.517 105.55 133.976 105.591 139.546C105.594 140.36 105.596 141.177 105.598 141.996ZM112.971 140.57L112.886 140.837C112.886 140.797 112.886 140.763 112.886 140.733L112.971 140.57Z" fill="#C71D65"/>
<path d="M112.885 140.837C112.885 140.797 112.885 140.763 112.885 140.733L112.969 140.57L112.885 140.837Z" fill="#FAB99C"/>
<path d="M113.874 131.572C112.879 130.661 111.672 130.607 110.253 131.41C111.687 131.251 112.894 131.305 113.874 131.572ZM110.299 134.29C111.733 134.141 112.942 134.2 113.927 134.468C112.927 133.568 111.718 133.508 110.299 134.29Z" fill="#A01D52"/>
<path d="M107.228 102.265C107.232 102.258 107.236 102.25 107.24 102.243H118.598C118.625 102.921 118.661 103.618 118.705 104.334L119.125 108.121L119.005 114.557C118.901 116.555 118.689 118.599 118.37 120.691C118.21 121.729 118.026 122.774 117.818 123.827V123.084C116.956 123.022 116.201 123.587 115.554 124.779L108.57 129.961L107.563 131.866H107.552C104.916 129.589 103.443 125.105 103.131 118.413C103.083 117.438 103.063 116.415 103.071 115.347C103.087 115.083 103.107 114.819 103.131 114.556L103.179 114.115C103.419 111.73 103.914 109.313 104.664 106.866L107.228 102.265Z" fill="#9FC93B"/>
<path d="M107.395 52.1253C107.97 51.2116 108.301 50.0962 108.389 48.7795L112.702 49.1047L112.367 52.9618L117.938 62.8598C117.954 62.8598 119.164 65.3225 121.568 70.248C122.231 74.2601 121.628 77.1024 119.759 78.7756C119.855 81.4862 119.763 83.6853 119.483 85.3742L118.645 93.0645C118.589 93.8393 118.545 94.6601 118.513 95.5276C118.45 97.5223 118.478 99.7605 118.597 102.243H107.24C108.774 99.4437 109.708 96.1756 110.043 92.437C110.203 90.6562 110.207 88.6889 110.055 86.5358C109.232 83.1902 108.434 80.5954 107.659 78.7522C106.884 76.909 106.437 75.6775 106.317 75.0583L105.79 72.3861C105.095 68.6222 104.823 65.2762 104.976 62.3487C104.983 62.1165 104.995 61.884 105.011 61.6516C105.275 57.9338 106.069 54.7585 107.395 52.1253Z" fill="#FAB99C"/>
<path d="M117.914 76.3125C119.049 76.1891 119.875 75.8017 120.394 75.1509C120.913 74.5125 121.321 73.8769 121.616 73.2453C121.905 72.6165 122.14 72.0433 122.323 71.5262C122.321 71.5605 122.321 71.5914 122.323 71.6188C122.275 73.2453 121.812 75.956 120.933 79.7514C120.869 80.0298 120.802 80.3164 120.73 80.6113C120.686 80.795 120.642 80.9809 120.598 81.1688C120.159 82.0081 119.66 82.6506 119.101 83.097C118.699 83.4104 118.128 83.4488 117.387 83.2129C115.146 81.2942 113.9 78.3745 113.649 74.4536C115.359 75.8181 116.781 76.4373 117.914 76.3125Z" fill="#08233F"/>
<path d="M113.66 59.3514C112.396 59.6003 111.366 59.6389 110.569 59.4674C109.764 59.3152 109.081 59.2376 108.521 59.2352C107.952 59.2465 107.349 59.2699 106.712 59.305C106.068 59.3543 105.544 59.269 105.142 59.0494C104.891 60.9536 104.775 62.8976 104.795 64.8814C104.829 68.5643 105.332 72.3827 106.304 76.3359C106.477 77.0353 106.665 77.7402 106.867 78.4506C106.932 78.6248 106.996 78.7955 107.059 78.9615C108.232 82.3242 108.812 85.6623 108.797 88.9756C108.804 89.038 108.804 89.0997 108.797 89.1614C108.756 93.2661 107.794 97.3475 105.909 101.406C104.112 105.278 103.038 109.91 102.687 115.3C106.584 119.994 112.211 121.225 119.567 118.995C119.575 118.995 119.582 118.995 119.591 118.995C119.575 118.267 119.555 117.554 119.531 116.857L119.351 103.312L119.615 90.1372C119.623 89.9205 119.631 89.7189 119.639 89.5331C119.735 87.2408 119.87 85.1884 120.046 83.3761C120.242 82.6163 120.426 81.8805 120.597 81.1695C120.158 82.0088 119.659 82.6513 119.1 83.0977C118.698 83.4111 118.127 83.4495 117.386 83.2136C115.145 81.2949 113.9 78.3752 113.649 74.4543C115.359 75.8188 116.78 76.438 117.914 76.3132C119.048 76.1891 119.874 75.8024 120.394 75.1509C120.912 74.5125 121.32 73.8776 121.616 73.246C121.904 72.6172 122.14 72.044 122.323 71.5262C122.295 71.3322 122.239 71.1464 122.155 70.9688C120.933 68.1187 119.255 64.928 117.123 61.3965C116.7 61.8302 116.061 61.7605 115.206 61.1872C114.688 60.6023 114.173 59.9905 113.66 59.3514ZM107.418 50.1736C107.283 50.5298 107.147 50.8941 107.011 51.2656C106.758 51.9787 106.527 52.6989 106.317 53.4265C106.677 52.8838 107.128 52.4501 107.67 52.1254C107.883 51.9996 108.123 51.8912 108.389 51.8C108.066 51.2674 107.742 50.7254 107.418 50.1736Z" fill="#16355A"/>
<path d="M107.671 52.1253C107.884 51.9995 108.123 51.891 108.389 51.8C108.583 51.7282 108.791 51.6662 109.013 51.6141C109.627 51.5213 110.087 51.4437 110.39 51.3819C111.196 51.1824 111.868 50.8726 112.403 50.4524L112.571 48.7563C113.473 49.2675 114.172 50.2201 114.667 51.6141C115.154 52.9928 115.526 54.4799 115.781 56.0752C115.829 56.5088 115.853 56.811 115.853 56.9813C115.869 57.3377 115.845 57.6397 115.781 57.8875C115.717 58.2128 115.578 58.4761 115.362 58.6775C115.226 58.8015 115.019 58.9253 114.739 59.0493C114.379 59.1771 114.02 59.2777 113.661 59.3515C112.397 59.6004 111.366 59.639 110.57 59.4675C109.764 59.3153 109.081 59.2377 108.521 59.2353C107.953 59.2466 107.349 59.2699 106.712 59.305C106.068 59.3544 105.544 59.269 105.143 59.0495C105.397 57.1339 105.788 55.2597 106.317 53.4268C106.677 52.8837 107.128 52.4499 107.671 52.1253Z" fill="#1688C3"/>
<path d="M114.572 18.714C114.636 19.0705 114.708 19.4498 114.788 19.8524L115.554 24.8711C116.279 31.0845 114.294 39.5495 109.6 50.2664C101.709 43.5711 101.801 30.0718 109.875 9.76868C110.754 10.0628 111.565 11.0153 112.307 12.6265C112.412 12.8434 112.511 13.0836 112.607 13.3469C112.751 13.4706 112.887 13.6411 113.014 13.858C113.469 14.5551 113.897 15.7556 114.296 17.4593L114.345 17.6918C114.416 18.0169 114.492 18.3578 114.572 18.714Z" fill="#2A130C"/>
<path d="M116.452 27.5436C116.437 27.4816 116.42 27.4195 116.404 27.3575L116.477 27.4507C116.468 27.4816 116.461 27.5127 116.452 27.5436Z" fill="#653614"/>
<path d="M116.477 27.4268V27.4499L116.404 27.3568L116.477 27.4268Z" fill="#C87A7A"/>
<path d="M112.739 48.2449C112.739 48.2604 112.735 48.2837 112.727 48.3147C112.607 49.7242 112.531 51.1571 112.499 52.6131C111.577 52.723 110.655 52.723 109.732 52.6131C108.809 52.5184 108.011 52.4488 107.336 52.4037C107.392 51.6757 107.511 50.3128 107.695 48.3147C107.703 48.2373 107.707 48.1598 107.707 48.0824C107.875 46.1153 107.887 44.0164 107.743 41.7858C109.117 45.0387 110.782 47.1917 112.739 48.2449Z" fill="#D0836A"/>
<path d="M107.743 41.7859C109.117 45.0388 110.782 47.1919 112.739 48.245C112.739 48.1832 112.743 48.129 112.751 48.0825C112.967 45.7746 113.282 44.2721 113.698 43.575C113.21 43.2343 112.723 42.847 112.236 42.4132C111.525 41.7319 110.926 41.0036 110.439 40.2292C109.552 36.3877 108.594 34.2501 107.563 33.8165C107.651 38.6183 107.711 41.2748 107.743 41.7859ZM109.432 41.2517C109.48 41.2669 109.524 41.2903 109.564 41.3212H109.432V41.2517Z" fill="#D0836A"/>
<path d="M108.438 10.2333C107.367 10.3882 106.297 10.884 105.227 11.7202C102.599 14.4 101.713 19.5658 102.568 27.2176C103.174 32.6701 105.035 35.2103 108.15 34.8387H108.162C108.162 34.8541 108.162 34.8698 108.162 34.8849V34.9083C109.368 41.0576 111.848 44.3958 115.602 44.9223C116.688 45.2167 117.191 44.5427 117.111 42.9009C117.119 42.8853 117.119 42.8701 117.111 42.8543C117.111 42.8081 117.111 42.7691 117.111 42.7381C117.104 42.5523 117.095 42.3816 117.088 42.2269C117.08 42.1031 117.064 41.9792 117.04 41.8551C116.944 41.3749 116.896 41.1041 116.896 41.042C116.864 40.8098 116.884 40.5618 116.956 40.2985C116.979 40.2056 117.036 40.0507 117.123 39.8338C116.66 39.586 116.313 38.8811 116.081 37.7194L115.83 37.3476C116.037 37.5027 116.221 37.5412 116.381 37.4638C116.532 37.3863 116.752 37.2936 117.04 37.1851C117.231 37.1078 117.419 37.1078 117.603 37.1851C117.627 37.2005 117.651 37.2163 117.675 37.2316C117.618 36.3178 117.682 35.5743 117.866 35.0011C118.785 34.5521 119.112 33.7852 118.848 32.7009C118.848 32.6856 118.848 32.6701 118.848 32.6545C118.809 32.5771 118.769 32.4996 118.729 32.422C118.489 31.9576 118.277 31.4696 118.094 30.9582C117.695 29.936 117.419 28.9911 117.267 28.1238C117.075 27.0549 117.044 25.7771 117.171 24.29C117.203 23.9183 117.255 23.5311 117.327 23.1283C117.327 22.1678 117.271 21.1998 117.159 20.2241C117.064 19.248 116.915 18.2645 116.716 17.2734C116.5 16.2665 116.225 15.4298 115.889 14.7641C115.746 14.4541 115.586 14.1907 115.41 13.9741C115.13 13.6176 114.847 13.3001 114.559 13.0214C112.515 10.8685 110.474 9.93917 108.438 10.2333ZM115.782 26.7532C115.973 26.722 116.145 26.2961 116.297 25.4751C116.225 26.4356 116.053 26.9467 115.782 27.0087C115.885 28.0465 115.885 28.9914 115.782 29.8434V30.1685C114.967 30.7727 114.021 30.3156 112.943 28.7976L112.391 28.054C112.567 28.2709 112.727 28.364 112.87 28.3329C113.573 26.3656 114.484 25.4982 115.602 25.7307C115.754 26.0098 115.813 26.3505 115.782 26.7532ZM117.747 34.6529C117.395 34.7149 117.195 34.6376 117.147 34.4207C117.1 34.1883 117.299 34.2656 117.747 34.6529ZM117.147 34.8851C116.532 34.9472 116.428 34.2887 116.836 32.9103C116.628 33.9636 116.732 34.622 117.147 34.8851Z" fill="#D0836A"/>
<path d="M117.147 34.885C116.532 34.947 116.428 34.2886 116.835 32.9102C116.628 33.9635 116.732 34.6219 117.147 34.885Z" fill="#D0836A"/>
<path d="M117.146 34.4205C117.099 34.1884 117.299 34.2656 117.746 34.6528C117.394 34.7148 117.195 34.6374 117.146 34.4205Z" fill="#D26C6B"/>
<path d="M119.129 84.0747L105.623 97.6786L105.565 101.325C105.621 104.453 104.929 106.049 105.035 111.168C105.168 111.02 105.293 110.828 105.386 110.586C105.386 110.586 105.737 119.081 106.123 118.752C106.51 118.422 106.828 111.313 107.166 110.586C107.166 110.586 107.309 112.001 107.547 112.824C107.785 113.649 111.732 111.014 112.434 109.696C112.434 109.696 113.067 114.149 113.28 114.228C113.493 114.305 114.92 109.143 115.448 103.643C115.448 103.643 116.045 108.544 116.257 108.544C116.47 108.544 117.253 101.586 117.253 101.586C117.253 101.586 118.335 104.297 118.994 105.212C119.053 99.0507 119.094 91.6333 119.129 84.0747Z" fill="#08233F"/>
<path d="M101.578 152.805C102.794 155.959 104.951 157.666 108.047 157.928L108.154 156.25C108.025 156.246 107.338 156.028 106.094 155.597C104.576 155.07 103.066 153.6 101.562 151.187C101.566 151.721 101.571 152.261 101.578 152.805ZM116.775 156.086C114.628 157.044 112.456 157.302 110.259 156.859V158.744C113.486 160.287 116.566 159.209 119.5 155.507C119.511 155.025 119.52 154.535 119.531 154.038C119.335 154.28 119.126 154.502 118.903 154.705C118.326 155.24 117.617 155.7 116.775 156.086Z" fill="#52B750"/>
<path d="M103.056 111.528H119.47C119.738 127.958 119.759 142.128 119.531 154.037C119.335 154.279 119.126 154.502 118.903 154.705C118.327 155.24 117.617 155.7 116.775 156.086C114.628 157.044 112.456 157.301 110.26 156.858V122.1L108.155 156.22V156.25C108.025 156.245 107.339 156.028 106.095 155.597C104.577 155.069 103.066 153.6 101.563 151.187C101.381 132.128 101.878 118.909 103.056 111.528Z" fill="#52B750"/>
<path d="M121.604 214.004C121.584 214.067 121.564 214.123 121.544 214.179C121.472 214.376 121.387 214.557 121.307 214.73C121.279 214.8 121.247 214.862 121.216 214.933C121.157 215.051 121.094 215.169 121.027 215.279C120.998 215.327 120.97 215.376 120.94 215.418C120.864 215.527 120.788 215.637 120.706 215.733C120.567 215.903 120.418 216.052 120.266 216.178C120.24 216.206 120.213 216.226 120.185 216.245C120.174 216.259 120.163 216.265 120.152 216.272C120.307 216.01 120.462 215.739 120.594 215.418C120.608 215.384 120.625 215.341 120.639 215.299C120.728 215.061 120.776 214.834 120.827 214.544C120.845 214.444 120.863 214.345 120.868 214.238C120.872 214.146 120.865 214.052 120.858 213.966C120.825 213.478 120.767 213.288 120.598 213.084C119.372 211.585 117.995 211.059 116.633 211.035C116.545 211.038 116.457 211.032 116.369 211.04C115.257 211.067 114.146 211.387 113.037 211.701C112.874 211.748 112.715 211.797 112.552 211.835C111.83 212.037 111.105 212.208 110.378 212.342C109.284 212.549 108.187 212.677 107.095 212.669C105.557 212.663 104.029 212.399 102.519 211.764C102.194 211.631 101.848 211.273 101.565 210.776C101.539 210.733 101.509 210.681 101.482 210.636C101.44 210.555 101.4 210.473 101.36 210.385C101.328 209.639 101.314 208.994 101.582 208.701C102.093 208.145 102.464 207.236 102.749 206.144C103.029 205.065 103.227 203.81 103.396 202.553C103.799 199.483 103.903 196.197 103.82 192.998C103.694 188.15 103.167 183.471 102.728 178.764C102.524 176.596 102.342 174.408 102.174 172.214C102.142 171.805 102.11 171.387 102.081 170.977C101.101 157.487 100.922 143.846 101.7 130.196C101.728 129.701 101.743 128.031 101.784 127.539C102.256 128.936 103.285 131.191 103.798 132.089C104.672 133.622 105.636 134.804 106.647 135.573C108.687 137.135 110.933 136.976 112.908 134.624C113.849 133.499 114.724 132.012 115.546 130.35C116.275 128.883 118.767 128.182 119.604 127.201C119.756 127.819 119.617 129.394 119.681 130.097C120.815 142.677 121.47 154.855 121.004 168.825C120.833 173.97 120.501 179.155 120.241 184.287C119.824 192.56 120.257 201.078 121.486 208.712C121.631 209.601 121.786 210.499 121.837 211.469C121.883 212.346 121.83 213.3 121.604 214.004Z" fill="#16355A"/>
<path d="M112.122 131.291L112.114 131.27L112.133 131.247L112.122 131.291Z" fill="#D0836A"/>
<path d="M112.107 131.327C112.095 131.341 112.092 131.354 112.097 131.366C112.102 131.398 112.107 131.419 112.112 131.432C112.121 131.513 112.132 131.591 112.147 131.665L112.428 133.537C112.362 132.771 112.261 132.038 112.124 131.336C112.118 131.342 112.112 131.34 112.107 131.327ZM113.976 134.258C113.932 134.035 113.893 133.823 113.86 133.624C113.814 133.438 113.772 133.249 113.733 133.057C113.693 132.865 113.634 132.648 113.556 132.409L113.976 134.258Z" fill="#D0836A"/>
<path d="M111.849 136.033C111.844 135.999 111.834 135.963 111.818 135.924C111.799 135.812 111.778 135.684 111.754 135.538C111.759 135.571 111.763 135.624 111.765 135.697C111.779 135.797 111.795 135.903 111.814 136.015C111.805 136.103 111.81 136.182 111.831 136.254C111.833 136.194 111.839 136.12 111.849 136.033ZM112.832 129.397C112.827 129.363 112.82 129.334 112.809 129.309C112.804 129.296 112.799 129.262 112.796 129.208C112.785 129.182 112.775 129.157 112.764 129.13L111.517 125.687C111.528 125.693 111.534 125.685 111.535 125.665C111.536 125.645 111.533 125.628 111.528 125.615L111.466 125.429C111.217 124.778 110.988 124.075 110.779 123.321C110.659 122.902 110.545 122.381 110.438 121.76L110.166 120.003L110.071 120.171L107.644 120.398L107.613 120.289L107.575 120.362C107.822 121.936 107.96 123.664 107.99 125.548L108.196 129.194L108.217 129.313C108.226 129.379 108.224 129.44 108.21 129.494L108.218 129.514L108.224 129.563C108.24 129.622 108.273 129.824 108.323 130.168L108.473 131.03C108.564 131.539 108.67 132.163 108.793 132.903C109.093 134.608 109.557 136.36 110.186 138.163C110.344 138.592 110.506 139.02 110.67 139.443C110.681 139.469 110.694 139.502 110.71 139.541L110.718 139.56C110.73 139.546 110.74 139.515 110.748 139.467C110.768 139.406 110.772 139.295 110.761 139.136L110.779 139.114C110.771 139.048 110.758 138.985 110.743 138.926C110.704 138.742 110.655 138.558 110.598 138.375L110.6 138.345C110.559 138.18 110.52 138.006 110.481 137.822C110.429 137.651 110.378 137.461 110.328 137.251C110.317 137.224 110.307 137.198 110.296 137.173C110.251 136.975 110.204 136.761 110.155 136.531C110.151 136.498 110.143 136.458 110.134 136.411C110.082 136.241 110.039 136.07 110.005 135.899C109.984 135.826 109.964 135.755 109.943 135.682C109.934 135.636 109.918 135.577 109.898 135.505L108.968 131.146L109.898 135.505C109.918 135.577 109.934 135.636 109.943 135.682C109.964 135.754 109.984 135.826 110.005 135.899C110.039 136.07 110.082 136.241 110.134 136.411C110.143 136.458 110.151 136.497 110.155 136.531C110.204 136.761 110.251 136.975 110.296 137.173C110.307 137.198 110.317 137.224 110.328 137.251C110.378 137.461 110.429 137.651 110.481 137.822C110.52 138.006 110.559 138.18 110.6 138.345L110.598 138.375C110.655 138.558 110.704 138.742 110.743 138.926C110.754 138.952 110.764 138.979 110.775 139.005C110.791 139.043 110.807 139.092 110.821 139.151C110.862 139.296 110.898 139.427 110.928 139.546C111.156 140.299 111.336 140.761 111.469 140.932L111.486 140.941C111.492 140.954 111.498 140.957 111.503 140.95C111.517 140.916 111.518 140.885 111.507 140.859C111.529 140.737 111.533 140.56 111.52 140.327C111.521 140.307 111.523 140.293 111.53 140.286C111.517 140.167 111.5 140.014 111.478 139.829C111.45 139.651 111.425 139.468 111.404 139.282C111.394 139.236 111.387 139.186 111.383 139.133C111.33 139.003 111.289 138.859 111.26 138.7C111.251 138.634 111.242 138.557 111.235 138.471C111.216 138.339 111.208 138.186 111.209 138.012C111.17 137.807 111.132 137.602 111.093 137.398C111.079 137.318 111.067 137.236 111.059 137.15C110.975 136.614 110.895 136.075 110.817 135.531C110.788 135.373 110.763 135.211 110.74 135.045C110.734 135.033 110.732 135.016 110.733 134.996C110.7 134.805 110.67 134.599 110.644 134.381C110.544 133.672 110.435 132.944 110.319 132.197L110.243 131.48L110.319 132.197C110.435 132.944 110.544 133.672 110.644 134.381C110.67 134.599 110.7 134.805 110.733 134.996C110.732 135.016 110.735 135.033 110.74 135.045C110.763 135.211 110.788 135.373 110.817 135.531C110.895 136.075 110.975 136.614 111.059 137.15C111.067 137.236 111.079 137.318 111.093 137.398C111.132 137.602 111.17 137.807 111.209 138.012C111.208 138.186 111.216 138.339 111.235 138.471C111.242 138.557 111.251 138.634 111.26 138.7C111.289 138.859 111.33 139.003 111.383 139.133C111.387 139.186 111.394 139.236 111.404 139.282C111.425 139.468 111.45 139.65 111.478 139.829C111.518 140.013 111.554 140.211 111.586 140.423C111.669 140.979 111.764 141.54 111.869 142.108C111.897 142.133 111.926 142.148 111.955 142.152C111.989 142.17 112.016 142.168 112.034 142.147C112.058 142.138 112.076 142.117 112.089 142.083C112.158 141.985 112.193 141.752 112.196 141.383C112.193 141.023 112.179 140.656 112.153 140.283C112.129 139.851 112.097 139.408 112.056 138.957C112.069 138.789 112.061 138.616 112.033 138.437C111.973 137.759 111.905 137.042 111.83 136.285L111.831 136.255C111.811 136.182 111.805 136.103 111.814 136.015C111.796 135.903 111.779 135.797 111.765 135.697C111.763 135.624 111.759 135.571 111.754 135.538L111.224 132.355L111.754 135.538C111.778 135.684 111.799 135.813 111.818 135.925C111.834 135.964 111.844 136 111.849 136.033C111.864 136.092 111.871 136.152 111.868 136.212C111.974 136.78 112.074 137.278 112.168 137.706C112.197 137.864 112.22 138.01 112.238 138.143C112.345 138.67 112.44 139.144 112.523 139.567C112.825 141.077 113.004 141.837 113.062 141.846C113.073 141.872 113.084 141.889 113.096 141.894C113.107 141.9 113.116 141.889 113.123 141.862C113.159 141.839 113.187 141.807 113.206 141.766C113.326 141.397 113.271 140.224 113.04 138.248C113.033 138.121 113.018 137.985 112.995 137.84C112.905 137.157 112.804 136.459 112.692 135.744L112.493 134.163L112.222 132.177C112.207 132.097 112.196 132.015 112.188 131.929C112.182 131.916 112.178 131.892 112.173 131.859C112.168 131.846 112.171 131.833 112.183 131.818C112.178 131.805 112.173 131.782 112.169 131.749C112.163 131.736 112.158 131.723 112.153 131.71L112.145 131.691L112.163 131.669L112.156 131.65C112.161 131.509 112.165 131.399 112.169 131.318C112.184 131.07 112.241 130.888 112.339 130.775C112.241 130.888 112.184 131.07 112.169 131.318C112.165 131.399 112.161 131.509 112.156 131.65L112.163 131.669L112.153 131.71C112.158 131.723 112.163 131.736 112.169 131.749C112.173 131.782 112.178 131.805 112.183 131.818C112.189 131.831 112.195 131.834 112.201 131.827C112.483 132.229 112.813 133.179 113.191 134.677C113.212 134.749 113.23 134.815 113.244 134.874C113.285 135.038 113.325 135.213 113.364 135.397C113.604 136.404 113.873 137.137 114.17 137.598C114.202 137.676 114.235 137.734 114.268 137.772C114.285 137.791 114.296 137.807 114.301 137.82C114.491 138.04 114.619 138.142 114.683 138.125C114.712 138.129 114.731 138.098 114.74 138.031C114.747 138.003 114.748 137.983 114.742 137.97C114.506 136.997 114.299 136.115 114.12 135.325L114.056 134.968L113.643 133.001C113.601 132.743 113.559 132.486 113.517 132.228C113.471 131.936 113.414 131.628 113.343 131.307L112.88 129.514L112.832 129.397Z" fill="#D0836A"/>
<path d="M113.465 131.372C113.419 131.077 113.361 130.768 113.291 130.445C113.373 130.792 113.438 131.12 113.489 131.431C113.52 131.665 113.554 131.905 113.591 132.151C113.549 131.892 113.507 131.632 113.465 131.372Z" fill="#D0836A"/>
<path d="M111.923 142.19C111.949 142.199 111.97 142.195 111.986 142.177C112.011 142.167 112.03 142.144 112.044 142.109C112.113 142.011 112.149 141.774 112.152 141.407C112.149 141.048 112.134 140.679 112.108 140.312C112.085 139.884 112.052 139.44 112.012 138.994C112.025 138.826 112.017 138.651 111.989 138.473C111.928 137.791 111.859 137.072 111.787 136.339L111.788 136.31C111.788 136.308 111.788 136.307 111.787 136.306V136.305C111.787 136.304 111.787 136.302 111.787 136.301C111.767 136.233 111.762 136.157 111.771 136.073C111.771 136.071 111.771 136.068 111.77 136.066C111.753 135.963 111.738 135.864 111.725 135.773C111.738 135.85 111.749 135.917 111.76 135.979C111.76 135.981 111.76 135.983 111.761 135.985C111.776 136.021 111.786 136.055 111.79 136.085C111.805 136.144 111.811 136.201 111.809 136.259C111.809 136.261 111.809 136.263 111.809 136.265C111.915 136.829 112.016 137.329 112.109 137.748C112.137 137.905 112.161 138.049 112.178 138.18C112.286 138.706 112.382 139.181 112.463 139.596C112.856 141.551 112.963 141.846 113.006 141.87C113.017 141.896 113.029 141.912 113.042 141.918C113.057 141.924 113.068 141.914 113.076 141.885C113.112 141.862 113.14 141.829 113.159 141.787C113.28 141.418 113.224 140.238 112.994 138.28C112.988 138.154 112.973 138.017 112.949 137.873C112.861 137.202 112.759 136.502 112.647 135.792L112.448 134.222L112.177 132.248C112.163 132.17 112.152 132.087 112.143 132.003C112.143 132 112.143 131.997 112.142 131.995C112.139 131.988 112.134 131.971 112.129 131.933C112.128 131.931 112.128 131.928 112.127 131.927C112.127 131.924 112.127 131.918 112.132 131.911C112.137 131.918 112.143 131.921 112.149 131.918C112.427 132.315 112.757 133.262 113.13 134.733C113.152 134.807 113.17 134.871 113.184 134.929C113.224 135.092 113.264 135.267 113.303 135.447C113.543 136.444 113.814 137.181 114.11 137.637C114.142 137.715 114.176 137.774 114.21 137.812C114.23 137.834 114.237 137.847 114.24 137.855C114.241 137.857 114.242 137.859 114.243 137.859C114.437 138.082 114.564 138.182 114.63 138.163C114.661 138.168 114.683 138.134 114.692 138.061C114.699 138.032 114.7 138.008 114.693 137.99C114.458 137.025 114.25 136.142 114.073 135.366L114.009 135.013L113.597 133.059C113.56 132.817 113.526 132.579 113.494 132.35C113.444 132.046 113.378 131.718 113.296 131.376C113.296 131.375 113.296 131.375 113.296 131.374L112.834 129.595L112.786 129.478C112.781 129.444 112.773 129.414 112.762 129.387C112.76 129.383 112.755 129.364 112.751 129.296C112.75 129.294 112.75 129.291 112.749 129.289L112.717 129.211L111.472 125.794C111.469 125.787 111.464 125.785 111.461 125.788C111.458 125.792 111.457 125.799 111.459 125.807L112.705 129.224L112.735 129.298C112.74 129.37 112.747 129.391 112.751 129.4C112.76 129.424 112.767 129.452 112.772 129.483C112.772 129.485 112.772 129.487 112.773 129.489L112.821 129.605L113.283 131.382C113.283 131.382 113.283 131.382 113.283 131.382C113.352 131.698 113.41 132.006 113.455 132.294L113.582 133.062C113.582 133.063 113.582 133.064 113.583 133.065L113.994 135.016L114.058 135.37C114.235 136.148 114.444 137.032 114.68 137.998C114.68 137.999 114.68 138 114.681 138.001C114.682 138.004 114.685 138.016 114.677 138.047C114.669 138.11 114.652 138.139 114.627 138.134C114.563 138.152 114.437 138.052 114.251 137.838C114.244 137.824 114.233 137.807 114.216 137.789C114.184 137.752 114.152 137.696 114.121 137.621C114.12 137.621 114.12 137.619 114.12 137.618C113.826 137.166 113.556 136.433 113.317 135.442C113.279 135.261 113.239 135.086 113.198 134.922C113.183 134.864 113.166 134.8 113.145 134.725C112.768 133.243 112.434 132.289 112.153 131.891C112.15 131.887 112.146 131.886 112.144 131.889C112.141 131.892 112.14 131.892 112.138 131.886C112.135 131.879 112.13 131.862 112.124 131.823C112.124 131.822 112.123 131.82 112.123 131.818L112.11 131.786L112.118 131.752C112.119 131.748 112.119 131.743 112.117 131.738L112.111 131.724C112.117 131.589 112.121 131.483 112.124 131.404V131.399C112.14 131.157 112.196 130.978 112.292 130.867C112.295 130.863 112.296 130.854 112.293 130.847C112.29 130.84 112.285 130.838 112.282 130.842C112.183 130.957 112.125 131.141 112.109 131.39V131.396C112.105 131.475 112.101 131.584 112.096 131.721C112.096 131.724 112.096 131.728 112.097 131.732L112.102 131.744L112.094 131.777C112.093 131.782 112.093 131.787 112.095 131.792L112.11 131.827C112.114 131.853 112.118 131.872 112.121 131.887C112.115 131.896 112.112 131.906 112.111 131.916C112.111 131.923 112.112 131.93 112.115 131.937C112.118 131.968 112.123 131.99 112.129 132.005C112.137 132.091 112.149 132.173 112.163 132.25L112.433 134.223L112.633 135.793C112.745 136.504 112.846 137.204 112.934 137.875C112.958 138.018 112.973 138.153 112.979 138.278C113.209 140.231 113.264 141.405 113.146 141.768C113.129 141.806 113.102 141.837 113.067 141.859C113.065 141.861 113.064 141.863 113.064 141.865C113.056 141.896 113.047 141.893 113.044 141.891C113.035 141.887 113.025 141.872 113.016 141.85C113.014 141.846 113.012 141.844 113.009 141.843C113.009 141.843 113.009 141.843 113.008 141.843C112.977 141.833 112.866 141.523 112.478 139.592C112.397 139.177 112.301 138.701 112.194 138.178C112.176 138.048 112.152 137.902 112.124 137.744C112.031 137.325 111.93 136.827 111.825 136.264C111.827 136.202 111.82 136.141 111.805 136.081C111.801 136.051 111.79 136.013 111.774 135.974C111.756 135.868 111.736 135.743 111.711 135.592L111.182 132.431C111.18 132.422 111.176 132.418 111.172 132.418C111.168 132.418 111.166 132.425 111.167 132.433L111.696 135.594C111.7 135.625 111.704 135.676 111.707 135.749C111.721 135.848 111.737 135.954 111.756 136.065C111.747 136.152 111.752 136.233 111.772 136.306L111.771 136.332C111.771 136.333 111.771 136.334 111.771 136.335C111.845 137.069 111.913 137.788 111.974 138.473C112.002 138.65 112.01 138.821 111.997 138.986C111.997 138.987 111.997 138.989 111.997 138.99C112.038 139.437 112.07 139.88 112.093 140.308C112.119 140.676 112.134 141.043 112.137 141.4C112.134 141.76 112.099 141.992 112.032 142.087C112.019 142.121 112.002 142.141 111.98 142.149C111.979 142.149 111.979 142.149 111.978 142.15C111.962 142.17 111.937 142.172 111.905 142.155C111.877 142.15 111.85 142.137 111.825 142.116C111.72 141.557 111.625 140.997 111.543 140.45C111.51 140.24 111.474 140.041 111.436 139.858H111.435C111.408 139.683 111.383 139.501 111.361 139.318C111.351 139.271 111.345 139.223 111.341 139.171C111.341 139.168 111.34 139.166 111.339 139.163C111.287 139.037 111.246 138.894 111.218 138.739C111.209 138.675 111.201 138.601 111.192 138.514C111.174 138.383 111.166 138.23 111.167 138.059C111.167 138.058 111.167 138.056 111.167 138.054C111.128 137.851 111.089 137.648 111.051 137.445C111.037 137.368 111.025 137.285 111.017 137.2C110.934 136.669 110.852 136.128 110.776 135.592C110.747 135.433 110.721 135.272 110.698 135.109C110.698 135.107 110.698 135.105 110.697 135.103C110.693 135.093 110.691 135.08 110.692 135.064C110.692 135.062 110.692 135.061 110.691 135.059C110.659 134.871 110.629 134.666 110.602 134.449C110.503 133.751 110.394 133.021 110.278 132.278L110.202 131.568C110.201 131.559 110.197 131.554 110.193 131.553C110.188 131.553 110.186 131.559 110.186 131.567L110.263 132.279C110.379 133.023 110.488 133.753 110.587 134.45C110.613 134.666 110.644 134.871 110.676 135.059C110.675 135.08 110.678 135.098 110.684 135.113C110.706 135.276 110.732 135.437 110.76 135.595C110.838 136.129 110.919 136.67 111.002 137.2C111.01 137.285 111.022 137.37 111.036 137.448C111.075 137.651 111.113 137.853 111.151 138.056C111.15 138.228 111.159 138.382 111.177 138.514C111.185 138.601 111.194 138.675 111.203 138.741C111.232 138.9 111.273 139.044 111.326 139.173C111.33 139.225 111.337 139.275 111.346 139.321C111.368 139.502 111.392 139.684 111.42 139.862C111.441 140.036 111.458 140.186 111.471 140.307C111.466 140.317 111.463 140.332 111.461 140.352C111.476 140.584 111.472 140.76 111.45 140.878C111.449 140.883 111.449 140.888 111.451 140.892C111.454 140.899 111.463 140.922 111.447 140.964C111.446 140.965 111.446 140.966 111.445 140.965H111.445C111.444 140.965 111.443 140.964 111.442 140.96C111.441 140.957 111.439 140.955 111.436 140.953L111.421 140.946C111.29 140.777 111.11 140.317 110.886 139.578C110.856 139.461 110.82 139.33 110.779 139.187C110.763 139.127 110.748 139.077 110.732 139.038C110.722 139.013 110.711 138.988 110.701 138.963C110.662 138.782 110.614 138.599 110.557 138.42L110.558 138.394C110.559 138.392 110.558 138.389 110.558 138.387C110.517 138.223 110.478 138.048 110.439 137.868C110.387 137.698 110.336 137.507 110.287 137.301C110.286 137.299 110.286 137.299 110.285 137.297C110.275 137.272 110.265 137.246 110.254 137.222C110.21 137.026 110.163 136.813 110.114 136.587C110.11 136.555 110.102 136.514 110.093 136.468C110.041 136.299 109.998 136.129 109.964 135.96C109.943 135.887 109.923 135.815 109.902 135.743C109.893 135.699 109.877 135.639 109.857 135.567L108.928 131.241C108.927 131.233 108.922 131.228 108.918 131.229C108.914 131.231 108.912 131.238 108.914 131.246L109.843 135.574C109.864 135.647 109.879 135.706 109.889 135.749C109.91 135.824 109.93 135.895 109.95 135.967C109.984 136.135 110.028 136.307 110.079 136.476C110.088 136.518 110.095 136.557 110.099 136.589C110.149 136.819 110.196 137.034 110.241 137.23C110.241 137.231 110.241 137.233 110.242 137.233C110.252 137.259 110.263 137.284 110.273 137.309C110.322 137.516 110.374 137.707 110.425 137.876C110.463 138.053 110.503 138.226 110.543 138.39L110.542 138.417C110.542 138.42 110.542 138.423 110.543 138.426C110.6 138.605 110.648 138.789 110.687 138.971C110.687 138.971 110.687 138.972 110.687 138.972C110.702 139.027 110.713 139.085 110.722 139.147L110.707 139.164C110.705 139.166 110.704 139.171 110.705 139.175C110.715 139.33 110.711 139.439 110.692 139.498C110.686 139.537 110.678 139.563 110.669 139.579L110.647 139.525C110.64 139.507 110.633 139.49 110.627 139.475C110.464 139.057 110.301 138.629 110.144 138.206C109.52 136.428 109.052 134.672 108.753 132.989C108.633 132.259 108.525 131.632 108.435 131.128L108.285 130.272C108.234 129.926 108.202 129.729 108.186 129.669L108.18 129.623C108.18 129.621 108.179 129.619 108.179 129.617L108.174 129.605C108.187 129.55 108.189 129.489 108.179 129.424L108.158 129.304L107.953 125.684C107.953 125.676 107.949 125.67 107.945 125.668H107.945C107.94 125.667 107.938 125.673 107.938 125.68L108.142 129.304L108.164 129.426C108.173 129.487 108.171 129.545 108.157 129.596C108.156 129.601 108.157 129.606 108.158 129.611L108.166 129.627L108.172 129.674C108.187 129.734 108.22 129.935 108.27 130.275L108.42 131.132C108.51 131.636 108.618 132.262 108.739 132.992C109.037 134.679 109.506 136.437 110.132 138.217C110.289 138.643 110.451 139.07 110.615 139.489C110.621 139.504 110.628 139.52 110.636 139.539L110.663 139.605C110.666 139.612 110.671 139.615 110.674 139.611C110.688 139.595 110.698 139.563 110.707 139.513C110.726 139.452 110.731 139.345 110.72 139.186L110.735 139.168C110.738 139.165 110.738 139.16 110.738 139.155C110.733 139.121 110.728 139.088 110.722 139.056C110.736 139.093 110.751 139.138 110.766 139.196C110.807 139.339 110.842 139.47 110.873 139.587C111.099 140.334 111.282 140.799 111.415 140.97C111.417 140.971 111.418 140.972 111.419 140.972L111.433 140.979C111.436 140.986 111.44 140.991 111.444 140.992C111.449 140.995 111.454 140.994 111.458 140.988C111.459 140.988 111.46 140.987 111.46 140.986C111.474 140.95 111.476 140.916 111.466 140.886C111.488 140.764 111.491 140.587 111.478 140.358C111.478 140.344 111.481 140.333 111.485 140.329C111.487 140.327 111.488 140.322 111.488 140.317C111.479 140.235 111.469 140.142 111.457 140.037C111.482 140.17 111.506 140.309 111.528 140.453C111.611 141.003 111.706 141.566 111.811 142.128C111.812 142.132 111.814 142.137 111.817 142.138C111.846 142.164 111.876 142.179 111.906 142.184C111.911 142.186 111.918 142.189 111.923 142.19Z" fill="#D0836A"/>
<path d="M112.976 140.919C113.023 141.301 113.046 141.608 113.043 141.841C112.932 141.928 112.854 141.904 112.808 141.769C112.776 141.641 112.719 141.238 112.638 140.56C112.821 140.41 112.933 140.53 112.976 140.919Z" fill="#D0836A"/>
<path d="M111.877 141.754C111.924 142.136 111.945 142.443 111.94 142.675C111.828 142.76 111.75 142.735 111.705 142.599C111.673 142.47 111.618 142.066 111.541 141.389C111.726 141.242 111.838 141.364 111.877 141.754Z" fill="#D0836A"/>
<path d="M111.218 140.544C111.304 140.916 111.358 141.221 111.381 141.46C111.287 141.592 111.213 141.598 111.157 141.477C111.112 141.358 111.016 140.968 110.868 140.307C111.021 140.083 111.137 140.162 111.218 140.544Z" fill="#D0836A"/>
<path d="M110.464 139.325C110.568 139.649 110.64 139.912 110.679 140.112C110.611 140.194 110.548 140.179 110.49 140.065C110.442 139.958 110.328 139.615 110.146 139.039C110.257 138.898 110.363 138.994 110.464 139.325Z" fill="#D0836A"/>
<path d="M114.057 135.798C114.167 135.411 114.259 135.414 114.33 135.807C114.391 136.195 114.503 136.724 114.669 137.395C114.526 137.32 114.426 137.227 114.366 137.117C114.301 136.984 114.197 136.545 114.057 135.798Z" fill="#D0836A"/>
<path d="M110.106 94.6395C110.096 95.448 110.086 96.2146 110.077 96.9401C109.118 96.3463 108.102 96.0562 107.029 96.0699C106.513 96.0734 106.075 96.1968 105.716 96.4395C105.692 95.7278 105.679 95.0366 105.678 94.3666C105.863 94.2507 106.065 94.1616 106.286 94.0992C106.684 93.9881 107.243 93.9627 107.962 94.0217C108.608 94.0869 109.136 94.1973 109.545 94.3536C109.742 94.4366 109.929 94.5319 110.106 94.6395Z" fill="#C71D65"/>
<path d="M110.076 96.9401C110.04 99.7769 110.01 102.101 109.985 103.914C109.928 107.287 109.937 110.048 110.014 112.198C110.108 115.091 110.252 117.719 110.445 120.08L107.887 121.409C106.617 111.122 105.894 102.799 105.716 96.4395C106.075 96.1961 106.512 96.0734 107.029 96.0699C108.102 96.0562 109.117 96.3463 110.076 96.9401Z" fill="#D0836A"/>
<path d="M106.386 77.6667C106.479 70.8068 106.87 64.7506 107.56 59.4979C109.714 57.6397 111.308 58.495 112.342 62.0642C112.133 68.6722 111.776 74.2224 111.268 78.7138L110.174 88.5675C110.15 90.7762 110.128 92.7997 110.108 94.6395C109.931 94.5318 109.744 94.4358 109.547 94.3535C109.137 94.1972 108.609 94.0868 107.963 94.0217C107.244 93.9627 106.685 93.9881 106.287 94.0991C106.067 94.1615 105.865 94.2507 105.679 94.3666C105.647 91.5716 105.738 89.2148 105.955 87.2962L106.386 77.6667Z" fill="#1688C3"/>
<path d="M108.406 27.7997C108.406 27.7997 108.73 29.5476 109.035 26.7607C109.816 19.6904 115.492 24.0702 117.29 20.0311L116.687 11.9896C116.687 11.9896 116.932 10.3473 115.397 10.3473C111.203 10.3473 107.137 12.8513 108.18 27.3733C108.18 27.3733 108.18 27.3733 108.406 27.7997Z" fill="#2B1116"/>
<path d="M116.831 19.0886L116.428 13.7206C116.166 15.013 115.542 16.1008 114.25 16.3843C111.883 16.9048 108.906 20.1351 108.906 20.1351C109.509 15.3421 111.242 12.0464 112.631 10.0884C109.414 11.1326 106.901 15.0046 107.747 26.7806C107.747 26.7806 107.747 26.7806 107.972 27.207C107.972 27.207 108.297 28.9548 108.602 26.1679C109.354 19.3539 114.653 23.1732 116.646 19.8448C116.713 19.6024 116.774 19.3495 116.831 19.0886Z" fill="#2B1116"/>
<path d="M122.744 70.4448C121.318 66.1975 118.129 59.7247 117.957 59.1851C117.782 58.6468 114.392 50.8889 114.392 50.8889C113.283 51.5878 111.929 51.8484 110.775 51.9538C109.476 52.0726 108.431 51.9947 108.274 52.1249C108.274 52.1249 108.484 49.8022 107.419 50.1733C106.165 50.6098 104.408 61.5538 104.408 66.9051C104.408 72.2537 103.601 89.954 103.05 92.4205C103.05 92.4205 104.069 94.3974 105.724 94.8925C105.724 94.8925 105.214 99.0075 105.511 99.6658C105.809 100.324 116.444 100.761 122.366 92.3657" fill="#1688C3"/>
<path d="M122.334 92.413C122.345 92.3973 122.356 92.3815 122.368 92.3657L122.334 92.413Z" fill="#126A8D"/>
<path d="M122.263 86.7091C115.543 94.2431 109.448 95.3676 105.59 96.1274C105.465 97.396 105.322 99.2426 105.512 99.6657C105.809 100.323 116.405 100.759 122.334 92.4129" fill="#126A8D"/>
<path d="M115.156 80.5187C111.038 71.9376 110.509 61.8249 110.55 56.6533C110.254 56.8963 110.011 57.0967 109.856 57.228C108.495 78.6713 115.156 80.5187 115.156 80.5187Z" fill="#126A8D"/>
<path d="M112.166 55.048C112.166 55.048 113.901 74.0839 118.06 75.6761C118.06 75.6761 112.866 78.445 112.166 55.048Z" fill="#126A8D"/>
<path d="M114.427 54.7902L111.286 50.1975L112.458 49.9506L112.636 48.6173L114.427 54.7902Z" fill="#D0836A"/>
<path d="M105.651 34.4043C105.651 34.4043 104.042 39.6505 106.549 46.3318C109.055 53.0147 108.424 37.8145 108.424 37.8145" fill="#2B1116"/>
<path d="M103.526 32.6842C103.526 32.6842 104.242 34.6409 104.283 31.0051C104.393 21.7778 113.182 23.631 115.19 17.5115L113.17 7.95198C113.17 7.95198 113.287 5.7684 111.08 6.7313C105.048 9.36154 99.5589 15.0062 103.141 32.2986C103.141 32.2986 103.141 32.2986 103.526 32.6842Z" fill="#2B1116"/>
<path d="M117.389 19.0045C117.389 19.0045 116.927 20.7939 115.97 18.7992C115.157 17.1054 114.264 15.9621 113.475 13.4336L108.224 9.49922C108.224 9.49922 108.312 7.68345 109.817 7.2592C111.47 6.79298 117.613 5.66653 117.667 18.501C117.667 18.5007 117.667 18.5007 117.389 19.0045Z" fill="#2B1116"/>
<path d="M115.612 17.1944L114.263 10.8131C114.072 12.5744 113.331 14.3099 111.512 15.4711C108.184 17.5981 104.365 23.4575 104.365 23.4575C104.546 17.1562 106.566 11.9962 108.283 8.70532C103.806 12.0133 100.746 18.3749 103.65 32.3973C103.65 32.3973 103.65 32.3973 104.036 32.7829C104.036 32.7829 104.752 34.7395 104.792 31.1037C104.898 22.2111 113.065 23.608 115.455 18.2446C115.516 17.9031 115.568 17.5522 115.612 17.1944Z" fill="#2B1116"/>
<path d="M109.059 38.4444L108.842 36.5926C108.842 36.5926 108.587 36.9877 108.218 36.1235C108.218 36.1235 108.066 35.4816 108.32 34.9878L107.531 33.9753L107.162 32.5926L106.945 30.5926L107.314 28.3704L107.607 28.2222L107.798 27.432L108.651 29.9751L108.906 30.4442C108.906 30.4442 109.122 31.1849 109.135 31.2591C109.148 31.3331 109.352 31.0862 109.352 31.0862L109.543 30.6171C109.543 30.6171 109.39 29.5553 109.364 29.4813C109.339 29.4073 109.16 28.7407 109.16 28.7407L108.995 28.5431L108.855 27.7778C108.855 27.7778 108.766 27.2593 108.74 27.1851C108.715 27.1111 108.422 26.2962 108.422 26.2962L108.155 25.6049L108.002 25.1604C108.002 25.1604 107.9 24.7653 107.824 24.6173C107.748 24.4693 107.582 24.0742 107.442 23.9013C107.302 23.7284 107.225 23.6791 107.086 23.852C106.945 24.0249 106.767 24.3704 106.627 24.5926C106.487 24.8149 106.372 25.1111 106.207 25.4075C106.041 25.7038 106.016 25.778 105.748 26.1482C105.481 26.5187 105.341 26.7408 105.163 27.2346C104.985 27.7284 104.946 27.7531 104.806 28.3457C104.667 28.9384 104.539 29.5062 104.539 29.5062C104.539 29.5062 104.45 29.9507 104.361 30.3951C104.272 30.8396 104.246 30.7409 104.246 31.0864C104.246 31.432 104.272 31.6544 104.336 32.074C104.399 32.4938 104.577 33.4567 104.577 33.4567C104.577 33.4567 104.348 33.1357 104.361 33.3084C104.374 33.4813 104.501 34.1727 104.539 34.2713C104.577 34.37 104.246 33.9009 104.781 35.0367C105.316 36.1724 105.685 37.0366 105.99 37.4564C106.296 37.8762 106.793 38.1971 106.793 38.1971C106.793 38.1971 107.34 38.4193 107.582 38.6415C107.824 38.8638 108.117 39.012 108.244 39.086C108.371 39.16 108.766 39.4811 108.766 39.4811C108.766 39.4811 108.868 39.5057 109.008 39.6293C109.148 39.7529 109.059 38.4444 109.059 38.4444Z" fill="#2B1116"/>
<path d="M104.22 32.716L104.666 32.4445L105.175 33.7531L104.526 34.1729L104.029 32.9136L104.22 32.716Z" fill="#2B1116"/>
<path d="M107.632 26.642L108.09 28.0739L108.306 28.6173L107.657 28.2222L107.632 26.642Z" fill="#2B1116"/>
<path d="M108.868 29.9356C108.868 29.9356 107.994 26.899 107.004 27.818C106.45 28.3314 106.997 36.3445 108.895 35.9243C108.895 35.9243 109.232 35.7014 109.251 34.4098L108.868 29.9356Z" fill="#D0836A"/>
<path opacity="0.4" d="M107.45 28.8178C107.45 28.8178 106.926 31.8965 107.662 32.6085C107.662 32.6085 108.052 32.841 108.032 33.172C108.011 33.5039 108.196 35.7254 108.63 35.0071C108.63 35.0071 108.965 33.9901 108.541 33.619C108.116 33.249 108.415 33.2292 108.747 32.4189C108.747 32.4189 108.104 28.5819 107.45 28.8178Z" fill="#A56550"/>
<path d="M107.283 31.0823C107.235 30.5181 107.203 29.9436 107.252 29.3483C107.265 29.1998 107.284 29.0465 107.332 28.8907C107.362 28.7292 107.514 28.5717 107.613 28.6437C107.644 28.6448 107.701 28.7014 107.745 28.7427C107.79 28.7901 107.816 28.8339 107.852 28.881C107.915 28.9788 107.973 29.0809 108.025 29.1905C108.24 29.6216 108.407 30.1092 108.555 30.6226C108.629 30.8783 108.692 31.1497 108.744 31.4347C108.793 31.7225 108.847 32.0139 108.817 32.4006L108.81 32.4763L108.779 32.5317C108.668 32.7294 108.556 32.9665 108.482 33.1926C108.465 33.2463 108.449 33.3063 108.445 33.3441C108.437 33.3955 108.442 33.3692 108.438 33.3817C108.447 33.397 108.459 33.4077 108.511 33.4328C108.546 33.4463 108.593 33.4738 108.649 33.5383C108.841 33.7901 108.842 34.237 108.792 34.5483C108.742 34.8697 108.622 35.1737 108.458 35.2539C108.602 35.0947 108.678 34.7968 108.696 34.5072C108.713 34.221 108.67 33.9097 108.566 33.8179C108.555 33.8107 108.545 33.8021 108.534 33.7921L108.473 33.7741C108.446 33.7627 108.375 33.7585 108.317 33.673C108.252 33.5854 108.226 33.3876 108.241 33.2845C108.248 33.1641 108.268 33.0781 108.289 32.9925C108.374 32.6641 108.486 32.4265 108.605 32.1783L108.569 32.3101C108.578 32.1254 108.544 31.8523 108.494 31.609C108.448 31.3585 108.383 31.1146 108.318 30.8712C108.184 30.3892 108.027 29.9177 107.848 29.505C107.805 29.399 107.755 29.3085 107.707 29.2181C107.685 29.1812 107.656 29.1267 107.637 29.1021C107.616 29.0834 107.615 29.0427 107.571 29.0274C107.529 28.9978 107.519 28.9937 107.48 29.087C107.447 29.1681 107.421 29.2908 107.402 29.4183C107.327 29.9374 107.302 30.5146 107.283 31.0823Z" fill="#985339"/>
<path d="M107.595 31.8041C107.595 31.8041 107.525 31.2092 107.576 30.5769C107.601 30.2638 107.666 29.9347 107.771 29.7312C107.824 29.6352 107.874 29.5594 107.915 29.5265C107.954 29.4878 107.977 29.4672 107.977 29.4672L108.052 29.9712C108.054 29.9796 107.997 29.978 107.921 30.0663C107.845 30.154 107.76 30.3765 107.707 30.6445C107.596 31.1843 107.595 31.8041 107.595 31.8041Z" fill="#985339"/>
<path d="M109.034 35.7912C109.019 36.3286 108.782 36.7396 108.505 36.7112C108.228 36.6827 108.016 36.2254 108.031 35.6881C108.046 35.1528 108.281 34.741 108.558 34.7695C108.835 34.7979 109.048 35.2559 109.034 35.7912Z" fill="#EA882B"/>
<path d="M108.827 35.7699C108.819 36.0896 108.68 36.3337 108.515 36.3167C108.351 36.2999 108.225 36.0287 108.234 35.7088C108.243 35.3907 108.383 35.1466 108.547 35.1634C108.711 35.1803 108.836 35.4521 108.827 35.7699Z" fill="#B16327"/>
<path d="M109.08 32.2962L109.47 32.3126C109.47 32.3126 109.755 31.078 109.432 29.8435C109.432 29.8435 109.165 28.4773 108.97 27.8271C108.97 27.8271 108.957 27.3004 109.097 26.2633L108.248 26.2386L108.235 27.6295L108.528 28.2962L108.766 29.0615L108.881 29.8104L109.012 30.2878L108.982 30.3371L109.106 30.9215L109.08 32.2962Z" fill="#2B1116"/>
<path d="M117.164 39.7098C116.272 38.8374 115.887 37.653 115.887 37.653L117.641 37.7443" fill="#CA406D"/>
<path d="M117.676 37.978C115.783 37.978 115.664 37.4464 115.76 37.4049C115.856 37.3633 116.648 37.3969 116.959 37.2102C117.27 37.0235 117.534 37.1357 117.668 37.2222C117.668 37.2222 117.736 37.7873 117.676 37.978Z" fill="#A42046"/>
<path d="M117.117 39.944C116.479 39.5775 116.223 38.7885 116.191 38.2747C116.191 38.2747 116.461 39.0553 117.189 39.4736C117.189 39.4736 117.185 39.7875 117.116 39.9317L117.117 39.944Z" fill="#A42046"/>
<path d="M117.539 37.9768L117.593 38.0024C117.593 38.0024 117.56 38.5573 117.221 39.5348C117.221 39.5348 117.213 39.5364 117.204 39.528L117.129 39.401L117.151 39.276L117.539 37.9768Z" fill="#CA406D"/>
<path d="M116.104 25.0322C115.914 25.3944 115.466 24.2044 114.639 23.7435C113.812 23.2826 113.107 23.5973 112.704 24.0908C112.704 24.0908 113.199 22.7166 114.432 22.7319C115.666 22.7473 116.353 24.5602 116.104 25.0322Z" fill="#1C0C0E"/>
<path d="M114.42 27.1611C114.946 26.8965 115.4 26.8421 115.78 26.9978C115.885 28.0407 115.885 28.9901 115.78 29.8462C114.922 30.3909 114.024 29.9863 113.085 28.6323C113.457 27.9005 113.902 27.4103 114.42 27.1611Z" fill="white"/>
<path d="M114.664 26.9042C114.802 26.5617 114.967 26.3906 115.162 26.3906C115.348 26.3906 115.514 26.5617 115.659 26.9042C115.797 27.2622 115.865 27.6902 115.865 28.1882C115.865 28.6706 115.797 29.0753 115.659 29.4021C115.514 29.7602 115.348 29.9391 115.162 29.9391C114.967 29.9391 114.802 29.76 114.664 29.4021C114.518 29.0753 114.445 28.6706 114.445 28.1882C114.445 27.6902 114.518 27.2622 114.664 26.9042Z" fill="#2B1116"/>
<path d="M115.136 28.9355C115.055 28.7331 115.015 28.4842 115.015 28.1884C115.015 27.8926 115.055 27.6437 115.136 27.4413C115.217 27.2388 115.314 27.1377 115.428 27.1377C115.549 27.1377 115.65 27.2388 115.731 27.4413C115.82 27.6437 115.864 27.8926 115.864 28.1884C115.864 28.4842 115.82 28.7331 115.731 28.9355C115.65 29.1535 115.549 29.2624 115.428 29.2624C115.314 29.2624 115.217 29.1533 115.136 28.9355Z" fill="#1C0C0E"/>
<path d="M115.544 27.6079C115.614 27.6079 115.675 27.6639 115.726 27.7756C115.771 27.9035 115.793 28.0552 115.793 28.231C115.793 28.4068 115.771 28.5506 115.726 28.6623C115.675 28.7901 115.615 28.8541 115.544 28.8541C115.474 28.8541 115.417 28.7901 115.373 28.6623C115.322 28.5506 115.296 28.4068 115.296 28.231C115.296 28.0552 115.321 27.9035 115.373 27.7756C115.417 27.6639 115.474 27.6079 115.544 27.6079Z" fill="#1D1918"/>
<path d="M115.029 28.0017C114.998 27.9417 114.981 27.852 114.981 27.7322C114.981 27.6324 114.998 27.5424 115.029 27.4626C115.053 27.3829 115.089 27.3429 115.137 27.3429C115.177 27.3429 115.212 27.3829 115.244 27.4626C115.276 27.5424 115.292 27.6324 115.292 27.7322C115.292 27.852 115.276 27.942 115.244 28.0017C115.212 28.0815 115.177 28.1215 115.137 28.1215C115.089 28.1215 115.053 28.0815 115.029 28.0017Z" fill="white"/>
<path d="M115.78 26.9978C115.399 26.8422 114.946 26.8967 114.42 27.1611C113.902 27.4103 113.456 27.9005 113.084 28.632C114.023 29.986 114.922 30.3909 115.78 29.846V30.1729C114.954 30.78 113.995 30.3207 112.902 28.7953L112.344 28.0483C112.522 28.2662 112.684 28.3596 112.829 28.3284C112.935 28.2974 113.036 28.2195 113.133 28.0949C114.023 26.8343 114.906 26.3827 115.78 26.7407C115.974 26.7096 116.148 26.2816 116.302 25.4567C116.229 26.4218 116.055 26.9355 115.78 26.9978Z" fill="#1C0C0E"/>
<path d="M115.597 25.7136C115.751 25.9938 115.812 26.3362 115.78 26.7409C114.905 26.3829 114.023 26.8343 113.133 28.0952C113.035 28.2195 112.934 28.2976 112.829 28.3287C113.541 26.3518 114.464 25.4802 115.597 25.7136Z" fill="#DB8178"/>
<path d="M121.16 26.8125C121.16 26.8125 120.973 24.6011 119.889 24.2571C118.805 23.9133 118.218 25.6913 118.218 25.6913C118.218 25.6913 118.329 27.8129 119.514 28.1934C120.617 28.5478 121.16 26.8125 121.16 26.8125Z" fill="white"/>
</svg>
