<svg width="220" height="240" viewBox="0 0 220 240" fill="none" xmlns="http://www.w3.org/2000/svg">
<path d="M111.957 220.353C111.957 220.353 112.201 221.005 112.159 221.608C112.089 222.639 111.588 229.743 109.478 229.465C107.366 229.186 106.386 227.041 104.269 224.92C102.152 222.799 100.058 223.284 100.18 220.365L111.957 220.353Z" fill="#6A3514"/>
<path d="M110.631 219.106C110.631 219.106 111.694 219.44 111.955 220.353C112.218 221.261 111.384 228.487 109.274 228.205C107.161 227.928 106.182 225.784 104.066 223.66C101.948 221.541 99.395 222.02 100.432 219.2L110.631 219.106Z" fill="#E2BE81"/>
<path d="M106.317 215.75C107.219 216.08 109.248 215.926 109.773 217.952C109.773 217.952 111.324 218.865 111.424 219.975C111.424 219.975 111.624 221.291 111.086 221.814C111.086 221.814 111.238 223.059 110.837 223.208L110.656 223.171C110.656 223.171 111.049 224.51 110.462 224.781L110.34 224.776C110.34 224.776 110.587 225.989 110.142 226.208L109.986 226.225C109.986 226.225 110.317 227.318 109.685 227.659C109.685 227.659 109.569 227.545 109.33 227.292C109.33 227.292 108.877 226.895 108.453 226.581C108.031 226.267 107.057 225.453 106.404 224.975C106.141 224.785 105.509 224.396 104.795 223.987" fill="#D0846A"/>
<path d="M106.539 225.099C106.509 225.077 106.475 225.054 106.447 225.035C106.261 224.905 105.89 224.679 105.434 224.42C104.675 222.806 103.821 220.618 103.821 220.618L101.51 213.377C101.557 213.274 101.603 213.17 101.647 213.063C102.258 211.596 103.152 211.178 104.394 213.457C104.394 213.457 105.383 215.506 106.283 215.816C107.183 216.122 109.202 215.914 109.742 217.925C109.742 217.925 111.294 218.795 111.403 219.902C111.403 219.902 111.512 220.581 111.375 221.161C111.3 220.547 111.108 219.41 110.698 219.315C110.134 219.189 109.528 219.001 109.48 218.704C109.434 218.409 108.205 216.149 107.524 216.876C106.842 217.603 106.023 221.274 106.539 225.099Z" fill="#AA6650"/>
<path d="M109.531 222.13C109.648 221.789 110.115 222.812 110.115 222.812C110.115 222.812 110.172 223.099 110.18 223.421C110.084 223.055 109.789 223.078 109.645 222.988C109.429 222.856 109.416 222.473 109.531 222.13Z" fill="#AA6650"/>
<path d="M109.156 223.971C109.233 223.624 109.58 224.126 109.733 224.315C109.733 224.315 109.84 224.689 109.811 225.071C109.679 224.797 109.359 224.741 109.253 224.687C109.09 224.602 109.08 224.315 109.156 223.971Z" fill="#AA6650"/>
<path d="M110.46 221.144C110.46 221.144 110.568 221.531 110.583 221.94C110.418 221.61 110.002 221.479 109.825 221.349C109.565 221.155 109.593 220.858 109.765 220.698C109.938 220.537 110.386 221.002 110.46 221.144Z" fill="#AA6650"/>
<path d="M109.255 219.563C109.138 219.34 109.127 218.602 109.207 218.43C109.287 218.256 110.151 218.77 110.285 219.194C110.422 219.619 110.923 219.739 110.923 219.739C110.923 219.739 110.98 220.254 110.92 220.669C110.897 219.401 109.369 219.787 109.255 219.563Z" fill="#AA6650"/>
<path d="M110.089 219.492C110.089 219.492 105.511 212.352 104.309 210.767L104.391 209.767C104.391 209.767 110.614 218.578 110.089 219.492Z" fill="#7D3E2C"/>
<path d="M98.9385 208.746C99.2655 210.237 99.686 212.318 99.7935 213.588C99.7935 213.588 100.058 215.926 99.9466 217.893C99.8361 219.858 100.338 221.454 102.129 221.558C102.129 221.558 103.418 221.44 104.203 222.51C104.262 222.595 104.724 223.164 104.791 223.266C105.356 224.004 105.537 224.286 105.537 224.286C105.087 217.694 108.255 216.113 108.255 216.113C108.198 216.059 108.136 216.005 108.082 215.955C107.422 215.35 104.612 212.294 103.979 211.295C103.594 210.687 103.204 208.634 102.959 207.136C102.959 207.136 101.464 209.003 98.9385 208.746Z" fill="#7D3E2C"/>
<path d="M107.585 215.462C106.758 214.61 105.324 213.028 104.495 211.989L99.7998 213.658C99.8428 214.045 100.048 216.119 99.9465 217.893C99.9206 218.373 99.9299 218.831 99.9866 219.25C102.492 220.542 106.318 216.813 107.585 215.462Z" fill="#662B1D"/>
<path d="M115.33 212.735C115.33 212.735 115.532 213.199 115.517 213.656C115.495 214.438 115.316 219.826 113.722 219.839C112.129 219.85 111.334 218.342 109.685 216.97C108.035 215.6 106.476 216.184 106.487 213.978L115.33 212.735Z" fill="#6A3514"/>
<path d="M114.3 211.938C114.3 211.938 115.108 212.076 115.33 212.735C115.552 213.39 115.128 218.903 113.534 218.914C111.941 218.926 111.145 217.419 109.497 216.045C107.847 214.677 105.943 215.304 106.643 213.077L114.3 211.938Z" fill="#E2BE81"/>
<path d="M106.008 208.929C106.008 208.929 106.272 210.658 106.243 212.146C106.215 213.634 106.637 214.78 107.984 214.67C107.984 214.67 109.12 214.445 109.737 215.164C110.357 215.885 111.503 218.037 112.362 217.382C112.362 217.382 113.518 218.424 113.88 217.873C113.88 217.873 114.356 217.304 114.182 216.45C114.182 216.45 114.609 215.875 114.415 215.38L114.299 215.218C114.299 215.218 114.894 214.832 114.622 214.076L114.551 213.955C114.551 213.955 115.024 213.493 114.824 212.913L114.737 212.746C114.737 212.746 115.228 212.441 114.951 211.598C114.951 211.598 114.852 211.546 114.643 211.454C114.643 211.454 114.269 211.227 113.935 210.98C113.602 210.735 112.81 210.222 112.299 209.838C111.786 209.453 109.59 207.453 109.088 206.769C108.586 206.086 107.969 202.518 107.969 202.518L104.876 204.084C104.876 204.084 105.811 207.335 106.008 208.929Z" fill="#D0846A"/>
<path d="M112.369 209.892C112.345 209.874 112.32 209.854 112.298 209.837C112.152 209.728 111.871 209.49 111.53 209.186C110.647 209.386 109.553 209.831 109.553 209.831L106.244 211.821C106.244 211.93 106.245 212.038 106.243 212.146C106.214 213.633 106.636 214.779 107.983 214.67C107.983 214.67 109.119 214.445 109.737 215.163C110.357 215.885 111.503 218.037 112.361 217.382C112.361 217.382 113.517 218.423 113.879 217.873C113.879 217.873 114.124 217.578 114.198 217.094C113.989 217.386 113.571 217.869 113.303 217.513C112.932 217.023 112.521 216.525 112.414 216.654C112.307 216.783 110.971 216.896 110.759 215.779C110.548 214.661 111.041 211.652 112.369 209.892Z" fill="#AA6650"/>
<path d="M114.047 213.747C114.02 214.053 114.55 213.955 114.55 213.955C114.55 213.955 114.656 213.852 114.746 213.683C114.595 213.789 114.439 213.483 114.336 213.389C114.182 213.248 114.074 213.445 114.047 213.747Z" fill="#AA6650"/>
<path d="M114.328 212.362C114.28 212.63 114.604 212.698 114.737 212.746C114.737 212.746 114.896 212.646 114.981 212.407C114.836 212.427 114.644 212.14 114.57 212.065C114.458 211.949 114.378 212.098 114.328 212.362Z" fill="#AA6650"/>
<path d="M114.299 215.218C114.299 215.218 114.462 215.111 114.578 214.902C114.399 214.919 114.134 214.579 114.004 214.473C113.809 214.321 113.744 214.513 113.797 214.773C113.85 215.033 114.221 215.223 114.299 215.218Z" fill="#AA6650"/>
<path d="M113.215 214.888C113.091 214.895 112.891 215.291 112.889 215.465C112.887 215.641 113.5 216.216 113.686 216.116C113.873 216.018 114.182 216.45 114.182 216.45C114.182 216.45 114.348 216.225 114.425 215.936C114.078 216.612 113.338 214.878 113.215 214.888Z" fill="#AA6650"/>
<path d="M113.47 215.964C113.47 215.964 109.832 211.082 108.885 210.018L108.919 209.257C108.919 209.257 113.839 215.222 113.47 215.964Z" fill="#7D3E2C"/>
<path d="M105.232 205.382C105.518 206.468 105.891 207.987 106.008 208.929C106.008 208.929 106.272 210.658 106.243 212.146C106.215 213.634 106.637 214.779 107.984 214.67C107.984 214.67 108.95 214.446 109.568 215.168C109.615 215.225 109.979 215.604 110.031 215.674C110.477 216.168 110.621 216.361 110.621 216.361C110.099 211.458 112.434 209.938 112.434 209.938C112.388 209.905 112.342 209.87 112.299 209.837C111.786 209.453 109.59 207.453 109.088 206.769C108.781 206.353 108.431 204.852 108.205 203.753C108.205 203.752 107.135 205.31 105.232 205.382Z" fill="#7D3E2C"/>
<path d="M111.912 209.521C111.267 208.967 110.146 207.929 109.494 207.237L106.016 208.98C106.058 209.268 106.27 210.804 106.243 212.146C106.237 212.51 106.257 212.853 106.311 213.161C108.229 213.869 110.998 210.668 111.912 209.521Z" fill="#662B1D"/>
<path d="M106.745 43.3052L106.542 45.5822L104.29 46.5283C104.29 46.5283 105.227 44.4083 101.626 40.314C98.0314 36.2276 97.6246 33.747 97.0164 29.1859C95.9839 21.4305 99.0771 12.3538 105.62 11.9874C112.163 11.6207 109.167 29.8531 108.525 33.714L106.745 43.3052Z" fill="#A35D4B"/>
<path d="M103.134 49.2408C102.74 50.6666 107.101 56.1748 107.247 55.2204L109.085 48.5475C109.12 48.3197 109.57 45.7813 109.58 45.5535C109.654 43.867 108.658 43.5919 107.75 43.0723L106.544 42.3844C105.513 41.7955 104.442 42.8655 104.153 44.7739L103.134 49.2408Z" fill="#BB715A"/>
<path d="M103.793 12.3268C104.271 12.111 104.647 11.9812 104.812 11.987C106.755 12.0506 110.151 13.4553 111.341 17.0352C112.242 19.7465 112.846 23.7379 112.906 25.3195C112.952 26.5584 112.56 26.9419 112.489 28.133C112.531 29.5801 112.886 30.4328 113.079 31.1461C113.47 32.5817 114.549 34.5341 114.449 35.7961C114.422 36.1353 114.226 36.3879 114.012 36.5637C113.815 36.7257 112.885 37.1112 112.907 37.5993C112.907 37.5993 112.897 37.8735 112.984 38.3212C113.041 38.6119 113.256 38.9121 113.206 39.2483C113.114 39.8603 112.724 39.9015 112.521 40.3626C112.497 40.3877 112.937 41.3995 112.811 41.927C112.736 42.2448 112.486 42.3528 112.343 42.8228C112.323 43.0591 112.426 46.7557 112.105 47.0226C111.058 47.8935 108.139 46.465 106.995 45.1157C106.556 44.5977 106.527 45.0192 105.599 39.6341L103.793 12.3268Z" fill="#D0846A"/>
<path d="M113.561 36.2931C113.869 36.1645 114.17 36.0565 114.446 35.8093C114.415 36.1409 114.222 36.3898 114.011 36.5638C113.813 36.7258 112.883 37.1114 112.906 37.5993C112.906 37.5993 112.904 37.66 112.91 37.7656C112.743 37.7218 112.572 37.5802 112.446 37.4524C112.41 37.4153 112.372 37.3891 112.338 37.3651C112.726 36.9224 113.115 36.4795 113.561 36.2931Z" fill="#A5644F"/>
<path d="M112.829 39.9392C112.866 39.9348 112.497 40.3145 112.538 40.4388C112.579 40.563 112.697 40.9348 112.697 40.9348C112.697 40.9348 112.139 40.5499 111.74 40.625C111.342 40.6994 112.603 39.9654 112.829 39.9392Z" fill="#661115"/>
<path d="M99.0668 128.859L98.3428 145.105C98.3428 145.105 98.5843 153.028 98.7051 153.904C98.8253 154.779 99.0668 164.301 99.0668 164.301L98.7051 176.469V182.94V188.639C98.7051 188.639 98.9867 191.76 98.7051 192.696C98.4235 193.633 97.9404 197.846 97.9404 198.47C97.9404 199.094 97.9404 205.023 97.9404 205.023V206.584V211.533V214.103V216.542L100.115 217.509C100.115 217.509 111.243 218.679 113.602 212.085C115.963 205.491 113.998 208.31 113.998 208.31L114.26 205.335L113.998 196.093V189.732V184.27V177.405L113.602 174.128V166.17L114.26 160.804L113.998 156.168L113.048 149.474L113.602 144.093V138.426V135.119V130.526L99.0668 128.859Z" fill="#E2BE81"/>
<path d="M113.602 106.774C113.602 106.774 113.288 124.072 113.172 129.454C113.057 134.834 112.317 150.601 112.035 157.776C111.753 164.951 110.596 190.736 110.481 197.462C110.365 204.189 111.291 212.098 111.291 212.098C111.291 212.098 107.251 216.208 105.461 214.373C105.461 214.373 104.206 160.018 104.395 153.515C104.585 147.014 104.811 113.157 105.449 109.794C106.087 106.43 113.602 106.774 113.602 106.774Z" fill="#E2BE81"/>
<path d="M113.603 106.774C113.603 106.774 111.753 119.211 110.25 142.306C108.747 165.399 108.747 193.651 108.747 198.584C108.747 203.516 108.717 215.068 108.717 215.068C108.717 215.068 104.097 217.479 101.9 216.133C101.9 216.133 101.117 184.234 101.117 179.973C101.117 175.713 101.736 168.893 101.889 163.559C102.042 158.224 99.0765 138.752 98.6263 133.36C98.2195 128.491 96.8149 118.751 97.2935 114.054C97.7722 109.356 98.5725 105.534 99.9604 99.7042C101.348 93.8743 113.603 106.774 113.603 106.774Z" fill="#E2BE81"/>
<path d="M107.954 159.148C106.718 156.874 102.233 143.816 101.957 142.345C101.681 140.874 99.7496 125.712 99.7496 125.712C99.9564 127.005 104.163 139.537 104.856 141.543C105.548 143.549 107.707 146.449 107.707 146.449C106.346 143.909 100.647 125.748 100.647 125.748C106.321 127.283 111.947 123.048 114.245 121.007C114.017 118.516 113.843 117.097 113.843 117.097L96.9302 115.262C95.6557 123.789 98.785 151.502 98.785 151.502L99.0608 152.757C98.8598 157.916 100.338 159.997 100.193 170.99C100.719 163.718 100.755 163.696 100.907 160.971C101.149 156.559 101.353 145.589 101.355 143.635C101.356 141.681 98.0253 125.748 98.0253 125.748C98.0253 125.748 98.0307 125.942 98.0405 126.29C98.1246 129.396 102.07 154.927 102.621 157.092C102.976 158.483 103.491 158.503 104.902 162.859C101.898 150.931 99.1209 128.833 99.1209 128.833C99.1209 128.833 100.026 143.282 101.061 145.288C102.095 147.293 107.954 159.148 107.954 159.148Z" fill="#C59F6B"/>
<path d="M97.6507 108.103L97.3809 112.508C97.3809 112.508 105.032 120.098 113.653 117.335L113.997 112.753C113.997 112.753 104.8 115.67 97.6507 108.103Z" fill="#3B2314"/>
<path d="M98.3518 216.647C102.126 217.963 105.485 218.2 108.414 217.792L108.041 207.106C104.105 208.114 99.2479 206.676 97.8008 206.192L98.3518 216.647Z" fill="#C59F6B"/>
<path d="M108.049 112.753C108.049 112.753 108.12 116.976 107.834 118.363H108.525C108.525 118.363 108.977 114.583 108.787 112.753H108.049Z" fill="#042230"/>
<path d="M113.229 118.559C113.224 118.559 113.219 118.559 113.214 118.559L110.99 118.465C110.794 118.457 110.614 118.292 110.483 117.998C110.328 117.654 110.258 117.166 110.29 116.661L110.463 113.885C110.522 112.949 110.883 112.207 111.327 112.246L113.55 112.339C113.746 112.346 113.927 112.513 114.058 112.806C114.212 113.15 114.282 113.638 114.251 114.143L114.078 116.92C114.02 117.845 113.649 118.559 113.229 118.559ZM113.225 117.546C113.38 117.545 113.531 117.246 113.559 116.797L113.732 114.022C113.746 113.803 113.72 113.597 113.663 113.47C113.629 113.394 113.587 113.354 113.539 113.352L111.316 113.259C111.179 113.277 111.01 113.56 110.982 114.008L110.808 116.783C110.795 117.001 110.821 117.207 110.878 117.334C110.912 117.411 110.954 117.451 111.002 117.453L113.225 117.546Z" fill="#5A4A42"/>
<path d="M109.001 50.3589C109.001 50.3589 110.19 50.1309 110.966 51.8407C111.741 53.5504 113.137 59.8768 113.085 60.8458C113.034 61.8147 112.229 60.0593 111.971 59.6604C111.712 59.2616 110.837 57.2551 110.604 56.0013C110.371 54.7473 109.859 54.1564 109.626 53.8713C109.393 53.5862 108.421 53.1984 108.421 53.1984C108.421 53.1984 108.854 51.6086 109.001 50.3589Z" fill="#EBEEC9"/>
<path d="M106.712 49.3179C106.712 49.3179 113.832 63.9955 114.336 74.5123C114.804 84.2941 115.831 95.3944 114.912 110.228C114.245 121.007 109.747 114.892 106.998 114.892C104.249 114.892 98.3812 114.021 98.1426 106.759C97.9392 100.585 99.9637 92.1729 98.7825 86.2936C97.6009 80.4143 95.2381 73.444 96.4198 60.6117C97.6009 47.7796 100.418 47.4501 102.509 47.4501C104.599 47.4499 106.712 49.3179 106.712 49.3179Z" fill="#E9CD96"/>
<path d="M105.934 128.755C105.934 128.755 106.692 133.997 106.867 135.92C107.042 137.844 107.606 139.353 107.84 139.956C108.073 140.56 108.268 140.749 108.19 140.975C108.112 141.202 107.743 141.427 107.353 141.239C106.965 141.05 106.498 140.221 106.342 139.617C106.186 139.014 105.078 129.396 105.078 129.396L105.934 128.755Z" fill="#B4634E"/>
<path d="M101.929 129.886C101.9 129.91 101.937 132.28 101.938 132.46C101.945 133.626 101.986 134.789 102.035 135.95C102.105 137.619 102.264 139.356 102.224 141.025C102.18 142.836 102.137 144.645 102.094 146.454C102.089 146.698 102.084 146.949 102.131 147.175C102.177 147.4 102.291 147.594 102.416 147.57C102.485 147.558 102.547 147.483 102.6 147.399C102.834 147.032 102.959 146.418 102.959 145.84C102.959 144.709 103.033 140.067 103.056 139.994C103.188 139.6 103.231 140.519 103.233 140.689C103.24 141.335 103.235 141.982 103.244 142.629C103.263 144.022 103.305 145.413 103.368 146.802C103.389 147.263 103.474 148.367 103.815 148.367C103.99 148.367 104.204 148.103 104.204 147.915C104.204 148.113 104.275 148.533 104.311 148.766C104.342 148.967 104.396 149.169 104.489 149.277C104.553 149.352 104.63 149.375 104.705 149.39C105.256 149.502 105.531 147.533 105.51 146.728C105.473 145.262 105.51 142.522 105.444 141.594C105.434 141.452 105.479 139.74 105.617 140.253C105.684 140.507 105.895 142.725 105.989 143.504C106.134 144.703 106.174 145.93 106.276 147.143C106.315 147.601 106.373 148.089 106.552 148.395C106.574 148.433 106.601 148.469 106.63 148.474C106.654 148.477 106.676 148.46 106.697 148.441C106.929 148.235 107.08 147.774 107.136 147.293C107.193 146.812 107.167 146.309 107.126 145.823C107.054 144.965 107.017 144.114 106.966 143.252C106.913 142.358 106.844 141.468 106.799 140.571C106.738 139.349 106.691 138.117 106.596 136.901C106.499 135.657 106.421 133.847 106.09 132.073C105.76 130.301 105.293 128.264 105.293 128.264C105.293 128.264 101.961 129.87 101.929 129.886Z" fill="#D0846A"/>
<g opacity="0.3">
<path opacity="0.3" d="M109.771 51.708C109.771 51.5689 108.555 50.8483 108.465 50.7829C107.68 50.2111 106.893 49.6458 106.121 49.0093C104.526 47.6949 102.984 46.1384 101.514 44.3578C101.406 44.2271 100.901 43.6509 100.785 43.8413C100.436 44.4122 99.82 45.9149 99.7291 48.6469C99.6381 51.3789 110.979 62.6049 110.979 62.6049C110.979 62.6049 109.771 54.1755 109.771 51.708Z" fill="#231F20"/>
</g>
<path d="M109.771 51.2607C109.771 51.1218 108.555 50.4009 108.466 50.3358C107.68 49.7641 106.893 49.199 106.121 48.5625C104.526 47.2476 102.984 45.6914 101.515 43.9109C101.406 43.7802 100.901 43.2036 100.785 43.394C100.436 43.9652 99.82 45.4676 99.7291 48.1996C99.6381 50.9318 110.56 61.1334 110.56 61.1334C110.56 61.1334 109.771 53.7285 109.771 51.2607Z" fill="#EBEEC9"/>
<path d="M112.21 26.7208C112.21 26.7208 110.796 25.5079 110.057 26.162C109.316 26.8165 108.904 28.1459 108.904 28.1459C108.904 28.1459 109.484 27.5248 110.027 27.287C110.57 27.0489 112.266 27.7809 112.266 27.7809C112.266 27.7809 112.622 27.023 112.21 26.7208Z" fill="#090000"/>
<path d="M111.318 28.467C111.26 28.7642 111.211 29.9873 111.354 30.6582C111.35 30.6388 111.21 30.6166 111.192 30.6097C110.969 30.5175 110.765 30.4117 110.577 30.1511C110.495 30.0395 110.421 29.9124 110.351 29.7761C110.291 29.6584 110.209 29.5277 110.187 29.3615C110.169 29.23 110.737 28.5408 111.318 28.467Z" fill="white"/>
<path d="M111.268 29.4551C111.268 29.0662 111.367 28.7239 111.517 28.512C111.465 28.4377 111.405 28.3827 111.342 28.3446C111.096 28.4913 110.916 28.9299 110.916 29.4548C110.916 29.9795 111.095 30.4186 111.342 30.5651C111.405 30.5271 111.465 30.4722 111.517 30.398C111.367 30.186 111.268 29.8442 111.268 29.4551Z" fill="#2C1117"/>
<path d="M111.518 28.5122C111.366 28.7244 111.268 29.0671 111.268 29.4557C111.268 29.8444 111.366 30.1873 111.518 30.3969C111.668 30.1873 111.767 29.8447 111.767 29.4557C111.767 29.0674 111.668 28.7244 111.518 28.5122Z" fill="#090000"/>
<path d="M111.02 29.9067C110.962 29.9067 110.916 29.816 110.916 29.704C110.916 29.5922 110.962 29.5016 111.02 29.5016C111.078 29.5016 111.125 29.5922 111.125 29.704C111.125 29.8158 111.078 29.9067 111.02 29.9067Z" fill="white"/>
<path d="M111.323 29.5481C111.235 29.5481 111.163 29.4086 111.163 29.237C111.163 29.0652 111.235 28.9259 111.323 28.9259C111.412 28.9259 111.484 29.0652 111.484 29.237C111.484 29.4088 111.412 29.5481 111.323 29.5481Z" fill="white"/>
<path d="M110.238 29.5479C110.226 29.598 110.527 29.8867 110.553 29.9127C110.686 30.0429 110.822 30.1651 110.963 30.2614C111.08 30.3416 111.201 30.4033 111.325 30.4338C111.387 30.4492 111.451 30.4563 111.514 30.4534C111.568 30.4509 111.627 30.454 111.68 30.4405C111.68 30.4405 111.505 31.066 111.268 31.1292C111.031 31.1923 110.543 31.0712 110.304 30.6585C110.065 30.246 110.238 29.5483 110.238 29.5479Z" fill="#D0846A"/>
<path d="M109.944 29.9296C110.005 29.498 110.174 29.1565 110.352 28.8847C110.535 28.6214 110.745 28.4272 110.959 28.2991C111.173 28.163 111.398 28.0874 111.621 28.0698C111.847 28.0483 112.06 28.1107 112.28 28.1047C112.074 28.2869 111.849 28.3231 111.644 28.4189C111.436 28.5038 111.236 28.6181 111.038 28.7523C110.84 28.8941 110.651 29.0487 110.467 29.2365C110.285 29.4252 110.108 29.6347 109.944 29.9296Z" fill="black"/>
<path d="M96.7795 103.952C96.6089 108.762 96.4588 113.944 96.5561 115.109C96.5561 115.109 105.16 118.769 113.851 119.253L114.622 113.735" fill="#E9CD96"/>
<path d="M105.529 90.8208C104.819 89.7607 104.928 84.5637 105.035 84.2455C105.141 83.9266 108.046 78.4114 108.267 76.3961C108.49 74.3801 105.475 80.8505 104.873 80.4274C104.272 80.0016 107.333 68.0157 107.281 64.5151C107.227 61.0158 105.092 75.1221 104.653 74.2752C104.216 73.4256 105.694 55.9238 105.201 56.1353C104.71 56.3478 104.056 69.7406 103.342 69.925C102.984 70.0183 102.598 68.723 102.3 67.4026C102.359 67.8613 102.422 68.3142 102.488 68.7593C102.488 68.7593 103.397 74.4796 103.761 81.275C103.94 84.5952 103.732 88.8021 103.715 91.5045C103.715 91.5045 103.306 108.003 103.409 110.126C103.409 110.126 106.274 112.445 109.896 113.501C107.325 111.865 105.912 109.692 105.912 109.692C105.803 108.305 105.419 105.987 104.928 104.822C104.435 103.657 104.71 101.428 104.71 101.428C106.567 99.8455 109.891 93.2373 110.603 91.8048C109.783 93.2448 106.185 96.2304 106.185 96.2304C106.185 96.2304 106.24 91.8816 105.529 90.8208Z" fill="#C8A977"/>
<path d="M104.664 32.9279C104.664 32.9279 105.288 33.5691 105.544 36.0806C105.544 36.0806 105.889 34.9328 106.007 32.5275C106.126 30.1208 106.332 29.4511 106.788 27.7624C106.788 27.7624 107.897 24.265 107.411 20.9788C107.101 18.8835 105.468 17.8628 104.853 20.1766C103.644 24.7292 104.414 32.0933 104.664 32.9279Z" fill="#090000"/>
<path d="M112.085 14.7683C111.618 13.8601 110.839 12.8969 110.261 12.2798C109.068 11.0076 108.051 10.4467 106.699 10.2307C103.919 9.7863 100.318 10.6692 98.6035 14.8818C97.5656 17.4327 97.4757 21.8625 97.2777 25.0892C96.9501 30.4389 98.0814 39.421 100.787 41.7785C101.254 43.7931 101.767 44.2949 102.625 45.2867C103.595 46.4069 104.245 46.3018 104.245 46.3018C103.807 45.0549 103.642 43.5321 103.642 43.5321L104.436 44.2358C104.054 43.6818 104.04 41.9779 104.04 41.9779L104.436 42.3616C104.344 42.107 104.275 41.7583 104.22 41.3705C104.579 41.0367 104.952 40.6149 105.339 40.0925C105.521 39.8472 103.564 30.5521 104.101 30.7772C104.435 30.9176 105.013 32.7767 105.488 35.1227C106.084 38.0598 105.339 24.388 107.175 19.4639C109.01 14.5398 113.326 17.8118 113.327 17.812C113.145 17.3185 112.368 15.3212 112.085 14.7683Z" fill="black"/>
<path d="M101.746 11.3242C101.746 11.3242 98.7034 9.59597 97.3414 19.4573C96.1045 28.4124 97.0764 40.9893 104.305 45.8975C104.305 45.8975 101.203 23.0864 101.791 19.1802C102.38 15.2738 101.746 11.3242 101.746 11.3242Z" fill="#090000"/>
<path d="M101.059 11.5464C101.059 11.5464 101.843 6.80713 108.118 9.87913C113.363 12.4464 114.306 21.0078 114.306 21.0078C114.306 21.0078 111.451 17.5358 106.602 13.3018C103.527 10.6169 101.059 11.5464 101.059 11.5464Z" fill="black"/>
<path d="M110.894 12.2629C109.787 11.9438 109.302 10.8553 108.444 10.9433C108.444 10.9433 104.491 9.96622 104.859 15.0025L106.244 18.0944C106.244 18.0944 107.834 22.4662 109.988 23.3815C109.988 23.3815 108.835 22.0084 108.333 21.1793C108.333 21.1793 110.542 23.5113 112.995 23.9331C112.995 23.9331 111.435 22.9026 110.858 21.4526C110.858 21.4526 112.377 23.568 115.181 23.9331C115.181 23.9331 114.117 23.2678 113.719 22.4662C113.719 22.4662 114.487 22.5849 115.021 22.978" fill="#090000"/>
<path d="M110.979 59.3628C110.979 59.3628 113.991 69.3489 114.273 71.6899C114.273 71.6899 115.942 95.2902 114.69 113.283L114.258 116.095L113.85 119.019L113.453 118.995L114.258 113.114C114.258 113.114 115.25 101.729 113.83 71.7674C113.83 71.7674 112.725 66.1039 110.603 59.8465L110.261 58.1341L110.217 57.663L110.979 59.3628Z" fill="#EBEEC9"/>
<path d="M102.86 58.1359C101.217 53.9003 98.403 54.9928 97.0948 58.9684C96.4333 60.9801 95.8349 63.0153 95.7425 65.3948C95.5088 71.4426 96.1248 73.3071 96.0974 79.3722C96.0637 86.7491 95.6379 94.3146 95.9591 97.4127C95.9806 97.6211 101.147 131.876 101.147 131.876C101.147 131.876 105.475 131.861 107.018 129.497C107.325 129.026 105.24 112.009 105.001 108.003C104.763 103.996 103.053 100.991 103.919 84.7907C104.077 81.8216 107.049 68.9384 102.86 58.1359Z" fill="#DEBC85"/>
<path d="M100.114 126.063C100.114 126.063 103.937 126.125 106.813 124.12C106.813 124.12 107.316 129.986 107.316 130.695C107.316 131.405 101.619 132.913 100.925 132.239L100.114 126.063Z" fill="#E9CD96"/>
<path d="M114.214 203.736C113.27 204.152 113.452 209.087 112.925 208.223C112.351 207.285 111.491 211.64 110.655 211.326C109.817 211.013 108.721 207.597 108.059 207.676C107.537 207.736 108.482 215.424 108.413 217.792C116.907 215.735 114.489 204.917 114.489 204.917L114.214 203.736Z" fill="#E9CD96"/>
<path d="M107.305 207.293C108.637 201.988 110.154 193.445 110.114 192.834C110.114 192.834 103.158 197.426 102.695 198.08L99.4209 206.87L107.305 207.293Z" fill="#E9CD96"/>
<path d="M110.511 184.833C111.002 187.537 113.027 197.859 114.361 204.642L114.765 207.294C114.43 198.479 114.467 180.319 114.513 175.981C114.577 170.029 115.065 158.578 113.685 150.793C113.378 149.061 113.685 136.14 113.685 136.14C113.614 130.344 113.344 125.043 113.023 120.608C112.852 132.436 112.213 153.237 112.213 153.237C112.213 153.237 114.167 163.464 113.685 165.753C113.203 168.043 109.76 180.712 110.511 184.833Z" fill="#C59F6B"/>
<path d="M97.3809 122.382C97.3809 122.382 97.5442 130.932 98.1108 134.261C98.1108 134.261 98.143 138.166 98.3518 139.176C98.561 140.185 98.1406 141.692 98.1406 141.692L98.1108 144.093C98.1108 144.093 97.8996 144.267 98.6539 145.671L99.2572 148.363L99.4381 145.437L99.1966 140.112L99.0886 137.545L99.2543 136.252L98.9316 131.875L98.4095 127.606C98.4095 127.606 98.231 123.728 98.2012 123.553C98.1709 123.377 97.5129 122.382 97.5129 122.382H97.3809Z" fill="#C59F6B"/>
<path d="M107.25 130.527C107.218 130.477 112.335 143.319 113.462 145.443C113.462 145.443 109.064 133.229 107.25 130.527Z" fill="#E9CD96"/>
<path d="M107.882 140.253C107.85 140.203 112.966 153.045 114.094 155.168C114.094 155.168 109.696 142.954 107.882 140.253Z" fill="#E9CD96"/>
<path d="M107.881 167.552C107.848 167.502 112.965 180.344 114.093 182.469C114.093 182.469 109.695 170.254 107.881 167.552Z" fill="#E9CD96"/>
<path d="M105.062 121.763L103.612 120.161H102.163C102.163 120.161 99.8494 112.606 99.5526 111.461C99.2554 110.316 98.3754 106.195 98.4321 105.507C98.4922 104.82 101.445 95.2032 101.277 95.5467C101.109 95.891 98.9049 101.042 98.4878 101.386C98.0689 101.729 98.2556 97.8363 98.4321 97.0341C98.6096 96.2338 99.8856 95.4315 99.8856 95.4315L101.277 89.3643L98.4878 94.0018C98.305 94.1739 100.971 82.4935 100.971 82.4935C100.914 82.0368 98.611 90.6233 98.0728 91.0203C97.535 91.416 98.02 88.6773 98.0728 88.4866C98.1256 88.2953 100.736 76.0821 100.354 74.8231C99.9701 73.5648 99.142 61.7849 99.142 61.7849L96.0977 80.6907C96.4946 83.8848 97.0696 87.6473 97.0696 87.6473L97.2671 92.112L97.8557 95.5845C97.8557 95.5845 97.6983 100.546 97.6983 101.614C97.6983 102.684 101.509 122.984 101.509 122.984C101.654 123.13 101.8 123.252 101.945 123.357H103.612L105.062 121.763Z" fill="#AD8A5D"/>
<path d="M104.205 139.878V147.456L104.375 146.402L104.29 144.384L104.375 142.921L104.29 140.697V139.117L104.205 139.878Z" fill="#B4634E"/>
<path d="M103.215 29.5852C103.354 29.4006 103.509 29.292 103.669 29.2524C103.971 29.181 104.292 29.357 104.561 29.739C105.201 30.6482 105.571 32.8486 105.669 34.4328C105.716 35.205 105.781 36.2733 105.57 36.9226C105.22 38.0068 104.467 36.3375 104.075 35.7724C103.287 34.6384 102.967 34.4724 102.763 32.9968C102.489 31.0166 102.868 30.0455 103.215 29.5852Z" fill="#D0846A"/>
<path d="M103.814 33.7776C104.015 34.6318 104.441 35.332 104.952 35.2958C105.159 35.2807 105.318 35.1347 105.243 34.6706C105.212 34.4845 105.105 34.2338 105.025 34.1158C104.887 33.9111 104.851 33.3231 104.836 33.0214C104.798 32.2051 104.781 31.1311 104.196 31.1727C103.655 31.2118 103.6 32.2033 103.693 33.0509C103.722 33.3191 103.766 33.5731 103.814 33.7776Z" fill="#975238"/>
<path d="M113.102 37.6791C113.102 37.6791 111.112 37.9873 110.516 39.1126C109.919 40.24 110.089 41.6904 110.089 41.6904C110.089 41.6904 110.396 39.988 110.826 40.2002C111.068 40.3215 113.267 40.7262 113.267 39.0738" fill="black"/>
</svg>
