<svg width="220" height="240" viewBox="0 0 220 240" fill="none" xmlns="http://www.w3.org/2000/svg">
<path d="M125.222 59.4665L123.035 59.1305C123.035 59.1305 118.992 56.8621 117.796 56.7303C116.6 56.5998 108.586 62.5698 108.586 62.5698C108.586 62.5698 108.768 65.8438 110.959 66.8876C113.278 67.9945 122.62 69.4259 122.957 69.4217C122.957 69.4217 123.412 69.4937 124.048 69.5575" fill="#DEBC85"/>
<path d="M123.8 62.5228C122.212 63.8015 119.08 66.5384 119.08 66.5384C118.856 66.4346 123.045 62.1431 123.236 61.1489C123.427 60.1562 122.089 61.066 121.996 61.1644C121.903 61.2626 115.939 66.1445 115.321 65.448C114.702 64.7495 108.931 63.2962 108.931 63.2962L118.167 57.5751C119.733 58.2868 121.579 59.3229 121.579 59.3229L123.766 59.6589L124.401 60.0555" fill="#AD8A5D"/>
<path d="M119.128 221.301C119.128 221.301 119.259 222.06 119.128 222.608C118.905 223.547 117.343 229.998 115.382 228.52C113.423 227.042 112.821 224.445 111.138 221.216C109.452 217.988 107.392 217.245 107.955 214.545L119.128 221.301Z" fill="#6A3514"/>
<path d="M118.061 219.357C118.061 219.357 119.019 220.284 119.128 221.301C119.237 222.313 117.344 228.689 115.383 227.209C113.424 225.732 112.822 223.136 111.139 219.904C109.453 216.677 106.957 215.665 108.372 213.585L118.061 219.357Z" fill="#E2BE81"/>
<path d="M108.623 207.894C108.623 207.894 108.517 210.265 108.111 212.067C107.706 213.867 107.939 215.67 109.622 216.797C109.622 216.797 111.072 217.584 111.652 219.046C112.234 220.512 113.106 224.229 114.323 224.229C114.323 224.229 115.484 226.591 116.066 226.253C116.066 226.253 116.792 226 116.792 224.789C116.792 224.789 117.459 224.482 117.344 223.692L117.242 223.384C117.242 223.384 118.069 223.467 117.924 222.284L117.866 222.068C117.866 222.068 118.562 221.946 118.46 221.046L118.395 220.758C118.395 220.758 119.075 220.843 118.944 219.549C118.944 219.549 118.835 219.392 118.602 219.082C118.602 219.082 118.198 218.452 117.85 217.837C117.502 217.225 116.658 215.853 116.124 214.902C115.59 213.949 113.39 209.435 112.944 208.124C112.498 206.816 112.628 201.854 112.628 201.854L108.439 200.882C108.439 200.883 108.779 205.751 108.623 207.894Z" fill="#D0846A"/>
<path d="M116.199 215.037C116.174 214.992 116.147 214.943 116.124 214.903C115.972 214.631 115.686 214.075 115.344 213.383C114.209 212.8 112.754 212.325 112.754 212.325L108.194 211.668C108.168 211.802 108.141 211.935 108.111 212.067C107.706 213.867 107.939 215.67 109.622 216.798C109.622 216.798 111.072 217.584 111.652 219.046C112.234 220.512 113.106 224.229 114.323 224.229C114.323 224.229 115.484 226.591 116.066 226.253C116.066 226.253 116.44 226.121 116.651 225.596C116.322 225.758 115.689 225.961 115.447 225.272C115.113 224.322 114.733 223.327 114.57 223.384C114.406 223.442 112.737 222.329 112.754 220.759C112.773 219.187 114.129 215.954 116.199 215.037Z" fill="#AA6650"/>
<path d="M117.299 221.344C117.19 221.693 117.866 222.069 117.866 222.069C117.866 222.069 118.021 222.042 118.174 221.919C117.962 221.909 117.846 221.386 117.743 221.174C117.59 220.855 117.408 220.997 117.299 221.344Z" fill="#AA6650"/>
<path d="M117.989 219.904C117.863 220.187 118.244 220.574 118.395 220.759C118.395 220.759 118.615 220.784 118.78 220.57C118.596 220.459 118.432 219.927 118.361 219.765C118.252 219.519 118.116 219.625 117.989 219.904Z" fill="#AA6650"/>
<path d="M117.24 223.384C117.24 223.384 117.467 223.406 117.663 223.257C117.438 223.111 117.198 222.445 117.064 222.193C116.863 221.824 116.735 222 116.735 222.367C116.735 222.736 117.144 223.319 117.24 223.384Z" fill="#AA6650"/>
<path d="M115.993 221.965C115.839 221.857 115.495 222.156 115.449 222.368C115.403 222.583 116.013 223.864 116.266 223.915C116.521 223.971 116.792 224.79 116.792 224.79C116.792 224.79 117.052 224.669 117.219 224.386C116.624 224.89 116.147 222.069 115.993 221.965Z" fill="#AA6650"/>
<path d="M116.036 223.525C116.036 223.525 112.784 214.12 111.885 211.926L112.116 211.024C112.116 211.024 116.674 222.959 116.036 223.525Z" fill="#7D3E2C"/>
<path d="M108.553 202.81C108.635 204.412 108.715 206.628 108.623 207.894C108.623 207.894 108.517 210.265 108.111 212.067C107.706 213.867 107.939 215.67 109.622 216.797C109.622 216.797 110.862 217.427 111.442 218.892C111.486 219.007 111.839 219.813 111.886 219.948C112.31 220.972 112.439 221.344 112.439 221.344C113.019 214.832 116.266 215.152 116.266 215.152C116.217 215.068 116.169 214.982 116.124 214.903C115.59 213.95 113.39 209.436 112.945 208.125C112.671 207.326 112.615 205.155 112.611 203.593C112.611 203.593 110.908 204.504 108.553 202.81Z" fill="#7D3E2C"/>
<path d="M115.728 214.15C115.074 212.866 113.955 210.542 113.326 209.08L108.62 207.964C108.599 208.357 108.479 210.443 108.111 212.067C108.013 212.507 107.953 212.947 107.941 213.376C110.121 216.043 114.32 214.703 115.728 214.15Z" fill="#662B1D"/>
<path d="M93.1661 221.42C93.1661 221.42 93.0341 222.179 93.1661 222.728C93.3895 223.666 94.9505 230.118 96.91 228.64C98.8714 227.161 99.4728 224.564 101.156 221.335C102.841 218.107 104.902 217.364 104.34 214.664L93.1661 221.42Z" fill="#6A3514"/>
<path d="M94.2325 219.477C94.2325 219.477 93.2747 220.404 93.1657 221.42C93.0557 222.432 94.9501 228.808 96.9096 227.328C98.871 225.852 99.4724 223.255 101.156 220.023C102.841 216.797 105.336 215.784 103.922 213.703L94.2325 219.477Z" fill="#E2BE81"/>
<path d="M103.672 208.013C103.672 208.013 103.778 210.384 104.184 212.185C104.589 213.986 104.358 215.789 102.674 216.917C102.674 216.917 101.222 217.703 100.642 219.165C100.062 220.631 99.1897 224.348 97.9718 224.348C97.9718 224.348 96.8098 226.71 96.2294 226.372C96.2294 226.372 95.5044 226.118 95.5044 224.907C95.5044 224.907 94.8356 224.601 94.952 223.811L95.0537 223.503C95.0537 223.503 94.227 223.585 94.3712 222.403L94.4303 222.187C94.4303 222.187 93.7327 222.065 93.8354 221.164L93.8999 220.877C93.8999 220.877 93.2203 220.962 93.3519 219.668C93.3519 219.668 93.4604 219.511 93.6936 219.201C93.6936 219.201 94.0959 218.571 94.444 217.956C94.7921 217.344 95.6374 215.971 96.1713 215.021C96.7047 214.068 98.9032 209.554 99.351 208.243C99.7964 206.935 99.6654 201.973 99.6654 201.973L103.858 201.001C103.858 201.001 103.516 205.871 103.672 208.013Z" fill="#D0846A"/>
<path d="M96.0948 215.155C96.1202 215.111 96.1471 215.062 96.1696 215.022C96.3212 214.75 96.6072 214.194 96.9509 213.501C98.0846 212.919 99.5376 212.443 99.5376 212.443L104.099 211.787C104.126 211.921 104.153 212.054 104.183 212.185C104.588 213.986 104.356 215.789 102.673 216.916C102.673 216.916 101.221 217.703 100.64 219.165C100.061 220.631 99.188 224.348 97.9702 224.348C97.9702 224.348 96.8081 226.709 96.2283 226.372C96.2283 226.372 95.8533 226.24 95.6426 225.715C95.9711 225.877 96.6052 226.079 96.8472 225.391C97.1796 224.44 97.561 223.445 97.7253 223.503C97.8881 223.561 99.5561 222.448 99.5376 220.877C99.52 219.307 98.1657 216.073 96.0948 215.155Z" fill="#AA6650"/>
<path d="M94.9967 221.462C95.1038 221.812 94.4306 222.187 94.4306 222.187C94.4306 222.187 94.2736 222.161 94.1211 222.038C94.3323 222.027 94.4482 221.504 94.5508 221.293C94.7048 220.975 94.8877 221.116 94.9967 221.462Z" fill="#AA6650"/>
<path d="M94.3042 220.023C94.4313 220.306 94.0505 220.694 93.8979 220.878C93.8979 220.878 93.6789 220.904 93.5146 220.689C93.698 220.578 93.8613 220.046 93.9321 219.885C94.0412 219.638 94.1781 219.744 94.3042 220.023Z" fill="#AA6650"/>
<path d="M95.0513 223.503C95.0513 223.503 94.8259 223.525 94.6299 223.377C94.8538 223.231 95.0924 222.564 95.2288 222.313C95.4297 221.944 95.5553 222.119 95.5553 222.487C95.5553 222.856 95.1486 223.437 95.0513 223.503Z" fill="#AA6650"/>
<path d="M96.3008 222.084C96.4548 221.977 96.8 222.275 96.8455 222.487C96.8914 222.701 96.2828 223.982 96.0295 224.034C95.7738 224.089 95.504 224.908 95.504 224.908C95.504 224.908 95.2414 224.787 95.0752 224.505C95.6712 225.01 96.1478 222.187 96.3008 222.084Z" fill="#AA6650"/>
<path d="M96.2576 223.644C96.2576 223.644 99.5092 214.24 100.408 212.045L100.177 211.143C100.177 211.143 95.6191 223.078 96.2576 223.644Z" fill="#7D3E2C"/>
<path d="M103.742 202.929C103.66 204.531 103.579 206.746 103.671 208.013C103.671 208.013 103.778 210.383 104.183 212.185C104.589 213.986 104.357 215.789 102.673 216.917C102.673 216.917 101.432 217.546 100.851 219.011C100.807 219.126 100.457 219.931 100.408 220.067C99.9854 221.091 99.8573 221.462 99.8573 221.462C99.2765 214.951 96.0293 215.272 96.0293 215.272C96.0762 215.187 96.1256 215.1 96.1701 215.022C96.704 214.068 98.9025 209.554 99.3498 208.244C99.6231 207.445 99.6789 205.274 99.6823 203.713C99.6823 203.713 101.386 204.623 103.742 202.929Z" fill="#7D3E2C"/>
<path d="M96.5654 214.269C97.2205 212.985 98.3391 210.66 98.9669 209.198L103.675 208.083C103.694 208.476 103.816 210.562 104.183 212.185C104.282 212.626 104.343 213.066 104.353 213.495C102.173 216.161 97.9744 214.822 96.5654 214.269Z" fill="#662B1D"/>
<path d="M94.2686 208.973H117.708C117.441 200.603 117.037 185.879 117.073 181.761C117.124 176.11 117.513 165.238 116.413 157.846C116.168 156.202 116.413 143.934 116.413 143.934C116.253 128.281 114.804 116.432 114.804 116.432L96.2114 117.411C94.8303 126.651 95.5998 148.655 95.5998 148.655L95.2571 154.308C94.8146 165.672 94.535 201.273 94.2686 208.973Z" fill="#E2BE81"/>
<path d="M113.883 190.165C114.275 192.732 115.889 202.532 116.952 208.973H117.708C117.442 200.603 117.037 185.879 117.073 181.761C117.125 176.11 117.513 165.238 116.413 157.846C116.169 156.202 116.413 143.934 116.413 143.934C116.357 138.431 116.142 133.399 115.885 129.187C115.749 140.417 115.239 160.166 115.239 160.166C115.239 160.166 116.798 169.877 116.413 172.05C116.029 174.224 113.285 186.253 113.883 190.165Z" fill="#C59F6B"/>
<path d="M111.721 208.973L110.969 192.196C110.969 192.196 108.876 196.255 108.353 197.848C108.107 198.599 107.265 203.681 106.357 208.973H111.721Z" fill="#C59F6B"/>
<path d="M113.141 169.296C111.802 166.832 102.225 145.382 101.925 143.787C101.626 142.194 99.5338 125.766 99.5338 125.766C99.7577 127.168 104.316 140.744 105.066 142.919C105.816 145.093 111.362 151.615 111.362 151.615C109.888 148.861 100.506 125.805 100.506 125.805C106.654 127.469 112.748 122.88 115.239 120.669C114.991 117.97 114.803 116.432 114.803 116.432L96.2109 117.411C94.8297 126.65 95.5993 148.655 95.5993 148.655L95.257 154.308C95.0395 159.897 94.861 172.086 94.7031 183.996C95.2732 176.118 96.0471 166.16 96.2109 163.208C96.4734 158.427 96.6944 146.543 96.6963 144.425C96.6978 142.308 97.6658 125.805 97.6658 125.805C97.6658 125.805 97.6717 126.016 97.6819 126.394C97.7733 129.759 98.2564 146.516 98.8528 148.862C99.2371 150.369 101.128 156.279 102.656 161C99.4018 148.077 98.8528 129.149 98.8528 129.149C98.8528 129.149 99.8335 144.804 100.955 146.976C102.076 149.15 113.141 169.296 113.141 169.296Z" fill="#C59F6B"/>
<path d="M94.0117 126.909L93.3546 127.939C93.3546 127.939 93.4534 131.512 93.4431 131.912C93.4431 131.912 94.3236 133.629 94.0117 134.233C94.0117 134.233 93.0809 133.548 92.8462 132.902C92.6091 132.254 92.8941 127.346 92.8941 127.346L93.9432 125.805L94.0117 126.909Z" fill="#994D3D"/>
<path d="M93.5206 135.321C93.5206 135.321 93.6809 135.386 93.7034 134.763C93.7366 133.851 93.3206 132.671 93.2174 132.407C93.2174 132.407 93.2536 128.209 93.2658 128.032C93.2766 127.853 93.5435 127.302 93.9723 126.47C94.335 125.77 93.9557 125.767 93.9557 125.767L92.8107 126.479C92.8107 126.479 92.3057 129.143 92.3057 129.211C92.3057 129.278 92.5408 133.471 92.5408 133.471L93.5206 135.321Z" fill="#B4634E"/>
<path d="M93.7443 56.7561C93.7443 56.7561 92.0542 57.0894 91.5003 61.3312C90.9146 65.8212 90.1177 83.9307 90.1177 84.5835C90.1177 84.5835 89.82 85.3803 89.7818 86.6119C89.7447 87.8434 90.1177 90.816 90.1177 90.816C90.1177 90.816 89.7026 96.0329 89.7789 96.541C89.8571 97.0471 90.2311 100.018 90.2311 100.018C90.2311 100.018 89.9695 103.208 90.0434 104.512C90.1177 105.815 91.0534 118.932 91.0534 118.932C91.0534 118.932 92.6961 119.947 94.3031 118.352C94.3031 118.352 94.8257 99.0775 94.8257 98.0619C94.8257 97.0471 94.6776 92.3376 94.6776 92.3376L95.2373 89.04L95.4246 84.8009C95.4246 84.8009 96.6204 76.9749 96.6947 74.6551C96.77 72.3367 93.7443 56.7561 93.7443 56.7561Z" fill="#DEBC85"/>
<path d="M96.2093 79.2198L94.5999 75.3668C94.5999 75.3668 93.8177 82.1911 93.8177 83.2052C93.8177 84.2215 94.595 87.9161 94.5999 88.4242C94.6024 88.9316 93.8177 90.1296 93.8177 90.1296C93.8177 90.1296 91.5385 85.5984 91.3889 85.0902C91.2398 84.5835 91.8 88.5696 91.8 88.5696C91.8 88.5696 94.154 92.496 94.2665 93.2139C94.3775 93.9319 93.7429 98.4233 93.5943 98.714C93.4442 99.0048 91.6001 93.0617 91.3639 92.6996C91.1273 92.3376 93.8925 103.208 93.9663 103.57C94.0416 103.932 94.266 105.164 93.78 105.598C93.2946 106.034 91.3493 100.889 91.3493 100.889C91.3493 100.889 91.4642 103.571 91.7243 104.078C91.9863 104.584 93.6676 106.831 93.8558 107.338C94.0416 107.845 93.8925 114.947 93.5943 115.6C93.3669 116.092 92.6502 116.973 92.6502 116.973C92.6502 116.973 91.0535 116.243 90.8281 115.776C90.9249 117.132 91.0002 118.205 91.0335 118.674L94.0773 118.064L94.3227 117.653C94.4171 114.189 94.8258 98.9616 94.8258 98.0619C94.8258 97.0477 94.6776 92.3376 94.6776 92.3376L95.2374 89.0406L95.4252 84.8016C95.4252 84.8016 95.8515 82.0073 96.2118 79.261L96.2093 79.2198Z" fill="#AD8A5D"/>
<path d="M90.9283 117.191L90.8271 117.808L90.9464 120.635C90.9464 120.635 92.7147 121.649 94.4718 120.202V116.904L94.3408 116.432C94.3403 116.432 93.4447 117.012 90.9283 117.191Z" fill="#E9CD96"/>
<path d="M108.092 40.2325H105.644H103.199C103.319 50.7768 100.352 52.9514 100.352 52.9514C102.235 58.2768 105.644 57.951 105.644 57.951C105.644 57.951 109.056 58.2768 110.939 52.9514C110.939 52.9514 107.97 50.777 108.092 40.2325Z" fill="#BB715A"/>
<path d="M109.101 49.4672C108.624 47.8734 108.215 45.6 108.114 42.4078H105.609H103.176C103.115 44.3256 102.945 45.9154 102.713 47.2216C103.86 48.3301 106.314 50.2209 109.101 49.4672Z" fill="#A35D4B"/>
<path d="M117.547 56.7561C117.231 56.5381 109.998 51.6934 109.998 51.6934L105.644 55.0159L101.292 51.6934C101.292 51.6934 94.0567 56.5381 93.7438 56.7561C93.428 56.9734 93.5321 68.278 94.7915 76.7568C94.7915 76.7568 95.7243 82.6196 96.0963 89.5831C96.2792 92.9863 96.0665 97.2966 96.0489 100.066C96.0489 100.066 95.6304 116.975 95.735 119.15C95.735 119.15 100.025 122.625 104.792 123.085L105.644 118.932L106.503 123.112C111.37 122.785 115.554 119.15 115.554 119.15C115.659 116.975 115.24 100.066 115.24 100.066C115.192 91.6326 116.497 76.7575 116.497 76.7575C117.757 68.278 117.861 56.9734 117.547 56.7561Z" fill="#E9CD96"/>
<path d="M107.284 123.03C105.785 114.191 107.085 55.7041 107.085 55.7041L105.402 56.7561L105.066 118.28L105.37 120.273L105.644 118.932L106.504 123.112C106.766 123.095 107.026 123.064 107.284 123.03Z" fill="#C8A977"/>
<path opacity="0.8" d="M117.696 59.0434C117.696 59.0408 117.694 59.0394 117.694 59.0381C117.359 58.1677 116.518 68.061 115.789 68.1696C115.06 68.2783 113.378 57.9512 113.044 60.6683C112.709 63.3868 114.947 76.2124 114.579 76.2474C114.211 76.2803 112.369 67.951 111.962 67.6252C111.553 67.3001 112.089 70.8858 112.624 72.7351C113.159 74.5824 115.117 80.5893 115.246 81.502C115.372 82.4133 114.781 83.6051 114.639 84.5836C114.499 85.5614 114.835 87.7358 114.639 88.6046C114.442 89.4755 110.743 87.0837 111.182 88.6046C111.619 90.1276 114.443 90.9971 114.455 91.7568C114.465 92.5194 113.771 95.1285 113.716 96.214C113.66 97.3008 114.5 100.453 114.051 100.374C113.603 100.295 108.586 94.6924 108.586 94.6924C108.586 94.6924 110.408 102.411 111.122 103.388C111.836 104.366 114.388 104.91 114.455 105.887C114.521 106.866 114.947 110.889 114.22 112.41C113.49 113.934 113.716 117.519 113.716 117.519C113.754 118.965 110.741 121.373 108.932 122.684C112.685 121.642 115.555 119.15 115.555 119.15C115.66 116.975 115.241 100.066 115.241 100.066C115.192 91.6327 116.498 76.7575 116.498 76.7575C117.421 70.545 117.724 62.8172 117.696 59.0434Z" fill="#C8A977"/>
<path d="M97.9089 99.3654C97.1804 98.2793 97.2924 92.9533 97.4029 92.6276C97.5114 92.3012 100.488 86.6489 100.715 84.5835C100.943 82.5174 97.8537 89.1483 97.2362 88.7149C96.6202 88.2781 99.7579 75.9956 99.7036 72.4079C99.6488 68.8217 97.4606 83.2779 97.0113 82.4098C96.5635 81.5396 98.0776 63.6035 97.5725 63.8202C97.069 64.038 96.3997 77.7627 95.6673 77.9519C95.3007 78.0473 94.9042 76.7204 94.5996 75.3668C94.6607 75.8372 94.7243 76.3007 94.7922 76.7567C94.7922 76.7567 95.7245 82.6196 96.0971 89.583C96.2799 92.9862 96.0668 97.2973 96.0492 100.066C96.0492 100.066 95.6307 116.975 95.7353 119.15C95.7353 119.15 98.672 121.526 102.384 122.608C99.7491 120.933 98.301 118.705 98.301 118.705C98.189 117.284 97.7955 114.909 97.2924 113.714C96.7874 112.52 97.0685 110.237 97.0685 110.237C98.9727 108.615 102.379 101.843 103.108 100.375C102.268 101.85 98.5811 104.91 98.5811 104.91C98.5811 104.91 98.6378 100.453 97.9089 99.3654Z" fill="#C8A977"/>
<path d="M103.107 100.374C103.134 100.327 103.159 100.28 103.18 100.236C103.295 99.9943 103.258 100.07 103.107 100.374Z" fill="#C8A977"/>
<path d="M104.895 57.1725L104.608 117.953L103.743 122.934C104.091 122.999 104.441 123.051 104.792 123.085L105.644 118.932V58.4949L104.895 57.1725Z" fill="#EBEEC9"/>
<path d="M100.716 58.4678C100.716 58.4678 102.826 54.2549 105.645 59.7438C105.645 59.744 103.204 48.6954 100.716 58.4678Z" fill="#BB9D6C"/>
<path d="M110.576 58.6872C110.576 58.6872 108.464 54.2549 105.645 59.7438C105.645 59.744 108.087 48.9126 110.576 58.6872Z" fill="#BB9D6C"/>
<path d="M102.702 47.2821C102.702 47.2821 103.04 52.6798 105.645 55.016V59.744C105.645 59.744 103.605 54.7338 102.565 55.1676C101.522 55.6034 100.74 58.6034 100.74 58.6034C100.74 58.6034 99.6309 52.6007 100.352 51.212C101.068 49.8354 102.449 46.5323 102.702 47.2821Z" fill="#EBEEC9"/>
<path d="M108.589 47.2821C108.589 47.2821 108.25 52.6798 105.645 55.016V59.744C105.645 59.744 107.685 54.7338 108.726 55.1676C109.768 55.6034 110.551 58.6034 110.551 58.6034C110.551 58.6034 111.659 52.6007 110.939 51.212C110.224 49.8354 108.841 46.5323 108.589 47.2821Z" fill="#EBEEC9"/>
<path d="M113.698 75.598H111.363H109.025C109.025 75.598 108.988 82.1912 109.025 83.3514C109.063 84.5116 111.363 85.5985 111.363 85.5985C111.363 85.5985 113.661 84.5116 113.698 83.3514C113.736 82.1912 113.698 75.598 113.698 75.598Z" fill="#EBEEC9"/>
<path d="M92.4684 57.9948C92.0851 58.6741 91.7111 59.7201 91.5004 61.3314C90.9147 65.8214 90.1178 83.9307 90.1178 84.5835C90.1178 84.5835 89.8196 85.3803 89.7814 86.6126C89.7448 87.8434 90.1178 90.816 90.1178 90.816C90.1178 90.816 89.7022 96.0336 89.779 96.541C89.8567 97.0471 90.2312 100.018 90.2312 100.018C90.2312 100.018 89.9692 103.208 90.043 104.512C90.0782 105.127 90.306 108.38 90.5358 111.639L90.4541 103.932L90.8277 100.375L90.1549 96.1049C90.1549 96.1049 90.7162 91.106 90.4913 89.4075C90.2679 87.7097 90.6785 84.9442 90.6419 84.2935C90.6042 83.6407 91.4637 65.3787 91.7619 63.3503C91.9526 62.0514 92.2674 59.5945 92.4684 57.9948Z" fill="#E9CD96"/>
<path opacity="0.4" d="M111.517 75.598C111.772 76.883 112.763 81.8112 112.763 81.8112C112.763 81.8112 111.586 84.3113 111.183 84.4739C110.892 84.5911 109.679 83.5865 109.019 83.0112C109.021 83.1491 109.022 83.2656 109.025 83.3513C109.063 84.5109 111.363 85.5977 111.363 85.5977C111.363 85.5977 113.661 84.5109 113.698 83.3513C113.735 82.1911 113.698 75.5973 113.698 75.5973H111.517V75.598Z" fill="#CFD2A9"/>
<path d="M111.202 30.814C111.202 30.814 111.969 27.8635 112.855 28.7333C113.351 29.2202 112.898 36.9748 111.202 36.6002C111.202 36.6002 110.901 36.3928 110.88 35.143L111.202 30.814Z" fill="#D0846A"/>
<path d="M112.618 31.8929C112.598 31.3538 112.572 30.8093 112.506 30.3091C112.49 30.1844 112.466 30.0711 112.438 29.9764C112.402 29.8858 112.384 29.88 112.364 29.9C112.322 29.9168 112.317 29.9544 112.301 29.9738C112.286 29.9938 112.259 30.0515 112.238 30.0864C112.196 30.1749 112.151 30.2662 112.112 30.3706C111.952 30.7791 111.814 31.2397 111.696 31.7098C111.586 32.1631 111.469 32.7042 111.482 33.1066L111.451 32.9886C111.559 33.2286 111.661 33.4586 111.735 33.7697C111.753 33.8496 111.77 33.9316 111.776 34.04C111.788 34.1338 111.771 34.3029 111.716 34.3993C111.663 34.4873 111.591 34.4987 111.568 34.508L111.513 34.5295C111.504 34.5402 111.496 34.5477 111.485 34.5535C111.391 34.6562 111.359 34.96 111.373 35.2296C111.391 35.5024 111.453 35.7895 111.587 35.9464C111.432 35.8607 111.33 35.5642 111.284 35.2651C111.241 34.9726 111.231 34.5731 111.398 34.3075C111.449 34.2424 111.498 34.2085 111.528 34.1949C111.58 34.1686 111.586 34.1587 111.594 34.1473C111.588 34.1358 111.597 34.148 111.588 34.0942C111.584 34.0547 111.569 33.9984 111.554 33.9447C111.485 33.7273 111.386 33.4982 111.284 33.3058L111.258 33.2562L111.253 33.1878C111.223 32.8324 111.268 32.5549 111.309 32.2806C111.354 32.0071 111.407 31.7469 111.472 31.4976C111.602 31 111.747 30.5233 111.94 30.0962C111.986 29.9875 112.039 29.8842 112.096 29.7864C112.13 29.7382 112.151 29.6944 112.196 29.6442C112.24 29.596 112.291 29.5484 112.319 29.5451C112.439 29.4807 112.554 29.6764 112.582 29.8193C112.616 29.9668 112.636 30.1102 112.646 30.2511C112.688 30.812 112.66 31.3571 112.618 31.8929Z" fill="#975238"/>
<path d="M112.343 32.5982C112.343 32.5982 112.337 32.0109 112.238 31.4917C112.191 31.2328 112.115 31.0102 112.045 30.9184C111.976 30.8264 111.925 30.8293 111.926 30.8218L112 30.3538C112 30.3538 112.022 30.376 112.059 30.414C112.098 30.4475 112.146 30.5253 112.193 30.6211C112.287 30.8248 112.341 31.1368 112.361 31.4324C112.403 32.0311 112.343 32.5982 112.343 32.5982Z" fill="#975238"/>
<path d="M100.166 30.814C100.166 30.814 99.3989 27.8635 98.513 28.7333C98.0163 29.2202 98.47 36.9748 100.166 36.6002C100.166 36.6002 100.467 36.3928 100.488 35.143L100.166 30.814Z" fill="#D0846A"/>
<path d="M98.7502 31.8928C98.7081 31.357 98.6802 30.8119 98.7213 30.2506C98.7316 30.1097 98.7511 29.9664 98.7858 29.8188C98.8132 29.6759 98.9291 29.4795 99.0479 29.5446C99.0772 29.5479 99.1276 29.5975 99.1716 29.6453C99.2161 29.6941 99.2376 29.7379 99.2713 29.7861C99.328 29.8839 99.3808 29.9879 99.4273 30.0966C99.6204 30.523 99.7661 31.0004 99.8961 31.4972C99.9607 31.7468 100.014 32.007 100.058 32.2803C100.1 32.5539 100.145 32.8321 100.116 33.1875L100.11 33.2559L100.083 33.3055C99.9827 33.4979 99.8829 33.7272 99.8145 33.9443C99.7979 33.9981 99.7842 34.0543 99.7798 34.0939C99.771 34.1477 99.7788 34.1355 99.7739 34.147C99.7827 34.1584 99.7876 34.1684 99.8394 34.1946C99.8707 34.2081 99.9186 34.2421 99.97 34.3072C100.137 34.5735 100.127 34.9726 100.083 35.2648C100.038 35.5645 99.9352 35.8617 99.7808 35.9461C99.9152 35.7906 99.9778 35.5021 99.9949 35.2292C100.009 34.9604 99.9763 34.6566 99.8829 34.5533C99.8727 34.5472 99.8634 34.5399 99.8551 34.5293L99.7998 34.5077C99.7768 34.4983 99.705 34.4861 99.6527 34.399C99.5969 34.3024 99.5793 34.1322 99.5916 34.0397C99.5979 33.931 99.6155 33.8492 99.6326 33.7695C99.7074 33.4584 99.8096 33.2277 99.9181 32.9883L99.8859 33.1063C99.8986 32.7046 99.7827 32.1628 99.6707 31.7095C99.5539 31.2402 99.416 30.7795 99.2557 30.3717C99.2156 30.267 99.1716 30.1759 99.1286 30.0859C99.1085 30.051 99.0816 29.9933 99.067 29.9732C99.0503 29.9539 99.0454 29.9163 99.0039 29.9001C98.9834 29.8794 98.9653 29.8848 98.9306 29.9759C98.9027 30.0703 98.8778 30.1837 98.8616 30.3085C98.7956 30.8093 98.7707 31.3537 98.7502 31.8928Z" fill="#975238"/>
<path d="M99.0252 32.5981C99.0252 32.5981 98.966 32.0308 99.0085 31.4321C99.0296 31.1363 99.0838 30.8252 99.1772 30.6214C99.2241 30.5256 99.2721 30.4479 99.3107 30.4143C99.3483 30.3761 99.3698 30.3541 99.3698 30.3541L99.4442 30.8221C99.4451 30.8295 99.3943 30.8268 99.3244 30.9187C99.2545 31.0108 99.1787 31.2332 99.1308 31.4921C99.031 32.0101 99.0252 32.5981 99.0252 32.5981Z" fill="#975238"/>
<path d="M105.028 47.5011C105.028 47.5011 102.113 43.6964 101.216 41.4138C100.397 39.3297 99.8332 29.7764 99.7413 28.1264C99.7383 28.072 99.7344 28.0171 99.7305 27.9622C99.7285 27.91 99.7271 27.8817 99.7271 27.8817L99.7285 27.8824C99.7129 27.5411 99.7031 27.1971 99.7031 26.8484C99.7031 20.4849 102.364 15.3251 105.644 15.3251C108.926 15.3251 111.586 20.4849 111.586 26.8484C111.586 27.2622 111.574 27.6698 111.552 28.0728C111.552 28.0728 110.969 39.1316 110.072 41.414C109.176 43.6964 106.261 47.5013 106.261 47.5013C106.261 47.5013 105.785 48.0175 105.028 47.5011Z" fill="#D0846A"/>
<path d="M99.2145 28.7507C99.2145 28.7507 99.807 29.3596 100.05 31.7441C100.05 31.7441 100.378 30.6545 100.49 28.3705C100.602 26.0854 100.798 25.4496 101.231 23.8463C101.231 23.8463 102.284 20.5259 101.823 17.4059C101.528 15.4163 99.9772 14.4474 99.3934 16.6441C98.2455 20.9665 98.9769 27.9583 99.2145 28.7507Z" fill="#090000"/>
<path d="M106.245 33.177C106.245 33.177 106.165 35.3294 106.211 36.7878C106.234 37.5792 106.028 38.0372 105.832 38.1189C105.832 38.1189 106.653 38.3703 106.779 36.8703C106.861 35.8607 106.371 34.7537 106.245 33.177Z" fill="#A5644F"/>
<path d="M105.403 37.9661C105.403 37.9661 104.616 37.4323 104.745 37.9063C104.875 38.3819 105.403 37.9661 105.403 37.9661Z" fill="#975238"/>
<path d="M101.581 18.928C101.581 18.928 103.09 23.0787 105.136 23.9478C105.136 23.9478 104.041 22.6443 103.565 21.8569C103.565 21.8569 105.663 24.0712 107.991 24.4714C107.991 24.4714 106.51 23.4931 105.962 22.1165C105.962 22.1165 107.404 24.1247 110.066 24.4714C110.066 24.4714 109.056 23.8398 108.678 23.0787C108.678 23.0787 110.041 23.7927 110.487 24.4714C110.932 25.15 111.319 30.5874 111.319 30.5874C111.319 30.5874 111.587 29.6896 111.976 28.9627C111.976 28.9627 112.62 22.1438 112.349 20.2871C112.065 18.3533 110.721 9.95938 103.832 10.6663C103.832 10.6663 99.9171 11.2107 100.266 15.9922L101.581 18.928Z" fill="#090000"/>
<path d="M101.076 15.3252C100.425 13.7314 101.604 12.1121 102.664 11.0654C101.541 11.63 100.044 12.957 100.266 15.9925L101.581 18.9281C101.581 18.9281 103.091 23.0787 105.136 23.9479C105.136 23.9479 104.041 22.6443 103.565 21.857C103.565 21.857 105.663 24.0712 107.991 24.4714C107.991 24.4714 106.51 23.4932 105.962 22.1165C105.962 22.1165 107.404 24.1247 110.066 24.4714C110.066 24.4714 109.056 23.8399 108.678 23.0787C108.678 23.0787 110.041 23.7928 110.487 24.4714C110.932 25.1501 111.319 30.5874 111.319 30.5874C111.319 30.5874 111.587 29.6896 111.976 28.9627C111.976 28.9627 112.62 22.1438 112.349 20.2872C112.336 20.2021 112.322 20.105 112.305 19.9976C111.149 24.7698 102.081 17.786 101.076 15.3252Z" fill="black"/>
<path d="M99.8994 22.4606C99.2555 20.449 99.1719 16.5926 100.348 15.3964C99.9718 15.4386 99.6144 15.8162 99.3934 16.6444C98.2455 20.9668 98.9769 27.9586 99.2145 28.751C99.2145 28.751 99.807 29.3599 100.05 31.7443C100.05 31.7443 100.378 30.6548 100.49 28.3708C100.531 27.5212 100.584 26.9004 100.657 26.3732C100.521 25.2439 100.276 23.6381 99.8994 22.4606Z" fill="black"/>
<path d="M112.305 19.997C111.937 17.6367 110.419 9.99116 103.832 10.6663C103.832 10.6663 103.34 10.7354 102.721 11.0365C102.479 11.4134 102.384 11.8821 102.583 12.4608C103.319 14.5803 110.109 11.1196 112.305 19.997Z" fill="#2B101A"/>
<path d="M102.534 144.423C102.534 144.423 114.556 171.316 115.453 172.733C115.453 172.733 108.025 151.927 102.534 144.423Z" fill="#E9CD96"/>
<path d="M101.58 127.031C101.514 126.933 111.949 152.249 114.247 156.435C114.247 156.435 105.279 132.357 101.58 127.031Z" fill="#E9CD96"/>
<path d="M101.356 152.901C101.356 152.901 107.438 179.043 107.718 179.696C107.718 179.696 105.448 162.196 101.356 152.901Z" fill="#E9CD96"/>
<path d="M105.491 208.973C106.985 199.779 108.644 185.035 108.586 183.996C108.586 183.996 100.39 192.485 99.8508 193.646L96.1064 208.973H105.491Z" fill="#E9CD96"/>
<path d="M94.4395 202.67C94.4395 202.67 107.141 212.019 117.508 202.512L117.925 213.629C117.925 213.629 108.673 224.154 94.0156 213.625L94.4395 202.67Z" fill="#E2BE81"/>
<path d="M94.0166 213.627C97.431 216.078 100.55 217.387 103.323 217.954L103.893 207.845C100.128 207.514 95.7126 204.597 94.4014 203.677L94.0166 213.627Z" fill="#C59F6B"/>
<path d="M117.931 213.298C117.035 213.693 116.531 212.325 116.03 211.504C115.485 210.614 107.576 213.978 106.782 213.679C105.986 213.382 105.777 210.416 105.149 210.49C104.653 210.547 104.444 215.887 104.379 218.135C112.907 219.355 117.944 213.631 117.944 213.631L117.931 213.298Z" fill="#E9CD96"/>
<path d="M105.139 40.5011C105.517 40.5233 105.963 40.0091 106.291 40.2704C106.618 40.5315 107.356 42.0068 106.92 42.5019C106.485 42.9973 106.403 42.2708 105.306 42.7899C104.21 43.3091 104.017 42.7297 104.181 42.0344C104.346 41.3395 104.665 40.4737 105.139 40.5011Z" fill="#991E23"/>
<path d="M117.543 202.969C115.262 205.478 111.202 208.568 105.462 207.749C105.462 207.749 105.337 209.807 106.781 210.411C108.224 211.012 114.94 208.786 115.819 209.677C116.334 210.195 117.099 210.99 117.855 211.267L117.543 202.969Z" fill="#C59F6B"/>
<path d="M105.448 38.5746L105.567 40.0495C105.645 41.0246 103.885 40.635 103.694 40.6166C103.362 40.5841 102.939 41.4171 102.915 41.4653C102.925 41.4024 103.107 40.2097 103.484 39.733C103.928 39.1686 105.207 38.6662 105.418 38.5873C105.438 38.5797 105.448 38.5746 105.448 38.5746Z" fill="black"/>
<path d="M108.356 41.074C108.327 41.0334 107.852 40.3793 107.598 40.3205C107.403 40.2743 105.648 41.0465 105.685 40.0202L105.742 38.4683C105.742 38.4683 107.422 38.9125 107.865 39.6763C108.29 40.4138 108.353 41.0285 108.356 41.074Z" fill="black"/>
<path d="M105.447 38.5747L105.585 38.5194C105.585 38.5194 105.62 40.1636 105.535 40.3087C105.449 40.4539 105.447 38.5747 105.447 38.5747Z" fill="black"/>
<path d="M105.742 38.4683L105.625 38.4387C105.625 38.4387 105.619 40.3085 105.752 40.3316C105.885 40.3549 105.742 38.4683 105.742 38.4683Z" fill="black"/>
<path d="M107.811 28.1648C107.811 28.1648 107.433 28.7836 107.104 29.5199C107.019 29.6977 106.951 29.8968 106.876 30.0746C106.807 30.2563 106.756 30.4434 106.705 30.5968C106.659 30.755 106.639 30.9019 106.616 30.9997C106.595 31.1003 106.584 31.1579 106.584 31.1579C106.584 31.1579 106.59 31.0976 106.602 30.993C106.616 30.8904 106.624 30.7314 106.657 30.5566C106.694 30.387 106.731 30.1763 106.785 29.9686C106.844 29.7667 106.897 29.5348 106.968 29.3283C107.235 28.4781 107.571 27.7057 107.571 27.7057L107.811 28.1648Z" fill="#975238"/>
<path d="M104.724 26.9108C104.724 26.9108 104.627 28.4015 104.34 28.5269C103.538 28.8795 102.105 27.2286 100.91 29.0144C100.91 29.0144 100.998 27.5171 101.697 27.067C102.396 26.6157 104.492 27.1541 104.724 26.9108Z" fill="black"/>
<path d="M106.784 27.037C106.784 27.037 106.839 28.519 107.115 28.6188C107.887 28.8963 109.325 27.1174 110.441 28.7949C110.441 28.7949 110.395 27.3063 109.726 26.9194C109.058 26.5321 107.004 27.2601 106.784 27.037Z" fill="black"/>
<path d="M104.37 31.712C104.37 31.712 104.46 31.4029 104.418 31.0904C104.377 30.7793 102.911 28.4016 101.935 31.3003C101.935 31.3003 103.025 34.2505 104.37 31.712Z" fill="#F0F0ED"/>
<path d="M104.259 31.1745C104.259 31.8265 103.987 32.3556 103.65 32.3556C103.314 32.3556 103.041 31.8263 103.041 31.1745C103.041 30.5208 103.314 29.9921 103.65 29.9921C103.987 29.9919 104.259 30.5205 104.259 31.1745Z" fill="#2C1117"/>
<path d="M103.957 31.1467C103.957 31.4598 103.825 31.7141 103.663 31.7141C103.502 31.7141 103.37 31.4598 103.37 31.1467C103.37 30.8309 103.502 30.576 103.663 30.576C103.825 30.576 103.957 30.8309 103.957 31.1467Z" fill="#040000"/>
<path d="M102.395 32.1631L102.105 31.8687C102.01 31.7713 101.912 31.644 101.811 31.5227L101.728 31.422L101.793 31.1216V31.1209L101.91 30.8105C101.951 30.7104 101.983 30.5974 102.036 30.512L102.184 30.2424C102.232 30.1505 102.296 30.0889 102.351 30.0118C102.407 29.9367 102.468 29.8724 102.534 29.8287C102.599 29.7844 102.659 29.714 102.729 29.6958C102.864 29.6247 103.001 29.6087 103.137 29.618C103.271 29.6449 103.402 29.6898 103.527 29.7696C103.65 29.8514 103.77 29.95 103.881 30.076C103.991 30.2009 104.094 30.3456 104.192 30.5018C104.238 30.5862 104.288 30.6613 104.329 30.7573C104.372 30.8538 104.414 30.9311 104.443 31.0771L104.444 31.0804V31.0844C104.444 31.2715 104.411 31.4424 104.392 31.6133C104.393 31.4351 104.409 31.2613 104.392 31.0964L104.392 31.1031C104.368 31.0326 104.315 30.9482 104.269 30.8838C104.223 30.8127 104.171 30.7518 104.122 30.688C104.019 30.57 103.913 30.4656 103.803 30.3831C103.693 30.3013 103.582 30.2329 103.47 30.1894C103.357 30.1451 103.245 30.1355 103.133 30.1382C103.024 30.1625 102.917 30.194 102.815 30.2635C102.763 30.2816 102.719 30.35 102.669 30.3896C102.62 30.4291 102.575 30.4869 102.533 30.5546C102.491 30.6203 102.442 30.6647 102.404 30.7438L102.287 30.9711C102.21 31.1213 102.147 31.3104 102.075 31.478L102.057 31.0771C102.106 31.2493 102.151 31.4338 102.212 31.6169L102.395 32.1631Z" fill="#030000"/>
<path d="M103.543 30.7329C103.543 30.8917 103.476 31.022 103.394 31.022C103.312 31.022 103.245 30.8919 103.245 30.7329C103.245 30.5733 103.312 30.4446 103.394 30.4446C103.476 30.4446 103.543 30.5733 103.543 30.7329Z" fill="#F0F0ED"/>
<path d="M107.145 31.7121C107.145 31.7121 107.056 31.403 107.098 31.0906C107.141 30.7795 108.604 28.4017 109.581 31.3004C109.581 31.3004 108.492 34.2506 107.145 31.7121Z" fill="#F0F0ED"/>
<path d="M108.029 30.9246C108.029 31.5917 108.308 32.1335 108.653 32.1335C108.998 32.1335 109.278 31.5917 109.278 30.9246C109.278 30.2555 108.998 29.7144 108.653 29.7144C108.308 29.7141 108.029 30.2552 108.029 30.9246Z" fill="#2C1117"/>
<path d="M108.36 30.9245C108.36 31.2377 108.492 31.4919 108.654 31.4919C108.817 31.4919 108.947 31.2377 108.947 30.9245C108.947 30.6088 108.817 30.3539 108.654 30.3539C108.492 30.3539 108.36 30.6088 108.36 30.9245Z" fill="#040000"/>
<path d="M108.775 30.5109C108.775 30.6697 108.841 30.8 108.923 30.8C109.006 30.8 109.072 30.6699 109.072 30.5109C109.072 30.3513 109.005 30.2227 108.923 30.2227C108.841 30.2227 108.775 30.3513 108.775 30.5109Z" fill="#F0F0ED"/>
<path d="M109.119 32.1633L109.303 31.6173C109.364 31.4342 109.409 31.2499 109.459 31.0776L109.44 31.4784C109.368 31.3108 109.305 31.1217 109.227 30.9715L109.111 30.7442C109.073 30.6651 109.023 30.6209 108.981 30.5551C108.94 30.4873 108.895 30.4298 108.845 30.39C108.797 30.3504 108.753 30.2822 108.7 30.264C108.598 30.1942 108.492 30.1626 108.382 30.1386C108.271 30.136 108.159 30.1453 108.046 30.1898C107.933 30.2333 107.823 30.3024 107.712 30.3835C107.603 30.466 107.496 30.5706 107.393 30.69C107.345 30.7531 107.293 30.814 107.246 30.8844C107.2 30.9495 107.148 31.0333 107.123 31.1038L107.124 31.0971C107.106 31.2619 107.122 31.4358 107.123 31.614C107.105 31.4431 107.07 31.272 107.071 31.0851V31.0811L107.072 31.0778C107.101 30.9322 107.144 30.8544 107.187 30.7584C107.228 30.6617 107.277 30.5869 107.324 30.5031C107.421 30.3469 107.525 30.202 107.635 30.0766C107.745 29.9507 107.864 29.852 107.988 29.7702C108.113 29.6904 108.244 29.6455 108.379 29.6186C108.515 29.6093 108.651 29.6253 108.786 29.6964C108.856 29.7146 108.915 29.7848 108.981 29.8293C109.047 29.8729 109.108 29.9373 109.164 30.0124C109.219 30.0895 109.283 30.1527 109.33 30.2431L109.478 30.5127C109.531 30.5978 109.564 30.7111 109.605 30.8111L109.722 31.1215V31.1222L109.787 31.4226L109.703 31.5233C109.602 31.6446 109.505 31.7722 109.409 31.8693L109.119 32.1633Z" fill="#030000"/>
<path d="M113.002 31.9133L113.12 30.292C113.12 30.292 111.793 27.8067 111.66 27.5005C111.66 27.5005 110.412 27.4093 110.428 26.5547C110.428 26.5547 111.348 25.8267 111.748 25.9869C112.148 26.1493 113.666 30.1149 113.666 30.1149L113.44 32.6307L113.002 31.9133Z" fill="#994D3D"/>
<path d="M110.404 25.1097C110.404 25.1097 110.263 25.276 110.466 25.7595C110.762 26.4711 111.481 26.7856 111.65 26.8422C111.65 26.8422 113.097 29.9638 113.152 30.1073C113.206 30.2538 113.205 31.0082 113.183 32.1838C113.164 33.1766 113.443 32.6771 113.443 32.6771L114.031 30.6404C114.031 30.6404 113.464 28.0249 113.44 27.9751C113.417 27.9267 111.772 25.1673 111.772 25.1673L110.404 25.1097Z" fill="#B4634E"/>
<path d="M93.8423 120.125C93.8423 120.125 94.1405 122.79 94.4603 124.078C94.4603 124.078 94.7125 125.013 94.7365 126.035C94.759 127.056 94.6431 128.788 94.5981 129.767C94.5981 129.767 94.5097 130.877 94.2906 130.699C94.0711 130.522 94.0247 129.899 94.1625 128.432C94.1625 128.432 93.9802 126.832 93.8423 126.433C93.8423 126.433 93.0415 127.411 92.8572 128.966C92.8572 128.966 92.8117 132.566 92.8572 133.188C92.8572 133.188 93.5705 135.732 92.9921 136.323C92.9921 136.323 92.4602 134.852 92.2275 133.897C92.0354 133.109 91.5054 128.255 91.437 126.922C91.3675 125.59 91.8951 120.924 91.8496 119.946C91.8031 118.968 93.8423 120.125 93.8423 120.125Z" fill="#D0846A"/>
<path d="M115.511 36.6531C115.511 36.6531 114.355 35.0976 113.668 34.5792C113.668 34.5792 113.156 34.2267 112.779 33.51C112.404 32.7927 111.879 31.3749 111.568 30.5979C111.568 30.5979 111.243 29.6687 111.466 29.5088C111.688 29.3485 111.941 29.7443 112.356 30.9972C112.356 30.9972 113.052 31.9267 113.293 32.0367C113.293 32.0367 113.537 30.2616 113.124 28.8819C113.124 28.8819 111.892 26.187 111.64 25.7929C111.64 25.7929 110.223 24.8772 110.44 23.6768C110.44 23.6768 111.346 24.0503 111.851 24.4416C112.269 24.7632 114.362 27.6154 114.882 28.4994C115.399 29.3852 116.655 33.4943 117.032 34.1487C117.409 34.8041 115.511 36.6531 115.511 36.6531Z" fill="#D0846A"/>
<path d="M123.875 69.5334H127.236C127.236 69.5334 129.298 69.6822 130.177 69.2372C130.177 69.2372 132.965 64.0524 130.864 58.5708L129.916 55.8086C129.512 54.857 128.194 53.1761 128.194 53.1761C128.194 53.1761 126.664 48.8085 126.429 48.539C126.195 48.2715 124.876 46.5921 124.876 46.5921C124.876 46.5921 123.947 43.9125 123.434 43.0566C122.922 42.2017 117.628 33.839 117.628 33.839C117.628 33.839 116.069 35.2699 115.453 38.5608C115.453 38.5608 121.844 53.3563 122.201 54.0995C122.558 54.8419 124.323 58.0901 124.323 58.0901L125.073 61.2417L124.749 60.4784L124.52 63.7562L123.889 65.2284L123.803 66.9783L123.846 68.145L122.472 68.5617L123.875 69.5334Z" fill="#DEBC85"/>
<path d="M128.215 52.9634L127.273 52.056C127.273 52.056 125.815 48.7236 125.478 48.0489C125.14 47.3733 118.348 35.2529 118.348 35.2529C118.203 35.3454 118.064 35.4532 117.931 35.5705L116.782 37.6836L116.288 40.5272L117.792 39.7016L118.79 37.8654C118.79 37.8654 120.525 43.8331 121.091 44.1805C121.658 44.5267 123.565 46.0145 123.743 46.5205C123.919 47.0298 124.924 56.844 124.93 56.4158C124.937 55.9859 124.828 49.9391 125.006 49.1938C125.186 48.4463 126.287 51.1407 126.419 51.8714C126.55 52.6012 125.925 54.7252 125.925 54.7252L126.883 60.32" fill="#AD8A5D"/>
<path d="M118.375 34.7785L118.232 34.1936L117.151 32.2814C117.151 32.2814 115.501 33.877 114.725 37.258L115.884 39.6716L116.145 39.8447C116.145 39.8449 116.598 38.2343 118.375 34.7785Z" fill="#E9CD96"/>
<path d="M125.057 59.3674L125.967 60.4786L125.752 61.5341L125.057 62.4092H124.857L124.592 61.8259L124.556 60.9647L124.506 59.9508L124.807 60.1452L125.287 60.5063L124.989 60.8883L125.186 60.9647L125.373 60.8883L125.459 60.687C125.459 60.687 125.451 60.4648 125.416 60.3674C125.38 60.2701 125.244 59.9508 125.236 59.909C125.229 59.8672 125.193 59.7979 125.186 59.7561C125.179 59.7143 125.086 59.4783 125.086 59.4783L125.057 59.3674Z" fill="#AD8A5D"/>
</svg>
