<svg width="220" height="240" viewBox="0 0 220 240" fill="none" xmlns="http://www.w3.org/2000/svg">
<path fill-rule="evenodd" clip-rule="evenodd" d="M123.536 116.113V124.073L119.782 119.66L118.916 115.28L123.536 116.113Z" fill="#FFB685"/>
<path fill-rule="evenodd" clip-rule="evenodd" d="M120.185 191.656C120.185 191.656 122.39 174.185 124.263 161.335C124.711 158.254 120.286 143.184 120.286 143.184C118.396 147.354 117.819 160.541 117.079 168.864C116.338 177.185 114.939 190.033 114.939 190.033L116.006 197.107L120.185 191.656Z" fill="#FFB685"/>
<path fill-rule="evenodd" clip-rule="evenodd" d="M122.751 172.105C123.096 169.572 123.452 166.995 123.804 164.518C124.416 160.209 122.174 139.014 120.285 143.185C118.394 147.354 117.818 160.541 117.077 168.864C117.033 169.361 116.987 169.879 116.938 170.406C118.724 171.04 120.661 171.619 122.751 172.105Z" fill="#FAA66E"/>
<path fill-rule="evenodd" clip-rule="evenodd" d="M102.71 195.241C102.71 195.241 104.915 177.773 106.787 164.921C107.236 161.84 102.811 146.77 102.811 146.77C100.921 150.939 100.344 164.128 99.6033 172.45C98.8626 180.771 97.4639 193.618 97.4639 193.618L98.5311 200.695L102.71 195.241Z" fill="#FFB685"/>
<path fill-rule="evenodd" clip-rule="evenodd" d="M105.277 175.692C105.622 173.157 105.978 170.581 106.33 168.103C106.942 163.796 104.701 142.599 102.811 146.77C100.921 150.939 100.344 164.128 99.6037 172.45C99.5597 172.948 99.5132 173.464 99.4639 173.991C101.25 174.625 103.187 175.205 105.277 175.692Z" fill="#FAA66E"/>
<path fill-rule="evenodd" clip-rule="evenodd" d="M110.659 112.016C110.659 112.016 112.438 118.61 116.578 124.034C120.719 129.458 127.921 134.259 127.921 134.259C127.921 134.259 130.232 140.617 131.548 142.448C132.464 143.72 133.093 143.44 132.524 142.023C132.283 141.424 131.542 140.174 131.305 139.352C131.708 140.028 133.654 143.122 134.138 142.18C134.622 141.237 133.559 140.683 132.197 137.571C133.288 139.339 134.736 141.359 135.266 140.541C135.796 139.725 133.454 137.188 133.034 136.148C133.741 136.976 135.615 138.666 135.808 137.347C136.001 136.028 134.059 134.65 133.573 133.596L132.273 130.452C132.463 130.251 133.937 130.172 134.157 129.85C134.37 129.537 134.39 128.975 133.673 128.301C132.488 127.213 130.185 127.996 130.185 127.996C122.96 124.054 119.869 118.816 116.616 108.409C116.066 106.65 114.006 103.785 112.12 105.326C110.232 106.867 109.941 109.807 110.659 112.016Z" fill="#FFB685"/>
<path fill-rule="evenodd" clip-rule="evenodd" d="M108.667 88.2384L113.327 89.6578L113.72 97.739L111.187 98.6469L108.534 98.5269L108.667 88.2384Z" fill="#E8935A"/>
<path fill-rule="evenodd" clip-rule="evenodd" d="M106.682 98.8765C107.717 97.5613 110.163 96.7082 111.881 96.5992C113.315 96.5087 115.157 96.7336 115.958 97.7464C115.191 99.4854 113.141 100.878 111.32 100.878C109.5 100.878 107.631 99.4614 106.682 98.8765Z" fill="#E8935A"/>
<path fill-rule="evenodd" clip-rule="evenodd" d="M97.8585 77.2622C94.7486 76.7582 94.5712 69.0768 97.1647 68.2905C95.8555 55.7394 100.912 43.6332 110.074 42.7596C116.415 42.1551 123.102 48.5121 124.133 61.7649C124.826 70.6615 124.368 79.3584 122.236 84.8078C117.043 98.0901 100.201 93.0912 97.8585 77.2622Z" fill="#FFB685"/>
<path fill-rule="evenodd" clip-rule="evenodd" d="M97.8582 77.2622C97.0334 77.3794 96.4634 76.4276 96.0566 75.7255C96.9234 76.3296 97.8132 76.4743 98.8115 75.5033C100.376 90.4443 114.641 95.9157 120.526 88.0155C114.064 97.0773 99.9854 91.632 97.8582 77.2622Z" fill="#FAA66E"/>
<path fill-rule="evenodd" clip-rule="evenodd" d="M99.8501 69.9148C99.8501 69.9148 100.399 65.9889 100.601 62.4171C100.802 58.8441 102.025 55.8441 102.025 55.8441C102.025 55.8441 109.522 59.829 111.377 58.8861C113.231 57.9432 105.568 47.874 105.568 47.874L111.834 55.7469L112.513 56.8632C112.513 56.8632 115.936 60.5106 116.817 59.9055C117.698 59.2995 113.687 49.5303 113.687 49.5303C113.687 49.5303 117.539 60.3129 122.826 61.1904C124.806 61.5204 124.001 59.1159 123.344 56.4165C122.245 51.906 119.452 45.7533 115.33 44.151C108.74 41.5884 102.168 44.4969 100.765 47.1945C99.3617 49.8912 97.2858 62.8506 99.8501 69.9148Z" fill="#F29F68"/>
<path fill-rule="evenodd" clip-rule="evenodd" d="M114.505 125.143C116.687 126.058 117.712 125.312 117.675 126.577C117.642 127.841 115.015 127.589 114.458 127.509C114.936 127.89 115.967 128.035 116.371 128.238C117.322 128.706 116.937 129.614 115.767 129.638C114.082 129.671 109.993 127.288 109.993 127.288C109.993 127.288 103.142 131.235 98.0135 131.826C97.8371 131.842 97.6659 131.858 97.4983 131.866C97.3839 131.874 97.2704 131.881 97.1575 131.885C95.4454 131.953 94.1836 129.138 94.6172 126.247C94.8333 124.804 95.0748 123.323 95.3403 121.869C95.7114 119.836 96.1294 117.852 96.5889 116.101C99.2856 114.141 101.263 117.348 101.922 118.718C101.188 120.209 100.552 121.716 99.9999 123.328C102.859 123.562 105.793 122.518 109.478 119.942C109.478 119.942 110.982 116.789 112.295 116.328C113.094 116.06 113.284 116.522 113.229 117C113.177 117.485 112.064 119.171 111.989 119.544L114.134 120.549C114.89 120.824 116.895 119.755 117.225 120.994C117.55 122.224 115.489 122.979 114.64 123.117C115.34 123.465 118.074 122.842 117.958 124.065C117.842 125.281 115.99 125.312 114.505 125.143Z" fill="#FFB685"/>
<path fill-rule="evenodd" clip-rule="evenodd" d="M105.346 112.877C104.966 113.453 104.599 114.019 104.246 114.585C104.218 114.627 104.191 114.676 104.163 114.725C103.805 115.29 103.467 115.866 103.142 116.44C103.007 116.676 102.873 116.91 102.747 117.146C102.677 117.26 102.617 117.374 102.557 117.496C102.362 117.844 102.181 118.2 102.004 118.556C101.977 118.613 101.949 118.662 101.921 118.718C101.262 117.348 99.2846 114.141 96.5879 116.1C97.024 114.458 97.5026 112.958 97.9944 111.622C98.4124 110.479 98.8392 109.459 99.2474 108.551C99.2709 108.509 99.2895 108.47 99.3032 108.429C100.793 105.173 102.07 103.471 102.07 103.471C103.156 101.778 104.864 101.655 106.126 104.556C107.388 107.449 106.214 111.573 105.346 112.877Z" fill="#FAA66E"/>
<path fill-rule="evenodd" clip-rule="evenodd" d="M120.191 191.618C120.191 191.618 120.721 189.038 121.216 185.369C119.434 184.603 117.281 183.656 115.558 182.875C115.184 186.979 114.913 189.988 114.913 189.988L116.006 197.107L120.191 191.618Z" fill="#F2FAFF"/>
<path fill-rule="evenodd" clip-rule="evenodd" d="M112.874 197.912L124.369 203.001C124.651 203.126 124.823 203.631 124.752 204.125C124.68 204.615 124.39 204.917 124.109 204.792L112.613 199.703C112.331 199.578 112.158 199.074 112.23 198.58C112.302 198.088 112.591 197.787 112.874 197.912Z" fill="#364B70"/>
<path fill-rule="evenodd" clip-rule="evenodd" d="M102.716 195.204C102.716 195.204 103.246 192.624 103.741 188.955C101.959 188.189 99.8057 187.241 98.0838 186.461C97.7093 190.564 97.4385 193.574 97.4385 193.574L98.5311 200.694L102.716 195.204Z" fill="#F2FAFF"/>
<path fill-rule="evenodd" clip-rule="evenodd" d="M114.945 189.994C114.945 189.994 113.927 190.685 113.332 193.3C112.739 195.917 112.827 198.232 112.827 198.232L123.149 203.539L124.476 203.129C125.495 198.529 121.379 193.657 120.191 191.618C119.662 192.56 115.491 194.273 114.945 189.994Z" fill="#546C96"/>
<path fill-rule="evenodd" clip-rule="evenodd" d="M97.4705 193.581C97.4705 193.581 96.4527 194.27 95.8582 196.885C95.2647 199.502 95.3522 201.817 95.3522 201.817L105.675 207.124L107.002 206.714C108.02 202.115 103.905 197.243 102.716 195.203C102.187 196.144 98.0161 197.858 97.4705 193.581Z" fill="#546C96"/>
<path fill-rule="evenodd" clip-rule="evenodd" d="M122.904 195.926C122.787 195.713 122.669 195.504 122.55 195.3C122.261 195.452 122.002 195.64 121.81 195.831C121.698 195.942 121.67 196.175 121.749 196.349C121.827 196.524 121.981 196.577 122.093 196.466C122.294 196.267 122.583 196.068 122.904 195.926Z" fill="#E0F4FF"/>
<path fill-rule="evenodd" clip-rule="evenodd" d="M123.643 197.428C123.544 197.2 123.44 196.976 123.332 196.754C122.906 196.915 122.512 197.178 122.245 197.442C122.134 197.554 122.106 197.784 122.184 197.96C122.262 198.136 122.416 198.186 122.529 198.077C122.792 197.816 123.205 197.555 123.643 197.428Z" fill="#E0F4FF"/>
<path fill-rule="evenodd" clip-rule="evenodd" d="M105.429 199.513C105.312 199.298 105.194 199.09 105.075 198.885C104.786 199.037 104.528 199.227 104.336 199.417C104.224 199.529 104.196 199.76 104.274 199.934C104.352 200.11 104.507 200.162 104.619 200.052C104.82 199.852 105.109 199.653 105.429 199.513Z" fill="#E0F4FF"/>
<path fill-rule="evenodd" clip-rule="evenodd" d="M106.169 201.014C106.07 200.786 105.965 200.561 105.857 200.34C105.431 200.501 105.037 200.763 104.771 201.028C104.659 201.138 104.631 201.37 104.709 201.547C104.787 201.721 104.942 201.773 105.054 201.662C105.318 201.401 105.731 201.141 106.169 201.014Z" fill="#E0F4FF"/>
<path fill-rule="evenodd" clip-rule="evenodd" d="M95.3986 201.498L106.894 206.587C107.176 206.712 107.349 207.216 107.277 207.71C107.205 208.202 106.915 208.503 106.634 208.38L95.1385 203.289C94.8564 203.166 94.6834 202.659 94.7557 202.167C94.8266 201.673 95.116 201.373 95.3986 201.498Z" fill="#364B70"/>
<path fill-rule="evenodd" clip-rule="evenodd" d="M110.659 112.016C110.659 112.016 112.438 118.61 116.578 124.034C116.048 119.019 118.262 116.32 119.168 115.481C118.28 113.423 117.453 111.086 116.615 108.409C116.066 106.65 114.006 103.785 112.119 105.326C110.232 106.867 109.941 109.807 110.659 112.016Z" fill="#FAA66E"/>
<path fill-rule="evenodd" clip-rule="evenodd" d="M123.06 112.47C121.736 114.566 118.129 115.802 115.741 115.416C113.47 108.959 113.216 98.0249 117.362 99.1831C117.758 99.2956 117.855 98.3856 118.222 98.8766C120.21 101.536 122.644 107.297 123.06 112.47Z" fill="#0DA18D"/>
<path fill-rule="evenodd" clip-rule="evenodd" d="M102.622 138.948C102.283 149.286 99.336 163.454 99.252 166.954L107.755 166.962L111.251 149.778C111.791 149.772 112.285 149.707 112.825 149.699L116.264 166.641L125.277 166.063C125.337 157.158 122.051 148.473 121.873 138.941C121.873 138.941 105.586 129.529 102.622 138.948Z" fill="#546C96"/>
<path fill-rule="evenodd" clip-rule="evenodd" d="M115.766 76.021C115.464 79.4105 112.418 78.7015 112.404 76.2013C112.745 76.4743 113.146 76.8754 113.815 76.946C114.389 77.0071 115.214 76.8308 115.766 76.021Z" fill="#F09B63"/>
<path fill-rule="evenodd" clip-rule="evenodd" d="M97.3218 73.1198C97.3218 73.1198 97.0373 71.9191 97.668 71.7978C97.996 71.734 98.149 72.2599 98.216 72.7728C98.2781 73.2474 98.2664 73.7102 98.2502 73.6862C98.2502 73.6862 98.1789 73.4551 98.0713 73.2096C97.8713 72.7571 97.5467 72.2599 97.3218 73.1198Z" fill="#FAA66E"/>
<path fill-rule="evenodd" clip-rule="evenodd" d="M104.618 62.863C105.617 61.553 107.424 61.2698 108.284 61.3463C109.911 61.4917 109.257 59.7521 108.48 59.5606C107.014 59.2006 105.26 60.2939 104.298 61.831C103.538 63.0449 103.426 64.4254 104.618 62.863Z" fill="black"/>
<path fill-rule="evenodd" clip-rule="evenodd" d="M104.681 72.6487C106.831 73.7102 108.226 76.7156 107.793 79.3632C107.361 82.0114 105.265 83.2958 103.115 82.2356C100.965 81.1735 99.5698 78.1673 100.003 75.5198C100.436 72.8722 102.531 71.5872 104.681 72.6487Z" fill="#FFB685"/>
<path fill-rule="evenodd" clip-rule="evenodd" d="M123.004 65.7198C122.255 64.1874 120.617 63.4683 119.81 63.3339C118.282 63.0798 119.125 61.5291 119.871 61.5315C121.28 61.5363 122.757 63.0369 123.441 64.7841C123.98 66.1623 123.897 67.5459 123.004 65.7198Z" fill="black"/>
<path fill-rule="evenodd" clip-rule="evenodd" d="M99.1015 72.1495C99.3503 72.2029 99.913 72.1035 99.9634 67.0872C100.005 62.9676 99.9223 59.1732 101.731 54.4848C103.089 56.454 115.977 62.4036 112.725 56.01C112.725 56.01 115.644 59.6967 116.817 59.9049C117.99 60.1128 116.659 54.27 116.659 54.27C119.392 60.6144 127.421 65.28 124.468 57.0954C126.313 60.7989 125.541 45.792 117.833 40.8519C113.743 38.2308 104.146 38.4873 100.91 45.1179C100.91 45.1179 101.078 40.5576 100.347 40.8861C99.6158 41.2137 99.7449 45.4755 99.7449 45.4755C99.7449 45.4755 98.8839 43.3503 98.6893 44.322C98.4943 45.2952 99.3322 46.3119 99.3322 46.3119C99.3322 46.3119 95.4734 50.1576 95.0799 57.5265C94.6863 64.8948 96.286 68.928 96.286 68.928C98.6238 66.7542 98.6507 72.0535 99.1015 72.1495Z" fill="black"/>
<path fill-rule="evenodd" clip-rule="evenodd" d="M124.171 50.2023C123.672 48.6468 122.994 47.0232 122.109 45.5203C117.431 50.9142 102.884 42.4293 95.2092 56.0491C95.151 56.5252 95.1065 57.0174 95.0796 57.5268C95.0615 57.867 95.0474 58.201 95.0371 58.5252C96.6861 56.3796 99.1042 52.6413 102.954 51.4341C108.603 49.6651 119.819 54.5751 124.171 50.2023Z" fill="#2D2D2D"/>
<path fill-rule="evenodd" clip-rule="evenodd" d="M116.621 83.7743C116.323 84.6527 115.291 86.1805 113.372 85.9995C111.7 85.8431 110.598 84.2598 110.199 83.0975C109.955 82.3906 110.019 81.7302 110.285 82.2342C112.593 86.6139 115.682 84.4374 116.351 83.461C116.604 83.0914 116.802 83.2395 116.621 83.7743Z" fill="#B13B32"/>
<path d="M110.107 71.8052C110.107 71.8052 106.741 74.749 105.1 71.8608C103.099 68.342 105.336 64.52 107.023 64.6863C108.585 64.8386 110.163 66.7499 110.107 71.8052Z" fill="#F9FEFF"/>
<path d="M104.38 66.8684C104.907 65.2484 105.75 64.5527 106.722 64.4579C107.716 64.3622 108.816 65.3018 109.208 66.4763C108.556 65.2121 107.602 64.9452 107.018 64.8876C106.089 64.7933 104.972 65.822 104.568 67.3862C104.21 68.7771 104.42 70.66 105.154 71.9512C104.353 71.1565 103.831 68.5577 104.38 66.8684Z" fill="black"/>
<path d="M109.589 67.8324C110.132 69.4341 109.828 71.5001 108.91 72.4485C107.993 73.3968 106.808 72.8668 106.265 71.2629C105.723 69.6618 106.026 67.5948 106.944 66.6471C107.862 65.6994 109.046 66.2295 109.589 67.8324Z" fill="black"/>
<path d="M109.4 68.808C109.526 69.1789 109.455 69.6576 109.242 69.8756C109.03 70.0964 108.756 69.973 108.63 69.602C108.504 69.2311 108.575 68.7531 108.787 68.5335C109 68.3141 109.274 68.4369 109.4 68.808Z" fill="#FEFFFE"/>
<path d="M116.856 72.6006C116.856 72.6006 120.256 75.3401 121.835 72.3785C123.76 68.7702 121.467 65.096 119.792 65.3547C118.242 65.5935 116.71 67.5801 116.856 72.6006Z" fill="#F9FEFF"/>
<path d="M122.459 67.3776C121.905 65.7963 121.056 65.1519 120.087 65.1117C119.098 65.0703 118.021 66.0675 117.653 67.2549C118.279 65.9622 119.222 65.6433 119.801 65.5548C120.724 65.4108 121.851 66.3696 122.281 67.9014C122.662 69.264 122.488 71.1463 121.782 72.4718C122.564 71.6373 123.035 69.0254 122.459 67.3776Z" fill="black"/>
<path d="M122.077 69.0892C122.338 70.8364 121.739 72.6227 120.737 73.0794C119.736 73.5361 118.712 72.4897 118.451 70.7418C118.19 68.9932 118.789 67.2066 119.79 66.7495C120.792 66.2937 121.816 67.3405 122.077 69.0892Z" fill="black"/>
<path d="M121.796 69.3524C121.858 69.7666 121.716 70.1911 121.478 70.2994C121.24 70.4077 120.997 70.1595 120.935 69.7426C120.874 69.3291 121.015 68.9047 121.253 68.7963C121.491 68.6894 121.734 68.9376 121.796 69.3524Z" fill="#FEFFFE"/>
<path fill-rule="evenodd" clip-rule="evenodd" d="M105.346 112.877C104.966 113.453 104.599 114.019 104.246 114.585C104.218 114.627 104.191 114.676 104.163 114.725C103.805 115.29 103.467 115.866 103.142 116.44C103.007 116.676 102.877 116.91 102.747 117.146C102.677 117.26 102.617 117.374 102.557 117.496C102.362 117.844 102.181 118.2 102.004 118.556C101.977 118.613 101.949 118.662 101.921 118.718C101.262 117.348 99.2846 114.141 96.5879 116.1C97.024 114.458 97.5026 112.958 97.9944 111.622C98.4124 110.479 98.8392 109.459 99.2474 108.551C99.2709 108.509 99.2895 108.47 99.3032 108.429C100.793 105.173 102.07 103.471 102.07 103.471C103.156 101.778 104.864 101.655 106.126 104.556C107.388 107.449 106.214 111.573 105.346 112.877Z" fill="#FFB685"/>
<path fill-rule="evenodd" clip-rule="evenodd" d="M123.059 112.47C120.895 114.571 118.452 115.763 116.028 115.22L116.417 119.086C117.738 119.483 122.366 118.28 123.535 116.113L123.059 112.47Z" fill="#41D1BE"/>
<path fill-rule="evenodd" clip-rule="evenodd" d="M102.622 138.948C102.622 138.948 103.124 111.769 103.483 106.644C103.803 102.106 105.132 99.4505 107.194 98.1484C109.027 101.639 113.972 101.734 115.552 97.1959C118.221 97.8282 120.032 100.025 120.301 106.305C120.631 114.028 121.855 138.92 121.855 138.92C122.401 139.159 110.351 142.994 102.622 138.948Z" fill="#0DA18D"/>
<path fill-rule="evenodd" clip-rule="evenodd" d="M107.377 97.7718C108.516 99.3112 109.988 100.351 111.331 100.277C113.237 100.17 114.873 98.5391 115.405 96.9126L117.167 97.7896C115.296 104.307 107.959 104.774 105.475 98.8696C105.738 98.7003 106.414 98.2573 107.377 97.7718Z" fill="#41D1BE"/>
<path fill-rule="evenodd" clip-rule="evenodd" d="M98.9371 107.647C100.472 111.04 102.464 113.78 104.822 114.905L103.61 118.212C102.304 117.691 98.2971 113.475 97.6953 110.69L98.9371 107.647Z" fill="#41D1BE"/>
<path fill-rule="evenodd" clip-rule="evenodd" d="M98.9375 107.647C99.6977 110.47 102.756 114.033 105.045 115.28C108.564 110.842 111.208 100.919 107.125 99.2071C106.734 99.0439 106.846 98.1387 106.399 98.3465C103.977 99.4663 100.461 103.152 98.9375 107.647Z" fill="#0DA18D"/>
<path fill-rule="evenodd" clip-rule="evenodd" d="M114.505 125.143C116.687 126.058 117.712 125.312 117.675 126.577C117.642 127.841 115.015 127.589 114.458 127.509C114.936 127.89 115.967 128.035 116.371 128.238C117.322 128.706 116.937 129.614 115.767 129.638C114.082 129.671 109.993 127.288 109.993 127.288C109.993 127.288 103.142 131.235 98.0135 131.826C97.8371 131.842 97.6659 131.858 97.4983 131.866C97.3839 131.874 97.2704 131.881 97.1575 131.885C95.4454 131.953 94.1836 129.138 94.6172 126.247C94.8333 124.804 95.0748 123.323 95.3403 121.869C95.7114 119.836 96.1294 117.852 96.5889 116.101C99.2856 114.141 101.263 117.348 101.922 118.718C101.188 120.209 100.552 121.716 99.9999 123.328C102.859 123.562 105.793 122.518 109.478 119.942C109.478 119.942 110.982 116.789 112.295 116.328C113.094 116.06 113.284 116.522 113.229 117C113.177 117.485 112.064 119.171 111.989 119.544L114.134 120.549C114.89 120.824 116.895 119.755 117.225 120.994C117.55 122.224 115.489 122.979 114.64 123.117C115.34 123.465 118.074 122.842 117.958 124.065C117.842 125.281 115.99 125.312 114.505 125.143Z" fill="#FFB685"/>
</svg>
