<svg width="450" height="350" viewBox="0 0 450 350" fill="none" xmlns="http://www.w3.org/2000/svg">
<path opacity="0.14" fill-rule="evenodd" clip-rule="evenodd" d="M218.525 126.296L225.75 128.461L226.359 140.78L222.432 142.164L218.32 141.981L218.525 126.296Z" fill="#020202"/>
<path fill-rule="evenodd" clip-rule="evenodd" d="M218.366 126.296L228.331 128.461L229.171 140.78L223.755 142.164L218.083 141.981L218.366 126.296Z" fill="#E8935A"/>
<path fill-rule="evenodd" clip-rule="evenodd" d="M221.602 209.331C218.981 202.046 207.568 202.264 207.732 219.887C207.732 220.295 207.735 220.71 207.747 221.138C207.879 225.749 207.928 231.917 207.927 238.571C207.918 258.436 207.473 282.421 207.473 282.421C207.473 282.421 206.343 286.983 209.174 288.784C212.005 290.584 219.516 288.966 218.437 282.421C218.437 282.421 219.383 265.122 220.294 252.408C220.304 252.408 220.314 252.409 220.325 252.409C220.389 251.517 220.454 250.649 220.518 249.812C221.192 240.925 222.739 228.617 222.725 219.453C222.74 215.247 222.442 211.667 221.602 209.331Z" fill="#FFB685"/>
<path fill-rule="evenodd" clip-rule="evenodd" d="M270.672 214.328C269.221 210.232 262.949 201.815 262.949 201.815C262.949 201.815 261.19 181.416 257.022 168.656C252.854 155.895 246.013 148.755 246.013 148.755C243.79 146.047 240.149 145.656 237.294 149.912C237.204 150.045 237.12 150.181 237.041 150.318C236.247 151.687 235.937 153.248 235.939 154.803C235.943 158.067 237.323 161.302 238.492 162.677C238.824 163.068 239.149 163.455 239.469 163.841C239.651 164.06 239.826 164.277 240.005 164.496C240.142 164.664 240.282 164.833 240.417 165.001C240.575 165.196 240.727 165.391 240.882 165.585C241.034 165.777 241.188 165.969 241.338 166.161C241.466 166.325 241.59 166.487 241.715 166.651C241.887 166.874 242.06 167.096 242.227 167.318C242.33 167.456 242.43 167.592 242.532 167.729C242.717 167.977 242.902 168.225 243.081 168.472C243.167 168.59 243.249 168.707 243.334 168.825C243.525 169.091 243.716 169.358 243.901 169.625C243.973 169.727 244.042 169.83 244.113 169.933C244.306 170.214 244.499 170.495 244.686 170.777C244.748 170.869 244.807 170.961 244.868 171.053C245.061 171.345 245.251 171.638 245.437 171.931C251.109 180.862 253.754 190.226 254.297 205.206C254.297 205.206 252.114 210.825 252.756 214.297C253.164 216.404 253.842 216.571 254.33 216.143C254.828 215.703 255.725 211.941 256.068 211.529L259.085 216.097C260.069 217.757 260.641 223.29 262.308 223.305C263.978 223.321 262.995 217.845 262.401 215.701C263.404 217.188 265.13 224.201 266.387 223.153C267.645 222.106 266.041 217.595 264.543 214.103C267.487 218.817 267.565 221.768 268.944 220.887C270.326 220.006 267.72 213.801 267.141 212.498C267.982 213.427 269.061 215.822 269.639 216.675C271.004 218.688 271.681 217.176 270.672 214.328Z" fill="#FFB685"/>
<path fill-rule="evenodd" clip-rule="evenodd" d="M233.957 140.792C232.921 139.858 231.069 139.365 229.09 139.151L228.643 132.598C234.358 132.1 239.724 129.958 243.724 125.959C242.756 126.885 241.682 127.69 240.523 128.377C243.429 126.507 245.917 123.944 247.734 120.631C252.292 112.322 253.272 99.064 251.789 85.5023C249.584 65.2986 235.286 55.6075 221.728 56.5285C218.68 56.7358 215.845 57.358 213.239 58.3327C207.414 59.4475 203.001 61.6271 201.47 63.7253C200.622 64.8869 199.66 67.2962 198.84 70.3981C194.541 77.4195 192.795 86.3568 194.125 95.4493C189.62 96.4245 189.026 104.335 192.527 107.681C192.151 107.56 191.777 107.406 191.406 107.222C192.277 108.291 193.494 109.742 195.258 109.564C197.704 121.345 207.54 129.187 218.259 131.775L218.104 140.418C216.476 140.976 215.038 141.683 214.122 142.514C216.151 143.406 220.146 145.565 224.04 145.565C227.933 145.565 232.316 143.444 233.957 140.792Z" fill="#FFB685"/>
<path fill-rule="evenodd" clip-rule="evenodd" d="M204.648 171.891C205.411 170.793 206.224 169.705 207.087 168.616C208.468 166.903 209.973 165.184 211.618 163.419C211.759 163.268 211.905 163.088 212.051 162.89C213.899 160.805 216.294 154.645 213.637 150.297C210.941 145.882 207.289 146.068 204.969 148.645C204.969 148.645 203.857 149.705 202.229 151.754C199.747 154.802 195.825 160.41 192.89 168.337C188.257 180.846 185.75 201.125 185.75 201.125C185.75 201.125 179.178 209.176 177.577 213.185C176.465 215.975 177.084 217.523 178.523 215.588C179.132 214.77 180.297 212.438 181.172 211.559C180.546 212.826 177.717 218.878 179.062 219.836C180.409 220.793 180.594 217.85 183.709 213.307C182.083 216.712 180.316 221.128 181.534 222.245C182.752 223.363 184.732 216.456 185.789 215.027C185.117 217.135 183.936 222.548 185.601 222.628C187.269 222.707 188.044 217.213 189.088 215.612L192.27 211.221C192.596 211.651 193.352 215.459 193.837 215.929C194.308 216.384 194.99 216.254 195.475 214.172C196.244 210.741 194.271 205.002 194.271 205.002C195.379 189.834 198.443 180.577 204.627 171.861C204.634 171.871 204.641 171.881 204.648 171.891Z" fill="#FFB685"/>
<path fill-rule="evenodd" clip-rule="evenodd" d="M244.847 247.033C244.845 246.833 244.843 246.633 244.841 246.432C244.836 245.915 244.831 245.399 244.826 244.882C244.826 244.825 244.825 244.769 244.825 244.712C244.819 244.048 244.814 243.385 244.809 242.724C244.809 242.717 244.809 242.711 244.809 242.704C244.76 235.952 244.761 229.426 244.855 224.187C244.856 224.156 244.856 224.124 244.857 224.093C244.865 223.609 244.875 223.138 244.885 222.677C244.887 222.61 244.889 222.543 244.89 222.476C244.901 222.022 244.912 221.578 244.924 221.149C244.924 221.146 244.924 221.143 244.924 221.14C245.453 202.709 233.731 202.372 231.068 209.769C228.582 216.68 230.841 234.465 231.941 247.196C231.982 247.669 232.021 248.136 232.059 248.594C232.092 249.006 232.124 249.413 232.155 249.812C232.212 250.579 232.271 251.373 232.329 252.183C233.239 264.911 234.096 282.493 234.096 282.493L238.439 292.25L245.457 281.459C245.457 281.459 245.043 265.118 244.861 248.359C244.856 247.917 244.851 247.475 244.847 247.033Z" fill="#FFB685"/>
<path fill-rule="evenodd" clip-rule="evenodd" d="M201.522 295.486H221.834C222.457 295.486 222.966 296.12 222.966 296.896C222.966 297.671 222.455 298.305 221.834 298.305H201.522C200.901 298.305 200.389 297.671 200.389 296.896C200.389 296.12 200.899 295.486 201.522 295.486Z" fill="#364B70"/>
<path fill-rule="evenodd" clip-rule="evenodd" d="M207.767 287.828C207.445 287.944 207.083 287.787 206.957 287.477C206.833 287.166 206.993 286.818 207.315 286.701C208.298 286.345 209.807 286.093 211.244 286.185C212.418 286.26 213.567 286.564 214.409 287.214C214.68 287.424 214.726 287.806 214.509 288.064C214.295 288.322 213.898 288.362 213.626 288.151C213.009 287.674 212.111 287.447 211.176 287.388C209.915 287.306 208.61 287.521 207.767 287.828Z" fill="#E0F4FF"/>
<path fill-rule="evenodd" clip-rule="evenodd" d="M207.478 282.492L206.948 271.48C210.043 271.551 215.153 271.562 219.367 271.55C218.897 277.958 218.573 282.433 218.573 282.433C219.652 288.979 211.692 291.756 208.861 289.957C206.031 288.156 206.892 283.005 207.478 282.492Z" fill="#F2FAFF"/>
<path fill-rule="evenodd" clip-rule="evenodd" d="M245.457 281.4C245.457 281.4 245.779 277.243 245.701 271.495C241.775 271.528 237.028 271.539 233.224 271.512C233.686 277.819 234.028 282.442 234.028 282.442L238.437 292.25L245.457 281.4Z" fill="#F2FAFF"/>
<path fill-rule="evenodd" clip-rule="evenodd" d="M207.127 282.317C206.062 282.59 200.643 290.427 201.14 295.75H222.427C222.427 295.75 222.823 289.666 218.222 282.258C209.763 285.306 206.714 283.675 207.127 282.317Z" fill="#546C96"/>
<path fill-rule="evenodd" clip-rule="evenodd" d="M234.098 282.259C234.098 282.259 232.195 283.943 231.752 288.197C231.307 292.452 232.188 295.814 232.188 295.814L255.18 296.904L257.806 295.432C258.532 287.968 248.535 283.461 245.457 281.225C244.644 282.962 236.518 288.223 234.098 282.259Z" fill="#546C96"/>
<path fill-rule="evenodd" clip-rule="evenodd" d="M254.364 287.726C254.09 287.455 253.805 287.192 253.515 286.935C252.68 287.451 251.943 288.099 251.47 288.662C251.271 288.898 251.285 289.26 251.499 289.468C251.715 289.675 252.05 289.65 252.25 289.414C252.716 288.857 253.496 288.2 254.364 287.726Z" fill="#E0F4FF"/>
<path fill-rule="evenodd" clip-rule="evenodd" d="M252.379 285.992C252.073 285.754 251.764 285.522 251.454 285.299C250.902 285.709 250.424 286.16 250.083 286.566C249.883 286.805 249.897 287.165 250.111 287.373C250.325 287.58 250.662 287.555 250.862 287.319C251.217 286.892 251.756 286.409 252.379 285.992Z" fill="#E0F4FF"/>
<path fill-rule="evenodd" clip-rule="evenodd" d="M232.188 295.486H257.545C258.169 295.486 258.677 296.12 258.677 296.896C258.677 297.671 258.166 298.305 257.545 298.305H232.188C231.566 298.305 231.055 297.671 231.055 296.896C231.056 296.12 231.564 295.486 232.188 295.486Z" fill="#364B70"/>
<path fill-rule="evenodd" clip-rule="evenodd" d="M205.441 203.601C204.717 219.36 205.284 242.697 205.106 248.034L223.285 248.045L223.89 220.111C225.046 220.102 226.101 220.001 227.258 219.992L228.48 248.063L247.751 247.183C247.88 233.607 246.984 218.121 246.602 203.59C246.602 203.59 211.78 189.244 205.441 203.601Z" fill="#546C96"/>
<path fill-rule="evenodd" clip-rule="evenodd" d="M252.123 155.931C250.342 160.139 243.612 165.191 238.652 166.813C231.384 159.627 226.292 144.196 235.109 142.084C235.952 141.883 235.764 140.492 236.706 140.86C241.815 142.862 249.122 148.9 252.123 155.931Z" fill="#0DA18D"/>
<path fill-rule="evenodd" clip-rule="evenodd" d="M197.564 155.885C199.188 160.189 205.727 165.619 210.622 167.521C218.145 160.756 223.799 145.631 215.068 143.019C214.233 142.769 214.472 141.39 213.517 141.705C208.34 143.415 200.819 149.031 197.564 155.885Z" fill="#0DA18D"/>
<path fill-rule="evenodd" clip-rule="evenodd" d="M252.123 155.931C248.656 160.911 244.247 164.842 239.148 166.269L241.551 171.452C244.37 170.819 253.164 164.885 254.605 160.717L252.123 155.931Z" fill="#41D1BE"/>
<path fill-rule="evenodd" clip-rule="evenodd" d="M197.564 155.885C200.845 161.056 205.106 165.234 210.145 166.948L207.556 171.992C204.762 171.198 196.195 164.769 194.908 160.523L197.564 155.885Z" fill="#41D1BE"/>
<path fill-rule="evenodd" clip-rule="evenodd" d="M205.441 203.601C205.441 203.601 206.513 162.168 207.282 154.354C207.964 147.439 210.807 143.389 215.216 141.405C219.136 146.724 229.707 146.873 233.088 139.951C238.792 140.917 242.666 144.265 243.24 153.838C243.947 165.613 246.563 203.558 246.563 203.558C247.731 203.921 221.968 209.769 205.441 203.601Z" fill="#0DA18D"/>
<path fill-rule="evenodd" clip-rule="evenodd" d="M215.609 140.83C218.044 143.178 221.191 144.763 224.063 144.648C228.137 144.486 231.637 141.999 232.775 139.523L236.543 140.857C232.542 150.794 216.854 151.503 211.541 142.506C212.104 142.245 213.549 141.57 215.609 140.83Z" fill="#41D1BE"/>
<path fill-rule="evenodd" clip-rule="evenodd" d="M197.912 101.771C198.445 101.853 199.647 101.7 199.755 94.0533C199.846 87.773 199.667 81.9892 203.535 74.8422C206.439 77.8435 233.996 86.912 227.043 77.1667C227.043 77.1667 233.284 82.7864 235.792 83.1036C238.299 83.4216 235.453 74.5141 235.453 74.5141C241.297 84.1868 258.466 91.2984 252.153 78.8222C256.094 84.4672 254.445 61.5908 237.964 54.0584C229.218 50.0631 208.699 50.4547 201.78 60.5622C201.78 60.5622 202.138 53.6117 200.575 54.1113C199.013 54.6118 199.288 61.1078 199.288 61.1078C199.288 61.1078 197.447 57.8681 197.031 59.3504C196.614 60.8326 198.406 62.3836 198.406 62.3836C198.406 62.3836 190.155 68.246 189.314 79.4784C188.472 90.7112 191.892 96.8603 191.892 96.8603C196.892 93.5441 196.949 101.622 197.912 101.771Z" fill="black"/>
<path opacity="0.3" fill-rule="evenodd" clip-rule="evenodd" d="M233.615 107.527C232.951 112.848 226.245 111.735 226.213 107.811C226.962 108.238 227.846 108.869 229.317 108.978C230.582 109.075 232.399 108.799 233.615 107.527Z" fill="black"/>
<path opacity="0.5" fill-rule="evenodd" clip-rule="evenodd" d="M254.708 133.34C254.044 138.661 247.338 137.548 247.306 133.623C248.056 134.05 248.939 134.681 250.411 134.791C251.676 134.888 253.493 134.612 254.708 133.34Z" fill="white"/>
<path fill-rule="evenodd" clip-rule="evenodd" d="M221.517 119.994C222.173 118.616 224.444 116.216 228.67 116.499C232.351 116.745 234.777 119.229 235.656 121.054C236.192 122.165 236.052 123.201 235.466 122.411C230.385 115.535 223.584 118.951 222.111 120.486C221.553 121.064 221.117 120.831 221.517 119.994Z" fill="#B13B32"/>
<path d="M221.157 101.015C221.157 101.015 220.176 101.562 218.755 102.045C216.988 102.681 214.525 103.228 212.43 102.54C211.581 102.286 210.794 101.829 210.13 101.092C205.725 96.1809 210.651 90.8531 214.371 91.0814C217.805 91.298 221.28 93.9707 221.157 101.015Z" fill="#F9FEFF"/>
<path d="M208.544 94.132C209.705 91.8715 211.558 90.9028 213.699 90.7685C215.889 90.6368 218.31 91.9485 219.173 93.583C217.737 91.822 215.637 91.4493 214.351 91.3696C212.304 91.238 209.847 92.6712 208.958 94.8521C208.169 96.792 208.63 99.4179 210.247 101.216C208.483 100.108 207.334 96.4866 208.544 94.132Z" fill="black"/>
<path d="M218.755 102.045C216.988 102.681 214.524 103.228 212.43 102.539C212.163 102.222 211.949 101.866 211.755 101.472C210.56 98.9528 211.234 95.7114 213.257 94.2235C215.27 92.736 217.877 93.5755 219.072 96.0916C219.992 98.0144 219.808 100.379 218.755 102.045Z" fill="black"/>
<path d="M216.808 100.207C217.085 100.789 216.931 101.542 216.463 101.884C215.994 102.229 215.391 102.036 215.114 101.454C214.837 100.871 214.992 100.12 215.46 99.775C215.929 99.4324 216.532 99.6236 216.808 100.207Z" fill="#FEFFFE"/>
<path d="M246.972 101.817C246.614 102.249 246.205 102.589 245.766 102.845C243.732 104.117 241.045 103.799 239.011 103.225C237.284 102.759 236.016 102.122 236.016 102.122C235.689 95.1277 239.062 92.3531 242.475 92.0228C246.165 91.6553 251.212 96.7797 246.972 101.817Z" fill="#F9FEFF"/>
<path d="M248.351 94.8395C247.134 92.6341 245.263 91.7372 243.131 91.6799C240.951 91.623 238.583 93.0112 237.771 94.668C239.149 92.8673 241.224 92.4223 242.5 92.2985C244.531 92.0973 247.015 93.436 247.961 95.5697C248.8 97.4698 248.417 100.096 246.862 101.941C248.585 100.779 249.622 97.1373 248.351 94.8395Z" fill="black"/>
<path d="M245.766 102.845C243.732 104.118 241.044 103.8 239.011 103.228C238.683 102.706 238.438 102.095 238.295 101.409C237.723 98.6624 239.041 95.8633 241.249 95.1375C243.456 94.4274 245.704 96.0663 246.277 98.8133C246.583 100.252 246.368 101.688 245.766 102.845Z" fill="black"/>
<path d="M243.766 101.743C243.903 102.394 243.59 103.059 243.066 103.228C242.543 103.4 242.008 103.01 241.872 102.356C241.735 101.706 242.048 101.042 242.572 100.871C243.095 100.702 243.629 101.092 243.766 101.743Z" fill="#FEFFFE"/>
<path d="M219.046 89.425C219.826 89.0444 220.086 87.5372 219.898 86.5857C219.834 86.2628 219.513 86.3722 219.367 86.5559C218.605 87.5272 217.747 85.7089 216.828 85.5724C215.455 85.369 213.464 86.2085 212.119 86.6408C210.088 87.2887 207.778 88.6253 206.529 91.1588C209.426 90.4037 216.806 88.1659 217.519 88.6502C217.816 88.8515 218.09 89.331 218.4 89.4447C218.641 89.5318 218.856 89.5169 219.046 89.425Z" fill="black"/>
<path d="M219.95 87.1272C219.797 87.5892 219.575 88.0018 219.273 88.2201C219.041 88.3894 218.761 88.2848 218.529 88.2078C217.654 87.9147 217.192 87.2961 216.177 87.5844C214.316 88.1159 212.48 88.8291 210.687 89.6411C209.875 90.0086 209.024 90.3367 208.184 90.7068C211.581 89.7653 216.918 88.2428 217.519 88.6501C217.818 88.8488 218.09 89.3309 218.4 89.4446C218.642 89.5317 218.858 89.5168 219.046 89.4249C219.69 89.1121 219.973 88.0293 219.95 87.1272Z" fill="black"/>
<path d="M238.785 88.6077C239.961 88.8982 241.108 89.5194 242.304 89.8126C243.866 90.1927 245.432 90.4832 247.01 90.7589C247.167 90.786 247.325 90.8131 247.484 90.8433C248.262 90.8582 249.037 90.821 249.809 90.6915C249.922 90.6718 250.116 90.3187 249.938 90.2619C247.243 89.3799 244.992 87.9444 242.333 86.9062C241.5 86.5807 239.941 85.5351 239.048 85.7189C238.293 85.8777 237.838 85.9993 237.282 85.6147C236.958 85.9774 236.802 86.6976 236.732 87.1569C236.676 87.5297 236.664 87.8823 236.692 88.2148C236.741 88.5307 236.825 88.8536 236.929 89.1812C237.113 89.2683 237.303 89.3304 237.492 89.3996C237.857 88.9704 238.316 88.4909 238.785 88.6077Z" fill="black"/>
<path d="M208.519 98.7736C210.201 98.8011 209.973 99.7584 210.271 100.169C210.57 100.58 210.162 101.08 211.838 100.831C213.513 100.58 214.791 101.984 215.288 102.354C215.787 102.723 217.704 101.833 218.76 101.216C219.944 100.524 221.017 100.952 221.157 101.015C220.124 101.827 219.189 102.02 217.797 102.431C215.959 102.976 214.535 102.981 212.912 102.675C211.719 102.45 210.427 101.641 209.714 100.819C208.831 99.8008 208.468 98.7727 208.519 98.7736Z" fill="#87D2DB"/>
<path d="M248.544 99.5143C246.862 99.5418 247.091 100.499 246.792 100.91C246.493 101.32 246.811 101.501 245.186 102.065C243.799 102.547 243.705 102.884 243.209 103.255C242.71 103.624 239.36 102.574 238.304 101.956C237.119 101.265 236.157 102.223 236.016 102.286C237.049 103.098 237.865 103.021 239.257 103.432C241.095 103.976 242.588 103.974 244.212 103.668C245.405 103.443 246.747 102.397 247.46 101.575C248.343 100.557 248.595 99.5138 248.544 99.5143Z" fill="#87D2DB"/>
<path d="M242.077 104.334C242.077 104.334 244.048 104.766 244.502 106.274C244.957 107.783 243.111 108.739 242.484 107.501C241.855 106.261 242.922 105.895 242.077 104.334Z" fill="#87D2DB"/>
<path d="M243.217 107.216C242.497 106.587 242.877 105.93 242.496 105.211C242.677 106.086 242.093 106.505 242.558 107.423C243.004 108.303 244.117 107.976 244.405 107.143C244.062 107.455 243.603 107.553 243.217 107.216Z" fill="#38BFC4"/>
<path d="M246.103 103.8C246.103 103.8 247.499 103.712 248.28 105.258C249.062 106.804 248.196 108.4 247.392 107.204C246.589 106.007 247.149 105.293 246.103 103.8Z" fill="#87D2DB"/>
<path d="M247.769 106.676C247.105 106.184 247.21 105.233 246.732 104.546C247.134 105.465 246.82 106.211 247.416 107.097C247.986 107.944 248.531 107.133 248.384 106.208C248.267 106.652 248.123 106.939 247.769 106.676Z" fill="#38BFC4"/>
<path d="M211.273 102.235C211.273 102.235 210.005 101.971 209.172 103.379C208.34 104.788 209.007 106.455 209.833 105.39C210.659 104.324 210.202 103.556 211.273 102.235Z" fill="#87D2DB"/>
<path d="M209.53 104.827C210.175 104.432 210.152 103.492 210.64 102.881C210.204 103.728 210.433 104.493 209.821 105.283C209.234 106.038 208.799 105.179 209.005 104.295C209.077 104.742 209.185 105.039 209.53 104.827Z" fill="#38BFC4"/>
<path d="M214.64 103.732C214.64 103.732 212.703 104.787 212.54 106.478C212.375 108.169 214.462 108.577 214.859 107.111C215.254 105.641 214.086 105.598 214.64 103.732Z" fill="#87D2DB"/>
<path d="M214.047 107.046C214.66 106.177 214.138 105.62 214.386 104.764C214.375 105.718 215.06 105.966 214.766 107.054C214.485 108.095 213.277 108.106 212.813 107.339C213.227 107.553 213.719 107.511 214.047 107.046Z" fill="#38BFC4"/>
<path fill-rule="evenodd" clip-rule="evenodd" d="M207.366 288.714C207.044 288.83 206.68 288.673 206.556 288.362C206.431 288.052 206.592 287.703 206.912 287.587C207.896 287.231 209.404 286.979 210.844 287.071C212.016 287.147 213.166 287.45 214.007 288.1C214.278 288.31 214.323 288.691 214.108 288.95C213.892 289.208 213.498 289.247 213.225 289.038C212.607 288.56 211.711 288.335 210.774 288.274C209.513 288.194 208.207 288.407 207.366 288.714Z" fill="#E0F4FF"/>
<path fill-rule="evenodd" clip-rule="evenodd" d="M207.366 291.777C207.044 291.892 206.68 291.736 206.556 291.424C206.431 291.114 206.592 290.766 206.912 290.65C207.896 290.293 209.404 290.041 210.844 290.133C212.016 290.21 213.166 290.513 214.007 291.162C214.278 291.372 214.323 291.753 214.108 292.012C213.892 292.271 213.498 292.31 213.225 292.1C212.607 291.623 211.711 291.397 210.774 291.337C209.513 291.256 208.207 291.47 207.366 291.777Z" fill="#E0F4FF"/>
</svg>
