<svg width="220" height="240" viewBox="0 0 220 240" fill="none" xmlns="http://www.w3.org/2000/svg">
<path opacity="0.14" fill-rule="evenodd" clip-rule="evenodd" d="M106.835 86.603L110.367 88.0876L110.665 96.5349L108.745 97.4839L106.734 97.3585L106.835 86.603Z" fill="#020202"/>
<path fill-rule="evenodd" clip-rule="evenodd" d="M106.757 86.603L111.628 88.0876L112.039 96.5349L109.391 97.4839L106.618 97.3585L106.757 86.603Z" fill="#E8935A"/>
<path fill-rule="evenodd" clip-rule="evenodd" d="M108.339 143.541C107.057 138.546 101.478 138.695 101.558 150.78C101.558 151.06 101.559 151.344 101.565 151.638C101.63 154.799 101.654 159.029 101.653 163.592C101.649 177.213 101.431 193.66 101.431 193.66C101.431 193.66 100.879 196.788 102.263 198.023C103.647 199.258 107.319 198.148 106.791 193.66C106.791 193.66 107.254 181.798 107.699 173.08C107.704 173.08 107.709 173.081 107.714 173.081C107.746 172.469 107.777 171.874 107.809 171.3C108.138 165.206 108.895 156.766 108.888 150.482C108.895 147.598 108.749 145.143 108.339 143.541Z" fill="#FFB685"/>
<path fill-rule="evenodd" clip-rule="evenodd" d="M132.328 146.968C131.619 144.159 128.553 138.387 128.553 138.387C128.553 138.387 127.693 124.399 125.655 115.65C123.617 106.899 120.273 102.003 120.273 102.003C119.186 100.146 117.406 99.8784 116.01 102.797C115.966 102.888 115.925 102.981 115.886 103.075C115.498 104.014 115.347 105.084 115.348 106.151C115.35 108.389 116.024 110.607 116.596 111.55C116.758 111.818 116.917 112.083 117.073 112.348C117.162 112.498 117.248 112.647 117.335 112.797C117.402 112.912 117.471 113.028 117.537 113.144C117.614 113.277 117.688 113.411 117.764 113.544C117.839 113.676 117.914 113.807 117.987 113.939C118.05 114.051 118.11 114.162 118.171 114.275C118.256 114.428 118.34 114.58 118.422 114.732C118.472 114.827 118.521 114.92 118.571 115.014C118.661 115.184 118.752 115.354 118.839 115.524C118.881 115.605 118.921 115.685 118.963 115.766C119.056 115.948 119.15 116.131 119.24 116.314C119.275 116.384 119.309 116.455 119.344 116.525C119.438 116.718 119.533 116.911 119.624 117.104C119.654 117.167 119.683 117.23 119.713 117.293C119.807 117.494 119.9 117.695 119.991 117.895C122.764 124.02 124.057 130.441 124.323 140.713C124.323 140.713 123.255 144.566 123.569 146.946C123.769 148.391 124.1 148.506 124.339 148.212C124.582 147.911 125.021 145.331 125.189 145.048L126.663 148.181C127.145 149.319 127.424 153.113 128.239 153.123C129.056 153.134 128.575 149.379 128.285 147.909C128.775 148.929 129.619 153.738 130.233 153.019C130.848 152.301 130.064 149.208 129.332 146.813C130.771 150.046 130.809 152.069 131.483 151.465C132.159 150.861 130.885 146.606 130.602 145.713C131.013 146.35 131.541 147.992 131.823 148.577C132.491 149.957 132.822 148.921 132.328 146.968Z" fill="#FFB685"/>
<path fill-rule="evenodd" clip-rule="evenodd" d="M114.379 96.5431C113.872 95.9026 112.967 95.5646 111.999 95.4178L111.781 90.9244C114.575 90.5829 117.198 89.1141 119.154 86.3719C118.681 87.0069 118.155 87.5589 117.589 88.03C119.01 86.7477 120.226 84.9902 121.114 82.7184C123.343 77.0208 123.822 67.9296 123.097 58.6302C122.019 44.7762 115.029 38.1309 108.4 38.7624C106.91 38.9046 105.524 39.3312 104.25 39.9996C101.402 40.764 99.2448 42.2586 98.4963 43.6974C98.0817 44.4939 97.6114 46.146 97.2105 48.273C95.1088 53.0877 94.2552 59.2161 94.9054 65.451C92.703 66.1197 92.4126 71.544 94.1242 73.8384C93.9403 73.7554 93.7575 73.6498 93.5761 73.5237C94.0019 74.2567 94.5969 75.2517 95.4593 75.1296C96.6551 83.208 101.464 88.5854 106.704 90.36L106.628 96.2866C105.833 96.6693 105.13 97.1541 104.682 97.7239C105.674 98.3356 107.627 99.816 109.53 99.816C111.434 99.816 113.577 98.3616 114.379 96.5431Z" fill="#FFB685"/>
<path fill-rule="evenodd" clip-rule="evenodd" d="M100.05 117.868C100.423 117.115 100.82 116.369 101.242 115.622C101.917 114.448 102.653 113.269 103.457 112.059C103.526 111.955 103.598 111.832 103.669 111.696C104.573 110.266 105.743 106.042 104.444 103.061C103.126 100.033 101.341 100.161 100.207 101.928C100.207 101.928 99.6631 102.655 98.8672 104.06C97.6538 106.15 95.7363 109.995 94.3014 115.431C92.0364 124.009 90.8108 137.914 90.8108 137.914C90.8108 137.914 87.5978 143.435 86.8151 146.184C86.2714 148.097 86.5741 149.159 87.2776 147.832C87.5753 147.271 88.1449 145.672 88.5726 145.069C88.2666 145.938 86.8835 150.088 87.5411 150.745C88.1996 151.401 88.2901 149.383 89.813 146.268C89.018 148.603 88.1542 151.631 88.7496 152.397C89.3451 153.163 90.3131 148.427 90.8298 147.447C90.5013 148.893 89.9239 152.604 90.7379 152.659C91.5534 152.713 91.9323 148.946 92.4427 147.848L93.9983 144.837C94.1577 145.132 94.5273 147.743 94.7644 148.066C94.9947 148.378 95.3281 148.288 95.5652 146.861C95.9412 144.508 94.9766 140.573 94.9766 140.573C95.5183 130.172 97.0163 123.824 100.04 117.848C100.043 117.854 100.046 117.861 100.05 117.868Z" fill="#FFB685"/>
<path fill-rule="evenodd" clip-rule="evenodd" d="M119.703 169.394C119.702 169.257 119.701 169.12 119.7 168.982C119.697 168.627 119.695 168.274 119.692 167.919C119.692 167.88 119.692 167.842 119.692 167.803C119.689 167.347 119.686 166.893 119.684 166.439C119.684 166.435 119.684 166.43 119.684 166.426C119.66 161.796 119.66 157.321 119.706 153.728C119.707 153.707 119.707 153.685 119.707 153.664C119.711 153.332 119.716 153.009 119.721 152.693C119.722 152.647 119.723 152.601 119.724 152.555C119.729 152.244 119.734 151.939 119.74 151.645C119.74 151.643 119.74 151.641 119.74 151.639C119.999 139 114.268 138.769 112.966 143.842C111.751 148.581 112.855 160.776 113.393 169.506C113.413 169.83 113.432 170.15 113.451 170.464C113.467 170.747 113.482 171.026 113.498 171.3C113.525 171.826 113.554 172.37 113.583 172.925C114.027 181.653 114.446 193.71 114.446 193.71L116.57 200.4L120.001 193C120.001 193 119.798 181.795 119.709 170.303C119.707 170 119.704 169.697 119.703 169.394Z" fill="#FFB685"/>
<path fill-rule="evenodd" clip-rule="evenodd" d="M98.5227 202.619H108.453C108.758 202.619 109.006 203.054 109.006 203.586C109.006 204.117 108.757 204.552 108.453 204.552H98.5227C98.2191 204.552 97.9688 204.117 97.9688 203.586C97.9688 203.054 98.2181 202.619 98.5227 202.619Z" fill="#364B70"/>
<path fill-rule="evenodd" clip-rule="evenodd" d="M101.576 197.368C101.418 197.447 101.241 197.34 101.18 197.127C101.119 196.914 101.197 196.675 101.355 196.595C101.835 196.351 102.573 196.178 103.276 196.241C103.85 196.293 104.411 196.501 104.823 196.947C104.955 197.091 104.978 197.353 104.872 197.53C104.767 197.707 104.573 197.734 104.44 197.589C104.138 197.262 103.699 197.107 103.242 197.066C102.626 197.01 101.988 197.157 101.576 197.368Z" fill="#E0F4FF"/>
<path fill-rule="evenodd" clip-rule="evenodd" d="M101.434 193.709L101.174 186.158C102.688 186.206 105.186 186.214 107.246 186.206C107.016 190.6 106.858 193.668 106.858 193.668C107.385 198.157 103.494 200.061 102.11 198.828C100.726 197.593 101.147 194.061 101.434 193.709Z" fill="#F2FAFF"/>
<path fill-rule="evenodd" clip-rule="evenodd" d="M120.002 192.96C120.002 192.96 120.159 190.109 120.121 186.168C118.202 186.191 115.881 186.198 114.021 186.18C114.247 190.504 114.415 193.674 114.415 193.674L116.57 200.4L120.002 192.96Z" fill="#F2FAFF"/>
<path fill-rule="evenodd" clip-rule="evenodd" d="M101.263 193.589C100.742 193.776 98.093 199.15 98.336 202.8H108.743C108.743 202.8 108.937 198.628 106.687 193.548C102.552 195.638 101.061 194.52 101.263 193.589Z" fill="#546C96"/>
<path fill-rule="evenodd" clip-rule="evenodd" d="M114.449 193.549C114.449 193.549 113.518 194.704 113.302 197.621C113.084 200.538 113.515 202.844 113.515 202.844L124.755 203.591L126.039 202.582C126.394 197.464 121.507 194.373 120.002 192.84C119.604 194.031 115.632 197.639 114.449 193.549Z" fill="#546C96"/>
<path fill-rule="evenodd" clip-rule="evenodd" d="M124.356 197.298C124.222 197.112 124.082 196.932 123.941 196.755C123.532 197.109 123.172 197.554 122.941 197.94C122.844 198.101 122.85 198.35 122.955 198.492C123.061 198.634 123.224 198.617 123.322 198.455C123.55 198.073 123.931 197.623 124.356 197.298Z" fill="#E0F4FF"/>
<path fill-rule="evenodd" clip-rule="evenodd" d="M123.385 196.109C123.236 195.946 123.084 195.786 122.933 195.634C122.663 195.915 122.429 196.224 122.263 196.502C122.165 196.666 122.172 196.913 122.276 197.056C122.381 197.198 122.546 197.18 122.643 197.019C122.817 196.726 123.081 196.395 123.385 196.109Z" fill="#E0F4FF"/>
<path fill-rule="evenodd" clip-rule="evenodd" d="M113.515 202.619H125.912C126.217 202.619 126.465 203.054 126.465 203.586C126.465 204.117 126.215 204.552 125.912 204.552H113.515C113.211 204.552 112.961 204.117 112.961 203.586C112.961 203.054 113.21 202.619 113.515 202.619Z" fill="#364B70"/>
<path fill-rule="evenodd" clip-rule="evenodd" d="M100.438 139.612C100.084 150.418 100.361 166.421 100.274 170.08L109.161 170.088L109.457 150.933C110.022 150.927 110.538 150.858 111.104 150.852L111.701 170.1L121.123 169.497C121.186 160.188 120.748 149.569 120.561 139.604C120.561 139.604 103.537 129.767 100.438 139.612Z" fill="#546C96"/>
<path fill-rule="evenodd" clip-rule="evenodd" d="M123.261 106.924C122.391 109.81 119.1 113.274 116.675 114.386C113.122 109.459 110.633 98.8773 114.943 97.4291C115.355 97.2913 115.264 96.3374 115.724 96.5898C118.222 97.9626 121.794 102.103 123.261 106.924Z" fill="#0DA18D"/>
<path fill-rule="evenodd" clip-rule="evenodd" d="M96.5859 106.893C97.3799 109.844 100.577 113.567 102.97 114.872C106.648 110.233 109.412 99.8613 105.143 98.0702C104.735 97.8988 104.852 96.9532 104.385 97.1692C101.854 98.3418 98.1773 102.193 96.5859 106.893Z" fill="#0DA18D"/>
<path fill-rule="evenodd" clip-rule="evenodd" d="M123.259 106.924C121.564 110.339 119.409 113.034 116.916 114.013L118.091 117.567C119.469 117.133 123.768 113.064 124.473 110.206L123.259 106.924Z" fill="#41D1BE"/>
<path fill-rule="evenodd" clip-rule="evenodd" d="M96.5866 106.893C98.1906 110.438 100.274 113.303 102.737 114.479L101.472 117.937C100.106 117.393 95.9173 112.984 95.2881 110.073L96.5866 106.893Z" fill="#41D1BE"/>
<path fill-rule="evenodd" clip-rule="evenodd" d="M100.438 139.612C100.438 139.612 100.962 111.201 101.338 105.843C101.671 101.101 103.061 98.3238 105.216 96.9633C107.133 100.611 112.301 100.713 113.954 95.9663C116.742 96.6287 118.636 98.9245 118.917 105.489C119.263 113.563 120.542 139.583 120.542 139.583C121.113 139.831 108.517 143.842 100.438 139.612Z" fill="#0DA18D"/>
<path fill-rule="evenodd" clip-rule="evenodd" d="M105.409 96.5692C106.599 98.1793 108.138 99.2661 109.542 99.1873C111.534 99.0762 113.245 97.3708 113.801 95.673L115.643 96.5877C113.687 103.402 106.017 103.888 103.42 97.7185C103.695 97.5395 104.402 97.0766 105.409 96.5692Z" fill="#41D1BE"/>
<path fill-rule="evenodd" clip-rule="evenodd" d="M96.757 69.7858C97.0175 69.8421 97.6052 69.7371 97.658 64.4937C97.7025 60.1872 97.615 56.2212 99.506 51.3204C100.926 53.3784 114.398 59.5968 110.999 52.9143C110.999 52.9143 114.05 56.7678 115.276 56.9853C116.502 57.2034 115.11 51.0954 115.11 51.0954C117.967 57.7281 126.361 62.6046 123.275 54.0495C125.202 57.9204 124.395 42.2337 116.338 37.0686C112.062 34.329 102.031 34.5975 98.648 41.5283C98.648 41.5283 98.823 36.7623 98.0589 37.1049C97.2952 37.4481 97.4297 41.9025 97.4297 41.9025C97.4297 41.9025 96.5296 39.681 96.3263 40.6974C96.1224 41.7138 96.9985 42.7773 96.9985 42.7773C96.9985 42.7773 92.9646 46.7972 92.5535 54.4995C92.1418 62.202 93.8138 66.4185 93.8138 66.4185C96.2583 64.1445 96.2862 69.6837 96.757 69.7858Z" fill="black"/>
<path opacity="0.3" fill-rule="evenodd" clip-rule="evenodd" d="M114.212 73.7329C113.887 77.3816 110.608 76.6184 110.593 73.9277C110.959 74.2205 111.391 74.6531 112.11 74.7279C112.729 74.7944 113.617 74.6051 114.212 73.7329Z" fill="black"/>
<path opacity="0.5" fill-rule="evenodd" clip-rule="evenodd" d="M124.524 91.4332C124.199 95.0819 120.921 94.3187 120.905 91.6273C121.272 91.9201 121.704 92.3528 122.423 92.4282C123.042 92.4947 123.93 92.3055 124.524 91.4332Z" fill="white"/>
<path fill-rule="evenodd" clip-rule="evenodd" d="M108.298 82.2815C108.618 81.3365 109.729 79.6908 111.795 79.8849C113.594 80.0536 114.78 81.7569 115.21 83.0083C115.472 83.7702 115.404 84.4806 115.117 83.9388C112.633 79.2239 109.308 81.5663 108.588 82.6188C108.315 83.0152 108.102 82.8554 108.298 82.2815Z" fill="#B13B32"/>
<path d="M108.121 69.2674C108.121 69.2674 107.641 69.6425 106.947 69.9737C106.083 70.4098 104.879 70.7849 103.854 70.3131C103.439 70.1389 103.055 69.8256 102.73 69.3202C100.576 65.9526 102.985 62.2992 104.803 62.4558C106.482 62.6043 108.181 64.437 108.121 69.2674Z" fill="#F9FEFF"/>
<path d="M101.954 64.5476C102.522 62.9976 103.428 62.3333 104.475 62.2412C105.545 62.1509 106.729 63.0504 107.151 64.1712C106.449 62.9636 105.422 62.7081 104.793 62.6534C103.793 62.5632 102.591 63.5459 102.157 65.0414C101.771 66.3716 101.996 68.1723 102.787 69.4052C101.925 68.6455 101.363 66.1622 101.954 64.5476Z" fill="black"/>
<path d="M106.947 69.9737C106.083 70.4098 104.878 70.7849 103.854 70.3124C103.724 70.0951 103.619 69.8509 103.524 69.5808C102.94 67.8533 103.27 65.6306 104.259 64.6104C105.243 63.5904 106.517 64.166 107.102 65.8913C107.551 67.2098 107.461 68.8313 106.947 69.9737Z" fill="black"/>
<path d="M105.995 68.7134C106.13 69.1125 106.055 69.6288 105.826 69.8633C105.597 70.0999 105.302 69.9676 105.167 69.5685C105.031 69.1687 105.107 68.6537 105.336 68.4172C105.565 68.1823 105.86 68.3134 105.995 68.7134Z" fill="#FEFFFE"/>
<path d="M120.742 69.8173C120.567 70.1136 120.367 70.3467 120.152 70.5222C119.158 71.3945 117.844 71.1764 116.85 70.7828C116.006 70.4633 115.386 70.0265 115.386 70.0265C115.226 65.2304 116.875 63.3278 118.543 63.1013C120.347 62.8493 122.815 66.3632 120.742 69.8173Z" fill="#F9FEFF"/>
<path d="M121.416 65.0327C120.821 63.5205 119.906 62.9054 118.864 62.8661C117.798 62.8271 116.64 63.779 116.243 64.9151C116.917 63.6804 117.931 63.3752 118.555 63.2903C119.548 63.1524 120.762 64.0703 121.225 65.5334C121.635 66.8364 121.448 68.6372 120.688 69.9023C121.53 69.1055 122.037 66.6084 121.416 65.0327Z" fill="black"/>
<path d="M120.152 70.5223C119.158 71.3953 117.844 71.1772 116.85 70.785C116.69 70.427 116.57 70.008 116.5 69.5376C116.22 67.6543 116.865 65.7349 117.944 65.2372C119.023 64.7503 120.122 65.8741 120.402 67.7577C120.552 68.7443 120.447 69.729 120.152 70.5223Z" fill="black"/>
<path d="M119.174 69.7667C119.241 70.2131 119.088 70.6691 118.832 70.785C118.576 70.9029 118.315 70.6355 118.248 70.187C118.181 69.7413 118.334 69.286 118.59 69.1688C118.846 69.0529 119.107 69.3203 119.174 69.7667Z" fill="#FEFFFE"/>
<path d="M107.089 61.3199C107.47 61.059 107.598 60.0255 107.506 59.373C107.474 59.1516 107.317 59.2266 107.246 59.3526C106.874 60.0186 106.454 58.7718 106.005 58.6782C105.334 58.5387 104.36 59.1143 103.703 59.4108C102.71 59.8551 101.58 60.7716 100.97 62.5088C102.386 61.991 105.994 60.4566 106.343 60.7887C106.488 60.9267 106.622 61.2555 106.773 61.3334C106.891 61.3932 106.996 61.383 107.089 61.3199Z" fill="black"/>
<path d="M107.532 59.7444C107.457 60.0612 107.348 60.3441 107.201 60.4938C107.087 60.6099 106.95 60.5382 106.837 60.4854C106.409 60.2844 106.183 59.8602 105.687 60.0579C104.777 60.4223 103.88 60.9114 103.003 61.4682C102.606 61.7202 102.19 61.9452 101.779 62.199C103.44 61.5534 106.049 60.5094 106.343 60.7887C106.489 60.9249 106.622 61.2555 106.774 61.3335C106.892 61.3932 106.998 61.383 107.09 61.3199C107.404 61.1054 107.543 60.363 107.532 59.7444Z" fill="black"/>
<path d="M116.739 60.7595C117.314 60.9587 117.875 61.3847 118.46 61.5857C119.223 61.8464 119.989 62.0456 120.76 62.2346C120.837 62.2532 120.914 62.2718 120.992 62.2925C121.373 62.3027 121.751 62.2772 122.129 62.1884C122.184 62.1749 122.279 61.9328 122.192 61.8938C120.874 61.289 119.774 60.3047 118.474 59.5928C118.067 59.3696 117.304 58.6526 116.868 58.7786C116.499 58.8875 116.276 58.9709 116.005 58.7072C115.846 58.9559 115.77 59.4497 115.736 59.7647C115.708 60.0203 115.702 60.2621 115.716 60.4901C115.74 60.7067 115.781 60.9281 115.832 61.1528C115.922 61.2125 116.015 61.2551 116.107 61.3025C116.286 61.0082 116.51 60.6794 116.739 60.7595Z" fill="black"/>
<path d="M101.942 67.7306C102.764 67.7494 102.653 68.4059 102.798 68.6874C102.944 68.9693 102.745 69.3121 103.564 69.1414C104.383 68.9693 105.008 69.932 105.251 70.1857C105.495 70.4388 106.432 69.8285 106.948 69.4054C107.527 68.9309 108.052 69.2244 108.12 69.2676C107.615 69.8244 107.158 69.9567 106.478 70.2385C105.579 70.6122 104.883 70.6157 104.089 70.4058C103.506 70.2516 102.875 69.6968 102.526 69.1332C102.094 68.435 101.917 67.73 101.942 67.7306Z" fill="#87D2DB"/>
<path d="M121.511 68.2384C120.688 68.2573 120.8 68.9136 120.654 69.1955C120.508 69.4766 120.663 69.6007 119.869 69.9875C119.191 70.318 119.145 70.5491 118.902 70.8035C118.658 71.0565 117.021 70.3365 116.504 69.9127C115.925 69.4389 115.455 70.0958 115.386 70.139C115.891 70.6958 116.29 70.643 116.97 70.9248C117.869 71.2979 118.599 71.2965 119.393 71.0867C119.976 70.9324 120.632 70.2151 120.981 69.6515C121.412 68.9534 121.535 68.2381 121.511 68.2384Z" fill="#87D2DB"/>
<path d="M118.349 71.5433C118.349 71.5433 119.312 71.8396 119.534 72.8736C119.757 73.9084 118.854 74.5639 118.548 73.715C118.24 72.8647 118.762 72.6137 118.349 71.5433Z" fill="#87D2DB"/>
<path d="M118.905 73.5196C118.553 73.0883 118.739 72.6378 118.553 72.1448C118.641 72.7448 118.356 73.0321 118.583 73.6616C118.801 74.265 119.345 74.0408 119.486 73.4696C119.319 73.6835 119.094 73.7507 118.905 73.5196Z" fill="#38BFC4"/>
<path d="M120.317 71.1771C120.317 71.1771 121 71.1168 121.382 72.1769C121.764 73.237 121.341 74.3314 120.948 73.5113C120.555 72.6905 120.829 72.2009 120.317 71.1771Z" fill="#87D2DB"/>
<path d="M121.131 73.1492C120.806 72.8118 120.858 72.1597 120.624 71.6886C120.821 72.3188 120.667 72.8303 120.958 73.4378C121.237 74.0186 121.504 73.4625 121.432 72.8283C121.374 73.1327 121.304 73.3295 121.131 73.1492Z" fill="#38BFC4"/>
<path d="M103.288 70.104C103.288 70.104 102.668 69.923 102.261 70.8885C101.854 71.8547 102.18 72.9978 102.584 72.2675C102.988 71.5365 102.765 71.0099 103.288 70.104Z" fill="#87D2DB"/>
<path d="M102.436 71.8814C102.752 71.6105 102.74 70.966 102.979 70.547C102.766 71.1278 102.878 71.6524 102.579 72.1941C102.292 72.7118 102.079 72.1228 102.18 71.5166C102.215 71.8231 102.268 72.0268 102.436 71.8814Z" fill="#38BFC4"/>
<path d="M104.935 71.1305C104.935 71.1305 103.989 71.8539 103.909 73.0135C103.828 74.173 104.848 74.4528 105.043 73.4475C105.236 72.4395 104.665 72.41 104.935 71.1305Z" fill="#87D2DB"/>
<path d="M104.644 73.4029C104.944 72.807 104.689 72.4251 104.81 71.8381C104.805 72.4923 105.14 72.6624 104.996 73.4084C104.858 74.1222 104.268 74.1298 104.041 73.6038C104.243 73.7506 104.484 73.7218 104.644 73.4029Z" fill="#38BFC4"/>
<path fill-rule="evenodd" clip-rule="evenodd" d="M101.379 197.975C101.221 198.055 101.043 197.947 100.983 197.734C100.922 197.521 101 197.282 101.157 197.202C101.638 196.958 102.375 196.786 103.079 196.849C103.652 196.901 104.214 197.109 104.625 197.554C104.758 197.698 104.78 197.96 104.675 198.137C104.569 198.314 104.377 198.341 104.243 198.197C103.941 197.87 103.503 197.715 103.045 197.674C102.428 197.619 101.79 197.765 101.379 197.975Z" fill="#E0F4FF"/>
<path fill-rule="evenodd" clip-rule="evenodd" d="M101.379 200.076C101.221 200.155 101.043 200.048 100.983 199.834C100.922 199.621 101 199.382 101.157 199.303C101.638 199.058 102.375 198.885 103.079 198.948C103.652 199.001 104.214 199.209 104.625 199.654C104.758 199.798 104.78 200.059 104.675 200.237C104.569 200.414 104.377 200.441 104.243 200.297C103.941 199.97 103.503 199.815 103.045 199.774C102.428 199.718 101.79 199.865 101.379 200.076Z" fill="#E0F4FF"/>
</svg>
