<svg width="220" height="240" viewBox="0 0 220 240" fill="none" xmlns="http://www.w3.org/2000/svg">
<path fill-rule="evenodd" clip-rule="evenodd" d="M80.7862 86.3774C81.7415 89.4213 85.525 95.3932 85.525 95.3932C85.525 95.3932 87.2889 111.021 90.0848 120.528C90.7693 122.867 91.5344 124.933 92.2941 126.715C92.2961 126.72 92.2985 126.725 92.3005 126.73C92.6315 127.502 93.2592 127.657 93.7075 127.093L98.5421 120.55L100.948 117.3L96.5871 107.65L94.1304 112.245C92.3108 107.22 90.784 100.21 90.1621 92.0469C90.1621 92.0469 91.1452 87.515 90.6598 84.8915C90.3479 83.2965 89.9719 83.2156 89.7221 83.5934C89.462 83.9809 89.11 86.9617 88.9404 87.3086L87.1016 84.0268C86.4944 82.8282 85.9606 78.6042 85.042 78.7317C84.1238 78.8572 84.8787 83.0119 85.2893 84.6193C84.6768 83.5489 83.4531 78.2743 82.8019 79.1925C82.1507 80.1086 83.2106 83.4645 84.1683 86.0325C82.3658 82.6423 82.2079 80.3713 81.4785 81.1626C80.7534 81.958 82.4323 86.5351 82.8029 87.491C82.3008 86.8465 81.6163 85.0855 81.2624 84.4732C80.4317 83.0318 80.1149 84.262 80.7862 86.3774Z" fill="#FFB685"/>
<path fill-rule="evenodd" clip-rule="evenodd" d="M101.259 193.96C101.259 193.96 101.652 164.276 101.393 151.639C101.135 139 106.866 138.769 108.167 143.842C109.468 148.915 108.111 162.536 107.636 171.3C107.161 180.065 106.619 193.96 106.619 193.96C107.147 198.448 103.475 199.557 102.09 198.323C100.707 197.088 101.259 193.96 101.259 193.96Z" fill="#FFB685"/>
<path fill-rule="evenodd" clip-rule="evenodd" d="M120.001 193C120.001 193 119.481 164.276 119.741 151.639C119.999 139.001 114.268 138.769 112.966 143.842C111.665 148.914 113.022 162.536 113.497 171.3C113.973 180.065 114.447 193.709 114.447 193.709L116.57 200.4L120.001 193Z" fill="#FFB685"/>
<path fill-rule="evenodd" clip-rule="evenodd" d="M120.101 102.303C120.101 102.303 123.445 107.2 125.483 115.95C127.521 124.699 128.381 138.687 128.381 138.687C128.381 138.687 131.447 144.459 132.156 147.268C132.65 149.221 132.319 150.258 131.651 148.877C131.369 148.292 130.842 146.65 130.43 146.013C130.714 146.905 131.987 151.161 131.312 151.765C130.638 152.369 130.6 150.346 129.16 147.113C129.893 149.508 130.676 152.602 130.062 153.319C129.447 154.037 128.603 149.228 128.113 148.209C128.404 149.679 128.884 153.434 128.067 153.423C127.252 153.413 126.973 149.619 126.492 148.481L125.017 145.348C124.849 145.631 124.41 148.21 124.167 148.512C123.928 148.806 123.597 148.691 123.397 147.246C123.084 144.865 124.151 141.012 124.151 141.012C123.795 127.215 121.586 120.364 116.424 111.85C115.553 110.412 114.442 106.015 115.838 103.097C117.234 100.179 119.014 100.447 120.101 102.303Z" fill="#FFB685"/>
<path fill-rule="evenodd" clip-rule="evenodd" d="M120.101 102.303C120.101 102.303 123.445 107.2 125.483 115.95C122.721 113.678 120.567 116.864 119.84 118.239C118.885 116.122 117.753 114.041 116.424 111.85C115.553 110.412 114.442 106.015 115.838 103.097C117.234 100.179 119.014 100.447 120.101 102.303Z" fill="#FFB685"/>
<path fill-rule="evenodd" clip-rule="evenodd" d="M99.8631 102.528C99.8631 102.528 96.3939 107.153 94.1299 115.731C96.9483 113.68 99.0163 117.036 99.7061 118.468C100.716 116.43 101.902 114.442 103.286 112.359C104.194 110.992 105.419 106.686 104.101 103.661C102.783 100.633 100.997 100.761 99.8631 102.528Z" fill="#FFB685"/>
<path fill-rule="evenodd" clip-rule="evenodd" d="M106.757 86.603L111.628 88.0876L112.039 96.5349L109.391 97.4839L106.618 97.3585L106.757 86.603Z" fill="#E8935A"/>
<path fill-rule="evenodd" clip-rule="evenodd" d="M104.683 97.7239C105.764 96.3491 108.321 95.4583 110.118 95.3438C111.616 95.2492 113.542 95.4844 114.38 96.5431C113.577 98.3616 111.435 99.816 109.531 99.816C107.627 99.816 105.675 98.3356 104.683 97.7239Z" fill="#E8935A"/>
<path fill-rule="evenodd" clip-rule="evenodd" d="M95.4584 75.1295C92.2073 74.6029 92.0215 66.5744 94.7329 65.7512C93.3645 52.6313 98.6504 39.9764 108.228 39.0626C114.856 38.4311 121.846 45.0761 122.924 58.9304C123.649 68.2299 123.17 77.3211 120.942 83.0187C115.514 96.9016 97.9078 91.6751 95.4584 75.1295Z" fill="#FFB685"/>
<path fill-rule="evenodd" clip-rule="evenodd" d="M95.4589 75.1296C94.596 75.2523 94.001 74.2574 93.5752 73.5236C94.4816 74.1545 95.4119 74.306 96.4552 73.2919C98.0911 88.909 113.002 94.6285 119.153 86.3718C112.399 95.8422 97.6823 90.1522 95.4589 75.1296Z" fill="#FFB685"/>
<path fill-rule="evenodd" clip-rule="evenodd" d="M94.8989 70.7994C94.8989 70.7994 94.6017 69.5452 95.2602 69.417C95.6029 69.3512 95.7638 69.9004 95.8337 70.438C95.8982 70.9324 95.886 71.4172 95.8689 71.3919C95.8689 71.3919 95.7946 71.1505 95.6821 70.894C95.4734 70.4209 95.1336 69.9004 94.8989 70.7994Z" fill="#FAA66E"/>
<path fill-rule="evenodd" clip-rule="evenodd" d="M97.5403 67.4492C97.5403 67.4492 98.1137 63.3458 98.3244 59.6111C98.5351 55.8767 99.8131 52.7396 99.8131 52.7396C99.8131 52.7396 107.651 56.9054 109.589 55.9202C111.528 54.9344 103.517 44.408 103.517 44.408L110.067 52.6379L110.777 53.8049C110.777 53.8049 114.355 57.6176 115.276 56.9852C116.197 56.3525 112.005 46.1402 112.005 46.1402C112.005 46.1402 116.031 57.4121 121.557 58.3292C123.627 58.673 122.786 56.1596 122.099 53.3375C120.95 48.6239 118.031 42.1919 113.722 40.5167C106.833 37.838 99.9632 40.8785 98.4965 43.6976C97.0294 46.5179 94.8592 60.0653 97.5403 67.4492Z" fill="#FFB685"/>
<path fill-rule="evenodd" clip-rule="evenodd" d="M101.262 193.709L101.003 186.158C102.516 186.206 105.014 186.214 107.074 186.206C106.844 190.6 106.686 193.668 106.686 193.668C107.213 198.157 103.322 200.061 101.938 198.828C100.554 197.593 100.975 194.061 101.262 193.709Z" fill="#F2FAFF"/>
<path fill-rule="evenodd" clip-rule="evenodd" d="M98.5227 202.619H108.453C108.758 202.619 109.006 203.054 109.006 203.586C109.006 204.117 108.757 204.552 108.453 204.552H98.5227C98.2191 204.552 97.9688 204.117 97.9688 203.586C97.9688 203.054 98.2181 202.619 98.5227 202.619Z" fill="#364B70"/>
<path fill-rule="evenodd" clip-rule="evenodd" d="M120.002 192.959C120.002 192.959 120.159 190.109 120.121 186.168C118.202 186.191 115.881 186.198 114.021 186.18C114.247 190.504 114.415 193.674 114.415 193.674L116.57 200.4L120.002 192.959Z" fill="#F2FAFF"/>
<path fill-rule="evenodd" clip-rule="evenodd" d="M101.263 193.708C100.742 193.895 98.0926 199.269 98.3361 202.919H108.743C108.743 202.919 108.936 198.747 106.687 193.668C102.551 195.758 101.061 194.639 101.263 193.708Z" fill="#546C96"/>
<path fill-rule="evenodd" clip-rule="evenodd" d="M114.449 193.669C114.449 193.669 113.518 194.823 113.302 197.74C113.084 200.658 113.515 202.963 113.515 202.963L124.755 203.711L126.039 202.701C126.394 197.583 121.507 194.493 120.002 192.959C119.604 194.151 115.632 197.758 114.449 193.669Z" fill="#546C96"/>
<path fill-rule="evenodd" clip-rule="evenodd" d="M100.176 198.276C100.018 198.355 99.8401 198.248 99.7795 198.034C99.7184 197.821 99.7971 197.582 99.9536 197.503C100.435 197.258 101.172 197.085 101.876 197.148C102.449 197.201 103.011 197.409 103.422 197.854C103.555 197.998 103.577 198.259 103.472 198.437C103.366 198.614 103.173 198.641 103.04 198.497C102.738 198.17 102.3 198.015 101.842 197.974C101.225 197.919 100.587 198.065 100.176 198.276Z" fill="#E0F4FF"/>
<path fill-rule="evenodd" clip-rule="evenodd" d="M100.372 196.768C100.215 196.847 100.038 196.74 99.9768 196.527C99.9157 196.314 99.994 196.075 100.151 195.995C100.632 195.751 101.37 195.578 102.072 195.641C102.646 195.693 103.208 195.901 103.62 196.347C103.752 196.491 103.775 196.753 103.668 196.93C103.564 197.106 103.37 197.134 103.237 196.989C102.935 196.662 102.496 196.506 102.039 196.466C101.422 196.41 100.784 196.557 100.372 196.768Z" fill="#E0F4FF"/>
<path fill-rule="evenodd" clip-rule="evenodd" d="M124.355 197.298C124.221 197.112 124.082 196.932 123.94 196.755C123.532 197.109 123.171 197.554 122.94 197.94C122.842 198.101 122.85 198.35 122.954 198.492C123.059 198.634 123.224 198.617 123.321 198.455C123.549 198.073 123.931 197.623 124.355 197.298Z" fill="#E0F4FF"/>
<path fill-rule="evenodd" clip-rule="evenodd" d="M123.385 196.109C123.236 195.946 123.084 195.786 122.933 195.634C122.663 195.915 122.429 196.224 122.263 196.502C122.165 196.666 122.172 196.913 122.276 197.056C122.381 197.198 122.546 197.18 122.643 197.019C122.817 196.726 123.081 196.395 123.385 196.109Z" fill="#E0F4FF"/>
<path fill-rule="evenodd" clip-rule="evenodd" d="M113.515 202.619H125.912C126.217 202.619 126.465 203.054 126.465 203.586C126.465 204.117 126.215 204.552 125.912 204.552H113.515C113.211 204.552 112.961 204.117 112.961 203.586C112.961 203.054 113.21 202.619 113.515 202.619Z" fill="#364B70"/>
<path fill-rule="evenodd" clip-rule="evenodd" d="M100.438 139.612C100.084 150.418 100.361 166.421 100.274 170.081L109.161 170.089L109.458 150.933C110.022 150.927 110.538 150.858 111.104 150.852L111.701 170.1L121.123 169.497C121.186 160.188 120.748 149.569 120.561 139.604C120.561 139.604 103.537 129.767 100.438 139.612Z" fill="#546C96"/>
<path fill-rule="evenodd" clip-rule="evenodd" d="M123.259 106.924C121.564 110.339 119.409 113.034 116.916 114.013L118.091 117.567C119.469 117.133 123.768 113.064 124.473 110.206L123.259 106.924Z" fill="#41D1BE"/>
<path fill-rule="evenodd" clip-rule="evenodd" d="M123.261 106.924C122.391 109.81 119.1 113.274 116.675 114.386C113.122 109.459 110.633 98.8773 114.943 97.4291C115.355 97.2913 115.264 96.3374 115.724 96.5898C118.222 97.9626 121.794 102.103 123.261 106.924Z" fill="#0DA18D"/>
<path fill-rule="evenodd" clip-rule="evenodd" d="M96.5866 106.893C98.1906 110.438 100.274 113.303 102.737 114.479L101.472 117.937C100.106 117.393 95.9173 112.984 95.2881 110.073L96.5866 106.893Z" fill="#41D1BE"/>
<path fill-rule="evenodd" clip-rule="evenodd" d="M96.5859 106.893C97.3799 109.844 100.577 113.567 102.97 114.872C106.648 110.233 109.412 99.8613 105.143 98.0702C104.735 97.8988 104.852 96.9532 104.385 97.1692C101.854 98.3418 98.1773 102.193 96.5859 106.893Z" fill="#0DA18D"/>
<path fill-rule="evenodd" clip-rule="evenodd" d="M100.438 139.612C100.438 139.612 100.962 111.201 101.338 105.843C101.671 101.101 103.061 98.3238 105.216 96.9633C107.133 100.611 112.301 100.713 113.954 95.9663C116.743 96.6287 118.636 98.9245 118.917 105.489C119.263 113.563 120.542 139.583 120.542 139.583C121.113 139.831 108.517 143.842 100.438 139.612Z" fill="#0DA18D"/>
<path fill-rule="evenodd" clip-rule="evenodd" d="M105.409 96.5692C106.599 98.1793 108.138 99.2661 109.542 99.1873C111.534 99.0762 113.245 97.3708 113.801 95.673L115.643 96.5877C113.687 103.402 106.017 103.888 103.42 97.7185C103.695 97.5395 104.402 97.0766 105.409 96.5692Z" fill="#41D1BE"/>
<path fill-rule="evenodd" clip-rule="evenodd" d="M114.178 73.8323C113.862 77.3753 110.678 76.6341 110.663 74.0208C111.019 74.3068 111.439 74.7258 112.137 74.7991C112.738 74.8629 113.601 74.6791 114.178 73.8323Z" fill="#F09B63"/>
<path fill-rule="evenodd" clip-rule="evenodd" d="M102.59 70.3077C104.837 71.4158 106.295 74.5591 105.843 77.326C105.39 80.0949 103.199 81.4368 100.952 80.3287C98.7051 79.2192 97.2462 76.0766 97.6984 73.3091C98.1511 70.5415 100.342 69.1982 102.59 70.3077Z" fill="#FFB685"/>
<path fill-rule="evenodd" clip-rule="evenodd" d="M96.757 69.7859C97.0175 69.8421 97.6052 69.7372 97.658 64.4938C97.7025 60.1873 97.615 56.2213 99.506 51.3205C100.925 53.3785 114.398 59.5969 110.999 52.9144C110.999 52.9144 114.05 56.7679 115.276 56.9854C116.502 57.2035 115.11 51.0955 115.11 51.0955C117.967 57.7282 126.361 62.6047 123.275 54.0496C125.202 57.9205 124.395 42.2338 116.338 37.0687C112.062 34.3291 102.031 34.5976 98.648 41.5285C98.648 41.5285 98.8225 36.7624 98.0584 37.105C97.2947 37.4482 97.4297 41.9026 97.4297 41.9026C97.4297 41.9026 96.5296 39.6811 96.3263 40.6975C96.1224 41.7139 96.9985 42.7774 96.9985 42.7774C96.9985 42.7774 92.9642 46.7974 92.5535 54.4996C92.1418 62.2021 93.8138 66.4186 93.8138 66.4186C96.2583 64.1446 96.2862 69.6844 96.757 69.7859Z" fill="black"/>
<path fill-rule="evenodd" clip-rule="evenodd" d="M122.965 46.8434C122.443 45.2171 121.734 43.5201 120.809 41.9492C115.919 47.5872 100.712 38.7177 92.6892 52.9553C92.6286 53.4524 92.5821 53.9672 92.5538 54.5003C92.5352 54.8559 92.52 55.205 92.5098 55.5443C94.2331 53.3009 96.7607 49.3925 100.785 48.1316C106.69 46.2818 118.415 51.4145 122.965 46.8434Z" fill="#2D2D2D"/>
<path fill-rule="evenodd" clip-rule="evenodd" d="M114.212 73.7329C113.887 77.3816 110.608 76.6184 110.593 73.927C110.959 74.2204 111.391 74.6531 112.11 74.7279C112.729 74.7944 113.617 74.6051 114.212 73.7329Z" fill="#F09B63"/>
<path fill-rule="evenodd" clip-rule="evenodd" d="M114.131 73.7946C113.816 77.3342 110.636 76.5936 110.621 73.9831C110.977 74.2684 111.395 74.6874 112.093 74.7607C112.693 74.8238 113.555 74.6407 114.131 73.7946Z" fill="#F09B63"/>
<path fill-rule="evenodd" clip-rule="evenodd" d="M102.49 60.054C103.535 58.6856 105.421 58.3895 106.319 58.4702C108.018 58.622 107.335 56.8052 106.524 56.6054C104.993 56.2299 103.162 57.3716 102.157 58.9766C101.363 60.2442 101.245 61.6853 102.49 60.054Z" fill="black"/>
<path fill-rule="evenodd" clip-rule="evenodd" d="M121.689 63.0369C120.907 61.4379 119.197 60.6855 118.354 60.546C116.758 60.2805 117.638 58.6611 118.417 58.6638C119.89 58.668 121.431 60.2367 122.145 62.0595C122.708 63.4995 122.621 64.9443 121.689 63.0369Z" fill="black"/>
<path d="M108.224 69.3928C108.224 69.3928 104.708 72.4662 102.994 69.4497C100.904 65.7756 103.241 61.7844 105.003 61.9568C106.634 62.1176 108.281 64.1132 108.224 69.3928Z" fill="#F9FEFF"/>
<path d="M102.241 64.2368C102.792 62.5445 103.671 61.8191 104.687 61.7204C105.725 61.6196 106.873 62.6021 107.283 63.8276C106.602 62.507 105.605 62.2277 104.996 62.1686C104.025 62.0705 102.859 63.1439 102.438 64.7765C102.063 66.2303 102.283 68.1962 103.049 69.5451C102.212 68.714 101.667 66.0002 102.241 64.2368Z" fill="black"/>
<path d="M107.278 64.9865C107.845 66.6593 107.528 68.8182 106.569 69.807C105.611 70.7972 104.374 70.2425 103.807 68.5694C103.241 66.8966 103.558 64.739 104.516 63.7483C105.475 62.7586 106.711 63.313 107.278 64.9865Z" fill="black"/>
<path d="M106.816 64.8573C106.947 65.2449 106.874 65.745 106.652 65.9743C106.43 66.2038 106.143 66.0751 106.012 65.6874C105.881 65.2999 105.955 64.7998 106.177 64.5705C106.399 64.3414 106.684 64.4703 106.816 64.8573Z" fill="#FEFFFE"/>
<path d="M115.27 70.2226C115.27 70.2226 118.819 73.0834 120.468 69.9909C122.478 66.2232 120.084 62.3853 118.336 62.655C116.718 62.9046 115.117 64.9791 115.27 70.2226Z" fill="#F9FEFF"/>
<path d="M121.121 64.768C120.544 63.1165 119.656 62.4439 118.645 62.4022C117.612 62.3593 116.488 63.3988 116.104 64.6402C116.757 63.2899 117.741 62.9574 118.346 62.8645C119.31 62.7136 120.487 63.7156 120.936 65.3155C121.334 66.7396 121.152 68.7057 120.415 70.0881C121.232 69.2159 121.723 66.4885 121.121 64.768Z" fill="black"/>
<path d="M119.697 66.6288C119.969 68.4543 119.344 70.32 118.297 70.7973C117.252 71.2731 116.183 70.1808 115.91 68.355C115.637 66.5298 116.263 64.6635 117.309 64.1874C118.355 63.7101 119.424 64.8033 119.697 66.6288Z" fill="black"/>
<path d="M119.32 66.2634C119.385 66.6966 119.236 67.1397 118.988 67.2528C118.741 67.3659 118.486 67.1064 118.421 66.6732C118.357 66.24 118.505 65.7975 118.754 65.6841C119.002 65.5713 119.255 65.8308 119.32 66.2634Z" fill="#FEFFFE"/>
<path d="M113.914 79.0225C113.914 79.0225 109.084 79.0225 109.265 81.8613C109.415 84.2133 111.14 85.857 113.081 85.3221C113.876 85.102 114.539 84.0412 114.757 82.5916C114.982 81.0933 115.007 79.2981 113.914 79.0225Z" fill="#9F1818"/>
<path d="M109.912 83.4322C109.842 83.4857 109.776 83.5399 109.715 83.5954C110.376 84.9456 111.669 85.7108 113.081 85.322C113.675 85.1575 114.192 84.5184 114.507 83.603C114.398 83.5289 114.29 83.4535 114.181 83.3787C112.803 82.4256 111.273 82.3927 109.912 83.4322Z" fill="#E34848"/>
<path d="M114.125 80.5324C114.188 80.4858 114.696 79.8268 114.696 79.8268C114.549 79.4209 114.305 79.1219 113.913 79.0225C113.913 79.0225 109.957 79.0225 109.34 81.1276C110.878 81.8709 113.777 80.7896 114.125 80.5324Z" fill="#FDFAEE"/>
<path d="M86.462 66.7277H83.1346C81.2538 66.7277 79.7285 64.0659 79.7285 60.7827C79.7285 57.4991 81.2538 54.8375 83.1346 54.8375H86.462C88.3432 54.8375 89.8681 57.4991 89.8681 60.7827C89.8681 64.0659 88.3432 66.7277 86.462 66.7277Z" fill="#0DA18D"/>
<path d="M83.0167 61.5561C83.0847 62.0514 83.1507 62.4288 83.2152 62.6874C83.2279 62.7465 83.2426 62.8077 83.2587 62.871C83.2749 62.9343 83.2861 62.997 83.2925 63.0588C83.3003 63.1743 83.2729 63.2622 83.2103 63.3228C83.1473 63.3834 83.073 63.4248 82.9864 63.4473C82.9004 63.4698 82.8295 63.474 82.7738 63.4599C82.718 63.4461 82.6716 63.4233 82.6349 63.3924C82.5669 63.3444 82.5127 63.2616 82.4726 63.1434C82.4325 63.0252 82.4002 62.9097 82.3758 62.7972C82.3259 62.5806 82.2814 62.3019 82.2428 61.9614C82.2042 61.6209 82.1724 61.2669 82.1485 60.8997C82.124 60.5325 82.1094 60.1779 82.1035 59.8359C82.0981 59.4939 82.104 59.2149 82.1216 58.998C82.1362 58.8123 82.1602 58.6545 82.1944 58.5252C82.2169 58.4382 82.2516 58.3704 82.2981 58.3224C82.3499 58.2747 82.3919 58.2429 82.4252 58.2276C82.4584 58.212 82.5049 58.2042 82.5645 58.2042C82.6515 58.2073 82.7205 58.2345 82.7713 58.2867C82.8222 58.3386 82.8451 58.4574 82.8402 58.6431C82.8236 59.2623 82.85 59.9097 82.9175 60.5853C83.1287 60.5373 83.335 60.4911 83.5354 60.4461C83.7364 60.4011 83.8938 60.3687 84.0082 60.3489C84.0004 60.0477 83.9984 59.7601 84.0023 59.4855C84.0062 59.211 84.018 58.9782 84.037 58.7868C84.0483 58.6686 84.0669 58.5456 84.0928 58.4175C84.1187 58.2894 84.1622 58.1889 84.2238 58.1157C84.2561 58.0764 84.3133 58.0368 84.3964 57.9975C84.4795 57.9582 84.5494 57.9342 84.6071 57.9258C84.6638 57.9174 84.7264 57.9327 84.7943 57.9723C84.8618 58.0119 84.899 58.089 84.9058 58.2045C84.9058 58.2693 84.9014 58.3353 84.8936 58.4028C84.8853 58.4706 84.8784 58.5351 84.8716 58.5972C84.8007 59.1909 84.7792 59.8659 84.8066 60.6213C84.8339 61.377 84.8916 62.0631 84.9806 62.6793C85.0046 62.8593 84.9948 62.9847 84.9503 63.0549C84.9058 63.1254 84.8418 63.1746 84.7582 63.2025C84.7 63.2223 84.6491 63.2349 84.6056 63.2406C84.5621 63.2463 84.5118 63.2337 84.4555 63.2025C84.4057 63.1773 84.3636 63.1224 84.3299 63.0378C84.283 62.9256 84.2419 62.7789 84.2062 62.5989C84.1563 62.3484 84.103 61.9206 84.0468 61.3152C83.9261 61.383 83.754 61.437 83.5315 61.4778C83.3096 61.5192 83.138 61.545 83.0167 61.5561Z" fill="white"/>
<path d="M85.0933 62.466C85.0747 62.0481 85.0654 61.8393 85.0654 61.8393C85.0654 61.8393 85.0781 61.6227 85.1031 61.1892C85.128 60.7557 85.1671 60.4581 85.2214 60.2961C85.2756 60.1341 85.3289 60.0576 85.3822 60.066C85.4355 60.0717 85.4864 60.0816 85.5348 60.0957C85.5783 60.1125 85.613 60.1281 85.6384 60.1422C85.6452 60.1449 85.6531 60.1521 85.6628 60.1632C85.6677 60.1689 85.6741 60.18 85.6824 60.1968L85.7039 60.2349C85.7073 60.2406 85.7127 60.2547 85.721 60.2772C85.7259 60.2883 85.7298 60.3054 85.7328 60.3279C85.7362 60.3561 85.7396 60.3843 85.7425 60.4122C85.7425 60.4179 85.745 60.4446 85.7499 60.4926C85.7513 60.5265 85.7416 60.7929 85.7196 61.2927C85.6976 61.7922 85.7112 62.3727 85.7596 63.0342C85.7577 63.1047 85.7528 63.1734 85.745 63.2409C85.7367 63.3084 85.7288 63.3549 85.7205 63.3801C85.7059 63.4194 85.676 63.4491 85.6311 63.4686C85.61 63.477 85.5871 63.4818 85.5621 63.4833C85.5372 63.4848 85.5118 63.4842 85.4859 63.4812C85.4375 63.4785 85.3861 63.4686 85.3314 63.4518C85.2913 63.4404 85.2556 63.4251 85.2248 63.4053C85.217 63.3969 85.2101 63.39 85.2053 63.3843C85.2009 63.3816 85.1935 63.3702 85.1837 63.3504C85.1789 63.3447 85.1725 63.3321 85.1642 63.3126C85.1642 63.3153 85.1588 63.3012 85.1476 63.2703C85.1427 63.2646 85.1388 63.2478 85.1353 63.2196C85.1324 63.1998 85.128 63.1716 85.1231 63.135C85.1217 63.1068 85.1114 62.8839 85.0933 62.466ZM85.6712 58.7952C85.7318 58.8966 85.7621 59.0205 85.7621 59.1669C85.7621 59.3103 85.7318 59.4336 85.6712 59.5362C85.6105 59.6391 85.5372 59.6904 85.4497 59.6904C85.3661 59.6904 85.2937 59.6391 85.2336 59.5362C85.173 59.4336 85.1427 59.3103 85.1427 59.1669C85.1427 59.0205 85.173 58.8966 85.2336 58.7952C85.2937 58.6938 85.3661 58.6431 85.4497 58.6431C85.5367 58.6431 85.6105 58.6938 85.6712 58.7952Z" fill="white"/>
<path d="M87.0646 61.8516C87.0729 61.8882 87.0793 61.9264 87.0842 61.9657C87.089 62.0023 87.0881 62.0331 87.0817 62.0586C87.0753 62.0868 87.0626 62.1094 87.0431 62.1262C87.0235 62.1517 86.9961 62.1699 86.9605 62.181C86.8896 62.2092 86.8089 62.2218 86.719 62.2188C86.6285 62.2162 86.5454 62.2035 86.4696 62.181C86.3875 62.1612 86.3176 62.0868 86.2594 61.9572C86.2223 61.8871 86.189 61.8012 86.1602 61.6999C86.1357 61.6297 86.1108 61.5394 86.0854 61.4298C86.0692 61.3539 86.0511 61.2598 86.0321 61.147C86.0238 61.1019 86.0159 61.057 86.0076 61.012C85.9998 60.967 85.9925 60.9219 85.9861 60.877C85.9734 60.7951 85.9617 60.7066 85.9524 60.6108C85.9455 60.5715 85.9402 60.5296 85.9353 60.4846C85.9304 60.4395 85.9255 60.3943 85.9206 60.3493C85.9162 60.2986 85.9094 60.2113 85.9015 60.0874C85.8937 60.0031 85.8879 59.9158 85.8844 59.8258C85.8732 59.6682 85.8644 59.5107 85.858 59.3529C85.8517 59.1954 85.857 59.0392 85.8751 58.8841C85.8913 58.7265 85.924 58.6 85.9739 58.5042C86.0032 58.4394 86.0683 58.3873 86.1699 58.3482C86.257 58.317 86.3547 58.3059 86.4628 58.3144C86.5694 58.3227 86.6588 58.3467 86.7312 58.3861C86.8118 58.4311 86.8554 58.489 86.8617 58.5592C86.8617 58.579 86.8617 58.6126 86.8617 58.6602C86.8588 58.6801 86.8529 58.7197 86.8446 58.7787C86.8109 59.0178 86.8035 59.2903 86.8231 59.5956C86.8426 59.901 86.8602 60.1818 86.8764 60.4381C86.8891 60.6745 86.9101 60.9109 86.939 61.1473C86.9683 61.3831 87.0098 61.6183 87.0646 61.8516ZM87.2122 63.0256C87.2122 63.1803 87.1599 63.3042 87.0548 63.3972C86.9649 63.4786 86.8534 63.5196 86.7214 63.5196C86.5664 63.5196 86.4432 63.4678 86.3513 63.3634C86.2692 63.2704 86.2281 63.1591 86.2281 63.0298C86.2281 62.889 86.2741 62.7708 86.366 62.6752C86.4545 62.5768 86.5723 62.5273 86.719 62.5273C86.8705 62.5273 86.9932 62.5822 87.0866 62.692C87.1702 62.7904 87.2122 62.9017 87.2122 63.0256Z" fill="white"/>
<path d="M89.3967 63.5068C89.1914 64.34 89.3967 66.5908 89.3967 66.5908L86.4619 66.7279L89.3967 63.5068Z" fill="#0DA18D"/>
</svg>
